%TF.GenerationSoftware,KiCad,Pcbnew,7.0.5-0*%
%TF.CreationDate,2024-04-21T20:23:48-04:00*%
%TF.ProjectId,swr_meter_divider,7377725f-6d65-4746-9572-5f6469766964,rev?*%
%TF.SameCoordinates,Original*%
%TF.FileFunction,Legend,Top*%
%TF.FilePolarity,Positive*%
%FSLAX46Y46*%
G04 Gerber Fmt 4.6, Leading zero omitted, Abs format (unit mm)*
G04 Created by KiCad (PCBNEW 7.0.5-0) date 2024-04-21 20:23:48*
%MOMM*%
%LPD*%
G01*
G04 APERTURE LIST*
%ADD10C,0.500000*%
%ADD11C,0.250000*%
%ADD12C,0.200000*%
%ADD13C,0.400000*%
G04 APERTURE END LIST*
D10*
X108075542Y-41783627D02*
X108075542Y-79783627D01*
X165575542Y-41783627D02*
X165575542Y-79783627D01*
X129699727Y-51726674D02*
X129699727Y-49226674D01*
X130890203Y-51726674D02*
X130890203Y-49226674D01*
X130890203Y-49226674D02*
X132318774Y-51726674D01*
X132318774Y-51726674D02*
X132318774Y-49226674D01*
X133390203Y-51607627D02*
X133747346Y-51726674D01*
X133747346Y-51726674D02*
X134342584Y-51726674D01*
X134342584Y-51726674D02*
X134580679Y-51607627D01*
X134580679Y-51607627D02*
X134699727Y-51488579D01*
X134699727Y-51488579D02*
X134818774Y-51250484D01*
X134818774Y-51250484D02*
X134818774Y-51012388D01*
X134818774Y-51012388D02*
X134699727Y-50774293D01*
X134699727Y-50774293D02*
X134580679Y-50655246D01*
X134580679Y-50655246D02*
X134342584Y-50536198D01*
X134342584Y-50536198D02*
X133866393Y-50417150D01*
X133866393Y-50417150D02*
X133628298Y-50298103D01*
X133628298Y-50298103D02*
X133509251Y-50179055D01*
X133509251Y-50179055D02*
X133390203Y-49940960D01*
X133390203Y-49940960D02*
X133390203Y-49702865D01*
X133390203Y-49702865D02*
X133509251Y-49464769D01*
X133509251Y-49464769D02*
X133628298Y-49345722D01*
X133628298Y-49345722D02*
X133866393Y-49226674D01*
X133866393Y-49226674D02*
X134461632Y-49226674D01*
X134461632Y-49226674D02*
X134818774Y-49345722D01*
X135890203Y-51726674D02*
X135890203Y-49226674D01*
X137080679Y-51726674D02*
X137080679Y-49226674D01*
X137080679Y-49226674D02*
X137675917Y-49226674D01*
X137675917Y-49226674D02*
X138033060Y-49345722D01*
X138033060Y-49345722D02*
X138271155Y-49583817D01*
X138271155Y-49583817D02*
X138390202Y-49821912D01*
X138390202Y-49821912D02*
X138509250Y-50298103D01*
X138509250Y-50298103D02*
X138509250Y-50655246D01*
X138509250Y-50655246D02*
X138390202Y-51131436D01*
X138390202Y-51131436D02*
X138271155Y-51369531D01*
X138271155Y-51369531D02*
X138033060Y-51607627D01*
X138033060Y-51607627D02*
X137675917Y-51726674D01*
X137675917Y-51726674D02*
X137080679Y-51726674D01*
X139580679Y-50417150D02*
X140414012Y-50417150D01*
X140771155Y-51726674D02*
X139580679Y-51726674D01*
X139580679Y-51726674D02*
X139580679Y-49226674D01*
X139580679Y-49226674D02*
X140771155Y-49226674D01*
X130533060Y-54442150D02*
X129699727Y-54442150D01*
X129699727Y-55751674D02*
X129699727Y-53251674D01*
X129699727Y-53251674D02*
X130890203Y-53251674D01*
X133271155Y-55751674D02*
X132437822Y-54561198D01*
X131842584Y-55751674D02*
X131842584Y-53251674D01*
X131842584Y-53251674D02*
X132794965Y-53251674D01*
X132794965Y-53251674D02*
X133033060Y-53370722D01*
X133033060Y-53370722D02*
X133152107Y-53489769D01*
X133152107Y-53489769D02*
X133271155Y-53727865D01*
X133271155Y-53727865D02*
X133271155Y-54085007D01*
X133271155Y-54085007D02*
X133152107Y-54323103D01*
X133152107Y-54323103D02*
X133033060Y-54442150D01*
X133033060Y-54442150D02*
X132794965Y-54561198D01*
X132794965Y-54561198D02*
X131842584Y-54561198D01*
X134818774Y-53251674D02*
X135294965Y-53251674D01*
X135294965Y-53251674D02*
X135533060Y-53370722D01*
X135533060Y-53370722D02*
X135771155Y-53608817D01*
X135771155Y-53608817D02*
X135890203Y-54085007D01*
X135890203Y-54085007D02*
X135890203Y-54918341D01*
X135890203Y-54918341D02*
X135771155Y-55394531D01*
X135771155Y-55394531D02*
X135533060Y-55632627D01*
X135533060Y-55632627D02*
X135294965Y-55751674D01*
X135294965Y-55751674D02*
X134818774Y-55751674D01*
X134818774Y-55751674D02*
X134580679Y-55632627D01*
X134580679Y-55632627D02*
X134342584Y-55394531D01*
X134342584Y-55394531D02*
X134223536Y-54918341D01*
X134223536Y-54918341D02*
X134223536Y-54085007D01*
X134223536Y-54085007D02*
X134342584Y-53608817D01*
X134342584Y-53608817D02*
X134580679Y-53370722D01*
X134580679Y-53370722D02*
X134818774Y-53251674D01*
X136961632Y-55751674D02*
X136961632Y-53251674D01*
X136961632Y-53251674D02*
X138390203Y-55751674D01*
X138390203Y-55751674D02*
X138390203Y-53251674D01*
X139223537Y-53251674D02*
X140652108Y-53251674D01*
X139937822Y-55751674D02*
X139937822Y-53251674D01*
D11*
X162708256Y-78297913D02*
X162613018Y-78202675D01*
X162613018Y-78202675D02*
X162517780Y-78012199D01*
X162517780Y-78012199D02*
X162517780Y-77536008D01*
X162517780Y-77536008D02*
X162613018Y-77345532D01*
X162613018Y-77345532D02*
X162708256Y-77250294D01*
X162708256Y-77250294D02*
X162898732Y-77155056D01*
X162898732Y-77155056D02*
X163089208Y-77155056D01*
X163089208Y-77155056D02*
X163374922Y-77250294D01*
X163374922Y-77250294D02*
X164517780Y-78393151D01*
X164517780Y-78393151D02*
X164517780Y-77155056D01*
X164517780Y-76488389D02*
X163184446Y-75440770D01*
X163184446Y-76488389D02*
X164517780Y-75440770D01*
X164517780Y-73155055D02*
X162517780Y-73155055D01*
X162517780Y-73155055D02*
X163946351Y-72488388D01*
X163946351Y-72488388D02*
X162517780Y-71821722D01*
X162517780Y-71821722D02*
X164517780Y-71821722D01*
X162517780Y-71059817D02*
X162517780Y-69821722D01*
X162517780Y-69821722D02*
X163279684Y-70488389D01*
X163279684Y-70488389D02*
X163279684Y-70202674D01*
X163279684Y-70202674D02*
X163374922Y-70012198D01*
X163374922Y-70012198D02*
X163470161Y-69916960D01*
X163470161Y-69916960D02*
X163660637Y-69821722D01*
X163660637Y-69821722D02*
X164136827Y-69821722D01*
X164136827Y-69821722D02*
X164327303Y-69916960D01*
X164327303Y-69916960D02*
X164422542Y-70012198D01*
X164422542Y-70012198D02*
X164517780Y-70202674D01*
X164517780Y-70202674D02*
X164517780Y-70774103D01*
X164517780Y-70774103D02*
X164422542Y-70964579D01*
X164422542Y-70964579D02*
X164327303Y-71059817D01*
X164517780Y-69155055D02*
X163184446Y-68107436D01*
X163184446Y-69155055D02*
X164517780Y-68107436D01*
X162517780Y-66488388D02*
X162517780Y-66869341D01*
X162517780Y-66869341D02*
X162613018Y-67059817D01*
X162613018Y-67059817D02*
X162708256Y-67155055D01*
X162708256Y-67155055D02*
X162993970Y-67345531D01*
X162993970Y-67345531D02*
X163374922Y-67440769D01*
X163374922Y-67440769D02*
X164136827Y-67440769D01*
X164136827Y-67440769D02*
X164327303Y-67345531D01*
X164327303Y-67345531D02*
X164422542Y-67250293D01*
X164422542Y-67250293D02*
X164517780Y-67059817D01*
X164517780Y-67059817D02*
X164517780Y-66678864D01*
X164517780Y-66678864D02*
X164422542Y-66488388D01*
X164422542Y-66488388D02*
X164327303Y-66393150D01*
X164327303Y-66393150D02*
X164136827Y-66297912D01*
X164136827Y-66297912D02*
X163660637Y-66297912D01*
X163660637Y-66297912D02*
X163470161Y-66393150D01*
X163470161Y-66393150D02*
X163374922Y-66488388D01*
X163374922Y-66488388D02*
X163279684Y-66678864D01*
X163279684Y-66678864D02*
X163279684Y-67059817D01*
X163279684Y-67059817D02*
X163374922Y-67250293D01*
X163374922Y-67250293D02*
X163470161Y-67345531D01*
X163470161Y-67345531D02*
X163660637Y-67440769D01*
X164422542Y-64012197D02*
X164517780Y-63821721D01*
X164517780Y-63821721D02*
X164517780Y-63440769D01*
X164517780Y-63440769D02*
X164422542Y-63250292D01*
X164422542Y-63250292D02*
X164232065Y-63155054D01*
X164232065Y-63155054D02*
X164136827Y-63155054D01*
X164136827Y-63155054D02*
X163946351Y-63250292D01*
X163946351Y-63250292D02*
X163851113Y-63440769D01*
X163851113Y-63440769D02*
X163851113Y-63726483D01*
X163851113Y-63726483D02*
X163755875Y-63916959D01*
X163755875Y-63916959D02*
X163565399Y-64012197D01*
X163565399Y-64012197D02*
X163470161Y-64012197D01*
X163470161Y-64012197D02*
X163279684Y-63916959D01*
X163279684Y-63916959D02*
X163184446Y-63726483D01*
X163184446Y-63726483D02*
X163184446Y-63440769D01*
X163184446Y-63440769D02*
X163279684Y-63250292D01*
X163184446Y-62583625D02*
X163184446Y-61821721D01*
X162517780Y-62297911D02*
X164232065Y-62297911D01*
X164232065Y-62297911D02*
X164422542Y-62202673D01*
X164422542Y-62202673D02*
X164517780Y-62012197D01*
X164517780Y-62012197D02*
X164517780Y-61821721D01*
X164517780Y-60297911D02*
X163470161Y-60297911D01*
X163470161Y-60297911D02*
X163279684Y-60393149D01*
X163279684Y-60393149D02*
X163184446Y-60583625D01*
X163184446Y-60583625D02*
X163184446Y-60964578D01*
X163184446Y-60964578D02*
X163279684Y-61155054D01*
X164422542Y-60297911D02*
X164517780Y-60488387D01*
X164517780Y-60488387D02*
X164517780Y-60964578D01*
X164517780Y-60964578D02*
X164422542Y-61155054D01*
X164422542Y-61155054D02*
X164232065Y-61250292D01*
X164232065Y-61250292D02*
X164041589Y-61250292D01*
X164041589Y-61250292D02*
X163851113Y-61155054D01*
X163851113Y-61155054D02*
X163755875Y-60964578D01*
X163755875Y-60964578D02*
X163755875Y-60488387D01*
X163755875Y-60488387D02*
X163660637Y-60297911D01*
X163184446Y-59345530D02*
X164517780Y-59345530D01*
X163374922Y-59345530D02*
X163279684Y-59250292D01*
X163279684Y-59250292D02*
X163184446Y-59059816D01*
X163184446Y-59059816D02*
X163184446Y-58774101D01*
X163184446Y-58774101D02*
X163279684Y-58583625D01*
X163279684Y-58583625D02*
X163470161Y-58488387D01*
X163470161Y-58488387D02*
X164517780Y-58488387D01*
X164517780Y-56678863D02*
X162517780Y-56678863D01*
X164422542Y-56678863D02*
X164517780Y-56869339D01*
X164517780Y-56869339D02*
X164517780Y-57250292D01*
X164517780Y-57250292D02*
X164422542Y-57440768D01*
X164422542Y-57440768D02*
X164327303Y-57536006D01*
X164327303Y-57536006D02*
X164136827Y-57631244D01*
X164136827Y-57631244D02*
X163565399Y-57631244D01*
X163565399Y-57631244D02*
X163374922Y-57536006D01*
X163374922Y-57536006D02*
X163279684Y-57440768D01*
X163279684Y-57440768D02*
X163184446Y-57250292D01*
X163184446Y-57250292D02*
X163184446Y-56869339D01*
X163184446Y-56869339D02*
X163279684Y-56678863D01*
X164517780Y-55440768D02*
X164422542Y-55631244D01*
X164422542Y-55631244D02*
X164327303Y-55726482D01*
X164327303Y-55726482D02*
X164136827Y-55821720D01*
X164136827Y-55821720D02*
X163565399Y-55821720D01*
X163565399Y-55821720D02*
X163374922Y-55726482D01*
X163374922Y-55726482D02*
X163279684Y-55631244D01*
X163279684Y-55631244D02*
X163184446Y-55440768D01*
X163184446Y-55440768D02*
X163184446Y-55155053D01*
X163184446Y-55155053D02*
X163279684Y-54964577D01*
X163279684Y-54964577D02*
X163374922Y-54869339D01*
X163374922Y-54869339D02*
X163565399Y-54774101D01*
X163565399Y-54774101D02*
X164136827Y-54774101D01*
X164136827Y-54774101D02*
X164327303Y-54869339D01*
X164327303Y-54869339D02*
X164422542Y-54964577D01*
X164422542Y-54964577D02*
X164517780Y-55155053D01*
X164517780Y-55155053D02*
X164517780Y-55440768D01*
X163184446Y-54202672D02*
X163184446Y-53440768D01*
X164517780Y-53916958D02*
X162803494Y-53916958D01*
X162803494Y-53916958D02*
X162613018Y-53821720D01*
X162613018Y-53821720D02*
X162517780Y-53631244D01*
X162517780Y-53631244D02*
X162517780Y-53440768D01*
X163184446Y-53059815D02*
X163184446Y-52297911D01*
X164517780Y-52774101D02*
X162803494Y-52774101D01*
X162803494Y-52774101D02*
X162613018Y-52678863D01*
X162613018Y-52678863D02*
X162517780Y-52488387D01*
X162517780Y-52488387D02*
X162517780Y-52297911D01*
X164422542Y-51726482D02*
X164517780Y-51536006D01*
X164517780Y-51536006D02*
X164517780Y-51155054D01*
X164517780Y-51155054D02*
X164422542Y-50964577D01*
X164422542Y-50964577D02*
X164232065Y-50869339D01*
X164232065Y-50869339D02*
X164136827Y-50869339D01*
X164136827Y-50869339D02*
X163946351Y-50964577D01*
X163946351Y-50964577D02*
X163851113Y-51155054D01*
X163851113Y-51155054D02*
X163851113Y-51440768D01*
X163851113Y-51440768D02*
X163755875Y-51631244D01*
X163755875Y-51631244D02*
X163565399Y-51726482D01*
X163565399Y-51726482D02*
X163470161Y-51726482D01*
X163470161Y-51726482D02*
X163279684Y-51631244D01*
X163279684Y-51631244D02*
X163184446Y-51440768D01*
X163184446Y-51440768D02*
X163184446Y-51155054D01*
X163184446Y-51155054D02*
X163279684Y-50964577D01*
D12*
X130383310Y-30828465D02*
X130383310Y-28828465D01*
X130383310Y-28828465D02*
X130859500Y-28828465D01*
X130859500Y-28828465D02*
X131145215Y-28923703D01*
X131145215Y-28923703D02*
X131335691Y-29114179D01*
X131335691Y-29114179D02*
X131430929Y-29304655D01*
X131430929Y-29304655D02*
X131526167Y-29685607D01*
X131526167Y-29685607D02*
X131526167Y-29971322D01*
X131526167Y-29971322D02*
X131430929Y-30352274D01*
X131430929Y-30352274D02*
X131335691Y-30542750D01*
X131335691Y-30542750D02*
X131145215Y-30733227D01*
X131145215Y-30733227D02*
X130859500Y-30828465D01*
X130859500Y-30828465D02*
X130383310Y-30828465D01*
X132383310Y-30828465D02*
X132383310Y-29495131D01*
X132383310Y-28828465D02*
X132288072Y-28923703D01*
X132288072Y-28923703D02*
X132383310Y-29018941D01*
X132383310Y-29018941D02*
X132478548Y-28923703D01*
X132478548Y-28923703D02*
X132383310Y-28828465D01*
X132383310Y-28828465D02*
X132383310Y-29018941D01*
X133145215Y-29495131D02*
X133621405Y-30828465D01*
X133621405Y-30828465D02*
X134097596Y-29495131D01*
X134859501Y-30828465D02*
X134859501Y-29495131D01*
X134859501Y-28828465D02*
X134764263Y-28923703D01*
X134764263Y-28923703D02*
X134859501Y-29018941D01*
X134859501Y-29018941D02*
X134954739Y-28923703D01*
X134954739Y-28923703D02*
X134859501Y-28828465D01*
X134859501Y-28828465D02*
X134859501Y-29018941D01*
X136669025Y-30828465D02*
X136669025Y-28828465D01*
X136669025Y-30733227D02*
X136478549Y-30828465D01*
X136478549Y-30828465D02*
X136097596Y-30828465D01*
X136097596Y-30828465D02*
X135907120Y-30733227D01*
X135907120Y-30733227D02*
X135811882Y-30637988D01*
X135811882Y-30637988D02*
X135716644Y-30447512D01*
X135716644Y-30447512D02*
X135716644Y-29876084D01*
X135716644Y-29876084D02*
X135811882Y-29685607D01*
X135811882Y-29685607D02*
X135907120Y-29590369D01*
X135907120Y-29590369D02*
X136097596Y-29495131D01*
X136097596Y-29495131D02*
X136478549Y-29495131D01*
X136478549Y-29495131D02*
X136669025Y-29590369D01*
X138383311Y-30733227D02*
X138192835Y-30828465D01*
X138192835Y-30828465D02*
X137811882Y-30828465D01*
X137811882Y-30828465D02*
X137621406Y-30733227D01*
X137621406Y-30733227D02*
X137526168Y-30542750D01*
X137526168Y-30542750D02*
X137526168Y-29780846D01*
X137526168Y-29780846D02*
X137621406Y-29590369D01*
X137621406Y-29590369D02*
X137811882Y-29495131D01*
X137811882Y-29495131D02*
X138192835Y-29495131D01*
X138192835Y-29495131D02*
X138383311Y-29590369D01*
X138383311Y-29590369D02*
X138478549Y-29780846D01*
X138478549Y-29780846D02*
X138478549Y-29971322D01*
X138478549Y-29971322D02*
X137526168Y-30161798D01*
X139335692Y-30828465D02*
X139335692Y-29495131D01*
X139335692Y-29876084D02*
X139430930Y-29685607D01*
X139430930Y-29685607D02*
X139526168Y-29590369D01*
X139526168Y-29590369D02*
X139716644Y-29495131D01*
X139716644Y-29495131D02*
X139907121Y-29495131D01*
X140288073Y-28828465D02*
X141430930Y-28828465D01*
X140859501Y-30828465D02*
X140859501Y-28828465D01*
X142383311Y-30828465D02*
X142192835Y-30733227D01*
X142192835Y-30733227D02*
X142097597Y-30637988D01*
X142097597Y-30637988D02*
X142002359Y-30447512D01*
X142002359Y-30447512D02*
X142002359Y-29876084D01*
X142002359Y-29876084D02*
X142097597Y-29685607D01*
X142097597Y-29685607D02*
X142192835Y-29590369D01*
X142192835Y-29590369D02*
X142383311Y-29495131D01*
X142383311Y-29495131D02*
X142669026Y-29495131D01*
X142669026Y-29495131D02*
X142859502Y-29590369D01*
X142859502Y-29590369D02*
X142954740Y-29685607D01*
X142954740Y-29685607D02*
X143049978Y-29876084D01*
X143049978Y-29876084D02*
X143049978Y-30447512D01*
X143049978Y-30447512D02*
X142954740Y-30637988D01*
X142954740Y-30637988D02*
X142859502Y-30733227D01*
X142859502Y-30733227D02*
X142669026Y-30828465D01*
X142669026Y-30828465D02*
X142383311Y-30828465D01*
X143907121Y-29495131D02*
X143907121Y-31495131D01*
X143907121Y-29590369D02*
X144097597Y-29495131D01*
X144097597Y-29495131D02*
X144478550Y-29495131D01*
X144478550Y-29495131D02*
X144669026Y-29590369D01*
X144669026Y-29590369D02*
X144764264Y-29685607D01*
X144764264Y-29685607D02*
X144859502Y-29876084D01*
X144859502Y-29876084D02*
X144859502Y-30447512D01*
X144859502Y-30447512D02*
X144764264Y-30637988D01*
X144764264Y-30637988D02*
X144669026Y-30733227D01*
X144669026Y-30733227D02*
X144478550Y-30828465D01*
X144478550Y-30828465D02*
X144097597Y-30828465D01*
X144097597Y-30828465D02*
X143907121Y-30733227D01*
D13*
X127514889Y-66318065D02*
X127514889Y-64318065D01*
X127514889Y-64318065D02*
X128181556Y-65746636D01*
X128181556Y-65746636D02*
X128848222Y-64318065D01*
X128848222Y-64318065D02*
X128848222Y-66318065D01*
X130562508Y-66222827D02*
X130372032Y-66318065D01*
X130372032Y-66318065D02*
X129991079Y-66318065D01*
X129991079Y-66318065D02*
X129800603Y-66222827D01*
X129800603Y-66222827D02*
X129705365Y-66032350D01*
X129705365Y-66032350D02*
X129705365Y-65270446D01*
X129705365Y-65270446D02*
X129800603Y-65079969D01*
X129800603Y-65079969D02*
X129991079Y-64984731D01*
X129991079Y-64984731D02*
X130372032Y-64984731D01*
X130372032Y-64984731D02*
X130562508Y-65079969D01*
X130562508Y-65079969D02*
X130657746Y-65270446D01*
X130657746Y-65270446D02*
X130657746Y-65460922D01*
X130657746Y-65460922D02*
X129705365Y-65651398D01*
X131229175Y-64984731D02*
X131991079Y-64984731D01*
X131514889Y-64318065D02*
X131514889Y-66032350D01*
X131514889Y-66032350D02*
X131610127Y-66222827D01*
X131610127Y-66222827D02*
X131800603Y-66318065D01*
X131800603Y-66318065D02*
X131991079Y-66318065D01*
X133419651Y-66222827D02*
X133229175Y-66318065D01*
X133229175Y-66318065D02*
X132848222Y-66318065D01*
X132848222Y-66318065D02*
X132657746Y-66222827D01*
X132657746Y-66222827D02*
X132562508Y-66032350D01*
X132562508Y-66032350D02*
X132562508Y-65270446D01*
X132562508Y-65270446D02*
X132657746Y-65079969D01*
X132657746Y-65079969D02*
X132848222Y-64984731D01*
X132848222Y-64984731D02*
X133229175Y-64984731D01*
X133229175Y-64984731D02*
X133419651Y-65079969D01*
X133419651Y-65079969D02*
X133514889Y-65270446D01*
X133514889Y-65270446D02*
X133514889Y-65460922D01*
X133514889Y-65460922D02*
X132562508Y-65651398D01*
X134372032Y-66318065D02*
X134372032Y-64984731D01*
X134372032Y-65365684D02*
X134467270Y-65175207D01*
X134467270Y-65175207D02*
X134562508Y-65079969D01*
X134562508Y-65079969D02*
X134752984Y-64984731D01*
X134752984Y-64984731D02*
X134943461Y-64984731D01*
X137133937Y-66318065D02*
X137133937Y-64318065D01*
X137133937Y-64318065D02*
X137895842Y-64318065D01*
X137895842Y-64318065D02*
X138086318Y-64413303D01*
X138086318Y-64413303D02*
X138181556Y-64508541D01*
X138181556Y-64508541D02*
X138276794Y-64699017D01*
X138276794Y-64699017D02*
X138276794Y-64984731D01*
X138276794Y-64984731D02*
X138181556Y-65175207D01*
X138181556Y-65175207D02*
X138086318Y-65270446D01*
X138086318Y-65270446D02*
X137895842Y-65365684D01*
X137895842Y-65365684D02*
X137133937Y-65365684D01*
X140276794Y-66127588D02*
X140181556Y-66222827D01*
X140181556Y-66222827D02*
X139895842Y-66318065D01*
X139895842Y-66318065D02*
X139705366Y-66318065D01*
X139705366Y-66318065D02*
X139419651Y-66222827D01*
X139419651Y-66222827D02*
X139229175Y-66032350D01*
X139229175Y-66032350D02*
X139133937Y-65841874D01*
X139133937Y-65841874D02*
X139038699Y-65460922D01*
X139038699Y-65460922D02*
X139038699Y-65175207D01*
X139038699Y-65175207D02*
X139133937Y-64794255D01*
X139133937Y-64794255D02*
X139229175Y-64603779D01*
X139229175Y-64603779D02*
X139419651Y-64413303D01*
X139419651Y-64413303D02*
X139705366Y-64318065D01*
X139705366Y-64318065D02*
X139895842Y-64318065D01*
X139895842Y-64318065D02*
X140181556Y-64413303D01*
X140181556Y-64413303D02*
X140276794Y-64508541D01*
X141800604Y-65270446D02*
X142086318Y-65365684D01*
X142086318Y-65365684D02*
X142181556Y-65460922D01*
X142181556Y-65460922D02*
X142276794Y-65651398D01*
X142276794Y-65651398D02*
X142276794Y-65937112D01*
X142276794Y-65937112D02*
X142181556Y-66127588D01*
X142181556Y-66127588D02*
X142086318Y-66222827D01*
X142086318Y-66222827D02*
X141895842Y-66318065D01*
X141895842Y-66318065D02*
X141133937Y-66318065D01*
X141133937Y-66318065D02*
X141133937Y-64318065D01*
X141133937Y-64318065D02*
X141800604Y-64318065D01*
X141800604Y-64318065D02*
X141991080Y-64413303D01*
X141991080Y-64413303D02*
X142086318Y-64508541D01*
X142086318Y-64508541D02*
X142181556Y-64699017D01*
X142181556Y-64699017D02*
X142181556Y-64889493D01*
X142181556Y-64889493D02*
X142086318Y-65079969D01*
X142086318Y-65079969D02*
X141991080Y-65175207D01*
X141991080Y-65175207D02*
X141800604Y-65270446D01*
X141800604Y-65270446D02*
X141133937Y-65270446D01*
D12*
X169729903Y-70433001D02*
X169825142Y-70528239D01*
X169825142Y-70528239D02*
X169920380Y-70813953D01*
X169920380Y-70813953D02*
X169920380Y-71004429D01*
X169920380Y-71004429D02*
X169825142Y-71290144D01*
X169825142Y-71290144D02*
X169634665Y-71480620D01*
X169634665Y-71480620D02*
X169444189Y-71575858D01*
X169444189Y-71575858D02*
X169063237Y-71671096D01*
X169063237Y-71671096D02*
X168777522Y-71671096D01*
X168777522Y-71671096D02*
X168396570Y-71575858D01*
X168396570Y-71575858D02*
X168206094Y-71480620D01*
X168206094Y-71480620D02*
X168015618Y-71290144D01*
X168015618Y-71290144D02*
X167920380Y-71004429D01*
X167920380Y-71004429D02*
X167920380Y-70813953D01*
X167920380Y-70813953D02*
X168015618Y-70528239D01*
X168015618Y-70528239D02*
X168110856Y-70433001D01*
X169825142Y-68813953D02*
X169920380Y-69004429D01*
X169920380Y-69004429D02*
X169920380Y-69385382D01*
X169920380Y-69385382D02*
X169825142Y-69575858D01*
X169825142Y-69575858D02*
X169634665Y-69671096D01*
X169634665Y-69671096D02*
X168872761Y-69671096D01*
X168872761Y-69671096D02*
X168682284Y-69575858D01*
X168682284Y-69575858D02*
X168587046Y-69385382D01*
X168587046Y-69385382D02*
X168587046Y-69004429D01*
X168587046Y-69004429D02*
X168682284Y-68813953D01*
X168682284Y-68813953D02*
X168872761Y-68718715D01*
X168872761Y-68718715D02*
X169063237Y-68718715D01*
X169063237Y-68718715D02*
X169253713Y-69671096D01*
X168587046Y-67861572D02*
X169920380Y-67861572D01*
X168777522Y-67861572D02*
X168682284Y-67766334D01*
X168682284Y-67766334D02*
X168587046Y-67575858D01*
X168587046Y-67575858D02*
X168587046Y-67290143D01*
X168587046Y-67290143D02*
X168682284Y-67099667D01*
X168682284Y-67099667D02*
X168872761Y-67004429D01*
X168872761Y-67004429D02*
X169920380Y-67004429D01*
X168587046Y-66337762D02*
X168587046Y-65575858D01*
X167920380Y-66052048D02*
X169634665Y-66052048D01*
X169634665Y-66052048D02*
X169825142Y-65956810D01*
X169825142Y-65956810D02*
X169920380Y-65766334D01*
X169920380Y-65766334D02*
X169920380Y-65575858D01*
X169825142Y-64147286D02*
X169920380Y-64337762D01*
X169920380Y-64337762D02*
X169920380Y-64718715D01*
X169920380Y-64718715D02*
X169825142Y-64909191D01*
X169825142Y-64909191D02*
X169634665Y-65004429D01*
X169634665Y-65004429D02*
X168872761Y-65004429D01*
X168872761Y-65004429D02*
X168682284Y-64909191D01*
X168682284Y-64909191D02*
X168587046Y-64718715D01*
X168587046Y-64718715D02*
X168587046Y-64337762D01*
X168587046Y-64337762D02*
X168682284Y-64147286D01*
X168682284Y-64147286D02*
X168872761Y-64052048D01*
X168872761Y-64052048D02*
X169063237Y-64052048D01*
X169063237Y-64052048D02*
X169253713Y-65004429D01*
X169920380Y-63194905D02*
X168587046Y-63194905D01*
X168967999Y-63194905D02*
X168777522Y-63099667D01*
X168777522Y-63099667D02*
X168682284Y-63004429D01*
X168682284Y-63004429D02*
X168587046Y-62813953D01*
X168587046Y-62813953D02*
X168587046Y-62623476D01*
X169920380Y-60813953D02*
X168967999Y-61480620D01*
X169920380Y-61956810D02*
X167920380Y-61956810D01*
X167920380Y-61956810D02*
X167920380Y-61194905D01*
X167920380Y-61194905D02*
X168015618Y-61004429D01*
X168015618Y-61004429D02*
X168110856Y-60909191D01*
X168110856Y-60909191D02*
X168301332Y-60813953D01*
X168301332Y-60813953D02*
X168587046Y-60813953D01*
X168587046Y-60813953D02*
X168777522Y-60909191D01*
X168777522Y-60909191D02*
X168872761Y-61004429D01*
X168872761Y-61004429D02*
X168967999Y-61194905D01*
X168967999Y-61194905D02*
X168967999Y-61956810D01*
X169920380Y-59956810D02*
X168587046Y-59956810D01*
X167920380Y-59956810D02*
X168015618Y-60052048D01*
X168015618Y-60052048D02*
X168110856Y-59956810D01*
X168110856Y-59956810D02*
X168015618Y-59861572D01*
X168015618Y-59861572D02*
X167920380Y-59956810D01*
X167920380Y-59956810D02*
X168110856Y-59956810D01*
X168587046Y-58147286D02*
X170206094Y-58147286D01*
X170206094Y-58147286D02*
X170396570Y-58242524D01*
X170396570Y-58242524D02*
X170491808Y-58337762D01*
X170491808Y-58337762D02*
X170587046Y-58528239D01*
X170587046Y-58528239D02*
X170587046Y-58813953D01*
X170587046Y-58813953D02*
X170491808Y-59004429D01*
X169825142Y-58147286D02*
X169920380Y-58337762D01*
X169920380Y-58337762D02*
X169920380Y-58718715D01*
X169920380Y-58718715D02*
X169825142Y-58909191D01*
X169825142Y-58909191D02*
X169729903Y-59004429D01*
X169729903Y-59004429D02*
X169539427Y-59099667D01*
X169539427Y-59099667D02*
X168967999Y-59099667D01*
X168967999Y-59099667D02*
X168777522Y-59004429D01*
X168777522Y-59004429D02*
X168682284Y-58909191D01*
X168682284Y-58909191D02*
X168587046Y-58718715D01*
X168587046Y-58718715D02*
X168587046Y-58337762D01*
X168587046Y-58337762D02*
X168682284Y-58147286D01*
X169920380Y-57194905D02*
X167920380Y-57194905D01*
X169920380Y-56337762D02*
X168872761Y-56337762D01*
X168872761Y-56337762D02*
X168682284Y-56433000D01*
X168682284Y-56433000D02*
X168587046Y-56623476D01*
X168587046Y-56623476D02*
X168587046Y-56909191D01*
X168587046Y-56909191D02*
X168682284Y-57099667D01*
X168682284Y-57099667D02*
X168777522Y-57194905D01*
X168587046Y-55671095D02*
X168587046Y-54909191D01*
X167920380Y-55385381D02*
X169634665Y-55385381D01*
X169634665Y-55385381D02*
X169825142Y-55290143D01*
X169825142Y-55290143D02*
X169920380Y-55099667D01*
X169920380Y-55099667D02*
X169920380Y-54909191D01*
X128383310Y-97578465D02*
X128383310Y-95578465D01*
X128383310Y-95578465D02*
X128859500Y-95578465D01*
X128859500Y-95578465D02*
X129145215Y-95673703D01*
X129145215Y-95673703D02*
X129335691Y-95864179D01*
X129335691Y-95864179D02*
X129430929Y-96054655D01*
X129430929Y-96054655D02*
X129526167Y-96435607D01*
X129526167Y-96435607D02*
X129526167Y-96721322D01*
X129526167Y-96721322D02*
X129430929Y-97102274D01*
X129430929Y-97102274D02*
X129335691Y-97292750D01*
X129335691Y-97292750D02*
X129145215Y-97483227D01*
X129145215Y-97483227D02*
X128859500Y-97578465D01*
X128859500Y-97578465D02*
X128383310Y-97578465D01*
X130383310Y-97578465D02*
X130383310Y-96245131D01*
X130383310Y-95578465D02*
X130288072Y-95673703D01*
X130288072Y-95673703D02*
X130383310Y-95768941D01*
X130383310Y-95768941D02*
X130478548Y-95673703D01*
X130478548Y-95673703D02*
X130383310Y-95578465D01*
X130383310Y-95578465D02*
X130383310Y-95768941D01*
X131145215Y-96245131D02*
X131621405Y-97578465D01*
X131621405Y-97578465D02*
X132097596Y-96245131D01*
X132859501Y-97578465D02*
X132859501Y-96245131D01*
X132859501Y-95578465D02*
X132764263Y-95673703D01*
X132764263Y-95673703D02*
X132859501Y-95768941D01*
X132859501Y-95768941D02*
X132954739Y-95673703D01*
X132954739Y-95673703D02*
X132859501Y-95578465D01*
X132859501Y-95578465D02*
X132859501Y-95768941D01*
X134669025Y-97578465D02*
X134669025Y-95578465D01*
X134669025Y-97483227D02*
X134478549Y-97578465D01*
X134478549Y-97578465D02*
X134097596Y-97578465D01*
X134097596Y-97578465D02*
X133907120Y-97483227D01*
X133907120Y-97483227D02*
X133811882Y-97387988D01*
X133811882Y-97387988D02*
X133716644Y-97197512D01*
X133716644Y-97197512D02*
X133716644Y-96626084D01*
X133716644Y-96626084D02*
X133811882Y-96435607D01*
X133811882Y-96435607D02*
X133907120Y-96340369D01*
X133907120Y-96340369D02*
X134097596Y-96245131D01*
X134097596Y-96245131D02*
X134478549Y-96245131D01*
X134478549Y-96245131D02*
X134669025Y-96340369D01*
X136383311Y-97483227D02*
X136192835Y-97578465D01*
X136192835Y-97578465D02*
X135811882Y-97578465D01*
X135811882Y-97578465D02*
X135621406Y-97483227D01*
X135621406Y-97483227D02*
X135526168Y-97292750D01*
X135526168Y-97292750D02*
X135526168Y-96530846D01*
X135526168Y-96530846D02*
X135621406Y-96340369D01*
X135621406Y-96340369D02*
X135811882Y-96245131D01*
X135811882Y-96245131D02*
X136192835Y-96245131D01*
X136192835Y-96245131D02*
X136383311Y-96340369D01*
X136383311Y-96340369D02*
X136478549Y-96530846D01*
X136478549Y-96530846D02*
X136478549Y-96721322D01*
X136478549Y-96721322D02*
X135526168Y-96911798D01*
X137335692Y-97578465D02*
X137335692Y-96245131D01*
X137335692Y-96626084D02*
X137430930Y-96435607D01*
X137430930Y-96435607D02*
X137526168Y-96340369D01*
X137526168Y-96340369D02*
X137716644Y-96245131D01*
X137716644Y-96245131D02*
X137907121Y-96245131D01*
X139240454Y-96530846D02*
X139526168Y-96626084D01*
X139526168Y-96626084D02*
X139621406Y-96721322D01*
X139621406Y-96721322D02*
X139716644Y-96911798D01*
X139716644Y-96911798D02*
X139716644Y-97197512D01*
X139716644Y-97197512D02*
X139621406Y-97387988D01*
X139621406Y-97387988D02*
X139526168Y-97483227D01*
X139526168Y-97483227D02*
X139335692Y-97578465D01*
X139335692Y-97578465D02*
X138573787Y-97578465D01*
X138573787Y-97578465D02*
X138573787Y-95578465D01*
X138573787Y-95578465D02*
X139240454Y-95578465D01*
X139240454Y-95578465D02*
X139430930Y-95673703D01*
X139430930Y-95673703D02*
X139526168Y-95768941D01*
X139526168Y-95768941D02*
X139621406Y-95959417D01*
X139621406Y-95959417D02*
X139621406Y-96149893D01*
X139621406Y-96149893D02*
X139526168Y-96340369D01*
X139526168Y-96340369D02*
X139430930Y-96435607D01*
X139430930Y-96435607D02*
X139240454Y-96530846D01*
X139240454Y-96530846D02*
X138573787Y-96530846D01*
X140859501Y-97578465D02*
X140669025Y-97483227D01*
X140669025Y-97483227D02*
X140573787Y-97387988D01*
X140573787Y-97387988D02*
X140478549Y-97197512D01*
X140478549Y-97197512D02*
X140478549Y-96626084D01*
X140478549Y-96626084D02*
X140573787Y-96435607D01*
X140573787Y-96435607D02*
X140669025Y-96340369D01*
X140669025Y-96340369D02*
X140859501Y-96245131D01*
X140859501Y-96245131D02*
X141145216Y-96245131D01*
X141145216Y-96245131D02*
X141335692Y-96340369D01*
X141335692Y-96340369D02*
X141430930Y-96435607D01*
X141430930Y-96435607D02*
X141526168Y-96626084D01*
X141526168Y-96626084D02*
X141526168Y-97197512D01*
X141526168Y-97197512D02*
X141430930Y-97387988D01*
X141430930Y-97387988D02*
X141335692Y-97483227D01*
X141335692Y-97483227D02*
X141145216Y-97578465D01*
X141145216Y-97578465D02*
X140859501Y-97578465D01*
X142097597Y-96245131D02*
X142859501Y-96245131D01*
X142383311Y-95578465D02*
X142383311Y-97292750D01*
X142383311Y-97292750D02*
X142478549Y-97483227D01*
X142478549Y-97483227D02*
X142669025Y-97578465D01*
X142669025Y-97578465D02*
X142859501Y-97578465D01*
X104079903Y-69233001D02*
X104175142Y-69328239D01*
X104175142Y-69328239D02*
X104270380Y-69613953D01*
X104270380Y-69613953D02*
X104270380Y-69804429D01*
X104270380Y-69804429D02*
X104175142Y-70090144D01*
X104175142Y-70090144D02*
X103984665Y-70280620D01*
X103984665Y-70280620D02*
X103794189Y-70375858D01*
X103794189Y-70375858D02*
X103413237Y-70471096D01*
X103413237Y-70471096D02*
X103127522Y-70471096D01*
X103127522Y-70471096D02*
X102746570Y-70375858D01*
X102746570Y-70375858D02*
X102556094Y-70280620D01*
X102556094Y-70280620D02*
X102365618Y-70090144D01*
X102365618Y-70090144D02*
X102270380Y-69804429D01*
X102270380Y-69804429D02*
X102270380Y-69613953D01*
X102270380Y-69613953D02*
X102365618Y-69328239D01*
X102365618Y-69328239D02*
X102460856Y-69233001D01*
X104175142Y-67613953D02*
X104270380Y-67804429D01*
X104270380Y-67804429D02*
X104270380Y-68185382D01*
X104270380Y-68185382D02*
X104175142Y-68375858D01*
X104175142Y-68375858D02*
X103984665Y-68471096D01*
X103984665Y-68471096D02*
X103222761Y-68471096D01*
X103222761Y-68471096D02*
X103032284Y-68375858D01*
X103032284Y-68375858D02*
X102937046Y-68185382D01*
X102937046Y-68185382D02*
X102937046Y-67804429D01*
X102937046Y-67804429D02*
X103032284Y-67613953D01*
X103032284Y-67613953D02*
X103222761Y-67518715D01*
X103222761Y-67518715D02*
X103413237Y-67518715D01*
X103413237Y-67518715D02*
X103603713Y-68471096D01*
X102937046Y-66661572D02*
X104270380Y-66661572D01*
X103127522Y-66661572D02*
X103032284Y-66566334D01*
X103032284Y-66566334D02*
X102937046Y-66375858D01*
X102937046Y-66375858D02*
X102937046Y-66090143D01*
X102937046Y-66090143D02*
X103032284Y-65899667D01*
X103032284Y-65899667D02*
X103222761Y-65804429D01*
X103222761Y-65804429D02*
X104270380Y-65804429D01*
X102937046Y-65137762D02*
X102937046Y-64375858D01*
X102270380Y-64852048D02*
X103984665Y-64852048D01*
X103984665Y-64852048D02*
X104175142Y-64756810D01*
X104175142Y-64756810D02*
X104270380Y-64566334D01*
X104270380Y-64566334D02*
X104270380Y-64375858D01*
X104175142Y-62947286D02*
X104270380Y-63137762D01*
X104270380Y-63137762D02*
X104270380Y-63518715D01*
X104270380Y-63518715D02*
X104175142Y-63709191D01*
X104175142Y-63709191D02*
X103984665Y-63804429D01*
X103984665Y-63804429D02*
X103222761Y-63804429D01*
X103222761Y-63804429D02*
X103032284Y-63709191D01*
X103032284Y-63709191D02*
X102937046Y-63518715D01*
X102937046Y-63518715D02*
X102937046Y-63137762D01*
X102937046Y-63137762D02*
X103032284Y-62947286D01*
X103032284Y-62947286D02*
X103222761Y-62852048D01*
X103222761Y-62852048D02*
X103413237Y-62852048D01*
X103413237Y-62852048D02*
X103603713Y-63804429D01*
X104270380Y-61994905D02*
X102937046Y-61994905D01*
X103317999Y-61994905D02*
X103127522Y-61899667D01*
X103127522Y-61899667D02*
X103032284Y-61804429D01*
X103032284Y-61804429D02*
X102937046Y-61613953D01*
X102937046Y-61613953D02*
X102937046Y-61423476D01*
X104270380Y-59804429D02*
X104270380Y-60756810D01*
X104270380Y-60756810D02*
X102270380Y-60756810D01*
X104175142Y-58375857D02*
X104270380Y-58566333D01*
X104270380Y-58566333D02*
X104270380Y-58947286D01*
X104270380Y-58947286D02*
X104175142Y-59137762D01*
X104175142Y-59137762D02*
X103984665Y-59233000D01*
X103984665Y-59233000D02*
X103222761Y-59233000D01*
X103222761Y-59233000D02*
X103032284Y-59137762D01*
X103032284Y-59137762D02*
X102937046Y-58947286D01*
X102937046Y-58947286D02*
X102937046Y-58566333D01*
X102937046Y-58566333D02*
X103032284Y-58375857D01*
X103032284Y-58375857D02*
X103222761Y-58280619D01*
X103222761Y-58280619D02*
X103413237Y-58280619D01*
X103413237Y-58280619D02*
X103603713Y-59233000D01*
X102937046Y-57709190D02*
X102937046Y-56947286D01*
X104270380Y-57423476D02*
X102556094Y-57423476D01*
X102556094Y-57423476D02*
X102365618Y-57328238D01*
X102365618Y-57328238D02*
X102270380Y-57137762D01*
X102270380Y-57137762D02*
X102270380Y-56947286D01*
X102937046Y-56566333D02*
X102937046Y-55804429D01*
X102270380Y-56280619D02*
X103984665Y-56280619D01*
X103984665Y-56280619D02*
X104175142Y-56185381D01*
X104175142Y-56185381D02*
X104270380Y-55994905D01*
X104270380Y-55994905D02*
X104270380Y-55804429D01*
D11*
X109208256Y-78297913D02*
X109113018Y-78202675D01*
X109113018Y-78202675D02*
X109017780Y-78012199D01*
X109017780Y-78012199D02*
X109017780Y-77536008D01*
X109017780Y-77536008D02*
X109113018Y-77345532D01*
X109113018Y-77345532D02*
X109208256Y-77250294D01*
X109208256Y-77250294D02*
X109398732Y-77155056D01*
X109398732Y-77155056D02*
X109589208Y-77155056D01*
X109589208Y-77155056D02*
X109874922Y-77250294D01*
X109874922Y-77250294D02*
X111017780Y-78393151D01*
X111017780Y-78393151D02*
X111017780Y-77155056D01*
X111017780Y-76488389D02*
X109684446Y-75440770D01*
X109684446Y-76488389D02*
X111017780Y-75440770D01*
X111017780Y-73155055D02*
X109017780Y-73155055D01*
X109017780Y-73155055D02*
X110446351Y-72488388D01*
X110446351Y-72488388D02*
X109017780Y-71821722D01*
X109017780Y-71821722D02*
X111017780Y-71821722D01*
X109017780Y-71059817D02*
X109017780Y-69821722D01*
X109017780Y-69821722D02*
X109779684Y-70488389D01*
X109779684Y-70488389D02*
X109779684Y-70202674D01*
X109779684Y-70202674D02*
X109874922Y-70012198D01*
X109874922Y-70012198D02*
X109970161Y-69916960D01*
X109970161Y-69916960D02*
X110160637Y-69821722D01*
X110160637Y-69821722D02*
X110636827Y-69821722D01*
X110636827Y-69821722D02*
X110827303Y-69916960D01*
X110827303Y-69916960D02*
X110922542Y-70012198D01*
X110922542Y-70012198D02*
X111017780Y-70202674D01*
X111017780Y-70202674D02*
X111017780Y-70774103D01*
X111017780Y-70774103D02*
X110922542Y-70964579D01*
X110922542Y-70964579D02*
X110827303Y-71059817D01*
X111017780Y-69155055D02*
X109684446Y-68107436D01*
X109684446Y-69155055D02*
X111017780Y-68107436D01*
X109017780Y-66488388D02*
X109017780Y-66869341D01*
X109017780Y-66869341D02*
X109113018Y-67059817D01*
X109113018Y-67059817D02*
X109208256Y-67155055D01*
X109208256Y-67155055D02*
X109493970Y-67345531D01*
X109493970Y-67345531D02*
X109874922Y-67440769D01*
X109874922Y-67440769D02*
X110636827Y-67440769D01*
X110636827Y-67440769D02*
X110827303Y-67345531D01*
X110827303Y-67345531D02*
X110922542Y-67250293D01*
X110922542Y-67250293D02*
X111017780Y-67059817D01*
X111017780Y-67059817D02*
X111017780Y-66678864D01*
X111017780Y-66678864D02*
X110922542Y-66488388D01*
X110922542Y-66488388D02*
X110827303Y-66393150D01*
X110827303Y-66393150D02*
X110636827Y-66297912D01*
X110636827Y-66297912D02*
X110160637Y-66297912D01*
X110160637Y-66297912D02*
X109970161Y-66393150D01*
X109970161Y-66393150D02*
X109874922Y-66488388D01*
X109874922Y-66488388D02*
X109779684Y-66678864D01*
X109779684Y-66678864D02*
X109779684Y-67059817D01*
X109779684Y-67059817D02*
X109874922Y-67250293D01*
X109874922Y-67250293D02*
X109970161Y-67345531D01*
X109970161Y-67345531D02*
X110160637Y-67440769D01*
X110922542Y-64012197D02*
X111017780Y-63821721D01*
X111017780Y-63821721D02*
X111017780Y-63440769D01*
X111017780Y-63440769D02*
X110922542Y-63250292D01*
X110922542Y-63250292D02*
X110732065Y-63155054D01*
X110732065Y-63155054D02*
X110636827Y-63155054D01*
X110636827Y-63155054D02*
X110446351Y-63250292D01*
X110446351Y-63250292D02*
X110351113Y-63440769D01*
X110351113Y-63440769D02*
X110351113Y-63726483D01*
X110351113Y-63726483D02*
X110255875Y-63916959D01*
X110255875Y-63916959D02*
X110065399Y-64012197D01*
X110065399Y-64012197D02*
X109970161Y-64012197D01*
X109970161Y-64012197D02*
X109779684Y-63916959D01*
X109779684Y-63916959D02*
X109684446Y-63726483D01*
X109684446Y-63726483D02*
X109684446Y-63440769D01*
X109684446Y-63440769D02*
X109779684Y-63250292D01*
X109684446Y-62583625D02*
X109684446Y-61821721D01*
X109017780Y-62297911D02*
X110732065Y-62297911D01*
X110732065Y-62297911D02*
X110922542Y-62202673D01*
X110922542Y-62202673D02*
X111017780Y-62012197D01*
X111017780Y-62012197D02*
X111017780Y-61821721D01*
X111017780Y-60297911D02*
X109970161Y-60297911D01*
X109970161Y-60297911D02*
X109779684Y-60393149D01*
X109779684Y-60393149D02*
X109684446Y-60583625D01*
X109684446Y-60583625D02*
X109684446Y-60964578D01*
X109684446Y-60964578D02*
X109779684Y-61155054D01*
X110922542Y-60297911D02*
X111017780Y-60488387D01*
X111017780Y-60488387D02*
X111017780Y-60964578D01*
X111017780Y-60964578D02*
X110922542Y-61155054D01*
X110922542Y-61155054D02*
X110732065Y-61250292D01*
X110732065Y-61250292D02*
X110541589Y-61250292D01*
X110541589Y-61250292D02*
X110351113Y-61155054D01*
X110351113Y-61155054D02*
X110255875Y-60964578D01*
X110255875Y-60964578D02*
X110255875Y-60488387D01*
X110255875Y-60488387D02*
X110160637Y-60297911D01*
X109684446Y-59345530D02*
X111017780Y-59345530D01*
X109874922Y-59345530D02*
X109779684Y-59250292D01*
X109779684Y-59250292D02*
X109684446Y-59059816D01*
X109684446Y-59059816D02*
X109684446Y-58774101D01*
X109684446Y-58774101D02*
X109779684Y-58583625D01*
X109779684Y-58583625D02*
X109970161Y-58488387D01*
X109970161Y-58488387D02*
X111017780Y-58488387D01*
X111017780Y-56678863D02*
X109017780Y-56678863D01*
X110922542Y-56678863D02*
X111017780Y-56869339D01*
X111017780Y-56869339D02*
X111017780Y-57250292D01*
X111017780Y-57250292D02*
X110922542Y-57440768D01*
X110922542Y-57440768D02*
X110827303Y-57536006D01*
X110827303Y-57536006D02*
X110636827Y-57631244D01*
X110636827Y-57631244D02*
X110065399Y-57631244D01*
X110065399Y-57631244D02*
X109874922Y-57536006D01*
X109874922Y-57536006D02*
X109779684Y-57440768D01*
X109779684Y-57440768D02*
X109684446Y-57250292D01*
X109684446Y-57250292D02*
X109684446Y-56869339D01*
X109684446Y-56869339D02*
X109779684Y-56678863D01*
X111017780Y-55440768D02*
X110922542Y-55631244D01*
X110922542Y-55631244D02*
X110827303Y-55726482D01*
X110827303Y-55726482D02*
X110636827Y-55821720D01*
X110636827Y-55821720D02*
X110065399Y-55821720D01*
X110065399Y-55821720D02*
X109874922Y-55726482D01*
X109874922Y-55726482D02*
X109779684Y-55631244D01*
X109779684Y-55631244D02*
X109684446Y-55440768D01*
X109684446Y-55440768D02*
X109684446Y-55155053D01*
X109684446Y-55155053D02*
X109779684Y-54964577D01*
X109779684Y-54964577D02*
X109874922Y-54869339D01*
X109874922Y-54869339D02*
X110065399Y-54774101D01*
X110065399Y-54774101D02*
X110636827Y-54774101D01*
X110636827Y-54774101D02*
X110827303Y-54869339D01*
X110827303Y-54869339D02*
X110922542Y-54964577D01*
X110922542Y-54964577D02*
X111017780Y-55155053D01*
X111017780Y-55155053D02*
X111017780Y-55440768D01*
X109684446Y-54202672D02*
X109684446Y-53440768D01*
X111017780Y-53916958D02*
X109303494Y-53916958D01*
X109303494Y-53916958D02*
X109113018Y-53821720D01*
X109113018Y-53821720D02*
X109017780Y-53631244D01*
X109017780Y-53631244D02*
X109017780Y-53440768D01*
X109684446Y-53059815D02*
X109684446Y-52297911D01*
X111017780Y-52774101D02*
X109303494Y-52774101D01*
X109303494Y-52774101D02*
X109113018Y-52678863D01*
X109113018Y-52678863D02*
X109017780Y-52488387D01*
X109017780Y-52488387D02*
X109017780Y-52297911D01*
X110922542Y-51726482D02*
X111017780Y-51536006D01*
X111017780Y-51536006D02*
X111017780Y-51155054D01*
X111017780Y-51155054D02*
X110922542Y-50964577D01*
X110922542Y-50964577D02*
X110732065Y-50869339D01*
X110732065Y-50869339D02*
X110636827Y-50869339D01*
X110636827Y-50869339D02*
X110446351Y-50964577D01*
X110446351Y-50964577D02*
X110351113Y-51155054D01*
X110351113Y-51155054D02*
X110351113Y-51440768D01*
X110351113Y-51440768D02*
X110255875Y-51631244D01*
X110255875Y-51631244D02*
X110065399Y-51726482D01*
X110065399Y-51726482D02*
X109970161Y-51726482D01*
X109970161Y-51726482D02*
X109779684Y-51631244D01*
X109779684Y-51631244D02*
X109684446Y-51440768D01*
X109684446Y-51440768D02*
X109684446Y-51155054D01*
X109684446Y-51155054D02*
X109779684Y-50964577D01*
M02*
