%TF.GenerationSoftware,KiCad,Pcbnew,7.0.5-0*%
%TF.CreationDate,2024-04-21T20:23:48-04:00*%
%TF.ProjectId,swr_meter_divider,7377725f-6d65-4746-9572-5f6469766964,rev?*%
%TF.SameCoordinates,Original*%
%TF.FileFunction,Legend,Bot*%
%TF.FilePolarity,Positive*%
%FSLAX46Y46*%
G04 Gerber Fmt 4.6, Leading zero omitted, Abs format (unit mm)*
G04 Created by KiCad (PCBNEW 7.0.5-0) date 2024-04-21 20:23:48*
%MOMM*%
%LPD*%
G01*
G04 APERTURE LIST*
%ADD10C,0.500000*%
%ADD11C,0.200000*%
%ADD12C,0.400000*%
%ADD13C,0.250000*%
G04 APERTURE END LIST*
D10*
X121525542Y-45083627D02*
X154825542Y-45083627D01*
D11*
X102971180Y-70633001D02*
X102875942Y-70728239D01*
X102875942Y-70728239D02*
X102780703Y-71013953D01*
X102780703Y-71013953D02*
X102780703Y-71204429D01*
X102780703Y-71204429D02*
X102875942Y-71490144D01*
X102875942Y-71490144D02*
X103066418Y-71680620D01*
X103066418Y-71680620D02*
X103256894Y-71775858D01*
X103256894Y-71775858D02*
X103637846Y-71871096D01*
X103637846Y-71871096D02*
X103923561Y-71871096D01*
X103923561Y-71871096D02*
X104304513Y-71775858D01*
X104304513Y-71775858D02*
X104494989Y-71680620D01*
X104494989Y-71680620D02*
X104685465Y-71490144D01*
X104685465Y-71490144D02*
X104780703Y-71204429D01*
X104780703Y-71204429D02*
X104780703Y-71013953D01*
X104780703Y-71013953D02*
X104685465Y-70728239D01*
X104685465Y-70728239D02*
X104590227Y-70633001D01*
X102875942Y-69013953D02*
X102780703Y-69204429D01*
X102780703Y-69204429D02*
X102780703Y-69585382D01*
X102780703Y-69585382D02*
X102875942Y-69775858D01*
X102875942Y-69775858D02*
X103066418Y-69871096D01*
X103066418Y-69871096D02*
X103828322Y-69871096D01*
X103828322Y-69871096D02*
X104018799Y-69775858D01*
X104018799Y-69775858D02*
X104114037Y-69585382D01*
X104114037Y-69585382D02*
X104114037Y-69204429D01*
X104114037Y-69204429D02*
X104018799Y-69013953D01*
X104018799Y-69013953D02*
X103828322Y-68918715D01*
X103828322Y-68918715D02*
X103637846Y-68918715D01*
X103637846Y-68918715D02*
X103447370Y-69871096D01*
X104114037Y-68061572D02*
X102780703Y-68061572D01*
X103923561Y-68061572D02*
X104018799Y-67966334D01*
X104018799Y-67966334D02*
X104114037Y-67775858D01*
X104114037Y-67775858D02*
X104114037Y-67490143D01*
X104114037Y-67490143D02*
X104018799Y-67299667D01*
X104018799Y-67299667D02*
X103828322Y-67204429D01*
X103828322Y-67204429D02*
X102780703Y-67204429D01*
X104114037Y-66537762D02*
X104114037Y-65775858D01*
X104780703Y-66252048D02*
X103066418Y-66252048D01*
X103066418Y-66252048D02*
X102875942Y-66156810D01*
X102875942Y-66156810D02*
X102780703Y-65966334D01*
X102780703Y-65966334D02*
X102780703Y-65775858D01*
X102875942Y-64347286D02*
X102780703Y-64537762D01*
X102780703Y-64537762D02*
X102780703Y-64918715D01*
X102780703Y-64918715D02*
X102875942Y-65109191D01*
X102875942Y-65109191D02*
X103066418Y-65204429D01*
X103066418Y-65204429D02*
X103828322Y-65204429D01*
X103828322Y-65204429D02*
X104018799Y-65109191D01*
X104018799Y-65109191D02*
X104114037Y-64918715D01*
X104114037Y-64918715D02*
X104114037Y-64537762D01*
X104114037Y-64537762D02*
X104018799Y-64347286D01*
X104018799Y-64347286D02*
X103828322Y-64252048D01*
X103828322Y-64252048D02*
X103637846Y-64252048D01*
X103637846Y-64252048D02*
X103447370Y-65204429D01*
X102780703Y-63394905D02*
X104114037Y-63394905D01*
X103733084Y-63394905D02*
X103923561Y-63299667D01*
X103923561Y-63299667D02*
X104018799Y-63204429D01*
X104018799Y-63204429D02*
X104114037Y-63013953D01*
X104114037Y-63013953D02*
X104114037Y-62823476D01*
X102780703Y-61013953D02*
X103733084Y-61680620D01*
X102780703Y-62156810D02*
X104780703Y-62156810D01*
X104780703Y-62156810D02*
X104780703Y-61394905D01*
X104780703Y-61394905D02*
X104685465Y-61204429D01*
X104685465Y-61204429D02*
X104590227Y-61109191D01*
X104590227Y-61109191D02*
X104399751Y-61013953D01*
X104399751Y-61013953D02*
X104114037Y-61013953D01*
X104114037Y-61013953D02*
X103923561Y-61109191D01*
X103923561Y-61109191D02*
X103828322Y-61204429D01*
X103828322Y-61204429D02*
X103733084Y-61394905D01*
X103733084Y-61394905D02*
X103733084Y-62156810D01*
X102780703Y-60156810D02*
X104114037Y-60156810D01*
X104780703Y-60156810D02*
X104685465Y-60252048D01*
X104685465Y-60252048D02*
X104590227Y-60156810D01*
X104590227Y-60156810D02*
X104685465Y-60061572D01*
X104685465Y-60061572D02*
X104780703Y-60156810D01*
X104780703Y-60156810D02*
X104590227Y-60156810D01*
X104114037Y-58347286D02*
X102494989Y-58347286D01*
X102494989Y-58347286D02*
X102304513Y-58442524D01*
X102304513Y-58442524D02*
X102209275Y-58537762D01*
X102209275Y-58537762D02*
X102114037Y-58728239D01*
X102114037Y-58728239D02*
X102114037Y-59013953D01*
X102114037Y-59013953D02*
X102209275Y-59204429D01*
X102875942Y-58347286D02*
X102780703Y-58537762D01*
X102780703Y-58537762D02*
X102780703Y-58918715D01*
X102780703Y-58918715D02*
X102875942Y-59109191D01*
X102875942Y-59109191D02*
X102971180Y-59204429D01*
X102971180Y-59204429D02*
X103161656Y-59299667D01*
X103161656Y-59299667D02*
X103733084Y-59299667D01*
X103733084Y-59299667D02*
X103923561Y-59204429D01*
X103923561Y-59204429D02*
X104018799Y-59109191D01*
X104018799Y-59109191D02*
X104114037Y-58918715D01*
X104114037Y-58918715D02*
X104114037Y-58537762D01*
X104114037Y-58537762D02*
X104018799Y-58347286D01*
X102780703Y-57394905D02*
X104780703Y-57394905D01*
X102780703Y-56537762D02*
X103828322Y-56537762D01*
X103828322Y-56537762D02*
X104018799Y-56633000D01*
X104018799Y-56633000D02*
X104114037Y-56823476D01*
X104114037Y-56823476D02*
X104114037Y-57109191D01*
X104114037Y-57109191D02*
X104018799Y-57299667D01*
X104018799Y-57299667D02*
X103923561Y-57394905D01*
X104114037Y-55871095D02*
X104114037Y-55109191D01*
X104780703Y-55585381D02*
X103066418Y-55585381D01*
X103066418Y-55585381D02*
X102875942Y-55490143D01*
X102875942Y-55490143D02*
X102780703Y-55299667D01*
X102780703Y-55299667D02*
X102780703Y-55109191D01*
D12*
X140393337Y-41068065D02*
X141060004Y-40115684D01*
X141536194Y-41068065D02*
X141536194Y-39068065D01*
X141536194Y-39068065D02*
X140774289Y-39068065D01*
X140774289Y-39068065D02*
X140583813Y-39163303D01*
X140583813Y-39163303D02*
X140488575Y-39258541D01*
X140488575Y-39258541D02*
X140393337Y-39449017D01*
X140393337Y-39449017D02*
X140393337Y-39734731D01*
X140393337Y-39734731D02*
X140488575Y-39925207D01*
X140488575Y-39925207D02*
X140583813Y-40020446D01*
X140583813Y-40020446D02*
X140774289Y-40115684D01*
X140774289Y-40115684D02*
X141536194Y-40115684D01*
X138869527Y-40020446D02*
X139536194Y-40020446D01*
X139536194Y-41068065D02*
X139536194Y-39068065D01*
X139536194Y-39068065D02*
X138583813Y-39068065D01*
X136298098Y-41068065D02*
X136298098Y-39068065D01*
X136298098Y-39068065D02*
X135536193Y-39068065D01*
X135536193Y-39068065D02*
X135345717Y-39163303D01*
X135345717Y-39163303D02*
X135250479Y-39258541D01*
X135250479Y-39258541D02*
X135155241Y-39449017D01*
X135155241Y-39449017D02*
X135155241Y-39734731D01*
X135155241Y-39734731D02*
X135250479Y-39925207D01*
X135250479Y-39925207D02*
X135345717Y-40020446D01*
X135345717Y-40020446D02*
X135536193Y-40115684D01*
X135536193Y-40115684D02*
X136298098Y-40115684D01*
X133155241Y-40877588D02*
X133250479Y-40972827D01*
X133250479Y-40972827D02*
X133536193Y-41068065D01*
X133536193Y-41068065D02*
X133726669Y-41068065D01*
X133726669Y-41068065D02*
X134012384Y-40972827D01*
X134012384Y-40972827D02*
X134202860Y-40782350D01*
X134202860Y-40782350D02*
X134298098Y-40591874D01*
X134298098Y-40591874D02*
X134393336Y-40210922D01*
X134393336Y-40210922D02*
X134393336Y-39925207D01*
X134393336Y-39925207D02*
X134298098Y-39544255D01*
X134298098Y-39544255D02*
X134202860Y-39353779D01*
X134202860Y-39353779D02*
X134012384Y-39163303D01*
X134012384Y-39163303D02*
X133726669Y-39068065D01*
X133726669Y-39068065D02*
X133536193Y-39068065D01*
X133536193Y-39068065D02*
X133250479Y-39163303D01*
X133250479Y-39163303D02*
X133155241Y-39258541D01*
X131631431Y-40020446D02*
X131345717Y-40115684D01*
X131345717Y-40115684D02*
X131250479Y-40210922D01*
X131250479Y-40210922D02*
X131155241Y-40401398D01*
X131155241Y-40401398D02*
X131155241Y-40687112D01*
X131155241Y-40687112D02*
X131250479Y-40877588D01*
X131250479Y-40877588D02*
X131345717Y-40972827D01*
X131345717Y-40972827D02*
X131536193Y-41068065D01*
X131536193Y-41068065D02*
X132298098Y-41068065D01*
X132298098Y-41068065D02*
X132298098Y-39068065D01*
X132298098Y-39068065D02*
X131631431Y-39068065D01*
X131631431Y-39068065D02*
X131440955Y-39163303D01*
X131440955Y-39163303D02*
X131345717Y-39258541D01*
X131345717Y-39258541D02*
X131250479Y-39449017D01*
X131250479Y-39449017D02*
X131250479Y-39639493D01*
X131250479Y-39639493D02*
X131345717Y-39829969D01*
X131345717Y-39829969D02*
X131440955Y-39925207D01*
X131440955Y-39925207D02*
X131631431Y-40020446D01*
X131631431Y-40020446D02*
X132298098Y-40020446D01*
D10*
X140851356Y-51726674D02*
X140851356Y-49226674D01*
X139660880Y-51726674D02*
X139660880Y-49226674D01*
X139660880Y-49226674D02*
X138232309Y-51726674D01*
X138232309Y-51726674D02*
X138232309Y-49226674D01*
X137160880Y-51607627D02*
X136803737Y-51726674D01*
X136803737Y-51726674D02*
X136208499Y-51726674D01*
X136208499Y-51726674D02*
X135970404Y-51607627D01*
X135970404Y-51607627D02*
X135851356Y-51488579D01*
X135851356Y-51488579D02*
X135732309Y-51250484D01*
X135732309Y-51250484D02*
X135732309Y-51012388D01*
X135732309Y-51012388D02*
X135851356Y-50774293D01*
X135851356Y-50774293D02*
X135970404Y-50655246D01*
X135970404Y-50655246D02*
X136208499Y-50536198D01*
X136208499Y-50536198D02*
X136684690Y-50417150D01*
X136684690Y-50417150D02*
X136922785Y-50298103D01*
X136922785Y-50298103D02*
X137041832Y-50179055D01*
X137041832Y-50179055D02*
X137160880Y-49940960D01*
X137160880Y-49940960D02*
X137160880Y-49702865D01*
X137160880Y-49702865D02*
X137041832Y-49464769D01*
X137041832Y-49464769D02*
X136922785Y-49345722D01*
X136922785Y-49345722D02*
X136684690Y-49226674D01*
X136684690Y-49226674D02*
X136089451Y-49226674D01*
X136089451Y-49226674D02*
X135732309Y-49345722D01*
X134660880Y-51726674D02*
X134660880Y-49226674D01*
X133470404Y-51726674D02*
X133470404Y-49226674D01*
X133470404Y-49226674D02*
X132875166Y-49226674D01*
X132875166Y-49226674D02*
X132518023Y-49345722D01*
X132518023Y-49345722D02*
X132279928Y-49583817D01*
X132279928Y-49583817D02*
X132160881Y-49821912D01*
X132160881Y-49821912D02*
X132041833Y-50298103D01*
X132041833Y-50298103D02*
X132041833Y-50655246D01*
X132041833Y-50655246D02*
X132160881Y-51131436D01*
X132160881Y-51131436D02*
X132279928Y-51369531D01*
X132279928Y-51369531D02*
X132518023Y-51607627D01*
X132518023Y-51607627D02*
X132875166Y-51726674D01*
X132875166Y-51726674D02*
X133470404Y-51726674D01*
X130970404Y-50417150D02*
X130137071Y-50417150D01*
X129779928Y-51726674D02*
X130970404Y-51726674D01*
X130970404Y-51726674D02*
X130970404Y-49226674D01*
X130970404Y-49226674D02*
X129779928Y-49226674D01*
X139422785Y-55751674D02*
X140256118Y-54561198D01*
X140851356Y-55751674D02*
X140851356Y-53251674D01*
X140851356Y-53251674D02*
X139898975Y-53251674D01*
X139898975Y-53251674D02*
X139660880Y-53370722D01*
X139660880Y-53370722D02*
X139541833Y-53489769D01*
X139541833Y-53489769D02*
X139422785Y-53727865D01*
X139422785Y-53727865D02*
X139422785Y-54085007D01*
X139422785Y-54085007D02*
X139541833Y-54323103D01*
X139541833Y-54323103D02*
X139660880Y-54442150D01*
X139660880Y-54442150D02*
X139898975Y-54561198D01*
X139898975Y-54561198D02*
X140851356Y-54561198D01*
X138351356Y-54442150D02*
X137518023Y-54442150D01*
X137160880Y-55751674D02*
X138351356Y-55751674D01*
X138351356Y-55751674D02*
X138351356Y-53251674D01*
X138351356Y-53251674D02*
X137160880Y-53251674D01*
X136208499Y-55037388D02*
X135018023Y-55037388D01*
X136446594Y-55751674D02*
X135613261Y-53251674D01*
X135613261Y-53251674D02*
X134779928Y-55751674D01*
X132518023Y-55751674D02*
X133351356Y-54561198D01*
X133946594Y-55751674D02*
X133946594Y-53251674D01*
X133946594Y-53251674D02*
X132994213Y-53251674D01*
X132994213Y-53251674D02*
X132756118Y-53370722D01*
X132756118Y-53370722D02*
X132637071Y-53489769D01*
X132637071Y-53489769D02*
X132518023Y-53727865D01*
X132518023Y-53727865D02*
X132518023Y-54085007D01*
X132518023Y-54085007D02*
X132637071Y-54323103D01*
X132637071Y-54323103D02*
X132756118Y-54442150D01*
X132756118Y-54442150D02*
X132994213Y-54561198D01*
X132994213Y-54561198D02*
X133946594Y-54561198D01*
D11*
X168971180Y-69433001D02*
X168875942Y-69528239D01*
X168875942Y-69528239D02*
X168780703Y-69813953D01*
X168780703Y-69813953D02*
X168780703Y-70004429D01*
X168780703Y-70004429D02*
X168875942Y-70290144D01*
X168875942Y-70290144D02*
X169066418Y-70480620D01*
X169066418Y-70480620D02*
X169256894Y-70575858D01*
X169256894Y-70575858D02*
X169637846Y-70671096D01*
X169637846Y-70671096D02*
X169923561Y-70671096D01*
X169923561Y-70671096D02*
X170304513Y-70575858D01*
X170304513Y-70575858D02*
X170494989Y-70480620D01*
X170494989Y-70480620D02*
X170685465Y-70290144D01*
X170685465Y-70290144D02*
X170780703Y-70004429D01*
X170780703Y-70004429D02*
X170780703Y-69813953D01*
X170780703Y-69813953D02*
X170685465Y-69528239D01*
X170685465Y-69528239D02*
X170590227Y-69433001D01*
X168875942Y-67813953D02*
X168780703Y-68004429D01*
X168780703Y-68004429D02*
X168780703Y-68385382D01*
X168780703Y-68385382D02*
X168875942Y-68575858D01*
X168875942Y-68575858D02*
X169066418Y-68671096D01*
X169066418Y-68671096D02*
X169828322Y-68671096D01*
X169828322Y-68671096D02*
X170018799Y-68575858D01*
X170018799Y-68575858D02*
X170114037Y-68385382D01*
X170114037Y-68385382D02*
X170114037Y-68004429D01*
X170114037Y-68004429D02*
X170018799Y-67813953D01*
X170018799Y-67813953D02*
X169828322Y-67718715D01*
X169828322Y-67718715D02*
X169637846Y-67718715D01*
X169637846Y-67718715D02*
X169447370Y-68671096D01*
X170114037Y-66861572D02*
X168780703Y-66861572D01*
X169923561Y-66861572D02*
X170018799Y-66766334D01*
X170018799Y-66766334D02*
X170114037Y-66575858D01*
X170114037Y-66575858D02*
X170114037Y-66290143D01*
X170114037Y-66290143D02*
X170018799Y-66099667D01*
X170018799Y-66099667D02*
X169828322Y-66004429D01*
X169828322Y-66004429D02*
X168780703Y-66004429D01*
X170114037Y-65337762D02*
X170114037Y-64575858D01*
X170780703Y-65052048D02*
X169066418Y-65052048D01*
X169066418Y-65052048D02*
X168875942Y-64956810D01*
X168875942Y-64956810D02*
X168780703Y-64766334D01*
X168780703Y-64766334D02*
X168780703Y-64575858D01*
X168875942Y-63147286D02*
X168780703Y-63337762D01*
X168780703Y-63337762D02*
X168780703Y-63718715D01*
X168780703Y-63718715D02*
X168875942Y-63909191D01*
X168875942Y-63909191D02*
X169066418Y-64004429D01*
X169066418Y-64004429D02*
X169828322Y-64004429D01*
X169828322Y-64004429D02*
X170018799Y-63909191D01*
X170018799Y-63909191D02*
X170114037Y-63718715D01*
X170114037Y-63718715D02*
X170114037Y-63337762D01*
X170114037Y-63337762D02*
X170018799Y-63147286D01*
X170018799Y-63147286D02*
X169828322Y-63052048D01*
X169828322Y-63052048D02*
X169637846Y-63052048D01*
X169637846Y-63052048D02*
X169447370Y-64004429D01*
X168780703Y-62194905D02*
X170114037Y-62194905D01*
X169733084Y-62194905D02*
X169923561Y-62099667D01*
X169923561Y-62099667D02*
X170018799Y-62004429D01*
X170018799Y-62004429D02*
X170114037Y-61813953D01*
X170114037Y-61813953D02*
X170114037Y-61623476D01*
X168780703Y-60004429D02*
X168780703Y-60956810D01*
X168780703Y-60956810D02*
X170780703Y-60956810D01*
X168875942Y-58575857D02*
X168780703Y-58766333D01*
X168780703Y-58766333D02*
X168780703Y-59147286D01*
X168780703Y-59147286D02*
X168875942Y-59337762D01*
X168875942Y-59337762D02*
X169066418Y-59433000D01*
X169066418Y-59433000D02*
X169828322Y-59433000D01*
X169828322Y-59433000D02*
X170018799Y-59337762D01*
X170018799Y-59337762D02*
X170114037Y-59147286D01*
X170114037Y-59147286D02*
X170114037Y-58766333D01*
X170114037Y-58766333D02*
X170018799Y-58575857D01*
X170018799Y-58575857D02*
X169828322Y-58480619D01*
X169828322Y-58480619D02*
X169637846Y-58480619D01*
X169637846Y-58480619D02*
X169447370Y-59433000D01*
X170114037Y-57909190D02*
X170114037Y-57147286D01*
X168780703Y-57623476D02*
X170494989Y-57623476D01*
X170494989Y-57623476D02*
X170685465Y-57528238D01*
X170685465Y-57528238D02*
X170780703Y-57337762D01*
X170780703Y-57337762D02*
X170780703Y-57147286D01*
X170114037Y-56766333D02*
X170114037Y-56004429D01*
X170780703Y-56480619D02*
X169066418Y-56480619D01*
X169066418Y-56480619D02*
X168875942Y-56385381D01*
X168875942Y-56385381D02*
X168780703Y-56194905D01*
X168780703Y-56194905D02*
X168780703Y-56004429D01*
D13*
X152842209Y-42516341D02*
X152746971Y-42421103D01*
X152746971Y-42421103D02*
X152556495Y-42325865D01*
X152556495Y-42325865D02*
X152080304Y-42325865D01*
X152080304Y-42325865D02*
X151889828Y-42421103D01*
X151889828Y-42421103D02*
X151794590Y-42516341D01*
X151794590Y-42516341D02*
X151699352Y-42706817D01*
X151699352Y-42706817D02*
X151699352Y-42897293D01*
X151699352Y-42897293D02*
X151794590Y-43183007D01*
X151794590Y-43183007D02*
X152937447Y-44325865D01*
X152937447Y-44325865D02*
X151699352Y-44325865D01*
X151032685Y-44325865D02*
X149985066Y-42992531D01*
X151032685Y-42992531D02*
X149985066Y-44325865D01*
X147699351Y-44325865D02*
X147699351Y-42325865D01*
X147699351Y-42325865D02*
X147032684Y-43754436D01*
X147032684Y-43754436D02*
X146366018Y-42325865D01*
X146366018Y-42325865D02*
X146366018Y-44325865D01*
X145604113Y-42325865D02*
X144366018Y-42325865D01*
X144366018Y-42325865D02*
X145032685Y-43087769D01*
X145032685Y-43087769D02*
X144746970Y-43087769D01*
X144746970Y-43087769D02*
X144556494Y-43183007D01*
X144556494Y-43183007D02*
X144461256Y-43278246D01*
X144461256Y-43278246D02*
X144366018Y-43468722D01*
X144366018Y-43468722D02*
X144366018Y-43944912D01*
X144366018Y-43944912D02*
X144461256Y-44135388D01*
X144461256Y-44135388D02*
X144556494Y-44230627D01*
X144556494Y-44230627D02*
X144746970Y-44325865D01*
X144746970Y-44325865D02*
X145318399Y-44325865D01*
X145318399Y-44325865D02*
X145508875Y-44230627D01*
X145508875Y-44230627D02*
X145604113Y-44135388D01*
X143699351Y-44325865D02*
X142651732Y-42992531D01*
X143699351Y-42992531D02*
X142651732Y-44325865D01*
X140842208Y-44325865D02*
X141985065Y-44325865D01*
X141413637Y-44325865D02*
X141413637Y-42325865D01*
X141413637Y-42325865D02*
X141604113Y-42611579D01*
X141604113Y-42611579D02*
X141794589Y-42802055D01*
X141794589Y-42802055D02*
X141985065Y-42897293D01*
X140080303Y-42516341D02*
X139985065Y-42421103D01*
X139985065Y-42421103D02*
X139794589Y-42325865D01*
X139794589Y-42325865D02*
X139318398Y-42325865D01*
X139318398Y-42325865D02*
X139127922Y-42421103D01*
X139127922Y-42421103D02*
X139032684Y-42516341D01*
X139032684Y-42516341D02*
X138937446Y-42706817D01*
X138937446Y-42706817D02*
X138937446Y-42897293D01*
X138937446Y-42897293D02*
X139032684Y-43183007D01*
X139032684Y-43183007D02*
X140175541Y-44325865D01*
X140175541Y-44325865D02*
X138937446Y-44325865D01*
X136651731Y-44230627D02*
X136461255Y-44325865D01*
X136461255Y-44325865D02*
X136080303Y-44325865D01*
X136080303Y-44325865D02*
X135889826Y-44230627D01*
X135889826Y-44230627D02*
X135794588Y-44040150D01*
X135794588Y-44040150D02*
X135794588Y-43944912D01*
X135794588Y-43944912D02*
X135889826Y-43754436D01*
X135889826Y-43754436D02*
X136080303Y-43659198D01*
X136080303Y-43659198D02*
X136366017Y-43659198D01*
X136366017Y-43659198D02*
X136556493Y-43563960D01*
X136556493Y-43563960D02*
X136651731Y-43373484D01*
X136651731Y-43373484D02*
X136651731Y-43278246D01*
X136651731Y-43278246D02*
X136556493Y-43087769D01*
X136556493Y-43087769D02*
X136366017Y-42992531D01*
X136366017Y-42992531D02*
X136080303Y-42992531D01*
X136080303Y-42992531D02*
X135889826Y-43087769D01*
X135223159Y-42992531D02*
X134461255Y-42992531D01*
X134937445Y-42325865D02*
X134937445Y-44040150D01*
X134937445Y-44040150D02*
X134842207Y-44230627D01*
X134842207Y-44230627D02*
X134651731Y-44325865D01*
X134651731Y-44325865D02*
X134461255Y-44325865D01*
X132937445Y-44325865D02*
X132937445Y-43278246D01*
X132937445Y-43278246D02*
X133032683Y-43087769D01*
X133032683Y-43087769D02*
X133223159Y-42992531D01*
X133223159Y-42992531D02*
X133604112Y-42992531D01*
X133604112Y-42992531D02*
X133794588Y-43087769D01*
X132937445Y-44230627D02*
X133127921Y-44325865D01*
X133127921Y-44325865D02*
X133604112Y-44325865D01*
X133604112Y-44325865D02*
X133794588Y-44230627D01*
X133794588Y-44230627D02*
X133889826Y-44040150D01*
X133889826Y-44040150D02*
X133889826Y-43849674D01*
X133889826Y-43849674D02*
X133794588Y-43659198D01*
X133794588Y-43659198D02*
X133604112Y-43563960D01*
X133604112Y-43563960D02*
X133127921Y-43563960D01*
X133127921Y-43563960D02*
X132937445Y-43468722D01*
X131985064Y-42992531D02*
X131985064Y-44325865D01*
X131985064Y-43183007D02*
X131889826Y-43087769D01*
X131889826Y-43087769D02*
X131699350Y-42992531D01*
X131699350Y-42992531D02*
X131413635Y-42992531D01*
X131413635Y-42992531D02*
X131223159Y-43087769D01*
X131223159Y-43087769D02*
X131127921Y-43278246D01*
X131127921Y-43278246D02*
X131127921Y-44325865D01*
X129318397Y-44325865D02*
X129318397Y-42325865D01*
X129318397Y-44230627D02*
X129508873Y-44325865D01*
X129508873Y-44325865D02*
X129889826Y-44325865D01*
X129889826Y-44325865D02*
X130080302Y-44230627D01*
X130080302Y-44230627D02*
X130175540Y-44135388D01*
X130175540Y-44135388D02*
X130270778Y-43944912D01*
X130270778Y-43944912D02*
X130270778Y-43373484D01*
X130270778Y-43373484D02*
X130175540Y-43183007D01*
X130175540Y-43183007D02*
X130080302Y-43087769D01*
X130080302Y-43087769D02*
X129889826Y-42992531D01*
X129889826Y-42992531D02*
X129508873Y-42992531D01*
X129508873Y-42992531D02*
X129318397Y-43087769D01*
X128080302Y-44325865D02*
X128270778Y-44230627D01*
X128270778Y-44230627D02*
X128366016Y-44135388D01*
X128366016Y-44135388D02*
X128461254Y-43944912D01*
X128461254Y-43944912D02*
X128461254Y-43373484D01*
X128461254Y-43373484D02*
X128366016Y-43183007D01*
X128366016Y-43183007D02*
X128270778Y-43087769D01*
X128270778Y-43087769D02*
X128080302Y-42992531D01*
X128080302Y-42992531D02*
X127794587Y-42992531D01*
X127794587Y-42992531D02*
X127604111Y-43087769D01*
X127604111Y-43087769D02*
X127508873Y-43183007D01*
X127508873Y-43183007D02*
X127413635Y-43373484D01*
X127413635Y-43373484D02*
X127413635Y-43944912D01*
X127413635Y-43944912D02*
X127508873Y-44135388D01*
X127508873Y-44135388D02*
X127604111Y-44230627D01*
X127604111Y-44230627D02*
X127794587Y-44325865D01*
X127794587Y-44325865D02*
X128080302Y-44325865D01*
X126842206Y-42992531D02*
X126080302Y-42992531D01*
X126556492Y-44325865D02*
X126556492Y-42611579D01*
X126556492Y-42611579D02*
X126461254Y-42421103D01*
X126461254Y-42421103D02*
X126270778Y-42325865D01*
X126270778Y-42325865D02*
X126080302Y-42325865D01*
X125699349Y-42992531D02*
X124937445Y-42992531D01*
X125413635Y-44325865D02*
X125413635Y-42611579D01*
X125413635Y-42611579D02*
X125318397Y-42421103D01*
X125318397Y-42421103D02*
X125127921Y-42325865D01*
X125127921Y-42325865D02*
X124937445Y-42325865D01*
X124366016Y-44230627D02*
X124175540Y-44325865D01*
X124175540Y-44325865D02*
X123794588Y-44325865D01*
X123794588Y-44325865D02*
X123604111Y-44230627D01*
X123604111Y-44230627D02*
X123508873Y-44040150D01*
X123508873Y-44040150D02*
X123508873Y-43944912D01*
X123508873Y-43944912D02*
X123604111Y-43754436D01*
X123604111Y-43754436D02*
X123794588Y-43659198D01*
X123794588Y-43659198D02*
X124080302Y-43659198D01*
X124080302Y-43659198D02*
X124270778Y-43563960D01*
X124270778Y-43563960D02*
X124366016Y-43373484D01*
X124366016Y-43373484D02*
X124366016Y-43278246D01*
X124366016Y-43278246D02*
X124270778Y-43087769D01*
X124270778Y-43087769D02*
X124080302Y-42992531D01*
X124080302Y-42992531D02*
X123794588Y-42992531D01*
X123794588Y-42992531D02*
X123604111Y-43087769D01*
D11*
X142167773Y-97578465D02*
X142167773Y-95578465D01*
X142167773Y-95578465D02*
X141691583Y-95578465D01*
X141691583Y-95578465D02*
X141405868Y-95673703D01*
X141405868Y-95673703D02*
X141215392Y-95864179D01*
X141215392Y-95864179D02*
X141120154Y-96054655D01*
X141120154Y-96054655D02*
X141024916Y-96435607D01*
X141024916Y-96435607D02*
X141024916Y-96721322D01*
X141024916Y-96721322D02*
X141120154Y-97102274D01*
X141120154Y-97102274D02*
X141215392Y-97292750D01*
X141215392Y-97292750D02*
X141405868Y-97483227D01*
X141405868Y-97483227D02*
X141691583Y-97578465D01*
X141691583Y-97578465D02*
X142167773Y-97578465D01*
X140167773Y-97578465D02*
X140167773Y-96245131D01*
X140167773Y-95578465D02*
X140263011Y-95673703D01*
X140263011Y-95673703D02*
X140167773Y-95768941D01*
X140167773Y-95768941D02*
X140072535Y-95673703D01*
X140072535Y-95673703D02*
X140167773Y-95578465D01*
X140167773Y-95578465D02*
X140167773Y-95768941D01*
X139405868Y-96245131D02*
X138929678Y-97578465D01*
X138929678Y-97578465D02*
X138453487Y-96245131D01*
X137691582Y-97578465D02*
X137691582Y-96245131D01*
X137691582Y-95578465D02*
X137786820Y-95673703D01*
X137786820Y-95673703D02*
X137691582Y-95768941D01*
X137691582Y-95768941D02*
X137596344Y-95673703D01*
X137596344Y-95673703D02*
X137691582Y-95578465D01*
X137691582Y-95578465D02*
X137691582Y-95768941D01*
X135882058Y-97578465D02*
X135882058Y-95578465D01*
X135882058Y-97483227D02*
X136072534Y-97578465D01*
X136072534Y-97578465D02*
X136453487Y-97578465D01*
X136453487Y-97578465D02*
X136643963Y-97483227D01*
X136643963Y-97483227D02*
X136739201Y-97387988D01*
X136739201Y-97387988D02*
X136834439Y-97197512D01*
X136834439Y-97197512D02*
X136834439Y-96626084D01*
X136834439Y-96626084D02*
X136739201Y-96435607D01*
X136739201Y-96435607D02*
X136643963Y-96340369D01*
X136643963Y-96340369D02*
X136453487Y-96245131D01*
X136453487Y-96245131D02*
X136072534Y-96245131D01*
X136072534Y-96245131D02*
X135882058Y-96340369D01*
X134167772Y-97483227D02*
X134358248Y-97578465D01*
X134358248Y-97578465D02*
X134739201Y-97578465D01*
X134739201Y-97578465D02*
X134929677Y-97483227D01*
X134929677Y-97483227D02*
X135024915Y-97292750D01*
X135024915Y-97292750D02*
X135024915Y-96530846D01*
X135024915Y-96530846D02*
X134929677Y-96340369D01*
X134929677Y-96340369D02*
X134739201Y-96245131D01*
X134739201Y-96245131D02*
X134358248Y-96245131D01*
X134358248Y-96245131D02*
X134167772Y-96340369D01*
X134167772Y-96340369D02*
X134072534Y-96530846D01*
X134072534Y-96530846D02*
X134072534Y-96721322D01*
X134072534Y-96721322D02*
X135024915Y-96911798D01*
X133215391Y-97578465D02*
X133215391Y-96245131D01*
X133215391Y-96626084D02*
X133120153Y-96435607D01*
X133120153Y-96435607D02*
X133024915Y-96340369D01*
X133024915Y-96340369D02*
X132834439Y-96245131D01*
X132834439Y-96245131D02*
X132643962Y-96245131D01*
X131310629Y-96530846D02*
X131024915Y-96626084D01*
X131024915Y-96626084D02*
X130929677Y-96721322D01*
X130929677Y-96721322D02*
X130834439Y-96911798D01*
X130834439Y-96911798D02*
X130834439Y-97197512D01*
X130834439Y-97197512D02*
X130929677Y-97387988D01*
X130929677Y-97387988D02*
X131024915Y-97483227D01*
X131024915Y-97483227D02*
X131215391Y-97578465D01*
X131215391Y-97578465D02*
X131977296Y-97578465D01*
X131977296Y-97578465D02*
X131977296Y-95578465D01*
X131977296Y-95578465D02*
X131310629Y-95578465D01*
X131310629Y-95578465D02*
X131120153Y-95673703D01*
X131120153Y-95673703D02*
X131024915Y-95768941D01*
X131024915Y-95768941D02*
X130929677Y-95959417D01*
X130929677Y-95959417D02*
X130929677Y-96149893D01*
X130929677Y-96149893D02*
X131024915Y-96340369D01*
X131024915Y-96340369D02*
X131120153Y-96435607D01*
X131120153Y-96435607D02*
X131310629Y-96530846D01*
X131310629Y-96530846D02*
X131977296Y-96530846D01*
X129691582Y-97578465D02*
X129882058Y-97483227D01*
X129882058Y-97483227D02*
X129977296Y-97387988D01*
X129977296Y-97387988D02*
X130072534Y-97197512D01*
X130072534Y-97197512D02*
X130072534Y-96626084D01*
X130072534Y-96626084D02*
X129977296Y-96435607D01*
X129977296Y-96435607D02*
X129882058Y-96340369D01*
X129882058Y-96340369D02*
X129691582Y-96245131D01*
X129691582Y-96245131D02*
X129405867Y-96245131D01*
X129405867Y-96245131D02*
X129215391Y-96340369D01*
X129215391Y-96340369D02*
X129120153Y-96435607D01*
X129120153Y-96435607D02*
X129024915Y-96626084D01*
X129024915Y-96626084D02*
X129024915Y-97197512D01*
X129024915Y-97197512D02*
X129120153Y-97387988D01*
X129120153Y-97387988D02*
X129215391Y-97483227D01*
X129215391Y-97483227D02*
X129405867Y-97578465D01*
X129405867Y-97578465D02*
X129691582Y-97578465D01*
X128453486Y-96245131D02*
X127691582Y-96245131D01*
X128167772Y-95578465D02*
X128167772Y-97292750D01*
X128167772Y-97292750D02*
X128072534Y-97483227D01*
X128072534Y-97483227D02*
X127882058Y-97578465D01*
X127882058Y-97578465D02*
X127691582Y-97578465D01*
X144167773Y-30828465D02*
X144167773Y-28828465D01*
X144167773Y-28828465D02*
X143691583Y-28828465D01*
X143691583Y-28828465D02*
X143405868Y-28923703D01*
X143405868Y-28923703D02*
X143215392Y-29114179D01*
X143215392Y-29114179D02*
X143120154Y-29304655D01*
X143120154Y-29304655D02*
X143024916Y-29685607D01*
X143024916Y-29685607D02*
X143024916Y-29971322D01*
X143024916Y-29971322D02*
X143120154Y-30352274D01*
X143120154Y-30352274D02*
X143215392Y-30542750D01*
X143215392Y-30542750D02*
X143405868Y-30733227D01*
X143405868Y-30733227D02*
X143691583Y-30828465D01*
X143691583Y-30828465D02*
X144167773Y-30828465D01*
X142167773Y-30828465D02*
X142167773Y-29495131D01*
X142167773Y-28828465D02*
X142263011Y-28923703D01*
X142263011Y-28923703D02*
X142167773Y-29018941D01*
X142167773Y-29018941D02*
X142072535Y-28923703D01*
X142072535Y-28923703D02*
X142167773Y-28828465D01*
X142167773Y-28828465D02*
X142167773Y-29018941D01*
X141405868Y-29495131D02*
X140929678Y-30828465D01*
X140929678Y-30828465D02*
X140453487Y-29495131D01*
X139691582Y-30828465D02*
X139691582Y-29495131D01*
X139691582Y-28828465D02*
X139786820Y-28923703D01*
X139786820Y-28923703D02*
X139691582Y-29018941D01*
X139691582Y-29018941D02*
X139596344Y-28923703D01*
X139596344Y-28923703D02*
X139691582Y-28828465D01*
X139691582Y-28828465D02*
X139691582Y-29018941D01*
X137882058Y-30828465D02*
X137882058Y-28828465D01*
X137882058Y-30733227D02*
X138072534Y-30828465D01*
X138072534Y-30828465D02*
X138453487Y-30828465D01*
X138453487Y-30828465D02*
X138643963Y-30733227D01*
X138643963Y-30733227D02*
X138739201Y-30637988D01*
X138739201Y-30637988D02*
X138834439Y-30447512D01*
X138834439Y-30447512D02*
X138834439Y-29876084D01*
X138834439Y-29876084D02*
X138739201Y-29685607D01*
X138739201Y-29685607D02*
X138643963Y-29590369D01*
X138643963Y-29590369D02*
X138453487Y-29495131D01*
X138453487Y-29495131D02*
X138072534Y-29495131D01*
X138072534Y-29495131D02*
X137882058Y-29590369D01*
X136167772Y-30733227D02*
X136358248Y-30828465D01*
X136358248Y-30828465D02*
X136739201Y-30828465D01*
X136739201Y-30828465D02*
X136929677Y-30733227D01*
X136929677Y-30733227D02*
X137024915Y-30542750D01*
X137024915Y-30542750D02*
X137024915Y-29780846D01*
X137024915Y-29780846D02*
X136929677Y-29590369D01*
X136929677Y-29590369D02*
X136739201Y-29495131D01*
X136739201Y-29495131D02*
X136358248Y-29495131D01*
X136358248Y-29495131D02*
X136167772Y-29590369D01*
X136167772Y-29590369D02*
X136072534Y-29780846D01*
X136072534Y-29780846D02*
X136072534Y-29971322D01*
X136072534Y-29971322D02*
X137024915Y-30161798D01*
X135215391Y-30828465D02*
X135215391Y-29495131D01*
X135215391Y-29876084D02*
X135120153Y-29685607D01*
X135120153Y-29685607D02*
X135024915Y-29590369D01*
X135024915Y-29590369D02*
X134834439Y-29495131D01*
X134834439Y-29495131D02*
X134643962Y-29495131D01*
X134263010Y-28828465D02*
X133120153Y-28828465D01*
X133691582Y-30828465D02*
X133691582Y-28828465D01*
X132167772Y-30828465D02*
X132358248Y-30733227D01*
X132358248Y-30733227D02*
X132453486Y-30637988D01*
X132453486Y-30637988D02*
X132548724Y-30447512D01*
X132548724Y-30447512D02*
X132548724Y-29876084D01*
X132548724Y-29876084D02*
X132453486Y-29685607D01*
X132453486Y-29685607D02*
X132358248Y-29590369D01*
X132358248Y-29590369D02*
X132167772Y-29495131D01*
X132167772Y-29495131D02*
X131882057Y-29495131D01*
X131882057Y-29495131D02*
X131691581Y-29590369D01*
X131691581Y-29590369D02*
X131596343Y-29685607D01*
X131596343Y-29685607D02*
X131501105Y-29876084D01*
X131501105Y-29876084D02*
X131501105Y-30447512D01*
X131501105Y-30447512D02*
X131596343Y-30637988D01*
X131596343Y-30637988D02*
X131691581Y-30733227D01*
X131691581Y-30733227D02*
X131882057Y-30828465D01*
X131882057Y-30828465D02*
X132167772Y-30828465D01*
X130643962Y-29495131D02*
X130643962Y-31495131D01*
X130643962Y-29590369D02*
X130453486Y-29495131D01*
X130453486Y-29495131D02*
X130072533Y-29495131D01*
X130072533Y-29495131D02*
X129882057Y-29590369D01*
X129882057Y-29590369D02*
X129786819Y-29685607D01*
X129786819Y-29685607D02*
X129691581Y-29876084D01*
X129691581Y-29876084D02*
X129691581Y-30447512D01*
X129691581Y-30447512D02*
X129786819Y-30637988D01*
X129786819Y-30637988D02*
X129882057Y-30733227D01*
X129882057Y-30733227D02*
X130072533Y-30828465D01*
X130072533Y-30828465D02*
X130453486Y-30828465D01*
X130453486Y-30828465D02*
X130643962Y-30733227D01*
M02*
