%TF.GenerationSoftware,KiCad,Pcbnew,7.0.5-0*%
%TF.CreationDate,2024-04-21T20:23:48-04:00*%
%TF.ProjectId,swr_meter_divider,7377725f-6d65-4746-9572-5f6469766964,rev?*%
%TF.SameCoordinates,Original*%
%TF.FileFunction,Copper,L1,Top*%
%TF.FilePolarity,Positive*%
%FSLAX46Y46*%
G04 Gerber Fmt 4.6, Leading zero omitted, Abs format (unit mm)*
G04 Created by KiCad (PCBNEW 7.0.5-0) date 2024-04-21 20:23:48*
%MOMM*%
%LPD*%
G01*
G04 APERTURE LIST*
%TA.AperFunction,ComponentPad*%
%ADD10C,7.400000*%
%TD*%
G04 APERTURE END LIST*
D10*
%TO.P,H7,1,1*%
%TO.N,GND*%
X165005542Y-37058627D03*
%TD*%
%TO.P,H9,1,1*%
%TO.N,GND*%
X116795542Y-45043627D03*
%TD*%
%TO.P,H9,1,1*%
%TO.N,GND*%
X116795542Y-45043627D03*
%TD*%
%TO.P,H6,1,1*%
%TO.N,GND*%
X107605542Y-85393627D03*
%TD*%
%TO.P,H8,1,1*%
%TO.N,GND*%
X164995542Y-85393627D03*
%TD*%
%TO.P,H8,1,1*%
%TO.N,GND*%
X164995542Y-85393627D03*
%TD*%
%TO.P,H5,1,1*%
%TO.N,GND*%
X107615542Y-37058627D03*
%TD*%
%TO.P,H10,1,1*%
%TO.N,GND*%
X159795542Y-45043627D03*
%TD*%
%TO.P,H6,1,1*%
%TO.N,GND*%
X107605542Y-85393627D03*
%TD*%
%TO.P,H7,1,1*%
%TO.N,GND*%
X165005542Y-37058627D03*
%TD*%
%TO.P,H7,1,1*%
%TO.N,GND*%
X165005542Y-37058627D03*
%TD*%
%TO.P,H8,1,1*%
%TO.N,GND*%
X164995542Y-85393627D03*
%TD*%
%TO.P,H6,1,1*%
%TO.N,GND*%
X107605542Y-85393627D03*
%TD*%
%TO.P,H5,1,1*%
%TO.N,GND*%
X107615542Y-37058627D03*
%TD*%
%TO.P,H10,1,1*%
%TO.N,GND*%
X159795542Y-45043627D03*
%TD*%
%TO.P,H10,1,1*%
%TO.N,GND*%
X159795542Y-45043627D03*
%TD*%
%TO.P,H5,1,1*%
%TO.N,GND*%
X107615542Y-37058627D03*
%TD*%
%TO.P,H9,1,1*%
%TO.N,GND*%
X116795542Y-45043627D03*
%TD*%
%TA.AperFunction,Conductor*%
%TO.N,GND*%
G36*
X146958031Y-25419713D02*
G01*
X146994576Y-25470013D01*
X146999500Y-25501100D01*
X146999500Y-26980077D01*
X146999424Y-26980460D01*
X146999458Y-27000000D01*
X146999535Y-27000184D01*
X146999617Y-27000384D01*
X146999997Y-27000541D01*
X146999999Y-27000540D01*
X147000000Y-27000541D01*
X147000000Y-27000540D01*
X147019970Y-27000527D01*
X147020106Y-27000500D01*
X172898900Y-27000500D01*
X172958031Y-27019713D01*
X172994576Y-27070013D01*
X172999500Y-27101100D01*
X172999500Y-52980076D01*
X172999424Y-52980459D01*
X172999458Y-52999999D01*
X172999535Y-53000183D01*
X172999617Y-53000383D01*
X172999997Y-53000540D01*
X172999999Y-53000539D01*
X173000000Y-53000540D01*
X173000000Y-53000539D01*
X173019970Y-53000526D01*
X173020106Y-53000499D01*
X174498899Y-53000499D01*
X174558030Y-53019712D01*
X174594575Y-53070012D01*
X174599499Y-53101099D01*
X174599499Y-73898900D01*
X174580286Y-73958031D01*
X174529986Y-73994576D01*
X174498899Y-73999500D01*
X173020106Y-73999500D01*
X173019900Y-73999459D01*
X172999997Y-73999459D01*
X172999879Y-73999508D01*
X172999617Y-73999615D01*
X172999616Y-73999616D01*
X172999458Y-73999997D01*
X172999473Y-74019970D01*
X172999500Y-74020106D01*
X172999500Y-99898900D01*
X172980287Y-99958031D01*
X172929987Y-99994576D01*
X172898900Y-99999500D01*
X160376642Y-99999500D01*
X160317511Y-99980287D01*
X160280966Y-99929987D01*
X160276042Y-99898900D01*
X160276042Y-95853812D01*
X160276093Y-95853552D01*
X160276083Y-95833629D01*
X160276084Y-95833627D01*
X160275966Y-95833344D01*
X160275925Y-95833244D01*
X160275923Y-95833243D01*
X160262111Y-95819361D01*
X160261726Y-95819104D01*
X159287308Y-94844685D01*
X159275925Y-94833243D01*
X159275827Y-94833203D01*
X159275835Y-94833181D01*
X159275718Y-94833158D01*
X159275542Y-94833085D01*
X159275541Y-94833085D01*
X159255553Y-94833087D01*
X159255358Y-94833127D01*
X155777826Y-94833127D01*
X155776566Y-94833111D01*
X155775542Y-94833085D01*
X155775296Y-94833185D01*
X155775243Y-94833206D01*
X155775210Y-94833221D01*
X155775159Y-94833242D01*
X155774483Y-94833921D01*
X155773554Y-94834829D01*
X154738549Y-95820546D01*
X154736422Y-95821941D01*
X154725156Y-95833246D01*
X154725077Y-95833437D01*
X154725000Y-95833611D01*
X154724657Y-95850437D01*
X154725042Y-95852496D01*
X154725042Y-99898900D01*
X154705829Y-99958031D01*
X154655529Y-99994576D01*
X154624442Y-99999500D01*
X147020106Y-99999500D01*
X147019900Y-99999459D01*
X146999997Y-99999459D01*
X146999879Y-99999508D01*
X146999617Y-99999615D01*
X146999616Y-99999616D01*
X146999458Y-99999997D01*
X146999473Y-100019970D01*
X146999500Y-100020106D01*
X146999500Y-101498898D01*
X146980287Y-101558029D01*
X146929987Y-101594574D01*
X146898900Y-101599498D01*
X126101100Y-101599498D01*
X126041969Y-101580285D01*
X126005424Y-101529985D01*
X126000500Y-101498898D01*
X126000500Y-100020106D01*
X126000526Y-100019970D01*
X126000541Y-99999997D01*
X126000383Y-99999616D01*
X126000120Y-99999508D01*
X126000002Y-99999459D01*
X125980100Y-99999459D01*
X125979894Y-99999500D01*
X117876642Y-99999500D01*
X117817511Y-99980287D01*
X117780966Y-99929987D01*
X117776042Y-99898900D01*
X117776042Y-95595390D01*
X117776862Y-95588350D01*
X117776047Y-95583365D01*
X117772513Y-95579819D01*
X117766300Y-95576357D01*
X116750090Y-94844685D01*
X116532833Y-94688259D01*
X116527940Y-94684082D01*
X116526781Y-94683600D01*
X116525665Y-94683114D01*
X116524401Y-94682841D01*
X116523424Y-94682608D01*
X116517055Y-94683127D01*
X113535815Y-94683127D01*
X113528935Y-94682442D01*
X113527713Y-94682685D01*
X113525400Y-94683134D01*
X113522308Y-94684392D01*
X113516999Y-94688719D01*
X112183377Y-95577801D01*
X112177407Y-95580999D01*
X112175042Y-95583359D01*
X112174367Y-95586819D01*
X112175042Y-95593636D01*
X112175042Y-99898900D01*
X112155829Y-99958031D01*
X112105529Y-99994576D01*
X112074442Y-99999500D01*
X100101100Y-99999500D01*
X100041969Y-99980287D01*
X100005424Y-99929987D01*
X100000500Y-99898900D01*
X100000500Y-85393626D01*
X103646461Y-85393626D01*
X103666773Y-85794153D01*
X103666774Y-85794164D01*
X103727503Y-86190583D01*
X103828026Y-86578827D01*
X103967315Y-86954915D01*
X103967318Y-86954922D01*
X104143933Y-87314975D01*
X104356074Y-87655325D01*
X104551962Y-87908390D01*
X106055422Y-86404929D01*
X106096932Y-86472945D01*
X106270158Y-86681099D01*
X106471847Y-86861812D01*
X106594816Y-86943167D01*
X105091470Y-88446513D01*
X105182162Y-88524370D01*
X105182168Y-88524375D01*
X105511329Y-88753476D01*
X105511328Y-88753476D01*
X105861989Y-88948110D01*
X105861992Y-88948111D01*
X106230530Y-89106263D01*
X106230535Y-89106265D01*
X106613175Y-89226319D01*
X106613189Y-89226323D01*
X107006025Y-89307052D01*
X107006029Y-89307053D01*
X107405018Y-89347627D01*
X107806066Y-89347627D01*
X108205054Y-89307053D01*
X108205058Y-89307052D01*
X108597894Y-89226323D01*
X108597908Y-89226319D01*
X108980548Y-89106265D01*
X108980553Y-89106263D01*
X109349091Y-88948111D01*
X109349094Y-88948110D01*
X109699750Y-88753479D01*
X110028922Y-88524368D01*
X110119613Y-88446513D01*
X108619247Y-86946147D01*
X108629042Y-86940650D01*
X108843384Y-86775141D01*
X109031342Y-86580187D01*
X109156282Y-86405552D01*
X110659120Y-87908390D01*
X110855009Y-87655325D01*
X111067150Y-87314975D01*
X111243765Y-86954922D01*
X111243768Y-86954915D01*
X111383057Y-86578827D01*
X111483580Y-86190583D01*
X111544309Y-85794164D01*
X111544310Y-85794153D01*
X111564622Y-85393626D01*
X161036461Y-85393626D01*
X161056773Y-85794153D01*
X161056774Y-85794164D01*
X161117503Y-86190583D01*
X161218026Y-86578827D01*
X161357315Y-86954915D01*
X161357318Y-86954922D01*
X161533933Y-87314975D01*
X161746074Y-87655325D01*
X161941962Y-87908390D01*
X163445422Y-86404929D01*
X163486932Y-86472945D01*
X163660158Y-86681099D01*
X163861847Y-86861812D01*
X163984816Y-86943167D01*
X162481470Y-88446513D01*
X162572162Y-88524370D01*
X162572168Y-88524375D01*
X162901329Y-88753476D01*
X162901328Y-88753476D01*
X163251989Y-88948110D01*
X163251992Y-88948111D01*
X163620530Y-89106263D01*
X163620535Y-89106265D01*
X164003175Y-89226319D01*
X164003189Y-89226323D01*
X164396025Y-89307052D01*
X164396029Y-89307053D01*
X164795018Y-89347627D01*
X165196066Y-89347627D01*
X165595054Y-89307053D01*
X165595058Y-89307052D01*
X165987894Y-89226323D01*
X165987908Y-89226319D01*
X166370548Y-89106265D01*
X166370553Y-89106263D01*
X166739091Y-88948111D01*
X166739094Y-88948110D01*
X167089750Y-88753479D01*
X167418922Y-88524368D01*
X167509613Y-88446513D01*
X166009247Y-86946147D01*
X166019042Y-86940650D01*
X166233384Y-86775141D01*
X166421342Y-86580187D01*
X166546282Y-86405552D01*
X168049120Y-87908390D01*
X168245009Y-87655325D01*
X168457150Y-87314975D01*
X168633765Y-86954922D01*
X168633768Y-86954915D01*
X168773057Y-86578827D01*
X168873580Y-86190583D01*
X168934309Y-85794164D01*
X168934310Y-85794153D01*
X168954622Y-85393627D01*
X168934310Y-84993100D01*
X168934309Y-84993089D01*
X168873580Y-84596670D01*
X168773057Y-84208426D01*
X168633768Y-83832338D01*
X168633765Y-83832331D01*
X168457150Y-83472278D01*
X168245009Y-83131928D01*
X168049121Y-82878862D01*
X168049120Y-82878862D01*
X166545659Y-84382322D01*
X166504152Y-84314309D01*
X166330926Y-84106155D01*
X166129237Y-83925442D01*
X166006266Y-83844085D01*
X167509612Y-82340739D01*
X167509613Y-82340739D01*
X167418921Y-82262883D01*
X167418915Y-82262878D01*
X167089754Y-82033777D01*
X167089755Y-82033777D01*
X166739094Y-81839143D01*
X166739091Y-81839142D01*
X166370553Y-81680990D01*
X166370548Y-81680988D01*
X165987908Y-81560934D01*
X165987894Y-81560930D01*
X165595058Y-81480201D01*
X165595054Y-81480200D01*
X165196066Y-81439627D01*
X164795018Y-81439627D01*
X164396029Y-81480200D01*
X164396025Y-81480201D01*
X164003189Y-81560930D01*
X164003175Y-81560934D01*
X163620535Y-81680988D01*
X163620530Y-81680990D01*
X163251992Y-81839142D01*
X163251989Y-81839143D01*
X162901328Y-82033777D01*
X162572172Y-82262875D01*
X162572168Y-82262879D01*
X162481470Y-82340739D01*
X163981837Y-83841106D01*
X163972042Y-83846604D01*
X163757700Y-84012113D01*
X163569742Y-84207067D01*
X163444801Y-84381701D01*
X161941962Y-82878862D01*
X161746075Y-83131928D01*
X161533933Y-83472278D01*
X161357318Y-83832331D01*
X161357315Y-83832338D01*
X161218026Y-84208426D01*
X161117503Y-84596670D01*
X161056774Y-84993089D01*
X161056773Y-84993100D01*
X161036461Y-85393626D01*
X111564622Y-85393626D01*
X111544310Y-84993100D01*
X111544309Y-84993089D01*
X111483580Y-84596670D01*
X111383057Y-84208426D01*
X111243768Y-83832338D01*
X111243765Y-83832331D01*
X111067150Y-83472278D01*
X110855009Y-83131928D01*
X110659121Y-82878862D01*
X110659120Y-82878862D01*
X109155660Y-84382322D01*
X109114152Y-84314309D01*
X108940926Y-84106155D01*
X108739237Y-83925442D01*
X108616266Y-83844085D01*
X110119612Y-82340739D01*
X110119613Y-82340739D01*
X110028921Y-82262883D01*
X110028915Y-82262878D01*
X109699754Y-82033777D01*
X109699755Y-82033777D01*
X109349094Y-81839143D01*
X109349091Y-81839142D01*
X108980553Y-81680990D01*
X108980548Y-81680988D01*
X108597908Y-81560934D01*
X108597894Y-81560930D01*
X108205058Y-81480201D01*
X108205054Y-81480200D01*
X107806066Y-81439627D01*
X107405018Y-81439627D01*
X107006029Y-81480200D01*
X107006025Y-81480201D01*
X106613189Y-81560930D01*
X106613175Y-81560934D01*
X106230535Y-81680988D01*
X106230530Y-81680990D01*
X105861992Y-81839142D01*
X105861989Y-81839143D01*
X105511328Y-82033777D01*
X105182172Y-82262875D01*
X105182168Y-82262879D01*
X105091470Y-82340739D01*
X106591837Y-83841106D01*
X106582042Y-83846604D01*
X106367700Y-84012113D01*
X106179742Y-84207067D01*
X106054801Y-84381700D01*
X104551962Y-82878862D01*
X104356075Y-83131928D01*
X104143933Y-83472278D01*
X103967318Y-83832331D01*
X103967315Y-83832338D01*
X103828026Y-84208426D01*
X103727503Y-84596670D01*
X103666774Y-84993089D01*
X103666773Y-84993100D01*
X103646461Y-85393626D01*
X100000500Y-85393626D01*
X100000500Y-74020106D01*
X100000526Y-74019970D01*
X100000541Y-73999997D01*
X100000383Y-73999616D01*
X100000120Y-73999508D01*
X100000002Y-73999459D01*
X99980100Y-73999459D01*
X99979894Y-73999500D01*
X98501102Y-73999500D01*
X98441971Y-73980287D01*
X98405426Y-73929987D01*
X98400502Y-73898900D01*
X98400502Y-53101099D01*
X98419715Y-53041968D01*
X98470015Y-53005423D01*
X98501102Y-53000499D01*
X99979894Y-53000499D01*
X99980029Y-53000526D01*
X99980030Y-53000526D01*
X99999999Y-53000539D01*
X100000000Y-53000540D01*
X100000000Y-53000539D01*
X100000002Y-53000540D01*
X100000382Y-53000383D01*
X100000382Y-53000382D01*
X100000383Y-53000382D01*
X100000500Y-53000098D01*
X100000541Y-52999999D01*
X100000575Y-52980459D01*
X100000499Y-52980081D01*
X100000499Y-45043626D01*
X112836461Y-45043626D01*
X112856773Y-45444153D01*
X112856774Y-45444164D01*
X112917503Y-45840583D01*
X113018026Y-46228827D01*
X113157315Y-46604915D01*
X113157318Y-46604922D01*
X113333933Y-46964975D01*
X113546074Y-47305325D01*
X113741962Y-47558390D01*
X115245422Y-46054929D01*
X115286932Y-46122945D01*
X115460158Y-46331099D01*
X115661847Y-46511812D01*
X115784816Y-46593167D01*
X114281470Y-48096513D01*
X114372162Y-48174370D01*
X114372168Y-48174375D01*
X114701329Y-48403476D01*
X114701328Y-48403476D01*
X115051989Y-48598110D01*
X115051992Y-48598111D01*
X115420530Y-48756263D01*
X115420535Y-48756265D01*
X115803175Y-48876319D01*
X115803189Y-48876323D01*
X116196025Y-48957052D01*
X116196029Y-48957053D01*
X116595018Y-48997627D01*
X116996066Y-48997627D01*
X117395054Y-48957053D01*
X117395058Y-48957052D01*
X117787894Y-48876323D01*
X117787908Y-48876319D01*
X118170548Y-48756265D01*
X118170553Y-48756263D01*
X118539091Y-48598111D01*
X118539094Y-48598110D01*
X118889750Y-48403479D01*
X119218922Y-48174368D01*
X119309613Y-48096513D01*
X117809247Y-46596147D01*
X117819042Y-46590650D01*
X118033384Y-46425141D01*
X118221342Y-46230187D01*
X118346282Y-46055552D01*
X119849120Y-47558390D01*
X120045009Y-47305325D01*
X120257150Y-46964975D01*
X120433765Y-46604922D01*
X120433768Y-46604915D01*
X120573057Y-46228827D01*
X120673580Y-45840583D01*
X120734309Y-45444164D01*
X120734310Y-45444153D01*
X120754622Y-45043626D01*
X155836461Y-45043626D01*
X155856773Y-45444153D01*
X155856774Y-45444164D01*
X155917503Y-45840583D01*
X156018026Y-46228827D01*
X156157315Y-46604915D01*
X156157318Y-46604922D01*
X156333933Y-46964975D01*
X156546074Y-47305325D01*
X156741962Y-47558390D01*
X158245422Y-46054929D01*
X158286932Y-46122945D01*
X158460158Y-46331099D01*
X158661847Y-46511812D01*
X158784816Y-46593167D01*
X157281470Y-48096513D01*
X157372162Y-48174370D01*
X157372168Y-48174375D01*
X157701329Y-48403476D01*
X157701328Y-48403476D01*
X158051989Y-48598110D01*
X158051992Y-48598111D01*
X158420530Y-48756263D01*
X158420535Y-48756265D01*
X158803175Y-48876319D01*
X158803189Y-48876323D01*
X159196025Y-48957052D01*
X159196029Y-48957053D01*
X159595018Y-48997627D01*
X159996066Y-48997627D01*
X160395054Y-48957053D01*
X160395058Y-48957052D01*
X160787894Y-48876323D01*
X160787908Y-48876319D01*
X161170548Y-48756265D01*
X161170553Y-48756263D01*
X161539091Y-48598111D01*
X161539094Y-48598110D01*
X161889750Y-48403479D01*
X162218922Y-48174368D01*
X162309613Y-48096513D01*
X160809247Y-46596147D01*
X160819042Y-46590650D01*
X161033384Y-46425141D01*
X161221342Y-46230187D01*
X161346282Y-46055552D01*
X162849120Y-47558390D01*
X163045009Y-47305325D01*
X163257150Y-46964975D01*
X163433765Y-46604922D01*
X163433768Y-46604915D01*
X163573057Y-46228827D01*
X163673580Y-45840583D01*
X163734309Y-45444164D01*
X163734310Y-45444153D01*
X163754622Y-45043627D01*
X163734310Y-44643100D01*
X163734309Y-44643089D01*
X163673580Y-44246670D01*
X163573057Y-43858426D01*
X163433768Y-43482338D01*
X163433765Y-43482331D01*
X163257150Y-43122278D01*
X163045009Y-42781928D01*
X162849121Y-42528862D01*
X162849120Y-42528862D01*
X161345660Y-44032322D01*
X161304152Y-43964309D01*
X161130926Y-43756155D01*
X160929237Y-43575442D01*
X160806266Y-43494085D01*
X162309612Y-41990739D01*
X162309613Y-41990739D01*
X162218921Y-41912883D01*
X162218915Y-41912878D01*
X161889754Y-41683777D01*
X161889755Y-41683777D01*
X161539094Y-41489143D01*
X161539091Y-41489142D01*
X161170553Y-41330990D01*
X161170548Y-41330988D01*
X160787908Y-41210934D01*
X160787894Y-41210930D01*
X160395058Y-41130201D01*
X160395054Y-41130200D01*
X159996066Y-41089627D01*
X159595018Y-41089627D01*
X159196029Y-41130200D01*
X159196025Y-41130201D01*
X158803189Y-41210930D01*
X158803175Y-41210934D01*
X158420535Y-41330988D01*
X158420530Y-41330990D01*
X158051992Y-41489142D01*
X158051989Y-41489143D01*
X157701328Y-41683777D01*
X157372172Y-41912875D01*
X157372168Y-41912879D01*
X157281470Y-41990739D01*
X158781837Y-43491106D01*
X158772042Y-43496604D01*
X158557700Y-43662113D01*
X158369742Y-43857067D01*
X158244801Y-44031700D01*
X156741962Y-42528862D01*
X156546075Y-42781928D01*
X156333933Y-43122278D01*
X156157318Y-43482331D01*
X156157315Y-43482338D01*
X156018026Y-43858426D01*
X155917503Y-44246670D01*
X155856774Y-44643089D01*
X155856773Y-44643100D01*
X155836461Y-45043626D01*
X120754622Y-45043626D01*
X120734310Y-44643100D01*
X120734309Y-44643089D01*
X120673580Y-44246670D01*
X120573057Y-43858426D01*
X120433768Y-43482338D01*
X120433765Y-43482331D01*
X120257150Y-43122278D01*
X120045009Y-42781928D01*
X119849121Y-42528862D01*
X119849120Y-42528862D01*
X118345660Y-44032322D01*
X118304152Y-43964309D01*
X118130926Y-43756155D01*
X117929237Y-43575442D01*
X117806266Y-43494085D01*
X119309612Y-41990739D01*
X119309613Y-41990739D01*
X119218921Y-41912883D01*
X119218915Y-41912878D01*
X118889754Y-41683777D01*
X118889755Y-41683777D01*
X118539094Y-41489143D01*
X118539091Y-41489142D01*
X118170553Y-41330990D01*
X118170548Y-41330988D01*
X117787908Y-41210934D01*
X117787894Y-41210930D01*
X117395058Y-41130201D01*
X117395054Y-41130200D01*
X116996066Y-41089627D01*
X116595018Y-41089627D01*
X116196029Y-41130200D01*
X116196025Y-41130201D01*
X115803189Y-41210930D01*
X115803175Y-41210934D01*
X115420535Y-41330988D01*
X115420530Y-41330990D01*
X115051992Y-41489142D01*
X115051989Y-41489143D01*
X114701328Y-41683777D01*
X114372172Y-41912875D01*
X114372168Y-41912879D01*
X114281470Y-41990739D01*
X115781837Y-43491106D01*
X115772042Y-43496604D01*
X115557700Y-43662113D01*
X115369742Y-43857067D01*
X115244801Y-44031701D01*
X113741962Y-42528862D01*
X113546075Y-42781928D01*
X113333933Y-43122278D01*
X113157318Y-43482331D01*
X113157315Y-43482338D01*
X113018026Y-43858426D01*
X112917503Y-44246670D01*
X112856774Y-44643089D01*
X112856773Y-44643100D01*
X112836461Y-45043626D01*
X100000499Y-45043626D01*
X100000500Y-37058627D01*
X103656461Y-37058627D01*
X103676773Y-37459153D01*
X103676774Y-37459164D01*
X103737503Y-37855583D01*
X103838026Y-38243827D01*
X103977315Y-38619915D01*
X103977318Y-38619922D01*
X104153933Y-38979975D01*
X104366074Y-39320325D01*
X104561962Y-39573390D01*
X106065422Y-38069929D01*
X106106932Y-38137945D01*
X106280158Y-38346099D01*
X106481847Y-38526812D01*
X106604816Y-38608167D01*
X105101470Y-40111513D01*
X105192162Y-40189370D01*
X105192168Y-40189375D01*
X105521329Y-40418476D01*
X105521328Y-40418476D01*
X105871989Y-40613110D01*
X105871992Y-40613111D01*
X106240530Y-40771263D01*
X106240535Y-40771265D01*
X106623175Y-40891319D01*
X106623189Y-40891323D01*
X107016025Y-40972052D01*
X107016029Y-40972053D01*
X107415018Y-41012627D01*
X107816066Y-41012627D01*
X108215054Y-40972053D01*
X108215058Y-40972052D01*
X108607894Y-40891323D01*
X108607908Y-40891319D01*
X108990548Y-40771265D01*
X108990553Y-40771263D01*
X109359091Y-40613111D01*
X109359094Y-40613110D01*
X109709750Y-40418479D01*
X110038922Y-40189368D01*
X110129613Y-40111513D01*
X108629247Y-38611147D01*
X108639042Y-38605650D01*
X108853384Y-38440141D01*
X109041342Y-38245187D01*
X109166282Y-38070552D01*
X110669120Y-39573390D01*
X110865009Y-39320325D01*
X111077150Y-38979975D01*
X111253765Y-38619922D01*
X111253768Y-38619915D01*
X111393057Y-38243827D01*
X111493580Y-37855583D01*
X111554309Y-37459164D01*
X111554310Y-37459153D01*
X111574622Y-37058626D01*
X161046461Y-37058626D01*
X161066773Y-37459153D01*
X161066774Y-37459164D01*
X161127503Y-37855583D01*
X161228026Y-38243827D01*
X161367315Y-38619915D01*
X161367318Y-38619922D01*
X161543933Y-38979975D01*
X161756074Y-39320325D01*
X161951962Y-39573390D01*
X163455422Y-38069929D01*
X163496932Y-38137945D01*
X163670158Y-38346099D01*
X163871847Y-38526812D01*
X163994816Y-38608167D01*
X162491470Y-40111513D01*
X162582162Y-40189370D01*
X162582168Y-40189375D01*
X162911329Y-40418476D01*
X162911328Y-40418476D01*
X163261989Y-40613110D01*
X163261992Y-40613111D01*
X163630530Y-40771263D01*
X163630535Y-40771265D01*
X164013175Y-40891319D01*
X164013189Y-40891323D01*
X164406025Y-40972052D01*
X164406029Y-40972053D01*
X164805018Y-41012627D01*
X165206066Y-41012627D01*
X165605054Y-40972053D01*
X165605058Y-40972052D01*
X165997894Y-40891323D01*
X165997908Y-40891319D01*
X166380548Y-40771265D01*
X166380553Y-40771263D01*
X166749091Y-40613111D01*
X166749094Y-40613110D01*
X167099750Y-40418479D01*
X167428922Y-40189368D01*
X167519613Y-40111513D01*
X166019247Y-38611147D01*
X166029042Y-38605650D01*
X166243384Y-38440141D01*
X166431342Y-38245187D01*
X166556282Y-38070552D01*
X168059120Y-39573390D01*
X168255009Y-39320325D01*
X168467150Y-38979975D01*
X168643765Y-38619922D01*
X168643768Y-38619915D01*
X168783057Y-38243827D01*
X168883580Y-37855583D01*
X168944309Y-37459164D01*
X168944310Y-37459153D01*
X168964622Y-37058627D01*
X168944310Y-36658100D01*
X168944309Y-36658089D01*
X168883580Y-36261670D01*
X168783057Y-35873426D01*
X168643768Y-35497338D01*
X168643765Y-35497331D01*
X168467150Y-35137278D01*
X168255009Y-34796928D01*
X168059120Y-34543862D01*
X166555659Y-36047322D01*
X166514152Y-35979309D01*
X166340926Y-35771155D01*
X166139237Y-35590442D01*
X166016266Y-35509085D01*
X167519612Y-34005739D01*
X167519613Y-34005739D01*
X167428921Y-33927883D01*
X167428915Y-33927878D01*
X167099754Y-33698777D01*
X167099755Y-33698777D01*
X166749094Y-33504143D01*
X166749091Y-33504142D01*
X166380553Y-33345990D01*
X166380548Y-33345988D01*
X165997908Y-33225934D01*
X165997894Y-33225930D01*
X165605058Y-33145201D01*
X165605054Y-33145200D01*
X165206066Y-33104627D01*
X164805018Y-33104627D01*
X164406029Y-33145200D01*
X164406025Y-33145201D01*
X164013189Y-33225930D01*
X164013175Y-33225934D01*
X163630535Y-33345988D01*
X163630530Y-33345990D01*
X163261992Y-33504142D01*
X163261989Y-33504143D01*
X162911328Y-33698777D01*
X162582172Y-33927875D01*
X162582168Y-33927879D01*
X162491470Y-34005739D01*
X163991837Y-35506106D01*
X163982042Y-35511604D01*
X163767700Y-35677113D01*
X163579742Y-35872067D01*
X163454801Y-36046701D01*
X161951962Y-34543862D01*
X161756075Y-34796928D01*
X161543933Y-35137278D01*
X161367318Y-35497331D01*
X161367315Y-35497338D01*
X161228026Y-35873426D01*
X161127503Y-36261670D01*
X161066774Y-36658089D01*
X161066773Y-36658100D01*
X161046461Y-37058626D01*
X111574622Y-37058626D01*
X111554310Y-36658100D01*
X111554309Y-36658089D01*
X111493580Y-36261670D01*
X111393057Y-35873426D01*
X111253768Y-35497338D01*
X111253765Y-35497331D01*
X111077150Y-35137278D01*
X110865009Y-34796928D01*
X110669121Y-34543862D01*
X110669120Y-34543862D01*
X109165660Y-36047322D01*
X109124152Y-35979309D01*
X108950926Y-35771155D01*
X108749237Y-35590442D01*
X108626266Y-35509085D01*
X110129612Y-34005739D01*
X110129613Y-34005739D01*
X110038921Y-33927883D01*
X110038915Y-33927878D01*
X109709754Y-33698777D01*
X109709755Y-33698777D01*
X109359094Y-33504143D01*
X109359091Y-33504142D01*
X108990553Y-33345990D01*
X108990548Y-33345988D01*
X108607908Y-33225934D01*
X108607894Y-33225930D01*
X108215058Y-33145201D01*
X108215054Y-33145200D01*
X107816066Y-33104627D01*
X107415018Y-33104627D01*
X107016029Y-33145200D01*
X107016025Y-33145201D01*
X106623189Y-33225930D01*
X106623175Y-33225934D01*
X106240535Y-33345988D01*
X106240530Y-33345990D01*
X105871992Y-33504142D01*
X105871989Y-33504143D01*
X105521328Y-33698777D01*
X105192172Y-33927875D01*
X105192168Y-33927879D01*
X105101470Y-34005739D01*
X106601837Y-35506106D01*
X106592042Y-35511604D01*
X106377700Y-35677113D01*
X106189742Y-35872067D01*
X106064801Y-36046701D01*
X104561962Y-34543862D01*
X104366075Y-34796928D01*
X104153933Y-35137278D01*
X103977318Y-35497331D01*
X103977315Y-35497338D01*
X103838026Y-35873426D01*
X103737503Y-36261670D01*
X103676774Y-36658089D01*
X103676773Y-36658100D01*
X103656461Y-37058627D01*
X100000500Y-37058627D01*
X100000500Y-27101099D01*
X100019713Y-27041969D01*
X100070013Y-27005424D01*
X100101100Y-27000500D01*
X125979894Y-27000500D01*
X125980029Y-27000527D01*
X125980030Y-27000527D01*
X125999999Y-27000540D01*
X126000000Y-27000541D01*
X126000000Y-27000540D01*
X126000002Y-27000541D01*
X126000382Y-27000384D01*
X126000382Y-27000383D01*
X126000383Y-27000383D01*
X126000500Y-27000099D01*
X126000541Y-27000000D01*
X126000575Y-26980460D01*
X126000500Y-26980082D01*
X126000500Y-25501100D01*
X126019713Y-25441969D01*
X126070013Y-25405424D01*
X126101100Y-25400500D01*
X146898900Y-25400500D01*
X146958031Y-25419713D01*
G37*
%TD.AperFunction*%
%TD*%
%TA.AperFunction,Conductor*%
%TO.N,GND*%
G36*
X146958031Y-25419713D02*
G01*
X146994576Y-25470013D01*
X146999500Y-25501100D01*
X146999500Y-26980077D01*
X146999424Y-26980460D01*
X146999458Y-27000000D01*
X146999535Y-27000184D01*
X146999617Y-27000384D01*
X146999997Y-27000541D01*
X146999999Y-27000540D01*
X147000000Y-27000541D01*
X147000000Y-27000540D01*
X147019970Y-27000527D01*
X147020106Y-27000500D01*
X172898900Y-27000500D01*
X172958031Y-27019713D01*
X172994576Y-27070013D01*
X172999500Y-27101100D01*
X172999500Y-52980076D01*
X172999424Y-52980459D01*
X172999458Y-52999999D01*
X172999535Y-53000183D01*
X172999617Y-53000383D01*
X172999997Y-53000540D01*
X172999999Y-53000539D01*
X173000000Y-53000540D01*
X173000000Y-53000539D01*
X173019970Y-53000526D01*
X173020106Y-53000499D01*
X174498899Y-53000499D01*
X174558030Y-53019712D01*
X174594575Y-53070012D01*
X174599499Y-53101099D01*
X174599499Y-73898900D01*
X174580286Y-73958031D01*
X174529986Y-73994576D01*
X174498899Y-73999500D01*
X173020106Y-73999500D01*
X173019900Y-73999459D01*
X172999997Y-73999459D01*
X172999879Y-73999508D01*
X172999617Y-73999615D01*
X172999616Y-73999616D01*
X172999458Y-73999997D01*
X172999473Y-74019970D01*
X172999500Y-74020106D01*
X172999500Y-99898900D01*
X172980287Y-99958031D01*
X172929987Y-99994576D01*
X172898900Y-99999500D01*
X160376642Y-99999500D01*
X160317511Y-99980287D01*
X160280966Y-99929987D01*
X160276042Y-99898900D01*
X160276042Y-95853812D01*
X160276093Y-95853552D01*
X160276083Y-95833629D01*
X160276084Y-95833627D01*
X160275966Y-95833344D01*
X160275925Y-95833244D01*
X160275923Y-95833243D01*
X160262111Y-95819361D01*
X160261726Y-95819104D01*
X159287308Y-94844685D01*
X159275925Y-94833243D01*
X159275827Y-94833203D01*
X159275835Y-94833181D01*
X159275718Y-94833158D01*
X159275542Y-94833085D01*
X159275541Y-94833085D01*
X159255553Y-94833087D01*
X159255358Y-94833127D01*
X155777826Y-94833127D01*
X155776566Y-94833111D01*
X155775542Y-94833085D01*
X155775296Y-94833185D01*
X155775243Y-94833206D01*
X155775210Y-94833221D01*
X155775159Y-94833242D01*
X155774483Y-94833921D01*
X155773554Y-94834829D01*
X154738549Y-95820546D01*
X154736422Y-95821941D01*
X154725156Y-95833246D01*
X154725077Y-95833437D01*
X154725000Y-95833611D01*
X154724657Y-95850437D01*
X154725042Y-95852496D01*
X154725042Y-99898900D01*
X154705829Y-99958031D01*
X154655529Y-99994576D01*
X154624442Y-99999500D01*
X147020106Y-99999500D01*
X147019900Y-99999459D01*
X146999997Y-99999459D01*
X146999879Y-99999508D01*
X146999617Y-99999615D01*
X146999616Y-99999616D01*
X146999458Y-99999997D01*
X146999473Y-100019970D01*
X146999500Y-100020106D01*
X146999500Y-101498898D01*
X146980287Y-101558029D01*
X146929987Y-101594574D01*
X146898900Y-101599498D01*
X126101100Y-101599498D01*
X126041969Y-101580285D01*
X126005424Y-101529985D01*
X126000500Y-101498898D01*
X126000500Y-100020106D01*
X126000526Y-100019970D01*
X126000541Y-99999997D01*
X126000383Y-99999616D01*
X126000120Y-99999508D01*
X126000002Y-99999459D01*
X125980100Y-99999459D01*
X125979894Y-99999500D01*
X117876642Y-99999500D01*
X117817511Y-99980287D01*
X117780966Y-99929987D01*
X117776042Y-99898900D01*
X117776042Y-95595390D01*
X117776862Y-95588350D01*
X117776047Y-95583365D01*
X117772513Y-95579819D01*
X117766300Y-95576357D01*
X116750090Y-94844685D01*
X116532833Y-94688259D01*
X116527940Y-94684082D01*
X116526781Y-94683600D01*
X116525665Y-94683114D01*
X116524401Y-94682841D01*
X116523424Y-94682608D01*
X116517055Y-94683127D01*
X113535815Y-94683127D01*
X113528935Y-94682442D01*
X113527713Y-94682685D01*
X113525400Y-94683134D01*
X113522308Y-94684392D01*
X113516999Y-94688719D01*
X112183377Y-95577801D01*
X112177407Y-95580999D01*
X112175042Y-95583359D01*
X112174367Y-95586819D01*
X112175042Y-95593636D01*
X112175042Y-99898900D01*
X112155829Y-99958031D01*
X112105529Y-99994576D01*
X112074442Y-99999500D01*
X100101100Y-99999500D01*
X100041969Y-99980287D01*
X100005424Y-99929987D01*
X100000500Y-99898900D01*
X100000500Y-85393626D01*
X103646461Y-85393626D01*
X103666773Y-85794153D01*
X103666774Y-85794164D01*
X103727503Y-86190583D01*
X103828026Y-86578827D01*
X103967315Y-86954915D01*
X103967318Y-86954922D01*
X104143933Y-87314975D01*
X104356074Y-87655325D01*
X104551962Y-87908390D01*
X106055422Y-86404929D01*
X106096932Y-86472945D01*
X106270158Y-86681099D01*
X106471847Y-86861812D01*
X106594816Y-86943167D01*
X105091470Y-88446513D01*
X105182162Y-88524370D01*
X105182168Y-88524375D01*
X105511329Y-88753476D01*
X105511328Y-88753476D01*
X105861989Y-88948110D01*
X105861992Y-88948111D01*
X106230530Y-89106263D01*
X106230535Y-89106265D01*
X106613175Y-89226319D01*
X106613189Y-89226323D01*
X107006025Y-89307052D01*
X107006029Y-89307053D01*
X107405018Y-89347627D01*
X107806066Y-89347627D01*
X108205054Y-89307053D01*
X108205058Y-89307052D01*
X108597894Y-89226323D01*
X108597908Y-89226319D01*
X108980548Y-89106265D01*
X108980553Y-89106263D01*
X109349091Y-88948111D01*
X109349094Y-88948110D01*
X109699750Y-88753479D01*
X110028922Y-88524368D01*
X110119613Y-88446513D01*
X108619247Y-86946147D01*
X108629042Y-86940650D01*
X108843384Y-86775141D01*
X109031342Y-86580187D01*
X109156282Y-86405552D01*
X110659120Y-87908390D01*
X110855009Y-87655325D01*
X111067150Y-87314975D01*
X111243765Y-86954922D01*
X111243768Y-86954915D01*
X111383057Y-86578827D01*
X111483580Y-86190583D01*
X111544309Y-85794164D01*
X111544310Y-85794153D01*
X111564622Y-85393626D01*
X161036461Y-85393626D01*
X161056773Y-85794153D01*
X161056774Y-85794164D01*
X161117503Y-86190583D01*
X161218026Y-86578827D01*
X161357315Y-86954915D01*
X161357318Y-86954922D01*
X161533933Y-87314975D01*
X161746074Y-87655325D01*
X161941962Y-87908390D01*
X163445422Y-86404929D01*
X163486932Y-86472945D01*
X163660158Y-86681099D01*
X163861847Y-86861812D01*
X163984816Y-86943167D01*
X162481470Y-88446513D01*
X162572162Y-88524370D01*
X162572168Y-88524375D01*
X162901329Y-88753476D01*
X162901328Y-88753476D01*
X163251989Y-88948110D01*
X163251992Y-88948111D01*
X163620530Y-89106263D01*
X163620535Y-89106265D01*
X164003175Y-89226319D01*
X164003189Y-89226323D01*
X164396025Y-89307052D01*
X164396029Y-89307053D01*
X164795018Y-89347627D01*
X165196066Y-89347627D01*
X165595054Y-89307053D01*
X165595058Y-89307052D01*
X165987894Y-89226323D01*
X165987908Y-89226319D01*
X166370548Y-89106265D01*
X166370553Y-89106263D01*
X166739091Y-88948111D01*
X166739094Y-88948110D01*
X167089750Y-88753479D01*
X167418922Y-88524368D01*
X167509613Y-88446513D01*
X166009247Y-86946147D01*
X166019042Y-86940650D01*
X166233384Y-86775141D01*
X166421342Y-86580187D01*
X166546282Y-86405552D01*
X168049120Y-87908390D01*
X168245009Y-87655325D01*
X168457150Y-87314975D01*
X168633765Y-86954922D01*
X168633768Y-86954915D01*
X168773057Y-86578827D01*
X168873580Y-86190583D01*
X168934309Y-85794164D01*
X168934310Y-85794153D01*
X168954622Y-85393627D01*
X168934310Y-84993100D01*
X168934309Y-84993089D01*
X168873580Y-84596670D01*
X168773057Y-84208426D01*
X168633768Y-83832338D01*
X168633765Y-83832331D01*
X168457150Y-83472278D01*
X168245009Y-83131928D01*
X168049121Y-82878862D01*
X168049120Y-82878862D01*
X166545659Y-84382322D01*
X166504152Y-84314309D01*
X166330926Y-84106155D01*
X166129237Y-83925442D01*
X166006266Y-83844085D01*
X167509612Y-82340739D01*
X167509613Y-82340739D01*
X167418921Y-82262883D01*
X167418915Y-82262878D01*
X167089754Y-82033777D01*
X167089755Y-82033777D01*
X166739094Y-81839143D01*
X166739091Y-81839142D01*
X166370553Y-81680990D01*
X166370548Y-81680988D01*
X165987908Y-81560934D01*
X165987894Y-81560930D01*
X165595058Y-81480201D01*
X165595054Y-81480200D01*
X165196066Y-81439627D01*
X164795018Y-81439627D01*
X164396029Y-81480200D01*
X164396025Y-81480201D01*
X164003189Y-81560930D01*
X164003175Y-81560934D01*
X163620535Y-81680988D01*
X163620530Y-81680990D01*
X163251992Y-81839142D01*
X163251989Y-81839143D01*
X162901328Y-82033777D01*
X162572172Y-82262875D01*
X162572168Y-82262879D01*
X162481470Y-82340739D01*
X163981837Y-83841106D01*
X163972042Y-83846604D01*
X163757700Y-84012113D01*
X163569742Y-84207067D01*
X163444801Y-84381701D01*
X161941962Y-82878862D01*
X161746075Y-83131928D01*
X161533933Y-83472278D01*
X161357318Y-83832331D01*
X161357315Y-83832338D01*
X161218026Y-84208426D01*
X161117503Y-84596670D01*
X161056774Y-84993089D01*
X161056773Y-84993100D01*
X161036461Y-85393626D01*
X111564622Y-85393626D01*
X111544310Y-84993100D01*
X111544309Y-84993089D01*
X111483580Y-84596670D01*
X111383057Y-84208426D01*
X111243768Y-83832338D01*
X111243765Y-83832331D01*
X111067150Y-83472278D01*
X110855009Y-83131928D01*
X110659121Y-82878862D01*
X110659120Y-82878862D01*
X109155660Y-84382322D01*
X109114152Y-84314309D01*
X108940926Y-84106155D01*
X108739237Y-83925442D01*
X108616266Y-83844085D01*
X110119612Y-82340739D01*
X110119613Y-82340739D01*
X110028921Y-82262883D01*
X110028915Y-82262878D01*
X109699754Y-82033777D01*
X109699755Y-82033777D01*
X109349094Y-81839143D01*
X109349091Y-81839142D01*
X108980553Y-81680990D01*
X108980548Y-81680988D01*
X108597908Y-81560934D01*
X108597894Y-81560930D01*
X108205058Y-81480201D01*
X108205054Y-81480200D01*
X107806066Y-81439627D01*
X107405018Y-81439627D01*
X107006029Y-81480200D01*
X107006025Y-81480201D01*
X106613189Y-81560930D01*
X106613175Y-81560934D01*
X106230535Y-81680988D01*
X106230530Y-81680990D01*
X105861992Y-81839142D01*
X105861989Y-81839143D01*
X105511328Y-82033777D01*
X105182172Y-82262875D01*
X105182168Y-82262879D01*
X105091470Y-82340739D01*
X106591837Y-83841106D01*
X106582042Y-83846604D01*
X106367700Y-84012113D01*
X106179742Y-84207067D01*
X106054801Y-84381700D01*
X104551962Y-82878862D01*
X104356075Y-83131928D01*
X104143933Y-83472278D01*
X103967318Y-83832331D01*
X103967315Y-83832338D01*
X103828026Y-84208426D01*
X103727503Y-84596670D01*
X103666774Y-84993089D01*
X103666773Y-84993100D01*
X103646461Y-85393626D01*
X100000500Y-85393626D01*
X100000500Y-74020106D01*
X100000526Y-74019970D01*
X100000541Y-73999997D01*
X100000383Y-73999616D01*
X100000120Y-73999508D01*
X100000002Y-73999459D01*
X99980100Y-73999459D01*
X99979894Y-73999500D01*
X98501102Y-73999500D01*
X98441971Y-73980287D01*
X98405426Y-73929987D01*
X98400502Y-73898900D01*
X98400502Y-53101099D01*
X98419715Y-53041968D01*
X98470015Y-53005423D01*
X98501102Y-53000499D01*
X99979894Y-53000499D01*
X99980029Y-53000526D01*
X99980030Y-53000526D01*
X99999999Y-53000539D01*
X100000000Y-53000540D01*
X100000000Y-53000539D01*
X100000002Y-53000540D01*
X100000382Y-53000383D01*
X100000382Y-53000382D01*
X100000383Y-53000382D01*
X100000500Y-53000098D01*
X100000541Y-52999999D01*
X100000575Y-52980459D01*
X100000499Y-52980081D01*
X100000499Y-45043626D01*
X112836461Y-45043626D01*
X112856773Y-45444153D01*
X112856774Y-45444164D01*
X112917503Y-45840583D01*
X113018026Y-46228827D01*
X113157315Y-46604915D01*
X113157318Y-46604922D01*
X113333933Y-46964975D01*
X113546074Y-47305325D01*
X113741962Y-47558390D01*
X115245422Y-46054929D01*
X115286932Y-46122945D01*
X115460158Y-46331099D01*
X115661847Y-46511812D01*
X115784816Y-46593167D01*
X114281470Y-48096513D01*
X114372162Y-48174370D01*
X114372168Y-48174375D01*
X114701329Y-48403476D01*
X114701328Y-48403476D01*
X115051989Y-48598110D01*
X115051992Y-48598111D01*
X115420530Y-48756263D01*
X115420535Y-48756265D01*
X115803175Y-48876319D01*
X115803189Y-48876323D01*
X116196025Y-48957052D01*
X116196029Y-48957053D01*
X116595018Y-48997627D01*
X116996066Y-48997627D01*
X117395054Y-48957053D01*
X117395058Y-48957052D01*
X117787894Y-48876323D01*
X117787908Y-48876319D01*
X118170548Y-48756265D01*
X118170553Y-48756263D01*
X118539091Y-48598111D01*
X118539094Y-48598110D01*
X118889750Y-48403479D01*
X119218922Y-48174368D01*
X119309613Y-48096513D01*
X117809247Y-46596147D01*
X117819042Y-46590650D01*
X118033384Y-46425141D01*
X118221342Y-46230187D01*
X118346282Y-46055552D01*
X119849120Y-47558390D01*
X120045009Y-47305325D01*
X120257150Y-46964975D01*
X120433765Y-46604922D01*
X120433768Y-46604915D01*
X120573057Y-46228827D01*
X120673580Y-45840583D01*
X120734309Y-45444164D01*
X120734310Y-45444153D01*
X120754622Y-45043626D01*
X155836461Y-45043626D01*
X155856773Y-45444153D01*
X155856774Y-45444164D01*
X155917503Y-45840583D01*
X156018026Y-46228827D01*
X156157315Y-46604915D01*
X156157318Y-46604922D01*
X156333933Y-46964975D01*
X156546074Y-47305325D01*
X156741962Y-47558390D01*
X158245422Y-46054929D01*
X158286932Y-46122945D01*
X158460158Y-46331099D01*
X158661847Y-46511812D01*
X158784816Y-46593167D01*
X157281470Y-48096513D01*
X157372162Y-48174370D01*
X157372168Y-48174375D01*
X157701329Y-48403476D01*
X157701328Y-48403476D01*
X158051989Y-48598110D01*
X158051992Y-48598111D01*
X158420530Y-48756263D01*
X158420535Y-48756265D01*
X158803175Y-48876319D01*
X158803189Y-48876323D01*
X159196025Y-48957052D01*
X159196029Y-48957053D01*
X159595018Y-48997627D01*
X159996066Y-48997627D01*
X160395054Y-48957053D01*
X160395058Y-48957052D01*
X160787894Y-48876323D01*
X160787908Y-48876319D01*
X161170548Y-48756265D01*
X161170553Y-48756263D01*
X161539091Y-48598111D01*
X161539094Y-48598110D01*
X161889750Y-48403479D01*
X162218922Y-48174368D01*
X162309613Y-48096513D01*
X160809247Y-46596147D01*
X160819042Y-46590650D01*
X161033384Y-46425141D01*
X161221342Y-46230187D01*
X161346282Y-46055552D01*
X162849120Y-47558390D01*
X163045009Y-47305325D01*
X163257150Y-46964975D01*
X163433765Y-46604922D01*
X163433768Y-46604915D01*
X163573057Y-46228827D01*
X163673580Y-45840583D01*
X163734309Y-45444164D01*
X163734310Y-45444153D01*
X163754622Y-45043627D01*
X163734310Y-44643100D01*
X163734309Y-44643089D01*
X163673580Y-44246670D01*
X163573057Y-43858426D01*
X163433768Y-43482338D01*
X163433765Y-43482331D01*
X163257150Y-43122278D01*
X163045009Y-42781928D01*
X162849121Y-42528862D01*
X162849120Y-42528862D01*
X161345660Y-44032322D01*
X161304152Y-43964309D01*
X161130926Y-43756155D01*
X160929237Y-43575442D01*
X160806266Y-43494085D01*
X162309612Y-41990739D01*
X162309613Y-41990739D01*
X162218921Y-41912883D01*
X162218915Y-41912878D01*
X161889754Y-41683777D01*
X161889755Y-41683777D01*
X161539094Y-41489143D01*
X161539091Y-41489142D01*
X161170553Y-41330990D01*
X161170548Y-41330988D01*
X160787908Y-41210934D01*
X160787894Y-41210930D01*
X160395058Y-41130201D01*
X160395054Y-41130200D01*
X159996066Y-41089627D01*
X159595018Y-41089627D01*
X159196029Y-41130200D01*
X159196025Y-41130201D01*
X158803189Y-41210930D01*
X158803175Y-41210934D01*
X158420535Y-41330988D01*
X158420530Y-41330990D01*
X158051992Y-41489142D01*
X158051989Y-41489143D01*
X157701328Y-41683777D01*
X157372172Y-41912875D01*
X157372168Y-41912879D01*
X157281470Y-41990739D01*
X158781837Y-43491106D01*
X158772042Y-43496604D01*
X158557700Y-43662113D01*
X158369742Y-43857067D01*
X158244801Y-44031700D01*
X156741962Y-42528862D01*
X156546075Y-42781928D01*
X156333933Y-43122278D01*
X156157318Y-43482331D01*
X156157315Y-43482338D01*
X156018026Y-43858426D01*
X155917503Y-44246670D01*
X155856774Y-44643089D01*
X155856773Y-44643100D01*
X155836461Y-45043626D01*
X120754622Y-45043626D01*
X120734310Y-44643100D01*
X120734309Y-44643089D01*
X120673580Y-44246670D01*
X120573057Y-43858426D01*
X120433768Y-43482338D01*
X120433765Y-43482331D01*
X120257150Y-43122278D01*
X120045009Y-42781928D01*
X119849121Y-42528862D01*
X119849120Y-42528862D01*
X118345660Y-44032322D01*
X118304152Y-43964309D01*
X118130926Y-43756155D01*
X117929237Y-43575442D01*
X117806266Y-43494085D01*
X119309612Y-41990739D01*
X119309613Y-41990739D01*
X119218921Y-41912883D01*
X119218915Y-41912878D01*
X118889754Y-41683777D01*
X118889755Y-41683777D01*
X118539094Y-41489143D01*
X118539091Y-41489142D01*
X118170553Y-41330990D01*
X118170548Y-41330988D01*
X117787908Y-41210934D01*
X117787894Y-41210930D01*
X117395058Y-41130201D01*
X117395054Y-41130200D01*
X116996066Y-41089627D01*
X116595018Y-41089627D01*
X116196029Y-41130200D01*
X116196025Y-41130201D01*
X115803189Y-41210930D01*
X115803175Y-41210934D01*
X115420535Y-41330988D01*
X115420530Y-41330990D01*
X115051992Y-41489142D01*
X115051989Y-41489143D01*
X114701328Y-41683777D01*
X114372172Y-41912875D01*
X114372168Y-41912879D01*
X114281470Y-41990739D01*
X115781837Y-43491106D01*
X115772042Y-43496604D01*
X115557700Y-43662113D01*
X115369742Y-43857067D01*
X115244801Y-44031701D01*
X113741962Y-42528862D01*
X113546075Y-42781928D01*
X113333933Y-43122278D01*
X113157318Y-43482331D01*
X113157315Y-43482338D01*
X113018026Y-43858426D01*
X112917503Y-44246670D01*
X112856774Y-44643089D01*
X112856773Y-44643100D01*
X112836461Y-45043626D01*
X100000499Y-45043626D01*
X100000500Y-37058627D01*
X103656461Y-37058627D01*
X103676773Y-37459153D01*
X103676774Y-37459164D01*
X103737503Y-37855583D01*
X103838026Y-38243827D01*
X103977315Y-38619915D01*
X103977318Y-38619922D01*
X104153933Y-38979975D01*
X104366074Y-39320325D01*
X104561962Y-39573390D01*
X106065422Y-38069929D01*
X106106932Y-38137945D01*
X106280158Y-38346099D01*
X106481847Y-38526812D01*
X106604816Y-38608167D01*
X105101470Y-40111513D01*
X105192162Y-40189370D01*
X105192168Y-40189375D01*
X105521329Y-40418476D01*
X105521328Y-40418476D01*
X105871989Y-40613110D01*
X105871992Y-40613111D01*
X106240530Y-40771263D01*
X106240535Y-40771265D01*
X106623175Y-40891319D01*
X106623189Y-40891323D01*
X107016025Y-40972052D01*
X107016029Y-40972053D01*
X107415018Y-41012627D01*
X107816066Y-41012627D01*
X108215054Y-40972053D01*
X108215058Y-40972052D01*
X108607894Y-40891323D01*
X108607908Y-40891319D01*
X108990548Y-40771265D01*
X108990553Y-40771263D01*
X109359091Y-40613111D01*
X109359094Y-40613110D01*
X109709750Y-40418479D01*
X110038922Y-40189368D01*
X110129613Y-40111513D01*
X108629247Y-38611147D01*
X108639042Y-38605650D01*
X108853384Y-38440141D01*
X109041342Y-38245187D01*
X109166282Y-38070552D01*
X110669120Y-39573390D01*
X110865009Y-39320325D01*
X111077150Y-38979975D01*
X111253765Y-38619922D01*
X111253768Y-38619915D01*
X111393057Y-38243827D01*
X111493580Y-37855583D01*
X111554309Y-37459164D01*
X111554310Y-37459153D01*
X111574622Y-37058626D01*
X161046461Y-37058626D01*
X161066773Y-37459153D01*
X161066774Y-37459164D01*
X161127503Y-37855583D01*
X161228026Y-38243827D01*
X161367315Y-38619915D01*
X161367318Y-38619922D01*
X161543933Y-38979975D01*
X161756074Y-39320325D01*
X161951962Y-39573390D01*
X163455422Y-38069929D01*
X163496932Y-38137945D01*
X163670158Y-38346099D01*
X163871847Y-38526812D01*
X163994816Y-38608167D01*
X162491470Y-40111513D01*
X162582162Y-40189370D01*
X162582168Y-40189375D01*
X162911329Y-40418476D01*
X162911328Y-40418476D01*
X163261989Y-40613110D01*
X163261992Y-40613111D01*
X163630530Y-40771263D01*
X163630535Y-40771265D01*
X164013175Y-40891319D01*
X164013189Y-40891323D01*
X164406025Y-40972052D01*
X164406029Y-40972053D01*
X164805018Y-41012627D01*
X165206066Y-41012627D01*
X165605054Y-40972053D01*
X165605058Y-40972052D01*
X165997894Y-40891323D01*
X165997908Y-40891319D01*
X166380548Y-40771265D01*
X166380553Y-40771263D01*
X166749091Y-40613111D01*
X166749094Y-40613110D01*
X167099750Y-40418479D01*
X167428922Y-40189368D01*
X167519613Y-40111513D01*
X166019247Y-38611147D01*
X166029042Y-38605650D01*
X166243384Y-38440141D01*
X166431342Y-38245187D01*
X166556282Y-38070552D01*
X168059120Y-39573390D01*
X168255009Y-39320325D01*
X168467150Y-38979975D01*
X168643765Y-38619922D01*
X168643768Y-38619915D01*
X168783057Y-38243827D01*
X168883580Y-37855583D01*
X168944309Y-37459164D01*
X168944310Y-37459153D01*
X168964622Y-37058627D01*
X168944310Y-36658100D01*
X168944309Y-36658089D01*
X168883580Y-36261670D01*
X168783057Y-35873426D01*
X168643768Y-35497338D01*
X168643765Y-35497331D01*
X168467150Y-35137278D01*
X168255009Y-34796928D01*
X168059120Y-34543862D01*
X166555659Y-36047322D01*
X166514152Y-35979309D01*
X166340926Y-35771155D01*
X166139237Y-35590442D01*
X166016266Y-35509085D01*
X167519612Y-34005739D01*
X167519613Y-34005739D01*
X167428921Y-33927883D01*
X167428915Y-33927878D01*
X167099754Y-33698777D01*
X167099755Y-33698777D01*
X166749094Y-33504143D01*
X166749091Y-33504142D01*
X166380553Y-33345990D01*
X166380548Y-33345988D01*
X165997908Y-33225934D01*
X165997894Y-33225930D01*
X165605058Y-33145201D01*
X165605054Y-33145200D01*
X165206066Y-33104627D01*
X164805018Y-33104627D01*
X164406029Y-33145200D01*
X164406025Y-33145201D01*
X164013189Y-33225930D01*
X164013175Y-33225934D01*
X163630535Y-33345988D01*
X163630530Y-33345990D01*
X163261992Y-33504142D01*
X163261989Y-33504143D01*
X162911328Y-33698777D01*
X162582172Y-33927875D01*
X162582168Y-33927879D01*
X162491470Y-34005739D01*
X163991837Y-35506106D01*
X163982042Y-35511604D01*
X163767700Y-35677113D01*
X163579742Y-35872067D01*
X163454801Y-36046701D01*
X161951962Y-34543862D01*
X161756075Y-34796928D01*
X161543933Y-35137278D01*
X161367318Y-35497331D01*
X161367315Y-35497338D01*
X161228026Y-35873426D01*
X161127503Y-36261670D01*
X161066774Y-36658089D01*
X161066773Y-36658100D01*
X161046461Y-37058626D01*
X111574622Y-37058626D01*
X111554310Y-36658100D01*
X111554309Y-36658089D01*
X111493580Y-36261670D01*
X111393057Y-35873426D01*
X111253768Y-35497338D01*
X111253765Y-35497331D01*
X111077150Y-35137278D01*
X110865009Y-34796928D01*
X110669121Y-34543862D01*
X110669120Y-34543862D01*
X109165660Y-36047322D01*
X109124152Y-35979309D01*
X108950926Y-35771155D01*
X108749237Y-35590442D01*
X108626266Y-35509085D01*
X110129612Y-34005739D01*
X110129613Y-34005739D01*
X110038921Y-33927883D01*
X110038915Y-33927878D01*
X109709754Y-33698777D01*
X109709755Y-33698777D01*
X109359094Y-33504143D01*
X109359091Y-33504142D01*
X108990553Y-33345990D01*
X108990548Y-33345988D01*
X108607908Y-33225934D01*
X108607894Y-33225930D01*
X108215058Y-33145201D01*
X108215054Y-33145200D01*
X107816066Y-33104627D01*
X107415018Y-33104627D01*
X107016029Y-33145200D01*
X107016025Y-33145201D01*
X106623189Y-33225930D01*
X106623175Y-33225934D01*
X106240535Y-33345988D01*
X106240530Y-33345990D01*
X105871992Y-33504142D01*
X105871989Y-33504143D01*
X105521328Y-33698777D01*
X105192172Y-33927875D01*
X105192168Y-33927879D01*
X105101470Y-34005739D01*
X106601837Y-35506106D01*
X106592042Y-35511604D01*
X106377700Y-35677113D01*
X106189742Y-35872067D01*
X106064801Y-36046701D01*
X104561962Y-34543862D01*
X104366075Y-34796928D01*
X104153933Y-35137278D01*
X103977318Y-35497331D01*
X103977315Y-35497338D01*
X103838026Y-35873426D01*
X103737503Y-36261670D01*
X103676774Y-36658089D01*
X103676773Y-36658100D01*
X103656461Y-37058627D01*
X100000500Y-37058627D01*
X100000500Y-27101099D01*
X100019713Y-27041969D01*
X100070013Y-27005424D01*
X100101100Y-27000500D01*
X125979894Y-27000500D01*
X125980029Y-27000527D01*
X125980030Y-27000527D01*
X125999999Y-27000540D01*
X126000000Y-27000541D01*
X126000000Y-27000540D01*
X126000002Y-27000541D01*
X126000382Y-27000384D01*
X126000382Y-27000383D01*
X126000383Y-27000383D01*
X126000500Y-27000099D01*
X126000541Y-27000000D01*
X126000575Y-26980460D01*
X126000500Y-26980082D01*
X126000500Y-25501100D01*
X126019713Y-25441969D01*
X126070013Y-25405424D01*
X126101100Y-25400500D01*
X146898900Y-25400500D01*
X146958031Y-25419713D01*
G37*
%TD.AperFunction*%
%TD*%
M02*
