%TF.GenerationSoftware,KiCad,Pcbnew,7.0.5-0*%
%TF.CreationDate,2024-04-21T20:23:45-04:00*%
%TF.ProjectId,swr_meter_divider,7377725f-6d65-4746-9572-5f6469766964,rev?*%
%TF.SameCoordinates,Original*%
%TF.FileFunction,Drillmap*%
%TF.FilePolarity,Positive*%
%FSLAX45Y45*%
G04 Gerber Fmt 4.5, Leading zero omitted, Abs format (unit mm)*
G04 Created by KiCad (PCBNEW 7.0.5-0) date 2024-04-21 20:23:45*
%MOMM*%
%LPD*%
G01*
G04 APERTURE LIST*
%ADD10C,0.349999*%
%ADD11C,0.200000*%
%ADD12C,0.370000*%
G04 APERTURE END LIST*
D10*
X14700000Y-2700000D02*
X17300000Y-2700000D01*
X17300000Y-5300000D01*
X17460000Y-5300000D01*
X17460000Y-7400000D01*
X17300000Y-7400000D01*
X17300000Y-10000000D01*
X16650000Y-10000000D01*
X16027554Y-10000000D01*
X16027554Y-9583363D01*
X15927554Y-9483363D01*
X15577554Y-9483363D01*
X15472554Y-9583363D01*
X15472554Y-10000000D01*
X14700000Y-10000000D01*
X14700000Y-10160000D01*
X12600000Y-10160000D01*
X12600000Y-10000000D01*
X11777554Y-10000000D01*
X11777554Y-9558363D01*
X11652554Y-9468363D01*
X11352554Y-9468363D01*
X11217554Y-9558363D01*
X11217554Y-10000000D01*
X10000000Y-10000000D01*
X10000000Y-7400000D01*
X9840000Y-7400000D01*
X9840000Y-5300000D01*
X10000000Y-5300000D01*
X10000000Y-2700000D01*
X12600000Y-2700000D01*
X12600000Y-2540000D01*
X14700000Y-2540000D01*
X14700000Y-2700000D01*
D11*
D12*
X10575554Y-8354363D02*
X10945554Y-8724363D01*
X10945554Y-8354363D02*
X10575554Y-8724363D01*
X10575554Y-8354363D02*
X10945554Y-8724363D01*
X10945554Y-8354363D02*
X10575554Y-8724363D01*
X10575554Y-8354363D02*
X10945554Y-8724363D01*
X10945554Y-8354363D02*
X10575554Y-8724363D01*
X10576554Y-3520863D02*
X10946554Y-3890863D01*
X10946554Y-3520863D02*
X10576554Y-3890863D01*
X10576554Y-3520863D02*
X10946554Y-3890863D01*
X10946554Y-3520863D02*
X10576554Y-3890863D01*
X10576554Y-3520863D02*
X10946554Y-3890863D01*
X10946554Y-3520863D02*
X10576554Y-3890863D01*
X11494554Y-4319363D02*
X11864554Y-4689363D01*
X11864554Y-4319363D02*
X11494554Y-4689363D01*
X11494554Y-4319363D02*
X11864554Y-4689363D01*
X11864554Y-4319363D02*
X11494554Y-4689363D01*
X11494554Y-4319363D02*
X11864554Y-4689363D01*
X11864554Y-4319363D02*
X11494554Y-4689363D01*
X15794554Y-4319363D02*
X16164554Y-4689363D01*
X16164554Y-4319363D02*
X15794554Y-4689363D01*
X15794554Y-4319363D02*
X16164554Y-4689363D01*
X16164554Y-4319363D02*
X15794554Y-4689363D01*
X15794554Y-4319363D02*
X16164554Y-4689363D01*
X16164554Y-4319363D02*
X15794554Y-4689363D01*
X16314554Y-8354363D02*
X16684554Y-8724363D01*
X16684554Y-8354363D02*
X16314554Y-8724363D01*
X16314554Y-8354363D02*
X16684554Y-8724363D01*
X16684554Y-8354363D02*
X16314554Y-8724363D01*
X16314554Y-8354363D02*
X16684554Y-8724363D01*
X16684554Y-8354363D02*
X16314554Y-8724363D01*
X16315554Y-3520863D02*
X16685554Y-3890863D01*
X16685554Y-3520863D02*
X16315554Y-3890863D01*
X16315554Y-3520863D02*
X16685554Y-3890863D01*
X16685554Y-3520863D02*
X16315554Y-3890863D01*
X16315554Y-3520863D02*
X16685554Y-3890863D01*
X16685554Y-3520863D02*
X16315554Y-3890863D01*
D11*
X10083277Y-10488984D02*
X10083277Y-10288984D01*
X10083277Y-10288984D02*
X10130896Y-10288984D01*
X10130896Y-10288984D02*
X10159468Y-10298507D01*
X10159468Y-10298507D02*
X10178515Y-10317555D01*
X10178515Y-10317555D02*
X10188039Y-10336603D01*
X10188039Y-10336603D02*
X10197563Y-10374698D01*
X10197563Y-10374698D02*
X10197563Y-10403269D01*
X10197563Y-10403269D02*
X10188039Y-10441364D01*
X10188039Y-10441364D02*
X10178515Y-10460412D01*
X10178515Y-10460412D02*
X10159468Y-10479460D01*
X10159468Y-10479460D02*
X10130896Y-10488984D01*
X10130896Y-10488984D02*
X10083277Y-10488984D01*
X10283277Y-10488984D02*
X10283277Y-10355650D01*
X10283277Y-10393745D02*
X10292801Y-10374698D01*
X10292801Y-10374698D02*
X10302325Y-10365174D01*
X10302325Y-10365174D02*
X10321372Y-10355650D01*
X10321372Y-10355650D02*
X10340420Y-10355650D01*
X10407087Y-10488984D02*
X10407087Y-10355650D01*
X10407087Y-10288984D02*
X10397563Y-10298507D01*
X10397563Y-10298507D02*
X10407087Y-10308031D01*
X10407087Y-10308031D02*
X10416610Y-10298507D01*
X10416610Y-10298507D02*
X10407087Y-10288984D01*
X10407087Y-10288984D02*
X10407087Y-10308031D01*
X10530896Y-10488984D02*
X10511849Y-10479460D01*
X10511849Y-10479460D02*
X10502325Y-10460412D01*
X10502325Y-10460412D02*
X10502325Y-10288984D01*
X10635658Y-10488984D02*
X10616610Y-10479460D01*
X10616610Y-10479460D02*
X10607087Y-10460412D01*
X10607087Y-10460412D02*
X10607087Y-10288984D01*
X10864230Y-10488984D02*
X10864230Y-10288984D01*
X10864230Y-10288984D02*
X10930896Y-10431841D01*
X10930896Y-10431841D02*
X10997563Y-10288984D01*
X10997563Y-10288984D02*
X10997563Y-10488984D01*
X11178515Y-10488984D02*
X11178515Y-10384222D01*
X11178515Y-10384222D02*
X11168991Y-10365174D01*
X11168991Y-10365174D02*
X11149944Y-10355650D01*
X11149944Y-10355650D02*
X11111849Y-10355650D01*
X11111849Y-10355650D02*
X11092801Y-10365174D01*
X11178515Y-10479460D02*
X11159468Y-10488984D01*
X11159468Y-10488984D02*
X11111849Y-10488984D01*
X11111849Y-10488984D02*
X11092801Y-10479460D01*
X11092801Y-10479460D02*
X11083277Y-10460412D01*
X11083277Y-10460412D02*
X11083277Y-10441364D01*
X11083277Y-10441364D02*
X11092801Y-10422317D01*
X11092801Y-10422317D02*
X11111849Y-10412793D01*
X11111849Y-10412793D02*
X11159468Y-10412793D01*
X11159468Y-10412793D02*
X11178515Y-10403269D01*
X11273753Y-10355650D02*
X11273753Y-10555650D01*
X11273753Y-10365174D02*
X11292801Y-10355650D01*
X11292801Y-10355650D02*
X11330896Y-10355650D01*
X11330896Y-10355650D02*
X11349944Y-10365174D01*
X11349944Y-10365174D02*
X11359468Y-10374698D01*
X11359468Y-10374698D02*
X11368991Y-10393745D01*
X11368991Y-10393745D02*
X11368991Y-10450888D01*
X11368991Y-10450888D02*
X11359468Y-10469936D01*
X11359468Y-10469936D02*
X11349944Y-10479460D01*
X11349944Y-10479460D02*
X11330896Y-10488984D01*
X11330896Y-10488984D02*
X11292801Y-10488984D01*
X11292801Y-10488984D02*
X11273753Y-10479460D01*
X11454706Y-10469936D02*
X11464229Y-10479460D01*
X11464229Y-10479460D02*
X11454706Y-10488984D01*
X11454706Y-10488984D02*
X11445182Y-10479460D01*
X11445182Y-10479460D02*
X11454706Y-10469936D01*
X11454706Y-10469936D02*
X11454706Y-10488984D01*
X11454706Y-10365174D02*
X11464229Y-10374698D01*
X11464229Y-10374698D02*
X11454706Y-10384222D01*
X11454706Y-10384222D02*
X11445182Y-10374698D01*
X11445182Y-10374698D02*
X11454706Y-10365174D01*
X11454706Y-10365174D02*
X11454706Y-10384222D01*
X9622500Y-10717500D02*
X9822500Y-10917500D01*
X9822500Y-10717500D02*
X9622500Y-10917500D01*
X10064230Y-10708984D02*
X10188039Y-10708984D01*
X10188039Y-10708984D02*
X10121372Y-10785174D01*
X10121372Y-10785174D02*
X10149944Y-10785174D01*
X10149944Y-10785174D02*
X10168991Y-10794698D01*
X10168991Y-10794698D02*
X10178515Y-10804222D01*
X10178515Y-10804222D02*
X10188039Y-10823269D01*
X10188039Y-10823269D02*
X10188039Y-10870888D01*
X10188039Y-10870888D02*
X10178515Y-10889936D01*
X10178515Y-10889936D02*
X10168991Y-10899460D01*
X10168991Y-10899460D02*
X10149944Y-10908984D01*
X10149944Y-10908984D02*
X10092801Y-10908984D01*
X10092801Y-10908984D02*
X10073753Y-10899460D01*
X10073753Y-10899460D02*
X10064230Y-10889936D01*
X10273753Y-10889936D02*
X10283277Y-10899460D01*
X10283277Y-10899460D02*
X10273753Y-10908984D01*
X10273753Y-10908984D02*
X10264230Y-10899460D01*
X10264230Y-10899460D02*
X10273753Y-10889936D01*
X10273753Y-10889936D02*
X10273753Y-10908984D01*
X10349944Y-10708984D02*
X10483277Y-10708984D01*
X10483277Y-10708984D02*
X10397563Y-10908984D01*
X10597563Y-10708984D02*
X10616611Y-10708984D01*
X10616611Y-10708984D02*
X10635658Y-10718507D01*
X10635658Y-10718507D02*
X10645182Y-10728031D01*
X10645182Y-10728031D02*
X10654706Y-10747079D01*
X10654706Y-10747079D02*
X10664230Y-10785174D01*
X10664230Y-10785174D02*
X10664230Y-10832793D01*
X10664230Y-10832793D02*
X10654706Y-10870888D01*
X10654706Y-10870888D02*
X10645182Y-10889936D01*
X10645182Y-10889936D02*
X10635658Y-10899460D01*
X10635658Y-10899460D02*
X10616611Y-10908984D01*
X10616611Y-10908984D02*
X10597563Y-10908984D01*
X10597563Y-10908984D02*
X10578515Y-10899460D01*
X10578515Y-10899460D02*
X10568991Y-10889936D01*
X10568991Y-10889936D02*
X10559468Y-10870888D01*
X10559468Y-10870888D02*
X10549944Y-10832793D01*
X10549944Y-10832793D02*
X10549944Y-10785174D01*
X10549944Y-10785174D02*
X10559468Y-10747079D01*
X10559468Y-10747079D02*
X10568991Y-10728031D01*
X10568991Y-10728031D02*
X10578515Y-10718507D01*
X10578515Y-10718507D02*
X10597563Y-10708984D01*
X10788039Y-10708984D02*
X10807087Y-10708984D01*
X10807087Y-10708984D02*
X10826134Y-10718507D01*
X10826134Y-10718507D02*
X10835658Y-10728031D01*
X10835658Y-10728031D02*
X10845182Y-10747079D01*
X10845182Y-10747079D02*
X10854706Y-10785174D01*
X10854706Y-10785174D02*
X10854706Y-10832793D01*
X10854706Y-10832793D02*
X10845182Y-10870888D01*
X10845182Y-10870888D02*
X10835658Y-10889936D01*
X10835658Y-10889936D02*
X10826134Y-10899460D01*
X10826134Y-10899460D02*
X10807087Y-10908984D01*
X10807087Y-10908984D02*
X10788039Y-10908984D01*
X10788039Y-10908984D02*
X10768991Y-10899460D01*
X10768991Y-10899460D02*
X10759468Y-10889936D01*
X10759468Y-10889936D02*
X10749944Y-10870888D01*
X10749944Y-10870888D02*
X10740420Y-10832793D01*
X10740420Y-10832793D02*
X10740420Y-10785174D01*
X10740420Y-10785174D02*
X10749944Y-10747079D01*
X10749944Y-10747079D02*
X10759468Y-10728031D01*
X10759468Y-10728031D02*
X10768991Y-10718507D01*
X10768991Y-10718507D02*
X10788039Y-10708984D01*
X10940420Y-10908984D02*
X10940420Y-10775650D01*
X10940420Y-10794698D02*
X10949944Y-10785174D01*
X10949944Y-10785174D02*
X10968991Y-10775650D01*
X10968991Y-10775650D02*
X10997563Y-10775650D01*
X10997563Y-10775650D02*
X11016611Y-10785174D01*
X11016611Y-10785174D02*
X11026134Y-10804222D01*
X11026134Y-10804222D02*
X11026134Y-10908984D01*
X11026134Y-10804222D02*
X11035658Y-10785174D01*
X11035658Y-10785174D02*
X11054706Y-10775650D01*
X11054706Y-10775650D02*
X11083277Y-10775650D01*
X11083277Y-10775650D02*
X11102325Y-10785174D01*
X11102325Y-10785174D02*
X11111849Y-10804222D01*
X11111849Y-10804222D02*
X11111849Y-10908984D01*
X11207087Y-10908984D02*
X11207087Y-10775650D01*
X11207087Y-10794698D02*
X11216610Y-10785174D01*
X11216610Y-10785174D02*
X11235658Y-10775650D01*
X11235658Y-10775650D02*
X11264230Y-10775650D01*
X11264230Y-10775650D02*
X11283277Y-10785174D01*
X11283277Y-10785174D02*
X11292801Y-10804222D01*
X11292801Y-10804222D02*
X11292801Y-10908984D01*
X11292801Y-10804222D02*
X11302325Y-10785174D01*
X11302325Y-10785174D02*
X11321372Y-10775650D01*
X11321372Y-10775650D02*
X11349944Y-10775650D01*
X11349944Y-10775650D02*
X11368991Y-10785174D01*
X11368991Y-10785174D02*
X11378515Y-10804222D01*
X11378515Y-10804222D02*
X11378515Y-10908984D01*
X11768991Y-10699460D02*
X11597563Y-10956603D01*
X12026134Y-10708984D02*
X12045182Y-10708984D01*
X12045182Y-10708984D02*
X12064230Y-10718507D01*
X12064230Y-10718507D02*
X12073753Y-10728031D01*
X12073753Y-10728031D02*
X12083277Y-10747079D01*
X12083277Y-10747079D02*
X12092801Y-10785174D01*
X12092801Y-10785174D02*
X12092801Y-10832793D01*
X12092801Y-10832793D02*
X12083277Y-10870888D01*
X12083277Y-10870888D02*
X12073753Y-10889936D01*
X12073753Y-10889936D02*
X12064230Y-10899460D01*
X12064230Y-10899460D02*
X12045182Y-10908984D01*
X12045182Y-10908984D02*
X12026134Y-10908984D01*
X12026134Y-10908984D02*
X12007087Y-10899460D01*
X12007087Y-10899460D02*
X11997563Y-10889936D01*
X11997563Y-10889936D02*
X11988039Y-10870888D01*
X11988039Y-10870888D02*
X11978515Y-10832793D01*
X11978515Y-10832793D02*
X11978515Y-10785174D01*
X11978515Y-10785174D02*
X11988039Y-10747079D01*
X11988039Y-10747079D02*
X11997563Y-10728031D01*
X11997563Y-10728031D02*
X12007087Y-10718507D01*
X12007087Y-10718507D02*
X12026134Y-10708984D01*
X12178515Y-10889936D02*
X12188039Y-10899460D01*
X12188039Y-10899460D02*
X12178515Y-10908984D01*
X12178515Y-10908984D02*
X12168992Y-10899460D01*
X12168992Y-10899460D02*
X12178515Y-10889936D01*
X12178515Y-10889936D02*
X12178515Y-10908984D01*
X12378515Y-10908984D02*
X12264230Y-10908984D01*
X12321372Y-10908984D02*
X12321372Y-10708984D01*
X12321372Y-10708984D02*
X12302325Y-10737555D01*
X12302325Y-10737555D02*
X12283277Y-10756603D01*
X12283277Y-10756603D02*
X12264230Y-10766126D01*
X12549944Y-10775650D02*
X12549944Y-10908984D01*
X12502325Y-10699460D02*
X12454706Y-10842317D01*
X12454706Y-10842317D02*
X12578515Y-10842317D01*
X12749944Y-10708984D02*
X12654706Y-10708984D01*
X12654706Y-10708984D02*
X12645182Y-10804222D01*
X12645182Y-10804222D02*
X12654706Y-10794698D01*
X12654706Y-10794698D02*
X12673753Y-10785174D01*
X12673753Y-10785174D02*
X12721373Y-10785174D01*
X12721373Y-10785174D02*
X12740420Y-10794698D01*
X12740420Y-10794698D02*
X12749944Y-10804222D01*
X12749944Y-10804222D02*
X12759468Y-10823269D01*
X12759468Y-10823269D02*
X12759468Y-10870888D01*
X12759468Y-10870888D02*
X12749944Y-10889936D01*
X12749944Y-10889936D02*
X12740420Y-10899460D01*
X12740420Y-10899460D02*
X12721373Y-10908984D01*
X12721373Y-10908984D02*
X12673753Y-10908984D01*
X12673753Y-10908984D02*
X12654706Y-10899460D01*
X12654706Y-10899460D02*
X12645182Y-10889936D01*
X12826134Y-10708984D02*
X12959468Y-10708984D01*
X12959468Y-10708984D02*
X12873753Y-10908984D01*
X13026134Y-10708984D02*
X13026134Y-10747079D01*
X13102325Y-10708984D02*
X13102325Y-10747079D01*
X13397563Y-10985174D02*
X13388039Y-10975650D01*
X13388039Y-10975650D02*
X13368992Y-10947079D01*
X13368992Y-10947079D02*
X13359468Y-10928031D01*
X13359468Y-10928031D02*
X13349944Y-10899460D01*
X13349944Y-10899460D02*
X13340420Y-10851841D01*
X13340420Y-10851841D02*
X13340420Y-10813745D01*
X13340420Y-10813745D02*
X13349944Y-10766126D01*
X13349944Y-10766126D02*
X13359468Y-10737555D01*
X13359468Y-10737555D02*
X13368992Y-10718507D01*
X13368992Y-10718507D02*
X13388039Y-10689936D01*
X13388039Y-10689936D02*
X13397563Y-10680412D01*
X13578515Y-10908984D02*
X13464230Y-10908984D01*
X13521373Y-10908984D02*
X13521373Y-10708984D01*
X13521373Y-10708984D02*
X13502325Y-10737555D01*
X13502325Y-10737555D02*
X13483277Y-10756603D01*
X13483277Y-10756603D02*
X13464230Y-10766126D01*
X13692801Y-10794698D02*
X13673754Y-10785174D01*
X13673754Y-10785174D02*
X13664230Y-10775650D01*
X13664230Y-10775650D02*
X13654706Y-10756603D01*
X13654706Y-10756603D02*
X13654706Y-10747079D01*
X13654706Y-10747079D02*
X13664230Y-10728031D01*
X13664230Y-10728031D02*
X13673754Y-10718507D01*
X13673754Y-10718507D02*
X13692801Y-10708984D01*
X13692801Y-10708984D02*
X13730896Y-10708984D01*
X13730896Y-10708984D02*
X13749944Y-10718507D01*
X13749944Y-10718507D02*
X13759468Y-10728031D01*
X13759468Y-10728031D02*
X13768992Y-10747079D01*
X13768992Y-10747079D02*
X13768992Y-10756603D01*
X13768992Y-10756603D02*
X13759468Y-10775650D01*
X13759468Y-10775650D02*
X13749944Y-10785174D01*
X13749944Y-10785174D02*
X13730896Y-10794698D01*
X13730896Y-10794698D02*
X13692801Y-10794698D01*
X13692801Y-10794698D02*
X13673754Y-10804222D01*
X13673754Y-10804222D02*
X13664230Y-10813745D01*
X13664230Y-10813745D02*
X13654706Y-10832793D01*
X13654706Y-10832793D02*
X13654706Y-10870888D01*
X13654706Y-10870888D02*
X13664230Y-10889936D01*
X13664230Y-10889936D02*
X13673754Y-10899460D01*
X13673754Y-10899460D02*
X13692801Y-10908984D01*
X13692801Y-10908984D02*
X13730896Y-10908984D01*
X13730896Y-10908984D02*
X13749944Y-10899460D01*
X13749944Y-10899460D02*
X13759468Y-10889936D01*
X13759468Y-10889936D02*
X13768992Y-10870888D01*
X13768992Y-10870888D02*
X13768992Y-10832793D01*
X13768992Y-10832793D02*
X13759468Y-10813745D01*
X13759468Y-10813745D02*
X13749944Y-10804222D01*
X13749944Y-10804222D02*
X13730896Y-10794698D01*
X14007087Y-10908984D02*
X14007087Y-10708984D01*
X14092801Y-10908984D02*
X14092801Y-10804222D01*
X14092801Y-10804222D02*
X14083277Y-10785174D01*
X14083277Y-10785174D02*
X14064230Y-10775650D01*
X14064230Y-10775650D02*
X14035658Y-10775650D01*
X14035658Y-10775650D02*
X14016611Y-10785174D01*
X14016611Y-10785174D02*
X14007087Y-10794698D01*
X14216611Y-10908984D02*
X14197563Y-10899460D01*
X14197563Y-10899460D02*
X14188039Y-10889936D01*
X14188039Y-10889936D02*
X14178516Y-10870888D01*
X14178516Y-10870888D02*
X14178516Y-10813745D01*
X14178516Y-10813745D02*
X14188039Y-10794698D01*
X14188039Y-10794698D02*
X14197563Y-10785174D01*
X14197563Y-10785174D02*
X14216611Y-10775650D01*
X14216611Y-10775650D02*
X14245182Y-10775650D01*
X14245182Y-10775650D02*
X14264230Y-10785174D01*
X14264230Y-10785174D02*
X14273754Y-10794698D01*
X14273754Y-10794698D02*
X14283277Y-10813745D01*
X14283277Y-10813745D02*
X14283277Y-10870888D01*
X14283277Y-10870888D02*
X14273754Y-10889936D01*
X14273754Y-10889936D02*
X14264230Y-10899460D01*
X14264230Y-10899460D02*
X14245182Y-10908984D01*
X14245182Y-10908984D02*
X14216611Y-10908984D01*
X14397563Y-10908984D02*
X14378516Y-10899460D01*
X14378516Y-10899460D02*
X14368992Y-10880412D01*
X14368992Y-10880412D02*
X14368992Y-10708984D01*
X14549944Y-10899460D02*
X14530897Y-10908984D01*
X14530897Y-10908984D02*
X14492801Y-10908984D01*
X14492801Y-10908984D02*
X14473754Y-10899460D01*
X14473754Y-10899460D02*
X14464230Y-10880412D01*
X14464230Y-10880412D02*
X14464230Y-10804222D01*
X14464230Y-10804222D02*
X14473754Y-10785174D01*
X14473754Y-10785174D02*
X14492801Y-10775650D01*
X14492801Y-10775650D02*
X14530897Y-10775650D01*
X14530897Y-10775650D02*
X14549944Y-10785174D01*
X14549944Y-10785174D02*
X14559468Y-10804222D01*
X14559468Y-10804222D02*
X14559468Y-10823269D01*
X14559468Y-10823269D02*
X14464230Y-10842317D01*
X14635658Y-10899460D02*
X14654706Y-10908984D01*
X14654706Y-10908984D02*
X14692801Y-10908984D01*
X14692801Y-10908984D02*
X14711849Y-10899460D01*
X14711849Y-10899460D02*
X14721373Y-10880412D01*
X14721373Y-10880412D02*
X14721373Y-10870888D01*
X14721373Y-10870888D02*
X14711849Y-10851841D01*
X14711849Y-10851841D02*
X14692801Y-10842317D01*
X14692801Y-10842317D02*
X14664230Y-10842317D01*
X14664230Y-10842317D02*
X14645182Y-10832793D01*
X14645182Y-10832793D02*
X14635658Y-10813745D01*
X14635658Y-10813745D02*
X14635658Y-10804222D01*
X14635658Y-10804222D02*
X14645182Y-10785174D01*
X14645182Y-10785174D02*
X14664230Y-10775650D01*
X14664230Y-10775650D02*
X14692801Y-10775650D01*
X14692801Y-10775650D02*
X14711849Y-10785174D01*
X14788039Y-10985174D02*
X14797563Y-10975650D01*
X14797563Y-10975650D02*
X14816611Y-10947079D01*
X14816611Y-10947079D02*
X14826135Y-10928031D01*
X14826135Y-10928031D02*
X14835658Y-10899460D01*
X14835658Y-10899460D02*
X14845182Y-10851841D01*
X14845182Y-10851841D02*
X14845182Y-10813745D01*
X14845182Y-10813745D02*
X14835658Y-10766126D01*
X14835658Y-10766126D02*
X14826135Y-10737555D01*
X14826135Y-10737555D02*
X14816611Y-10718507D01*
X14816611Y-10718507D02*
X14797563Y-10689936D01*
X14797563Y-10689936D02*
X14788039Y-10680412D01*
M02*
