M48
; DRILL file {KiCad 7.0.5-0} date 2024 April 21, Sunday 20:32:44
; FORMAT={-:-/ absolute / inch / decimal}
; #@! TF.CreationDate,2024-04-21T20:32:44-04:00
; #@! TF.GenerationSoftware,Kicad,Pcbnew,7.0.5-0
; #@! TF.FileFunction,MixedPlating,1,2
FMAT,2
INCH
; #@! TA.AperFunction,Plated,PTH,ComponentDrill
T1C0.0394
; #@! TA.AperFunction,Plated,PTH,ComponentDrill
T2C0.0866
; #@! TA.AperFunction,Plated,PTH,ComponentDrill
T3C0.1063
; #@! TA.AperFunction,Plated,PTH,ComponentDrill
T4C0.1378
; #@! TA.AperFunction,Plated,PTH,ComponentDrill
T5C0.1457
; #@! TA.AperFunction,Plated,PTH,ComponentDrill
T6C0.6614
; #@! TA.AperFunction,NonPlated,NPTH,ComponentDrill
T7C0.0197
; #@! TA.AperFunction,NonPlated,NPTH,ComponentDrill
T8C0.0236
; #@! TA.AperFunction,NonPlated,NPTH,ComponentDrill
T9C0.0827
; #@! TA.AperFunction,NonPlated,NPTH,ComponentDrill
T10C0.3150
; #@! TA.AperFunction,NonPlated,NPTH,ComponentDrill
T11C0.3937
%
G90
G05
T1
X5.7463Y-7.8903
X5.7463Y-9.8982
X5.9685Y-7.7338
X5.9685Y-7.8338
X5.9685Y-7.9338
X5.9685Y-8.0338
X5.9685Y-8.1338
X5.9685Y-8.2338
X5.9685Y-8.3338
X5.9685Y-8.4338
X5.9685Y-8.5338
X5.9685Y-8.6338
X5.9685Y-8.7338
X5.9685Y-8.8338
X5.9685Y-8.9338
X5.9685Y-9.0338
X5.9685Y-9.1338
X5.9685Y-9.2338
X5.9685Y-9.3338
X5.9685Y-9.4338
X5.9685Y-9.5338
X5.9685Y-9.6338
X5.9685Y-9.7338
X5.9685Y-9.8338
X5.9685Y-9.9338
X5.9685Y-10.0338
X6.0685Y-7.7338
X6.0685Y-7.8338
X6.0685Y-7.9338
X6.0685Y-8.0338
X6.0685Y-8.1338
X6.0685Y-8.2338
X6.0685Y-8.3338
X6.0685Y-8.4338
X6.0685Y-8.5338
X6.0685Y-8.6338
X6.0685Y-8.7338
X6.0685Y-8.8338
X6.0685Y-8.9338
X6.0685Y-9.0338
X6.0685Y-9.1338
X6.0685Y-9.2338
X6.0685Y-9.3338
X6.0685Y-9.4338
X6.0685Y-9.5338
X6.0685Y-9.6338
X6.0685Y-9.7338
X6.0685Y-9.8338
X6.0685Y-9.9338
X6.0685Y-10.0338
X6.2685Y-7.7338
X6.2685Y-7.8338
X6.2685Y-7.9338
X6.2685Y-8.0338
X6.2685Y-8.1338
X6.2685Y-8.2338
X6.2685Y-8.3338
X6.2685Y-8.4338
X6.2685Y-8.5338
X6.2685Y-8.6338
X6.2685Y-8.7338
X6.2685Y-8.8338
X6.2685Y-8.9338
X6.2685Y-9.0338
X6.2685Y-9.1338
X6.2685Y-9.2338
X6.2685Y-9.3338
X6.2685Y-9.4338
X6.2685Y-9.5338
X6.2685Y-9.6338
X6.2685Y-9.7338
X6.2685Y-9.8338
X6.2685Y-9.9338
X6.2685Y-10.0338
X6.3685Y-7.7338
X6.3685Y-7.8338
X6.3685Y-7.9338
X6.3685Y-8.0338
X6.3685Y-8.1338
X6.3685Y-8.2338
X6.3685Y-8.3338
X6.3685Y-8.4338
X6.3685Y-8.5338
X6.3685Y-8.6338
X6.3685Y-8.7338
X6.3685Y-8.8338
X6.3685Y-8.9338
X6.3685Y-9.0338
X6.3685Y-9.1338
X6.3685Y-9.2338
X6.3685Y-9.3338
X6.3685Y-9.4338
X6.3685Y-9.5338
X6.3685Y-9.6338
X6.3685Y-9.7338
X6.3685Y-9.8338
X6.3685Y-9.9338
X6.3685Y-10.0338
X6.4685Y-7.7338
X6.4685Y-7.8338
X6.4685Y-7.9338
X6.4685Y-8.0338
X6.4685Y-8.1338
X6.4685Y-8.2338
X6.4685Y-8.3338
X6.4685Y-8.4338
X6.4685Y-8.5338
X6.4685Y-8.6338
X6.4685Y-8.7338
X6.4685Y-8.8338
X6.4685Y-8.9338
X6.4685Y-9.0338
X6.4685Y-9.1338
X6.4685Y-9.2338
X6.4685Y-9.3338
X6.4685Y-9.4338
X6.4685Y-9.5338
X6.4685Y-9.6338
X6.4685Y-9.7338
X6.4685Y-9.8338
X6.4685Y-9.9338
X6.4685Y-10.0338
X6.5685Y-7.7338
X6.5685Y-7.8338
X6.5685Y-7.9338
X6.5685Y-8.0338
X6.5685Y-8.1338
X6.5685Y-8.2338
X6.5685Y-8.3338
X6.5685Y-8.4338
X6.5685Y-8.5338
X6.5685Y-8.6338
X6.5685Y-8.7338
X6.5685Y-8.8338
X6.5685Y-8.9338
X6.5685Y-9.0338
X6.5685Y-9.1338
X6.5685Y-9.2338
X6.5685Y-9.3338
X6.5685Y-9.4338
X6.5685Y-9.5338
X6.5685Y-9.6338
X6.5685Y-9.7338
X6.5685Y-9.8338
X6.5685Y-9.9338
X6.5685Y-10.0338
X6.6685Y-7.7338
X6.6685Y-7.8338
X6.6685Y-7.9338
X6.6685Y-8.0338
X6.6685Y-8.1338
X6.6685Y-8.2338
X6.6685Y-8.3338
X6.6685Y-8.4338
X6.6685Y-8.5338
X6.6685Y-8.6338
X6.6685Y-8.7338
X6.6685Y-8.8338
X6.6685Y-8.9338
X6.6685Y-9.0338
X6.6685Y-9.1338
X6.6685Y-9.2338
X6.6685Y-9.3338
X6.6685Y-9.4338
X6.6685Y-9.5338
X6.6685Y-9.6338
X6.6685Y-9.7338
X6.6685Y-9.8338
X6.6685Y-9.9338
X6.6685Y-10.0338
X6.7685Y-7.7338
X6.7685Y-7.8338
X6.7685Y-7.9338
X6.7685Y-8.0338
X6.7685Y-8.1338
X6.7685Y-8.2338
X6.7685Y-8.3338
X6.7685Y-8.4338
X6.7685Y-8.5338
X6.7685Y-8.6338
X6.7685Y-8.7338
X6.7685Y-8.8338
X6.7685Y-8.9338
X6.7685Y-9.0338
X6.7685Y-9.1338
X6.7685Y-9.2338
X6.7685Y-9.3338
X6.7685Y-9.4338
X6.7685Y-9.5338
X6.7685Y-9.6338
X6.7685Y-9.7338
X6.7685Y-9.8338
X6.7685Y-9.9338
X6.7685Y-10.0338
X7.0685Y-7.7338
X7.0685Y-7.8338
X7.0685Y-7.9338
X7.0685Y-8.0338
X7.0685Y-8.1338
X7.0685Y-8.2338
X7.0685Y-8.3338
X7.0685Y-8.4338
X7.0685Y-8.5338
X7.0685Y-8.6338
X7.0685Y-8.7338
X7.0685Y-8.8338
X7.0685Y-8.9338
X7.0685Y-9.0338
X7.0685Y-9.1338
X7.0685Y-9.2338
X7.0685Y-9.3338
X7.0685Y-9.4338
X7.0685Y-9.5338
X7.0685Y-9.6338
X7.0685Y-9.7338
X7.0685Y-9.8338
X7.0685Y-9.9338
X7.0685Y-10.0338
X7.1685Y-7.7338
X7.1685Y-7.8338
X7.1685Y-7.9338
X7.1685Y-8.0338
X7.1685Y-8.1338
X7.1685Y-8.2338
X7.1685Y-8.3338
X7.1685Y-8.4338
X7.1685Y-8.5338
X7.1685Y-8.6338
X7.1685Y-8.7338
X7.1685Y-8.8338
X7.1685Y-8.9338
X7.1685Y-9.0338
X7.1685Y-9.1338
X7.1685Y-9.2338
X7.1685Y-9.3338
X7.1685Y-9.4338
X7.1685Y-9.5338
X7.1685Y-9.6338
X7.1685Y-9.7338
X7.1685Y-9.8338
X7.1685Y-9.9338
X7.1685Y-10.0338
X7.2685Y-7.7338
X7.2685Y-7.8338
X7.2685Y-7.9338
X7.2685Y-8.0338
X7.2685Y-8.1338
X7.2685Y-8.2338
X7.2685Y-8.3338
X7.2685Y-8.4338
X7.2685Y-8.5338
X7.2685Y-8.6338
X7.2685Y-8.7338
X7.2685Y-8.8338
X7.2685Y-8.9338
X7.2685Y-9.0338
X7.2685Y-9.1338
X7.2685Y-9.2338
X7.2685Y-9.3338
X7.2685Y-9.4338
X7.2685Y-9.5338
X7.2685Y-9.6338
X7.2685Y-9.7338
X7.2685Y-9.8338
X7.2685Y-9.9338
X7.2685Y-10.0338
X7.3685Y-7.7338
X7.3685Y-7.8338
X7.3685Y-7.9338
X7.3685Y-8.0338
X7.3685Y-8.1338
X7.3685Y-8.2338
X7.3685Y-8.3338
X7.3685Y-8.4338
X7.3685Y-8.5338
X7.3685Y-8.6338
X7.3685Y-8.7338
X7.3685Y-8.8338
X7.3685Y-8.9338
X7.3685Y-9.0338
X7.3685Y-9.1338
X7.3685Y-9.2338
X7.3685Y-9.3338
X7.3685Y-9.4338
X7.3685Y-9.5338
X7.3685Y-9.6338
X7.3685Y-9.7338
X7.3685Y-9.8338
X7.3685Y-9.9338
X7.3685Y-10.0338
X7.4685Y-7.7338
X7.4685Y-7.8338
X7.4685Y-7.9338
X7.4685Y-8.0338
X7.4685Y-8.1338
X7.4685Y-8.2338
X7.4685Y-8.3338
X7.4685Y-8.4338
X7.4685Y-8.5338
X7.4685Y-8.6338
X7.4685Y-8.7338
X7.4685Y-8.8338
X7.4685Y-8.9338
X7.4685Y-9.0338
X7.4685Y-9.1338
X7.4685Y-9.2338
X7.4685Y-9.3338
X7.4685Y-9.4338
X7.4685Y-9.5338
X7.4685Y-9.6338
X7.4685Y-9.7338
X7.4685Y-9.8338
X7.4685Y-9.9338
X7.4685Y-10.0338
X7.5685Y-7.7338
X7.5685Y-7.8338
X7.5685Y-7.9338
X7.5685Y-8.0338
X7.5685Y-8.1338
X7.5685Y-8.2338
X7.5685Y-8.3338
X7.5685Y-8.4338
X7.5685Y-8.5338
X7.5685Y-8.6338
X7.5685Y-8.7338
X7.5685Y-8.8338
X7.5685Y-8.9338
X7.5685Y-9.0338
X7.5685Y-9.1338
X7.5685Y-9.2338
X7.5685Y-9.3338
X7.5685Y-9.4338
X7.5685Y-9.5338
X7.5685Y-9.6338
X7.5685Y-9.7338
X7.5685Y-9.8338
X7.5685Y-9.9338
X7.5685Y-10.0338
X7.7685Y-7.7338
X7.7685Y-7.8338
X7.7685Y-7.9338
X7.7685Y-8.0338
X7.7685Y-8.1338
X7.7685Y-8.2338
X7.7685Y-8.3338
X7.7685Y-8.4338
X7.7685Y-8.5338
X7.7685Y-8.6338
X7.7685Y-8.7338
X7.7685Y-8.8338
X7.7685Y-8.9338
X7.7685Y-9.0338
X7.7685Y-9.1338
X7.7685Y-9.2338
X7.7685Y-9.3338
X7.7685Y-9.4338
X7.7685Y-9.5338
X7.7685Y-9.6338
X7.7685Y-9.7338
X7.7685Y-9.8338
X7.7685Y-9.9338
X7.7685Y-10.0338
X7.8685Y-7.7338
X7.8685Y-7.8338
X7.8685Y-7.9338
X7.8685Y-8.0338
X7.8685Y-8.1338
X7.8685Y-8.2338
X7.8685Y-8.3338
X7.8685Y-8.4338
X7.8685Y-8.5338
X7.8685Y-8.6338
X7.8685Y-8.7338
X7.8685Y-8.8338
X7.8685Y-8.9338
X7.8685Y-9.0338
X7.8685Y-9.1338
X7.8685Y-9.2338
X7.8685Y-9.3338
X7.8685Y-9.4338
X7.8685Y-9.5338
X7.8685Y-9.6338
X7.8685Y-9.7338
X7.8685Y-9.8338
X7.8685Y-9.9338
X7.8685Y-10.0338
X8.0692Y-7.8903
X8.0692Y-9.8982
T2
X5.5346Y-6.7435
X5.5346Y-6.7435
X5.5346Y-6.9435
X5.5346Y-6.9435
X5.5378Y-4.2295
X5.5378Y-4.2295
X5.5378Y-4.4295
X5.5378Y-4.4295
X5.7346Y-6.9435
X5.7346Y-6.9435
X5.7378Y-4.2295
X5.7378Y-4.2295
X8.0524Y-6.9437
X8.0524Y-6.9437
X8.0526Y-4.2297
X8.0526Y-4.2297
X8.2524Y-6.7437
X8.2524Y-6.7437
X8.2524Y-6.9437
X8.2524Y-6.9437
X8.2526Y-4.2297
X8.2526Y-4.2297
X8.2526Y-4.4297
X8.2526Y-4.4297
X9.0236Y-3.3969
X9.0236Y-3.5969
X9.0264Y-0.8829
X9.0264Y-1.0829
X9.2236Y-3.5969
X9.2264Y-0.8829
X11.5451Y-0.8827
X11.5453Y-3.5967
X11.7451Y-0.8827
X11.7451Y-1.0827
X11.7453Y-3.3967
X11.7453Y-3.5967
T3
X2.1592Y-4.2803
X2.1592Y-6.7949
X4.6077Y-4.2803
X4.6077Y-6.7949
X5.6555Y-1.0181
X5.6555Y-3.4622
X8.172Y-3.4661
X8.1724Y-1.0173
X12.3802Y-4.2657
X12.3802Y-6.7803
X14.8287Y-4.2657
X14.8287Y-6.7803
T4
X5.8165Y-1.9622
X5.8165Y-2.6708
X6.5251Y-1.9622
X6.5251Y-2.6708
X7.3125Y-1.9622
X7.3125Y-2.6708
X8.0212Y-1.9622
X8.0212Y-2.6708
T5
X7.6693Y-3.2627
X9.2453Y-6.4098
X9.2457Y-4.5069
X9.6071Y-4.8213
X11.3Y-4.8213
X11.5047Y-6.4098
X11.5051Y-4.5069
T6
X6.1708Y-2.3165
X7.6668Y-2.3165
T7
X5.5961Y-9.1673
X6.6007Y-7.599
X7.1341Y-10.2356
X8.2731Y-8.6962
T8
X5.537Y-9.0768
X5.537Y-9.122
X5.537Y-9.1673
X5.5961Y-9.0768
X5.5961Y-9.122
X6.6007Y-7.5399
X6.6459Y-7.5399
X6.6459Y-7.599
X6.6912Y-7.5399
X6.6912Y-7.599
X7.1341Y-10.1765
X7.1794Y-10.1765
X7.1794Y-10.2356
X7.2247Y-10.1765
X7.2247Y-10.2356
X8.214Y-8.6057
X8.214Y-8.6509
X8.214Y-8.6962
X8.2731Y-8.6057
X8.2731Y-8.6509
T9
X9.1681Y-2.7362
X11.5956Y-2.7362
T10
X6.0369Y-3.2627
T11
X9.6214Y-2.7362
X10.3838Y-2.7362
X11.1712Y-2.7362
T0
M30
