%TF.GenerationSoftware,KiCad,Pcbnew,7.0.5-0*%
%TF.CreationDate,2024-04-21T20:32:49-04:00*%
%TF.ProjectId,swr_meter,7377725f-6d65-4746-9572-2e6b69636164,rev?*%
%TF.SameCoordinates,Original*%
%TF.FileFunction,Profile,NP*%
%FSLAX46Y46*%
G04 Gerber Fmt 4.6, Leading zero omitted, Abs format (unit mm)*
G04 Created by KiCad (PCBNEW 7.0.5-0) date 2024-04-21 20:32:49*
%MOMM*%
%LPD*%
G01*
G04 APERTURE LIST*
%TA.AperFunction,Profile*%
%ADD10C,0.349999*%
%TD*%
%TA.AperFunction,Profile*%
%ADD11C,0.350000*%
%TD*%
G04 APERTURE END LIST*
D10*
X252684119Y-20400000D02*
X274884119Y-20400000D01*
D11*
X180856540Y-259734000D02*
G75*
G03*
X180856540Y-258734000I-40J500000D01*
G01*
D10*
X253890000Y-189233999D02*
X227890540Y-189233999D01*
D11*
X208886540Y-218234000D02*
G75*
G03*
X209886540Y-218234000I500000J-40D01*
G01*
D10*
X225684119Y-68000000D02*
X227284119Y-68000000D01*
X309054004Y-150780004D02*
X307453998Y-150780004D01*
X49440007Y-178750000D02*
X74840001Y-178750000D01*
X253890540Y-262234000D02*
X227890540Y-262234000D01*
X49440007Y-102549999D02*
X74840001Y-102549999D01*
X211890540Y-262234000D02*
X185890540Y-262234000D01*
X309054004Y-178380003D02*
X309054004Y-150780004D01*
X74840003Y-137069997D02*
X97040003Y-137069997D01*
X164890000Y-187634000D02*
X164890000Y-189233999D01*
X301884116Y-68000000D02*
X301884116Y-95000000D01*
X74840003Y-138849997D02*
X74840003Y-137069997D01*
D11*
X208886540Y-258734000D02*
X208886540Y-221234000D01*
D10*
X213490000Y-215240000D02*
X213490000Y-236234000D01*
X213700000Y-46450000D02*
X212100002Y-46450000D01*
X274890540Y-189234000D02*
X300890540Y-189234000D01*
X137000000Y-130800000D02*
X138600000Y-130800000D01*
X227890540Y-262234000D02*
X227890540Y-236234000D01*
X211890540Y-236234000D02*
X211890540Y-262234000D01*
X274890000Y-187634000D02*
X274890000Y-189234000D01*
X185890540Y-189234000D02*
X211890540Y-189234000D01*
X185890540Y-263834000D02*
X164890540Y-263834000D01*
X186100002Y-95049999D02*
X186100002Y-93450000D01*
X137290540Y-215233999D02*
X138890540Y-215233999D01*
X383691999Y-150780004D02*
X382053997Y-150780004D01*
D11*
X298886540Y-221234000D02*
X298886540Y-259734000D01*
D10*
X356653997Y-178380003D02*
X356653997Y-176780004D01*
X213200013Y-179999954D02*
X213200013Y-153000000D01*
X225684118Y-45800002D02*
X225684118Y-18800003D01*
X274884118Y-95000000D02*
X274884118Y-93400000D01*
X309054004Y-129780004D02*
X309054004Y-102180002D01*
X309054004Y-129780004D02*
X307453998Y-129780004D01*
X275384118Y-53300000D02*
X275384118Y-55100000D01*
X164890540Y-262233998D02*
X164890540Y-263833996D01*
X74840001Y-104150001D02*
X74840001Y-102549999D01*
X47840001Y-130150001D02*
X47840001Y-151150001D01*
X167256540Y-191734000D02*
X140890540Y-191734000D01*
X124078002Y-151150001D02*
X124078002Y-130150001D01*
D11*
X141890540Y-192734000D02*
X141890540Y-230200000D01*
D10*
X74840001Y-178750000D02*
X74840001Y-177150001D01*
X186700002Y-138300000D02*
X186700002Y-140100000D01*
X209890540Y-218234000D02*
X209890540Y-191734000D01*
X253184118Y-55100000D02*
X253184118Y-53300000D01*
D11*
X141890540Y-258734000D02*
X141890540Y-233200000D01*
D10*
X186200002Y-105400001D02*
X164000002Y-105400001D01*
X211890540Y-236234000D02*
X213490000Y-236234000D01*
X186100002Y-18850002D02*
X165100002Y-18850002D01*
X334453998Y-176780004D02*
X356653997Y-176780004D01*
X137500003Y-67450000D02*
X139100002Y-67450000D01*
X165100002Y-95049999D02*
X186100002Y-95049999D01*
X186200002Y-103799999D02*
X186200002Y-105400001D01*
D11*
X209886540Y-221234000D02*
X209886540Y-259734000D01*
D10*
X49440007Y-130150001D02*
X47840001Y-130150001D01*
X274884119Y-18800000D02*
X301884116Y-18800000D01*
X139100002Y-20450000D02*
X139100002Y-46450000D01*
X300890540Y-236234000D02*
X302490000Y-236234000D01*
D11*
X211600000Y-130800000D02*
X211600000Y-153000000D01*
X141890540Y-233200000D02*
G75*
G03*
X140890540Y-233200000I-500000J-40D01*
G01*
D10*
X307453998Y-129780004D02*
X307453998Y-150780004D01*
X259356540Y-191734000D02*
X229890540Y-191734000D01*
X164000002Y-105400001D02*
X164000002Y-103799999D01*
X186200002Y-178400001D02*
X186200002Y-180000000D01*
X227890540Y-236234000D02*
X226290540Y-236234000D01*
D11*
X167256540Y-192734000D02*
G75*
G03*
X167256540Y-191734000I-40J500000D01*
G01*
X183856540Y-258734000D02*
G75*
G03*
X183856540Y-259734000I-40J-500000D01*
G01*
D10*
X137290540Y-236234001D02*
X137290540Y-215233999D01*
X382053997Y-178380003D02*
X382053997Y-150780004D01*
D11*
X211600004Y-130800000D02*
X213200013Y-130800000D01*
D10*
X274224458Y-104416373D02*
X300224458Y-104416373D01*
X300224458Y-130416372D01*
X301824457Y-130416372D01*
X301824457Y-151416373D01*
X300224458Y-151416373D01*
X300224458Y-177416373D01*
X293724458Y-177416373D01*
X287500000Y-177416373D01*
X287500000Y-173250000D01*
X286500000Y-172250000D01*
X283000000Y-172250000D01*
X281950000Y-173250000D01*
X281950000Y-177416373D01*
X274224458Y-177416373D01*
X274224458Y-179016371D01*
X253224458Y-179016371D01*
X253224458Y-177416373D01*
X245000000Y-177416373D01*
X245000000Y-173000000D01*
X243750000Y-172100000D01*
X240750000Y-172100000D01*
X239400000Y-173000000D01*
X239400000Y-177416373D01*
X227224458Y-177416373D01*
X227224458Y-151416373D01*
X225624460Y-151416373D01*
X225624460Y-130416372D01*
X227224458Y-130416372D01*
X227224458Y-104416373D01*
X253224458Y-104416373D01*
X253224458Y-102816373D01*
X274224458Y-102816373D01*
X274224458Y-104416373D01*
X138890540Y-236234001D02*
X137290540Y-236234001D01*
X383691999Y-129780004D02*
X382053997Y-129780004D01*
X97040000Y-104150001D02*
X97040000Y-102549999D01*
X124078002Y-130150001D02*
X122440000Y-130150001D01*
X186200002Y-180000000D02*
X213200004Y-180000000D01*
X164000002Y-180000000D02*
X164000002Y-178400001D01*
X186100002Y-93450000D02*
X212100002Y-93450000D01*
D11*
X208886540Y-218234000D02*
X208886540Y-192734000D01*
D10*
X213200013Y-130800000D02*
X213200013Y-103799953D01*
D11*
X170356540Y-191734000D02*
G75*
G03*
X170356540Y-192734000I-40J-500000D01*
G01*
D10*
X356653997Y-178380003D02*
X382053997Y-178380003D01*
X298886540Y-221234000D02*
X298890540Y-191734000D01*
X164000002Y-178400001D02*
X186200002Y-178400001D01*
X138890540Y-215233999D02*
X138890540Y-189233999D01*
X356653997Y-103780004D02*
X356653997Y-102180002D01*
X140890540Y-230200000D02*
X140890540Y-191734000D01*
X165100002Y-20450000D02*
X139100002Y-20450000D01*
D11*
X167256540Y-192734000D02*
X141890540Y-192734000D01*
D10*
X97040000Y-102549999D02*
X122440000Y-102549999D01*
D11*
X141890540Y-258734000D02*
X180856540Y-258734000D01*
D10*
X122440000Y-130150001D02*
X122440000Y-102549999D01*
X275384118Y-55100000D02*
X253184118Y-55100000D01*
X227890540Y-215234000D02*
X227890540Y-189234000D01*
X213200004Y-153000000D02*
X211600004Y-153000000D01*
X137000000Y-153000000D02*
X137000000Y-180000000D01*
X185890000Y-187634000D02*
X185890000Y-189234000D01*
X212100002Y-93450000D02*
X212100002Y-67450000D01*
X165100002Y-18850002D02*
X165100002Y-20450000D01*
X334454000Y-136700000D02*
X356654000Y-136700000D01*
X74840001Y-177150001D02*
X97040000Y-177150001D01*
X227284118Y-45800002D02*
X225684118Y-45800002D01*
X138890540Y-262233998D02*
X138890540Y-236234001D01*
X382053997Y-129780004D02*
X382053997Y-102180002D01*
X227284119Y-68000000D02*
X227284119Y-45800000D01*
X124078002Y-151150001D02*
X122440000Y-151150001D01*
X213209200Y-103799953D02*
X186209000Y-103799953D01*
X122440000Y-178750000D02*
X122440000Y-151150001D01*
X164517400Y-140100000D02*
X164517400Y-138300000D01*
X211890000Y-189233999D02*
X211890000Y-215233999D01*
X302490000Y-215240000D02*
X302490000Y-236234000D01*
X164890540Y-262233998D02*
X138890540Y-262233998D01*
X383691999Y-150780004D02*
X383691999Y-129780000D01*
X226290540Y-236234000D02*
X226290540Y-215234000D01*
X229890540Y-230200000D02*
X229890540Y-259734000D01*
X253890000Y-187634000D02*
X253890000Y-189233999D01*
X138600000Y-130800000D02*
X138600000Y-153000000D01*
X140890540Y-233200000D02*
X140890540Y-259734000D01*
X225684118Y-18800003D02*
X252684119Y-18800003D01*
X274884119Y-20400000D02*
X274884119Y-18800000D01*
X213700000Y-67450000D02*
X213700000Y-46450000D01*
X300890540Y-262234000D02*
X274890540Y-262234000D01*
X165100002Y-93450000D02*
X165100002Y-95049999D01*
X356653997Y-102180002D02*
X382053997Y-102180002D01*
X300890000Y-215234000D02*
X302490000Y-215234000D01*
X309054004Y-178380003D02*
X334453998Y-178380003D01*
X137000000Y-180000000D02*
X164000002Y-180000000D01*
X137000000Y-103799953D02*
X137000000Y-130800000D01*
X272856540Y-259734000D02*
X229890540Y-259734000D01*
X165100002Y-93450000D02*
X139100002Y-93450000D01*
X137500003Y-46450000D02*
X137500003Y-67450000D01*
X97040003Y-137069997D02*
X97040003Y-138849997D01*
X186100002Y-18850002D02*
X186100002Y-20450000D01*
D11*
X164890000Y-187634000D02*
X185890000Y-187634000D01*
D10*
X97040000Y-178750000D02*
X122440000Y-178750000D01*
X164890000Y-189233999D02*
X138890540Y-189233999D01*
X183856540Y-259734000D02*
X209886540Y-259734000D01*
X225684118Y-95000000D02*
X225684118Y-68000000D01*
X274884118Y-93400000D02*
X252684118Y-93400000D01*
X356654000Y-138480000D02*
X334454000Y-138480000D01*
X97040003Y-138849997D02*
X74840003Y-138849997D01*
X334453998Y-103780004D02*
X334453998Y-102180002D01*
X252684118Y-95000008D02*
X225684118Y-95000008D01*
X185890540Y-262234000D02*
X185890540Y-263834000D01*
D11*
X164517400Y-138300000D02*
X186700002Y-138300000D01*
D10*
X164000002Y-103799972D02*
X137000000Y-103799953D01*
D11*
X208886540Y-192734000D02*
X170356540Y-192734000D01*
D10*
X97040000Y-178750000D02*
X97040000Y-177150001D01*
D11*
X140890540Y-230200000D02*
G75*
G03*
X141890540Y-230200000I500000J-40D01*
G01*
D10*
X212100002Y-46450000D02*
X212100002Y-20450000D01*
X252684118Y-93400000D02*
X252684118Y-95000000D01*
X272856540Y-259734000D02*
X298886540Y-259734000D01*
X170356540Y-191734000D02*
X209890540Y-191734000D01*
D11*
X208886540Y-258734000D02*
X183856540Y-258734000D01*
D10*
X139100002Y-67450000D02*
X139100002Y-93450000D01*
X300890540Y-236234000D02*
X300890540Y-262234000D01*
X49440007Y-151150001D02*
X47840001Y-151150001D01*
X300284118Y-45800002D02*
X300284118Y-68000000D01*
X309054004Y-102180002D02*
X334453998Y-102180002D01*
X139100002Y-46450000D02*
X137500003Y-46450000D01*
X49440007Y-130150001D02*
X49440007Y-102549999D01*
X74840001Y-104150001D02*
X97040000Y-104150001D01*
X301884116Y-45800002D02*
X300284118Y-45800002D01*
X334453998Y-103780004D02*
X356653997Y-103780004D01*
X356654000Y-136700000D02*
X356654000Y-138480000D01*
X334453998Y-178380003D02*
X334453998Y-176780004D01*
X138600000Y-153000000D02*
X137000000Y-153000000D01*
X49440007Y-178750000D02*
X49440007Y-151150001D01*
X180856540Y-259734000D02*
X140890540Y-259734000D01*
X300890540Y-189234000D02*
X300890000Y-215234000D01*
X211890000Y-215234000D02*
X213490000Y-215234000D01*
X301884116Y-95000000D02*
X274884118Y-95000000D01*
X334454000Y-138480000D02*
X334454000Y-136700000D01*
X226290540Y-215234000D02*
X227890540Y-215234000D01*
X186700002Y-140100000D02*
X164517400Y-140100000D01*
X253890540Y-262234000D02*
X253890540Y-263834000D01*
X212100002Y-67450000D02*
X213700000Y-67450000D01*
X229890540Y-230200000D02*
X229890540Y-191734000D01*
X300284118Y-68000000D02*
X301884116Y-68000000D01*
D11*
X209886540Y-221234000D02*
G75*
G03*
X208886540Y-221234000I-500000J-40D01*
G01*
D10*
X274890540Y-263834000D02*
X253890540Y-263834000D01*
X253184118Y-53300000D02*
X275384118Y-53300000D01*
X252684119Y-18800000D02*
X252684119Y-20400000D01*
D11*
X253890000Y-187634000D02*
X274890000Y-187634000D01*
D10*
X212100002Y-20450000D02*
X186100002Y-20450000D01*
X259356540Y-191734000D02*
X298890540Y-191734000D01*
X301884116Y-18800003D02*
X301884116Y-45800002D01*
X274890540Y-262234000D02*
X274890540Y-263834000D01*
M02*
