%TF.GenerationSoftware,KiCad,Pcbnew,7.0.5-0*%
%TF.CreationDate,2024-04-21T20:25:22-04:00*%
%TF.ProjectId,swr_meter_front,7377725f-6d65-4746-9572-5f66726f6e74,rev?*%
%TF.SameCoordinates,Original*%
%TF.FileFunction,Drillmap*%
%TF.FilePolarity,Positive*%
%FSLAX45Y45*%
G04 Gerber Fmt 4.5, Leading zero omitted, Abs format (unit mm)*
G04 Created by KiCad (PCBNEW 7.0.5-0) date 2024-04-21 20:25:22*
%MOMM*%
%LPD*%
G01*
G04 APERTURE LIST*
%ADD10C,0.350000*%
%ADD11C,0.349999*%
%ADD12C,0.200000*%
%ADD13C,0.100000*%
%ADD14C,0.050000*%
%ADD15C,0.060000*%
G04 APERTURE END LIST*
D10*
X12825654Y-3040240D02*
G75*
G03*
X12825654Y-2940240I-4J50000D01*
G01*
X17088654Y-5890240D02*
G75*
G03*
X16988654Y-5890240I-50000J-4D01*
G01*
D11*
X12589054Y-9990240D02*
X9989054Y-9990240D01*
D10*
X12825654Y-3040240D02*
X10289054Y-3040240D01*
D11*
X14689054Y-2690240D02*
X17289054Y-2690240D01*
X13135654Y-2940240D02*
X17089054Y-2940240D01*
X9829054Y-5290240D02*
X9989054Y-5290240D01*
X14689054Y-9990240D02*
X14689054Y-10150240D01*
D10*
X14485654Y-9640240D02*
G75*
G03*
X14485654Y-9740240I-4J-50000D01*
G01*
X10289054Y-9640240D02*
X14185654Y-9640240D01*
X12589000Y-2530240D02*
X14689000Y-2530240D01*
D11*
X14689054Y-10150240D02*
X12589054Y-10150240D01*
D10*
X10289054Y-3040240D02*
X10289054Y-6786840D01*
D11*
X12589000Y-2530240D02*
X12589000Y-2690240D01*
X17289000Y-2690240D02*
X17289000Y-5290240D01*
X14485654Y-9740240D02*
X17088654Y-9740240D01*
X9989054Y-9990240D02*
X9989054Y-7390240D01*
X9989054Y-5290240D02*
X9989054Y-2690240D01*
X14689000Y-2530240D02*
X14689000Y-2690240D01*
X12825654Y-2940240D02*
X10189054Y-2940240D01*
D10*
X10289054Y-7086840D02*
G75*
G03*
X10189054Y-7086840I-50000J-4D01*
G01*
D11*
X10189054Y-6786840D02*
X10189054Y-2940240D01*
X12589000Y-2690240D02*
X9989054Y-2690240D01*
D10*
X14185654Y-9740240D02*
G75*
G03*
X14185654Y-9640240I-4J50000D01*
G01*
D11*
X9989054Y-7390240D02*
X9829054Y-7390240D01*
D10*
X16988654Y-5590240D02*
X16988654Y-3040240D01*
X16988654Y-9640240D02*
X16988654Y-5890240D01*
X16988654Y-9640240D02*
X14485654Y-9640240D01*
X10289054Y-9640240D02*
X10289054Y-7086840D01*
D11*
X9829054Y-7390240D02*
X9829054Y-5290240D01*
D10*
X10189054Y-6786840D02*
G75*
G03*
X10289054Y-6786840I50000J-4D01*
G01*
D11*
X17289054Y-7390240D02*
X17449000Y-7390240D01*
D10*
X16988654Y-5590240D02*
G75*
G03*
X17088654Y-5590240I50000J-4D01*
G01*
D11*
X17449000Y-5290840D02*
X17449000Y-7390240D01*
X12589054Y-9990240D02*
X12589054Y-10150240D01*
D10*
X16988654Y-3040240D02*
X13135654Y-3040240D01*
D11*
X10189054Y-7086840D02*
X10189054Y-9740240D01*
X14185654Y-9740240D02*
X10189054Y-9740240D01*
X17289054Y-7390240D02*
X17289054Y-9990240D01*
X17289054Y-9990240D02*
X14689054Y-9990240D01*
D10*
X17088654Y-5890240D02*
X17088654Y-9740240D01*
D11*
X17289000Y-5290240D02*
X17449000Y-5290240D01*
X17089054Y-5590240D02*
X17089054Y-2940240D01*
D10*
X13135654Y-2940240D02*
G75*
G03*
X13135654Y-3040240I-4J-50000D01*
G01*
D12*
D13*
X10645654Y-3758240D02*
X10745654Y-3858240D01*
X10745654Y-3758240D02*
X10645654Y-3858240D01*
X10645654Y-8858240D02*
X10745654Y-8958240D01*
X10745654Y-8858240D02*
X10645654Y-8958240D01*
X11210054Y-3360640D02*
X11310054Y-3460640D01*
X11310054Y-3360640D02*
X11210054Y-3460640D01*
X11210054Y-3614640D02*
X11310054Y-3714640D01*
X11310054Y-3614640D02*
X11210054Y-3714640D01*
X11210054Y-3868640D02*
X11310054Y-3968640D01*
X11310054Y-3868640D02*
X11210054Y-3968640D01*
X11210054Y-4122640D02*
X11310054Y-4222640D01*
X11310054Y-4122640D02*
X11210054Y-4222640D01*
X11210054Y-4376640D02*
X11310054Y-4476640D01*
X11310054Y-4376640D02*
X11210054Y-4476640D01*
X11210054Y-4630640D02*
X11310054Y-4730640D01*
X11310054Y-4630640D02*
X11210054Y-4730640D01*
X11210054Y-4884640D02*
X11310054Y-4984640D01*
X11310054Y-4884640D02*
X11210054Y-4984640D01*
X11210054Y-5138640D02*
X11310054Y-5238640D01*
X11310054Y-5138640D02*
X11210054Y-5238640D01*
X11210054Y-5392640D02*
X11310054Y-5492640D01*
X11310054Y-5392640D02*
X11210054Y-5492640D01*
X11210054Y-5646640D02*
X11310054Y-5746640D01*
X11310054Y-5646640D02*
X11210054Y-5746640D01*
X11210054Y-5900640D02*
X11310054Y-6000640D01*
X11310054Y-5900640D02*
X11210054Y-6000640D01*
X11210054Y-6154640D02*
X11310054Y-6254640D01*
X11310054Y-6154640D02*
X11210054Y-6254640D01*
X11210054Y-6408640D02*
X11310054Y-6508640D01*
X11310054Y-6408640D02*
X11210054Y-6508640D01*
X11210054Y-6662640D02*
X11310054Y-6762640D01*
X11310054Y-6662640D02*
X11210054Y-6762640D01*
X11210054Y-6916640D02*
X11310054Y-7016640D01*
X11310054Y-6916640D02*
X11210054Y-7016640D01*
X11210054Y-7170640D02*
X11310054Y-7270640D01*
X11310054Y-7170640D02*
X11210054Y-7270640D01*
X11210054Y-7424640D02*
X11310054Y-7524640D01*
X11310054Y-7424640D02*
X11210054Y-7524640D01*
X11210054Y-7678640D02*
X11310054Y-7778640D01*
X11310054Y-7678640D02*
X11210054Y-7778640D01*
X11210054Y-7932640D02*
X11310054Y-8032640D01*
X11310054Y-7932640D02*
X11210054Y-8032640D01*
X11210054Y-8186640D02*
X11310054Y-8286640D01*
X11310054Y-8186640D02*
X11210054Y-8286640D01*
X11210054Y-8440640D02*
X11310054Y-8540640D01*
X11310054Y-8440640D02*
X11210054Y-8540640D01*
X11210054Y-8694640D02*
X11310054Y-8794640D01*
X11310054Y-8694640D02*
X11210054Y-8794640D01*
X11210054Y-8948640D02*
X11310054Y-9048640D01*
X11310054Y-8948640D02*
X11210054Y-9048640D01*
X11210054Y-9202640D02*
X11310054Y-9302640D01*
X11310054Y-9202640D02*
X11210054Y-9302640D01*
X11464054Y-3360640D02*
X11564054Y-3460640D01*
X11564054Y-3360640D02*
X11464054Y-3460640D01*
X11464054Y-3614640D02*
X11564054Y-3714640D01*
X11564054Y-3614640D02*
X11464054Y-3714640D01*
X11464054Y-3868640D02*
X11564054Y-3968640D01*
X11564054Y-3868640D02*
X11464054Y-3968640D01*
X11464054Y-4122640D02*
X11564054Y-4222640D01*
X11564054Y-4122640D02*
X11464054Y-4222640D01*
X11464054Y-4376640D02*
X11564054Y-4476640D01*
X11564054Y-4376640D02*
X11464054Y-4476640D01*
X11464054Y-4630640D02*
X11564054Y-4730640D01*
X11564054Y-4630640D02*
X11464054Y-4730640D01*
X11464054Y-4884640D02*
X11564054Y-4984640D01*
X11564054Y-4884640D02*
X11464054Y-4984640D01*
X11464054Y-5138640D02*
X11564054Y-5238640D01*
X11564054Y-5138640D02*
X11464054Y-5238640D01*
X11464054Y-5392640D02*
X11564054Y-5492640D01*
X11564054Y-5392640D02*
X11464054Y-5492640D01*
X11464054Y-5646640D02*
X11564054Y-5746640D01*
X11564054Y-5646640D02*
X11464054Y-5746640D01*
X11464054Y-5900640D02*
X11564054Y-6000640D01*
X11564054Y-5900640D02*
X11464054Y-6000640D01*
X11464054Y-6154640D02*
X11564054Y-6254640D01*
X11564054Y-6154640D02*
X11464054Y-6254640D01*
X11464054Y-6408640D02*
X11564054Y-6508640D01*
X11564054Y-6408640D02*
X11464054Y-6508640D01*
X11464054Y-6662640D02*
X11564054Y-6762640D01*
X11564054Y-6662640D02*
X11464054Y-6762640D01*
X11464054Y-6916640D02*
X11564054Y-7016640D01*
X11564054Y-6916640D02*
X11464054Y-7016640D01*
X11464054Y-7170640D02*
X11564054Y-7270640D01*
X11564054Y-7170640D02*
X11464054Y-7270640D01*
X11464054Y-7424640D02*
X11564054Y-7524640D01*
X11564054Y-7424640D02*
X11464054Y-7524640D01*
X11464054Y-7678640D02*
X11564054Y-7778640D01*
X11564054Y-7678640D02*
X11464054Y-7778640D01*
X11464054Y-7932640D02*
X11564054Y-8032640D01*
X11564054Y-7932640D02*
X11464054Y-8032640D01*
X11464054Y-8186640D02*
X11564054Y-8286640D01*
X11564054Y-8186640D02*
X11464054Y-8286640D01*
X11464054Y-8440640D02*
X11564054Y-8540640D01*
X11564054Y-8440640D02*
X11464054Y-8540640D01*
X11464054Y-8694640D02*
X11564054Y-8794640D01*
X11564054Y-8694640D02*
X11464054Y-8794640D01*
X11464054Y-8948640D02*
X11564054Y-9048640D01*
X11564054Y-8948640D02*
X11464054Y-9048640D01*
X11464054Y-9202640D02*
X11564054Y-9302640D01*
X11564054Y-9202640D02*
X11464054Y-9302640D01*
X11972054Y-3360640D02*
X12072054Y-3460640D01*
X12072054Y-3360640D02*
X11972054Y-3460640D01*
X11972054Y-3614640D02*
X12072054Y-3714640D01*
X12072054Y-3614640D02*
X11972054Y-3714640D01*
X11972054Y-3868640D02*
X12072054Y-3968640D01*
X12072054Y-3868640D02*
X11972054Y-3968640D01*
X11972054Y-4122640D02*
X12072054Y-4222640D01*
X12072054Y-4122640D02*
X11972054Y-4222640D01*
X11972054Y-4376640D02*
X12072054Y-4476640D01*
X12072054Y-4376640D02*
X11972054Y-4476640D01*
X11972054Y-4630640D02*
X12072054Y-4730640D01*
X12072054Y-4630640D02*
X11972054Y-4730640D01*
X11972054Y-4884640D02*
X12072054Y-4984640D01*
X12072054Y-4884640D02*
X11972054Y-4984640D01*
X11972054Y-5138640D02*
X12072054Y-5238640D01*
X12072054Y-5138640D02*
X11972054Y-5238640D01*
X11972054Y-5392640D02*
X12072054Y-5492640D01*
X12072054Y-5392640D02*
X11972054Y-5492640D01*
X11972054Y-5646640D02*
X12072054Y-5746640D01*
X12072054Y-5646640D02*
X11972054Y-5746640D01*
X11972054Y-5900640D02*
X12072054Y-6000640D01*
X12072054Y-5900640D02*
X11972054Y-6000640D01*
X11972054Y-6154640D02*
X12072054Y-6254640D01*
X12072054Y-6154640D02*
X11972054Y-6254640D01*
X11972054Y-6408640D02*
X12072054Y-6508640D01*
X12072054Y-6408640D02*
X11972054Y-6508640D01*
X11972054Y-6662640D02*
X12072054Y-6762640D01*
X12072054Y-6662640D02*
X11972054Y-6762640D01*
X11972054Y-6916640D02*
X12072054Y-7016640D01*
X12072054Y-6916640D02*
X11972054Y-7016640D01*
X11972054Y-7170640D02*
X12072054Y-7270640D01*
X12072054Y-7170640D02*
X11972054Y-7270640D01*
X11972054Y-7424640D02*
X12072054Y-7524640D01*
X12072054Y-7424640D02*
X11972054Y-7524640D01*
X11972054Y-7678640D02*
X12072054Y-7778640D01*
X12072054Y-7678640D02*
X11972054Y-7778640D01*
X11972054Y-7932640D02*
X12072054Y-8032640D01*
X12072054Y-7932640D02*
X11972054Y-8032640D01*
X11972054Y-8186640D02*
X12072054Y-8286640D01*
X12072054Y-8186640D02*
X11972054Y-8286640D01*
X11972054Y-8440640D02*
X12072054Y-8540640D01*
X12072054Y-8440640D02*
X11972054Y-8540640D01*
X11972054Y-8694640D02*
X12072054Y-8794640D01*
X12072054Y-8694640D02*
X11972054Y-8794640D01*
X11972054Y-8948640D02*
X12072054Y-9048640D01*
X12072054Y-8948640D02*
X11972054Y-9048640D01*
X11972054Y-9202640D02*
X12072054Y-9302640D01*
X12072054Y-9202640D02*
X11972054Y-9302640D01*
X12226054Y-3360640D02*
X12326054Y-3460640D01*
X12326054Y-3360640D02*
X12226054Y-3460640D01*
X12226054Y-3614640D02*
X12326054Y-3714640D01*
X12326054Y-3614640D02*
X12226054Y-3714640D01*
X12226054Y-3868640D02*
X12326054Y-3968640D01*
X12326054Y-3868640D02*
X12226054Y-3968640D01*
X12226054Y-4122640D02*
X12326054Y-4222640D01*
X12326054Y-4122640D02*
X12226054Y-4222640D01*
X12226054Y-4376640D02*
X12326054Y-4476640D01*
X12326054Y-4376640D02*
X12226054Y-4476640D01*
X12226054Y-4630640D02*
X12326054Y-4730640D01*
X12326054Y-4630640D02*
X12226054Y-4730640D01*
X12226054Y-4884640D02*
X12326054Y-4984640D01*
X12326054Y-4884640D02*
X12226054Y-4984640D01*
X12226054Y-5138640D02*
X12326054Y-5238640D01*
X12326054Y-5138640D02*
X12226054Y-5238640D01*
X12226054Y-5392640D02*
X12326054Y-5492640D01*
X12326054Y-5392640D02*
X12226054Y-5492640D01*
X12226054Y-5646640D02*
X12326054Y-5746640D01*
X12326054Y-5646640D02*
X12226054Y-5746640D01*
X12226054Y-5900640D02*
X12326054Y-6000640D01*
X12326054Y-5900640D02*
X12226054Y-6000640D01*
X12226054Y-6154640D02*
X12326054Y-6254640D01*
X12326054Y-6154640D02*
X12226054Y-6254640D01*
X12226054Y-6408640D02*
X12326054Y-6508640D01*
X12326054Y-6408640D02*
X12226054Y-6508640D01*
X12226054Y-6662640D02*
X12326054Y-6762640D01*
X12326054Y-6662640D02*
X12226054Y-6762640D01*
X12226054Y-6916640D02*
X12326054Y-7016640D01*
X12326054Y-6916640D02*
X12226054Y-7016640D01*
X12226054Y-7170640D02*
X12326054Y-7270640D01*
X12326054Y-7170640D02*
X12226054Y-7270640D01*
X12226054Y-7424640D02*
X12326054Y-7524640D01*
X12326054Y-7424640D02*
X12226054Y-7524640D01*
X12226054Y-7678640D02*
X12326054Y-7778640D01*
X12326054Y-7678640D02*
X12226054Y-7778640D01*
X12226054Y-7932640D02*
X12326054Y-8032640D01*
X12326054Y-7932640D02*
X12226054Y-8032640D01*
X12226054Y-8186640D02*
X12326054Y-8286640D01*
X12326054Y-8186640D02*
X12226054Y-8286640D01*
X12226054Y-8440640D02*
X12326054Y-8540640D01*
X12326054Y-8440640D02*
X12226054Y-8540640D01*
X12226054Y-8694640D02*
X12326054Y-8794640D01*
X12326054Y-8694640D02*
X12226054Y-8794640D01*
X12226054Y-8948640D02*
X12326054Y-9048640D01*
X12326054Y-8948640D02*
X12226054Y-9048640D01*
X12226054Y-9202640D02*
X12326054Y-9302640D01*
X12326054Y-9202640D02*
X12226054Y-9302640D01*
X12480054Y-3360640D02*
X12580054Y-3460640D01*
X12580054Y-3360640D02*
X12480054Y-3460640D01*
X12480054Y-3614640D02*
X12580054Y-3714640D01*
X12580054Y-3614640D02*
X12480054Y-3714640D01*
X12480054Y-3868640D02*
X12580054Y-3968640D01*
X12580054Y-3868640D02*
X12480054Y-3968640D01*
X12480054Y-4122640D02*
X12580054Y-4222640D01*
X12580054Y-4122640D02*
X12480054Y-4222640D01*
X12480054Y-4376640D02*
X12580054Y-4476640D01*
X12580054Y-4376640D02*
X12480054Y-4476640D01*
X12480054Y-4630640D02*
X12580054Y-4730640D01*
X12580054Y-4630640D02*
X12480054Y-4730640D01*
X12480054Y-4884640D02*
X12580054Y-4984640D01*
X12580054Y-4884640D02*
X12480054Y-4984640D01*
X12480054Y-5138640D02*
X12580054Y-5238640D01*
X12580054Y-5138640D02*
X12480054Y-5238640D01*
X12480054Y-5392640D02*
X12580054Y-5492640D01*
X12580054Y-5392640D02*
X12480054Y-5492640D01*
X12480054Y-5646640D02*
X12580054Y-5746640D01*
X12580054Y-5646640D02*
X12480054Y-5746640D01*
X12480054Y-5900640D02*
X12580054Y-6000640D01*
X12580054Y-5900640D02*
X12480054Y-6000640D01*
X12480054Y-6154640D02*
X12580054Y-6254640D01*
X12580054Y-6154640D02*
X12480054Y-6254640D01*
X12480054Y-6408640D02*
X12580054Y-6508640D01*
X12580054Y-6408640D02*
X12480054Y-6508640D01*
X12480054Y-6662640D02*
X12580054Y-6762640D01*
X12580054Y-6662640D02*
X12480054Y-6762640D01*
X12480054Y-6916640D02*
X12580054Y-7016640D01*
X12580054Y-6916640D02*
X12480054Y-7016640D01*
X12480054Y-7170640D02*
X12580054Y-7270640D01*
X12580054Y-7170640D02*
X12480054Y-7270640D01*
X12480054Y-7424640D02*
X12580054Y-7524640D01*
X12580054Y-7424640D02*
X12480054Y-7524640D01*
X12480054Y-7678640D02*
X12580054Y-7778640D01*
X12580054Y-7678640D02*
X12480054Y-7778640D01*
X12480054Y-7932640D02*
X12580054Y-8032640D01*
X12580054Y-7932640D02*
X12480054Y-8032640D01*
X12480054Y-8186640D02*
X12580054Y-8286640D01*
X12580054Y-8186640D02*
X12480054Y-8286640D01*
X12480054Y-8440640D02*
X12580054Y-8540640D01*
X12580054Y-8440640D02*
X12480054Y-8540640D01*
X12480054Y-8694640D02*
X12580054Y-8794640D01*
X12580054Y-8694640D02*
X12480054Y-8794640D01*
X12480054Y-8948640D02*
X12580054Y-9048640D01*
X12580054Y-8948640D02*
X12480054Y-9048640D01*
X12480054Y-9202640D02*
X12580054Y-9302640D01*
X12580054Y-9202640D02*
X12480054Y-9302640D01*
X12734054Y-3360640D02*
X12834054Y-3460640D01*
X12834054Y-3360640D02*
X12734054Y-3460640D01*
X12734054Y-3614640D02*
X12834054Y-3714640D01*
X12834054Y-3614640D02*
X12734054Y-3714640D01*
X12734054Y-3868640D02*
X12834054Y-3968640D01*
X12834054Y-3868640D02*
X12734054Y-3968640D01*
X12734054Y-4122640D02*
X12834054Y-4222640D01*
X12834054Y-4122640D02*
X12734054Y-4222640D01*
X12734054Y-4376640D02*
X12834054Y-4476640D01*
X12834054Y-4376640D02*
X12734054Y-4476640D01*
X12734054Y-4630640D02*
X12834054Y-4730640D01*
X12834054Y-4630640D02*
X12734054Y-4730640D01*
X12734054Y-4884640D02*
X12834054Y-4984640D01*
X12834054Y-4884640D02*
X12734054Y-4984640D01*
X12734054Y-5138640D02*
X12834054Y-5238640D01*
X12834054Y-5138640D02*
X12734054Y-5238640D01*
X12734054Y-5392640D02*
X12834054Y-5492640D01*
X12834054Y-5392640D02*
X12734054Y-5492640D01*
X12734054Y-5646640D02*
X12834054Y-5746640D01*
X12834054Y-5646640D02*
X12734054Y-5746640D01*
X12734054Y-5900640D02*
X12834054Y-6000640D01*
X12834054Y-5900640D02*
X12734054Y-6000640D01*
X12734054Y-6154640D02*
X12834054Y-6254640D01*
X12834054Y-6154640D02*
X12734054Y-6254640D01*
X12734054Y-6408640D02*
X12834054Y-6508640D01*
X12834054Y-6408640D02*
X12734054Y-6508640D01*
X12734054Y-6662640D02*
X12834054Y-6762640D01*
X12834054Y-6662640D02*
X12734054Y-6762640D01*
X12734054Y-6916640D02*
X12834054Y-7016640D01*
X12834054Y-6916640D02*
X12734054Y-7016640D01*
X12734054Y-7170640D02*
X12834054Y-7270640D01*
X12834054Y-7170640D02*
X12734054Y-7270640D01*
X12734054Y-7424640D02*
X12834054Y-7524640D01*
X12834054Y-7424640D02*
X12734054Y-7524640D01*
X12734054Y-7678640D02*
X12834054Y-7778640D01*
X12834054Y-7678640D02*
X12734054Y-7778640D01*
X12734054Y-7932640D02*
X12834054Y-8032640D01*
X12834054Y-7932640D02*
X12734054Y-8032640D01*
X12734054Y-8186640D02*
X12834054Y-8286640D01*
X12834054Y-8186640D02*
X12734054Y-8286640D01*
X12734054Y-8440640D02*
X12834054Y-8540640D01*
X12834054Y-8440640D02*
X12734054Y-8540640D01*
X12734054Y-8694640D02*
X12834054Y-8794640D01*
X12834054Y-8694640D02*
X12734054Y-8794640D01*
X12734054Y-8948640D02*
X12834054Y-9048640D01*
X12834054Y-8948640D02*
X12734054Y-9048640D01*
X12734054Y-9202640D02*
X12834054Y-9302640D01*
X12834054Y-9202640D02*
X12734054Y-9302640D01*
X12988054Y-3360640D02*
X13088054Y-3460640D01*
X13088054Y-3360640D02*
X12988054Y-3460640D01*
X12988054Y-3614640D02*
X13088054Y-3714640D01*
X13088054Y-3614640D02*
X12988054Y-3714640D01*
X12988054Y-3868640D02*
X13088054Y-3968640D01*
X13088054Y-3868640D02*
X12988054Y-3968640D01*
X12988054Y-4122640D02*
X13088054Y-4222640D01*
X13088054Y-4122640D02*
X12988054Y-4222640D01*
X12988054Y-4376640D02*
X13088054Y-4476640D01*
X13088054Y-4376640D02*
X12988054Y-4476640D01*
X12988054Y-4630640D02*
X13088054Y-4730640D01*
X13088054Y-4630640D02*
X12988054Y-4730640D01*
X12988054Y-4884640D02*
X13088054Y-4984640D01*
X13088054Y-4884640D02*
X12988054Y-4984640D01*
X12988054Y-5138640D02*
X13088054Y-5238640D01*
X13088054Y-5138640D02*
X12988054Y-5238640D01*
X12988054Y-5392640D02*
X13088054Y-5492640D01*
X13088054Y-5392640D02*
X12988054Y-5492640D01*
X12988054Y-5646640D02*
X13088054Y-5746640D01*
X13088054Y-5646640D02*
X12988054Y-5746640D01*
X12988054Y-5900640D02*
X13088054Y-6000640D01*
X13088054Y-5900640D02*
X12988054Y-6000640D01*
X12988054Y-6154640D02*
X13088054Y-6254640D01*
X13088054Y-6154640D02*
X12988054Y-6254640D01*
X12988054Y-6408640D02*
X13088054Y-6508640D01*
X13088054Y-6408640D02*
X12988054Y-6508640D01*
X12988054Y-6662640D02*
X13088054Y-6762640D01*
X13088054Y-6662640D02*
X12988054Y-6762640D01*
X12988054Y-6916640D02*
X13088054Y-7016640D01*
X13088054Y-6916640D02*
X12988054Y-7016640D01*
X12988054Y-7170640D02*
X13088054Y-7270640D01*
X13088054Y-7170640D02*
X12988054Y-7270640D01*
X12988054Y-7424640D02*
X13088054Y-7524640D01*
X13088054Y-7424640D02*
X12988054Y-7524640D01*
X12988054Y-7678640D02*
X13088054Y-7778640D01*
X13088054Y-7678640D02*
X12988054Y-7778640D01*
X12988054Y-7932640D02*
X13088054Y-8032640D01*
X13088054Y-7932640D02*
X12988054Y-8032640D01*
X12988054Y-8186640D02*
X13088054Y-8286640D01*
X13088054Y-8186640D02*
X12988054Y-8286640D01*
X12988054Y-8440640D02*
X13088054Y-8540640D01*
X13088054Y-8440640D02*
X12988054Y-8540640D01*
X12988054Y-8694640D02*
X13088054Y-8794640D01*
X13088054Y-8694640D02*
X12988054Y-8794640D01*
X12988054Y-8948640D02*
X13088054Y-9048640D01*
X13088054Y-8948640D02*
X12988054Y-9048640D01*
X12988054Y-9202640D02*
X13088054Y-9302640D01*
X13088054Y-9202640D02*
X12988054Y-9302640D01*
X13242054Y-3360640D02*
X13342054Y-3460640D01*
X13342054Y-3360640D02*
X13242054Y-3460640D01*
X13242054Y-3614640D02*
X13342054Y-3714640D01*
X13342054Y-3614640D02*
X13242054Y-3714640D01*
X13242054Y-3868640D02*
X13342054Y-3968640D01*
X13342054Y-3868640D02*
X13242054Y-3968640D01*
X13242054Y-4122640D02*
X13342054Y-4222640D01*
X13342054Y-4122640D02*
X13242054Y-4222640D01*
X13242054Y-4376640D02*
X13342054Y-4476640D01*
X13342054Y-4376640D02*
X13242054Y-4476640D01*
X13242054Y-4630640D02*
X13342054Y-4730640D01*
X13342054Y-4630640D02*
X13242054Y-4730640D01*
X13242054Y-4884640D02*
X13342054Y-4984640D01*
X13342054Y-4884640D02*
X13242054Y-4984640D01*
X13242054Y-5138640D02*
X13342054Y-5238640D01*
X13342054Y-5138640D02*
X13242054Y-5238640D01*
X13242054Y-5392640D02*
X13342054Y-5492640D01*
X13342054Y-5392640D02*
X13242054Y-5492640D01*
X13242054Y-5646640D02*
X13342054Y-5746640D01*
X13342054Y-5646640D02*
X13242054Y-5746640D01*
X13242054Y-5900640D02*
X13342054Y-6000640D01*
X13342054Y-5900640D02*
X13242054Y-6000640D01*
X13242054Y-6154640D02*
X13342054Y-6254640D01*
X13342054Y-6154640D02*
X13242054Y-6254640D01*
X13242054Y-6408640D02*
X13342054Y-6508640D01*
X13342054Y-6408640D02*
X13242054Y-6508640D01*
X13242054Y-6662640D02*
X13342054Y-6762640D01*
X13342054Y-6662640D02*
X13242054Y-6762640D01*
X13242054Y-6916640D02*
X13342054Y-7016640D01*
X13342054Y-6916640D02*
X13242054Y-7016640D01*
X13242054Y-7170640D02*
X13342054Y-7270640D01*
X13342054Y-7170640D02*
X13242054Y-7270640D01*
X13242054Y-7424640D02*
X13342054Y-7524640D01*
X13342054Y-7424640D02*
X13242054Y-7524640D01*
X13242054Y-7678640D02*
X13342054Y-7778640D01*
X13342054Y-7678640D02*
X13242054Y-7778640D01*
X13242054Y-7932640D02*
X13342054Y-8032640D01*
X13342054Y-7932640D02*
X13242054Y-8032640D01*
X13242054Y-8186640D02*
X13342054Y-8286640D01*
X13342054Y-8186640D02*
X13242054Y-8286640D01*
X13242054Y-8440640D02*
X13342054Y-8540640D01*
X13342054Y-8440640D02*
X13242054Y-8540640D01*
X13242054Y-8694640D02*
X13342054Y-8794640D01*
X13342054Y-8694640D02*
X13242054Y-8794640D01*
X13242054Y-8948640D02*
X13342054Y-9048640D01*
X13342054Y-8948640D02*
X13242054Y-9048640D01*
X13242054Y-9202640D02*
X13342054Y-9302640D01*
X13342054Y-9202640D02*
X13242054Y-9302640D01*
X14004054Y-3360640D02*
X14104054Y-3460640D01*
X14104054Y-3360640D02*
X14004054Y-3460640D01*
X14004054Y-3614640D02*
X14104054Y-3714640D01*
X14104054Y-3614640D02*
X14004054Y-3714640D01*
X14004054Y-3868640D02*
X14104054Y-3968640D01*
X14104054Y-3868640D02*
X14004054Y-3968640D01*
X14004054Y-4122640D02*
X14104054Y-4222640D01*
X14104054Y-4122640D02*
X14004054Y-4222640D01*
X14004054Y-4376640D02*
X14104054Y-4476640D01*
X14104054Y-4376640D02*
X14004054Y-4476640D01*
X14004054Y-4630640D02*
X14104054Y-4730640D01*
X14104054Y-4630640D02*
X14004054Y-4730640D01*
X14004054Y-4884640D02*
X14104054Y-4984640D01*
X14104054Y-4884640D02*
X14004054Y-4984640D01*
X14004054Y-5138640D02*
X14104054Y-5238640D01*
X14104054Y-5138640D02*
X14004054Y-5238640D01*
X14004054Y-5392640D02*
X14104054Y-5492640D01*
X14104054Y-5392640D02*
X14004054Y-5492640D01*
X14004054Y-5646640D02*
X14104054Y-5746640D01*
X14104054Y-5646640D02*
X14004054Y-5746640D01*
X14004054Y-5900640D02*
X14104054Y-6000640D01*
X14104054Y-5900640D02*
X14004054Y-6000640D01*
X14004054Y-6154640D02*
X14104054Y-6254640D01*
X14104054Y-6154640D02*
X14004054Y-6254640D01*
X14004054Y-6408640D02*
X14104054Y-6508640D01*
X14104054Y-6408640D02*
X14004054Y-6508640D01*
X14004054Y-6662640D02*
X14104054Y-6762640D01*
X14104054Y-6662640D02*
X14004054Y-6762640D01*
X14004054Y-6916640D02*
X14104054Y-7016640D01*
X14104054Y-6916640D02*
X14004054Y-7016640D01*
X14004054Y-7170640D02*
X14104054Y-7270640D01*
X14104054Y-7170640D02*
X14004054Y-7270640D01*
X14004054Y-7424640D02*
X14104054Y-7524640D01*
X14104054Y-7424640D02*
X14004054Y-7524640D01*
X14004054Y-7678640D02*
X14104054Y-7778640D01*
X14104054Y-7678640D02*
X14004054Y-7778640D01*
X14004054Y-7932640D02*
X14104054Y-8032640D01*
X14104054Y-7932640D02*
X14004054Y-8032640D01*
X14004054Y-8186640D02*
X14104054Y-8286640D01*
X14104054Y-8186640D02*
X14004054Y-8286640D01*
X14004054Y-8440640D02*
X14104054Y-8540640D01*
X14104054Y-8440640D02*
X14004054Y-8540640D01*
X14004054Y-8694640D02*
X14104054Y-8794640D01*
X14104054Y-8694640D02*
X14004054Y-8794640D01*
X14004054Y-8948640D02*
X14104054Y-9048640D01*
X14104054Y-8948640D02*
X14004054Y-9048640D01*
X14004054Y-9202640D02*
X14104054Y-9302640D01*
X14104054Y-9202640D02*
X14004054Y-9302640D01*
X14258054Y-3360640D02*
X14358054Y-3460640D01*
X14358054Y-3360640D02*
X14258054Y-3460640D01*
X14258054Y-3614640D02*
X14358054Y-3714640D01*
X14358054Y-3614640D02*
X14258054Y-3714640D01*
X14258054Y-3868640D02*
X14358054Y-3968640D01*
X14358054Y-3868640D02*
X14258054Y-3968640D01*
X14258054Y-4122640D02*
X14358054Y-4222640D01*
X14358054Y-4122640D02*
X14258054Y-4222640D01*
X14258054Y-4376640D02*
X14358054Y-4476640D01*
X14358054Y-4376640D02*
X14258054Y-4476640D01*
X14258054Y-4630640D02*
X14358054Y-4730640D01*
X14358054Y-4630640D02*
X14258054Y-4730640D01*
X14258054Y-4884640D02*
X14358054Y-4984640D01*
X14358054Y-4884640D02*
X14258054Y-4984640D01*
X14258054Y-5138640D02*
X14358054Y-5238640D01*
X14358054Y-5138640D02*
X14258054Y-5238640D01*
X14258054Y-5392640D02*
X14358054Y-5492640D01*
X14358054Y-5392640D02*
X14258054Y-5492640D01*
X14258054Y-5646640D02*
X14358054Y-5746640D01*
X14358054Y-5646640D02*
X14258054Y-5746640D01*
X14258054Y-5900640D02*
X14358054Y-6000640D01*
X14358054Y-5900640D02*
X14258054Y-6000640D01*
X14258054Y-6154640D02*
X14358054Y-6254640D01*
X14358054Y-6154640D02*
X14258054Y-6254640D01*
X14258054Y-6408640D02*
X14358054Y-6508640D01*
X14358054Y-6408640D02*
X14258054Y-6508640D01*
X14258054Y-6662640D02*
X14358054Y-6762640D01*
X14358054Y-6662640D02*
X14258054Y-6762640D01*
X14258054Y-6916640D02*
X14358054Y-7016640D01*
X14358054Y-6916640D02*
X14258054Y-7016640D01*
X14258054Y-7170640D02*
X14358054Y-7270640D01*
X14358054Y-7170640D02*
X14258054Y-7270640D01*
X14258054Y-7424640D02*
X14358054Y-7524640D01*
X14358054Y-7424640D02*
X14258054Y-7524640D01*
X14258054Y-7678640D02*
X14358054Y-7778640D01*
X14358054Y-7678640D02*
X14258054Y-7778640D01*
X14258054Y-7932640D02*
X14358054Y-8032640D01*
X14358054Y-7932640D02*
X14258054Y-8032640D01*
X14258054Y-8186640D02*
X14358054Y-8286640D01*
X14358054Y-8186640D02*
X14258054Y-8286640D01*
X14258054Y-8440640D02*
X14358054Y-8540640D01*
X14358054Y-8440640D02*
X14258054Y-8540640D01*
X14258054Y-8694640D02*
X14358054Y-8794640D01*
X14358054Y-8694640D02*
X14258054Y-8794640D01*
X14258054Y-8948640D02*
X14358054Y-9048640D01*
X14358054Y-8948640D02*
X14258054Y-9048640D01*
X14258054Y-9202640D02*
X14358054Y-9302640D01*
X14358054Y-9202640D02*
X14258054Y-9302640D01*
X14512054Y-3360640D02*
X14612054Y-3460640D01*
X14612054Y-3360640D02*
X14512054Y-3460640D01*
X14512054Y-3614640D02*
X14612054Y-3714640D01*
X14612054Y-3614640D02*
X14512054Y-3714640D01*
X14512054Y-3868640D02*
X14612054Y-3968640D01*
X14612054Y-3868640D02*
X14512054Y-3968640D01*
X14512054Y-4122640D02*
X14612054Y-4222640D01*
X14612054Y-4122640D02*
X14512054Y-4222640D01*
X14512054Y-4376640D02*
X14612054Y-4476640D01*
X14612054Y-4376640D02*
X14512054Y-4476640D01*
X14512054Y-4630640D02*
X14612054Y-4730640D01*
X14612054Y-4630640D02*
X14512054Y-4730640D01*
X14512054Y-4884640D02*
X14612054Y-4984640D01*
X14612054Y-4884640D02*
X14512054Y-4984640D01*
X14512054Y-5138640D02*
X14612054Y-5238640D01*
X14612054Y-5138640D02*
X14512054Y-5238640D01*
X14512054Y-5392640D02*
X14612054Y-5492640D01*
X14612054Y-5392640D02*
X14512054Y-5492640D01*
X14512054Y-5646640D02*
X14612054Y-5746640D01*
X14612054Y-5646640D02*
X14512054Y-5746640D01*
X14512054Y-5900640D02*
X14612054Y-6000640D01*
X14612054Y-5900640D02*
X14512054Y-6000640D01*
X14512054Y-6154640D02*
X14612054Y-6254640D01*
X14612054Y-6154640D02*
X14512054Y-6254640D01*
X14512054Y-6408640D02*
X14612054Y-6508640D01*
X14612054Y-6408640D02*
X14512054Y-6508640D01*
X14512054Y-6662640D02*
X14612054Y-6762640D01*
X14612054Y-6662640D02*
X14512054Y-6762640D01*
X14512054Y-6916640D02*
X14612054Y-7016640D01*
X14612054Y-6916640D02*
X14512054Y-7016640D01*
X14512054Y-7170640D02*
X14612054Y-7270640D01*
X14612054Y-7170640D02*
X14512054Y-7270640D01*
X14512054Y-7424640D02*
X14612054Y-7524640D01*
X14612054Y-7424640D02*
X14512054Y-7524640D01*
X14512054Y-7678640D02*
X14612054Y-7778640D01*
X14612054Y-7678640D02*
X14512054Y-7778640D01*
X14512054Y-7932640D02*
X14612054Y-8032640D01*
X14612054Y-7932640D02*
X14512054Y-8032640D01*
X14512054Y-8186640D02*
X14612054Y-8286640D01*
X14612054Y-8186640D02*
X14512054Y-8286640D01*
X14512054Y-8440640D02*
X14612054Y-8540640D01*
X14612054Y-8440640D02*
X14512054Y-8540640D01*
X14512054Y-8694640D02*
X14612054Y-8794640D01*
X14612054Y-8694640D02*
X14512054Y-8794640D01*
X14512054Y-8948640D02*
X14612054Y-9048640D01*
X14612054Y-8948640D02*
X14512054Y-9048640D01*
X14512054Y-9202640D02*
X14612054Y-9302640D01*
X14612054Y-9202640D02*
X14512054Y-9302640D01*
X14766054Y-3360640D02*
X14866054Y-3460640D01*
X14866054Y-3360640D02*
X14766054Y-3460640D01*
X14766054Y-3614640D02*
X14866054Y-3714640D01*
X14866054Y-3614640D02*
X14766054Y-3714640D01*
X14766054Y-3868640D02*
X14866054Y-3968640D01*
X14866054Y-3868640D02*
X14766054Y-3968640D01*
X14766054Y-4122640D02*
X14866054Y-4222640D01*
X14866054Y-4122640D02*
X14766054Y-4222640D01*
X14766054Y-4376640D02*
X14866054Y-4476640D01*
X14866054Y-4376640D02*
X14766054Y-4476640D01*
X14766054Y-4630640D02*
X14866054Y-4730640D01*
X14866054Y-4630640D02*
X14766054Y-4730640D01*
X14766054Y-4884640D02*
X14866054Y-4984640D01*
X14866054Y-4884640D02*
X14766054Y-4984640D01*
X14766054Y-5138640D02*
X14866054Y-5238640D01*
X14866054Y-5138640D02*
X14766054Y-5238640D01*
X14766054Y-5392640D02*
X14866054Y-5492640D01*
X14866054Y-5392640D02*
X14766054Y-5492640D01*
X14766054Y-5646640D02*
X14866054Y-5746640D01*
X14866054Y-5646640D02*
X14766054Y-5746640D01*
X14766054Y-5900640D02*
X14866054Y-6000640D01*
X14866054Y-5900640D02*
X14766054Y-6000640D01*
X14766054Y-6154640D02*
X14866054Y-6254640D01*
X14866054Y-6154640D02*
X14766054Y-6254640D01*
X14766054Y-6408640D02*
X14866054Y-6508640D01*
X14866054Y-6408640D02*
X14766054Y-6508640D01*
X14766054Y-6662640D02*
X14866054Y-6762640D01*
X14866054Y-6662640D02*
X14766054Y-6762640D01*
X14766054Y-6916640D02*
X14866054Y-7016640D01*
X14866054Y-6916640D02*
X14766054Y-7016640D01*
X14766054Y-7170640D02*
X14866054Y-7270640D01*
X14866054Y-7170640D02*
X14766054Y-7270640D01*
X14766054Y-7424640D02*
X14866054Y-7524640D01*
X14866054Y-7424640D02*
X14766054Y-7524640D01*
X14766054Y-7678640D02*
X14866054Y-7778640D01*
X14866054Y-7678640D02*
X14766054Y-7778640D01*
X14766054Y-7932640D02*
X14866054Y-8032640D01*
X14866054Y-7932640D02*
X14766054Y-8032640D01*
X14766054Y-8186640D02*
X14866054Y-8286640D01*
X14866054Y-8186640D02*
X14766054Y-8286640D01*
X14766054Y-8440640D02*
X14866054Y-8540640D01*
X14866054Y-8440640D02*
X14766054Y-8540640D01*
X14766054Y-8694640D02*
X14866054Y-8794640D01*
X14866054Y-8694640D02*
X14766054Y-8794640D01*
X14766054Y-8948640D02*
X14866054Y-9048640D01*
X14866054Y-8948640D02*
X14766054Y-9048640D01*
X14766054Y-9202640D02*
X14866054Y-9302640D01*
X14866054Y-9202640D02*
X14766054Y-9302640D01*
X15020054Y-3360640D02*
X15120054Y-3460640D01*
X15120054Y-3360640D02*
X15020054Y-3460640D01*
X15020054Y-3614640D02*
X15120054Y-3714640D01*
X15120054Y-3614640D02*
X15020054Y-3714640D01*
X15020054Y-3868640D02*
X15120054Y-3968640D01*
X15120054Y-3868640D02*
X15020054Y-3968640D01*
X15020054Y-4122640D02*
X15120054Y-4222640D01*
X15120054Y-4122640D02*
X15020054Y-4222640D01*
X15020054Y-4376640D02*
X15120054Y-4476640D01*
X15120054Y-4376640D02*
X15020054Y-4476640D01*
X15020054Y-4630640D02*
X15120054Y-4730640D01*
X15120054Y-4630640D02*
X15020054Y-4730640D01*
X15020054Y-4884640D02*
X15120054Y-4984640D01*
X15120054Y-4884640D02*
X15020054Y-4984640D01*
X15020054Y-5138640D02*
X15120054Y-5238640D01*
X15120054Y-5138640D02*
X15020054Y-5238640D01*
X15020054Y-5392640D02*
X15120054Y-5492640D01*
X15120054Y-5392640D02*
X15020054Y-5492640D01*
X15020054Y-5646640D02*
X15120054Y-5746640D01*
X15120054Y-5646640D02*
X15020054Y-5746640D01*
X15020054Y-5900640D02*
X15120054Y-6000640D01*
X15120054Y-5900640D02*
X15020054Y-6000640D01*
X15020054Y-6154640D02*
X15120054Y-6254640D01*
X15120054Y-6154640D02*
X15020054Y-6254640D01*
X15020054Y-6408640D02*
X15120054Y-6508640D01*
X15120054Y-6408640D02*
X15020054Y-6508640D01*
X15020054Y-6662640D02*
X15120054Y-6762640D01*
X15120054Y-6662640D02*
X15020054Y-6762640D01*
X15020054Y-6916640D02*
X15120054Y-7016640D01*
X15120054Y-6916640D02*
X15020054Y-7016640D01*
X15020054Y-7170640D02*
X15120054Y-7270640D01*
X15120054Y-7170640D02*
X15020054Y-7270640D01*
X15020054Y-7424640D02*
X15120054Y-7524640D01*
X15120054Y-7424640D02*
X15020054Y-7524640D01*
X15020054Y-7678640D02*
X15120054Y-7778640D01*
X15120054Y-7678640D02*
X15020054Y-7778640D01*
X15020054Y-7932640D02*
X15120054Y-8032640D01*
X15120054Y-7932640D02*
X15020054Y-8032640D01*
X15020054Y-8186640D02*
X15120054Y-8286640D01*
X15120054Y-8186640D02*
X15020054Y-8286640D01*
X15020054Y-8440640D02*
X15120054Y-8540640D01*
X15120054Y-8440640D02*
X15020054Y-8540640D01*
X15020054Y-8694640D02*
X15120054Y-8794640D01*
X15120054Y-8694640D02*
X15020054Y-8794640D01*
X15020054Y-8948640D02*
X15120054Y-9048640D01*
X15120054Y-8948640D02*
X15020054Y-9048640D01*
X15020054Y-9202640D02*
X15120054Y-9302640D01*
X15120054Y-9202640D02*
X15020054Y-9302640D01*
X15274054Y-3360640D02*
X15374054Y-3460640D01*
X15374054Y-3360640D02*
X15274054Y-3460640D01*
X15274054Y-3614640D02*
X15374054Y-3714640D01*
X15374054Y-3614640D02*
X15274054Y-3714640D01*
X15274054Y-3868640D02*
X15374054Y-3968640D01*
X15374054Y-3868640D02*
X15274054Y-3968640D01*
X15274054Y-4122640D02*
X15374054Y-4222640D01*
X15374054Y-4122640D02*
X15274054Y-4222640D01*
X15274054Y-4376640D02*
X15374054Y-4476640D01*
X15374054Y-4376640D02*
X15274054Y-4476640D01*
X15274054Y-4630640D02*
X15374054Y-4730640D01*
X15374054Y-4630640D02*
X15274054Y-4730640D01*
X15274054Y-4884640D02*
X15374054Y-4984640D01*
X15374054Y-4884640D02*
X15274054Y-4984640D01*
X15274054Y-5138640D02*
X15374054Y-5238640D01*
X15374054Y-5138640D02*
X15274054Y-5238640D01*
X15274054Y-5392640D02*
X15374054Y-5492640D01*
X15374054Y-5392640D02*
X15274054Y-5492640D01*
X15274054Y-5646640D02*
X15374054Y-5746640D01*
X15374054Y-5646640D02*
X15274054Y-5746640D01*
X15274054Y-5900640D02*
X15374054Y-6000640D01*
X15374054Y-5900640D02*
X15274054Y-6000640D01*
X15274054Y-6154640D02*
X15374054Y-6254640D01*
X15374054Y-6154640D02*
X15274054Y-6254640D01*
X15274054Y-6408640D02*
X15374054Y-6508640D01*
X15374054Y-6408640D02*
X15274054Y-6508640D01*
X15274054Y-6662640D02*
X15374054Y-6762640D01*
X15374054Y-6662640D02*
X15274054Y-6762640D01*
X15274054Y-6916640D02*
X15374054Y-7016640D01*
X15374054Y-6916640D02*
X15274054Y-7016640D01*
X15274054Y-7170640D02*
X15374054Y-7270640D01*
X15374054Y-7170640D02*
X15274054Y-7270640D01*
X15274054Y-7424640D02*
X15374054Y-7524640D01*
X15374054Y-7424640D02*
X15274054Y-7524640D01*
X15274054Y-7678640D02*
X15374054Y-7778640D01*
X15374054Y-7678640D02*
X15274054Y-7778640D01*
X15274054Y-7932640D02*
X15374054Y-8032640D01*
X15374054Y-7932640D02*
X15274054Y-8032640D01*
X15274054Y-8186640D02*
X15374054Y-8286640D01*
X15374054Y-8186640D02*
X15274054Y-8286640D01*
X15274054Y-8440640D02*
X15374054Y-8540640D01*
X15374054Y-8440640D02*
X15274054Y-8540640D01*
X15274054Y-8694640D02*
X15374054Y-8794640D01*
X15374054Y-8694640D02*
X15274054Y-8794640D01*
X15274054Y-8948640D02*
X15374054Y-9048640D01*
X15374054Y-8948640D02*
X15274054Y-9048640D01*
X15274054Y-9202640D02*
X15374054Y-9302640D01*
X15374054Y-9202640D02*
X15274054Y-9302640D01*
X15782054Y-3360640D02*
X15882054Y-3460640D01*
X15882054Y-3360640D02*
X15782054Y-3460640D01*
X15782054Y-3614640D02*
X15882054Y-3714640D01*
X15882054Y-3614640D02*
X15782054Y-3714640D01*
X15782054Y-3868640D02*
X15882054Y-3968640D01*
X15882054Y-3868640D02*
X15782054Y-3968640D01*
X15782054Y-4122640D02*
X15882054Y-4222640D01*
X15882054Y-4122640D02*
X15782054Y-4222640D01*
X15782054Y-4376640D02*
X15882054Y-4476640D01*
X15882054Y-4376640D02*
X15782054Y-4476640D01*
X15782054Y-4630640D02*
X15882054Y-4730640D01*
X15882054Y-4630640D02*
X15782054Y-4730640D01*
X15782054Y-4884640D02*
X15882054Y-4984640D01*
X15882054Y-4884640D02*
X15782054Y-4984640D01*
X15782054Y-5138640D02*
X15882054Y-5238640D01*
X15882054Y-5138640D02*
X15782054Y-5238640D01*
X15782054Y-5392640D02*
X15882054Y-5492640D01*
X15882054Y-5392640D02*
X15782054Y-5492640D01*
X15782054Y-5646640D02*
X15882054Y-5746640D01*
X15882054Y-5646640D02*
X15782054Y-5746640D01*
X15782054Y-5900640D02*
X15882054Y-6000640D01*
X15882054Y-5900640D02*
X15782054Y-6000640D01*
X15782054Y-6154640D02*
X15882054Y-6254640D01*
X15882054Y-6154640D02*
X15782054Y-6254640D01*
X15782054Y-6408640D02*
X15882054Y-6508640D01*
X15882054Y-6408640D02*
X15782054Y-6508640D01*
X15782054Y-6662640D02*
X15882054Y-6762640D01*
X15882054Y-6662640D02*
X15782054Y-6762640D01*
X15782054Y-6916640D02*
X15882054Y-7016640D01*
X15882054Y-6916640D02*
X15782054Y-7016640D01*
X15782054Y-7170640D02*
X15882054Y-7270640D01*
X15882054Y-7170640D02*
X15782054Y-7270640D01*
X15782054Y-7424640D02*
X15882054Y-7524640D01*
X15882054Y-7424640D02*
X15782054Y-7524640D01*
X15782054Y-7678640D02*
X15882054Y-7778640D01*
X15882054Y-7678640D02*
X15782054Y-7778640D01*
X15782054Y-7932640D02*
X15882054Y-8032640D01*
X15882054Y-7932640D02*
X15782054Y-8032640D01*
X15782054Y-8186640D02*
X15882054Y-8286640D01*
X15882054Y-8186640D02*
X15782054Y-8286640D01*
X15782054Y-8440640D02*
X15882054Y-8540640D01*
X15882054Y-8440640D02*
X15782054Y-8540640D01*
X15782054Y-8694640D02*
X15882054Y-8794640D01*
X15882054Y-8694640D02*
X15782054Y-8794640D01*
X15782054Y-8948640D02*
X15882054Y-9048640D01*
X15882054Y-8948640D02*
X15782054Y-9048640D01*
X15782054Y-9202640D02*
X15882054Y-9302640D01*
X15882054Y-9202640D02*
X15782054Y-9302640D01*
X16036054Y-3360640D02*
X16136054Y-3460640D01*
X16136054Y-3360640D02*
X16036054Y-3460640D01*
X16036054Y-3614640D02*
X16136054Y-3714640D01*
X16136054Y-3614640D02*
X16036054Y-3714640D01*
X16036054Y-3868640D02*
X16136054Y-3968640D01*
X16136054Y-3868640D02*
X16036054Y-3968640D01*
X16036054Y-4122640D02*
X16136054Y-4222640D01*
X16136054Y-4122640D02*
X16036054Y-4222640D01*
X16036054Y-4376640D02*
X16136054Y-4476640D01*
X16136054Y-4376640D02*
X16036054Y-4476640D01*
X16036054Y-4630640D02*
X16136054Y-4730640D01*
X16136054Y-4630640D02*
X16036054Y-4730640D01*
X16036054Y-4884640D02*
X16136054Y-4984640D01*
X16136054Y-4884640D02*
X16036054Y-4984640D01*
X16036054Y-5138640D02*
X16136054Y-5238640D01*
X16136054Y-5138640D02*
X16036054Y-5238640D01*
X16036054Y-5392640D02*
X16136054Y-5492640D01*
X16136054Y-5392640D02*
X16036054Y-5492640D01*
X16036054Y-5646640D02*
X16136054Y-5746640D01*
X16136054Y-5646640D02*
X16036054Y-5746640D01*
X16036054Y-5900640D02*
X16136054Y-6000640D01*
X16136054Y-5900640D02*
X16036054Y-6000640D01*
X16036054Y-6154640D02*
X16136054Y-6254640D01*
X16136054Y-6154640D02*
X16036054Y-6254640D01*
X16036054Y-6408640D02*
X16136054Y-6508640D01*
X16136054Y-6408640D02*
X16036054Y-6508640D01*
X16036054Y-6662640D02*
X16136054Y-6762640D01*
X16136054Y-6662640D02*
X16036054Y-6762640D01*
X16036054Y-6916640D02*
X16136054Y-7016640D01*
X16136054Y-6916640D02*
X16036054Y-7016640D01*
X16036054Y-7170640D02*
X16136054Y-7270640D01*
X16136054Y-7170640D02*
X16036054Y-7270640D01*
X16036054Y-7424640D02*
X16136054Y-7524640D01*
X16136054Y-7424640D02*
X16036054Y-7524640D01*
X16036054Y-7678640D02*
X16136054Y-7778640D01*
X16136054Y-7678640D02*
X16036054Y-7778640D01*
X16036054Y-7932640D02*
X16136054Y-8032640D01*
X16136054Y-7932640D02*
X16036054Y-8032640D01*
X16036054Y-8186640D02*
X16136054Y-8286640D01*
X16136054Y-8186640D02*
X16036054Y-8286640D01*
X16036054Y-8440640D02*
X16136054Y-8540640D01*
X16136054Y-8440640D02*
X16036054Y-8540640D01*
X16036054Y-8694640D02*
X16136054Y-8794640D01*
X16136054Y-8694640D02*
X16036054Y-8794640D01*
X16036054Y-8948640D02*
X16136054Y-9048640D01*
X16136054Y-8948640D02*
X16036054Y-9048640D01*
X16036054Y-9202640D02*
X16136054Y-9302640D01*
X16136054Y-9202640D02*
X16036054Y-9302640D01*
X16545654Y-3758240D02*
X16645654Y-3858240D01*
X16645654Y-3758240D02*
X16545654Y-3858240D01*
X16545654Y-8858240D02*
X16645654Y-8958240D01*
X16645654Y-8858240D02*
X16545654Y-8958240D01*
D14*
X10339054Y-7051840D02*
G75*
G03*
X10339054Y-7051840I-25000J0D01*
G01*
X12890654Y-3068240D02*
G75*
G03*
X12890654Y-3068240I-25000J0D01*
G01*
X14245654Y-9765240D02*
G75*
G03*
X14245654Y-9765240I-25000J0D01*
G01*
X17138654Y-5855240D02*
G75*
G03*
X17138654Y-5855240I-25000J0D01*
G01*
D15*
X10164054Y-6791840D02*
X10164054Y-6851840D01*
X10134054Y-6821840D02*
X10194054Y-6821840D01*
X10164054Y-6906840D02*
X10164054Y-6966840D01*
X10134054Y-6936840D02*
X10194054Y-6936840D01*
X10164054Y-7021840D02*
X10164054Y-7081840D01*
X10134054Y-7051840D02*
X10194054Y-7051840D01*
X10314054Y-6791840D02*
X10314054Y-6851840D01*
X10284054Y-6821840D02*
X10344054Y-6821840D01*
X10314054Y-6906840D02*
X10314054Y-6966840D01*
X10284054Y-6936840D02*
X10344054Y-6936840D01*
X12865654Y-2888240D02*
X12865654Y-2948240D01*
X12835654Y-2918240D02*
X12895654Y-2918240D01*
X12980654Y-2888240D02*
X12980654Y-2948240D01*
X12950654Y-2918240D02*
X13010654Y-2918240D01*
X12980654Y-3038240D02*
X12980654Y-3098240D01*
X12950654Y-3068240D02*
X13010654Y-3068240D01*
X13095654Y-2888240D02*
X13095654Y-2948240D01*
X13065654Y-2918240D02*
X13125654Y-2918240D01*
X13095654Y-3038240D02*
X13095654Y-3098240D01*
X13065654Y-3068240D02*
X13125654Y-3068240D01*
X14220654Y-9585240D02*
X14220654Y-9645240D01*
X14190654Y-9615240D02*
X14250654Y-9615240D01*
X14335654Y-9585240D02*
X14335654Y-9645240D01*
X14305654Y-9615240D02*
X14365654Y-9615240D01*
X14335654Y-9735240D02*
X14335654Y-9795240D01*
X14305654Y-9765240D02*
X14365654Y-9765240D01*
X14450654Y-9585240D02*
X14450654Y-9645240D01*
X14420654Y-9615240D02*
X14480654Y-9615240D01*
X14450654Y-9735240D02*
X14450654Y-9795240D01*
X14420654Y-9765240D02*
X14480654Y-9765240D01*
X16963654Y-5595240D02*
X16963654Y-5655240D01*
X16933654Y-5625240D02*
X16993654Y-5625240D01*
X16963654Y-5710240D02*
X16963654Y-5770240D01*
X16933654Y-5740240D02*
X16993654Y-5740240D01*
X16963654Y-5825240D02*
X16963654Y-5885240D01*
X16933654Y-5855240D02*
X16993654Y-5855240D01*
X17113654Y-5595240D02*
X17113654Y-5655240D01*
X17083654Y-5625240D02*
X17143654Y-5625240D01*
X17113654Y-5710240D02*
X17113654Y-5770240D01*
X17083654Y-5740240D02*
X17143654Y-5740240D01*
D12*
X10072331Y-10479224D02*
X10072331Y-10279224D01*
X10072331Y-10279224D02*
X10119950Y-10279224D01*
X10119950Y-10279224D02*
X10148521Y-10288748D01*
X10148521Y-10288748D02*
X10167569Y-10307795D01*
X10167569Y-10307795D02*
X10177093Y-10326843D01*
X10177093Y-10326843D02*
X10186617Y-10364938D01*
X10186617Y-10364938D02*
X10186617Y-10393509D01*
X10186617Y-10393509D02*
X10177093Y-10431605D01*
X10177093Y-10431605D02*
X10167569Y-10450652D01*
X10167569Y-10450652D02*
X10148521Y-10469700D01*
X10148521Y-10469700D02*
X10119950Y-10479224D01*
X10119950Y-10479224D02*
X10072331Y-10479224D01*
X10272331Y-10479224D02*
X10272331Y-10345890D01*
X10272331Y-10383986D02*
X10281855Y-10364938D01*
X10281855Y-10364938D02*
X10291379Y-10355414D01*
X10291379Y-10355414D02*
X10310426Y-10345890D01*
X10310426Y-10345890D02*
X10329474Y-10345890D01*
X10396140Y-10479224D02*
X10396140Y-10345890D01*
X10396140Y-10279224D02*
X10386617Y-10288748D01*
X10386617Y-10288748D02*
X10396140Y-10298271D01*
X10396140Y-10298271D02*
X10405664Y-10288748D01*
X10405664Y-10288748D02*
X10396140Y-10279224D01*
X10396140Y-10279224D02*
X10396140Y-10298271D01*
X10519950Y-10479224D02*
X10500902Y-10469700D01*
X10500902Y-10469700D02*
X10491379Y-10450652D01*
X10491379Y-10450652D02*
X10491379Y-10279224D01*
X10624712Y-10479224D02*
X10605664Y-10469700D01*
X10605664Y-10469700D02*
X10596140Y-10450652D01*
X10596140Y-10450652D02*
X10596140Y-10279224D01*
X10853283Y-10479224D02*
X10853283Y-10279224D01*
X10853283Y-10279224D02*
X10919950Y-10422081D01*
X10919950Y-10422081D02*
X10986617Y-10279224D01*
X10986617Y-10279224D02*
X10986617Y-10479224D01*
X11167569Y-10479224D02*
X11167569Y-10374462D01*
X11167569Y-10374462D02*
X11158045Y-10355414D01*
X11158045Y-10355414D02*
X11138998Y-10345890D01*
X11138998Y-10345890D02*
X11100902Y-10345890D01*
X11100902Y-10345890D02*
X11081855Y-10355414D01*
X11167569Y-10469700D02*
X11148521Y-10479224D01*
X11148521Y-10479224D02*
X11100902Y-10479224D01*
X11100902Y-10479224D02*
X11081855Y-10469700D01*
X11081855Y-10469700D02*
X11072331Y-10450652D01*
X11072331Y-10450652D02*
X11072331Y-10431605D01*
X11072331Y-10431605D02*
X11081855Y-10412557D01*
X11081855Y-10412557D02*
X11100902Y-10403033D01*
X11100902Y-10403033D02*
X11148521Y-10403033D01*
X11148521Y-10403033D02*
X11167569Y-10393509D01*
X11262807Y-10345890D02*
X11262807Y-10545890D01*
X11262807Y-10355414D02*
X11281855Y-10345890D01*
X11281855Y-10345890D02*
X11319950Y-10345890D01*
X11319950Y-10345890D02*
X11338998Y-10355414D01*
X11338998Y-10355414D02*
X11348521Y-10364938D01*
X11348521Y-10364938D02*
X11358045Y-10383986D01*
X11358045Y-10383986D02*
X11358045Y-10441128D01*
X11358045Y-10441128D02*
X11348521Y-10460176D01*
X11348521Y-10460176D02*
X11338998Y-10469700D01*
X11338998Y-10469700D02*
X11319950Y-10479224D01*
X11319950Y-10479224D02*
X11281855Y-10479224D01*
X11281855Y-10479224D02*
X11262807Y-10469700D01*
X11443759Y-10460176D02*
X11453283Y-10469700D01*
X11453283Y-10469700D02*
X11443759Y-10479224D01*
X11443759Y-10479224D02*
X11434236Y-10469700D01*
X11434236Y-10469700D02*
X11443759Y-10460176D01*
X11443759Y-10460176D02*
X11443759Y-10479224D01*
X11443759Y-10355414D02*
X11453283Y-10364938D01*
X11453283Y-10364938D02*
X11443759Y-10374462D01*
X11443759Y-10374462D02*
X11434236Y-10364938D01*
X11434236Y-10364938D02*
X11443759Y-10355414D01*
X11443759Y-10355414D02*
X11443759Y-10374462D01*
D13*
X9711554Y-10757740D02*
X9811554Y-10857740D01*
X9811554Y-10757740D02*
X9711554Y-10857740D01*
D12*
X10177093Y-10899224D02*
X10062807Y-10899224D01*
X10119950Y-10899224D02*
X10119950Y-10699224D01*
X10119950Y-10699224D02*
X10100902Y-10727795D01*
X10100902Y-10727795D02*
X10081855Y-10746843D01*
X10081855Y-10746843D02*
X10062807Y-10756367D01*
X10262807Y-10880176D02*
X10272331Y-10889700D01*
X10272331Y-10889700D02*
X10262807Y-10899224D01*
X10262807Y-10899224D02*
X10253283Y-10889700D01*
X10253283Y-10889700D02*
X10262807Y-10880176D01*
X10262807Y-10880176D02*
X10262807Y-10899224D01*
X10396140Y-10699224D02*
X10415188Y-10699224D01*
X10415188Y-10699224D02*
X10434236Y-10708748D01*
X10434236Y-10708748D02*
X10443760Y-10718271D01*
X10443760Y-10718271D02*
X10453283Y-10737319D01*
X10453283Y-10737319D02*
X10462807Y-10775414D01*
X10462807Y-10775414D02*
X10462807Y-10823033D01*
X10462807Y-10823033D02*
X10453283Y-10861128D01*
X10453283Y-10861128D02*
X10443760Y-10880176D01*
X10443760Y-10880176D02*
X10434236Y-10889700D01*
X10434236Y-10889700D02*
X10415188Y-10899224D01*
X10415188Y-10899224D02*
X10396140Y-10899224D01*
X10396140Y-10899224D02*
X10377093Y-10889700D01*
X10377093Y-10889700D02*
X10367569Y-10880176D01*
X10367569Y-10880176D02*
X10358045Y-10861128D01*
X10358045Y-10861128D02*
X10348521Y-10823033D01*
X10348521Y-10823033D02*
X10348521Y-10775414D01*
X10348521Y-10775414D02*
X10358045Y-10737319D01*
X10358045Y-10737319D02*
X10367569Y-10718271D01*
X10367569Y-10718271D02*
X10377093Y-10708748D01*
X10377093Y-10708748D02*
X10396140Y-10699224D01*
X10586617Y-10699224D02*
X10605664Y-10699224D01*
X10605664Y-10699224D02*
X10624712Y-10708748D01*
X10624712Y-10708748D02*
X10634236Y-10718271D01*
X10634236Y-10718271D02*
X10643760Y-10737319D01*
X10643760Y-10737319D02*
X10653283Y-10775414D01*
X10653283Y-10775414D02*
X10653283Y-10823033D01*
X10653283Y-10823033D02*
X10643760Y-10861128D01*
X10643760Y-10861128D02*
X10634236Y-10880176D01*
X10634236Y-10880176D02*
X10624712Y-10889700D01*
X10624712Y-10889700D02*
X10605664Y-10899224D01*
X10605664Y-10899224D02*
X10586617Y-10899224D01*
X10586617Y-10899224D02*
X10567569Y-10889700D01*
X10567569Y-10889700D02*
X10558045Y-10880176D01*
X10558045Y-10880176D02*
X10548521Y-10861128D01*
X10548521Y-10861128D02*
X10538998Y-10823033D01*
X10538998Y-10823033D02*
X10538998Y-10775414D01*
X10538998Y-10775414D02*
X10548521Y-10737319D01*
X10548521Y-10737319D02*
X10558045Y-10718271D01*
X10558045Y-10718271D02*
X10567569Y-10708748D01*
X10567569Y-10708748D02*
X10586617Y-10699224D01*
X10777093Y-10699224D02*
X10796141Y-10699224D01*
X10796141Y-10699224D02*
X10815188Y-10708748D01*
X10815188Y-10708748D02*
X10824712Y-10718271D01*
X10824712Y-10718271D02*
X10834236Y-10737319D01*
X10834236Y-10737319D02*
X10843760Y-10775414D01*
X10843760Y-10775414D02*
X10843760Y-10823033D01*
X10843760Y-10823033D02*
X10834236Y-10861128D01*
X10834236Y-10861128D02*
X10824712Y-10880176D01*
X10824712Y-10880176D02*
X10815188Y-10889700D01*
X10815188Y-10889700D02*
X10796141Y-10899224D01*
X10796141Y-10899224D02*
X10777093Y-10899224D01*
X10777093Y-10899224D02*
X10758045Y-10889700D01*
X10758045Y-10889700D02*
X10748521Y-10880176D01*
X10748521Y-10880176D02*
X10738998Y-10861128D01*
X10738998Y-10861128D02*
X10729474Y-10823033D01*
X10729474Y-10823033D02*
X10729474Y-10775414D01*
X10729474Y-10775414D02*
X10738998Y-10737319D01*
X10738998Y-10737319D02*
X10748521Y-10718271D01*
X10748521Y-10718271D02*
X10758045Y-10708748D01*
X10758045Y-10708748D02*
X10777093Y-10699224D01*
X10929474Y-10899224D02*
X10929474Y-10765890D01*
X10929474Y-10784938D02*
X10938998Y-10775414D01*
X10938998Y-10775414D02*
X10958045Y-10765890D01*
X10958045Y-10765890D02*
X10986617Y-10765890D01*
X10986617Y-10765890D02*
X11005664Y-10775414D01*
X11005664Y-10775414D02*
X11015188Y-10794462D01*
X11015188Y-10794462D02*
X11015188Y-10899224D01*
X11015188Y-10794462D02*
X11024712Y-10775414D01*
X11024712Y-10775414D02*
X11043760Y-10765890D01*
X11043760Y-10765890D02*
X11072331Y-10765890D01*
X11072331Y-10765890D02*
X11091379Y-10775414D01*
X11091379Y-10775414D02*
X11100902Y-10794462D01*
X11100902Y-10794462D02*
X11100902Y-10899224D01*
X11196140Y-10899224D02*
X11196140Y-10765890D01*
X11196140Y-10784938D02*
X11205664Y-10775414D01*
X11205664Y-10775414D02*
X11224712Y-10765890D01*
X11224712Y-10765890D02*
X11253283Y-10765890D01*
X11253283Y-10765890D02*
X11272331Y-10775414D01*
X11272331Y-10775414D02*
X11281855Y-10794462D01*
X11281855Y-10794462D02*
X11281855Y-10899224D01*
X11281855Y-10794462D02*
X11291379Y-10775414D01*
X11291379Y-10775414D02*
X11310426Y-10765890D01*
X11310426Y-10765890D02*
X11338998Y-10765890D01*
X11338998Y-10765890D02*
X11358045Y-10775414D01*
X11358045Y-10775414D02*
X11367569Y-10794462D01*
X11367569Y-10794462D02*
X11367569Y-10899224D01*
X11758045Y-10689700D02*
X11586617Y-10946843D01*
X12015188Y-10699224D02*
X12034236Y-10699224D01*
X12034236Y-10699224D02*
X12053283Y-10708748D01*
X12053283Y-10708748D02*
X12062807Y-10718271D01*
X12062807Y-10718271D02*
X12072331Y-10737319D01*
X12072331Y-10737319D02*
X12081855Y-10775414D01*
X12081855Y-10775414D02*
X12081855Y-10823033D01*
X12081855Y-10823033D02*
X12072331Y-10861128D01*
X12072331Y-10861128D02*
X12062807Y-10880176D01*
X12062807Y-10880176D02*
X12053283Y-10889700D01*
X12053283Y-10889700D02*
X12034236Y-10899224D01*
X12034236Y-10899224D02*
X12015188Y-10899224D01*
X12015188Y-10899224D02*
X11996141Y-10889700D01*
X11996141Y-10889700D02*
X11986617Y-10880176D01*
X11986617Y-10880176D02*
X11977093Y-10861128D01*
X11977093Y-10861128D02*
X11967569Y-10823033D01*
X11967569Y-10823033D02*
X11967569Y-10775414D01*
X11967569Y-10775414D02*
X11977093Y-10737319D01*
X11977093Y-10737319D02*
X11986617Y-10718271D01*
X11986617Y-10718271D02*
X11996141Y-10708748D01*
X11996141Y-10708748D02*
X12015188Y-10699224D01*
X12167569Y-10880176D02*
X12177093Y-10889700D01*
X12177093Y-10889700D02*
X12167569Y-10899224D01*
X12167569Y-10899224D02*
X12158045Y-10889700D01*
X12158045Y-10889700D02*
X12167569Y-10880176D01*
X12167569Y-10880176D02*
X12167569Y-10899224D01*
X12300902Y-10699224D02*
X12319950Y-10699224D01*
X12319950Y-10699224D02*
X12338998Y-10708748D01*
X12338998Y-10708748D02*
X12348522Y-10718271D01*
X12348522Y-10718271D02*
X12358045Y-10737319D01*
X12358045Y-10737319D02*
X12367569Y-10775414D01*
X12367569Y-10775414D02*
X12367569Y-10823033D01*
X12367569Y-10823033D02*
X12358045Y-10861128D01*
X12358045Y-10861128D02*
X12348522Y-10880176D01*
X12348522Y-10880176D02*
X12338998Y-10889700D01*
X12338998Y-10889700D02*
X12319950Y-10899224D01*
X12319950Y-10899224D02*
X12300902Y-10899224D01*
X12300902Y-10899224D02*
X12281855Y-10889700D01*
X12281855Y-10889700D02*
X12272331Y-10880176D01*
X12272331Y-10880176D02*
X12262807Y-10861128D01*
X12262807Y-10861128D02*
X12253283Y-10823033D01*
X12253283Y-10823033D02*
X12253283Y-10775414D01*
X12253283Y-10775414D02*
X12262807Y-10737319D01*
X12262807Y-10737319D02*
X12272331Y-10718271D01*
X12272331Y-10718271D02*
X12281855Y-10708748D01*
X12281855Y-10708748D02*
X12300902Y-10699224D01*
X12434236Y-10699224D02*
X12558045Y-10699224D01*
X12558045Y-10699224D02*
X12491379Y-10775414D01*
X12491379Y-10775414D02*
X12519950Y-10775414D01*
X12519950Y-10775414D02*
X12538998Y-10784938D01*
X12538998Y-10784938D02*
X12548522Y-10794462D01*
X12548522Y-10794462D02*
X12558045Y-10813509D01*
X12558045Y-10813509D02*
X12558045Y-10861128D01*
X12558045Y-10861128D02*
X12548522Y-10880176D01*
X12548522Y-10880176D02*
X12538998Y-10889700D01*
X12538998Y-10889700D02*
X12519950Y-10899224D01*
X12519950Y-10899224D02*
X12462807Y-10899224D01*
X12462807Y-10899224D02*
X12443760Y-10889700D01*
X12443760Y-10889700D02*
X12434236Y-10880176D01*
X12653283Y-10899224D02*
X12691379Y-10899224D01*
X12691379Y-10899224D02*
X12710426Y-10889700D01*
X12710426Y-10889700D02*
X12719950Y-10880176D01*
X12719950Y-10880176D02*
X12738998Y-10851605D01*
X12738998Y-10851605D02*
X12748522Y-10813509D01*
X12748522Y-10813509D02*
X12748522Y-10737319D01*
X12748522Y-10737319D02*
X12738998Y-10718271D01*
X12738998Y-10718271D02*
X12729474Y-10708748D01*
X12729474Y-10708748D02*
X12710426Y-10699224D01*
X12710426Y-10699224D02*
X12672331Y-10699224D01*
X12672331Y-10699224D02*
X12653283Y-10708748D01*
X12653283Y-10708748D02*
X12643760Y-10718271D01*
X12643760Y-10718271D02*
X12634236Y-10737319D01*
X12634236Y-10737319D02*
X12634236Y-10784938D01*
X12634236Y-10784938D02*
X12643760Y-10803986D01*
X12643760Y-10803986D02*
X12653283Y-10813509D01*
X12653283Y-10813509D02*
X12672331Y-10823033D01*
X12672331Y-10823033D02*
X12710426Y-10823033D01*
X12710426Y-10823033D02*
X12729474Y-10813509D01*
X12729474Y-10813509D02*
X12738998Y-10803986D01*
X12738998Y-10803986D02*
X12748522Y-10784938D01*
X12919950Y-10765890D02*
X12919950Y-10899224D01*
X12872331Y-10689700D02*
X12824712Y-10832557D01*
X12824712Y-10832557D02*
X12948522Y-10832557D01*
X13015188Y-10699224D02*
X13015188Y-10737319D01*
X13091379Y-10699224D02*
X13091379Y-10737319D01*
X13386617Y-10975414D02*
X13377093Y-10965890D01*
X13377093Y-10965890D02*
X13358045Y-10937319D01*
X13358045Y-10937319D02*
X13348522Y-10918271D01*
X13348522Y-10918271D02*
X13338998Y-10889700D01*
X13338998Y-10889700D02*
X13329474Y-10842081D01*
X13329474Y-10842081D02*
X13329474Y-10803986D01*
X13329474Y-10803986D02*
X13338998Y-10756367D01*
X13338998Y-10756367D02*
X13348522Y-10727795D01*
X13348522Y-10727795D02*
X13358045Y-10708748D01*
X13358045Y-10708748D02*
X13377093Y-10680176D01*
X13377093Y-10680176D02*
X13386617Y-10670652D01*
X13443760Y-10699224D02*
X13567569Y-10699224D01*
X13567569Y-10699224D02*
X13500903Y-10775414D01*
X13500903Y-10775414D02*
X13529474Y-10775414D01*
X13529474Y-10775414D02*
X13548522Y-10784938D01*
X13548522Y-10784938D02*
X13558045Y-10794462D01*
X13558045Y-10794462D02*
X13567569Y-10813509D01*
X13567569Y-10813509D02*
X13567569Y-10861128D01*
X13567569Y-10861128D02*
X13558045Y-10880176D01*
X13558045Y-10880176D02*
X13548522Y-10889700D01*
X13548522Y-10889700D02*
X13529474Y-10899224D01*
X13529474Y-10899224D02*
X13472331Y-10899224D01*
X13472331Y-10899224D02*
X13453284Y-10889700D01*
X13453284Y-10889700D02*
X13443760Y-10880176D01*
X13681855Y-10784938D02*
X13662807Y-10775414D01*
X13662807Y-10775414D02*
X13653284Y-10765890D01*
X13653284Y-10765890D02*
X13643760Y-10746843D01*
X13643760Y-10746843D02*
X13643760Y-10737319D01*
X13643760Y-10737319D02*
X13653284Y-10718271D01*
X13653284Y-10718271D02*
X13662807Y-10708748D01*
X13662807Y-10708748D02*
X13681855Y-10699224D01*
X13681855Y-10699224D02*
X13719950Y-10699224D01*
X13719950Y-10699224D02*
X13738998Y-10708748D01*
X13738998Y-10708748D02*
X13748522Y-10718271D01*
X13748522Y-10718271D02*
X13758045Y-10737319D01*
X13758045Y-10737319D02*
X13758045Y-10746843D01*
X13758045Y-10746843D02*
X13748522Y-10765890D01*
X13748522Y-10765890D02*
X13738998Y-10775414D01*
X13738998Y-10775414D02*
X13719950Y-10784938D01*
X13719950Y-10784938D02*
X13681855Y-10784938D01*
X13681855Y-10784938D02*
X13662807Y-10794462D01*
X13662807Y-10794462D02*
X13653284Y-10803986D01*
X13653284Y-10803986D02*
X13643760Y-10823033D01*
X13643760Y-10823033D02*
X13643760Y-10861128D01*
X13643760Y-10861128D02*
X13653284Y-10880176D01*
X13653284Y-10880176D02*
X13662807Y-10889700D01*
X13662807Y-10889700D02*
X13681855Y-10899224D01*
X13681855Y-10899224D02*
X13719950Y-10899224D01*
X13719950Y-10899224D02*
X13738998Y-10889700D01*
X13738998Y-10889700D02*
X13748522Y-10880176D01*
X13748522Y-10880176D02*
X13758045Y-10861128D01*
X13758045Y-10861128D02*
X13758045Y-10823033D01*
X13758045Y-10823033D02*
X13748522Y-10803986D01*
X13748522Y-10803986D02*
X13738998Y-10794462D01*
X13738998Y-10794462D02*
X13719950Y-10784938D01*
X13872331Y-10784938D02*
X13853284Y-10775414D01*
X13853284Y-10775414D02*
X13843760Y-10765890D01*
X13843760Y-10765890D02*
X13834236Y-10746843D01*
X13834236Y-10746843D02*
X13834236Y-10737319D01*
X13834236Y-10737319D02*
X13843760Y-10718271D01*
X13843760Y-10718271D02*
X13853284Y-10708748D01*
X13853284Y-10708748D02*
X13872331Y-10699224D01*
X13872331Y-10699224D02*
X13910426Y-10699224D01*
X13910426Y-10699224D02*
X13929474Y-10708748D01*
X13929474Y-10708748D02*
X13938998Y-10718271D01*
X13938998Y-10718271D02*
X13948522Y-10737319D01*
X13948522Y-10737319D02*
X13948522Y-10746843D01*
X13948522Y-10746843D02*
X13938998Y-10765890D01*
X13938998Y-10765890D02*
X13929474Y-10775414D01*
X13929474Y-10775414D02*
X13910426Y-10784938D01*
X13910426Y-10784938D02*
X13872331Y-10784938D01*
X13872331Y-10784938D02*
X13853284Y-10794462D01*
X13853284Y-10794462D02*
X13843760Y-10803986D01*
X13843760Y-10803986D02*
X13834236Y-10823033D01*
X13834236Y-10823033D02*
X13834236Y-10861128D01*
X13834236Y-10861128D02*
X13843760Y-10880176D01*
X13843760Y-10880176D02*
X13853284Y-10889700D01*
X13853284Y-10889700D02*
X13872331Y-10899224D01*
X13872331Y-10899224D02*
X13910426Y-10899224D01*
X13910426Y-10899224D02*
X13929474Y-10889700D01*
X13929474Y-10889700D02*
X13938998Y-10880176D01*
X13938998Y-10880176D02*
X13948522Y-10861128D01*
X13948522Y-10861128D02*
X13948522Y-10823033D01*
X13948522Y-10823033D02*
X13938998Y-10803986D01*
X13938998Y-10803986D02*
X13929474Y-10794462D01*
X13929474Y-10794462D02*
X13910426Y-10784938D01*
X14186617Y-10899224D02*
X14186617Y-10699224D01*
X14272331Y-10899224D02*
X14272331Y-10794462D01*
X14272331Y-10794462D02*
X14262807Y-10775414D01*
X14262807Y-10775414D02*
X14243760Y-10765890D01*
X14243760Y-10765890D02*
X14215188Y-10765890D01*
X14215188Y-10765890D02*
X14196141Y-10775414D01*
X14196141Y-10775414D02*
X14186617Y-10784938D01*
X14396141Y-10899224D02*
X14377093Y-10889700D01*
X14377093Y-10889700D02*
X14367569Y-10880176D01*
X14367569Y-10880176D02*
X14358046Y-10861128D01*
X14358046Y-10861128D02*
X14358046Y-10803986D01*
X14358046Y-10803986D02*
X14367569Y-10784938D01*
X14367569Y-10784938D02*
X14377093Y-10775414D01*
X14377093Y-10775414D02*
X14396141Y-10765890D01*
X14396141Y-10765890D02*
X14424712Y-10765890D01*
X14424712Y-10765890D02*
X14443760Y-10775414D01*
X14443760Y-10775414D02*
X14453284Y-10784938D01*
X14453284Y-10784938D02*
X14462807Y-10803986D01*
X14462807Y-10803986D02*
X14462807Y-10861128D01*
X14462807Y-10861128D02*
X14453284Y-10880176D01*
X14453284Y-10880176D02*
X14443760Y-10889700D01*
X14443760Y-10889700D02*
X14424712Y-10899224D01*
X14424712Y-10899224D02*
X14396141Y-10899224D01*
X14577093Y-10899224D02*
X14558046Y-10889700D01*
X14558046Y-10889700D02*
X14548522Y-10870652D01*
X14548522Y-10870652D02*
X14548522Y-10699224D01*
X14729474Y-10889700D02*
X14710427Y-10899224D01*
X14710427Y-10899224D02*
X14672331Y-10899224D01*
X14672331Y-10899224D02*
X14653284Y-10889700D01*
X14653284Y-10889700D02*
X14643760Y-10870652D01*
X14643760Y-10870652D02*
X14643760Y-10794462D01*
X14643760Y-10794462D02*
X14653284Y-10775414D01*
X14653284Y-10775414D02*
X14672331Y-10765890D01*
X14672331Y-10765890D02*
X14710427Y-10765890D01*
X14710427Y-10765890D02*
X14729474Y-10775414D01*
X14729474Y-10775414D02*
X14738998Y-10794462D01*
X14738998Y-10794462D02*
X14738998Y-10813509D01*
X14738998Y-10813509D02*
X14643760Y-10832557D01*
X14815188Y-10889700D02*
X14834236Y-10899224D01*
X14834236Y-10899224D02*
X14872331Y-10899224D01*
X14872331Y-10899224D02*
X14891379Y-10889700D01*
X14891379Y-10889700D02*
X14900903Y-10870652D01*
X14900903Y-10870652D02*
X14900903Y-10861128D01*
X14900903Y-10861128D02*
X14891379Y-10842081D01*
X14891379Y-10842081D02*
X14872331Y-10832557D01*
X14872331Y-10832557D02*
X14843760Y-10832557D01*
X14843760Y-10832557D02*
X14824712Y-10823033D01*
X14824712Y-10823033D02*
X14815188Y-10803986D01*
X14815188Y-10803986D02*
X14815188Y-10794462D01*
X14815188Y-10794462D02*
X14824712Y-10775414D01*
X14824712Y-10775414D02*
X14843760Y-10765890D01*
X14843760Y-10765890D02*
X14872331Y-10765890D01*
X14872331Y-10765890D02*
X14891379Y-10775414D01*
X14967569Y-10975414D02*
X14977093Y-10965890D01*
X14977093Y-10965890D02*
X14996141Y-10937319D01*
X14996141Y-10937319D02*
X15005665Y-10918271D01*
X15005665Y-10918271D02*
X15015188Y-10889700D01*
X15015188Y-10889700D02*
X15024712Y-10842081D01*
X15024712Y-10842081D02*
X15024712Y-10803986D01*
X15024712Y-10803986D02*
X15015188Y-10756367D01*
X15015188Y-10756367D02*
X15005665Y-10727795D01*
X15005665Y-10727795D02*
X14996141Y-10708748D01*
X14996141Y-10708748D02*
X14977093Y-10680176D01*
X14977093Y-10680176D02*
X14967569Y-10670652D01*
D14*
X9811554Y-11071740D02*
G75*
G03*
X9811554Y-11071740I-25000J0D01*
G01*
D12*
X10110426Y-10963224D02*
X10129474Y-10963224D01*
X10129474Y-10963224D02*
X10148521Y-10972748D01*
X10148521Y-10972748D02*
X10158045Y-10982271D01*
X10158045Y-10982271D02*
X10167569Y-11001319D01*
X10167569Y-11001319D02*
X10177093Y-11039414D01*
X10177093Y-11039414D02*
X10177093Y-11087033D01*
X10177093Y-11087033D02*
X10167569Y-11125128D01*
X10167569Y-11125128D02*
X10158045Y-11144176D01*
X10158045Y-11144176D02*
X10148521Y-11153700D01*
X10148521Y-11153700D02*
X10129474Y-11163224D01*
X10129474Y-11163224D02*
X10110426Y-11163224D01*
X10110426Y-11163224D02*
X10091379Y-11153700D01*
X10091379Y-11153700D02*
X10081855Y-11144176D01*
X10081855Y-11144176D02*
X10072331Y-11125128D01*
X10072331Y-11125128D02*
X10062807Y-11087033D01*
X10062807Y-11087033D02*
X10062807Y-11039414D01*
X10062807Y-11039414D02*
X10072331Y-11001319D01*
X10072331Y-11001319D02*
X10081855Y-10982271D01*
X10081855Y-10982271D02*
X10091379Y-10972748D01*
X10091379Y-10972748D02*
X10110426Y-10963224D01*
X10262807Y-11144176D02*
X10272331Y-11153700D01*
X10272331Y-11153700D02*
X10262807Y-11163224D01*
X10262807Y-11163224D02*
X10253283Y-11153700D01*
X10253283Y-11153700D02*
X10262807Y-11144176D01*
X10262807Y-11144176D02*
X10262807Y-11163224D01*
X10453283Y-10963224D02*
X10358045Y-10963224D01*
X10358045Y-10963224D02*
X10348521Y-11058462D01*
X10348521Y-11058462D02*
X10358045Y-11048938D01*
X10358045Y-11048938D02*
X10377093Y-11039414D01*
X10377093Y-11039414D02*
X10424712Y-11039414D01*
X10424712Y-11039414D02*
X10443760Y-11048938D01*
X10443760Y-11048938D02*
X10453283Y-11058462D01*
X10453283Y-11058462D02*
X10462807Y-11077509D01*
X10462807Y-11077509D02*
X10462807Y-11125128D01*
X10462807Y-11125128D02*
X10453283Y-11144176D01*
X10453283Y-11144176D02*
X10443760Y-11153700D01*
X10443760Y-11153700D02*
X10424712Y-11163224D01*
X10424712Y-11163224D02*
X10377093Y-11163224D01*
X10377093Y-11163224D02*
X10358045Y-11153700D01*
X10358045Y-11153700D02*
X10348521Y-11144176D01*
X10586617Y-10963224D02*
X10605664Y-10963224D01*
X10605664Y-10963224D02*
X10624712Y-10972748D01*
X10624712Y-10972748D02*
X10634236Y-10982271D01*
X10634236Y-10982271D02*
X10643760Y-11001319D01*
X10643760Y-11001319D02*
X10653283Y-11039414D01*
X10653283Y-11039414D02*
X10653283Y-11087033D01*
X10653283Y-11087033D02*
X10643760Y-11125128D01*
X10643760Y-11125128D02*
X10634236Y-11144176D01*
X10634236Y-11144176D02*
X10624712Y-11153700D01*
X10624712Y-11153700D02*
X10605664Y-11163224D01*
X10605664Y-11163224D02*
X10586617Y-11163224D01*
X10586617Y-11163224D02*
X10567569Y-11153700D01*
X10567569Y-11153700D02*
X10558045Y-11144176D01*
X10558045Y-11144176D02*
X10548521Y-11125128D01*
X10548521Y-11125128D02*
X10538998Y-11087033D01*
X10538998Y-11087033D02*
X10538998Y-11039414D01*
X10538998Y-11039414D02*
X10548521Y-11001319D01*
X10548521Y-11001319D02*
X10558045Y-10982271D01*
X10558045Y-10982271D02*
X10567569Y-10972748D01*
X10567569Y-10972748D02*
X10586617Y-10963224D01*
X10777093Y-10963224D02*
X10796141Y-10963224D01*
X10796141Y-10963224D02*
X10815188Y-10972748D01*
X10815188Y-10972748D02*
X10824712Y-10982271D01*
X10824712Y-10982271D02*
X10834236Y-11001319D01*
X10834236Y-11001319D02*
X10843760Y-11039414D01*
X10843760Y-11039414D02*
X10843760Y-11087033D01*
X10843760Y-11087033D02*
X10834236Y-11125128D01*
X10834236Y-11125128D02*
X10824712Y-11144176D01*
X10824712Y-11144176D02*
X10815188Y-11153700D01*
X10815188Y-11153700D02*
X10796141Y-11163224D01*
X10796141Y-11163224D02*
X10777093Y-11163224D01*
X10777093Y-11163224D02*
X10758045Y-11153700D01*
X10758045Y-11153700D02*
X10748521Y-11144176D01*
X10748521Y-11144176D02*
X10738998Y-11125128D01*
X10738998Y-11125128D02*
X10729474Y-11087033D01*
X10729474Y-11087033D02*
X10729474Y-11039414D01*
X10729474Y-11039414D02*
X10738998Y-11001319D01*
X10738998Y-11001319D02*
X10748521Y-10982271D01*
X10748521Y-10982271D02*
X10758045Y-10972748D01*
X10758045Y-10972748D02*
X10777093Y-10963224D01*
X10929474Y-11163224D02*
X10929474Y-11029890D01*
X10929474Y-11048938D02*
X10938998Y-11039414D01*
X10938998Y-11039414D02*
X10958045Y-11029890D01*
X10958045Y-11029890D02*
X10986617Y-11029890D01*
X10986617Y-11029890D02*
X11005664Y-11039414D01*
X11005664Y-11039414D02*
X11015188Y-11058462D01*
X11015188Y-11058462D02*
X11015188Y-11163224D01*
X11015188Y-11058462D02*
X11024712Y-11039414D01*
X11024712Y-11039414D02*
X11043760Y-11029890D01*
X11043760Y-11029890D02*
X11072331Y-11029890D01*
X11072331Y-11029890D02*
X11091379Y-11039414D01*
X11091379Y-11039414D02*
X11100902Y-11058462D01*
X11100902Y-11058462D02*
X11100902Y-11163224D01*
X11196140Y-11163224D02*
X11196140Y-11029890D01*
X11196140Y-11048938D02*
X11205664Y-11039414D01*
X11205664Y-11039414D02*
X11224712Y-11029890D01*
X11224712Y-11029890D02*
X11253283Y-11029890D01*
X11253283Y-11029890D02*
X11272331Y-11039414D01*
X11272331Y-11039414D02*
X11281855Y-11058462D01*
X11281855Y-11058462D02*
X11281855Y-11163224D01*
X11281855Y-11058462D02*
X11291379Y-11039414D01*
X11291379Y-11039414D02*
X11310426Y-11029890D01*
X11310426Y-11029890D02*
X11338998Y-11029890D01*
X11338998Y-11029890D02*
X11358045Y-11039414D01*
X11358045Y-11039414D02*
X11367569Y-11058462D01*
X11367569Y-11058462D02*
X11367569Y-11163224D01*
X11758045Y-10953700D02*
X11586617Y-11210843D01*
X12015188Y-10963224D02*
X12034236Y-10963224D01*
X12034236Y-10963224D02*
X12053283Y-10972748D01*
X12053283Y-10972748D02*
X12062807Y-10982271D01*
X12062807Y-10982271D02*
X12072331Y-11001319D01*
X12072331Y-11001319D02*
X12081855Y-11039414D01*
X12081855Y-11039414D02*
X12081855Y-11087033D01*
X12081855Y-11087033D02*
X12072331Y-11125128D01*
X12072331Y-11125128D02*
X12062807Y-11144176D01*
X12062807Y-11144176D02*
X12053283Y-11153700D01*
X12053283Y-11153700D02*
X12034236Y-11163224D01*
X12034236Y-11163224D02*
X12015188Y-11163224D01*
X12015188Y-11163224D02*
X11996141Y-11153700D01*
X11996141Y-11153700D02*
X11986617Y-11144176D01*
X11986617Y-11144176D02*
X11977093Y-11125128D01*
X11977093Y-11125128D02*
X11967569Y-11087033D01*
X11967569Y-11087033D02*
X11967569Y-11039414D01*
X11967569Y-11039414D02*
X11977093Y-11001319D01*
X11977093Y-11001319D02*
X11986617Y-10982271D01*
X11986617Y-10982271D02*
X11996141Y-10972748D01*
X11996141Y-10972748D02*
X12015188Y-10963224D01*
X12167569Y-11144176D02*
X12177093Y-11153700D01*
X12177093Y-11153700D02*
X12167569Y-11163224D01*
X12167569Y-11163224D02*
X12158045Y-11153700D01*
X12158045Y-11153700D02*
X12167569Y-11144176D01*
X12167569Y-11144176D02*
X12167569Y-11163224D01*
X12300902Y-10963224D02*
X12319950Y-10963224D01*
X12319950Y-10963224D02*
X12338998Y-10972748D01*
X12338998Y-10972748D02*
X12348522Y-10982271D01*
X12348522Y-10982271D02*
X12358045Y-11001319D01*
X12358045Y-11001319D02*
X12367569Y-11039414D01*
X12367569Y-11039414D02*
X12367569Y-11087033D01*
X12367569Y-11087033D02*
X12358045Y-11125128D01*
X12358045Y-11125128D02*
X12348522Y-11144176D01*
X12348522Y-11144176D02*
X12338998Y-11153700D01*
X12338998Y-11153700D02*
X12319950Y-11163224D01*
X12319950Y-11163224D02*
X12300902Y-11163224D01*
X12300902Y-11163224D02*
X12281855Y-11153700D01*
X12281855Y-11153700D02*
X12272331Y-11144176D01*
X12272331Y-11144176D02*
X12262807Y-11125128D01*
X12262807Y-11125128D02*
X12253283Y-11087033D01*
X12253283Y-11087033D02*
X12253283Y-11039414D01*
X12253283Y-11039414D02*
X12262807Y-11001319D01*
X12262807Y-11001319D02*
X12272331Y-10982271D01*
X12272331Y-10982271D02*
X12281855Y-10972748D01*
X12281855Y-10972748D02*
X12300902Y-10963224D01*
X12558045Y-11163224D02*
X12443760Y-11163224D01*
X12500902Y-11163224D02*
X12500902Y-10963224D01*
X12500902Y-10963224D02*
X12481855Y-10991795D01*
X12481855Y-10991795D02*
X12462807Y-11010843D01*
X12462807Y-11010843D02*
X12443760Y-11020367D01*
X12653283Y-11163224D02*
X12691379Y-11163224D01*
X12691379Y-11163224D02*
X12710426Y-11153700D01*
X12710426Y-11153700D02*
X12719950Y-11144176D01*
X12719950Y-11144176D02*
X12738998Y-11115605D01*
X12738998Y-11115605D02*
X12748522Y-11077509D01*
X12748522Y-11077509D02*
X12748522Y-11001319D01*
X12748522Y-11001319D02*
X12738998Y-10982271D01*
X12738998Y-10982271D02*
X12729474Y-10972748D01*
X12729474Y-10972748D02*
X12710426Y-10963224D01*
X12710426Y-10963224D02*
X12672331Y-10963224D01*
X12672331Y-10963224D02*
X12653283Y-10972748D01*
X12653283Y-10972748D02*
X12643760Y-10982271D01*
X12643760Y-10982271D02*
X12634236Y-11001319D01*
X12634236Y-11001319D02*
X12634236Y-11048938D01*
X12634236Y-11048938D02*
X12643760Y-11067986D01*
X12643760Y-11067986D02*
X12653283Y-11077509D01*
X12653283Y-11077509D02*
X12672331Y-11087033D01*
X12672331Y-11087033D02*
X12710426Y-11087033D01*
X12710426Y-11087033D02*
X12729474Y-11077509D01*
X12729474Y-11077509D02*
X12738998Y-11067986D01*
X12738998Y-11067986D02*
X12748522Y-11048938D01*
X12815188Y-10963224D02*
X12948522Y-10963224D01*
X12948522Y-10963224D02*
X12862807Y-11163224D01*
X13015188Y-10963224D02*
X13015188Y-11001319D01*
X13091379Y-10963224D02*
X13091379Y-11001319D01*
X13386617Y-11239414D02*
X13377093Y-11229890D01*
X13377093Y-11229890D02*
X13358045Y-11201319D01*
X13358045Y-11201319D02*
X13348522Y-11182271D01*
X13348522Y-11182271D02*
X13338998Y-11153700D01*
X13338998Y-11153700D02*
X13329474Y-11106081D01*
X13329474Y-11106081D02*
X13329474Y-11067986D01*
X13329474Y-11067986D02*
X13338998Y-11020367D01*
X13338998Y-11020367D02*
X13348522Y-10991795D01*
X13348522Y-10991795D02*
X13358045Y-10972748D01*
X13358045Y-10972748D02*
X13377093Y-10944176D01*
X13377093Y-10944176D02*
X13386617Y-10934652D01*
X13548522Y-11029890D02*
X13548522Y-11163224D01*
X13500903Y-10953700D02*
X13453284Y-11096557D01*
X13453284Y-11096557D02*
X13577093Y-11096557D01*
X13805665Y-11163224D02*
X13805665Y-10963224D01*
X13891379Y-11163224D02*
X13891379Y-11058462D01*
X13891379Y-11058462D02*
X13881855Y-11039414D01*
X13881855Y-11039414D02*
X13862807Y-11029890D01*
X13862807Y-11029890D02*
X13834236Y-11029890D01*
X13834236Y-11029890D02*
X13815188Y-11039414D01*
X13815188Y-11039414D02*
X13805665Y-11048938D01*
X14015188Y-11163224D02*
X13996141Y-11153700D01*
X13996141Y-11153700D02*
X13986617Y-11144176D01*
X13986617Y-11144176D02*
X13977093Y-11125128D01*
X13977093Y-11125128D02*
X13977093Y-11067986D01*
X13977093Y-11067986D02*
X13986617Y-11048938D01*
X13986617Y-11048938D02*
X13996141Y-11039414D01*
X13996141Y-11039414D02*
X14015188Y-11029890D01*
X14015188Y-11029890D02*
X14043760Y-11029890D01*
X14043760Y-11029890D02*
X14062807Y-11039414D01*
X14062807Y-11039414D02*
X14072331Y-11048938D01*
X14072331Y-11048938D02*
X14081855Y-11067986D01*
X14081855Y-11067986D02*
X14081855Y-11125128D01*
X14081855Y-11125128D02*
X14072331Y-11144176D01*
X14072331Y-11144176D02*
X14062807Y-11153700D01*
X14062807Y-11153700D02*
X14043760Y-11163224D01*
X14043760Y-11163224D02*
X14015188Y-11163224D01*
X14196141Y-11163224D02*
X14177093Y-11153700D01*
X14177093Y-11153700D02*
X14167569Y-11134652D01*
X14167569Y-11134652D02*
X14167569Y-10963224D01*
X14348522Y-11153700D02*
X14329474Y-11163224D01*
X14329474Y-11163224D02*
X14291379Y-11163224D01*
X14291379Y-11163224D02*
X14272331Y-11153700D01*
X14272331Y-11153700D02*
X14262807Y-11134652D01*
X14262807Y-11134652D02*
X14262807Y-11058462D01*
X14262807Y-11058462D02*
X14272331Y-11039414D01*
X14272331Y-11039414D02*
X14291379Y-11029890D01*
X14291379Y-11029890D02*
X14329474Y-11029890D01*
X14329474Y-11029890D02*
X14348522Y-11039414D01*
X14348522Y-11039414D02*
X14358046Y-11058462D01*
X14358046Y-11058462D02*
X14358046Y-11077509D01*
X14358046Y-11077509D02*
X14262807Y-11096557D01*
X14434236Y-11153700D02*
X14453284Y-11163224D01*
X14453284Y-11163224D02*
X14491379Y-11163224D01*
X14491379Y-11163224D02*
X14510427Y-11153700D01*
X14510427Y-11153700D02*
X14519950Y-11134652D01*
X14519950Y-11134652D02*
X14519950Y-11125128D01*
X14519950Y-11125128D02*
X14510427Y-11106081D01*
X14510427Y-11106081D02*
X14491379Y-11096557D01*
X14491379Y-11096557D02*
X14462807Y-11096557D01*
X14462807Y-11096557D02*
X14443760Y-11087033D01*
X14443760Y-11087033D02*
X14434236Y-11067986D01*
X14434236Y-11067986D02*
X14434236Y-11058462D01*
X14434236Y-11058462D02*
X14443760Y-11039414D01*
X14443760Y-11039414D02*
X14462807Y-11029890D01*
X14462807Y-11029890D02*
X14491379Y-11029890D01*
X14491379Y-11029890D02*
X14510427Y-11039414D01*
X14586617Y-11239414D02*
X14596141Y-11229890D01*
X14596141Y-11229890D02*
X14615188Y-11201319D01*
X14615188Y-11201319D02*
X14624712Y-11182271D01*
X14624712Y-11182271D02*
X14634236Y-11153700D01*
X14634236Y-11153700D02*
X14643760Y-11106081D01*
X14643760Y-11106081D02*
X14643760Y-11067986D01*
X14643760Y-11067986D02*
X14634236Y-11020367D01*
X14634236Y-11020367D02*
X14624712Y-10991795D01*
X14624712Y-10991795D02*
X14615188Y-10972748D01*
X14615188Y-10972748D02*
X14596141Y-10944176D01*
X14596141Y-10944176D02*
X14586617Y-10934652D01*
X14948522Y-11239414D02*
X14938998Y-11229890D01*
X14938998Y-11229890D02*
X14919950Y-11201319D01*
X14919950Y-11201319D02*
X14910427Y-11182271D01*
X14910427Y-11182271D02*
X14900903Y-11153700D01*
X14900903Y-11153700D02*
X14891379Y-11106081D01*
X14891379Y-11106081D02*
X14891379Y-11067986D01*
X14891379Y-11067986D02*
X14900903Y-11020367D01*
X14900903Y-11020367D02*
X14910427Y-10991795D01*
X14910427Y-10991795D02*
X14919950Y-10972748D01*
X14919950Y-10972748D02*
X14938998Y-10944176D01*
X14938998Y-10944176D02*
X14948522Y-10934652D01*
X15024712Y-11029890D02*
X15024712Y-11163224D01*
X15024712Y-11048938D02*
X15034236Y-11039414D01*
X15034236Y-11039414D02*
X15053284Y-11029890D01*
X15053284Y-11029890D02*
X15081855Y-11029890D01*
X15081855Y-11029890D02*
X15100903Y-11039414D01*
X15100903Y-11039414D02*
X15110427Y-11058462D01*
X15110427Y-11058462D02*
X15110427Y-11163224D01*
X15234236Y-11163224D02*
X15215188Y-11153700D01*
X15215188Y-11153700D02*
X15205665Y-11144176D01*
X15205665Y-11144176D02*
X15196141Y-11125128D01*
X15196141Y-11125128D02*
X15196141Y-11067986D01*
X15196141Y-11067986D02*
X15205665Y-11048938D01*
X15205665Y-11048938D02*
X15215188Y-11039414D01*
X15215188Y-11039414D02*
X15234236Y-11029890D01*
X15234236Y-11029890D02*
X15262808Y-11029890D01*
X15262808Y-11029890D02*
X15281855Y-11039414D01*
X15281855Y-11039414D02*
X15291379Y-11048938D01*
X15291379Y-11048938D02*
X15300903Y-11067986D01*
X15300903Y-11067986D02*
X15300903Y-11125128D01*
X15300903Y-11125128D02*
X15291379Y-11144176D01*
X15291379Y-11144176D02*
X15281855Y-11153700D01*
X15281855Y-11153700D02*
X15262808Y-11163224D01*
X15262808Y-11163224D02*
X15234236Y-11163224D01*
X15358046Y-11029890D02*
X15434236Y-11029890D01*
X15386617Y-10963224D02*
X15386617Y-11134652D01*
X15386617Y-11134652D02*
X15396141Y-11153700D01*
X15396141Y-11153700D02*
X15415188Y-11163224D01*
X15415188Y-11163224D02*
X15434236Y-11163224D01*
X15653284Y-11029890D02*
X15653284Y-11229890D01*
X15653284Y-11039414D02*
X15672331Y-11029890D01*
X15672331Y-11029890D02*
X15710427Y-11029890D01*
X15710427Y-11029890D02*
X15729474Y-11039414D01*
X15729474Y-11039414D02*
X15738998Y-11048938D01*
X15738998Y-11048938D02*
X15748522Y-11067986D01*
X15748522Y-11067986D02*
X15748522Y-11125128D01*
X15748522Y-11125128D02*
X15738998Y-11144176D01*
X15738998Y-11144176D02*
X15729474Y-11153700D01*
X15729474Y-11153700D02*
X15710427Y-11163224D01*
X15710427Y-11163224D02*
X15672331Y-11163224D01*
X15672331Y-11163224D02*
X15653284Y-11153700D01*
X15862808Y-11163224D02*
X15843760Y-11153700D01*
X15843760Y-11153700D02*
X15834236Y-11134652D01*
X15834236Y-11134652D02*
X15834236Y-10963224D01*
X16024712Y-11163224D02*
X16024712Y-11058462D01*
X16024712Y-11058462D02*
X16015189Y-11039414D01*
X16015189Y-11039414D02*
X15996141Y-11029890D01*
X15996141Y-11029890D02*
X15958046Y-11029890D01*
X15958046Y-11029890D02*
X15938998Y-11039414D01*
X16024712Y-11153700D02*
X16005665Y-11163224D01*
X16005665Y-11163224D02*
X15958046Y-11163224D01*
X15958046Y-11163224D02*
X15938998Y-11153700D01*
X15938998Y-11153700D02*
X15929474Y-11134652D01*
X15929474Y-11134652D02*
X15929474Y-11115605D01*
X15929474Y-11115605D02*
X15938998Y-11096557D01*
X15938998Y-11096557D02*
X15958046Y-11087033D01*
X15958046Y-11087033D02*
X16005665Y-11087033D01*
X16005665Y-11087033D02*
X16024712Y-11077509D01*
X16091379Y-11029890D02*
X16167569Y-11029890D01*
X16119950Y-10963224D02*
X16119950Y-11134652D01*
X16119950Y-11134652D02*
X16129474Y-11153700D01*
X16129474Y-11153700D02*
X16148522Y-11163224D01*
X16148522Y-11163224D02*
X16167569Y-11163224D01*
X16310427Y-11153700D02*
X16291379Y-11163224D01*
X16291379Y-11163224D02*
X16253284Y-11163224D01*
X16253284Y-11163224D02*
X16234236Y-11153700D01*
X16234236Y-11153700D02*
X16224712Y-11134652D01*
X16224712Y-11134652D02*
X16224712Y-11058462D01*
X16224712Y-11058462D02*
X16234236Y-11039414D01*
X16234236Y-11039414D02*
X16253284Y-11029890D01*
X16253284Y-11029890D02*
X16291379Y-11029890D01*
X16291379Y-11029890D02*
X16310427Y-11039414D01*
X16310427Y-11039414D02*
X16319950Y-11058462D01*
X16319950Y-11058462D02*
X16319950Y-11077509D01*
X16319950Y-11077509D02*
X16224712Y-11096557D01*
X16491379Y-11163224D02*
X16491379Y-10963224D01*
X16491379Y-11153700D02*
X16472331Y-11163224D01*
X16472331Y-11163224D02*
X16434236Y-11163224D01*
X16434236Y-11163224D02*
X16415189Y-11153700D01*
X16415189Y-11153700D02*
X16405665Y-11144176D01*
X16405665Y-11144176D02*
X16396141Y-11125128D01*
X16396141Y-11125128D02*
X16396141Y-11067986D01*
X16396141Y-11067986D02*
X16405665Y-11048938D01*
X16405665Y-11048938D02*
X16415189Y-11039414D01*
X16415189Y-11039414D02*
X16434236Y-11029890D01*
X16434236Y-11029890D02*
X16472331Y-11029890D01*
X16472331Y-11029890D02*
X16491379Y-11039414D01*
X16567570Y-11239414D02*
X16577093Y-11229890D01*
X16577093Y-11229890D02*
X16596141Y-11201319D01*
X16596141Y-11201319D02*
X16605665Y-11182271D01*
X16605665Y-11182271D02*
X16615189Y-11153700D01*
X16615189Y-11153700D02*
X16624712Y-11106081D01*
X16624712Y-11106081D02*
X16624712Y-11067986D01*
X16624712Y-11067986D02*
X16615189Y-11020367D01*
X16615189Y-11020367D02*
X16605665Y-10991795D01*
X16605665Y-10991795D02*
X16596141Y-10972748D01*
X16596141Y-10972748D02*
X16577093Y-10944176D01*
X16577093Y-10944176D02*
X16567570Y-10934652D01*
D15*
X9781554Y-11305740D02*
X9781554Y-11365740D01*
X9751554Y-11335740D02*
X9811554Y-11335740D01*
D12*
X10110426Y-11227224D02*
X10129474Y-11227224D01*
X10129474Y-11227224D02*
X10148521Y-11236747D01*
X10148521Y-11236747D02*
X10158045Y-11246271D01*
X10158045Y-11246271D02*
X10167569Y-11265319D01*
X10167569Y-11265319D02*
X10177093Y-11303414D01*
X10177093Y-11303414D02*
X10177093Y-11351033D01*
X10177093Y-11351033D02*
X10167569Y-11389128D01*
X10167569Y-11389128D02*
X10158045Y-11408176D01*
X10158045Y-11408176D02*
X10148521Y-11417700D01*
X10148521Y-11417700D02*
X10129474Y-11427224D01*
X10129474Y-11427224D02*
X10110426Y-11427224D01*
X10110426Y-11427224D02*
X10091379Y-11417700D01*
X10091379Y-11417700D02*
X10081855Y-11408176D01*
X10081855Y-11408176D02*
X10072331Y-11389128D01*
X10072331Y-11389128D02*
X10062807Y-11351033D01*
X10062807Y-11351033D02*
X10062807Y-11303414D01*
X10062807Y-11303414D02*
X10072331Y-11265319D01*
X10072331Y-11265319D02*
X10081855Y-11246271D01*
X10081855Y-11246271D02*
X10091379Y-11236747D01*
X10091379Y-11236747D02*
X10110426Y-11227224D01*
X10262807Y-11408176D02*
X10272331Y-11417700D01*
X10272331Y-11417700D02*
X10262807Y-11427224D01*
X10262807Y-11427224D02*
X10253283Y-11417700D01*
X10253283Y-11417700D02*
X10262807Y-11408176D01*
X10262807Y-11408176D02*
X10262807Y-11427224D01*
X10443760Y-11227224D02*
X10405664Y-11227224D01*
X10405664Y-11227224D02*
X10386617Y-11236747D01*
X10386617Y-11236747D02*
X10377093Y-11246271D01*
X10377093Y-11246271D02*
X10358045Y-11274843D01*
X10358045Y-11274843D02*
X10348521Y-11312938D01*
X10348521Y-11312938D02*
X10348521Y-11389128D01*
X10348521Y-11389128D02*
X10358045Y-11408176D01*
X10358045Y-11408176D02*
X10367569Y-11417700D01*
X10367569Y-11417700D02*
X10386617Y-11427224D01*
X10386617Y-11427224D02*
X10424712Y-11427224D01*
X10424712Y-11427224D02*
X10443760Y-11417700D01*
X10443760Y-11417700D02*
X10453283Y-11408176D01*
X10453283Y-11408176D02*
X10462807Y-11389128D01*
X10462807Y-11389128D02*
X10462807Y-11341509D01*
X10462807Y-11341509D02*
X10453283Y-11322462D01*
X10453283Y-11322462D02*
X10443760Y-11312938D01*
X10443760Y-11312938D02*
X10424712Y-11303414D01*
X10424712Y-11303414D02*
X10386617Y-11303414D01*
X10386617Y-11303414D02*
X10367569Y-11312938D01*
X10367569Y-11312938D02*
X10358045Y-11322462D01*
X10358045Y-11322462D02*
X10348521Y-11341509D01*
X10586617Y-11227224D02*
X10605664Y-11227224D01*
X10605664Y-11227224D02*
X10624712Y-11236747D01*
X10624712Y-11236747D02*
X10634236Y-11246271D01*
X10634236Y-11246271D02*
X10643760Y-11265319D01*
X10643760Y-11265319D02*
X10653283Y-11303414D01*
X10653283Y-11303414D02*
X10653283Y-11351033D01*
X10653283Y-11351033D02*
X10643760Y-11389128D01*
X10643760Y-11389128D02*
X10634236Y-11408176D01*
X10634236Y-11408176D02*
X10624712Y-11417700D01*
X10624712Y-11417700D02*
X10605664Y-11427224D01*
X10605664Y-11427224D02*
X10586617Y-11427224D01*
X10586617Y-11427224D02*
X10567569Y-11417700D01*
X10567569Y-11417700D02*
X10558045Y-11408176D01*
X10558045Y-11408176D02*
X10548521Y-11389128D01*
X10548521Y-11389128D02*
X10538998Y-11351033D01*
X10538998Y-11351033D02*
X10538998Y-11303414D01*
X10538998Y-11303414D02*
X10548521Y-11265319D01*
X10548521Y-11265319D02*
X10558045Y-11246271D01*
X10558045Y-11246271D02*
X10567569Y-11236747D01*
X10567569Y-11236747D02*
X10586617Y-11227224D01*
X10777093Y-11227224D02*
X10796141Y-11227224D01*
X10796141Y-11227224D02*
X10815188Y-11236747D01*
X10815188Y-11236747D02*
X10824712Y-11246271D01*
X10824712Y-11246271D02*
X10834236Y-11265319D01*
X10834236Y-11265319D02*
X10843760Y-11303414D01*
X10843760Y-11303414D02*
X10843760Y-11351033D01*
X10843760Y-11351033D02*
X10834236Y-11389128D01*
X10834236Y-11389128D02*
X10824712Y-11408176D01*
X10824712Y-11408176D02*
X10815188Y-11417700D01*
X10815188Y-11417700D02*
X10796141Y-11427224D01*
X10796141Y-11427224D02*
X10777093Y-11427224D01*
X10777093Y-11427224D02*
X10758045Y-11417700D01*
X10758045Y-11417700D02*
X10748521Y-11408176D01*
X10748521Y-11408176D02*
X10738998Y-11389128D01*
X10738998Y-11389128D02*
X10729474Y-11351033D01*
X10729474Y-11351033D02*
X10729474Y-11303414D01*
X10729474Y-11303414D02*
X10738998Y-11265319D01*
X10738998Y-11265319D02*
X10748521Y-11246271D01*
X10748521Y-11246271D02*
X10758045Y-11236747D01*
X10758045Y-11236747D02*
X10777093Y-11227224D01*
X10929474Y-11427224D02*
X10929474Y-11293890D01*
X10929474Y-11312938D02*
X10938998Y-11303414D01*
X10938998Y-11303414D02*
X10958045Y-11293890D01*
X10958045Y-11293890D02*
X10986617Y-11293890D01*
X10986617Y-11293890D02*
X11005664Y-11303414D01*
X11005664Y-11303414D02*
X11015188Y-11322462D01*
X11015188Y-11322462D02*
X11015188Y-11427224D01*
X11015188Y-11322462D02*
X11024712Y-11303414D01*
X11024712Y-11303414D02*
X11043760Y-11293890D01*
X11043760Y-11293890D02*
X11072331Y-11293890D01*
X11072331Y-11293890D02*
X11091379Y-11303414D01*
X11091379Y-11303414D02*
X11100902Y-11322462D01*
X11100902Y-11322462D02*
X11100902Y-11427224D01*
X11196140Y-11427224D02*
X11196140Y-11293890D01*
X11196140Y-11312938D02*
X11205664Y-11303414D01*
X11205664Y-11303414D02*
X11224712Y-11293890D01*
X11224712Y-11293890D02*
X11253283Y-11293890D01*
X11253283Y-11293890D02*
X11272331Y-11303414D01*
X11272331Y-11303414D02*
X11281855Y-11322462D01*
X11281855Y-11322462D02*
X11281855Y-11427224D01*
X11281855Y-11322462D02*
X11291379Y-11303414D01*
X11291379Y-11303414D02*
X11310426Y-11293890D01*
X11310426Y-11293890D02*
X11338998Y-11293890D01*
X11338998Y-11293890D02*
X11358045Y-11303414D01*
X11358045Y-11303414D02*
X11367569Y-11322462D01*
X11367569Y-11322462D02*
X11367569Y-11427224D01*
X11758045Y-11217700D02*
X11586617Y-11474843D01*
X12015188Y-11227224D02*
X12034236Y-11227224D01*
X12034236Y-11227224D02*
X12053283Y-11236747D01*
X12053283Y-11236747D02*
X12062807Y-11246271D01*
X12062807Y-11246271D02*
X12072331Y-11265319D01*
X12072331Y-11265319D02*
X12081855Y-11303414D01*
X12081855Y-11303414D02*
X12081855Y-11351033D01*
X12081855Y-11351033D02*
X12072331Y-11389128D01*
X12072331Y-11389128D02*
X12062807Y-11408176D01*
X12062807Y-11408176D02*
X12053283Y-11417700D01*
X12053283Y-11417700D02*
X12034236Y-11427224D01*
X12034236Y-11427224D02*
X12015188Y-11427224D01*
X12015188Y-11427224D02*
X11996141Y-11417700D01*
X11996141Y-11417700D02*
X11986617Y-11408176D01*
X11986617Y-11408176D02*
X11977093Y-11389128D01*
X11977093Y-11389128D02*
X11967569Y-11351033D01*
X11967569Y-11351033D02*
X11967569Y-11303414D01*
X11967569Y-11303414D02*
X11977093Y-11265319D01*
X11977093Y-11265319D02*
X11986617Y-11246271D01*
X11986617Y-11246271D02*
X11996141Y-11236747D01*
X11996141Y-11236747D02*
X12015188Y-11227224D01*
X12167569Y-11408176D02*
X12177093Y-11417700D01*
X12177093Y-11417700D02*
X12167569Y-11427224D01*
X12167569Y-11427224D02*
X12158045Y-11417700D01*
X12158045Y-11417700D02*
X12167569Y-11408176D01*
X12167569Y-11408176D02*
X12167569Y-11427224D01*
X12300902Y-11227224D02*
X12319950Y-11227224D01*
X12319950Y-11227224D02*
X12338998Y-11236747D01*
X12338998Y-11236747D02*
X12348522Y-11246271D01*
X12348522Y-11246271D02*
X12358045Y-11265319D01*
X12358045Y-11265319D02*
X12367569Y-11303414D01*
X12367569Y-11303414D02*
X12367569Y-11351033D01*
X12367569Y-11351033D02*
X12358045Y-11389128D01*
X12358045Y-11389128D02*
X12348522Y-11408176D01*
X12348522Y-11408176D02*
X12338998Y-11417700D01*
X12338998Y-11417700D02*
X12319950Y-11427224D01*
X12319950Y-11427224D02*
X12300902Y-11427224D01*
X12300902Y-11427224D02*
X12281855Y-11417700D01*
X12281855Y-11417700D02*
X12272331Y-11408176D01*
X12272331Y-11408176D02*
X12262807Y-11389128D01*
X12262807Y-11389128D02*
X12253283Y-11351033D01*
X12253283Y-11351033D02*
X12253283Y-11303414D01*
X12253283Y-11303414D02*
X12262807Y-11265319D01*
X12262807Y-11265319D02*
X12272331Y-11246271D01*
X12272331Y-11246271D02*
X12281855Y-11236747D01*
X12281855Y-11236747D02*
X12300902Y-11227224D01*
X12443760Y-11246271D02*
X12453283Y-11236747D01*
X12453283Y-11236747D02*
X12472331Y-11227224D01*
X12472331Y-11227224D02*
X12519950Y-11227224D01*
X12519950Y-11227224D02*
X12538998Y-11236747D01*
X12538998Y-11236747D02*
X12548522Y-11246271D01*
X12548522Y-11246271D02*
X12558045Y-11265319D01*
X12558045Y-11265319D02*
X12558045Y-11284366D01*
X12558045Y-11284366D02*
X12548522Y-11312938D01*
X12548522Y-11312938D02*
X12434236Y-11427224D01*
X12434236Y-11427224D02*
X12558045Y-11427224D01*
X12624712Y-11227224D02*
X12748522Y-11227224D01*
X12748522Y-11227224D02*
X12681855Y-11303414D01*
X12681855Y-11303414D02*
X12710426Y-11303414D01*
X12710426Y-11303414D02*
X12729474Y-11312938D01*
X12729474Y-11312938D02*
X12738998Y-11322462D01*
X12738998Y-11322462D02*
X12748522Y-11341509D01*
X12748522Y-11341509D02*
X12748522Y-11389128D01*
X12748522Y-11389128D02*
X12738998Y-11408176D01*
X12738998Y-11408176D02*
X12729474Y-11417700D01*
X12729474Y-11417700D02*
X12710426Y-11427224D01*
X12710426Y-11427224D02*
X12653283Y-11427224D01*
X12653283Y-11427224D02*
X12634236Y-11417700D01*
X12634236Y-11417700D02*
X12624712Y-11408176D01*
X12919950Y-11227224D02*
X12881855Y-11227224D01*
X12881855Y-11227224D02*
X12862807Y-11236747D01*
X12862807Y-11236747D02*
X12853283Y-11246271D01*
X12853283Y-11246271D02*
X12834236Y-11274843D01*
X12834236Y-11274843D02*
X12824712Y-11312938D01*
X12824712Y-11312938D02*
X12824712Y-11389128D01*
X12824712Y-11389128D02*
X12834236Y-11408176D01*
X12834236Y-11408176D02*
X12843760Y-11417700D01*
X12843760Y-11417700D02*
X12862807Y-11427224D01*
X12862807Y-11427224D02*
X12900903Y-11427224D01*
X12900903Y-11427224D02*
X12919950Y-11417700D01*
X12919950Y-11417700D02*
X12929474Y-11408176D01*
X12929474Y-11408176D02*
X12938998Y-11389128D01*
X12938998Y-11389128D02*
X12938998Y-11341509D01*
X12938998Y-11341509D02*
X12929474Y-11322462D01*
X12929474Y-11322462D02*
X12919950Y-11312938D01*
X12919950Y-11312938D02*
X12900903Y-11303414D01*
X12900903Y-11303414D02*
X12862807Y-11303414D01*
X12862807Y-11303414D02*
X12843760Y-11312938D01*
X12843760Y-11312938D02*
X12834236Y-11322462D01*
X12834236Y-11322462D02*
X12824712Y-11341509D01*
X13015188Y-11227224D02*
X13015188Y-11265319D01*
X13091379Y-11227224D02*
X13091379Y-11265319D01*
X13386617Y-11503414D02*
X13377093Y-11493890D01*
X13377093Y-11493890D02*
X13358045Y-11465319D01*
X13358045Y-11465319D02*
X13348522Y-11446271D01*
X13348522Y-11446271D02*
X13338998Y-11417700D01*
X13338998Y-11417700D02*
X13329474Y-11370081D01*
X13329474Y-11370081D02*
X13329474Y-11331986D01*
X13329474Y-11331986D02*
X13338998Y-11284366D01*
X13338998Y-11284366D02*
X13348522Y-11255795D01*
X13348522Y-11255795D02*
X13358045Y-11236747D01*
X13358045Y-11236747D02*
X13377093Y-11208176D01*
X13377093Y-11208176D02*
X13386617Y-11198652D01*
X13453284Y-11246271D02*
X13462807Y-11236747D01*
X13462807Y-11236747D02*
X13481855Y-11227224D01*
X13481855Y-11227224D02*
X13529474Y-11227224D01*
X13529474Y-11227224D02*
X13548522Y-11236747D01*
X13548522Y-11236747D02*
X13558045Y-11246271D01*
X13558045Y-11246271D02*
X13567569Y-11265319D01*
X13567569Y-11265319D02*
X13567569Y-11284366D01*
X13567569Y-11284366D02*
X13558045Y-11312938D01*
X13558045Y-11312938D02*
X13443760Y-11427224D01*
X13443760Y-11427224D02*
X13567569Y-11427224D01*
X13691379Y-11227224D02*
X13710426Y-11227224D01*
X13710426Y-11227224D02*
X13729474Y-11236747D01*
X13729474Y-11236747D02*
X13738998Y-11246271D01*
X13738998Y-11246271D02*
X13748522Y-11265319D01*
X13748522Y-11265319D02*
X13758045Y-11303414D01*
X13758045Y-11303414D02*
X13758045Y-11351033D01*
X13758045Y-11351033D02*
X13748522Y-11389128D01*
X13748522Y-11389128D02*
X13738998Y-11408176D01*
X13738998Y-11408176D02*
X13729474Y-11417700D01*
X13729474Y-11417700D02*
X13710426Y-11427224D01*
X13710426Y-11427224D02*
X13691379Y-11427224D01*
X13691379Y-11427224D02*
X13672331Y-11417700D01*
X13672331Y-11417700D02*
X13662807Y-11408176D01*
X13662807Y-11408176D02*
X13653284Y-11389128D01*
X13653284Y-11389128D02*
X13643760Y-11351033D01*
X13643760Y-11351033D02*
X13643760Y-11303414D01*
X13643760Y-11303414D02*
X13653284Y-11265319D01*
X13653284Y-11265319D02*
X13662807Y-11246271D01*
X13662807Y-11246271D02*
X13672331Y-11236747D01*
X13672331Y-11236747D02*
X13691379Y-11227224D01*
X13996141Y-11427224D02*
X13996141Y-11227224D01*
X14081855Y-11427224D02*
X14081855Y-11322462D01*
X14081855Y-11322462D02*
X14072331Y-11303414D01*
X14072331Y-11303414D02*
X14053284Y-11293890D01*
X14053284Y-11293890D02*
X14024712Y-11293890D01*
X14024712Y-11293890D02*
X14005665Y-11303414D01*
X14005665Y-11303414D02*
X13996141Y-11312938D01*
X14205665Y-11427224D02*
X14186617Y-11417700D01*
X14186617Y-11417700D02*
X14177093Y-11408176D01*
X14177093Y-11408176D02*
X14167569Y-11389128D01*
X14167569Y-11389128D02*
X14167569Y-11331986D01*
X14167569Y-11331986D02*
X14177093Y-11312938D01*
X14177093Y-11312938D02*
X14186617Y-11303414D01*
X14186617Y-11303414D02*
X14205665Y-11293890D01*
X14205665Y-11293890D02*
X14234236Y-11293890D01*
X14234236Y-11293890D02*
X14253284Y-11303414D01*
X14253284Y-11303414D02*
X14262807Y-11312938D01*
X14262807Y-11312938D02*
X14272331Y-11331986D01*
X14272331Y-11331986D02*
X14272331Y-11389128D01*
X14272331Y-11389128D02*
X14262807Y-11408176D01*
X14262807Y-11408176D02*
X14253284Y-11417700D01*
X14253284Y-11417700D02*
X14234236Y-11427224D01*
X14234236Y-11427224D02*
X14205665Y-11427224D01*
X14386617Y-11427224D02*
X14367569Y-11417700D01*
X14367569Y-11417700D02*
X14358046Y-11398652D01*
X14358046Y-11398652D02*
X14358046Y-11227224D01*
X14538998Y-11417700D02*
X14519950Y-11427224D01*
X14519950Y-11427224D02*
X14481855Y-11427224D01*
X14481855Y-11427224D02*
X14462807Y-11417700D01*
X14462807Y-11417700D02*
X14453284Y-11398652D01*
X14453284Y-11398652D02*
X14453284Y-11322462D01*
X14453284Y-11322462D02*
X14462807Y-11303414D01*
X14462807Y-11303414D02*
X14481855Y-11293890D01*
X14481855Y-11293890D02*
X14519950Y-11293890D01*
X14519950Y-11293890D02*
X14538998Y-11303414D01*
X14538998Y-11303414D02*
X14548522Y-11322462D01*
X14548522Y-11322462D02*
X14548522Y-11341509D01*
X14548522Y-11341509D02*
X14453284Y-11360557D01*
X14624712Y-11417700D02*
X14643760Y-11427224D01*
X14643760Y-11427224D02*
X14681855Y-11427224D01*
X14681855Y-11427224D02*
X14700903Y-11417700D01*
X14700903Y-11417700D02*
X14710427Y-11398652D01*
X14710427Y-11398652D02*
X14710427Y-11389128D01*
X14710427Y-11389128D02*
X14700903Y-11370081D01*
X14700903Y-11370081D02*
X14681855Y-11360557D01*
X14681855Y-11360557D02*
X14653284Y-11360557D01*
X14653284Y-11360557D02*
X14634236Y-11351033D01*
X14634236Y-11351033D02*
X14624712Y-11331986D01*
X14624712Y-11331986D02*
X14624712Y-11322462D01*
X14624712Y-11322462D02*
X14634236Y-11303414D01*
X14634236Y-11303414D02*
X14653284Y-11293890D01*
X14653284Y-11293890D02*
X14681855Y-11293890D01*
X14681855Y-11293890D02*
X14700903Y-11303414D01*
X14777093Y-11503414D02*
X14786617Y-11493890D01*
X14786617Y-11493890D02*
X14805665Y-11465319D01*
X14805665Y-11465319D02*
X14815188Y-11446271D01*
X14815188Y-11446271D02*
X14824712Y-11417700D01*
X14824712Y-11417700D02*
X14834236Y-11370081D01*
X14834236Y-11370081D02*
X14834236Y-11331986D01*
X14834236Y-11331986D02*
X14824712Y-11284366D01*
X14824712Y-11284366D02*
X14815188Y-11255795D01*
X14815188Y-11255795D02*
X14805665Y-11236747D01*
X14805665Y-11236747D02*
X14786617Y-11208176D01*
X14786617Y-11208176D02*
X14777093Y-11198652D01*
X15138998Y-11503414D02*
X15129474Y-11493890D01*
X15129474Y-11493890D02*
X15110427Y-11465319D01*
X15110427Y-11465319D02*
X15100903Y-11446271D01*
X15100903Y-11446271D02*
X15091379Y-11417700D01*
X15091379Y-11417700D02*
X15081855Y-11370081D01*
X15081855Y-11370081D02*
X15081855Y-11331986D01*
X15081855Y-11331986D02*
X15091379Y-11284366D01*
X15091379Y-11284366D02*
X15100903Y-11255795D01*
X15100903Y-11255795D02*
X15110427Y-11236747D01*
X15110427Y-11236747D02*
X15129474Y-11208176D01*
X15129474Y-11208176D02*
X15138998Y-11198652D01*
X15215188Y-11293890D02*
X15215188Y-11427224D01*
X15215188Y-11312938D02*
X15224712Y-11303414D01*
X15224712Y-11303414D02*
X15243760Y-11293890D01*
X15243760Y-11293890D02*
X15272331Y-11293890D01*
X15272331Y-11293890D02*
X15291379Y-11303414D01*
X15291379Y-11303414D02*
X15300903Y-11322462D01*
X15300903Y-11322462D02*
X15300903Y-11427224D01*
X15424712Y-11427224D02*
X15405665Y-11417700D01*
X15405665Y-11417700D02*
X15396141Y-11408176D01*
X15396141Y-11408176D02*
X15386617Y-11389128D01*
X15386617Y-11389128D02*
X15386617Y-11331986D01*
X15386617Y-11331986D02*
X15396141Y-11312938D01*
X15396141Y-11312938D02*
X15405665Y-11303414D01*
X15405665Y-11303414D02*
X15424712Y-11293890D01*
X15424712Y-11293890D02*
X15453284Y-11293890D01*
X15453284Y-11293890D02*
X15472331Y-11303414D01*
X15472331Y-11303414D02*
X15481855Y-11312938D01*
X15481855Y-11312938D02*
X15491379Y-11331986D01*
X15491379Y-11331986D02*
X15491379Y-11389128D01*
X15491379Y-11389128D02*
X15481855Y-11408176D01*
X15481855Y-11408176D02*
X15472331Y-11417700D01*
X15472331Y-11417700D02*
X15453284Y-11427224D01*
X15453284Y-11427224D02*
X15424712Y-11427224D01*
X15548522Y-11293890D02*
X15624712Y-11293890D01*
X15577093Y-11227224D02*
X15577093Y-11398652D01*
X15577093Y-11398652D02*
X15586617Y-11417700D01*
X15586617Y-11417700D02*
X15605665Y-11427224D01*
X15605665Y-11427224D02*
X15624712Y-11427224D01*
X15843760Y-11293890D02*
X15843760Y-11493890D01*
X15843760Y-11303414D02*
X15862808Y-11293890D01*
X15862808Y-11293890D02*
X15900903Y-11293890D01*
X15900903Y-11293890D02*
X15919950Y-11303414D01*
X15919950Y-11303414D02*
X15929474Y-11312938D01*
X15929474Y-11312938D02*
X15938998Y-11331986D01*
X15938998Y-11331986D02*
X15938998Y-11389128D01*
X15938998Y-11389128D02*
X15929474Y-11408176D01*
X15929474Y-11408176D02*
X15919950Y-11417700D01*
X15919950Y-11417700D02*
X15900903Y-11427224D01*
X15900903Y-11427224D02*
X15862808Y-11427224D01*
X15862808Y-11427224D02*
X15843760Y-11417700D01*
X16053284Y-11427224D02*
X16034236Y-11417700D01*
X16034236Y-11417700D02*
X16024712Y-11398652D01*
X16024712Y-11398652D02*
X16024712Y-11227224D01*
X16215189Y-11427224D02*
X16215189Y-11322462D01*
X16215189Y-11322462D02*
X16205665Y-11303414D01*
X16205665Y-11303414D02*
X16186617Y-11293890D01*
X16186617Y-11293890D02*
X16148522Y-11293890D01*
X16148522Y-11293890D02*
X16129474Y-11303414D01*
X16215189Y-11417700D02*
X16196141Y-11427224D01*
X16196141Y-11427224D02*
X16148522Y-11427224D01*
X16148522Y-11427224D02*
X16129474Y-11417700D01*
X16129474Y-11417700D02*
X16119950Y-11398652D01*
X16119950Y-11398652D02*
X16119950Y-11379605D01*
X16119950Y-11379605D02*
X16129474Y-11360557D01*
X16129474Y-11360557D02*
X16148522Y-11351033D01*
X16148522Y-11351033D02*
X16196141Y-11351033D01*
X16196141Y-11351033D02*
X16215189Y-11341509D01*
X16281855Y-11293890D02*
X16358046Y-11293890D01*
X16310427Y-11227224D02*
X16310427Y-11398652D01*
X16310427Y-11398652D02*
X16319950Y-11417700D01*
X16319950Y-11417700D02*
X16338998Y-11427224D01*
X16338998Y-11427224D02*
X16358046Y-11427224D01*
X16500903Y-11417700D02*
X16481855Y-11427224D01*
X16481855Y-11427224D02*
X16443760Y-11427224D01*
X16443760Y-11427224D02*
X16424712Y-11417700D01*
X16424712Y-11417700D02*
X16415189Y-11398652D01*
X16415189Y-11398652D02*
X16415189Y-11322462D01*
X16415189Y-11322462D02*
X16424712Y-11303414D01*
X16424712Y-11303414D02*
X16443760Y-11293890D01*
X16443760Y-11293890D02*
X16481855Y-11293890D01*
X16481855Y-11293890D02*
X16500903Y-11303414D01*
X16500903Y-11303414D02*
X16510427Y-11322462D01*
X16510427Y-11322462D02*
X16510427Y-11341509D01*
X16510427Y-11341509D02*
X16415189Y-11360557D01*
X16681855Y-11427224D02*
X16681855Y-11227224D01*
X16681855Y-11417700D02*
X16662808Y-11427224D01*
X16662808Y-11427224D02*
X16624712Y-11427224D01*
X16624712Y-11427224D02*
X16605665Y-11417700D01*
X16605665Y-11417700D02*
X16596141Y-11408176D01*
X16596141Y-11408176D02*
X16586617Y-11389128D01*
X16586617Y-11389128D02*
X16586617Y-11331986D01*
X16586617Y-11331986D02*
X16596141Y-11312938D01*
X16596141Y-11312938D02*
X16605665Y-11303414D01*
X16605665Y-11303414D02*
X16624712Y-11293890D01*
X16624712Y-11293890D02*
X16662808Y-11293890D01*
X16662808Y-11293890D02*
X16681855Y-11303414D01*
X16758046Y-11503414D02*
X16767570Y-11493890D01*
X16767570Y-11493890D02*
X16786617Y-11465319D01*
X16786617Y-11465319D02*
X16796141Y-11446271D01*
X16796141Y-11446271D02*
X16805665Y-11417700D01*
X16805665Y-11417700D02*
X16815189Y-11370081D01*
X16815189Y-11370081D02*
X16815189Y-11331986D01*
X16815189Y-11331986D02*
X16805665Y-11284366D01*
X16805665Y-11284366D02*
X16796141Y-11255795D01*
X16796141Y-11255795D02*
X16786617Y-11236747D01*
X16786617Y-11236747D02*
X16767570Y-11208176D01*
X16767570Y-11208176D02*
X16758046Y-11198652D01*
M02*
