M48
; DRILL file {KiCad 7.0.5-0} date 2024 April 21, Sunday 20:25:21
; FORMAT={-:-/ absolute / inch / decimal}
; #@! TF.CreationDate,2024-04-21T20:25:21-04:00
; #@! TF.GenerationSoftware,Kicad,Pcbnew,7.0.5-0
; #@! TF.FileFunction,MixedPlating,1,2
FMAT,2
INCH
; #@! TA.AperFunction,Plated,PTH,ComponentDrill
T1C0.0394
; #@! TA.AperFunction,NonPlated,NPTH,ComponentDrill
T2C0.0197
; #@! TA.AperFunction,NonPlated,NPTH,ComponentDrill
T3C0.0236
%
G90
G05
T1
X4.2109Y-1.4993
X4.2109Y-3.5072
X4.4331Y-1.3428
X4.4331Y-1.4428
X4.4331Y-1.5428
X4.4331Y-1.6428
X4.4331Y-1.7428
X4.4331Y-1.8428
X4.4331Y-1.9428
X4.4331Y-2.0428
X4.4331Y-2.1428
X4.4331Y-2.2428
X4.4331Y-2.3428
X4.4331Y-2.4428
X4.4331Y-2.5428
X4.4331Y-2.6428
X4.4331Y-2.7428
X4.4331Y-2.8428
X4.4331Y-2.9428
X4.4331Y-3.0428
X4.4331Y-3.1428
X4.4331Y-3.2428
X4.4331Y-3.3428
X4.4331Y-3.4428
X4.4331Y-3.5428
X4.4331Y-3.6428
X4.5331Y-1.3428
X4.5331Y-1.4428
X4.5331Y-1.5428
X4.5331Y-1.6428
X4.5331Y-1.7428
X4.5331Y-1.8428
X4.5331Y-1.9428
X4.5331Y-2.0428
X4.5331Y-2.1428
X4.5331Y-2.2428
X4.5331Y-2.3428
X4.5331Y-2.4428
X4.5331Y-2.5428
X4.5331Y-2.6428
X4.5331Y-2.7428
X4.5331Y-2.8428
X4.5331Y-2.9428
X4.5331Y-3.0428
X4.5331Y-3.1428
X4.5331Y-3.2428
X4.5331Y-3.3428
X4.5331Y-3.4428
X4.5331Y-3.5428
X4.5331Y-3.6428
X4.7331Y-1.3428
X4.7331Y-1.4428
X4.7331Y-1.5428
X4.7331Y-1.6428
X4.7331Y-1.7428
X4.7331Y-1.8428
X4.7331Y-1.9428
X4.7331Y-2.0428
X4.7331Y-2.1428
X4.7331Y-2.2428
X4.7331Y-2.3428
X4.7331Y-2.4428
X4.7331Y-2.5428
X4.7331Y-2.6428
X4.7331Y-2.7428
X4.7331Y-2.8428
X4.7331Y-2.9428
X4.7331Y-3.0428
X4.7331Y-3.1428
X4.7331Y-3.2428
X4.7331Y-3.3428
X4.7331Y-3.4428
X4.7331Y-3.5428
X4.7331Y-3.6428
X4.8331Y-1.3428
X4.8331Y-1.4428
X4.8331Y-1.5428
X4.8331Y-1.6428
X4.8331Y-1.7428
X4.8331Y-1.8428
X4.8331Y-1.9428
X4.8331Y-2.0428
X4.8331Y-2.1428
X4.8331Y-2.2428
X4.8331Y-2.3428
X4.8331Y-2.4428
X4.8331Y-2.5428
X4.8331Y-2.6428
X4.8331Y-2.7428
X4.8331Y-2.8428
X4.8331Y-2.9428
X4.8331Y-3.0428
X4.8331Y-3.1428
X4.8331Y-3.2428
X4.8331Y-3.3428
X4.8331Y-3.4428
X4.8331Y-3.5428
X4.8331Y-3.6428
X4.9331Y-1.3428
X4.9331Y-1.4428
X4.9331Y-1.5428
X4.9331Y-1.6428
X4.9331Y-1.7428
X4.9331Y-1.8428
X4.9331Y-1.9428
X4.9331Y-2.0428
X4.9331Y-2.1428
X4.9331Y-2.2428
X4.9331Y-2.3428
X4.9331Y-2.4428
X4.9331Y-2.5428
X4.9331Y-2.6428
X4.9331Y-2.7428
X4.9331Y-2.8428
X4.9331Y-2.9428
X4.9331Y-3.0428
X4.9331Y-3.1428
X4.9331Y-3.2428
X4.9331Y-3.3428
X4.9331Y-3.4428
X4.9331Y-3.5428
X4.9331Y-3.6428
X5.0331Y-1.3428
X5.0331Y-1.4428
X5.0331Y-1.5428
X5.0331Y-1.6428
X5.0331Y-1.7428
X5.0331Y-1.8428
X5.0331Y-1.9428
X5.0331Y-2.0428
X5.0331Y-2.1428
X5.0331Y-2.2428
X5.0331Y-2.3428
X5.0331Y-2.4428
X5.0331Y-2.5428
X5.0331Y-2.6428
X5.0331Y-2.7428
X5.0331Y-2.8428
X5.0331Y-2.9428
X5.0331Y-3.0428
X5.0331Y-3.1428
X5.0331Y-3.2428
X5.0331Y-3.3428
X5.0331Y-3.4428
X5.0331Y-3.5428
X5.0331Y-3.6428
X5.1331Y-1.3428
X5.1331Y-1.4428
X5.1331Y-1.5428
X5.1331Y-1.6428
X5.1331Y-1.7428
X5.1331Y-1.8428
X5.1331Y-1.9428
X5.1331Y-2.0428
X5.1331Y-2.1428
X5.1331Y-2.2428
X5.1331Y-2.3428
X5.1331Y-2.4428
X5.1331Y-2.5428
X5.1331Y-2.6428
X5.1331Y-2.7428
X5.1331Y-2.8428
X5.1331Y-2.9428
X5.1331Y-3.0428
X5.1331Y-3.1428
X5.1331Y-3.2428
X5.1331Y-3.3428
X5.1331Y-3.4428
X5.1331Y-3.5428
X5.1331Y-3.6428
X5.2331Y-1.3428
X5.2331Y-1.4428
X5.2331Y-1.5428
X5.2331Y-1.6428
X5.2331Y-1.7428
X5.2331Y-1.8428
X5.2331Y-1.9428
X5.2331Y-2.0428
X5.2331Y-2.1428
X5.2331Y-2.2428
X5.2331Y-2.3428
X5.2331Y-2.4428
X5.2331Y-2.5428
X5.2331Y-2.6428
X5.2331Y-2.7428
X5.2331Y-2.8428
X5.2331Y-2.9428
X5.2331Y-3.0428
X5.2331Y-3.1428
X5.2331Y-3.2428
X5.2331Y-3.3428
X5.2331Y-3.4428
X5.2331Y-3.5428
X5.2331Y-3.6428
X5.5331Y-1.3428
X5.5331Y-1.4428
X5.5331Y-1.5428
X5.5331Y-1.6428
X5.5331Y-1.7428
X5.5331Y-1.8428
X5.5331Y-1.9428
X5.5331Y-2.0428
X5.5331Y-2.1428
X5.5331Y-2.2428
X5.5331Y-2.3428
X5.5331Y-2.4428
X5.5331Y-2.5428
X5.5331Y-2.6428
X5.5331Y-2.7428
X5.5331Y-2.8428
X5.5331Y-2.9428
X5.5331Y-3.0428
X5.5331Y-3.1428
X5.5331Y-3.2428
X5.5331Y-3.3428
X5.5331Y-3.4428
X5.5331Y-3.5428
X5.5331Y-3.6428
X5.6331Y-1.3428
X5.6331Y-1.4428
X5.6331Y-1.5428
X5.6331Y-1.6428
X5.6331Y-1.7428
X5.6331Y-1.8428
X5.6331Y-1.9428
X5.6331Y-2.0428
X5.6331Y-2.1428
X5.6331Y-2.2428
X5.6331Y-2.3428
X5.6331Y-2.4428
X5.6331Y-2.5428
X5.6331Y-2.6428
X5.6331Y-2.7428
X5.6331Y-2.8428
X5.6331Y-2.9428
X5.6331Y-3.0428
X5.6331Y-3.1428
X5.6331Y-3.2428
X5.6331Y-3.3428
X5.6331Y-3.4428
X5.6331Y-3.5428
X5.6331Y-3.6428
X5.7331Y-1.3428
X5.7331Y-1.4428
X5.7331Y-1.5428
X5.7331Y-1.6428
X5.7331Y-1.7428
X5.7331Y-1.8428
X5.7331Y-1.9428
X5.7331Y-2.0428
X5.7331Y-2.1428
X5.7331Y-2.2428
X5.7331Y-2.3428
X5.7331Y-2.4428
X5.7331Y-2.5428
X5.7331Y-2.6428
X5.7331Y-2.7428
X5.7331Y-2.8428
X5.7331Y-2.9428
X5.7331Y-3.0428
X5.7331Y-3.1428
X5.7331Y-3.2428
X5.7331Y-3.3428
X5.7331Y-3.4428
X5.7331Y-3.5428
X5.7331Y-3.6428
X5.8331Y-1.3428
X5.8331Y-1.4428
X5.8331Y-1.5428
X5.8331Y-1.6428
X5.8331Y-1.7428
X5.8331Y-1.8428
X5.8331Y-1.9428
X5.8331Y-2.0428
X5.8331Y-2.1428
X5.8331Y-2.2428
X5.8331Y-2.3428
X5.8331Y-2.4428
X5.8331Y-2.5428
X5.8331Y-2.6428
X5.8331Y-2.7428
X5.8331Y-2.8428
X5.8331Y-2.9428
X5.8331Y-3.0428
X5.8331Y-3.1428
X5.8331Y-3.2428
X5.8331Y-3.3428
X5.8331Y-3.4428
X5.8331Y-3.5428
X5.8331Y-3.6428
X5.9331Y-1.3428
X5.9331Y-1.4428
X5.9331Y-1.5428
X5.9331Y-1.6428
X5.9331Y-1.7428
X5.9331Y-1.8428
X5.9331Y-1.9428
X5.9331Y-2.0428
X5.9331Y-2.1428
X5.9331Y-2.2428
X5.9331Y-2.3428
X5.9331Y-2.4428
X5.9331Y-2.5428
X5.9331Y-2.6428
X5.9331Y-2.7428
X5.9331Y-2.8428
X5.9331Y-2.9428
X5.9331Y-3.0428
X5.9331Y-3.1428
X5.9331Y-3.2428
X5.9331Y-3.3428
X5.9331Y-3.4428
X5.9331Y-3.5428
X5.9331Y-3.6428
X6.0331Y-1.3428
X6.0331Y-1.4428
X6.0331Y-1.5428
X6.0331Y-1.6428
X6.0331Y-1.7428
X6.0331Y-1.8428
X6.0331Y-1.9428
X6.0331Y-2.0428
X6.0331Y-2.1428
X6.0331Y-2.2428
X6.0331Y-2.3428
X6.0331Y-2.4428
X6.0331Y-2.5428
X6.0331Y-2.6428
X6.0331Y-2.7428
X6.0331Y-2.8428
X6.0331Y-2.9428
X6.0331Y-3.0428
X6.0331Y-3.1428
X6.0331Y-3.2428
X6.0331Y-3.3428
X6.0331Y-3.4428
X6.0331Y-3.5428
X6.0331Y-3.6428
X6.2331Y-1.3428
X6.2331Y-1.4428
X6.2331Y-1.5428
X6.2331Y-1.6428
X6.2331Y-1.7428
X6.2331Y-1.8428
X6.2331Y-1.9428
X6.2331Y-2.0428
X6.2331Y-2.1428
X6.2331Y-2.2428
X6.2331Y-2.3428
X6.2331Y-2.4428
X6.2331Y-2.5428
X6.2331Y-2.6428
X6.2331Y-2.7428
X6.2331Y-2.8428
X6.2331Y-2.9428
X6.2331Y-3.0428
X6.2331Y-3.1428
X6.2331Y-3.2428
X6.2331Y-3.3428
X6.2331Y-3.4428
X6.2331Y-3.5428
X6.2331Y-3.6428
X6.3331Y-1.3428
X6.3331Y-1.4428
X6.3331Y-1.5428
X6.3331Y-1.6428
X6.3331Y-1.7428
X6.3331Y-1.8428
X6.3331Y-1.9428
X6.3331Y-2.0428
X6.3331Y-2.1428
X6.3331Y-2.2428
X6.3331Y-2.3428
X6.3331Y-2.4428
X6.3331Y-2.5428
X6.3331Y-2.6428
X6.3331Y-2.7428
X6.3331Y-2.8428
X6.3331Y-2.9428
X6.3331Y-3.0428
X6.3331Y-3.1428
X6.3331Y-3.2428
X6.3331Y-3.3428
X6.3331Y-3.4428
X6.3331Y-3.5428
X6.3331Y-3.6428
X6.5337Y-1.4993
X6.5337Y-3.5072
T2
X4.0607Y-2.7763
X5.0652Y-1.208
X5.5987Y-3.8446
X6.7377Y-2.3052
T3
X4.0016Y-2.6858
X4.0016Y-2.731
X4.0016Y-2.7763
X4.0607Y-2.6858
X4.0607Y-2.731
X5.0652Y-1.1489
X5.1105Y-1.1489
X5.1105Y-1.208
X5.1558Y-1.1489
X5.1558Y-1.208
X5.5987Y-3.7855
X5.644Y-3.7855
X5.644Y-3.8446
X5.6892Y-3.7855
X5.6892Y-3.8446
X6.6786Y-2.2147
X6.6786Y-2.2599
X6.6786Y-2.3052
X6.7377Y-2.2147
X6.7377Y-2.2599
T0
M30
