%TF.GenerationSoftware,KiCad,Pcbnew,7.0.5-0*%
%TF.CreationDate,2024-04-21T20:18:31-04:00*%
%TF.ProjectId,swr_meter_rear,7377725f-6d65-4746-9572-5f726561722e,rev?*%
%TF.SameCoordinates,Original*%
%TF.FileFunction,AssemblyDrawing,Top*%
%FSLAX46Y46*%
G04 Gerber Fmt 4.6, Leading zero omitted, Abs format (unit mm)*
G04 Created by KiCad (PCBNEW 7.0.5-0) date 2024-04-21 20:18:31*
%MOMM*%
%LPD*%
G01*
G04 APERTURE LIST*
%ADD10C,0.150000*%
%TA.AperFunction,Profile*%
%ADD11C,0.349999*%
%TD*%
G04 APERTURE END LIST*
D10*
%TO.C,H5*%
X151471218Y-93576151D02*
X152090265Y-93576151D01*
X152090265Y-93576151D02*
X151756932Y-93957103D01*
X151756932Y-93957103D02*
X151899789Y-93957103D01*
X151899789Y-93957103D02*
X151995027Y-94004722D01*
X151995027Y-94004722D02*
X152042646Y-94052341D01*
X152042646Y-94052341D02*
X152090265Y-94147579D01*
X152090265Y-94147579D02*
X152090265Y-94385674D01*
X152090265Y-94385674D02*
X152042646Y-94480912D01*
X152042646Y-94480912D02*
X151995027Y-94528532D01*
X151995027Y-94528532D02*
X151899789Y-94576151D01*
X151899789Y-94576151D02*
X151614075Y-94576151D01*
X151614075Y-94576151D02*
X151518837Y-94528532D01*
X151518837Y-94528532D02*
X151471218Y-94480912D01*
X152518837Y-94480912D02*
X152566456Y-94528532D01*
X152566456Y-94528532D02*
X152518837Y-94576151D01*
X152518837Y-94576151D02*
X152471218Y-94528532D01*
X152471218Y-94528532D02*
X152518837Y-94480912D01*
X152518837Y-94480912D02*
X152518837Y-94576151D01*
X152899789Y-93576151D02*
X153566455Y-93576151D01*
X153566455Y-93576151D02*
X153137884Y-94576151D01*
X153947408Y-94576151D02*
X153947408Y-93909484D01*
X153947408Y-94004722D02*
X153995027Y-93957103D01*
X153995027Y-93957103D02*
X154090265Y-93909484D01*
X154090265Y-93909484D02*
X154233122Y-93909484D01*
X154233122Y-93909484D02*
X154328360Y-93957103D01*
X154328360Y-93957103D02*
X154375979Y-94052341D01*
X154375979Y-94052341D02*
X154375979Y-94576151D01*
X154375979Y-94052341D02*
X154423598Y-93957103D01*
X154423598Y-93957103D02*
X154518836Y-93909484D01*
X154518836Y-93909484D02*
X154661693Y-93909484D01*
X154661693Y-93909484D02*
X154756932Y-93957103D01*
X154756932Y-93957103D02*
X154804551Y-94052341D01*
X154804551Y-94052341D02*
X154804551Y-94576151D01*
X155280741Y-94576151D02*
X155280741Y-93909484D01*
X155280741Y-94004722D02*
X155328360Y-93957103D01*
X155328360Y-93957103D02*
X155423598Y-93909484D01*
X155423598Y-93909484D02*
X155566455Y-93909484D01*
X155566455Y-93909484D02*
X155661693Y-93957103D01*
X155661693Y-93957103D02*
X155709312Y-94052341D01*
X155709312Y-94052341D02*
X155709312Y-94576151D01*
X155709312Y-94052341D02*
X155756931Y-93957103D01*
X155756931Y-93957103D02*
X155852169Y-93909484D01*
X155852169Y-93909484D02*
X155995026Y-93909484D01*
X155995026Y-93909484D02*
X156090265Y-93957103D01*
X156090265Y-93957103D02*
X156137884Y-94052341D01*
X156137884Y-94052341D02*
X156137884Y-94576151D01*
X157375979Y-94576151D02*
X157375979Y-93576151D01*
X157375979Y-93576151D02*
X157756931Y-93576151D01*
X157756931Y-93576151D02*
X157852169Y-93623770D01*
X157852169Y-93623770D02*
X157899788Y-93671389D01*
X157899788Y-93671389D02*
X157947407Y-93766627D01*
X157947407Y-93766627D02*
X157947407Y-93909484D01*
X157947407Y-93909484D02*
X157899788Y-94004722D01*
X157899788Y-94004722D02*
X157852169Y-94052341D01*
X157852169Y-94052341D02*
X157756931Y-94099960D01*
X157756931Y-94099960D02*
X157375979Y-94099960D01*
X158233122Y-93576151D02*
X158804550Y-93576151D01*
X158518836Y-94576151D02*
X158518836Y-93576151D01*
X159137884Y-94576151D02*
X159137884Y-93576151D01*
X159137884Y-94052341D02*
X159709312Y-94052341D01*
X159709312Y-94576151D02*
X159709312Y-93576151D01*
%TO.C,H16*%
X100430951Y-97240057D02*
X100478570Y-97192438D01*
X100478570Y-97192438D02*
X100573808Y-97144819D01*
X100573808Y-97144819D02*
X100811903Y-97144819D01*
X100811903Y-97144819D02*
X100907141Y-97192438D01*
X100907141Y-97192438D02*
X100954760Y-97240057D01*
X100954760Y-97240057D02*
X101002379Y-97335295D01*
X101002379Y-97335295D02*
X101002379Y-97430533D01*
X101002379Y-97430533D02*
X100954760Y-97573390D01*
X100954760Y-97573390D02*
X100383332Y-98144819D01*
X100383332Y-98144819D02*
X101002379Y-98144819D01*
X101430951Y-98049580D02*
X101478570Y-98097200D01*
X101478570Y-98097200D02*
X101430951Y-98144819D01*
X101430951Y-98144819D02*
X101383332Y-98097200D01*
X101383332Y-98097200D02*
X101430951Y-98049580D01*
X101430951Y-98049580D02*
X101430951Y-98144819D01*
X101811903Y-97144819D02*
X102478569Y-97144819D01*
X102478569Y-97144819D02*
X102049998Y-98144819D01*
X102859522Y-98144819D02*
X102859522Y-97478152D01*
X102859522Y-97573390D02*
X102907141Y-97525771D01*
X102907141Y-97525771D02*
X103002379Y-97478152D01*
X103002379Y-97478152D02*
X103145236Y-97478152D01*
X103145236Y-97478152D02*
X103240474Y-97525771D01*
X103240474Y-97525771D02*
X103288093Y-97621009D01*
X103288093Y-97621009D02*
X103288093Y-98144819D01*
X103288093Y-97621009D02*
X103335712Y-97525771D01*
X103335712Y-97525771D02*
X103430950Y-97478152D01*
X103430950Y-97478152D02*
X103573807Y-97478152D01*
X103573807Y-97478152D02*
X103669046Y-97525771D01*
X103669046Y-97525771D02*
X103716665Y-97621009D01*
X103716665Y-97621009D02*
X103716665Y-98144819D01*
X104192855Y-98144819D02*
X104192855Y-97478152D01*
X104192855Y-97573390D02*
X104240474Y-97525771D01*
X104240474Y-97525771D02*
X104335712Y-97478152D01*
X104335712Y-97478152D02*
X104478569Y-97478152D01*
X104478569Y-97478152D02*
X104573807Y-97525771D01*
X104573807Y-97525771D02*
X104621426Y-97621009D01*
X104621426Y-97621009D02*
X104621426Y-98144819D01*
X104621426Y-97621009D02*
X104669045Y-97525771D01*
X104669045Y-97525771D02*
X104764283Y-97478152D01*
X104764283Y-97478152D02*
X104907140Y-97478152D01*
X104907140Y-97478152D02*
X105002379Y-97525771D01*
X105002379Y-97525771D02*
X105049998Y-97621009D01*
X105049998Y-97621009D02*
X105049998Y-98144819D01*
X106288093Y-98144819D02*
X106288093Y-97144819D01*
X106288093Y-97144819D02*
X106669045Y-97144819D01*
X106669045Y-97144819D02*
X106764283Y-97192438D01*
X106764283Y-97192438D02*
X106811902Y-97240057D01*
X106811902Y-97240057D02*
X106859521Y-97335295D01*
X106859521Y-97335295D02*
X106859521Y-97478152D01*
X106859521Y-97478152D02*
X106811902Y-97573390D01*
X106811902Y-97573390D02*
X106764283Y-97621009D01*
X106764283Y-97621009D02*
X106669045Y-97668628D01*
X106669045Y-97668628D02*
X106288093Y-97668628D01*
X107145236Y-97144819D02*
X107716664Y-97144819D01*
X107430950Y-98144819D02*
X107430950Y-97144819D01*
X108049998Y-98144819D02*
X108049998Y-97144819D01*
X108049998Y-97621009D02*
X108621426Y-97621009D01*
X108621426Y-98144819D02*
X108621426Y-97144819D01*
X103311903Y-94944819D02*
X103311903Y-93944819D01*
X103311903Y-94421009D02*
X103883331Y-94421009D01*
X103883331Y-94944819D02*
X103883331Y-93944819D01*
X104883331Y-94944819D02*
X104311903Y-94944819D01*
X104597617Y-94944819D02*
X104597617Y-93944819D01*
X104597617Y-93944819D02*
X104502379Y-94087676D01*
X104502379Y-94087676D02*
X104407141Y-94182914D01*
X104407141Y-94182914D02*
X104311903Y-94230533D01*
X105740474Y-93944819D02*
X105549998Y-93944819D01*
X105549998Y-93944819D02*
X105454760Y-93992438D01*
X105454760Y-93992438D02*
X105407141Y-94040057D01*
X105407141Y-94040057D02*
X105311903Y-94182914D01*
X105311903Y-94182914D02*
X105264284Y-94373390D01*
X105264284Y-94373390D02*
X105264284Y-94754342D01*
X105264284Y-94754342D02*
X105311903Y-94849580D01*
X105311903Y-94849580D02*
X105359522Y-94897200D01*
X105359522Y-94897200D02*
X105454760Y-94944819D01*
X105454760Y-94944819D02*
X105645236Y-94944819D01*
X105645236Y-94944819D02*
X105740474Y-94897200D01*
X105740474Y-94897200D02*
X105788093Y-94849580D01*
X105788093Y-94849580D02*
X105835712Y-94754342D01*
X105835712Y-94754342D02*
X105835712Y-94516247D01*
X105835712Y-94516247D02*
X105788093Y-94421009D01*
X105788093Y-94421009D02*
X105740474Y-94373390D01*
X105740474Y-94373390D02*
X105645236Y-94325771D01*
X105645236Y-94325771D02*
X105454760Y-94325771D01*
X105454760Y-94325771D02*
X105359522Y-94373390D01*
X105359522Y-94373390D02*
X105311903Y-94421009D01*
X105311903Y-94421009D02*
X105264284Y-94516247D01*
%TO.C,H15*%
X100430951Y-35160057D02*
X100478570Y-35112438D01*
X100478570Y-35112438D02*
X100573808Y-35064819D01*
X100573808Y-35064819D02*
X100811903Y-35064819D01*
X100811903Y-35064819D02*
X100907141Y-35112438D01*
X100907141Y-35112438D02*
X100954760Y-35160057D01*
X100954760Y-35160057D02*
X101002379Y-35255295D01*
X101002379Y-35255295D02*
X101002379Y-35350533D01*
X101002379Y-35350533D02*
X100954760Y-35493390D01*
X100954760Y-35493390D02*
X100383332Y-36064819D01*
X100383332Y-36064819D02*
X101002379Y-36064819D01*
X101430951Y-35969580D02*
X101478570Y-36017200D01*
X101478570Y-36017200D02*
X101430951Y-36064819D01*
X101430951Y-36064819D02*
X101383332Y-36017200D01*
X101383332Y-36017200D02*
X101430951Y-35969580D01*
X101430951Y-35969580D02*
X101430951Y-36064819D01*
X101811903Y-35064819D02*
X102478569Y-35064819D01*
X102478569Y-35064819D02*
X102049998Y-36064819D01*
X102859522Y-36064819D02*
X102859522Y-35398152D01*
X102859522Y-35493390D02*
X102907141Y-35445771D01*
X102907141Y-35445771D02*
X103002379Y-35398152D01*
X103002379Y-35398152D02*
X103145236Y-35398152D01*
X103145236Y-35398152D02*
X103240474Y-35445771D01*
X103240474Y-35445771D02*
X103288093Y-35541009D01*
X103288093Y-35541009D02*
X103288093Y-36064819D01*
X103288093Y-35541009D02*
X103335712Y-35445771D01*
X103335712Y-35445771D02*
X103430950Y-35398152D01*
X103430950Y-35398152D02*
X103573807Y-35398152D01*
X103573807Y-35398152D02*
X103669046Y-35445771D01*
X103669046Y-35445771D02*
X103716665Y-35541009D01*
X103716665Y-35541009D02*
X103716665Y-36064819D01*
X104192855Y-36064819D02*
X104192855Y-35398152D01*
X104192855Y-35493390D02*
X104240474Y-35445771D01*
X104240474Y-35445771D02*
X104335712Y-35398152D01*
X104335712Y-35398152D02*
X104478569Y-35398152D01*
X104478569Y-35398152D02*
X104573807Y-35445771D01*
X104573807Y-35445771D02*
X104621426Y-35541009D01*
X104621426Y-35541009D02*
X104621426Y-36064819D01*
X104621426Y-35541009D02*
X104669045Y-35445771D01*
X104669045Y-35445771D02*
X104764283Y-35398152D01*
X104764283Y-35398152D02*
X104907140Y-35398152D01*
X104907140Y-35398152D02*
X105002379Y-35445771D01*
X105002379Y-35445771D02*
X105049998Y-35541009D01*
X105049998Y-35541009D02*
X105049998Y-36064819D01*
X106288093Y-36064819D02*
X106288093Y-35064819D01*
X106288093Y-35064819D02*
X106669045Y-35064819D01*
X106669045Y-35064819D02*
X106764283Y-35112438D01*
X106764283Y-35112438D02*
X106811902Y-35160057D01*
X106811902Y-35160057D02*
X106859521Y-35255295D01*
X106859521Y-35255295D02*
X106859521Y-35398152D01*
X106859521Y-35398152D02*
X106811902Y-35493390D01*
X106811902Y-35493390D02*
X106764283Y-35541009D01*
X106764283Y-35541009D02*
X106669045Y-35588628D01*
X106669045Y-35588628D02*
X106288093Y-35588628D01*
X107145236Y-35064819D02*
X107716664Y-35064819D01*
X107430950Y-36064819D02*
X107430950Y-35064819D01*
X108049998Y-36064819D02*
X108049998Y-35064819D01*
X108049998Y-35541009D02*
X108621426Y-35541009D01*
X108621426Y-36064819D02*
X108621426Y-35064819D01*
X103311903Y-32864819D02*
X103311903Y-31864819D01*
X103311903Y-32341009D02*
X103883331Y-32341009D01*
X103883331Y-32864819D02*
X103883331Y-31864819D01*
X104883331Y-32864819D02*
X104311903Y-32864819D01*
X104597617Y-32864819D02*
X104597617Y-31864819D01*
X104597617Y-31864819D02*
X104502379Y-32007676D01*
X104502379Y-32007676D02*
X104407141Y-32102914D01*
X104407141Y-32102914D02*
X104311903Y-32150533D01*
X105788093Y-31864819D02*
X105311903Y-31864819D01*
X105311903Y-31864819D02*
X105264284Y-32341009D01*
X105264284Y-32341009D02*
X105311903Y-32293390D01*
X105311903Y-32293390D02*
X105407141Y-32245771D01*
X105407141Y-32245771D02*
X105645236Y-32245771D01*
X105645236Y-32245771D02*
X105740474Y-32293390D01*
X105740474Y-32293390D02*
X105788093Y-32341009D01*
X105788093Y-32341009D02*
X105835712Y-32436247D01*
X105835712Y-32436247D02*
X105835712Y-32674342D01*
X105835712Y-32674342D02*
X105788093Y-32769580D01*
X105788093Y-32769580D02*
X105740474Y-32817200D01*
X105740474Y-32817200D02*
X105645236Y-32864819D01*
X105645236Y-32864819D02*
X105407141Y-32864819D01*
X105407141Y-32864819D02*
X105311903Y-32817200D01*
X105311903Y-32817200D02*
X105264284Y-32769580D01*
%TO.C,H18*%
X164350951Y-97340057D02*
X164398570Y-97292438D01*
X164398570Y-97292438D02*
X164493808Y-97244819D01*
X164493808Y-97244819D02*
X164731903Y-97244819D01*
X164731903Y-97244819D02*
X164827141Y-97292438D01*
X164827141Y-97292438D02*
X164874760Y-97340057D01*
X164874760Y-97340057D02*
X164922379Y-97435295D01*
X164922379Y-97435295D02*
X164922379Y-97530533D01*
X164922379Y-97530533D02*
X164874760Y-97673390D01*
X164874760Y-97673390D02*
X164303332Y-98244819D01*
X164303332Y-98244819D02*
X164922379Y-98244819D01*
X165350951Y-98149580D02*
X165398570Y-98197200D01*
X165398570Y-98197200D02*
X165350951Y-98244819D01*
X165350951Y-98244819D02*
X165303332Y-98197200D01*
X165303332Y-98197200D02*
X165350951Y-98149580D01*
X165350951Y-98149580D02*
X165350951Y-98244819D01*
X165731903Y-97244819D02*
X166398569Y-97244819D01*
X166398569Y-97244819D02*
X165969998Y-98244819D01*
X166779522Y-98244819D02*
X166779522Y-97578152D01*
X166779522Y-97673390D02*
X166827141Y-97625771D01*
X166827141Y-97625771D02*
X166922379Y-97578152D01*
X166922379Y-97578152D02*
X167065236Y-97578152D01*
X167065236Y-97578152D02*
X167160474Y-97625771D01*
X167160474Y-97625771D02*
X167208093Y-97721009D01*
X167208093Y-97721009D02*
X167208093Y-98244819D01*
X167208093Y-97721009D02*
X167255712Y-97625771D01*
X167255712Y-97625771D02*
X167350950Y-97578152D01*
X167350950Y-97578152D02*
X167493807Y-97578152D01*
X167493807Y-97578152D02*
X167589046Y-97625771D01*
X167589046Y-97625771D02*
X167636665Y-97721009D01*
X167636665Y-97721009D02*
X167636665Y-98244819D01*
X168112855Y-98244819D02*
X168112855Y-97578152D01*
X168112855Y-97673390D02*
X168160474Y-97625771D01*
X168160474Y-97625771D02*
X168255712Y-97578152D01*
X168255712Y-97578152D02*
X168398569Y-97578152D01*
X168398569Y-97578152D02*
X168493807Y-97625771D01*
X168493807Y-97625771D02*
X168541426Y-97721009D01*
X168541426Y-97721009D02*
X168541426Y-98244819D01*
X168541426Y-97721009D02*
X168589045Y-97625771D01*
X168589045Y-97625771D02*
X168684283Y-97578152D01*
X168684283Y-97578152D02*
X168827140Y-97578152D01*
X168827140Y-97578152D02*
X168922379Y-97625771D01*
X168922379Y-97625771D02*
X168969998Y-97721009D01*
X168969998Y-97721009D02*
X168969998Y-98244819D01*
X170208093Y-98244819D02*
X170208093Y-97244819D01*
X170208093Y-97244819D02*
X170589045Y-97244819D01*
X170589045Y-97244819D02*
X170684283Y-97292438D01*
X170684283Y-97292438D02*
X170731902Y-97340057D01*
X170731902Y-97340057D02*
X170779521Y-97435295D01*
X170779521Y-97435295D02*
X170779521Y-97578152D01*
X170779521Y-97578152D02*
X170731902Y-97673390D01*
X170731902Y-97673390D02*
X170684283Y-97721009D01*
X170684283Y-97721009D02*
X170589045Y-97768628D01*
X170589045Y-97768628D02*
X170208093Y-97768628D01*
X171065236Y-97244819D02*
X171636664Y-97244819D01*
X171350950Y-98244819D02*
X171350950Y-97244819D01*
X171969998Y-98244819D02*
X171969998Y-97244819D01*
X171969998Y-97721009D02*
X172541426Y-97721009D01*
X172541426Y-98244819D02*
X172541426Y-97244819D01*
X167231903Y-95044819D02*
X167231903Y-94044819D01*
X167231903Y-94521009D02*
X167803331Y-94521009D01*
X167803331Y-95044819D02*
X167803331Y-94044819D01*
X168803331Y-95044819D02*
X168231903Y-95044819D01*
X168517617Y-95044819D02*
X168517617Y-94044819D01*
X168517617Y-94044819D02*
X168422379Y-94187676D01*
X168422379Y-94187676D02*
X168327141Y-94282914D01*
X168327141Y-94282914D02*
X168231903Y-94330533D01*
X169374760Y-94473390D02*
X169279522Y-94425771D01*
X169279522Y-94425771D02*
X169231903Y-94378152D01*
X169231903Y-94378152D02*
X169184284Y-94282914D01*
X169184284Y-94282914D02*
X169184284Y-94235295D01*
X169184284Y-94235295D02*
X169231903Y-94140057D01*
X169231903Y-94140057D02*
X169279522Y-94092438D01*
X169279522Y-94092438D02*
X169374760Y-94044819D01*
X169374760Y-94044819D02*
X169565236Y-94044819D01*
X169565236Y-94044819D02*
X169660474Y-94092438D01*
X169660474Y-94092438D02*
X169708093Y-94140057D01*
X169708093Y-94140057D02*
X169755712Y-94235295D01*
X169755712Y-94235295D02*
X169755712Y-94282914D01*
X169755712Y-94282914D02*
X169708093Y-94378152D01*
X169708093Y-94378152D02*
X169660474Y-94425771D01*
X169660474Y-94425771D02*
X169565236Y-94473390D01*
X169565236Y-94473390D02*
X169374760Y-94473390D01*
X169374760Y-94473390D02*
X169279522Y-94521009D01*
X169279522Y-94521009D02*
X169231903Y-94568628D01*
X169231903Y-94568628D02*
X169184284Y-94663866D01*
X169184284Y-94663866D02*
X169184284Y-94854342D01*
X169184284Y-94854342D02*
X169231903Y-94949580D01*
X169231903Y-94949580D02*
X169279522Y-94997200D01*
X169279522Y-94997200D02*
X169374760Y-95044819D01*
X169374760Y-95044819D02*
X169565236Y-95044819D01*
X169565236Y-95044819D02*
X169660474Y-94997200D01*
X169660474Y-94997200D02*
X169708093Y-94949580D01*
X169708093Y-94949580D02*
X169755712Y-94854342D01*
X169755712Y-94854342D02*
X169755712Y-94663866D01*
X169755712Y-94663866D02*
X169708093Y-94568628D01*
X169708093Y-94568628D02*
X169660474Y-94521009D01*
X169660474Y-94521009D02*
X169565236Y-94473390D01*
%TO.C,H17*%
X164360951Y-35140057D02*
X164408570Y-35092438D01*
X164408570Y-35092438D02*
X164503808Y-35044819D01*
X164503808Y-35044819D02*
X164741903Y-35044819D01*
X164741903Y-35044819D02*
X164837141Y-35092438D01*
X164837141Y-35092438D02*
X164884760Y-35140057D01*
X164884760Y-35140057D02*
X164932379Y-35235295D01*
X164932379Y-35235295D02*
X164932379Y-35330533D01*
X164932379Y-35330533D02*
X164884760Y-35473390D01*
X164884760Y-35473390D02*
X164313332Y-36044819D01*
X164313332Y-36044819D02*
X164932379Y-36044819D01*
X165360951Y-35949580D02*
X165408570Y-35997200D01*
X165408570Y-35997200D02*
X165360951Y-36044819D01*
X165360951Y-36044819D02*
X165313332Y-35997200D01*
X165313332Y-35997200D02*
X165360951Y-35949580D01*
X165360951Y-35949580D02*
X165360951Y-36044819D01*
X165741903Y-35044819D02*
X166408569Y-35044819D01*
X166408569Y-35044819D02*
X165979998Y-36044819D01*
X166789522Y-36044819D02*
X166789522Y-35378152D01*
X166789522Y-35473390D02*
X166837141Y-35425771D01*
X166837141Y-35425771D02*
X166932379Y-35378152D01*
X166932379Y-35378152D02*
X167075236Y-35378152D01*
X167075236Y-35378152D02*
X167170474Y-35425771D01*
X167170474Y-35425771D02*
X167218093Y-35521009D01*
X167218093Y-35521009D02*
X167218093Y-36044819D01*
X167218093Y-35521009D02*
X167265712Y-35425771D01*
X167265712Y-35425771D02*
X167360950Y-35378152D01*
X167360950Y-35378152D02*
X167503807Y-35378152D01*
X167503807Y-35378152D02*
X167599046Y-35425771D01*
X167599046Y-35425771D02*
X167646665Y-35521009D01*
X167646665Y-35521009D02*
X167646665Y-36044819D01*
X168122855Y-36044819D02*
X168122855Y-35378152D01*
X168122855Y-35473390D02*
X168170474Y-35425771D01*
X168170474Y-35425771D02*
X168265712Y-35378152D01*
X168265712Y-35378152D02*
X168408569Y-35378152D01*
X168408569Y-35378152D02*
X168503807Y-35425771D01*
X168503807Y-35425771D02*
X168551426Y-35521009D01*
X168551426Y-35521009D02*
X168551426Y-36044819D01*
X168551426Y-35521009D02*
X168599045Y-35425771D01*
X168599045Y-35425771D02*
X168694283Y-35378152D01*
X168694283Y-35378152D02*
X168837140Y-35378152D01*
X168837140Y-35378152D02*
X168932379Y-35425771D01*
X168932379Y-35425771D02*
X168979998Y-35521009D01*
X168979998Y-35521009D02*
X168979998Y-36044819D01*
X170218093Y-36044819D02*
X170218093Y-35044819D01*
X170218093Y-35044819D02*
X170599045Y-35044819D01*
X170599045Y-35044819D02*
X170694283Y-35092438D01*
X170694283Y-35092438D02*
X170741902Y-35140057D01*
X170741902Y-35140057D02*
X170789521Y-35235295D01*
X170789521Y-35235295D02*
X170789521Y-35378152D01*
X170789521Y-35378152D02*
X170741902Y-35473390D01*
X170741902Y-35473390D02*
X170694283Y-35521009D01*
X170694283Y-35521009D02*
X170599045Y-35568628D01*
X170599045Y-35568628D02*
X170218093Y-35568628D01*
X171075236Y-35044819D02*
X171646664Y-35044819D01*
X171360950Y-36044819D02*
X171360950Y-35044819D01*
X171979998Y-36044819D02*
X171979998Y-35044819D01*
X171979998Y-35521009D02*
X172551426Y-35521009D01*
X172551426Y-36044819D02*
X172551426Y-35044819D01*
X167241903Y-32844819D02*
X167241903Y-31844819D01*
X167241903Y-32321009D02*
X167813331Y-32321009D01*
X167813331Y-32844819D02*
X167813331Y-31844819D01*
X168813331Y-32844819D02*
X168241903Y-32844819D01*
X168527617Y-32844819D02*
X168527617Y-31844819D01*
X168527617Y-31844819D02*
X168432379Y-31987676D01*
X168432379Y-31987676D02*
X168337141Y-32082914D01*
X168337141Y-32082914D02*
X168241903Y-32130533D01*
X169146665Y-31844819D02*
X169813331Y-31844819D01*
X169813331Y-31844819D02*
X169384760Y-32844819D01*
%TD*%
D11*
X173000000Y-27000000D02*
X147000000Y-27000000D01*
X126000000Y-100000000D02*
X100000000Y-100000000D01*
X147000000Y-25400002D02*
X126000000Y-25400002D01*
X173000000Y-53000000D02*
X173000000Y-27000000D01*
X173000000Y-74000000D02*
X174599998Y-74000000D01*
X174599998Y-74000000D02*
X174599998Y-53000000D01*
X98400001Y-74000000D02*
X100000000Y-74000000D01*
X100000000Y-53000000D02*
X98400001Y-53000000D01*
X100000000Y-74000000D02*
X100000000Y-100000000D01*
X98400001Y-53000000D02*
X98400001Y-74000000D01*
X174599998Y-53000000D02*
X173000000Y-53000000D01*
X100000000Y-27000000D02*
X100000000Y-53000000D01*
X126000000Y-25400002D02*
X126000000Y-27000000D01*
X147000000Y-101599999D02*
X147000000Y-100000000D01*
X147000000Y-25400002D02*
X147000000Y-27000000D01*
X126000000Y-100000000D02*
X126000000Y-101599999D01*
X126000000Y-101599999D02*
X147000000Y-101599999D01*
X126000000Y-27000000D02*
X100000000Y-27000000D01*
X173000000Y-100000000D02*
X173000000Y-74000000D01*
X147000000Y-100000000D02*
X173000000Y-100000000D01*
M02*
