%TF.GenerationSoftware,KiCad,Pcbnew,7.0.5-0*%
%TF.CreationDate,2024-04-21T20:18:31-04:00*%
%TF.ProjectId,swr_meter_rear,7377725f-6d65-4746-9572-5f726561722e,rev?*%
%TF.SameCoordinates,Original*%
%TF.FileFunction,Soldermask,Bot*%
%TF.FilePolarity,Negative*%
%FSLAX46Y46*%
G04 Gerber Fmt 4.6, Leading zero omitted, Abs format (unit mm)*
G04 Created by KiCad (PCBNEW 7.0.5-0) date 2024-04-21 20:18:31*
%MOMM*%
%LPD*%
G01*
G04 APERTURE LIST*
%ADD10C,3.200000*%
%ADD11C,7.400000*%
%ADD12C,5.400000*%
%ADD13C,8.000000*%
%ADD14C,17.500000*%
%ADD15C,4.700000*%
%ADD16C,4.500000*%
%TA.AperFunction,Profile*%
%ADD17C,0.349999*%
%TD*%
G04 APERTURE END LIST*
D10*
%TO.C,REF\u002A\u002A*%
X100117398Y-26878000D02*
X173117398Y-26878000D01*
X173117398Y-26878000D02*
X173117398Y-99878000D01*
X173117398Y-99878000D02*
X100117398Y-99878000D01*
X100117398Y-99878000D02*
X100117398Y-26878000D01*
%TD*%
D11*
%TO.C,H5*%
X155637884Y-89421332D03*
%TD*%
D12*
%TO.C,H16*%
X104549998Y-94490000D03*
%TD*%
D13*
%TO.C,REF\u002A\u002A*%
X114237884Y-89421332D03*
%TD*%
D12*
%TO.C,H15*%
X104549998Y-32410000D03*
%TD*%
%TO.C,H18*%
X168469998Y-94590000D03*
%TD*%
%TO.C,H17*%
X168479998Y-32390000D03*
%TD*%
D14*
%TO.C,J51*%
X117637884Y-65388658D03*
D15*
X126637884Y-74388658D03*
X126637884Y-56388658D03*
X108637884Y-74388658D03*
D16*
X108637884Y-56388658D03*
%TD*%
D14*
%TO.C,J52*%
X155637884Y-65388658D03*
D15*
X164637884Y-74388658D03*
X164637884Y-56388658D03*
X146637884Y-74388658D03*
D16*
X146637884Y-56388658D03*
%TD*%
D17*
X173000000Y-27000000D02*
X147000000Y-27000000D01*
X126000000Y-100000000D02*
X100000000Y-100000000D01*
X147000000Y-25400002D02*
X126000000Y-25400002D01*
X173000000Y-53000000D02*
X173000000Y-27000000D01*
X173000000Y-74000000D02*
X174599998Y-74000000D01*
X174599998Y-74000000D02*
X174599998Y-53000000D01*
X98400001Y-74000000D02*
X100000000Y-74000000D01*
X100000000Y-53000000D02*
X98400001Y-53000000D01*
X100000000Y-74000000D02*
X100000000Y-100000000D01*
X98400001Y-53000000D02*
X98400001Y-74000000D01*
X174599998Y-53000000D02*
X173000000Y-53000000D01*
X100000000Y-27000000D02*
X100000000Y-53000000D01*
X126000000Y-25400002D02*
X126000000Y-27000000D01*
X147000000Y-101599999D02*
X147000000Y-100000000D01*
X147000000Y-25400002D02*
X147000000Y-27000000D01*
X126000000Y-100000000D02*
X126000000Y-101599999D01*
X126000000Y-101599999D02*
X147000000Y-101599999D01*
X126000000Y-27000000D02*
X100000000Y-27000000D01*
X173000000Y-100000000D02*
X173000000Y-74000000D01*
X147000000Y-100000000D02*
X173000000Y-100000000D01*
M02*
