%TF.GenerationSoftware,KiCad,Pcbnew,7.0.5-0*%
%TF.CreationDate,2024-04-21T20:18:27-04:00*%
%TF.ProjectId,swr_meter_rear,7377725f-6d65-4746-9572-5f726561722e,rev?*%
%TF.SameCoordinates,Original*%
%TF.FileFunction,Drillmap*%
%TF.FilePolarity,Positive*%
%FSLAX45Y45*%
G04 Gerber Fmt 4.5, Leading zero omitted, Abs format (unit mm)*
G04 Created by KiCad (PCBNEW 7.0.5-0) date 2024-04-21 20:18:27*
%MOMM*%
%LPD*%
G01*
G04 APERTURE LIST*
%ADD10C,0.349999*%
%ADD11C,0.200000*%
%ADD12C,0.270000*%
%ADD13C,0.350000*%
%ADD14C,0.370000*%
%ADD15C,1.680000*%
%ADD16C,0.800000*%
G04 APERTURE END LIST*
D10*
X17300000Y-2700000D02*
X14700000Y-2700000D01*
X12600000Y-10000000D02*
X10000000Y-10000000D01*
X14700000Y-2540000D02*
X12600000Y-2540000D01*
X17300000Y-5300000D02*
X17300000Y-2700000D01*
X17300000Y-7400000D02*
X17460000Y-7400000D01*
X17460000Y-7400000D02*
X17460000Y-5300000D01*
X9840000Y-7400000D02*
X10000000Y-7400000D01*
X10000000Y-5300000D02*
X9840000Y-5300000D01*
X10000000Y-7400000D02*
X10000000Y-10000000D01*
X9840000Y-5300000D02*
X9840000Y-7400000D01*
X17460000Y-5300000D02*
X17300000Y-5300000D01*
X10000000Y-2700000D02*
X10000000Y-5300000D01*
X12600000Y-2540000D02*
X12600000Y-2700000D01*
X14700000Y-10160000D02*
X14700000Y-10000000D01*
X14700000Y-2540000D02*
X14700000Y-2700000D01*
X12600000Y-10000000D02*
X12600000Y-10160000D01*
X12600000Y-10160000D02*
X14700000Y-10160000D01*
X12600000Y-2700000D02*
X10000000Y-2700000D01*
X17300000Y-10000000D02*
X17300000Y-7400000D01*
X14700000Y-10000000D02*
X17300000Y-10000000D01*
D11*
D12*
X10320000Y-3106000D02*
X10590000Y-3376000D01*
X10590000Y-3106000D02*
X10320000Y-3376000D01*
X10320000Y-9314000D02*
X10590000Y-9584000D01*
X10590000Y-9314000D02*
X10320000Y-9584000D01*
X16712000Y-9324000D02*
X16982000Y-9594000D01*
X16982000Y-9324000D02*
X16712000Y-9594000D01*
X16713000Y-3104000D02*
X16983000Y-3374000D01*
X16983000Y-3104000D02*
X16713000Y-3374000D01*
D13*
X11038788Y-5638866D02*
G75*
G03*
X11038788Y-5638866I-175000J0D01*
G01*
X11038788Y-7438866D02*
G75*
G03*
X11038788Y-7438866I-175000J0D01*
G01*
X12838788Y-5638866D02*
G75*
G03*
X12838788Y-5638866I-175000J0D01*
G01*
X12838788Y-7438866D02*
G75*
G03*
X12838788Y-7438866I-175000J0D01*
G01*
X14838788Y-5638866D02*
G75*
G03*
X14838788Y-5638866I-175000J0D01*
G01*
X14838788Y-7438866D02*
G75*
G03*
X14838788Y-7438866I-175000J0D01*
G01*
X16638788Y-5638866D02*
G75*
G03*
X16638788Y-5638866I-175000J0D01*
G01*
X16638788Y-7438866D02*
G75*
G03*
X16638788Y-7438866I-175000J0D01*
G01*
D14*
X15563788Y-8757133D02*
X15563788Y-9127133D01*
X15378788Y-8942133D02*
X15748788Y-8942133D01*
D15*
X12357764Y-7132841D02*
X12357764Y-5944890D01*
X11169813Y-5944890D01*
X11169813Y-7132841D01*
X12357764Y-7132841D01*
X16157764Y-7132841D02*
X16157764Y-5944890D01*
X14969813Y-5944890D01*
X14969813Y-7132841D01*
X16157764Y-7132841D01*
D16*
X11423788Y-9342133D02*
X11823788Y-8942133D01*
X11423788Y-8542133D01*
X11023788Y-8942133D01*
X11423788Y-9342133D01*
D11*
X10083277Y-10488984D02*
X10083277Y-10288984D01*
X10083277Y-10288984D02*
X10130896Y-10288984D01*
X10130896Y-10288984D02*
X10159468Y-10298507D01*
X10159468Y-10298507D02*
X10178515Y-10317555D01*
X10178515Y-10317555D02*
X10188039Y-10336603D01*
X10188039Y-10336603D02*
X10197563Y-10374698D01*
X10197563Y-10374698D02*
X10197563Y-10403269D01*
X10197563Y-10403269D02*
X10188039Y-10441365D01*
X10188039Y-10441365D02*
X10178515Y-10460412D01*
X10178515Y-10460412D02*
X10159468Y-10479460D01*
X10159468Y-10479460D02*
X10130896Y-10488984D01*
X10130896Y-10488984D02*
X10083277Y-10488984D01*
X10283277Y-10488984D02*
X10283277Y-10355650D01*
X10283277Y-10393746D02*
X10292801Y-10374698D01*
X10292801Y-10374698D02*
X10302325Y-10365174D01*
X10302325Y-10365174D02*
X10321372Y-10355650D01*
X10321372Y-10355650D02*
X10340420Y-10355650D01*
X10407087Y-10488984D02*
X10407087Y-10355650D01*
X10407087Y-10288984D02*
X10397563Y-10298507D01*
X10397563Y-10298507D02*
X10407087Y-10308031D01*
X10407087Y-10308031D02*
X10416610Y-10298507D01*
X10416610Y-10298507D02*
X10407087Y-10288984D01*
X10407087Y-10288984D02*
X10407087Y-10308031D01*
X10530896Y-10488984D02*
X10511848Y-10479460D01*
X10511848Y-10479460D02*
X10502325Y-10460412D01*
X10502325Y-10460412D02*
X10502325Y-10288984D01*
X10635658Y-10488984D02*
X10616610Y-10479460D01*
X10616610Y-10479460D02*
X10607087Y-10460412D01*
X10607087Y-10460412D02*
X10607087Y-10288984D01*
X10864229Y-10488984D02*
X10864229Y-10288984D01*
X10864229Y-10288984D02*
X10930896Y-10431841D01*
X10930896Y-10431841D02*
X10997563Y-10288984D01*
X10997563Y-10288984D02*
X10997563Y-10488984D01*
X11178515Y-10488984D02*
X11178515Y-10384222D01*
X11178515Y-10384222D02*
X11168991Y-10365174D01*
X11168991Y-10365174D02*
X11149944Y-10355650D01*
X11149944Y-10355650D02*
X11111848Y-10355650D01*
X11111848Y-10355650D02*
X11092801Y-10365174D01*
X11178515Y-10479460D02*
X11159468Y-10488984D01*
X11159468Y-10488984D02*
X11111848Y-10488984D01*
X11111848Y-10488984D02*
X11092801Y-10479460D01*
X11092801Y-10479460D02*
X11083277Y-10460412D01*
X11083277Y-10460412D02*
X11083277Y-10441365D01*
X11083277Y-10441365D02*
X11092801Y-10422317D01*
X11092801Y-10422317D02*
X11111848Y-10412793D01*
X11111848Y-10412793D02*
X11159468Y-10412793D01*
X11159468Y-10412793D02*
X11178515Y-10403269D01*
X11273753Y-10355650D02*
X11273753Y-10555650D01*
X11273753Y-10365174D02*
X11292801Y-10355650D01*
X11292801Y-10355650D02*
X11330896Y-10355650D01*
X11330896Y-10355650D02*
X11349944Y-10365174D01*
X11349944Y-10365174D02*
X11359467Y-10374698D01*
X11359467Y-10374698D02*
X11368991Y-10393746D01*
X11368991Y-10393746D02*
X11368991Y-10450888D01*
X11368991Y-10450888D02*
X11359467Y-10469936D01*
X11359467Y-10469936D02*
X11349944Y-10479460D01*
X11349944Y-10479460D02*
X11330896Y-10488984D01*
X11330896Y-10488984D02*
X11292801Y-10488984D01*
X11292801Y-10488984D02*
X11273753Y-10479460D01*
X11454706Y-10469936D02*
X11464229Y-10479460D01*
X11464229Y-10479460D02*
X11454706Y-10488984D01*
X11454706Y-10488984D02*
X11445182Y-10479460D01*
X11445182Y-10479460D02*
X11454706Y-10469936D01*
X11454706Y-10469936D02*
X11454706Y-10488984D01*
X11454706Y-10365174D02*
X11464229Y-10374698D01*
X11464229Y-10374698D02*
X11454706Y-10384222D01*
X11454706Y-10384222D02*
X11445182Y-10374698D01*
X11445182Y-10374698D02*
X11454706Y-10365174D01*
X11454706Y-10365174D02*
X11454706Y-10384222D01*
X9622500Y-10717500D02*
X9822500Y-10917500D01*
X9822500Y-10717500D02*
X9622500Y-10917500D01*
X10073753Y-10728031D02*
X10083277Y-10718507D01*
X10083277Y-10718507D02*
X10102325Y-10708984D01*
X10102325Y-10708984D02*
X10149944Y-10708984D01*
X10149944Y-10708984D02*
X10168991Y-10718507D01*
X10168991Y-10718507D02*
X10178515Y-10728031D01*
X10178515Y-10728031D02*
X10188039Y-10747079D01*
X10188039Y-10747079D02*
X10188039Y-10766126D01*
X10188039Y-10766126D02*
X10178515Y-10794698D01*
X10178515Y-10794698D02*
X10064229Y-10908984D01*
X10064229Y-10908984D02*
X10188039Y-10908984D01*
X10273753Y-10889936D02*
X10283277Y-10899460D01*
X10283277Y-10899460D02*
X10273753Y-10908984D01*
X10273753Y-10908984D02*
X10264229Y-10899460D01*
X10264229Y-10899460D02*
X10273753Y-10889936D01*
X10273753Y-10889936D02*
X10273753Y-10908984D01*
X10349944Y-10708984D02*
X10483277Y-10708984D01*
X10483277Y-10708984D02*
X10397563Y-10908984D01*
X10597563Y-10708984D02*
X10616610Y-10708984D01*
X10616610Y-10708984D02*
X10635658Y-10718507D01*
X10635658Y-10718507D02*
X10645182Y-10728031D01*
X10645182Y-10728031D02*
X10654706Y-10747079D01*
X10654706Y-10747079D02*
X10664229Y-10785174D01*
X10664229Y-10785174D02*
X10664229Y-10832793D01*
X10664229Y-10832793D02*
X10654706Y-10870888D01*
X10654706Y-10870888D02*
X10645182Y-10889936D01*
X10645182Y-10889936D02*
X10635658Y-10899460D01*
X10635658Y-10899460D02*
X10616610Y-10908984D01*
X10616610Y-10908984D02*
X10597563Y-10908984D01*
X10597563Y-10908984D02*
X10578515Y-10899460D01*
X10578515Y-10899460D02*
X10568991Y-10889936D01*
X10568991Y-10889936D02*
X10559468Y-10870888D01*
X10559468Y-10870888D02*
X10549944Y-10832793D01*
X10549944Y-10832793D02*
X10549944Y-10785174D01*
X10549944Y-10785174D02*
X10559468Y-10747079D01*
X10559468Y-10747079D02*
X10568991Y-10728031D01*
X10568991Y-10728031D02*
X10578515Y-10718507D01*
X10578515Y-10718507D02*
X10597563Y-10708984D01*
X10788039Y-10708984D02*
X10807087Y-10708984D01*
X10807087Y-10708984D02*
X10826134Y-10718507D01*
X10826134Y-10718507D02*
X10835658Y-10728031D01*
X10835658Y-10728031D02*
X10845182Y-10747079D01*
X10845182Y-10747079D02*
X10854706Y-10785174D01*
X10854706Y-10785174D02*
X10854706Y-10832793D01*
X10854706Y-10832793D02*
X10845182Y-10870888D01*
X10845182Y-10870888D02*
X10835658Y-10889936D01*
X10835658Y-10889936D02*
X10826134Y-10899460D01*
X10826134Y-10899460D02*
X10807087Y-10908984D01*
X10807087Y-10908984D02*
X10788039Y-10908984D01*
X10788039Y-10908984D02*
X10768991Y-10899460D01*
X10768991Y-10899460D02*
X10759468Y-10889936D01*
X10759468Y-10889936D02*
X10749944Y-10870888D01*
X10749944Y-10870888D02*
X10740420Y-10832793D01*
X10740420Y-10832793D02*
X10740420Y-10785174D01*
X10740420Y-10785174D02*
X10749944Y-10747079D01*
X10749944Y-10747079D02*
X10759468Y-10728031D01*
X10759468Y-10728031D02*
X10768991Y-10718507D01*
X10768991Y-10718507D02*
X10788039Y-10708984D01*
X10940420Y-10908984D02*
X10940420Y-10775650D01*
X10940420Y-10794698D02*
X10949944Y-10785174D01*
X10949944Y-10785174D02*
X10968991Y-10775650D01*
X10968991Y-10775650D02*
X10997563Y-10775650D01*
X10997563Y-10775650D02*
X11016610Y-10785174D01*
X11016610Y-10785174D02*
X11026134Y-10804222D01*
X11026134Y-10804222D02*
X11026134Y-10908984D01*
X11026134Y-10804222D02*
X11035658Y-10785174D01*
X11035658Y-10785174D02*
X11054706Y-10775650D01*
X11054706Y-10775650D02*
X11083277Y-10775650D01*
X11083277Y-10775650D02*
X11102325Y-10785174D01*
X11102325Y-10785174D02*
X11111849Y-10804222D01*
X11111849Y-10804222D02*
X11111849Y-10908984D01*
X11207087Y-10908984D02*
X11207087Y-10775650D01*
X11207087Y-10794698D02*
X11216610Y-10785174D01*
X11216610Y-10785174D02*
X11235658Y-10775650D01*
X11235658Y-10775650D02*
X11264229Y-10775650D01*
X11264229Y-10775650D02*
X11283277Y-10785174D01*
X11283277Y-10785174D02*
X11292801Y-10804222D01*
X11292801Y-10804222D02*
X11292801Y-10908984D01*
X11292801Y-10804222D02*
X11302325Y-10785174D01*
X11302325Y-10785174D02*
X11321372Y-10775650D01*
X11321372Y-10775650D02*
X11349944Y-10775650D01*
X11349944Y-10775650D02*
X11368991Y-10785174D01*
X11368991Y-10785174D02*
X11378515Y-10804222D01*
X11378515Y-10804222D02*
X11378515Y-10908984D01*
X11768991Y-10699460D02*
X11597563Y-10956603D01*
X12026134Y-10708984D02*
X12045182Y-10708984D01*
X12045182Y-10708984D02*
X12064230Y-10718507D01*
X12064230Y-10718507D02*
X12073753Y-10728031D01*
X12073753Y-10728031D02*
X12083277Y-10747079D01*
X12083277Y-10747079D02*
X12092801Y-10785174D01*
X12092801Y-10785174D02*
X12092801Y-10832793D01*
X12092801Y-10832793D02*
X12083277Y-10870888D01*
X12083277Y-10870888D02*
X12073753Y-10889936D01*
X12073753Y-10889936D02*
X12064230Y-10899460D01*
X12064230Y-10899460D02*
X12045182Y-10908984D01*
X12045182Y-10908984D02*
X12026134Y-10908984D01*
X12026134Y-10908984D02*
X12007087Y-10899460D01*
X12007087Y-10899460D02*
X11997563Y-10889936D01*
X11997563Y-10889936D02*
X11988039Y-10870888D01*
X11988039Y-10870888D02*
X11978515Y-10832793D01*
X11978515Y-10832793D02*
X11978515Y-10785174D01*
X11978515Y-10785174D02*
X11988039Y-10747079D01*
X11988039Y-10747079D02*
X11997563Y-10728031D01*
X11997563Y-10728031D02*
X12007087Y-10718507D01*
X12007087Y-10718507D02*
X12026134Y-10708984D01*
X12178515Y-10889936D02*
X12188039Y-10899460D01*
X12188039Y-10899460D02*
X12178515Y-10908984D01*
X12178515Y-10908984D02*
X12168991Y-10899460D01*
X12168991Y-10899460D02*
X12178515Y-10889936D01*
X12178515Y-10889936D02*
X12178515Y-10908984D01*
X12378515Y-10908984D02*
X12264230Y-10908984D01*
X12321372Y-10908984D02*
X12321372Y-10708984D01*
X12321372Y-10708984D02*
X12302325Y-10737555D01*
X12302325Y-10737555D02*
X12283277Y-10756603D01*
X12283277Y-10756603D02*
X12264230Y-10766126D01*
X12502325Y-10708984D02*
X12521372Y-10708984D01*
X12521372Y-10708984D02*
X12540420Y-10718507D01*
X12540420Y-10718507D02*
X12549944Y-10728031D01*
X12549944Y-10728031D02*
X12559468Y-10747079D01*
X12559468Y-10747079D02*
X12568991Y-10785174D01*
X12568991Y-10785174D02*
X12568991Y-10832793D01*
X12568991Y-10832793D02*
X12559468Y-10870888D01*
X12559468Y-10870888D02*
X12549944Y-10889936D01*
X12549944Y-10889936D02*
X12540420Y-10899460D01*
X12540420Y-10899460D02*
X12521372Y-10908984D01*
X12521372Y-10908984D02*
X12502325Y-10908984D01*
X12502325Y-10908984D02*
X12483277Y-10899460D01*
X12483277Y-10899460D02*
X12473753Y-10889936D01*
X12473753Y-10889936D02*
X12464230Y-10870888D01*
X12464230Y-10870888D02*
X12454706Y-10832793D01*
X12454706Y-10832793D02*
X12454706Y-10785174D01*
X12454706Y-10785174D02*
X12464230Y-10747079D01*
X12464230Y-10747079D02*
X12473753Y-10728031D01*
X12473753Y-10728031D02*
X12483277Y-10718507D01*
X12483277Y-10718507D02*
X12502325Y-10708984D01*
X12740420Y-10708984D02*
X12702325Y-10708984D01*
X12702325Y-10708984D02*
X12683277Y-10718507D01*
X12683277Y-10718507D02*
X12673753Y-10728031D01*
X12673753Y-10728031D02*
X12654706Y-10756603D01*
X12654706Y-10756603D02*
X12645182Y-10794698D01*
X12645182Y-10794698D02*
X12645182Y-10870888D01*
X12645182Y-10870888D02*
X12654706Y-10889936D01*
X12654706Y-10889936D02*
X12664230Y-10899460D01*
X12664230Y-10899460D02*
X12683277Y-10908984D01*
X12683277Y-10908984D02*
X12721372Y-10908984D01*
X12721372Y-10908984D02*
X12740420Y-10899460D01*
X12740420Y-10899460D02*
X12749944Y-10889936D01*
X12749944Y-10889936D02*
X12759468Y-10870888D01*
X12759468Y-10870888D02*
X12759468Y-10823269D01*
X12759468Y-10823269D02*
X12749944Y-10804222D01*
X12749944Y-10804222D02*
X12740420Y-10794698D01*
X12740420Y-10794698D02*
X12721372Y-10785174D01*
X12721372Y-10785174D02*
X12683277Y-10785174D01*
X12683277Y-10785174D02*
X12664230Y-10794698D01*
X12664230Y-10794698D02*
X12654706Y-10804222D01*
X12654706Y-10804222D02*
X12645182Y-10823269D01*
X12826134Y-10708984D02*
X12949944Y-10708984D01*
X12949944Y-10708984D02*
X12883277Y-10785174D01*
X12883277Y-10785174D02*
X12911849Y-10785174D01*
X12911849Y-10785174D02*
X12930896Y-10794698D01*
X12930896Y-10794698D02*
X12940420Y-10804222D01*
X12940420Y-10804222D02*
X12949944Y-10823269D01*
X12949944Y-10823269D02*
X12949944Y-10870888D01*
X12949944Y-10870888D02*
X12940420Y-10889936D01*
X12940420Y-10889936D02*
X12930896Y-10899460D01*
X12930896Y-10899460D02*
X12911849Y-10908984D01*
X12911849Y-10908984D02*
X12854706Y-10908984D01*
X12854706Y-10908984D02*
X12835658Y-10899460D01*
X12835658Y-10899460D02*
X12826134Y-10889936D01*
X13026134Y-10708984D02*
X13026134Y-10747079D01*
X13102325Y-10708984D02*
X13102325Y-10747079D01*
X13397563Y-10985174D02*
X13388039Y-10975650D01*
X13388039Y-10975650D02*
X13368992Y-10947079D01*
X13368992Y-10947079D02*
X13359468Y-10928031D01*
X13359468Y-10928031D02*
X13349944Y-10899460D01*
X13349944Y-10899460D02*
X13340420Y-10851841D01*
X13340420Y-10851841D02*
X13340420Y-10813746D01*
X13340420Y-10813746D02*
X13349944Y-10766126D01*
X13349944Y-10766126D02*
X13359468Y-10737555D01*
X13359468Y-10737555D02*
X13368992Y-10718507D01*
X13368992Y-10718507D02*
X13388039Y-10689936D01*
X13388039Y-10689936D02*
X13397563Y-10680412D01*
X13559468Y-10775650D02*
X13559468Y-10908984D01*
X13511849Y-10699460D02*
X13464230Y-10842317D01*
X13464230Y-10842317D02*
X13588039Y-10842317D01*
X13816611Y-10908984D02*
X13816611Y-10708984D01*
X13902325Y-10908984D02*
X13902325Y-10804222D01*
X13902325Y-10804222D02*
X13892801Y-10785174D01*
X13892801Y-10785174D02*
X13873754Y-10775650D01*
X13873754Y-10775650D02*
X13845182Y-10775650D01*
X13845182Y-10775650D02*
X13826134Y-10785174D01*
X13826134Y-10785174D02*
X13816611Y-10794698D01*
X14026134Y-10908984D02*
X14007087Y-10899460D01*
X14007087Y-10899460D02*
X13997563Y-10889936D01*
X13997563Y-10889936D02*
X13988039Y-10870888D01*
X13988039Y-10870888D02*
X13988039Y-10813746D01*
X13988039Y-10813746D02*
X13997563Y-10794698D01*
X13997563Y-10794698D02*
X14007087Y-10785174D01*
X14007087Y-10785174D02*
X14026134Y-10775650D01*
X14026134Y-10775650D02*
X14054706Y-10775650D01*
X14054706Y-10775650D02*
X14073754Y-10785174D01*
X14073754Y-10785174D02*
X14083277Y-10794698D01*
X14083277Y-10794698D02*
X14092801Y-10813746D01*
X14092801Y-10813746D02*
X14092801Y-10870888D01*
X14092801Y-10870888D02*
X14083277Y-10889936D01*
X14083277Y-10889936D02*
X14073754Y-10899460D01*
X14073754Y-10899460D02*
X14054706Y-10908984D01*
X14054706Y-10908984D02*
X14026134Y-10908984D01*
X14207087Y-10908984D02*
X14188039Y-10899460D01*
X14188039Y-10899460D02*
X14178515Y-10880412D01*
X14178515Y-10880412D02*
X14178515Y-10708984D01*
X14359468Y-10899460D02*
X14340420Y-10908984D01*
X14340420Y-10908984D02*
X14302325Y-10908984D01*
X14302325Y-10908984D02*
X14283277Y-10899460D01*
X14283277Y-10899460D02*
X14273754Y-10880412D01*
X14273754Y-10880412D02*
X14273754Y-10804222D01*
X14273754Y-10804222D02*
X14283277Y-10785174D01*
X14283277Y-10785174D02*
X14302325Y-10775650D01*
X14302325Y-10775650D02*
X14340420Y-10775650D01*
X14340420Y-10775650D02*
X14359468Y-10785174D01*
X14359468Y-10785174D02*
X14368992Y-10804222D01*
X14368992Y-10804222D02*
X14368992Y-10823269D01*
X14368992Y-10823269D02*
X14273754Y-10842317D01*
X14445182Y-10899460D02*
X14464230Y-10908984D01*
X14464230Y-10908984D02*
X14502325Y-10908984D01*
X14502325Y-10908984D02*
X14521373Y-10899460D01*
X14521373Y-10899460D02*
X14530896Y-10880412D01*
X14530896Y-10880412D02*
X14530896Y-10870888D01*
X14530896Y-10870888D02*
X14521373Y-10851841D01*
X14521373Y-10851841D02*
X14502325Y-10842317D01*
X14502325Y-10842317D02*
X14473754Y-10842317D01*
X14473754Y-10842317D02*
X14454706Y-10832793D01*
X14454706Y-10832793D02*
X14445182Y-10813746D01*
X14445182Y-10813746D02*
X14445182Y-10804222D01*
X14445182Y-10804222D02*
X14454706Y-10785174D01*
X14454706Y-10785174D02*
X14473754Y-10775650D01*
X14473754Y-10775650D02*
X14502325Y-10775650D01*
X14502325Y-10775650D02*
X14521373Y-10785174D01*
X14597563Y-10985174D02*
X14607087Y-10975650D01*
X14607087Y-10975650D02*
X14626135Y-10947079D01*
X14626135Y-10947079D02*
X14635658Y-10928031D01*
X14635658Y-10928031D02*
X14645182Y-10899460D01*
X14645182Y-10899460D02*
X14654706Y-10851841D01*
X14654706Y-10851841D02*
X14654706Y-10813746D01*
X14654706Y-10813746D02*
X14645182Y-10766126D01*
X14645182Y-10766126D02*
X14635658Y-10737555D01*
X14635658Y-10737555D02*
X14626135Y-10718507D01*
X14626135Y-10718507D02*
X14607087Y-10689936D01*
X14607087Y-10689936D02*
X14597563Y-10680412D01*
X9822500Y-11137500D02*
G75*
G03*
X9822500Y-11137500I-100000J0D01*
G01*
X10064229Y-11028984D02*
X10188039Y-11028984D01*
X10188039Y-11028984D02*
X10121372Y-11105174D01*
X10121372Y-11105174D02*
X10149944Y-11105174D01*
X10149944Y-11105174D02*
X10168991Y-11114698D01*
X10168991Y-11114698D02*
X10178515Y-11124222D01*
X10178515Y-11124222D02*
X10188039Y-11143269D01*
X10188039Y-11143269D02*
X10188039Y-11190888D01*
X10188039Y-11190888D02*
X10178515Y-11209936D01*
X10178515Y-11209936D02*
X10168991Y-11219460D01*
X10168991Y-11219460D02*
X10149944Y-11228984D01*
X10149944Y-11228984D02*
X10092801Y-11228984D01*
X10092801Y-11228984D02*
X10073753Y-11219460D01*
X10073753Y-11219460D02*
X10064229Y-11209936D01*
X10273753Y-11209936D02*
X10283277Y-11219460D01*
X10283277Y-11219460D02*
X10273753Y-11228984D01*
X10273753Y-11228984D02*
X10264229Y-11219460D01*
X10264229Y-11219460D02*
X10273753Y-11209936D01*
X10273753Y-11209936D02*
X10273753Y-11228984D01*
X10464229Y-11028984D02*
X10368991Y-11028984D01*
X10368991Y-11028984D02*
X10359468Y-11124222D01*
X10359468Y-11124222D02*
X10368991Y-11114698D01*
X10368991Y-11114698D02*
X10388039Y-11105174D01*
X10388039Y-11105174D02*
X10435658Y-11105174D01*
X10435658Y-11105174D02*
X10454706Y-11114698D01*
X10454706Y-11114698D02*
X10464229Y-11124222D01*
X10464229Y-11124222D02*
X10473753Y-11143269D01*
X10473753Y-11143269D02*
X10473753Y-11190888D01*
X10473753Y-11190888D02*
X10464229Y-11209936D01*
X10464229Y-11209936D02*
X10454706Y-11219460D01*
X10454706Y-11219460D02*
X10435658Y-11228984D01*
X10435658Y-11228984D02*
X10388039Y-11228984D01*
X10388039Y-11228984D02*
X10368991Y-11219460D01*
X10368991Y-11219460D02*
X10359468Y-11209936D01*
X10597563Y-11028984D02*
X10616610Y-11028984D01*
X10616610Y-11028984D02*
X10635658Y-11038507D01*
X10635658Y-11038507D02*
X10645182Y-11048031D01*
X10645182Y-11048031D02*
X10654706Y-11067079D01*
X10654706Y-11067079D02*
X10664229Y-11105174D01*
X10664229Y-11105174D02*
X10664229Y-11152793D01*
X10664229Y-11152793D02*
X10654706Y-11190888D01*
X10654706Y-11190888D02*
X10645182Y-11209936D01*
X10645182Y-11209936D02*
X10635658Y-11219460D01*
X10635658Y-11219460D02*
X10616610Y-11228984D01*
X10616610Y-11228984D02*
X10597563Y-11228984D01*
X10597563Y-11228984D02*
X10578515Y-11219460D01*
X10578515Y-11219460D02*
X10568991Y-11209936D01*
X10568991Y-11209936D02*
X10559468Y-11190888D01*
X10559468Y-11190888D02*
X10549944Y-11152793D01*
X10549944Y-11152793D02*
X10549944Y-11105174D01*
X10549944Y-11105174D02*
X10559468Y-11067079D01*
X10559468Y-11067079D02*
X10568991Y-11048031D01*
X10568991Y-11048031D02*
X10578515Y-11038507D01*
X10578515Y-11038507D02*
X10597563Y-11028984D01*
X10788039Y-11028984D02*
X10807087Y-11028984D01*
X10807087Y-11028984D02*
X10826134Y-11038507D01*
X10826134Y-11038507D02*
X10835658Y-11048031D01*
X10835658Y-11048031D02*
X10845182Y-11067079D01*
X10845182Y-11067079D02*
X10854706Y-11105174D01*
X10854706Y-11105174D02*
X10854706Y-11152793D01*
X10854706Y-11152793D02*
X10845182Y-11190888D01*
X10845182Y-11190888D02*
X10835658Y-11209936D01*
X10835658Y-11209936D02*
X10826134Y-11219460D01*
X10826134Y-11219460D02*
X10807087Y-11228984D01*
X10807087Y-11228984D02*
X10788039Y-11228984D01*
X10788039Y-11228984D02*
X10768991Y-11219460D01*
X10768991Y-11219460D02*
X10759468Y-11209936D01*
X10759468Y-11209936D02*
X10749944Y-11190888D01*
X10749944Y-11190888D02*
X10740420Y-11152793D01*
X10740420Y-11152793D02*
X10740420Y-11105174D01*
X10740420Y-11105174D02*
X10749944Y-11067079D01*
X10749944Y-11067079D02*
X10759468Y-11048031D01*
X10759468Y-11048031D02*
X10768991Y-11038507D01*
X10768991Y-11038507D02*
X10788039Y-11028984D01*
X10940420Y-11228984D02*
X10940420Y-11095650D01*
X10940420Y-11114698D02*
X10949944Y-11105174D01*
X10949944Y-11105174D02*
X10968991Y-11095650D01*
X10968991Y-11095650D02*
X10997563Y-11095650D01*
X10997563Y-11095650D02*
X11016610Y-11105174D01*
X11016610Y-11105174D02*
X11026134Y-11124222D01*
X11026134Y-11124222D02*
X11026134Y-11228984D01*
X11026134Y-11124222D02*
X11035658Y-11105174D01*
X11035658Y-11105174D02*
X11054706Y-11095650D01*
X11054706Y-11095650D02*
X11083277Y-11095650D01*
X11083277Y-11095650D02*
X11102325Y-11105174D01*
X11102325Y-11105174D02*
X11111849Y-11124222D01*
X11111849Y-11124222D02*
X11111849Y-11228984D01*
X11207087Y-11228984D02*
X11207087Y-11095650D01*
X11207087Y-11114698D02*
X11216610Y-11105174D01*
X11216610Y-11105174D02*
X11235658Y-11095650D01*
X11235658Y-11095650D02*
X11264229Y-11095650D01*
X11264229Y-11095650D02*
X11283277Y-11105174D01*
X11283277Y-11105174D02*
X11292801Y-11124222D01*
X11292801Y-11124222D02*
X11292801Y-11228984D01*
X11292801Y-11124222D02*
X11302325Y-11105174D01*
X11302325Y-11105174D02*
X11321372Y-11095650D01*
X11321372Y-11095650D02*
X11349944Y-11095650D01*
X11349944Y-11095650D02*
X11368991Y-11105174D01*
X11368991Y-11105174D02*
X11378515Y-11124222D01*
X11378515Y-11124222D02*
X11378515Y-11228984D01*
X11768991Y-11019460D02*
X11597563Y-11276603D01*
X12026134Y-11028984D02*
X12045182Y-11028984D01*
X12045182Y-11028984D02*
X12064230Y-11038507D01*
X12064230Y-11038507D02*
X12073753Y-11048031D01*
X12073753Y-11048031D02*
X12083277Y-11067079D01*
X12083277Y-11067079D02*
X12092801Y-11105174D01*
X12092801Y-11105174D02*
X12092801Y-11152793D01*
X12092801Y-11152793D02*
X12083277Y-11190888D01*
X12083277Y-11190888D02*
X12073753Y-11209936D01*
X12073753Y-11209936D02*
X12064230Y-11219460D01*
X12064230Y-11219460D02*
X12045182Y-11228984D01*
X12045182Y-11228984D02*
X12026134Y-11228984D01*
X12026134Y-11228984D02*
X12007087Y-11219460D01*
X12007087Y-11219460D02*
X11997563Y-11209936D01*
X11997563Y-11209936D02*
X11988039Y-11190888D01*
X11988039Y-11190888D02*
X11978515Y-11152793D01*
X11978515Y-11152793D02*
X11978515Y-11105174D01*
X11978515Y-11105174D02*
X11988039Y-11067079D01*
X11988039Y-11067079D02*
X11997563Y-11048031D01*
X11997563Y-11048031D02*
X12007087Y-11038507D01*
X12007087Y-11038507D02*
X12026134Y-11028984D01*
X12178515Y-11209936D02*
X12188039Y-11219460D01*
X12188039Y-11219460D02*
X12178515Y-11228984D01*
X12178515Y-11228984D02*
X12168991Y-11219460D01*
X12168991Y-11219460D02*
X12178515Y-11209936D01*
X12178515Y-11209936D02*
X12178515Y-11228984D01*
X12378515Y-11228984D02*
X12264230Y-11228984D01*
X12321372Y-11228984D02*
X12321372Y-11028984D01*
X12321372Y-11028984D02*
X12302325Y-11057555D01*
X12302325Y-11057555D02*
X12283277Y-11076603D01*
X12283277Y-11076603D02*
X12264230Y-11086126D01*
X12445182Y-11028984D02*
X12568991Y-11028984D01*
X12568991Y-11028984D02*
X12502325Y-11105174D01*
X12502325Y-11105174D02*
X12530896Y-11105174D01*
X12530896Y-11105174D02*
X12549944Y-11114698D01*
X12549944Y-11114698D02*
X12559468Y-11124222D01*
X12559468Y-11124222D02*
X12568991Y-11143269D01*
X12568991Y-11143269D02*
X12568991Y-11190888D01*
X12568991Y-11190888D02*
X12559468Y-11209936D01*
X12559468Y-11209936D02*
X12549944Y-11219460D01*
X12549944Y-11219460D02*
X12530896Y-11228984D01*
X12530896Y-11228984D02*
X12473753Y-11228984D01*
X12473753Y-11228984D02*
X12454706Y-11219460D01*
X12454706Y-11219460D02*
X12445182Y-11209936D01*
X12635658Y-11028984D02*
X12768991Y-11028984D01*
X12768991Y-11028984D02*
X12683277Y-11228984D01*
X12873753Y-11114698D02*
X12854706Y-11105174D01*
X12854706Y-11105174D02*
X12845182Y-11095650D01*
X12845182Y-11095650D02*
X12835658Y-11076603D01*
X12835658Y-11076603D02*
X12835658Y-11067079D01*
X12835658Y-11067079D02*
X12845182Y-11048031D01*
X12845182Y-11048031D02*
X12854706Y-11038507D01*
X12854706Y-11038507D02*
X12873753Y-11028984D01*
X12873753Y-11028984D02*
X12911849Y-11028984D01*
X12911849Y-11028984D02*
X12930896Y-11038507D01*
X12930896Y-11038507D02*
X12940420Y-11048031D01*
X12940420Y-11048031D02*
X12949944Y-11067079D01*
X12949944Y-11067079D02*
X12949944Y-11076603D01*
X12949944Y-11076603D02*
X12940420Y-11095650D01*
X12940420Y-11095650D02*
X12930896Y-11105174D01*
X12930896Y-11105174D02*
X12911849Y-11114698D01*
X12911849Y-11114698D02*
X12873753Y-11114698D01*
X12873753Y-11114698D02*
X12854706Y-11124222D01*
X12854706Y-11124222D02*
X12845182Y-11133746D01*
X12845182Y-11133746D02*
X12835658Y-11152793D01*
X12835658Y-11152793D02*
X12835658Y-11190888D01*
X12835658Y-11190888D02*
X12845182Y-11209936D01*
X12845182Y-11209936D02*
X12854706Y-11219460D01*
X12854706Y-11219460D02*
X12873753Y-11228984D01*
X12873753Y-11228984D02*
X12911849Y-11228984D01*
X12911849Y-11228984D02*
X12930896Y-11219460D01*
X12930896Y-11219460D02*
X12940420Y-11209936D01*
X12940420Y-11209936D02*
X12949944Y-11190888D01*
X12949944Y-11190888D02*
X12949944Y-11152793D01*
X12949944Y-11152793D02*
X12940420Y-11133746D01*
X12940420Y-11133746D02*
X12930896Y-11124222D01*
X12930896Y-11124222D02*
X12911849Y-11114698D01*
X13026134Y-11028984D02*
X13026134Y-11067079D01*
X13102325Y-11028984D02*
X13102325Y-11067079D01*
X13397563Y-11305174D02*
X13388039Y-11295650D01*
X13388039Y-11295650D02*
X13368992Y-11267079D01*
X13368992Y-11267079D02*
X13359468Y-11248031D01*
X13359468Y-11248031D02*
X13349944Y-11219460D01*
X13349944Y-11219460D02*
X13340420Y-11171841D01*
X13340420Y-11171841D02*
X13340420Y-11133746D01*
X13340420Y-11133746D02*
X13349944Y-11086126D01*
X13349944Y-11086126D02*
X13359468Y-11057555D01*
X13359468Y-11057555D02*
X13368992Y-11038507D01*
X13368992Y-11038507D02*
X13388039Y-11009936D01*
X13388039Y-11009936D02*
X13397563Y-11000412D01*
X13502325Y-11114698D02*
X13483277Y-11105174D01*
X13483277Y-11105174D02*
X13473753Y-11095650D01*
X13473753Y-11095650D02*
X13464230Y-11076603D01*
X13464230Y-11076603D02*
X13464230Y-11067079D01*
X13464230Y-11067079D02*
X13473753Y-11048031D01*
X13473753Y-11048031D02*
X13483277Y-11038507D01*
X13483277Y-11038507D02*
X13502325Y-11028984D01*
X13502325Y-11028984D02*
X13540420Y-11028984D01*
X13540420Y-11028984D02*
X13559468Y-11038507D01*
X13559468Y-11038507D02*
X13568992Y-11048031D01*
X13568992Y-11048031D02*
X13578515Y-11067079D01*
X13578515Y-11067079D02*
X13578515Y-11076603D01*
X13578515Y-11076603D02*
X13568992Y-11095650D01*
X13568992Y-11095650D02*
X13559468Y-11105174D01*
X13559468Y-11105174D02*
X13540420Y-11114698D01*
X13540420Y-11114698D02*
X13502325Y-11114698D01*
X13502325Y-11114698D02*
X13483277Y-11124222D01*
X13483277Y-11124222D02*
X13473753Y-11133746D01*
X13473753Y-11133746D02*
X13464230Y-11152793D01*
X13464230Y-11152793D02*
X13464230Y-11190888D01*
X13464230Y-11190888D02*
X13473753Y-11209936D01*
X13473753Y-11209936D02*
X13483277Y-11219460D01*
X13483277Y-11219460D02*
X13502325Y-11228984D01*
X13502325Y-11228984D02*
X13540420Y-11228984D01*
X13540420Y-11228984D02*
X13559468Y-11219460D01*
X13559468Y-11219460D02*
X13568992Y-11209936D01*
X13568992Y-11209936D02*
X13578515Y-11190888D01*
X13578515Y-11190888D02*
X13578515Y-11152793D01*
X13578515Y-11152793D02*
X13568992Y-11133746D01*
X13568992Y-11133746D02*
X13559468Y-11124222D01*
X13559468Y-11124222D02*
X13540420Y-11114698D01*
X13816611Y-11228984D02*
X13816611Y-11028984D01*
X13902325Y-11228984D02*
X13902325Y-11124222D01*
X13902325Y-11124222D02*
X13892801Y-11105174D01*
X13892801Y-11105174D02*
X13873754Y-11095650D01*
X13873754Y-11095650D02*
X13845182Y-11095650D01*
X13845182Y-11095650D02*
X13826134Y-11105174D01*
X13826134Y-11105174D02*
X13816611Y-11114698D01*
X14026134Y-11228984D02*
X14007087Y-11219460D01*
X14007087Y-11219460D02*
X13997563Y-11209936D01*
X13997563Y-11209936D02*
X13988039Y-11190888D01*
X13988039Y-11190888D02*
X13988039Y-11133746D01*
X13988039Y-11133746D02*
X13997563Y-11114698D01*
X13997563Y-11114698D02*
X14007087Y-11105174D01*
X14007087Y-11105174D02*
X14026134Y-11095650D01*
X14026134Y-11095650D02*
X14054706Y-11095650D01*
X14054706Y-11095650D02*
X14073754Y-11105174D01*
X14073754Y-11105174D02*
X14083277Y-11114698D01*
X14083277Y-11114698D02*
X14092801Y-11133746D01*
X14092801Y-11133746D02*
X14092801Y-11190888D01*
X14092801Y-11190888D02*
X14083277Y-11209936D01*
X14083277Y-11209936D02*
X14073754Y-11219460D01*
X14073754Y-11219460D02*
X14054706Y-11228984D01*
X14054706Y-11228984D02*
X14026134Y-11228984D01*
X14207087Y-11228984D02*
X14188039Y-11219460D01*
X14188039Y-11219460D02*
X14178515Y-11200412D01*
X14178515Y-11200412D02*
X14178515Y-11028984D01*
X14359468Y-11219460D02*
X14340420Y-11228984D01*
X14340420Y-11228984D02*
X14302325Y-11228984D01*
X14302325Y-11228984D02*
X14283277Y-11219460D01*
X14283277Y-11219460D02*
X14273754Y-11200412D01*
X14273754Y-11200412D02*
X14273754Y-11124222D01*
X14273754Y-11124222D02*
X14283277Y-11105174D01*
X14283277Y-11105174D02*
X14302325Y-11095650D01*
X14302325Y-11095650D02*
X14340420Y-11095650D01*
X14340420Y-11095650D02*
X14359468Y-11105174D01*
X14359468Y-11105174D02*
X14368992Y-11124222D01*
X14368992Y-11124222D02*
X14368992Y-11143269D01*
X14368992Y-11143269D02*
X14273754Y-11162317D01*
X14445182Y-11219460D02*
X14464230Y-11228984D01*
X14464230Y-11228984D02*
X14502325Y-11228984D01*
X14502325Y-11228984D02*
X14521373Y-11219460D01*
X14521373Y-11219460D02*
X14530896Y-11200412D01*
X14530896Y-11200412D02*
X14530896Y-11190888D01*
X14530896Y-11190888D02*
X14521373Y-11171841D01*
X14521373Y-11171841D02*
X14502325Y-11162317D01*
X14502325Y-11162317D02*
X14473754Y-11162317D01*
X14473754Y-11162317D02*
X14454706Y-11152793D01*
X14454706Y-11152793D02*
X14445182Y-11133746D01*
X14445182Y-11133746D02*
X14445182Y-11124222D01*
X14445182Y-11124222D02*
X14454706Y-11105174D01*
X14454706Y-11105174D02*
X14473754Y-11095650D01*
X14473754Y-11095650D02*
X14502325Y-11095650D01*
X14502325Y-11095650D02*
X14521373Y-11105174D01*
X14597563Y-11305174D02*
X14607087Y-11295650D01*
X14607087Y-11295650D02*
X14626135Y-11267079D01*
X14626135Y-11267079D02*
X14635658Y-11248031D01*
X14635658Y-11248031D02*
X14645182Y-11219460D01*
X14645182Y-11219460D02*
X14654706Y-11171841D01*
X14654706Y-11171841D02*
X14654706Y-11133746D01*
X14654706Y-11133746D02*
X14645182Y-11086126D01*
X14645182Y-11086126D02*
X14635658Y-11057555D01*
X14635658Y-11057555D02*
X14626135Y-11038507D01*
X14626135Y-11038507D02*
X14607087Y-11009936D01*
X14607087Y-11009936D02*
X14597563Y-11000412D01*
X9722500Y-11357500D02*
X9722500Y-11557500D01*
X9622500Y-11457500D02*
X9822500Y-11457500D01*
X10064229Y-11348984D02*
X10188039Y-11348984D01*
X10188039Y-11348984D02*
X10121372Y-11425174D01*
X10121372Y-11425174D02*
X10149944Y-11425174D01*
X10149944Y-11425174D02*
X10168991Y-11434698D01*
X10168991Y-11434698D02*
X10178515Y-11444222D01*
X10178515Y-11444222D02*
X10188039Y-11463269D01*
X10188039Y-11463269D02*
X10188039Y-11510888D01*
X10188039Y-11510888D02*
X10178515Y-11529936D01*
X10178515Y-11529936D02*
X10168991Y-11539460D01*
X10168991Y-11539460D02*
X10149944Y-11548984D01*
X10149944Y-11548984D02*
X10092801Y-11548984D01*
X10092801Y-11548984D02*
X10073753Y-11539460D01*
X10073753Y-11539460D02*
X10064229Y-11529936D01*
X10273753Y-11529936D02*
X10283277Y-11539460D01*
X10283277Y-11539460D02*
X10273753Y-11548984D01*
X10273753Y-11548984D02*
X10264229Y-11539460D01*
X10264229Y-11539460D02*
X10273753Y-11529936D01*
X10273753Y-11529936D02*
X10273753Y-11548984D01*
X10349944Y-11348984D02*
X10483277Y-11348984D01*
X10483277Y-11348984D02*
X10397563Y-11548984D01*
X10597563Y-11348984D02*
X10616610Y-11348984D01*
X10616610Y-11348984D02*
X10635658Y-11358507D01*
X10635658Y-11358507D02*
X10645182Y-11368031D01*
X10645182Y-11368031D02*
X10654706Y-11387079D01*
X10654706Y-11387079D02*
X10664229Y-11425174D01*
X10664229Y-11425174D02*
X10664229Y-11472793D01*
X10664229Y-11472793D02*
X10654706Y-11510888D01*
X10654706Y-11510888D02*
X10645182Y-11529936D01*
X10645182Y-11529936D02*
X10635658Y-11539460D01*
X10635658Y-11539460D02*
X10616610Y-11548984D01*
X10616610Y-11548984D02*
X10597563Y-11548984D01*
X10597563Y-11548984D02*
X10578515Y-11539460D01*
X10578515Y-11539460D02*
X10568991Y-11529936D01*
X10568991Y-11529936D02*
X10559468Y-11510888D01*
X10559468Y-11510888D02*
X10549944Y-11472793D01*
X10549944Y-11472793D02*
X10549944Y-11425174D01*
X10549944Y-11425174D02*
X10559468Y-11387079D01*
X10559468Y-11387079D02*
X10568991Y-11368031D01*
X10568991Y-11368031D02*
X10578515Y-11358507D01*
X10578515Y-11358507D02*
X10597563Y-11348984D01*
X10788039Y-11348984D02*
X10807087Y-11348984D01*
X10807087Y-11348984D02*
X10826134Y-11358507D01*
X10826134Y-11358507D02*
X10835658Y-11368031D01*
X10835658Y-11368031D02*
X10845182Y-11387079D01*
X10845182Y-11387079D02*
X10854706Y-11425174D01*
X10854706Y-11425174D02*
X10854706Y-11472793D01*
X10854706Y-11472793D02*
X10845182Y-11510888D01*
X10845182Y-11510888D02*
X10835658Y-11529936D01*
X10835658Y-11529936D02*
X10826134Y-11539460D01*
X10826134Y-11539460D02*
X10807087Y-11548984D01*
X10807087Y-11548984D02*
X10788039Y-11548984D01*
X10788039Y-11548984D02*
X10768991Y-11539460D01*
X10768991Y-11539460D02*
X10759468Y-11529936D01*
X10759468Y-11529936D02*
X10749944Y-11510888D01*
X10749944Y-11510888D02*
X10740420Y-11472793D01*
X10740420Y-11472793D02*
X10740420Y-11425174D01*
X10740420Y-11425174D02*
X10749944Y-11387079D01*
X10749944Y-11387079D02*
X10759468Y-11368031D01*
X10759468Y-11368031D02*
X10768991Y-11358507D01*
X10768991Y-11358507D02*
X10788039Y-11348984D01*
X10940420Y-11548984D02*
X10940420Y-11415650D01*
X10940420Y-11434698D02*
X10949944Y-11425174D01*
X10949944Y-11425174D02*
X10968991Y-11415650D01*
X10968991Y-11415650D02*
X10997563Y-11415650D01*
X10997563Y-11415650D02*
X11016610Y-11425174D01*
X11016610Y-11425174D02*
X11026134Y-11444222D01*
X11026134Y-11444222D02*
X11026134Y-11548984D01*
X11026134Y-11444222D02*
X11035658Y-11425174D01*
X11035658Y-11425174D02*
X11054706Y-11415650D01*
X11054706Y-11415650D02*
X11083277Y-11415650D01*
X11083277Y-11415650D02*
X11102325Y-11425174D01*
X11102325Y-11425174D02*
X11111849Y-11444222D01*
X11111849Y-11444222D02*
X11111849Y-11548984D01*
X11207087Y-11548984D02*
X11207087Y-11415650D01*
X11207087Y-11434698D02*
X11216610Y-11425174D01*
X11216610Y-11425174D02*
X11235658Y-11415650D01*
X11235658Y-11415650D02*
X11264229Y-11415650D01*
X11264229Y-11415650D02*
X11283277Y-11425174D01*
X11283277Y-11425174D02*
X11292801Y-11444222D01*
X11292801Y-11444222D02*
X11292801Y-11548984D01*
X11292801Y-11444222D02*
X11302325Y-11425174D01*
X11302325Y-11425174D02*
X11321372Y-11415650D01*
X11321372Y-11415650D02*
X11349944Y-11415650D01*
X11349944Y-11415650D02*
X11368991Y-11425174D01*
X11368991Y-11425174D02*
X11378515Y-11444222D01*
X11378515Y-11444222D02*
X11378515Y-11548984D01*
X11768991Y-11339460D02*
X11597563Y-11596603D01*
X12026134Y-11348984D02*
X12045182Y-11348984D01*
X12045182Y-11348984D02*
X12064230Y-11358507D01*
X12064230Y-11358507D02*
X12073753Y-11368031D01*
X12073753Y-11368031D02*
X12083277Y-11387079D01*
X12083277Y-11387079D02*
X12092801Y-11425174D01*
X12092801Y-11425174D02*
X12092801Y-11472793D01*
X12092801Y-11472793D02*
X12083277Y-11510888D01*
X12083277Y-11510888D02*
X12073753Y-11529936D01*
X12073753Y-11529936D02*
X12064230Y-11539460D01*
X12064230Y-11539460D02*
X12045182Y-11548984D01*
X12045182Y-11548984D02*
X12026134Y-11548984D01*
X12026134Y-11548984D02*
X12007087Y-11539460D01*
X12007087Y-11539460D02*
X11997563Y-11529936D01*
X11997563Y-11529936D02*
X11988039Y-11510888D01*
X11988039Y-11510888D02*
X11978515Y-11472793D01*
X11978515Y-11472793D02*
X11978515Y-11425174D01*
X11978515Y-11425174D02*
X11988039Y-11387079D01*
X11988039Y-11387079D02*
X11997563Y-11368031D01*
X11997563Y-11368031D02*
X12007087Y-11358507D01*
X12007087Y-11358507D02*
X12026134Y-11348984D01*
X12178515Y-11529936D02*
X12188039Y-11539460D01*
X12188039Y-11539460D02*
X12178515Y-11548984D01*
X12178515Y-11548984D02*
X12168991Y-11539460D01*
X12168991Y-11539460D02*
X12178515Y-11529936D01*
X12178515Y-11529936D02*
X12178515Y-11548984D01*
X12378515Y-11548984D02*
X12264230Y-11548984D01*
X12321372Y-11548984D02*
X12321372Y-11348984D01*
X12321372Y-11348984D02*
X12302325Y-11377555D01*
X12302325Y-11377555D02*
X12283277Y-11396603D01*
X12283277Y-11396603D02*
X12264230Y-11406126D01*
X12549944Y-11415650D02*
X12549944Y-11548984D01*
X12502325Y-11339460D02*
X12454706Y-11482317D01*
X12454706Y-11482317D02*
X12578515Y-11482317D01*
X12749944Y-11348984D02*
X12654706Y-11348984D01*
X12654706Y-11348984D02*
X12645182Y-11444222D01*
X12645182Y-11444222D02*
X12654706Y-11434698D01*
X12654706Y-11434698D02*
X12673753Y-11425174D01*
X12673753Y-11425174D02*
X12721372Y-11425174D01*
X12721372Y-11425174D02*
X12740420Y-11434698D01*
X12740420Y-11434698D02*
X12749944Y-11444222D01*
X12749944Y-11444222D02*
X12759468Y-11463269D01*
X12759468Y-11463269D02*
X12759468Y-11510888D01*
X12759468Y-11510888D02*
X12749944Y-11529936D01*
X12749944Y-11529936D02*
X12740420Y-11539460D01*
X12740420Y-11539460D02*
X12721372Y-11548984D01*
X12721372Y-11548984D02*
X12673753Y-11548984D01*
X12673753Y-11548984D02*
X12654706Y-11539460D01*
X12654706Y-11539460D02*
X12645182Y-11529936D01*
X12826134Y-11348984D02*
X12959468Y-11348984D01*
X12959468Y-11348984D02*
X12873753Y-11548984D01*
X13026134Y-11348984D02*
X13026134Y-11387079D01*
X13102325Y-11348984D02*
X13102325Y-11387079D01*
X13397563Y-11625174D02*
X13388039Y-11615650D01*
X13388039Y-11615650D02*
X13368992Y-11587079D01*
X13368992Y-11587079D02*
X13359468Y-11568031D01*
X13359468Y-11568031D02*
X13349944Y-11539460D01*
X13349944Y-11539460D02*
X13340420Y-11491841D01*
X13340420Y-11491841D02*
X13340420Y-11453745D01*
X13340420Y-11453745D02*
X13349944Y-11406126D01*
X13349944Y-11406126D02*
X13359468Y-11377555D01*
X13359468Y-11377555D02*
X13368992Y-11358507D01*
X13368992Y-11358507D02*
X13388039Y-11329936D01*
X13388039Y-11329936D02*
X13397563Y-11320412D01*
X13578515Y-11548984D02*
X13464230Y-11548984D01*
X13521372Y-11548984D02*
X13521372Y-11348984D01*
X13521372Y-11348984D02*
X13502325Y-11377555D01*
X13502325Y-11377555D02*
X13483277Y-11396603D01*
X13483277Y-11396603D02*
X13464230Y-11406126D01*
X13816611Y-11548984D02*
X13816611Y-11348984D01*
X13902325Y-11548984D02*
X13902325Y-11444222D01*
X13902325Y-11444222D02*
X13892801Y-11425174D01*
X13892801Y-11425174D02*
X13873754Y-11415650D01*
X13873754Y-11415650D02*
X13845182Y-11415650D01*
X13845182Y-11415650D02*
X13826134Y-11425174D01*
X13826134Y-11425174D02*
X13816611Y-11434698D01*
X14026134Y-11548984D02*
X14007087Y-11539460D01*
X14007087Y-11539460D02*
X13997563Y-11529936D01*
X13997563Y-11529936D02*
X13988039Y-11510888D01*
X13988039Y-11510888D02*
X13988039Y-11453745D01*
X13988039Y-11453745D02*
X13997563Y-11434698D01*
X13997563Y-11434698D02*
X14007087Y-11425174D01*
X14007087Y-11425174D02*
X14026134Y-11415650D01*
X14026134Y-11415650D02*
X14054706Y-11415650D01*
X14054706Y-11415650D02*
X14073754Y-11425174D01*
X14073754Y-11425174D02*
X14083277Y-11434698D01*
X14083277Y-11434698D02*
X14092801Y-11453745D01*
X14092801Y-11453745D02*
X14092801Y-11510888D01*
X14092801Y-11510888D02*
X14083277Y-11529936D01*
X14083277Y-11529936D02*
X14073754Y-11539460D01*
X14073754Y-11539460D02*
X14054706Y-11548984D01*
X14054706Y-11548984D02*
X14026134Y-11548984D01*
X14207087Y-11548984D02*
X14188039Y-11539460D01*
X14188039Y-11539460D02*
X14178515Y-11520412D01*
X14178515Y-11520412D02*
X14178515Y-11348984D01*
X14359468Y-11539460D02*
X14340420Y-11548984D01*
X14340420Y-11548984D02*
X14302325Y-11548984D01*
X14302325Y-11548984D02*
X14283277Y-11539460D01*
X14283277Y-11539460D02*
X14273754Y-11520412D01*
X14273754Y-11520412D02*
X14273754Y-11444222D01*
X14273754Y-11444222D02*
X14283277Y-11425174D01*
X14283277Y-11425174D02*
X14302325Y-11415650D01*
X14302325Y-11415650D02*
X14340420Y-11415650D01*
X14340420Y-11415650D02*
X14359468Y-11425174D01*
X14359468Y-11425174D02*
X14368992Y-11444222D01*
X14368992Y-11444222D02*
X14368992Y-11463269D01*
X14368992Y-11463269D02*
X14273754Y-11482317D01*
X14435658Y-11625174D02*
X14445182Y-11615650D01*
X14445182Y-11615650D02*
X14464230Y-11587079D01*
X14464230Y-11587079D02*
X14473754Y-11568031D01*
X14473754Y-11568031D02*
X14483277Y-11539460D01*
X14483277Y-11539460D02*
X14492801Y-11491841D01*
X14492801Y-11491841D02*
X14492801Y-11453745D01*
X14492801Y-11453745D02*
X14483277Y-11406126D01*
X14483277Y-11406126D02*
X14473754Y-11377555D01*
X14473754Y-11377555D02*
X14464230Y-11358507D01*
X14464230Y-11358507D02*
X14445182Y-11329936D01*
X14445182Y-11329936D02*
X14435658Y-11320412D01*
X9793212Y-11848211D02*
X9793212Y-11706788D01*
X9651789Y-11706788D01*
X9651789Y-11848211D01*
X9793212Y-11848211D01*
X10188039Y-11868984D02*
X10073753Y-11868984D01*
X10130896Y-11868984D02*
X10130896Y-11668984D01*
X10130896Y-11668984D02*
X10111848Y-11697555D01*
X10111848Y-11697555D02*
X10092801Y-11716603D01*
X10092801Y-11716603D02*
X10073753Y-11726126D01*
X10359468Y-11668984D02*
X10321372Y-11668984D01*
X10321372Y-11668984D02*
X10302325Y-11678507D01*
X10302325Y-11678507D02*
X10292801Y-11688031D01*
X10292801Y-11688031D02*
X10273753Y-11716603D01*
X10273753Y-11716603D02*
X10264229Y-11754698D01*
X10264229Y-11754698D02*
X10264229Y-11830888D01*
X10264229Y-11830888D02*
X10273753Y-11849936D01*
X10273753Y-11849936D02*
X10283277Y-11859460D01*
X10283277Y-11859460D02*
X10302325Y-11868984D01*
X10302325Y-11868984D02*
X10340420Y-11868984D01*
X10340420Y-11868984D02*
X10359468Y-11859460D01*
X10359468Y-11859460D02*
X10368991Y-11849936D01*
X10368991Y-11849936D02*
X10378515Y-11830888D01*
X10378515Y-11830888D02*
X10378515Y-11783269D01*
X10378515Y-11783269D02*
X10368991Y-11764222D01*
X10368991Y-11764222D02*
X10359468Y-11754698D01*
X10359468Y-11754698D02*
X10340420Y-11745174D01*
X10340420Y-11745174D02*
X10302325Y-11745174D01*
X10302325Y-11745174D02*
X10283277Y-11754698D01*
X10283277Y-11754698D02*
X10273753Y-11764222D01*
X10273753Y-11764222D02*
X10264229Y-11783269D01*
X10464229Y-11849936D02*
X10473753Y-11859460D01*
X10473753Y-11859460D02*
X10464229Y-11868984D01*
X10464229Y-11868984D02*
X10454706Y-11859460D01*
X10454706Y-11859460D02*
X10464229Y-11849936D01*
X10464229Y-11849936D02*
X10464229Y-11868984D01*
X10588039Y-11754698D02*
X10568991Y-11745174D01*
X10568991Y-11745174D02*
X10559468Y-11735650D01*
X10559468Y-11735650D02*
X10549944Y-11716603D01*
X10549944Y-11716603D02*
X10549944Y-11707079D01*
X10549944Y-11707079D02*
X10559468Y-11688031D01*
X10559468Y-11688031D02*
X10568991Y-11678507D01*
X10568991Y-11678507D02*
X10588039Y-11668984D01*
X10588039Y-11668984D02*
X10626134Y-11668984D01*
X10626134Y-11668984D02*
X10645182Y-11678507D01*
X10645182Y-11678507D02*
X10654706Y-11688031D01*
X10654706Y-11688031D02*
X10664229Y-11707079D01*
X10664229Y-11707079D02*
X10664229Y-11716603D01*
X10664229Y-11716603D02*
X10654706Y-11735650D01*
X10654706Y-11735650D02*
X10645182Y-11745174D01*
X10645182Y-11745174D02*
X10626134Y-11754698D01*
X10626134Y-11754698D02*
X10588039Y-11754698D01*
X10588039Y-11754698D02*
X10568991Y-11764222D01*
X10568991Y-11764222D02*
X10559468Y-11773745D01*
X10559468Y-11773745D02*
X10549944Y-11792793D01*
X10549944Y-11792793D02*
X10549944Y-11830888D01*
X10549944Y-11830888D02*
X10559468Y-11849936D01*
X10559468Y-11849936D02*
X10568991Y-11859460D01*
X10568991Y-11859460D02*
X10588039Y-11868984D01*
X10588039Y-11868984D02*
X10626134Y-11868984D01*
X10626134Y-11868984D02*
X10645182Y-11859460D01*
X10645182Y-11859460D02*
X10654706Y-11849936D01*
X10654706Y-11849936D02*
X10664229Y-11830888D01*
X10664229Y-11830888D02*
X10664229Y-11792793D01*
X10664229Y-11792793D02*
X10654706Y-11773745D01*
X10654706Y-11773745D02*
X10645182Y-11764222D01*
X10645182Y-11764222D02*
X10626134Y-11754698D01*
X10788039Y-11668984D02*
X10807087Y-11668984D01*
X10807087Y-11668984D02*
X10826134Y-11678507D01*
X10826134Y-11678507D02*
X10835658Y-11688031D01*
X10835658Y-11688031D02*
X10845182Y-11707079D01*
X10845182Y-11707079D02*
X10854706Y-11745174D01*
X10854706Y-11745174D02*
X10854706Y-11792793D01*
X10854706Y-11792793D02*
X10845182Y-11830888D01*
X10845182Y-11830888D02*
X10835658Y-11849936D01*
X10835658Y-11849936D02*
X10826134Y-11859460D01*
X10826134Y-11859460D02*
X10807087Y-11868984D01*
X10807087Y-11868984D02*
X10788039Y-11868984D01*
X10788039Y-11868984D02*
X10768991Y-11859460D01*
X10768991Y-11859460D02*
X10759468Y-11849936D01*
X10759468Y-11849936D02*
X10749944Y-11830888D01*
X10749944Y-11830888D02*
X10740420Y-11792793D01*
X10740420Y-11792793D02*
X10740420Y-11745174D01*
X10740420Y-11745174D02*
X10749944Y-11707079D01*
X10749944Y-11707079D02*
X10759468Y-11688031D01*
X10759468Y-11688031D02*
X10768991Y-11678507D01*
X10768991Y-11678507D02*
X10788039Y-11668984D01*
X10978515Y-11668984D02*
X10997563Y-11668984D01*
X10997563Y-11668984D02*
X11016610Y-11678507D01*
X11016610Y-11678507D02*
X11026134Y-11688031D01*
X11026134Y-11688031D02*
X11035658Y-11707079D01*
X11035658Y-11707079D02*
X11045182Y-11745174D01*
X11045182Y-11745174D02*
X11045182Y-11792793D01*
X11045182Y-11792793D02*
X11035658Y-11830888D01*
X11035658Y-11830888D02*
X11026134Y-11849936D01*
X11026134Y-11849936D02*
X11016610Y-11859460D01*
X11016610Y-11859460D02*
X10997563Y-11868984D01*
X10997563Y-11868984D02*
X10978515Y-11868984D01*
X10978515Y-11868984D02*
X10959468Y-11859460D01*
X10959468Y-11859460D02*
X10949944Y-11849936D01*
X10949944Y-11849936D02*
X10940420Y-11830888D01*
X10940420Y-11830888D02*
X10930896Y-11792793D01*
X10930896Y-11792793D02*
X10930896Y-11745174D01*
X10930896Y-11745174D02*
X10940420Y-11707079D01*
X10940420Y-11707079D02*
X10949944Y-11688031D01*
X10949944Y-11688031D02*
X10959468Y-11678507D01*
X10959468Y-11678507D02*
X10978515Y-11668984D01*
X11130896Y-11868984D02*
X11130896Y-11735650D01*
X11130896Y-11754698D02*
X11140420Y-11745174D01*
X11140420Y-11745174D02*
X11159468Y-11735650D01*
X11159468Y-11735650D02*
X11188039Y-11735650D01*
X11188039Y-11735650D02*
X11207087Y-11745174D01*
X11207087Y-11745174D02*
X11216610Y-11764222D01*
X11216610Y-11764222D02*
X11216610Y-11868984D01*
X11216610Y-11764222D02*
X11226134Y-11745174D01*
X11226134Y-11745174D02*
X11245182Y-11735650D01*
X11245182Y-11735650D02*
X11273753Y-11735650D01*
X11273753Y-11735650D02*
X11292801Y-11745174D01*
X11292801Y-11745174D02*
X11302325Y-11764222D01*
X11302325Y-11764222D02*
X11302325Y-11868984D01*
X11397563Y-11868984D02*
X11397563Y-11735650D01*
X11397563Y-11754698D02*
X11407087Y-11745174D01*
X11407087Y-11745174D02*
X11426134Y-11735650D01*
X11426134Y-11735650D02*
X11454706Y-11735650D01*
X11454706Y-11735650D02*
X11473753Y-11745174D01*
X11473753Y-11745174D02*
X11483277Y-11764222D01*
X11483277Y-11764222D02*
X11483277Y-11868984D01*
X11483277Y-11764222D02*
X11492801Y-11745174D01*
X11492801Y-11745174D02*
X11511848Y-11735650D01*
X11511848Y-11735650D02*
X11540420Y-11735650D01*
X11540420Y-11735650D02*
X11559468Y-11745174D01*
X11559468Y-11745174D02*
X11568991Y-11764222D01*
X11568991Y-11764222D02*
X11568991Y-11868984D01*
X11959468Y-11659460D02*
X11788039Y-11916603D01*
X12216610Y-11668984D02*
X12235658Y-11668984D01*
X12235658Y-11668984D02*
X12254706Y-11678507D01*
X12254706Y-11678507D02*
X12264230Y-11688031D01*
X12264230Y-11688031D02*
X12273753Y-11707079D01*
X12273753Y-11707079D02*
X12283277Y-11745174D01*
X12283277Y-11745174D02*
X12283277Y-11792793D01*
X12283277Y-11792793D02*
X12273753Y-11830888D01*
X12273753Y-11830888D02*
X12264230Y-11849936D01*
X12264230Y-11849936D02*
X12254706Y-11859460D01*
X12254706Y-11859460D02*
X12235658Y-11868984D01*
X12235658Y-11868984D02*
X12216610Y-11868984D01*
X12216610Y-11868984D02*
X12197563Y-11859460D01*
X12197563Y-11859460D02*
X12188039Y-11849936D01*
X12188039Y-11849936D02*
X12178515Y-11830888D01*
X12178515Y-11830888D02*
X12168991Y-11792793D01*
X12168991Y-11792793D02*
X12168991Y-11745174D01*
X12168991Y-11745174D02*
X12178515Y-11707079D01*
X12178515Y-11707079D02*
X12188039Y-11688031D01*
X12188039Y-11688031D02*
X12197563Y-11678507D01*
X12197563Y-11678507D02*
X12216610Y-11668984D01*
X12368991Y-11849936D02*
X12378515Y-11859460D01*
X12378515Y-11859460D02*
X12368991Y-11868984D01*
X12368991Y-11868984D02*
X12359468Y-11859460D01*
X12359468Y-11859460D02*
X12368991Y-11849936D01*
X12368991Y-11849936D02*
X12368991Y-11868984D01*
X12549944Y-11668984D02*
X12511849Y-11668984D01*
X12511849Y-11668984D02*
X12492801Y-11678507D01*
X12492801Y-11678507D02*
X12483277Y-11688031D01*
X12483277Y-11688031D02*
X12464230Y-11716603D01*
X12464230Y-11716603D02*
X12454706Y-11754698D01*
X12454706Y-11754698D02*
X12454706Y-11830888D01*
X12454706Y-11830888D02*
X12464230Y-11849936D01*
X12464230Y-11849936D02*
X12473753Y-11859460D01*
X12473753Y-11859460D02*
X12492801Y-11868984D01*
X12492801Y-11868984D02*
X12530896Y-11868984D01*
X12530896Y-11868984D02*
X12549944Y-11859460D01*
X12549944Y-11859460D02*
X12559468Y-11849936D01*
X12559468Y-11849936D02*
X12568991Y-11830888D01*
X12568991Y-11830888D02*
X12568991Y-11783269D01*
X12568991Y-11783269D02*
X12559468Y-11764222D01*
X12559468Y-11764222D02*
X12549944Y-11754698D01*
X12549944Y-11754698D02*
X12530896Y-11745174D01*
X12530896Y-11745174D02*
X12492801Y-11745174D01*
X12492801Y-11745174D02*
X12473753Y-11754698D01*
X12473753Y-11754698D02*
X12464230Y-11764222D01*
X12464230Y-11764222D02*
X12454706Y-11783269D01*
X12740420Y-11668984D02*
X12702325Y-11668984D01*
X12702325Y-11668984D02*
X12683277Y-11678507D01*
X12683277Y-11678507D02*
X12673753Y-11688031D01*
X12673753Y-11688031D02*
X12654706Y-11716603D01*
X12654706Y-11716603D02*
X12645182Y-11754698D01*
X12645182Y-11754698D02*
X12645182Y-11830888D01*
X12645182Y-11830888D02*
X12654706Y-11849936D01*
X12654706Y-11849936D02*
X12664230Y-11859460D01*
X12664230Y-11859460D02*
X12683277Y-11868984D01*
X12683277Y-11868984D02*
X12721372Y-11868984D01*
X12721372Y-11868984D02*
X12740420Y-11859460D01*
X12740420Y-11859460D02*
X12749944Y-11849936D01*
X12749944Y-11849936D02*
X12759468Y-11830888D01*
X12759468Y-11830888D02*
X12759468Y-11783269D01*
X12759468Y-11783269D02*
X12749944Y-11764222D01*
X12749944Y-11764222D02*
X12740420Y-11754698D01*
X12740420Y-11754698D02*
X12721372Y-11745174D01*
X12721372Y-11745174D02*
X12683277Y-11745174D01*
X12683277Y-11745174D02*
X12664230Y-11754698D01*
X12664230Y-11754698D02*
X12654706Y-11764222D01*
X12654706Y-11764222D02*
X12645182Y-11783269D01*
X12949944Y-11868984D02*
X12835658Y-11868984D01*
X12892801Y-11868984D02*
X12892801Y-11668984D01*
X12892801Y-11668984D02*
X12873753Y-11697555D01*
X12873753Y-11697555D02*
X12854706Y-11716603D01*
X12854706Y-11716603D02*
X12835658Y-11726126D01*
X13121372Y-11735650D02*
X13121372Y-11868984D01*
X13073753Y-11659460D02*
X13026134Y-11802317D01*
X13026134Y-11802317D02*
X13149944Y-11802317D01*
X13216611Y-11668984D02*
X13216611Y-11707079D01*
X13292801Y-11668984D02*
X13292801Y-11707079D01*
X13588039Y-11945174D02*
X13578515Y-11935650D01*
X13578515Y-11935650D02*
X13559468Y-11907079D01*
X13559468Y-11907079D02*
X13549944Y-11888031D01*
X13549944Y-11888031D02*
X13540420Y-11859460D01*
X13540420Y-11859460D02*
X13530896Y-11811841D01*
X13530896Y-11811841D02*
X13530896Y-11773745D01*
X13530896Y-11773745D02*
X13540420Y-11726126D01*
X13540420Y-11726126D02*
X13549944Y-11697555D01*
X13549944Y-11697555D02*
X13559468Y-11678507D01*
X13559468Y-11678507D02*
X13578515Y-11649936D01*
X13578515Y-11649936D02*
X13588039Y-11640412D01*
X13654706Y-11688031D02*
X13664230Y-11678507D01*
X13664230Y-11678507D02*
X13683277Y-11668984D01*
X13683277Y-11668984D02*
X13730896Y-11668984D01*
X13730896Y-11668984D02*
X13749944Y-11678507D01*
X13749944Y-11678507D02*
X13759468Y-11688031D01*
X13759468Y-11688031D02*
X13768992Y-11707079D01*
X13768992Y-11707079D02*
X13768992Y-11726126D01*
X13768992Y-11726126D02*
X13759468Y-11754698D01*
X13759468Y-11754698D02*
X13645182Y-11868984D01*
X13645182Y-11868984D02*
X13768992Y-11868984D01*
X14007087Y-11868984D02*
X14007087Y-11668984D01*
X14092801Y-11868984D02*
X14092801Y-11764222D01*
X14092801Y-11764222D02*
X14083277Y-11745174D01*
X14083277Y-11745174D02*
X14064230Y-11735650D01*
X14064230Y-11735650D02*
X14035658Y-11735650D01*
X14035658Y-11735650D02*
X14016611Y-11745174D01*
X14016611Y-11745174D02*
X14007087Y-11754698D01*
X14216611Y-11868984D02*
X14197563Y-11859460D01*
X14197563Y-11859460D02*
X14188039Y-11849936D01*
X14188039Y-11849936D02*
X14178515Y-11830888D01*
X14178515Y-11830888D02*
X14178515Y-11773745D01*
X14178515Y-11773745D02*
X14188039Y-11754698D01*
X14188039Y-11754698D02*
X14197563Y-11745174D01*
X14197563Y-11745174D02*
X14216611Y-11735650D01*
X14216611Y-11735650D02*
X14245182Y-11735650D01*
X14245182Y-11735650D02*
X14264230Y-11745174D01*
X14264230Y-11745174D02*
X14273754Y-11754698D01*
X14273754Y-11754698D02*
X14283277Y-11773745D01*
X14283277Y-11773745D02*
X14283277Y-11830888D01*
X14283277Y-11830888D02*
X14273754Y-11849936D01*
X14273754Y-11849936D02*
X14264230Y-11859460D01*
X14264230Y-11859460D02*
X14245182Y-11868984D01*
X14245182Y-11868984D02*
X14216611Y-11868984D01*
X14397563Y-11868984D02*
X14378515Y-11859460D01*
X14378515Y-11859460D02*
X14368992Y-11840412D01*
X14368992Y-11840412D02*
X14368992Y-11668984D01*
X14549944Y-11859460D02*
X14530896Y-11868984D01*
X14530896Y-11868984D02*
X14492801Y-11868984D01*
X14492801Y-11868984D02*
X14473754Y-11859460D01*
X14473754Y-11859460D02*
X14464230Y-11840412D01*
X14464230Y-11840412D02*
X14464230Y-11764222D01*
X14464230Y-11764222D02*
X14473754Y-11745174D01*
X14473754Y-11745174D02*
X14492801Y-11735650D01*
X14492801Y-11735650D02*
X14530896Y-11735650D01*
X14530896Y-11735650D02*
X14549944Y-11745174D01*
X14549944Y-11745174D02*
X14559468Y-11764222D01*
X14559468Y-11764222D02*
X14559468Y-11783269D01*
X14559468Y-11783269D02*
X14464230Y-11802317D01*
X14635658Y-11859460D02*
X14654706Y-11868984D01*
X14654706Y-11868984D02*
X14692801Y-11868984D01*
X14692801Y-11868984D02*
X14711849Y-11859460D01*
X14711849Y-11859460D02*
X14721373Y-11840412D01*
X14721373Y-11840412D02*
X14721373Y-11830888D01*
X14721373Y-11830888D02*
X14711849Y-11811841D01*
X14711849Y-11811841D02*
X14692801Y-11802317D01*
X14692801Y-11802317D02*
X14664230Y-11802317D01*
X14664230Y-11802317D02*
X14645182Y-11792793D01*
X14645182Y-11792793D02*
X14635658Y-11773745D01*
X14635658Y-11773745D02*
X14635658Y-11764222D01*
X14635658Y-11764222D02*
X14645182Y-11745174D01*
X14645182Y-11745174D02*
X14664230Y-11735650D01*
X14664230Y-11735650D02*
X14692801Y-11735650D01*
X14692801Y-11735650D02*
X14711849Y-11745174D01*
X14788039Y-11945174D02*
X14797563Y-11935650D01*
X14797563Y-11935650D02*
X14816611Y-11907079D01*
X14816611Y-11907079D02*
X14826135Y-11888031D01*
X14826135Y-11888031D02*
X14835658Y-11859460D01*
X14835658Y-11859460D02*
X14845182Y-11811841D01*
X14845182Y-11811841D02*
X14845182Y-11773745D01*
X14845182Y-11773745D02*
X14835658Y-11726126D01*
X14835658Y-11726126D02*
X14826135Y-11697555D01*
X14826135Y-11697555D02*
X14816611Y-11678507D01*
X14816611Y-11678507D02*
X14797563Y-11649936D01*
X14797563Y-11649936D02*
X14788039Y-11640412D01*
X9722500Y-12197500D02*
X9822500Y-12097500D01*
X9722500Y-11997500D01*
X9622500Y-12097500D01*
X9722500Y-12197500D01*
X10111848Y-12074698D02*
X10092801Y-12065174D01*
X10092801Y-12065174D02*
X10083277Y-12055650D01*
X10083277Y-12055650D02*
X10073753Y-12036603D01*
X10073753Y-12036603D02*
X10073753Y-12027079D01*
X10073753Y-12027079D02*
X10083277Y-12008031D01*
X10083277Y-12008031D02*
X10092801Y-11998507D01*
X10092801Y-11998507D02*
X10111848Y-11988984D01*
X10111848Y-11988984D02*
X10149944Y-11988984D01*
X10149944Y-11988984D02*
X10168991Y-11998507D01*
X10168991Y-11998507D02*
X10178515Y-12008031D01*
X10178515Y-12008031D02*
X10188039Y-12027079D01*
X10188039Y-12027079D02*
X10188039Y-12036603D01*
X10188039Y-12036603D02*
X10178515Y-12055650D01*
X10178515Y-12055650D02*
X10168991Y-12065174D01*
X10168991Y-12065174D02*
X10149944Y-12074698D01*
X10149944Y-12074698D02*
X10111848Y-12074698D01*
X10111848Y-12074698D02*
X10092801Y-12084222D01*
X10092801Y-12084222D02*
X10083277Y-12093745D01*
X10083277Y-12093745D02*
X10073753Y-12112793D01*
X10073753Y-12112793D02*
X10073753Y-12150888D01*
X10073753Y-12150888D02*
X10083277Y-12169936D01*
X10083277Y-12169936D02*
X10092801Y-12179460D01*
X10092801Y-12179460D02*
X10111848Y-12188984D01*
X10111848Y-12188984D02*
X10149944Y-12188984D01*
X10149944Y-12188984D02*
X10168991Y-12179460D01*
X10168991Y-12179460D02*
X10178515Y-12169936D01*
X10178515Y-12169936D02*
X10188039Y-12150888D01*
X10188039Y-12150888D02*
X10188039Y-12112793D01*
X10188039Y-12112793D02*
X10178515Y-12093745D01*
X10178515Y-12093745D02*
X10168991Y-12084222D01*
X10168991Y-12084222D02*
X10149944Y-12074698D01*
X10273753Y-12169936D02*
X10283277Y-12179460D01*
X10283277Y-12179460D02*
X10273753Y-12188984D01*
X10273753Y-12188984D02*
X10264229Y-12179460D01*
X10264229Y-12179460D02*
X10273753Y-12169936D01*
X10273753Y-12169936D02*
X10273753Y-12188984D01*
X10407087Y-11988984D02*
X10426134Y-11988984D01*
X10426134Y-11988984D02*
X10445182Y-11998507D01*
X10445182Y-11998507D02*
X10454706Y-12008031D01*
X10454706Y-12008031D02*
X10464229Y-12027079D01*
X10464229Y-12027079D02*
X10473753Y-12065174D01*
X10473753Y-12065174D02*
X10473753Y-12112793D01*
X10473753Y-12112793D02*
X10464229Y-12150888D01*
X10464229Y-12150888D02*
X10454706Y-12169936D01*
X10454706Y-12169936D02*
X10445182Y-12179460D01*
X10445182Y-12179460D02*
X10426134Y-12188984D01*
X10426134Y-12188984D02*
X10407087Y-12188984D01*
X10407087Y-12188984D02*
X10388039Y-12179460D01*
X10388039Y-12179460D02*
X10378515Y-12169936D01*
X10378515Y-12169936D02*
X10368991Y-12150888D01*
X10368991Y-12150888D02*
X10359468Y-12112793D01*
X10359468Y-12112793D02*
X10359468Y-12065174D01*
X10359468Y-12065174D02*
X10368991Y-12027079D01*
X10368991Y-12027079D02*
X10378515Y-12008031D01*
X10378515Y-12008031D02*
X10388039Y-11998507D01*
X10388039Y-11998507D02*
X10407087Y-11988984D01*
X10597563Y-11988984D02*
X10616610Y-11988984D01*
X10616610Y-11988984D02*
X10635658Y-11998507D01*
X10635658Y-11998507D02*
X10645182Y-12008031D01*
X10645182Y-12008031D02*
X10654706Y-12027079D01*
X10654706Y-12027079D02*
X10664229Y-12065174D01*
X10664229Y-12065174D02*
X10664229Y-12112793D01*
X10664229Y-12112793D02*
X10654706Y-12150888D01*
X10654706Y-12150888D02*
X10645182Y-12169936D01*
X10645182Y-12169936D02*
X10635658Y-12179460D01*
X10635658Y-12179460D02*
X10616610Y-12188984D01*
X10616610Y-12188984D02*
X10597563Y-12188984D01*
X10597563Y-12188984D02*
X10578515Y-12179460D01*
X10578515Y-12179460D02*
X10568991Y-12169936D01*
X10568991Y-12169936D02*
X10559468Y-12150888D01*
X10559468Y-12150888D02*
X10549944Y-12112793D01*
X10549944Y-12112793D02*
X10549944Y-12065174D01*
X10549944Y-12065174D02*
X10559468Y-12027079D01*
X10559468Y-12027079D02*
X10568991Y-12008031D01*
X10568991Y-12008031D02*
X10578515Y-11998507D01*
X10578515Y-11998507D02*
X10597563Y-11988984D01*
X10788039Y-11988984D02*
X10807087Y-11988984D01*
X10807087Y-11988984D02*
X10826134Y-11998507D01*
X10826134Y-11998507D02*
X10835658Y-12008031D01*
X10835658Y-12008031D02*
X10845182Y-12027079D01*
X10845182Y-12027079D02*
X10854706Y-12065174D01*
X10854706Y-12065174D02*
X10854706Y-12112793D01*
X10854706Y-12112793D02*
X10845182Y-12150888D01*
X10845182Y-12150888D02*
X10835658Y-12169936D01*
X10835658Y-12169936D02*
X10826134Y-12179460D01*
X10826134Y-12179460D02*
X10807087Y-12188984D01*
X10807087Y-12188984D02*
X10788039Y-12188984D01*
X10788039Y-12188984D02*
X10768991Y-12179460D01*
X10768991Y-12179460D02*
X10759468Y-12169936D01*
X10759468Y-12169936D02*
X10749944Y-12150888D01*
X10749944Y-12150888D02*
X10740420Y-12112793D01*
X10740420Y-12112793D02*
X10740420Y-12065174D01*
X10740420Y-12065174D02*
X10749944Y-12027079D01*
X10749944Y-12027079D02*
X10759468Y-12008031D01*
X10759468Y-12008031D02*
X10768991Y-11998507D01*
X10768991Y-11998507D02*
X10788039Y-11988984D01*
X10940420Y-12188984D02*
X10940420Y-12055650D01*
X10940420Y-12074698D02*
X10949944Y-12065174D01*
X10949944Y-12065174D02*
X10968991Y-12055650D01*
X10968991Y-12055650D02*
X10997563Y-12055650D01*
X10997563Y-12055650D02*
X11016610Y-12065174D01*
X11016610Y-12065174D02*
X11026134Y-12084222D01*
X11026134Y-12084222D02*
X11026134Y-12188984D01*
X11026134Y-12084222D02*
X11035658Y-12065174D01*
X11035658Y-12065174D02*
X11054706Y-12055650D01*
X11054706Y-12055650D02*
X11083277Y-12055650D01*
X11083277Y-12055650D02*
X11102325Y-12065174D01*
X11102325Y-12065174D02*
X11111849Y-12084222D01*
X11111849Y-12084222D02*
X11111849Y-12188984D01*
X11207087Y-12188984D02*
X11207087Y-12055650D01*
X11207087Y-12074698D02*
X11216610Y-12065174D01*
X11216610Y-12065174D02*
X11235658Y-12055650D01*
X11235658Y-12055650D02*
X11264229Y-12055650D01*
X11264229Y-12055650D02*
X11283277Y-12065174D01*
X11283277Y-12065174D02*
X11292801Y-12084222D01*
X11292801Y-12084222D02*
X11292801Y-12188984D01*
X11292801Y-12084222D02*
X11302325Y-12065174D01*
X11302325Y-12065174D02*
X11321372Y-12055650D01*
X11321372Y-12055650D02*
X11349944Y-12055650D01*
X11349944Y-12055650D02*
X11368991Y-12065174D01*
X11368991Y-12065174D02*
X11378515Y-12084222D01*
X11378515Y-12084222D02*
X11378515Y-12188984D01*
X11768991Y-11979460D02*
X11597563Y-12236603D01*
X12026134Y-11988984D02*
X12045182Y-11988984D01*
X12045182Y-11988984D02*
X12064230Y-11998507D01*
X12064230Y-11998507D02*
X12073753Y-12008031D01*
X12073753Y-12008031D02*
X12083277Y-12027079D01*
X12083277Y-12027079D02*
X12092801Y-12065174D01*
X12092801Y-12065174D02*
X12092801Y-12112793D01*
X12092801Y-12112793D02*
X12083277Y-12150888D01*
X12083277Y-12150888D02*
X12073753Y-12169936D01*
X12073753Y-12169936D02*
X12064230Y-12179460D01*
X12064230Y-12179460D02*
X12045182Y-12188984D01*
X12045182Y-12188984D02*
X12026134Y-12188984D01*
X12026134Y-12188984D02*
X12007087Y-12179460D01*
X12007087Y-12179460D02*
X11997563Y-12169936D01*
X11997563Y-12169936D02*
X11988039Y-12150888D01*
X11988039Y-12150888D02*
X11978515Y-12112793D01*
X11978515Y-12112793D02*
X11978515Y-12065174D01*
X11978515Y-12065174D02*
X11988039Y-12027079D01*
X11988039Y-12027079D02*
X11997563Y-12008031D01*
X11997563Y-12008031D02*
X12007087Y-11998507D01*
X12007087Y-11998507D02*
X12026134Y-11988984D01*
X12178515Y-12169936D02*
X12188039Y-12179460D01*
X12188039Y-12179460D02*
X12178515Y-12188984D01*
X12178515Y-12188984D02*
X12168991Y-12179460D01*
X12168991Y-12179460D02*
X12178515Y-12169936D01*
X12178515Y-12169936D02*
X12178515Y-12188984D01*
X12254706Y-11988984D02*
X12378515Y-11988984D01*
X12378515Y-11988984D02*
X12311849Y-12065174D01*
X12311849Y-12065174D02*
X12340420Y-12065174D01*
X12340420Y-12065174D02*
X12359468Y-12074698D01*
X12359468Y-12074698D02*
X12368991Y-12084222D01*
X12368991Y-12084222D02*
X12378515Y-12103269D01*
X12378515Y-12103269D02*
X12378515Y-12150888D01*
X12378515Y-12150888D02*
X12368991Y-12169936D01*
X12368991Y-12169936D02*
X12359468Y-12179460D01*
X12359468Y-12179460D02*
X12340420Y-12188984D01*
X12340420Y-12188984D02*
X12283277Y-12188984D01*
X12283277Y-12188984D02*
X12264230Y-12179460D01*
X12264230Y-12179460D02*
X12254706Y-12169936D01*
X12568991Y-12188984D02*
X12454706Y-12188984D01*
X12511849Y-12188984D02*
X12511849Y-11988984D01*
X12511849Y-11988984D02*
X12492801Y-12017555D01*
X12492801Y-12017555D02*
X12473753Y-12036603D01*
X12473753Y-12036603D02*
X12454706Y-12046126D01*
X12749944Y-11988984D02*
X12654706Y-11988984D01*
X12654706Y-11988984D02*
X12645182Y-12084222D01*
X12645182Y-12084222D02*
X12654706Y-12074698D01*
X12654706Y-12074698D02*
X12673753Y-12065174D01*
X12673753Y-12065174D02*
X12721372Y-12065174D01*
X12721372Y-12065174D02*
X12740420Y-12074698D01*
X12740420Y-12074698D02*
X12749944Y-12084222D01*
X12749944Y-12084222D02*
X12759468Y-12103269D01*
X12759468Y-12103269D02*
X12759468Y-12150888D01*
X12759468Y-12150888D02*
X12749944Y-12169936D01*
X12749944Y-12169936D02*
X12740420Y-12179460D01*
X12740420Y-12179460D02*
X12721372Y-12188984D01*
X12721372Y-12188984D02*
X12673753Y-12188984D01*
X12673753Y-12188984D02*
X12654706Y-12179460D01*
X12654706Y-12179460D02*
X12645182Y-12169936D01*
X12883277Y-11988984D02*
X12902325Y-11988984D01*
X12902325Y-11988984D02*
X12921372Y-11998507D01*
X12921372Y-11998507D02*
X12930896Y-12008031D01*
X12930896Y-12008031D02*
X12940420Y-12027079D01*
X12940420Y-12027079D02*
X12949944Y-12065174D01*
X12949944Y-12065174D02*
X12949944Y-12112793D01*
X12949944Y-12112793D02*
X12940420Y-12150888D01*
X12940420Y-12150888D02*
X12930896Y-12169936D01*
X12930896Y-12169936D02*
X12921372Y-12179460D01*
X12921372Y-12179460D02*
X12902325Y-12188984D01*
X12902325Y-12188984D02*
X12883277Y-12188984D01*
X12883277Y-12188984D02*
X12864230Y-12179460D01*
X12864230Y-12179460D02*
X12854706Y-12169936D01*
X12854706Y-12169936D02*
X12845182Y-12150888D01*
X12845182Y-12150888D02*
X12835658Y-12112793D01*
X12835658Y-12112793D02*
X12835658Y-12065174D01*
X12835658Y-12065174D02*
X12845182Y-12027079D01*
X12845182Y-12027079D02*
X12854706Y-12008031D01*
X12854706Y-12008031D02*
X12864230Y-11998507D01*
X12864230Y-11998507D02*
X12883277Y-11988984D01*
X13026134Y-11988984D02*
X13026134Y-12027079D01*
X13102325Y-11988984D02*
X13102325Y-12027079D01*
X13397563Y-12265174D02*
X13388039Y-12255650D01*
X13388039Y-12255650D02*
X13368992Y-12227079D01*
X13368992Y-12227079D02*
X13359468Y-12208031D01*
X13359468Y-12208031D02*
X13349944Y-12179460D01*
X13349944Y-12179460D02*
X13340420Y-12131841D01*
X13340420Y-12131841D02*
X13340420Y-12093745D01*
X13340420Y-12093745D02*
X13349944Y-12046126D01*
X13349944Y-12046126D02*
X13359468Y-12017555D01*
X13359468Y-12017555D02*
X13368992Y-11998507D01*
X13368992Y-11998507D02*
X13388039Y-11969936D01*
X13388039Y-11969936D02*
X13397563Y-11960412D01*
X13578515Y-12188984D02*
X13464230Y-12188984D01*
X13521372Y-12188984D02*
X13521372Y-11988984D01*
X13521372Y-11988984D02*
X13502325Y-12017555D01*
X13502325Y-12017555D02*
X13483277Y-12036603D01*
X13483277Y-12036603D02*
X13464230Y-12046126D01*
X13816611Y-12188984D02*
X13816611Y-11988984D01*
X13902325Y-12188984D02*
X13902325Y-12084222D01*
X13902325Y-12084222D02*
X13892801Y-12065174D01*
X13892801Y-12065174D02*
X13873754Y-12055650D01*
X13873754Y-12055650D02*
X13845182Y-12055650D01*
X13845182Y-12055650D02*
X13826134Y-12065174D01*
X13826134Y-12065174D02*
X13816611Y-12074698D01*
X14026134Y-12188984D02*
X14007087Y-12179460D01*
X14007087Y-12179460D02*
X13997563Y-12169936D01*
X13997563Y-12169936D02*
X13988039Y-12150888D01*
X13988039Y-12150888D02*
X13988039Y-12093745D01*
X13988039Y-12093745D02*
X13997563Y-12074698D01*
X13997563Y-12074698D02*
X14007087Y-12065174D01*
X14007087Y-12065174D02*
X14026134Y-12055650D01*
X14026134Y-12055650D02*
X14054706Y-12055650D01*
X14054706Y-12055650D02*
X14073754Y-12065174D01*
X14073754Y-12065174D02*
X14083277Y-12074698D01*
X14083277Y-12074698D02*
X14092801Y-12093745D01*
X14092801Y-12093745D02*
X14092801Y-12150888D01*
X14092801Y-12150888D02*
X14083277Y-12169936D01*
X14083277Y-12169936D02*
X14073754Y-12179460D01*
X14073754Y-12179460D02*
X14054706Y-12188984D01*
X14054706Y-12188984D02*
X14026134Y-12188984D01*
X14207087Y-12188984D02*
X14188039Y-12179460D01*
X14188039Y-12179460D02*
X14178515Y-12160412D01*
X14178515Y-12160412D02*
X14178515Y-11988984D01*
X14359468Y-12179460D02*
X14340420Y-12188984D01*
X14340420Y-12188984D02*
X14302325Y-12188984D01*
X14302325Y-12188984D02*
X14283277Y-12179460D01*
X14283277Y-12179460D02*
X14273754Y-12160412D01*
X14273754Y-12160412D02*
X14273754Y-12084222D01*
X14273754Y-12084222D02*
X14283277Y-12065174D01*
X14283277Y-12065174D02*
X14302325Y-12055650D01*
X14302325Y-12055650D02*
X14340420Y-12055650D01*
X14340420Y-12055650D02*
X14359468Y-12065174D01*
X14359468Y-12065174D02*
X14368992Y-12084222D01*
X14368992Y-12084222D02*
X14368992Y-12103269D01*
X14368992Y-12103269D02*
X14273754Y-12122317D01*
X14435658Y-12265174D02*
X14445182Y-12255650D01*
X14445182Y-12255650D02*
X14464230Y-12227079D01*
X14464230Y-12227079D02*
X14473754Y-12208031D01*
X14473754Y-12208031D02*
X14483277Y-12179460D01*
X14483277Y-12179460D02*
X14492801Y-12131841D01*
X14492801Y-12131841D02*
X14492801Y-12093745D01*
X14492801Y-12093745D02*
X14483277Y-12046126D01*
X14483277Y-12046126D02*
X14473754Y-12017555D01*
X14473754Y-12017555D02*
X14464230Y-11998507D01*
X14464230Y-11998507D02*
X14445182Y-11969936D01*
X14445182Y-11969936D02*
X14435658Y-11960412D01*
X14797563Y-12265174D02*
X14788039Y-12255650D01*
X14788039Y-12255650D02*
X14768992Y-12227079D01*
X14768992Y-12227079D02*
X14759468Y-12208031D01*
X14759468Y-12208031D02*
X14749944Y-12179460D01*
X14749944Y-12179460D02*
X14740420Y-12131841D01*
X14740420Y-12131841D02*
X14740420Y-12093745D01*
X14740420Y-12093745D02*
X14749944Y-12046126D01*
X14749944Y-12046126D02*
X14759468Y-12017555D01*
X14759468Y-12017555D02*
X14768992Y-11998507D01*
X14768992Y-11998507D02*
X14788039Y-11969936D01*
X14788039Y-11969936D02*
X14797563Y-11960412D01*
X14873754Y-12055650D02*
X14873754Y-12188984D01*
X14873754Y-12074698D02*
X14883277Y-12065174D01*
X14883277Y-12065174D02*
X14902325Y-12055650D01*
X14902325Y-12055650D02*
X14930896Y-12055650D01*
X14930896Y-12055650D02*
X14949944Y-12065174D01*
X14949944Y-12065174D02*
X14959468Y-12084222D01*
X14959468Y-12084222D02*
X14959468Y-12188984D01*
X15083277Y-12188984D02*
X15064230Y-12179460D01*
X15064230Y-12179460D02*
X15054706Y-12169936D01*
X15054706Y-12169936D02*
X15045182Y-12150888D01*
X15045182Y-12150888D02*
X15045182Y-12093745D01*
X15045182Y-12093745D02*
X15054706Y-12074698D01*
X15054706Y-12074698D02*
X15064230Y-12065174D01*
X15064230Y-12065174D02*
X15083277Y-12055650D01*
X15083277Y-12055650D02*
X15111849Y-12055650D01*
X15111849Y-12055650D02*
X15130896Y-12065174D01*
X15130896Y-12065174D02*
X15140420Y-12074698D01*
X15140420Y-12074698D02*
X15149944Y-12093745D01*
X15149944Y-12093745D02*
X15149944Y-12150888D01*
X15149944Y-12150888D02*
X15140420Y-12169936D01*
X15140420Y-12169936D02*
X15130896Y-12179460D01*
X15130896Y-12179460D02*
X15111849Y-12188984D01*
X15111849Y-12188984D02*
X15083277Y-12188984D01*
X15207087Y-12055650D02*
X15283277Y-12055650D01*
X15235658Y-11988984D02*
X15235658Y-12160412D01*
X15235658Y-12160412D02*
X15245182Y-12179460D01*
X15245182Y-12179460D02*
X15264230Y-12188984D01*
X15264230Y-12188984D02*
X15283277Y-12188984D01*
X15502325Y-12055650D02*
X15502325Y-12255650D01*
X15502325Y-12065174D02*
X15521373Y-12055650D01*
X15521373Y-12055650D02*
X15559468Y-12055650D01*
X15559468Y-12055650D02*
X15578516Y-12065174D01*
X15578516Y-12065174D02*
X15588039Y-12074698D01*
X15588039Y-12074698D02*
X15597563Y-12093745D01*
X15597563Y-12093745D02*
X15597563Y-12150888D01*
X15597563Y-12150888D02*
X15588039Y-12169936D01*
X15588039Y-12169936D02*
X15578516Y-12179460D01*
X15578516Y-12179460D02*
X15559468Y-12188984D01*
X15559468Y-12188984D02*
X15521373Y-12188984D01*
X15521373Y-12188984D02*
X15502325Y-12179460D01*
X15711849Y-12188984D02*
X15692801Y-12179460D01*
X15692801Y-12179460D02*
X15683277Y-12160412D01*
X15683277Y-12160412D02*
X15683277Y-11988984D01*
X15873754Y-12188984D02*
X15873754Y-12084222D01*
X15873754Y-12084222D02*
X15864230Y-12065174D01*
X15864230Y-12065174D02*
X15845182Y-12055650D01*
X15845182Y-12055650D02*
X15807087Y-12055650D01*
X15807087Y-12055650D02*
X15788039Y-12065174D01*
X15873754Y-12179460D02*
X15854706Y-12188984D01*
X15854706Y-12188984D02*
X15807087Y-12188984D01*
X15807087Y-12188984D02*
X15788039Y-12179460D01*
X15788039Y-12179460D02*
X15778516Y-12160412D01*
X15778516Y-12160412D02*
X15778516Y-12141364D01*
X15778516Y-12141364D02*
X15788039Y-12122317D01*
X15788039Y-12122317D02*
X15807087Y-12112793D01*
X15807087Y-12112793D02*
X15854706Y-12112793D01*
X15854706Y-12112793D02*
X15873754Y-12103269D01*
X15940420Y-12055650D02*
X16016611Y-12055650D01*
X15968992Y-11988984D02*
X15968992Y-12160412D01*
X15968992Y-12160412D02*
X15978516Y-12179460D01*
X15978516Y-12179460D02*
X15997563Y-12188984D01*
X15997563Y-12188984D02*
X16016611Y-12188984D01*
X16159468Y-12179460D02*
X16140420Y-12188984D01*
X16140420Y-12188984D02*
X16102325Y-12188984D01*
X16102325Y-12188984D02*
X16083277Y-12179460D01*
X16083277Y-12179460D02*
X16073754Y-12160412D01*
X16073754Y-12160412D02*
X16073754Y-12084222D01*
X16073754Y-12084222D02*
X16083277Y-12065174D01*
X16083277Y-12065174D02*
X16102325Y-12055650D01*
X16102325Y-12055650D02*
X16140420Y-12055650D01*
X16140420Y-12055650D02*
X16159468Y-12065174D01*
X16159468Y-12065174D02*
X16168992Y-12084222D01*
X16168992Y-12084222D02*
X16168992Y-12103269D01*
X16168992Y-12103269D02*
X16073754Y-12122317D01*
X16340420Y-12188984D02*
X16340420Y-11988984D01*
X16340420Y-12179460D02*
X16321373Y-12188984D01*
X16321373Y-12188984D02*
X16283277Y-12188984D01*
X16283277Y-12188984D02*
X16264230Y-12179460D01*
X16264230Y-12179460D02*
X16254706Y-12169936D01*
X16254706Y-12169936D02*
X16245182Y-12150888D01*
X16245182Y-12150888D02*
X16245182Y-12093745D01*
X16245182Y-12093745D02*
X16254706Y-12074698D01*
X16254706Y-12074698D02*
X16264230Y-12065174D01*
X16264230Y-12065174D02*
X16283277Y-12055650D01*
X16283277Y-12055650D02*
X16321373Y-12055650D01*
X16321373Y-12055650D02*
X16340420Y-12065174D01*
X16416611Y-12265174D02*
X16426135Y-12255650D01*
X16426135Y-12255650D02*
X16445182Y-12227079D01*
X16445182Y-12227079D02*
X16454706Y-12208031D01*
X16454706Y-12208031D02*
X16464230Y-12179460D01*
X16464230Y-12179460D02*
X16473754Y-12131841D01*
X16473754Y-12131841D02*
X16473754Y-12093745D01*
X16473754Y-12093745D02*
X16464230Y-12046126D01*
X16464230Y-12046126D02*
X16454706Y-12017555D01*
X16454706Y-12017555D02*
X16445182Y-11998507D01*
X16445182Y-11998507D02*
X16426135Y-11969936D01*
X16426135Y-11969936D02*
X16416611Y-11960412D01*
M02*
