%TF.GenerationSoftware,KiCad,Pcbnew,7.0.5-0*%
%TF.CreationDate,2024-04-21T20:18:31-04:00*%
%TF.ProjectId,swr_meter_rear,7377725f-6d65-4746-9572-5f726561722e,rev?*%
%TF.SameCoordinates,Original*%
%TF.FileFunction,Legend,Top*%
%TF.FilePolarity,Positive*%
%FSLAX46Y46*%
G04 Gerber Fmt 4.6, Leading zero omitted, Abs format (unit mm)*
G04 Created by KiCad (PCBNEW 7.0.5-0) date 2024-04-21 20:18:31*
%MOMM*%
%LPD*%
G01*
G04 APERTURE LIST*
%ADD10C,0.250000*%
%ADD11C,0.500000*%
%ADD12C,0.200000*%
%ADD13C,0.400000*%
%ADD14C,0.300000*%
%ADD15C,0.750000*%
%TA.AperFunction,Profile*%
%ADD16C,0.349999*%
%TD*%
G04 APERTURE END LIST*
D10*
X114737884Y-89421332D02*
G75*
G03*
X114737884Y-89421332I-500000J0D01*
G01*
X119237884Y-89421332D02*
G75*
G03*
X119237884Y-89421332I-5000000J0D01*
G01*
X114737884Y-89421332D02*
G75*
G03*
X114737884Y-89421332I-500000J0D01*
G01*
X119237884Y-89421332D02*
G75*
G03*
X119237884Y-89421332I-5000000J0D01*
G01*
D11*
X118262884Y-89421332D02*
G75*
G03*
X118262884Y-89421332I-4025000J0D01*
G01*
X118262884Y-89421332D02*
G75*
G03*
X118262884Y-89421332I-4025000J0D01*
G01*
D12*
X169155159Y-58171957D02*
X170107540Y-57505290D01*
X169155159Y-57029100D02*
X171155159Y-57029100D01*
X171155159Y-57029100D02*
X171155159Y-57791005D01*
X171155159Y-57791005D02*
X171059921Y-57981481D01*
X171059921Y-57981481D02*
X170964683Y-58076719D01*
X170964683Y-58076719D02*
X170774207Y-58171957D01*
X170774207Y-58171957D02*
X170488493Y-58171957D01*
X170488493Y-58171957D02*
X170298017Y-58076719D01*
X170298017Y-58076719D02*
X170202778Y-57981481D01*
X170202778Y-57981481D02*
X170107540Y-57791005D01*
X170107540Y-57791005D02*
X170107540Y-57029100D01*
X169155159Y-59029100D02*
X170488493Y-59029100D01*
X171155159Y-59029100D02*
X171059921Y-58933862D01*
X171059921Y-58933862D02*
X170964683Y-59029100D01*
X170964683Y-59029100D02*
X171059921Y-59124338D01*
X171059921Y-59124338D02*
X171155159Y-59029100D01*
X171155159Y-59029100D02*
X170964683Y-59029100D01*
X170488493Y-60838624D02*
X168869445Y-60838624D01*
X168869445Y-60838624D02*
X168678969Y-60743386D01*
X168678969Y-60743386D02*
X168583731Y-60648148D01*
X168583731Y-60648148D02*
X168488493Y-60457671D01*
X168488493Y-60457671D02*
X168488493Y-60171957D01*
X168488493Y-60171957D02*
X168583731Y-59981481D01*
X169250398Y-60838624D02*
X169155159Y-60648148D01*
X169155159Y-60648148D02*
X169155159Y-60267195D01*
X169155159Y-60267195D02*
X169250398Y-60076719D01*
X169250398Y-60076719D02*
X169345636Y-59981481D01*
X169345636Y-59981481D02*
X169536112Y-59886243D01*
X169536112Y-59886243D02*
X170107540Y-59886243D01*
X170107540Y-59886243D02*
X170298017Y-59981481D01*
X170298017Y-59981481D02*
X170393255Y-60076719D01*
X170393255Y-60076719D02*
X170488493Y-60267195D01*
X170488493Y-60267195D02*
X170488493Y-60648148D01*
X170488493Y-60648148D02*
X170393255Y-60838624D01*
X169155159Y-61791005D02*
X171155159Y-61791005D01*
X169155159Y-62648148D02*
X170202778Y-62648148D01*
X170202778Y-62648148D02*
X170393255Y-62552910D01*
X170393255Y-62552910D02*
X170488493Y-62362434D01*
X170488493Y-62362434D02*
X170488493Y-62076719D01*
X170488493Y-62076719D02*
X170393255Y-61886243D01*
X170393255Y-61886243D02*
X170298017Y-61791005D01*
X170488493Y-63314815D02*
X170488493Y-64076719D01*
X171155159Y-63600529D02*
X169440874Y-63600529D01*
X169440874Y-63600529D02*
X169250398Y-63695767D01*
X169250398Y-63695767D02*
X169155159Y-63886243D01*
X169155159Y-63886243D02*
X169155159Y-64076719D01*
X169155159Y-65886243D02*
X170107540Y-65219576D01*
X169155159Y-64743386D02*
X171155159Y-64743386D01*
X171155159Y-64743386D02*
X171155159Y-65505291D01*
X171155159Y-65505291D02*
X171059921Y-65695767D01*
X171059921Y-65695767D02*
X170964683Y-65791005D01*
X170964683Y-65791005D02*
X170774207Y-65886243D01*
X170774207Y-65886243D02*
X170488493Y-65886243D01*
X170488493Y-65886243D02*
X170298017Y-65791005D01*
X170298017Y-65791005D02*
X170202778Y-65695767D01*
X170202778Y-65695767D02*
X170107540Y-65505291D01*
X170107540Y-65505291D02*
X170107540Y-64743386D01*
X169250398Y-67505291D02*
X169155159Y-67314815D01*
X169155159Y-67314815D02*
X169155159Y-66933862D01*
X169155159Y-66933862D02*
X169250398Y-66743386D01*
X169250398Y-66743386D02*
X169440874Y-66648148D01*
X169440874Y-66648148D02*
X170202778Y-66648148D01*
X170202778Y-66648148D02*
X170393255Y-66743386D01*
X170393255Y-66743386D02*
X170488493Y-66933862D01*
X170488493Y-66933862D02*
X170488493Y-67314815D01*
X170488493Y-67314815D02*
X170393255Y-67505291D01*
X170393255Y-67505291D02*
X170202778Y-67600529D01*
X170202778Y-67600529D02*
X170012302Y-67600529D01*
X170012302Y-67600529D02*
X169821826Y-66648148D01*
X169155159Y-69314815D02*
X170202778Y-69314815D01*
X170202778Y-69314815D02*
X170393255Y-69219577D01*
X170393255Y-69219577D02*
X170488493Y-69029101D01*
X170488493Y-69029101D02*
X170488493Y-68648148D01*
X170488493Y-68648148D02*
X170393255Y-68457672D01*
X169250398Y-69314815D02*
X169155159Y-69124339D01*
X169155159Y-69124339D02*
X169155159Y-68648148D01*
X169155159Y-68648148D02*
X169250398Y-68457672D01*
X169250398Y-68457672D02*
X169440874Y-68362434D01*
X169440874Y-68362434D02*
X169631350Y-68362434D01*
X169631350Y-68362434D02*
X169821826Y-68457672D01*
X169821826Y-68457672D02*
X169917064Y-68648148D01*
X169917064Y-68648148D02*
X169917064Y-69124339D01*
X169917064Y-69124339D02*
X170012302Y-69314815D01*
X169155159Y-70267196D02*
X170488493Y-70267196D01*
X170107540Y-70267196D02*
X170298017Y-70362434D01*
X170298017Y-70362434D02*
X170393255Y-70457672D01*
X170393255Y-70457672D02*
X170488493Y-70648148D01*
X170488493Y-70648148D02*
X170488493Y-70838625D01*
X131959938Y-29294838D02*
X133102795Y-29294838D01*
X132531366Y-31294838D02*
X132531366Y-29294838D01*
X134055176Y-31294838D02*
X133864700Y-31199600D01*
X133864700Y-31199600D02*
X133769462Y-31104361D01*
X133769462Y-31104361D02*
X133674224Y-30913885D01*
X133674224Y-30913885D02*
X133674224Y-30342457D01*
X133674224Y-30342457D02*
X133769462Y-30151980D01*
X133769462Y-30151980D02*
X133864700Y-30056742D01*
X133864700Y-30056742D02*
X134055176Y-29961504D01*
X134055176Y-29961504D02*
X134340891Y-29961504D01*
X134340891Y-29961504D02*
X134531367Y-30056742D01*
X134531367Y-30056742D02*
X134626605Y-30151980D01*
X134626605Y-30151980D02*
X134721843Y-30342457D01*
X134721843Y-30342457D02*
X134721843Y-30913885D01*
X134721843Y-30913885D02*
X134626605Y-31104361D01*
X134626605Y-31104361D02*
X134531367Y-31199600D01*
X134531367Y-31199600D02*
X134340891Y-31294838D01*
X134340891Y-31294838D02*
X134055176Y-31294838D01*
X135578986Y-29961504D02*
X135578986Y-31961504D01*
X135578986Y-30056742D02*
X135769462Y-29961504D01*
X135769462Y-29961504D02*
X136150415Y-29961504D01*
X136150415Y-29961504D02*
X136340891Y-30056742D01*
X136340891Y-30056742D02*
X136436129Y-30151980D01*
X136436129Y-30151980D02*
X136531367Y-30342457D01*
X136531367Y-30342457D02*
X136531367Y-30913885D01*
X136531367Y-30913885D02*
X136436129Y-31104361D01*
X136436129Y-31104361D02*
X136340891Y-31199600D01*
X136340891Y-31199600D02*
X136150415Y-31294838D01*
X136150415Y-31294838D02*
X135769462Y-31294838D01*
X135769462Y-31294838D02*
X135578986Y-31199600D01*
X138531367Y-31294838D02*
X137864700Y-30342457D01*
X137388510Y-31294838D02*
X137388510Y-29294838D01*
X137388510Y-29294838D02*
X138150415Y-29294838D01*
X138150415Y-29294838D02*
X138340891Y-29390076D01*
X138340891Y-29390076D02*
X138436129Y-29485314D01*
X138436129Y-29485314D02*
X138531367Y-29675790D01*
X138531367Y-29675790D02*
X138531367Y-29961504D01*
X138531367Y-29961504D02*
X138436129Y-30151980D01*
X138436129Y-30151980D02*
X138340891Y-30247219D01*
X138340891Y-30247219D02*
X138150415Y-30342457D01*
X138150415Y-30342457D02*
X137388510Y-30342457D01*
X140150415Y-31199600D02*
X139959939Y-31294838D01*
X139959939Y-31294838D02*
X139578986Y-31294838D01*
X139578986Y-31294838D02*
X139388510Y-31199600D01*
X139388510Y-31199600D02*
X139293272Y-31009123D01*
X139293272Y-31009123D02*
X139293272Y-30247219D01*
X139293272Y-30247219D02*
X139388510Y-30056742D01*
X139388510Y-30056742D02*
X139578986Y-29961504D01*
X139578986Y-29961504D02*
X139959939Y-29961504D01*
X139959939Y-29961504D02*
X140150415Y-30056742D01*
X140150415Y-30056742D02*
X140245653Y-30247219D01*
X140245653Y-30247219D02*
X140245653Y-30437695D01*
X140245653Y-30437695D02*
X139293272Y-30628171D01*
X141959939Y-31294838D02*
X141959939Y-30247219D01*
X141959939Y-30247219D02*
X141864701Y-30056742D01*
X141864701Y-30056742D02*
X141674225Y-29961504D01*
X141674225Y-29961504D02*
X141293272Y-29961504D01*
X141293272Y-29961504D02*
X141102796Y-30056742D01*
X141959939Y-31199600D02*
X141769463Y-31294838D01*
X141769463Y-31294838D02*
X141293272Y-31294838D01*
X141293272Y-31294838D02*
X141102796Y-31199600D01*
X141102796Y-31199600D02*
X141007558Y-31009123D01*
X141007558Y-31009123D02*
X141007558Y-30818647D01*
X141007558Y-30818647D02*
X141102796Y-30628171D01*
X141102796Y-30628171D02*
X141293272Y-30532933D01*
X141293272Y-30532933D02*
X141769463Y-30532933D01*
X141769463Y-30532933D02*
X141959939Y-30437695D01*
X142912320Y-31294838D02*
X142912320Y-29961504D01*
X142912320Y-30342457D02*
X143007558Y-30151980D01*
X143007558Y-30151980D02*
X143102796Y-30056742D01*
X143102796Y-30056742D02*
X143293272Y-29961504D01*
X143293272Y-29961504D02*
X143483749Y-29961504D01*
X104144836Y-68861182D02*
X104144836Y-69813563D01*
X104144836Y-69813563D02*
X102144836Y-69813563D01*
X104049598Y-67432610D02*
X104144836Y-67623086D01*
X104144836Y-67623086D02*
X104144836Y-68004039D01*
X104144836Y-68004039D02*
X104049598Y-68194515D01*
X104049598Y-68194515D02*
X103859121Y-68289753D01*
X103859121Y-68289753D02*
X103097217Y-68289753D01*
X103097217Y-68289753D02*
X102906740Y-68194515D01*
X102906740Y-68194515D02*
X102811502Y-68004039D01*
X102811502Y-68004039D02*
X102811502Y-67623086D01*
X102811502Y-67623086D02*
X102906740Y-67432610D01*
X102906740Y-67432610D02*
X103097217Y-67337372D01*
X103097217Y-67337372D02*
X103287693Y-67337372D01*
X103287693Y-67337372D02*
X103478169Y-68289753D01*
X102811502Y-66765943D02*
X102811502Y-66004039D01*
X104144836Y-66480229D02*
X102430550Y-66480229D01*
X102430550Y-66480229D02*
X102240074Y-66384991D01*
X102240074Y-66384991D02*
X102144836Y-66194515D01*
X102144836Y-66194515D02*
X102144836Y-66004039D01*
X102811502Y-65623086D02*
X102811502Y-64861182D01*
X102144836Y-65337372D02*
X103859121Y-65337372D01*
X103859121Y-65337372D02*
X104049598Y-65242134D01*
X104049598Y-65242134D02*
X104144836Y-65051658D01*
X104144836Y-65051658D02*
X104144836Y-64861182D01*
X104144836Y-63051658D02*
X103192455Y-63718325D01*
X104144836Y-64194515D02*
X102144836Y-64194515D01*
X102144836Y-64194515D02*
X102144836Y-63432610D01*
X102144836Y-63432610D02*
X102240074Y-63242134D01*
X102240074Y-63242134D02*
X102335312Y-63146896D01*
X102335312Y-63146896D02*
X102525788Y-63051658D01*
X102525788Y-63051658D02*
X102811502Y-63051658D01*
X102811502Y-63051658D02*
X103001978Y-63146896D01*
X103001978Y-63146896D02*
X103097217Y-63242134D01*
X103097217Y-63242134D02*
X103192455Y-63432610D01*
X103192455Y-63432610D02*
X103192455Y-64194515D01*
X104049598Y-61432610D02*
X104144836Y-61623086D01*
X104144836Y-61623086D02*
X104144836Y-62004039D01*
X104144836Y-62004039D02*
X104049598Y-62194515D01*
X104049598Y-62194515D02*
X103859121Y-62289753D01*
X103859121Y-62289753D02*
X103097217Y-62289753D01*
X103097217Y-62289753D02*
X102906740Y-62194515D01*
X102906740Y-62194515D02*
X102811502Y-62004039D01*
X102811502Y-62004039D02*
X102811502Y-61623086D01*
X102811502Y-61623086D02*
X102906740Y-61432610D01*
X102906740Y-61432610D02*
X103097217Y-61337372D01*
X103097217Y-61337372D02*
X103287693Y-61337372D01*
X103287693Y-61337372D02*
X103478169Y-62289753D01*
X104144836Y-59623086D02*
X103097217Y-59623086D01*
X103097217Y-59623086D02*
X102906740Y-59718324D01*
X102906740Y-59718324D02*
X102811502Y-59908800D01*
X102811502Y-59908800D02*
X102811502Y-60289753D01*
X102811502Y-60289753D02*
X102906740Y-60480229D01*
X104049598Y-59623086D02*
X104144836Y-59813562D01*
X104144836Y-59813562D02*
X104144836Y-60289753D01*
X104144836Y-60289753D02*
X104049598Y-60480229D01*
X104049598Y-60480229D02*
X103859121Y-60575467D01*
X103859121Y-60575467D02*
X103668645Y-60575467D01*
X103668645Y-60575467D02*
X103478169Y-60480229D01*
X103478169Y-60480229D02*
X103382931Y-60289753D01*
X103382931Y-60289753D02*
X103382931Y-59813562D01*
X103382931Y-59813562D02*
X103287693Y-59623086D01*
X104144836Y-58670705D02*
X102811502Y-58670705D01*
X103192455Y-58670705D02*
X103001978Y-58575467D01*
X103001978Y-58575467D02*
X102906740Y-58480229D01*
X102906740Y-58480229D02*
X102811502Y-58289753D01*
X102811502Y-58289753D02*
X102811502Y-58099276D01*
X130912319Y-95997219D02*
X131198033Y-96092457D01*
X131198033Y-96092457D02*
X131293271Y-96187695D01*
X131293271Y-96187695D02*
X131388509Y-96378171D01*
X131388509Y-96378171D02*
X131388509Y-96663885D01*
X131388509Y-96663885D02*
X131293271Y-96854361D01*
X131293271Y-96854361D02*
X131198033Y-96949600D01*
X131198033Y-96949600D02*
X131007557Y-97044838D01*
X131007557Y-97044838D02*
X130245652Y-97044838D01*
X130245652Y-97044838D02*
X130245652Y-95044838D01*
X130245652Y-95044838D02*
X130912319Y-95044838D01*
X130912319Y-95044838D02*
X131102795Y-95140076D01*
X131102795Y-95140076D02*
X131198033Y-95235314D01*
X131198033Y-95235314D02*
X131293271Y-95425790D01*
X131293271Y-95425790D02*
X131293271Y-95616266D01*
X131293271Y-95616266D02*
X131198033Y-95806742D01*
X131198033Y-95806742D02*
X131102795Y-95901980D01*
X131102795Y-95901980D02*
X130912319Y-95997219D01*
X130912319Y-95997219D02*
X130245652Y-95997219D01*
X132531366Y-97044838D02*
X132340890Y-96949600D01*
X132340890Y-96949600D02*
X132245652Y-96854361D01*
X132245652Y-96854361D02*
X132150414Y-96663885D01*
X132150414Y-96663885D02*
X132150414Y-96092457D01*
X132150414Y-96092457D02*
X132245652Y-95901980D01*
X132245652Y-95901980D02*
X132340890Y-95806742D01*
X132340890Y-95806742D02*
X132531366Y-95711504D01*
X132531366Y-95711504D02*
X132817081Y-95711504D01*
X132817081Y-95711504D02*
X133007557Y-95806742D01*
X133007557Y-95806742D02*
X133102795Y-95901980D01*
X133102795Y-95901980D02*
X133198033Y-96092457D01*
X133198033Y-96092457D02*
X133198033Y-96663885D01*
X133198033Y-96663885D02*
X133102795Y-96854361D01*
X133102795Y-96854361D02*
X133007557Y-96949600D01*
X133007557Y-96949600D02*
X132817081Y-97044838D01*
X132817081Y-97044838D02*
X132531366Y-97044838D01*
X133769462Y-95711504D02*
X134531366Y-95711504D01*
X134055176Y-95044838D02*
X134055176Y-96759123D01*
X134055176Y-96759123D02*
X134150414Y-96949600D01*
X134150414Y-96949600D02*
X134340890Y-97044838D01*
X134340890Y-97044838D02*
X134531366Y-97044838D01*
X136340890Y-97044838D02*
X135674223Y-96092457D01*
X135198033Y-97044838D02*
X135198033Y-95044838D01*
X135198033Y-95044838D02*
X135959938Y-95044838D01*
X135959938Y-95044838D02*
X136150414Y-95140076D01*
X136150414Y-95140076D02*
X136245652Y-95235314D01*
X136245652Y-95235314D02*
X136340890Y-95425790D01*
X136340890Y-95425790D02*
X136340890Y-95711504D01*
X136340890Y-95711504D02*
X136245652Y-95901980D01*
X136245652Y-95901980D02*
X136150414Y-95997219D01*
X136150414Y-95997219D02*
X135959938Y-96092457D01*
X135959938Y-96092457D02*
X135198033Y-96092457D01*
X137959938Y-96949600D02*
X137769462Y-97044838D01*
X137769462Y-97044838D02*
X137388509Y-97044838D01*
X137388509Y-97044838D02*
X137198033Y-96949600D01*
X137198033Y-96949600D02*
X137102795Y-96759123D01*
X137102795Y-96759123D02*
X137102795Y-95997219D01*
X137102795Y-95997219D02*
X137198033Y-95806742D01*
X137198033Y-95806742D02*
X137388509Y-95711504D01*
X137388509Y-95711504D02*
X137769462Y-95711504D01*
X137769462Y-95711504D02*
X137959938Y-95806742D01*
X137959938Y-95806742D02*
X138055176Y-95997219D01*
X138055176Y-95997219D02*
X138055176Y-96187695D01*
X138055176Y-96187695D02*
X137102795Y-96378171D01*
X139769462Y-97044838D02*
X139769462Y-95997219D01*
X139769462Y-95997219D02*
X139674224Y-95806742D01*
X139674224Y-95806742D02*
X139483748Y-95711504D01*
X139483748Y-95711504D02*
X139102795Y-95711504D01*
X139102795Y-95711504D02*
X138912319Y-95806742D01*
X139769462Y-96949600D02*
X139578986Y-97044838D01*
X139578986Y-97044838D02*
X139102795Y-97044838D01*
X139102795Y-97044838D02*
X138912319Y-96949600D01*
X138912319Y-96949600D02*
X138817081Y-96759123D01*
X138817081Y-96759123D02*
X138817081Y-96568647D01*
X138817081Y-96568647D02*
X138912319Y-96378171D01*
X138912319Y-96378171D02*
X139102795Y-96282933D01*
X139102795Y-96282933D02*
X139578986Y-96282933D01*
X139578986Y-96282933D02*
X139769462Y-96187695D01*
X140721843Y-97044838D02*
X140721843Y-95711504D01*
X140721843Y-96092457D02*
X140817081Y-95901980D01*
X140817081Y-95901980D02*
X140912319Y-95806742D01*
X140912319Y-95806742D02*
X141102795Y-95711504D01*
X141102795Y-95711504D02*
X141293272Y-95711504D01*
D13*
X123277231Y-89393865D02*
X124801041Y-89393865D01*
X123277231Y-89393865D02*
X124801041Y-89393865D01*
D11*
X113078569Y-49718047D02*
X112245236Y-48527571D01*
X111649998Y-49718047D02*
X111649998Y-47218047D01*
X111649998Y-47218047D02*
X112602379Y-47218047D01*
X112602379Y-47218047D02*
X112840474Y-47337095D01*
X112840474Y-47337095D02*
X112959521Y-47456142D01*
X112959521Y-47456142D02*
X113078569Y-47694238D01*
X113078569Y-47694238D02*
X113078569Y-48051380D01*
X113078569Y-48051380D02*
X112959521Y-48289476D01*
X112959521Y-48289476D02*
X112840474Y-48408523D01*
X112840474Y-48408523D02*
X112602379Y-48527571D01*
X112602379Y-48527571D02*
X111649998Y-48527571D01*
X114983331Y-48408523D02*
X114149998Y-48408523D01*
X114149998Y-49718047D02*
X114149998Y-47218047D01*
X114149998Y-47218047D02*
X115340474Y-47218047D01*
X118673807Y-47218047D02*
X119149998Y-47218047D01*
X119149998Y-47218047D02*
X119388093Y-47337095D01*
X119388093Y-47337095D02*
X119626188Y-47575190D01*
X119626188Y-47575190D02*
X119745236Y-48051380D01*
X119745236Y-48051380D02*
X119745236Y-48884714D01*
X119745236Y-48884714D02*
X119626188Y-49360904D01*
X119626188Y-49360904D02*
X119388093Y-49599000D01*
X119388093Y-49599000D02*
X119149998Y-49718047D01*
X119149998Y-49718047D02*
X118673807Y-49718047D01*
X118673807Y-49718047D02*
X118435712Y-49599000D01*
X118435712Y-49599000D02*
X118197617Y-49360904D01*
X118197617Y-49360904D02*
X118078569Y-48884714D01*
X118078569Y-48884714D02*
X118078569Y-48051380D01*
X118078569Y-48051380D02*
X118197617Y-47575190D01*
X118197617Y-47575190D02*
X118435712Y-47337095D01*
X118435712Y-47337095D02*
X118673807Y-47218047D01*
X120816665Y-47218047D02*
X120816665Y-49241857D01*
X120816665Y-49241857D02*
X120935712Y-49479952D01*
X120935712Y-49479952D02*
X121054760Y-49599000D01*
X121054760Y-49599000D02*
X121292855Y-49718047D01*
X121292855Y-49718047D02*
X121769046Y-49718047D01*
X121769046Y-49718047D02*
X122007141Y-49599000D01*
X122007141Y-49599000D02*
X122126188Y-49479952D01*
X122126188Y-49479952D02*
X122245236Y-49241857D01*
X122245236Y-49241857D02*
X122245236Y-47218047D01*
X123078570Y-47218047D02*
X124507141Y-47218047D01*
X123792855Y-49718047D02*
X123792855Y-47218047D01*
D10*
X132178547Y-89401665D02*
X133702357Y-89401665D01*
X132940452Y-90163570D02*
X132940452Y-88639760D01*
X135702356Y-90163570D02*
X134559499Y-90163570D01*
X135130927Y-90163570D02*
X135130927Y-88163570D01*
X135130927Y-88163570D02*
X134940451Y-88449284D01*
X134940451Y-88449284D02*
X134749975Y-88639760D01*
X134749975Y-88639760D02*
X134559499Y-88734998D01*
X136464261Y-88354046D02*
X136559499Y-88258808D01*
X136559499Y-88258808D02*
X136749975Y-88163570D01*
X136749975Y-88163570D02*
X137226166Y-88163570D01*
X137226166Y-88163570D02*
X137416642Y-88258808D01*
X137416642Y-88258808D02*
X137511880Y-88354046D01*
X137511880Y-88354046D02*
X137607118Y-88544522D01*
X137607118Y-88544522D02*
X137607118Y-88734998D01*
X137607118Y-88734998D02*
X137511880Y-89020712D01*
X137511880Y-89020712D02*
X136369023Y-90163570D01*
X136369023Y-90163570D02*
X137607118Y-90163570D01*
X138178547Y-88163570D02*
X138845213Y-90163570D01*
X138845213Y-90163570D02*
X139511880Y-88163570D01*
X140178547Y-90163570D02*
X140178547Y-88163570D01*
X140178547Y-88163570D02*
X140654737Y-88163570D01*
X140654737Y-88163570D02*
X140940452Y-88258808D01*
X140940452Y-88258808D02*
X141130928Y-88449284D01*
X141130928Y-88449284D02*
X141226166Y-88639760D01*
X141226166Y-88639760D02*
X141321404Y-89020712D01*
X141321404Y-89020712D02*
X141321404Y-89306427D01*
X141321404Y-89306427D02*
X141226166Y-89687379D01*
X141226166Y-89687379D02*
X141130928Y-89877855D01*
X141130928Y-89877855D02*
X140940452Y-90068332D01*
X140940452Y-90068332D02*
X140654737Y-90163570D01*
X140654737Y-90163570D02*
X140178547Y-90163570D01*
X143321404Y-89973093D02*
X143226166Y-90068332D01*
X143226166Y-90068332D02*
X142940452Y-90163570D01*
X142940452Y-90163570D02*
X142749976Y-90163570D01*
X142749976Y-90163570D02*
X142464261Y-90068332D01*
X142464261Y-90068332D02*
X142273785Y-89877855D01*
X142273785Y-89877855D02*
X142178547Y-89687379D01*
X142178547Y-89687379D02*
X142083309Y-89306427D01*
X142083309Y-89306427D02*
X142083309Y-89020712D01*
X142083309Y-89020712D02*
X142178547Y-88639760D01*
X142178547Y-88639760D02*
X142273785Y-88449284D01*
X142273785Y-88449284D02*
X142464261Y-88258808D01*
X142464261Y-88258808D02*
X142749976Y-88163570D01*
X142749976Y-88163570D02*
X142940452Y-88163570D01*
X142940452Y-88163570D02*
X143226166Y-88258808D01*
X143226166Y-88258808D02*
X143321404Y-88354046D01*
D12*
X104144836Y-68861182D02*
X104144836Y-69813563D01*
X104144836Y-69813563D02*
X102144836Y-69813563D01*
X104049598Y-67432610D02*
X104144836Y-67623086D01*
X104144836Y-67623086D02*
X104144836Y-68004039D01*
X104144836Y-68004039D02*
X104049598Y-68194515D01*
X104049598Y-68194515D02*
X103859121Y-68289753D01*
X103859121Y-68289753D02*
X103097217Y-68289753D01*
X103097217Y-68289753D02*
X102906740Y-68194515D01*
X102906740Y-68194515D02*
X102811502Y-68004039D01*
X102811502Y-68004039D02*
X102811502Y-67623086D01*
X102811502Y-67623086D02*
X102906740Y-67432610D01*
X102906740Y-67432610D02*
X103097217Y-67337372D01*
X103097217Y-67337372D02*
X103287693Y-67337372D01*
X103287693Y-67337372D02*
X103478169Y-68289753D01*
X102811502Y-66765943D02*
X102811502Y-66004039D01*
X104144836Y-66480229D02*
X102430550Y-66480229D01*
X102430550Y-66480229D02*
X102240074Y-66384991D01*
X102240074Y-66384991D02*
X102144836Y-66194515D01*
X102144836Y-66194515D02*
X102144836Y-66004039D01*
X102811502Y-65623086D02*
X102811502Y-64861182D01*
X102144836Y-65337372D02*
X103859121Y-65337372D01*
X103859121Y-65337372D02*
X104049598Y-65242134D01*
X104049598Y-65242134D02*
X104144836Y-65051658D01*
X104144836Y-65051658D02*
X104144836Y-64861182D01*
X104144836Y-63051658D02*
X103192455Y-63718325D01*
X104144836Y-64194515D02*
X102144836Y-64194515D01*
X102144836Y-64194515D02*
X102144836Y-63432610D01*
X102144836Y-63432610D02*
X102240074Y-63242134D01*
X102240074Y-63242134D02*
X102335312Y-63146896D01*
X102335312Y-63146896D02*
X102525788Y-63051658D01*
X102525788Y-63051658D02*
X102811502Y-63051658D01*
X102811502Y-63051658D02*
X103001978Y-63146896D01*
X103001978Y-63146896D02*
X103097217Y-63242134D01*
X103097217Y-63242134D02*
X103192455Y-63432610D01*
X103192455Y-63432610D02*
X103192455Y-64194515D01*
X104049598Y-61432610D02*
X104144836Y-61623086D01*
X104144836Y-61623086D02*
X104144836Y-62004039D01*
X104144836Y-62004039D02*
X104049598Y-62194515D01*
X104049598Y-62194515D02*
X103859121Y-62289753D01*
X103859121Y-62289753D02*
X103097217Y-62289753D01*
X103097217Y-62289753D02*
X102906740Y-62194515D01*
X102906740Y-62194515D02*
X102811502Y-62004039D01*
X102811502Y-62004039D02*
X102811502Y-61623086D01*
X102811502Y-61623086D02*
X102906740Y-61432610D01*
X102906740Y-61432610D02*
X103097217Y-61337372D01*
X103097217Y-61337372D02*
X103287693Y-61337372D01*
X103287693Y-61337372D02*
X103478169Y-62289753D01*
X104144836Y-59623086D02*
X103097217Y-59623086D01*
X103097217Y-59623086D02*
X102906740Y-59718324D01*
X102906740Y-59718324D02*
X102811502Y-59908800D01*
X102811502Y-59908800D02*
X102811502Y-60289753D01*
X102811502Y-60289753D02*
X102906740Y-60480229D01*
X104049598Y-59623086D02*
X104144836Y-59813562D01*
X104144836Y-59813562D02*
X104144836Y-60289753D01*
X104144836Y-60289753D02*
X104049598Y-60480229D01*
X104049598Y-60480229D02*
X103859121Y-60575467D01*
X103859121Y-60575467D02*
X103668645Y-60575467D01*
X103668645Y-60575467D02*
X103478169Y-60480229D01*
X103478169Y-60480229D02*
X103382931Y-60289753D01*
X103382931Y-60289753D02*
X103382931Y-59813562D01*
X103382931Y-59813562D02*
X103287693Y-59623086D01*
X104144836Y-58670705D02*
X102811502Y-58670705D01*
X103192455Y-58670705D02*
X103001978Y-58575467D01*
X103001978Y-58575467D02*
X102906740Y-58480229D01*
X102906740Y-58480229D02*
X102811502Y-58289753D01*
X102811502Y-58289753D02*
X102811502Y-58099276D01*
X130912319Y-95997219D02*
X131198033Y-96092457D01*
X131198033Y-96092457D02*
X131293271Y-96187695D01*
X131293271Y-96187695D02*
X131388509Y-96378171D01*
X131388509Y-96378171D02*
X131388509Y-96663885D01*
X131388509Y-96663885D02*
X131293271Y-96854361D01*
X131293271Y-96854361D02*
X131198033Y-96949600D01*
X131198033Y-96949600D02*
X131007557Y-97044838D01*
X131007557Y-97044838D02*
X130245652Y-97044838D01*
X130245652Y-97044838D02*
X130245652Y-95044838D01*
X130245652Y-95044838D02*
X130912319Y-95044838D01*
X130912319Y-95044838D02*
X131102795Y-95140076D01*
X131102795Y-95140076D02*
X131198033Y-95235314D01*
X131198033Y-95235314D02*
X131293271Y-95425790D01*
X131293271Y-95425790D02*
X131293271Y-95616266D01*
X131293271Y-95616266D02*
X131198033Y-95806742D01*
X131198033Y-95806742D02*
X131102795Y-95901980D01*
X131102795Y-95901980D02*
X130912319Y-95997219D01*
X130912319Y-95997219D02*
X130245652Y-95997219D01*
X132531366Y-97044838D02*
X132340890Y-96949600D01*
X132340890Y-96949600D02*
X132245652Y-96854361D01*
X132245652Y-96854361D02*
X132150414Y-96663885D01*
X132150414Y-96663885D02*
X132150414Y-96092457D01*
X132150414Y-96092457D02*
X132245652Y-95901980D01*
X132245652Y-95901980D02*
X132340890Y-95806742D01*
X132340890Y-95806742D02*
X132531366Y-95711504D01*
X132531366Y-95711504D02*
X132817081Y-95711504D01*
X132817081Y-95711504D02*
X133007557Y-95806742D01*
X133007557Y-95806742D02*
X133102795Y-95901980D01*
X133102795Y-95901980D02*
X133198033Y-96092457D01*
X133198033Y-96092457D02*
X133198033Y-96663885D01*
X133198033Y-96663885D02*
X133102795Y-96854361D01*
X133102795Y-96854361D02*
X133007557Y-96949600D01*
X133007557Y-96949600D02*
X132817081Y-97044838D01*
X132817081Y-97044838D02*
X132531366Y-97044838D01*
X133769462Y-95711504D02*
X134531366Y-95711504D01*
X134055176Y-95044838D02*
X134055176Y-96759123D01*
X134055176Y-96759123D02*
X134150414Y-96949600D01*
X134150414Y-96949600D02*
X134340890Y-97044838D01*
X134340890Y-97044838D02*
X134531366Y-97044838D01*
X136340890Y-97044838D02*
X135674223Y-96092457D01*
X135198033Y-97044838D02*
X135198033Y-95044838D01*
X135198033Y-95044838D02*
X135959938Y-95044838D01*
X135959938Y-95044838D02*
X136150414Y-95140076D01*
X136150414Y-95140076D02*
X136245652Y-95235314D01*
X136245652Y-95235314D02*
X136340890Y-95425790D01*
X136340890Y-95425790D02*
X136340890Y-95711504D01*
X136340890Y-95711504D02*
X136245652Y-95901980D01*
X136245652Y-95901980D02*
X136150414Y-95997219D01*
X136150414Y-95997219D02*
X135959938Y-96092457D01*
X135959938Y-96092457D02*
X135198033Y-96092457D01*
X137959938Y-96949600D02*
X137769462Y-97044838D01*
X137769462Y-97044838D02*
X137388509Y-97044838D01*
X137388509Y-97044838D02*
X137198033Y-96949600D01*
X137198033Y-96949600D02*
X137102795Y-96759123D01*
X137102795Y-96759123D02*
X137102795Y-95997219D01*
X137102795Y-95997219D02*
X137198033Y-95806742D01*
X137198033Y-95806742D02*
X137388509Y-95711504D01*
X137388509Y-95711504D02*
X137769462Y-95711504D01*
X137769462Y-95711504D02*
X137959938Y-95806742D01*
X137959938Y-95806742D02*
X138055176Y-95997219D01*
X138055176Y-95997219D02*
X138055176Y-96187695D01*
X138055176Y-96187695D02*
X137102795Y-96378171D01*
X139769462Y-97044838D02*
X139769462Y-95997219D01*
X139769462Y-95997219D02*
X139674224Y-95806742D01*
X139674224Y-95806742D02*
X139483748Y-95711504D01*
X139483748Y-95711504D02*
X139102795Y-95711504D01*
X139102795Y-95711504D02*
X138912319Y-95806742D01*
X139769462Y-96949600D02*
X139578986Y-97044838D01*
X139578986Y-97044838D02*
X139102795Y-97044838D01*
X139102795Y-97044838D02*
X138912319Y-96949600D01*
X138912319Y-96949600D02*
X138817081Y-96759123D01*
X138817081Y-96759123D02*
X138817081Y-96568647D01*
X138817081Y-96568647D02*
X138912319Y-96378171D01*
X138912319Y-96378171D02*
X139102795Y-96282933D01*
X139102795Y-96282933D02*
X139578986Y-96282933D01*
X139578986Y-96282933D02*
X139769462Y-96187695D01*
X140721843Y-97044838D02*
X140721843Y-95711504D01*
X140721843Y-96092457D02*
X140817081Y-95901980D01*
X140817081Y-95901980D02*
X140912319Y-95806742D01*
X140912319Y-95806742D02*
X141102795Y-95711504D01*
X141102795Y-95711504D02*
X141293272Y-95711504D01*
X131959938Y-29294838D02*
X133102795Y-29294838D01*
X132531366Y-31294838D02*
X132531366Y-29294838D01*
X134055176Y-31294838D02*
X133864700Y-31199600D01*
X133864700Y-31199600D02*
X133769462Y-31104361D01*
X133769462Y-31104361D02*
X133674224Y-30913885D01*
X133674224Y-30913885D02*
X133674224Y-30342457D01*
X133674224Y-30342457D02*
X133769462Y-30151980D01*
X133769462Y-30151980D02*
X133864700Y-30056742D01*
X133864700Y-30056742D02*
X134055176Y-29961504D01*
X134055176Y-29961504D02*
X134340891Y-29961504D01*
X134340891Y-29961504D02*
X134531367Y-30056742D01*
X134531367Y-30056742D02*
X134626605Y-30151980D01*
X134626605Y-30151980D02*
X134721843Y-30342457D01*
X134721843Y-30342457D02*
X134721843Y-30913885D01*
X134721843Y-30913885D02*
X134626605Y-31104361D01*
X134626605Y-31104361D02*
X134531367Y-31199600D01*
X134531367Y-31199600D02*
X134340891Y-31294838D01*
X134340891Y-31294838D02*
X134055176Y-31294838D01*
X135578986Y-29961504D02*
X135578986Y-31961504D01*
X135578986Y-30056742D02*
X135769462Y-29961504D01*
X135769462Y-29961504D02*
X136150415Y-29961504D01*
X136150415Y-29961504D02*
X136340891Y-30056742D01*
X136340891Y-30056742D02*
X136436129Y-30151980D01*
X136436129Y-30151980D02*
X136531367Y-30342457D01*
X136531367Y-30342457D02*
X136531367Y-30913885D01*
X136531367Y-30913885D02*
X136436129Y-31104361D01*
X136436129Y-31104361D02*
X136340891Y-31199600D01*
X136340891Y-31199600D02*
X136150415Y-31294838D01*
X136150415Y-31294838D02*
X135769462Y-31294838D01*
X135769462Y-31294838D02*
X135578986Y-31199600D01*
X138531367Y-31294838D02*
X137864700Y-30342457D01*
X137388510Y-31294838D02*
X137388510Y-29294838D01*
X137388510Y-29294838D02*
X138150415Y-29294838D01*
X138150415Y-29294838D02*
X138340891Y-29390076D01*
X138340891Y-29390076D02*
X138436129Y-29485314D01*
X138436129Y-29485314D02*
X138531367Y-29675790D01*
X138531367Y-29675790D02*
X138531367Y-29961504D01*
X138531367Y-29961504D02*
X138436129Y-30151980D01*
X138436129Y-30151980D02*
X138340891Y-30247219D01*
X138340891Y-30247219D02*
X138150415Y-30342457D01*
X138150415Y-30342457D02*
X137388510Y-30342457D01*
X140150415Y-31199600D02*
X139959939Y-31294838D01*
X139959939Y-31294838D02*
X139578986Y-31294838D01*
X139578986Y-31294838D02*
X139388510Y-31199600D01*
X139388510Y-31199600D02*
X139293272Y-31009123D01*
X139293272Y-31009123D02*
X139293272Y-30247219D01*
X139293272Y-30247219D02*
X139388510Y-30056742D01*
X139388510Y-30056742D02*
X139578986Y-29961504D01*
X139578986Y-29961504D02*
X139959939Y-29961504D01*
X139959939Y-29961504D02*
X140150415Y-30056742D01*
X140150415Y-30056742D02*
X140245653Y-30247219D01*
X140245653Y-30247219D02*
X140245653Y-30437695D01*
X140245653Y-30437695D02*
X139293272Y-30628171D01*
X141959939Y-31294838D02*
X141959939Y-30247219D01*
X141959939Y-30247219D02*
X141864701Y-30056742D01*
X141864701Y-30056742D02*
X141674225Y-29961504D01*
X141674225Y-29961504D02*
X141293272Y-29961504D01*
X141293272Y-29961504D02*
X141102796Y-30056742D01*
X141959939Y-31199600D02*
X141769463Y-31294838D01*
X141769463Y-31294838D02*
X141293272Y-31294838D01*
X141293272Y-31294838D02*
X141102796Y-31199600D01*
X141102796Y-31199600D02*
X141007558Y-31009123D01*
X141007558Y-31009123D02*
X141007558Y-30818647D01*
X141007558Y-30818647D02*
X141102796Y-30628171D01*
X141102796Y-30628171D02*
X141293272Y-30532933D01*
X141293272Y-30532933D02*
X141769463Y-30532933D01*
X141769463Y-30532933D02*
X141959939Y-30437695D01*
X142912320Y-31294838D02*
X142912320Y-29961504D01*
X142912320Y-30342457D02*
X143007558Y-30151980D01*
X143007558Y-30151980D02*
X143102796Y-30056742D01*
X143102796Y-30056742D02*
X143293272Y-29961504D01*
X143293272Y-29961504D02*
X143483749Y-29961504D01*
X169155159Y-58171957D02*
X170107540Y-57505290D01*
X169155159Y-57029100D02*
X171155159Y-57029100D01*
X171155159Y-57029100D02*
X171155159Y-57791005D01*
X171155159Y-57791005D02*
X171059921Y-57981481D01*
X171059921Y-57981481D02*
X170964683Y-58076719D01*
X170964683Y-58076719D02*
X170774207Y-58171957D01*
X170774207Y-58171957D02*
X170488493Y-58171957D01*
X170488493Y-58171957D02*
X170298017Y-58076719D01*
X170298017Y-58076719D02*
X170202778Y-57981481D01*
X170202778Y-57981481D02*
X170107540Y-57791005D01*
X170107540Y-57791005D02*
X170107540Y-57029100D01*
X169155159Y-59029100D02*
X170488493Y-59029100D01*
X171155159Y-59029100D02*
X171059921Y-58933862D01*
X171059921Y-58933862D02*
X170964683Y-59029100D01*
X170964683Y-59029100D02*
X171059921Y-59124338D01*
X171059921Y-59124338D02*
X171155159Y-59029100D01*
X171155159Y-59029100D02*
X170964683Y-59029100D01*
X170488493Y-60838624D02*
X168869445Y-60838624D01*
X168869445Y-60838624D02*
X168678969Y-60743386D01*
X168678969Y-60743386D02*
X168583731Y-60648148D01*
X168583731Y-60648148D02*
X168488493Y-60457671D01*
X168488493Y-60457671D02*
X168488493Y-60171957D01*
X168488493Y-60171957D02*
X168583731Y-59981481D01*
X169250398Y-60838624D02*
X169155159Y-60648148D01*
X169155159Y-60648148D02*
X169155159Y-60267195D01*
X169155159Y-60267195D02*
X169250398Y-60076719D01*
X169250398Y-60076719D02*
X169345636Y-59981481D01*
X169345636Y-59981481D02*
X169536112Y-59886243D01*
X169536112Y-59886243D02*
X170107540Y-59886243D01*
X170107540Y-59886243D02*
X170298017Y-59981481D01*
X170298017Y-59981481D02*
X170393255Y-60076719D01*
X170393255Y-60076719D02*
X170488493Y-60267195D01*
X170488493Y-60267195D02*
X170488493Y-60648148D01*
X170488493Y-60648148D02*
X170393255Y-60838624D01*
X169155159Y-61791005D02*
X171155159Y-61791005D01*
X169155159Y-62648148D02*
X170202778Y-62648148D01*
X170202778Y-62648148D02*
X170393255Y-62552910D01*
X170393255Y-62552910D02*
X170488493Y-62362434D01*
X170488493Y-62362434D02*
X170488493Y-62076719D01*
X170488493Y-62076719D02*
X170393255Y-61886243D01*
X170393255Y-61886243D02*
X170298017Y-61791005D01*
X170488493Y-63314815D02*
X170488493Y-64076719D01*
X171155159Y-63600529D02*
X169440874Y-63600529D01*
X169440874Y-63600529D02*
X169250398Y-63695767D01*
X169250398Y-63695767D02*
X169155159Y-63886243D01*
X169155159Y-63886243D02*
X169155159Y-64076719D01*
X169155159Y-65886243D02*
X170107540Y-65219576D01*
X169155159Y-64743386D02*
X171155159Y-64743386D01*
X171155159Y-64743386D02*
X171155159Y-65505291D01*
X171155159Y-65505291D02*
X171059921Y-65695767D01*
X171059921Y-65695767D02*
X170964683Y-65791005D01*
X170964683Y-65791005D02*
X170774207Y-65886243D01*
X170774207Y-65886243D02*
X170488493Y-65886243D01*
X170488493Y-65886243D02*
X170298017Y-65791005D01*
X170298017Y-65791005D02*
X170202778Y-65695767D01*
X170202778Y-65695767D02*
X170107540Y-65505291D01*
X170107540Y-65505291D02*
X170107540Y-64743386D01*
X169250398Y-67505291D02*
X169155159Y-67314815D01*
X169155159Y-67314815D02*
X169155159Y-66933862D01*
X169155159Y-66933862D02*
X169250398Y-66743386D01*
X169250398Y-66743386D02*
X169440874Y-66648148D01*
X169440874Y-66648148D02*
X170202778Y-66648148D01*
X170202778Y-66648148D02*
X170393255Y-66743386D01*
X170393255Y-66743386D02*
X170488493Y-66933862D01*
X170488493Y-66933862D02*
X170488493Y-67314815D01*
X170488493Y-67314815D02*
X170393255Y-67505291D01*
X170393255Y-67505291D02*
X170202778Y-67600529D01*
X170202778Y-67600529D02*
X170012302Y-67600529D01*
X170012302Y-67600529D02*
X169821826Y-66648148D01*
X169155159Y-69314815D02*
X170202778Y-69314815D01*
X170202778Y-69314815D02*
X170393255Y-69219577D01*
X170393255Y-69219577D02*
X170488493Y-69029101D01*
X170488493Y-69029101D02*
X170488493Y-68648148D01*
X170488493Y-68648148D02*
X170393255Y-68457672D01*
X169250398Y-69314815D02*
X169155159Y-69124339D01*
X169155159Y-69124339D02*
X169155159Y-68648148D01*
X169155159Y-68648148D02*
X169250398Y-68457672D01*
X169250398Y-68457672D02*
X169440874Y-68362434D01*
X169440874Y-68362434D02*
X169631350Y-68362434D01*
X169631350Y-68362434D02*
X169821826Y-68457672D01*
X169821826Y-68457672D02*
X169917064Y-68648148D01*
X169917064Y-68648148D02*
X169917064Y-69124339D01*
X169917064Y-69124339D02*
X170012302Y-69314815D01*
X169155159Y-70267196D02*
X170488493Y-70267196D01*
X170107540Y-70267196D02*
X170298017Y-70362434D01*
X170298017Y-70362434D02*
X170393255Y-70457672D01*
X170393255Y-70457672D02*
X170488493Y-70648148D01*
X170488493Y-70648148D02*
X170488493Y-70838625D01*
D11*
X152495236Y-49718047D02*
X151661903Y-48527571D01*
X151066665Y-49718047D02*
X151066665Y-47218047D01*
X151066665Y-47218047D02*
X152019046Y-47218047D01*
X152019046Y-47218047D02*
X152257141Y-47337095D01*
X152257141Y-47337095D02*
X152376188Y-47456142D01*
X152376188Y-47456142D02*
X152495236Y-47694238D01*
X152495236Y-47694238D02*
X152495236Y-48051380D01*
X152495236Y-48051380D02*
X152376188Y-48289476D01*
X152376188Y-48289476D02*
X152257141Y-48408523D01*
X152257141Y-48408523D02*
X152019046Y-48527571D01*
X152019046Y-48527571D02*
X151066665Y-48527571D01*
X154399998Y-48408523D02*
X153566665Y-48408523D01*
X153566665Y-49718047D02*
X153566665Y-47218047D01*
X153566665Y-47218047D02*
X154757141Y-47218047D01*
X157614284Y-49718047D02*
X157614284Y-47218047D01*
X158804760Y-49718047D02*
X158804760Y-47218047D01*
X158804760Y-47218047D02*
X160233331Y-49718047D01*
X160233331Y-49718047D02*
X160233331Y-47218047D01*
%TO.C,REF\u002A\u002A*%
X162637884Y-87421332D02*
X161637884Y-89421332D01*
X162637884Y-87421332D02*
X168637884Y-87421332D01*
X165637884Y-87421332D02*
X164637884Y-89421332D01*
X165637884Y-87421332D02*
X165637884Y-84921332D01*
X168637884Y-87421332D02*
X167637884Y-89421332D01*
D14*
X124187884Y-89421332D02*
X125087884Y-89421332D01*
X127137884Y-89421332D02*
X129637884Y-89421332D01*
X128476283Y-88009220D02*
G75*
G03*
X128624996Y-90834731I-1338400J-1487112D01*
G01*
D15*
X127512884Y-89496332D02*
G75*
G03*
X127512884Y-89496332I-375000J0D01*
G01*
%TD*%
D16*
X173000000Y-27000000D02*
X147000000Y-27000000D01*
X126000000Y-100000000D02*
X100000000Y-100000000D01*
X147000000Y-25400002D02*
X126000000Y-25400002D01*
X173000000Y-53000000D02*
X173000000Y-27000000D01*
X173000000Y-74000000D02*
X174599998Y-74000000D01*
X174599998Y-74000000D02*
X174599998Y-53000000D01*
X98400001Y-74000000D02*
X100000000Y-74000000D01*
X100000000Y-53000000D02*
X98400001Y-53000000D01*
X100000000Y-74000000D02*
X100000000Y-100000000D01*
X98400001Y-53000000D02*
X98400001Y-74000000D01*
X174599998Y-53000000D02*
X173000000Y-53000000D01*
X100000000Y-27000000D02*
X100000000Y-53000000D01*
X126000000Y-25400002D02*
X126000000Y-27000000D01*
X147000000Y-101599999D02*
X147000000Y-100000000D01*
X147000000Y-25400002D02*
X147000000Y-27000000D01*
X126000000Y-100000000D02*
X126000000Y-101599999D01*
X126000000Y-101599999D02*
X147000000Y-101599999D01*
X126000000Y-27000000D02*
X100000000Y-27000000D01*
X173000000Y-100000000D02*
X173000000Y-74000000D01*
X147000000Y-100000000D02*
X173000000Y-100000000D01*
M02*
