%TF.GenerationSoftware,KiCad,Pcbnew,7.0.5-0*%
%TF.CreationDate,2024-04-21T20:18:31-04:00*%
%TF.ProjectId,swr_meter_rear,7377725f-6d65-4746-9572-5f726561722e,rev?*%
%TF.SameCoordinates,Original*%
%TF.FileFunction,Legend,Bot*%
%TF.FilePolarity,Positive*%
%FSLAX46Y46*%
G04 Gerber Fmt 4.6, Leading zero omitted, Abs format (unit mm)*
G04 Created by KiCad (PCBNEW 7.0.5-0) date 2024-04-21 20:18:31*
%MOMM*%
%LPD*%
G01*
G04 APERTURE LIST*
%ADD10C,0.250000*%
%ADD11C,0.500000*%
%ADD12C,0.400000*%
%ADD13C,0.300000*%
%ADD14C,0.750000*%
%TA.AperFunction,Profile*%
%ADD15C,0.349999*%
%TD*%
G04 APERTURE END LIST*
D10*
X119237884Y-89421332D02*
G75*
G03*
X119237884Y-89421332I-5000000J0D01*
G01*
X114737884Y-89421332D02*
G75*
G03*
X114737884Y-89421332I-500000J0D01*
G01*
D11*
X118262884Y-89421332D02*
G75*
G03*
X118262884Y-89421332I-4025000J0D01*
G01*
D10*
X119237884Y-89421332D02*
G75*
G03*
X119237884Y-89421332I-5000000J0D01*
G01*
D11*
X118262884Y-89421332D02*
G75*
G03*
X118262884Y-89421332I-4025000J0D01*
G01*
D10*
X114737884Y-89421332D02*
G75*
G03*
X114737884Y-89421332I-500000J0D01*
G01*
D12*
X143148536Y-89261191D02*
X141624727Y-89261191D01*
D11*
X158804759Y-49718047D02*
X159638092Y-48527571D01*
X160233330Y-49718047D02*
X160233330Y-47218047D01*
X160233330Y-47218047D02*
X159280949Y-47218047D01*
X159280949Y-47218047D02*
X159042854Y-47337095D01*
X159042854Y-47337095D02*
X158923807Y-47456142D01*
X158923807Y-47456142D02*
X158804759Y-47694238D01*
X158804759Y-47694238D02*
X158804759Y-48051380D01*
X158804759Y-48051380D02*
X158923807Y-48289476D01*
X158923807Y-48289476D02*
X159042854Y-48408523D01*
X159042854Y-48408523D02*
X159280949Y-48527571D01*
X159280949Y-48527571D02*
X160233330Y-48527571D01*
X156899997Y-48408523D02*
X157733330Y-48408523D01*
X157733330Y-49718047D02*
X157733330Y-47218047D01*
X157733330Y-47218047D02*
X156542854Y-47218047D01*
X153685711Y-49718047D02*
X153685711Y-47218047D01*
X152495235Y-49718047D02*
X152495235Y-47218047D01*
X152495235Y-47218047D02*
X151066664Y-49718047D01*
X151066664Y-49718047D02*
X151066664Y-47218047D01*
D12*
X143148536Y-89261191D02*
X141624727Y-89261191D01*
D10*
X134647220Y-89368991D02*
X133123411Y-89368991D01*
X133885315Y-90130896D02*
X133885315Y-88607086D01*
X131123411Y-90130896D02*
X132266268Y-90130896D01*
X131694840Y-90130896D02*
X131694840Y-88130896D01*
X131694840Y-88130896D02*
X131885316Y-88416610D01*
X131885316Y-88416610D02*
X132075792Y-88607086D01*
X132075792Y-88607086D02*
X132266268Y-88702324D01*
X130361506Y-88321372D02*
X130266268Y-88226134D01*
X130266268Y-88226134D02*
X130075792Y-88130896D01*
X130075792Y-88130896D02*
X129599601Y-88130896D01*
X129599601Y-88130896D02*
X129409125Y-88226134D01*
X129409125Y-88226134D02*
X129313887Y-88321372D01*
X129313887Y-88321372D02*
X129218649Y-88511848D01*
X129218649Y-88511848D02*
X129218649Y-88702324D01*
X129218649Y-88702324D02*
X129313887Y-88988038D01*
X129313887Y-88988038D02*
X130456744Y-90130896D01*
X130456744Y-90130896D02*
X129218649Y-90130896D01*
X128647220Y-88130896D02*
X127980554Y-90130896D01*
X127980554Y-90130896D02*
X127313887Y-88130896D01*
X126647220Y-90130896D02*
X126647220Y-88130896D01*
X126647220Y-88130896D02*
X126171030Y-88130896D01*
X126171030Y-88130896D02*
X125885315Y-88226134D01*
X125885315Y-88226134D02*
X125694839Y-88416610D01*
X125694839Y-88416610D02*
X125599601Y-88607086D01*
X125599601Y-88607086D02*
X125504363Y-88988038D01*
X125504363Y-88988038D02*
X125504363Y-89273753D01*
X125504363Y-89273753D02*
X125599601Y-89654705D01*
X125599601Y-89654705D02*
X125694839Y-89845181D01*
X125694839Y-89845181D02*
X125885315Y-90035658D01*
X125885315Y-90035658D02*
X126171030Y-90130896D01*
X126171030Y-90130896D02*
X126647220Y-90130896D01*
X123504363Y-89940419D02*
X123599601Y-90035658D01*
X123599601Y-90035658D02*
X123885315Y-90130896D01*
X123885315Y-90130896D02*
X124075791Y-90130896D01*
X124075791Y-90130896D02*
X124361506Y-90035658D01*
X124361506Y-90035658D02*
X124551982Y-89845181D01*
X124551982Y-89845181D02*
X124647220Y-89654705D01*
X124647220Y-89654705D02*
X124742458Y-89273753D01*
X124742458Y-89273753D02*
X124742458Y-88988038D01*
X124742458Y-88988038D02*
X124647220Y-88607086D01*
X124647220Y-88607086D02*
X124551982Y-88416610D01*
X124551982Y-88416610D02*
X124361506Y-88226134D01*
X124361506Y-88226134D02*
X124075791Y-88130896D01*
X124075791Y-88130896D02*
X123885315Y-88130896D01*
X123885315Y-88130896D02*
X123599601Y-88226134D01*
X123599601Y-88226134D02*
X123504363Y-88321372D01*
D11*
X122721426Y-49718047D02*
X123554759Y-48527571D01*
X124149997Y-49718047D02*
X124149997Y-47218047D01*
X124149997Y-47218047D02*
X123197616Y-47218047D01*
X123197616Y-47218047D02*
X122959521Y-47337095D01*
X122959521Y-47337095D02*
X122840474Y-47456142D01*
X122840474Y-47456142D02*
X122721426Y-47694238D01*
X122721426Y-47694238D02*
X122721426Y-48051380D01*
X122721426Y-48051380D02*
X122840474Y-48289476D01*
X122840474Y-48289476D02*
X122959521Y-48408523D01*
X122959521Y-48408523D02*
X123197616Y-48527571D01*
X123197616Y-48527571D02*
X124149997Y-48527571D01*
X120816664Y-48408523D02*
X121649997Y-48408523D01*
X121649997Y-49718047D02*
X121649997Y-47218047D01*
X121649997Y-47218047D02*
X120459521Y-47218047D01*
X117126188Y-47218047D02*
X116649997Y-47218047D01*
X116649997Y-47218047D02*
X116411902Y-47337095D01*
X116411902Y-47337095D02*
X116173807Y-47575190D01*
X116173807Y-47575190D02*
X116054759Y-48051380D01*
X116054759Y-48051380D02*
X116054759Y-48884714D01*
X116054759Y-48884714D02*
X116173807Y-49360904D01*
X116173807Y-49360904D02*
X116411902Y-49599000D01*
X116411902Y-49599000D02*
X116649997Y-49718047D01*
X116649997Y-49718047D02*
X117126188Y-49718047D01*
X117126188Y-49718047D02*
X117364283Y-49599000D01*
X117364283Y-49599000D02*
X117602378Y-49360904D01*
X117602378Y-49360904D02*
X117721426Y-48884714D01*
X117721426Y-48884714D02*
X117721426Y-48051380D01*
X117721426Y-48051380D02*
X117602378Y-47575190D01*
X117602378Y-47575190D02*
X117364283Y-47337095D01*
X117364283Y-47337095D02*
X117126188Y-47218047D01*
X114983330Y-47218047D02*
X114983330Y-49241857D01*
X114983330Y-49241857D02*
X114864283Y-49479952D01*
X114864283Y-49479952D02*
X114745235Y-49599000D01*
X114745235Y-49599000D02*
X114507140Y-49718047D01*
X114507140Y-49718047D02*
X114030949Y-49718047D01*
X114030949Y-49718047D02*
X113792854Y-49599000D01*
X113792854Y-49599000D02*
X113673807Y-49479952D01*
X113673807Y-49479952D02*
X113554759Y-49241857D01*
X113554759Y-49241857D02*
X113554759Y-47218047D01*
X112721425Y-47218047D02*
X111292854Y-47218047D01*
X112007140Y-49718047D02*
X112007140Y-47218047D01*
D13*
%TO.C,REF\u002A\u002A*%
X139312884Y-89313658D02*
X138412884Y-89313658D01*
X136362884Y-89313658D02*
X133862884Y-89313658D01*
X134875772Y-90727057D02*
G75*
G03*
X135024485Y-87901546I1487113J1338399D01*
G01*
D14*
X136737884Y-89388658D02*
G75*
G03*
X136737884Y-89388658I-375000J0D01*
G01*
D11*
X168637884Y-87421332D02*
X169637884Y-89421332D01*
X168637884Y-87421332D02*
X162637884Y-87421332D01*
X165637884Y-87421332D02*
X166637884Y-89421332D01*
X165637884Y-87421332D02*
X165637884Y-84921332D01*
X162637884Y-87421332D02*
X163637884Y-89421332D01*
%TD*%
D15*
X173000000Y-27000000D02*
X147000000Y-27000000D01*
X126000000Y-100000000D02*
X100000000Y-100000000D01*
X147000000Y-25400002D02*
X126000000Y-25400002D01*
X173000000Y-53000000D02*
X173000000Y-27000000D01*
X173000000Y-74000000D02*
X174599998Y-74000000D01*
X174599998Y-74000000D02*
X174599998Y-53000000D01*
X98400001Y-74000000D02*
X100000000Y-74000000D01*
X100000000Y-53000000D02*
X98400001Y-53000000D01*
X100000000Y-74000000D02*
X100000000Y-100000000D01*
X98400001Y-53000000D02*
X98400001Y-74000000D01*
X174599998Y-53000000D02*
X173000000Y-53000000D01*
X100000000Y-27000000D02*
X100000000Y-53000000D01*
X126000000Y-25400002D02*
X126000000Y-27000000D01*
X147000000Y-101599999D02*
X147000000Y-100000000D01*
X147000000Y-25400002D02*
X147000000Y-27000000D01*
X126000000Y-100000000D02*
X126000000Y-101599999D01*
X126000000Y-101599999D02*
X147000000Y-101599999D01*
X126000000Y-27000000D02*
X100000000Y-27000000D01*
X173000000Y-100000000D02*
X173000000Y-74000000D01*
X147000000Y-100000000D02*
X173000000Y-100000000D01*
M02*
