%TF.GenerationSoftware,KiCad,Pcbnew,7.0.5-0*%
%TF.CreationDate,2024-04-21T20:18:31-04:00*%
%TF.ProjectId,swr_meter_rear,7377725f-6d65-4746-9572-5f726561722e,rev?*%
%TF.SameCoordinates,Original*%
%TF.FileFunction,OtherDrawing,Comment*%
%FSLAX46Y46*%
G04 Gerber Fmt 4.6, Leading zero omitted, Abs format (unit mm)*
G04 Created by KiCad (PCBNEW 7.0.5-0) date 2024-04-21 20:18:31*
%MOMM*%
%LPD*%
G01*
G04 APERTURE LIST*
%ADD10C,0.500000*%
%ADD11C,0.062500*%
%TA.AperFunction,Profile*%
%ADD12C,0.349999*%
%TD*%
G04 APERTURE END LIST*
D10*
X131478567Y-38605097D02*
X129811900Y-36224144D01*
X128621424Y-38605097D02*
X128621424Y-33605097D01*
X128621424Y-33605097D02*
X130526186Y-33605097D01*
X130526186Y-33605097D02*
X131002376Y-33843192D01*
X131002376Y-33843192D02*
X131240471Y-34081287D01*
X131240471Y-34081287D02*
X131478567Y-34557478D01*
X131478567Y-34557478D02*
X131478567Y-35271763D01*
X131478567Y-35271763D02*
X131240471Y-35747954D01*
X131240471Y-35747954D02*
X131002376Y-35986049D01*
X131002376Y-35986049D02*
X130526186Y-36224144D01*
X130526186Y-36224144D02*
X128621424Y-36224144D01*
X133621424Y-35986049D02*
X135288090Y-35986049D01*
X136002376Y-38605097D02*
X133621424Y-38605097D01*
X133621424Y-38605097D02*
X133621424Y-33605097D01*
X133621424Y-33605097D02*
X136002376Y-33605097D01*
X137907138Y-37176525D02*
X140288091Y-37176525D01*
X137430948Y-38605097D02*
X139097615Y-33605097D01*
X139097615Y-33605097D02*
X140764281Y-38605097D01*
X145288091Y-38605097D02*
X143621424Y-36224144D01*
X142430948Y-38605097D02*
X142430948Y-33605097D01*
X142430948Y-33605097D02*
X144335710Y-33605097D01*
X144335710Y-33605097D02*
X144811900Y-33843192D01*
X144811900Y-33843192D02*
X145049995Y-34081287D01*
X145049995Y-34081287D02*
X145288091Y-34557478D01*
X145288091Y-34557478D02*
X145288091Y-35271763D01*
X145288091Y-35271763D02*
X145049995Y-35747954D01*
X145049995Y-35747954D02*
X144811900Y-35986049D01*
X144811900Y-35986049D02*
X144335710Y-36224144D01*
X144335710Y-36224144D02*
X142430948Y-36224144D01*
X131478567Y-38605097D02*
X129811900Y-36224144D01*
X128621424Y-38605097D02*
X128621424Y-33605097D01*
X128621424Y-33605097D02*
X130526186Y-33605097D01*
X130526186Y-33605097D02*
X131002376Y-33843192D01*
X131002376Y-33843192D02*
X131240471Y-34081287D01*
X131240471Y-34081287D02*
X131478567Y-34557478D01*
X131478567Y-34557478D02*
X131478567Y-35271763D01*
X131478567Y-35271763D02*
X131240471Y-35747954D01*
X131240471Y-35747954D02*
X131002376Y-35986049D01*
X131002376Y-35986049D02*
X130526186Y-36224144D01*
X130526186Y-36224144D02*
X128621424Y-36224144D01*
X133621424Y-35986049D02*
X135288090Y-35986049D01*
X136002376Y-38605097D02*
X133621424Y-38605097D01*
X133621424Y-38605097D02*
X133621424Y-33605097D01*
X133621424Y-33605097D02*
X136002376Y-33605097D01*
X137907138Y-37176525D02*
X140288091Y-37176525D01*
X137430948Y-38605097D02*
X139097615Y-33605097D01*
X139097615Y-33605097D02*
X140764281Y-38605097D01*
X145288091Y-38605097D02*
X143621424Y-36224144D01*
X142430948Y-38605097D02*
X142430948Y-33605097D01*
X142430948Y-33605097D02*
X144335710Y-33605097D01*
X144335710Y-33605097D02*
X144811900Y-33843192D01*
X144811900Y-33843192D02*
X145049995Y-34081287D01*
X145049995Y-34081287D02*
X145288091Y-34557478D01*
X145288091Y-34557478D02*
X145288091Y-35271763D01*
X145288091Y-35271763D02*
X145049995Y-35747954D01*
X145049995Y-35747954D02*
X144811900Y-35986049D01*
X144811900Y-35986049D02*
X144335710Y-36224144D01*
X144335710Y-36224144D02*
X142430948Y-36224144D01*
D11*
X104598049Y-95456891D02*
X104598049Y-94956891D01*
X104812335Y-95456891D02*
X104812335Y-95194986D01*
X104812335Y-95194986D02*
X104788525Y-95147367D01*
X104788525Y-95147367D02*
X104740906Y-95123558D01*
X104740906Y-95123558D02*
X104669478Y-95123558D01*
X104669478Y-95123558D02*
X104621859Y-95147367D01*
X104621859Y-95147367D02*
X104598049Y-95171177D01*
X104979002Y-95123558D02*
X105169478Y-95123558D01*
X105050430Y-94956891D02*
X105050430Y-95385462D01*
X105050430Y-95385462D02*
X105074240Y-95433082D01*
X105074240Y-95433082D02*
X105121859Y-95456891D01*
X105121859Y-95456891D02*
X105169478Y-95456891D01*
X105264716Y-95123558D02*
X105455192Y-95123558D01*
X105336144Y-94956891D02*
X105336144Y-95385462D01*
X105336144Y-95385462D02*
X105359954Y-95433082D01*
X105359954Y-95433082D02*
X105407573Y-95456891D01*
X105407573Y-95456891D02*
X105455192Y-95456891D01*
X105621858Y-95123558D02*
X105621858Y-95623558D01*
X105621858Y-95147367D02*
X105669477Y-95123558D01*
X105669477Y-95123558D02*
X105764715Y-95123558D01*
X105764715Y-95123558D02*
X105812334Y-95147367D01*
X105812334Y-95147367D02*
X105836144Y-95171177D01*
X105836144Y-95171177D02*
X105859953Y-95218796D01*
X105859953Y-95218796D02*
X105859953Y-95361653D01*
X105859953Y-95361653D02*
X105836144Y-95409272D01*
X105836144Y-95409272D02*
X105812334Y-95433082D01*
X105812334Y-95433082D02*
X105764715Y-95456891D01*
X105764715Y-95456891D02*
X105669477Y-95456891D01*
X105669477Y-95456891D02*
X105621858Y-95433082D01*
X106050430Y-95433082D02*
X106098049Y-95456891D01*
X106098049Y-95456891D02*
X106193287Y-95456891D01*
X106193287Y-95456891D02*
X106240906Y-95433082D01*
X106240906Y-95433082D02*
X106264715Y-95385462D01*
X106264715Y-95385462D02*
X106264715Y-95361653D01*
X106264715Y-95361653D02*
X106240906Y-95314034D01*
X106240906Y-95314034D02*
X106193287Y-95290224D01*
X106193287Y-95290224D02*
X106121858Y-95290224D01*
X106121858Y-95290224D02*
X106074239Y-95266415D01*
X106074239Y-95266415D02*
X106050430Y-95218796D01*
X106050430Y-95218796D02*
X106050430Y-95194986D01*
X106050430Y-95194986D02*
X106074239Y-95147367D01*
X106074239Y-95147367D02*
X106121858Y-95123558D01*
X106121858Y-95123558D02*
X106193287Y-95123558D01*
X106193287Y-95123558D02*
X106240906Y-95147367D01*
X106479001Y-95409272D02*
X106502811Y-95433082D01*
X106502811Y-95433082D02*
X106479001Y-95456891D01*
X106479001Y-95456891D02*
X106455192Y-95433082D01*
X106455192Y-95433082D02*
X106479001Y-95409272D01*
X106479001Y-95409272D02*
X106479001Y-95456891D01*
X106479001Y-95147367D02*
X106502811Y-95171177D01*
X106502811Y-95171177D02*
X106479001Y-95194986D01*
X106479001Y-95194986D02*
X106455192Y-95171177D01*
X106455192Y-95171177D02*
X106479001Y-95147367D01*
X106479001Y-95147367D02*
X106479001Y-95194986D01*
X107074239Y-94933082D02*
X106645668Y-95575939D01*
X107598049Y-94933082D02*
X107169478Y-95575939D01*
X107717097Y-95123558D02*
X107812335Y-95456891D01*
X107812335Y-95456891D02*
X107907573Y-95218796D01*
X107907573Y-95218796D02*
X108002811Y-95456891D01*
X108002811Y-95456891D02*
X108098049Y-95123558D01*
X108240907Y-95123558D02*
X108336145Y-95456891D01*
X108336145Y-95456891D02*
X108431383Y-95218796D01*
X108431383Y-95218796D02*
X108526621Y-95456891D01*
X108526621Y-95456891D02*
X108621859Y-95123558D01*
X108764717Y-95123558D02*
X108859955Y-95456891D01*
X108859955Y-95456891D02*
X108955193Y-95218796D01*
X108955193Y-95218796D02*
X109050431Y-95456891D01*
X109050431Y-95456891D02*
X109145669Y-95123558D01*
X109336146Y-95409272D02*
X109359956Y-95433082D01*
X109359956Y-95433082D02*
X109336146Y-95456891D01*
X109336146Y-95456891D02*
X109312337Y-95433082D01*
X109312337Y-95433082D02*
X109336146Y-95409272D01*
X109336146Y-95409272D02*
X109336146Y-95456891D01*
X109788527Y-95456891D02*
X109788527Y-95194986D01*
X109788527Y-95194986D02*
X109764717Y-95147367D01*
X109764717Y-95147367D02*
X109717098Y-95123558D01*
X109717098Y-95123558D02*
X109621860Y-95123558D01*
X109621860Y-95123558D02*
X109574241Y-95147367D01*
X109788527Y-95433082D02*
X109740908Y-95456891D01*
X109740908Y-95456891D02*
X109621860Y-95456891D01*
X109621860Y-95456891D02*
X109574241Y-95433082D01*
X109574241Y-95433082D02*
X109550432Y-95385462D01*
X109550432Y-95385462D02*
X109550432Y-95337843D01*
X109550432Y-95337843D02*
X109574241Y-95290224D01*
X109574241Y-95290224D02*
X109621860Y-95266415D01*
X109621860Y-95266415D02*
X109740908Y-95266415D01*
X109740908Y-95266415D02*
X109788527Y-95242605D01*
X110026622Y-95456891D02*
X110026622Y-95123558D01*
X110026622Y-95171177D02*
X110050432Y-95147367D01*
X110050432Y-95147367D02*
X110098051Y-95123558D01*
X110098051Y-95123558D02*
X110169479Y-95123558D01*
X110169479Y-95123558D02*
X110217098Y-95147367D01*
X110217098Y-95147367D02*
X110240908Y-95194986D01*
X110240908Y-95194986D02*
X110240908Y-95456891D01*
X110240908Y-95194986D02*
X110264717Y-95147367D01*
X110264717Y-95147367D02*
X110312336Y-95123558D01*
X110312336Y-95123558D02*
X110383765Y-95123558D01*
X110383765Y-95123558D02*
X110431384Y-95147367D01*
X110431384Y-95147367D02*
X110455194Y-95194986D01*
X110455194Y-95194986D02*
X110455194Y-95456891D01*
X110907575Y-95456891D02*
X110907575Y-95194986D01*
X110907575Y-95194986D02*
X110883765Y-95147367D01*
X110883765Y-95147367D02*
X110836146Y-95123558D01*
X110836146Y-95123558D02*
X110740908Y-95123558D01*
X110740908Y-95123558D02*
X110693289Y-95147367D01*
X110907575Y-95433082D02*
X110859956Y-95456891D01*
X110859956Y-95456891D02*
X110740908Y-95456891D01*
X110740908Y-95456891D02*
X110693289Y-95433082D01*
X110693289Y-95433082D02*
X110669480Y-95385462D01*
X110669480Y-95385462D02*
X110669480Y-95337843D01*
X110669480Y-95337843D02*
X110693289Y-95290224D01*
X110693289Y-95290224D02*
X110740908Y-95266415D01*
X110740908Y-95266415D02*
X110859956Y-95266415D01*
X110859956Y-95266415D02*
X110907575Y-95242605D01*
X111098051Y-95123558D02*
X111359956Y-95123558D01*
X111359956Y-95123558D02*
X111098051Y-95456891D01*
X111098051Y-95456891D02*
X111359956Y-95456891D01*
X111621861Y-95456891D02*
X111574242Y-95433082D01*
X111574242Y-95433082D02*
X111550432Y-95409272D01*
X111550432Y-95409272D02*
X111526623Y-95361653D01*
X111526623Y-95361653D02*
X111526623Y-95218796D01*
X111526623Y-95218796D02*
X111550432Y-95171177D01*
X111550432Y-95171177D02*
X111574242Y-95147367D01*
X111574242Y-95147367D02*
X111621861Y-95123558D01*
X111621861Y-95123558D02*
X111693289Y-95123558D01*
X111693289Y-95123558D02*
X111740908Y-95147367D01*
X111740908Y-95147367D02*
X111764718Y-95171177D01*
X111764718Y-95171177D02*
X111788527Y-95218796D01*
X111788527Y-95218796D02*
X111788527Y-95361653D01*
X111788527Y-95361653D02*
X111764718Y-95409272D01*
X111764718Y-95409272D02*
X111740908Y-95433082D01*
X111740908Y-95433082D02*
X111693289Y-95456891D01*
X111693289Y-95456891D02*
X111621861Y-95456891D01*
X112002813Y-95123558D02*
X112002813Y-95456891D01*
X112002813Y-95171177D02*
X112026623Y-95147367D01*
X112026623Y-95147367D02*
X112074242Y-95123558D01*
X112074242Y-95123558D02*
X112145670Y-95123558D01*
X112145670Y-95123558D02*
X112193289Y-95147367D01*
X112193289Y-95147367D02*
X112217099Y-95194986D01*
X112217099Y-95194986D02*
X112217099Y-95456891D01*
X112455194Y-95409272D02*
X112479004Y-95433082D01*
X112479004Y-95433082D02*
X112455194Y-95456891D01*
X112455194Y-95456891D02*
X112431385Y-95433082D01*
X112431385Y-95433082D02*
X112455194Y-95409272D01*
X112455194Y-95409272D02*
X112455194Y-95456891D01*
X112907575Y-95433082D02*
X112859956Y-95456891D01*
X112859956Y-95456891D02*
X112764718Y-95456891D01*
X112764718Y-95456891D02*
X112717099Y-95433082D01*
X112717099Y-95433082D02*
X112693289Y-95409272D01*
X112693289Y-95409272D02*
X112669480Y-95361653D01*
X112669480Y-95361653D02*
X112669480Y-95218796D01*
X112669480Y-95218796D02*
X112693289Y-95171177D01*
X112693289Y-95171177D02*
X112717099Y-95147367D01*
X112717099Y-95147367D02*
X112764718Y-95123558D01*
X112764718Y-95123558D02*
X112859956Y-95123558D01*
X112859956Y-95123558D02*
X112907575Y-95147367D01*
X113193289Y-95456891D02*
X113145670Y-95433082D01*
X113145670Y-95433082D02*
X113121860Y-95409272D01*
X113121860Y-95409272D02*
X113098051Y-95361653D01*
X113098051Y-95361653D02*
X113098051Y-95218796D01*
X113098051Y-95218796D02*
X113121860Y-95171177D01*
X113121860Y-95171177D02*
X113145670Y-95147367D01*
X113145670Y-95147367D02*
X113193289Y-95123558D01*
X113193289Y-95123558D02*
X113264717Y-95123558D01*
X113264717Y-95123558D02*
X113312336Y-95147367D01*
X113312336Y-95147367D02*
X113336146Y-95171177D01*
X113336146Y-95171177D02*
X113359955Y-95218796D01*
X113359955Y-95218796D02*
X113359955Y-95361653D01*
X113359955Y-95361653D02*
X113336146Y-95409272D01*
X113336146Y-95409272D02*
X113312336Y-95433082D01*
X113312336Y-95433082D02*
X113264717Y-95456891D01*
X113264717Y-95456891D02*
X113193289Y-95456891D01*
X113574241Y-95456891D02*
X113574241Y-95123558D01*
X113574241Y-95171177D02*
X113598051Y-95147367D01*
X113598051Y-95147367D02*
X113645670Y-95123558D01*
X113645670Y-95123558D02*
X113717098Y-95123558D01*
X113717098Y-95123558D02*
X113764717Y-95147367D01*
X113764717Y-95147367D02*
X113788527Y-95194986D01*
X113788527Y-95194986D02*
X113788527Y-95456891D01*
X113788527Y-95194986D02*
X113812336Y-95147367D01*
X113812336Y-95147367D02*
X113859955Y-95123558D01*
X113859955Y-95123558D02*
X113931384Y-95123558D01*
X113931384Y-95123558D02*
X113979003Y-95147367D01*
X113979003Y-95147367D02*
X114002813Y-95194986D01*
X114002813Y-95194986D02*
X114002813Y-95456891D01*
X114598051Y-94933082D02*
X114169480Y-95575939D01*
X114740909Y-95314034D02*
X114979004Y-95314034D01*
X114693290Y-95456891D02*
X114859956Y-94956891D01*
X114859956Y-94956891D02*
X115026623Y-95456891D01*
X115193289Y-95123558D02*
X115193289Y-95456891D01*
X115193289Y-95171177D02*
X115217099Y-95147367D01*
X115217099Y-95147367D02*
X115264718Y-95123558D01*
X115264718Y-95123558D02*
X115336146Y-95123558D01*
X115336146Y-95123558D02*
X115383765Y-95147367D01*
X115383765Y-95147367D02*
X115407575Y-95194986D01*
X115407575Y-95194986D02*
X115407575Y-95456891D01*
X115574242Y-95123558D02*
X115764718Y-95123558D01*
X115645670Y-94956891D02*
X115645670Y-95385462D01*
X115645670Y-95385462D02*
X115669480Y-95433082D01*
X115669480Y-95433082D02*
X115717099Y-95456891D01*
X115717099Y-95456891D02*
X115764718Y-95456891D01*
X115931384Y-95456891D02*
X115931384Y-95123558D01*
X115931384Y-95218796D02*
X115955194Y-95171177D01*
X115955194Y-95171177D02*
X115979003Y-95147367D01*
X115979003Y-95147367D02*
X116026622Y-95123558D01*
X116026622Y-95123558D02*
X116074241Y-95123558D01*
X116455194Y-95456891D02*
X116455194Y-95194986D01*
X116455194Y-95194986D02*
X116431384Y-95147367D01*
X116431384Y-95147367D02*
X116383765Y-95123558D01*
X116383765Y-95123558D02*
X116288527Y-95123558D01*
X116288527Y-95123558D02*
X116240908Y-95147367D01*
X116455194Y-95433082D02*
X116407575Y-95456891D01*
X116407575Y-95456891D02*
X116288527Y-95456891D01*
X116288527Y-95456891D02*
X116240908Y-95433082D01*
X116240908Y-95433082D02*
X116217099Y-95385462D01*
X116217099Y-95385462D02*
X116217099Y-95337843D01*
X116217099Y-95337843D02*
X116240908Y-95290224D01*
X116240908Y-95290224D02*
X116288527Y-95266415D01*
X116288527Y-95266415D02*
X116407575Y-95266415D01*
X116407575Y-95266415D02*
X116455194Y-95242605D01*
X116907575Y-95456891D02*
X116907575Y-94956891D01*
X116907575Y-95433082D02*
X116859956Y-95456891D01*
X116859956Y-95456891D02*
X116764718Y-95456891D01*
X116764718Y-95456891D02*
X116717099Y-95433082D01*
X116717099Y-95433082D02*
X116693289Y-95409272D01*
X116693289Y-95409272D02*
X116669480Y-95361653D01*
X116669480Y-95361653D02*
X116669480Y-95218796D01*
X116669480Y-95218796D02*
X116693289Y-95171177D01*
X116693289Y-95171177D02*
X116717099Y-95147367D01*
X116717099Y-95147367D02*
X116764718Y-95123558D01*
X116764718Y-95123558D02*
X116859956Y-95123558D01*
X116859956Y-95123558D02*
X116907575Y-95147367D01*
X117336146Y-95433082D02*
X117288527Y-95456891D01*
X117288527Y-95456891D02*
X117193289Y-95456891D01*
X117193289Y-95456891D02*
X117145670Y-95433082D01*
X117145670Y-95433082D02*
X117121861Y-95385462D01*
X117121861Y-95385462D02*
X117121861Y-95194986D01*
X117121861Y-95194986D02*
X117145670Y-95147367D01*
X117145670Y-95147367D02*
X117193289Y-95123558D01*
X117193289Y-95123558D02*
X117288527Y-95123558D01*
X117288527Y-95123558D02*
X117336146Y-95147367D01*
X117336146Y-95147367D02*
X117359956Y-95194986D01*
X117359956Y-95194986D02*
X117359956Y-95242605D01*
X117359956Y-95242605D02*
X117121861Y-95290224D01*
X117574241Y-95456891D02*
X117574241Y-95123558D01*
X117574241Y-95218796D02*
X117598051Y-95171177D01*
X117598051Y-95171177D02*
X117621860Y-95147367D01*
X117621860Y-95147367D02*
X117669479Y-95123558D01*
X117669479Y-95123558D02*
X117717098Y-95123558D01*
X117883765Y-95266415D02*
X118264718Y-95266415D01*
X118479004Y-95004510D02*
X118502813Y-94980701D01*
X118502813Y-94980701D02*
X118550432Y-94956891D01*
X118550432Y-94956891D02*
X118669480Y-94956891D01*
X118669480Y-94956891D02*
X118717099Y-94980701D01*
X118717099Y-94980701D02*
X118740908Y-95004510D01*
X118740908Y-95004510D02*
X118764718Y-95052129D01*
X118764718Y-95052129D02*
X118764718Y-95099748D01*
X118764718Y-95099748D02*
X118740908Y-95171177D01*
X118740908Y-95171177D02*
X118455194Y-95456891D01*
X118455194Y-95456891D02*
X118764718Y-95456891D01*
X119193289Y-95123558D02*
X119193289Y-95456891D01*
X119074241Y-94933082D02*
X118955194Y-95290224D01*
X118955194Y-95290224D02*
X119264717Y-95290224D01*
X119455193Y-95123558D02*
X119455193Y-95623558D01*
X119455193Y-95147367D02*
X119502812Y-95123558D01*
X119502812Y-95123558D02*
X119598050Y-95123558D01*
X119598050Y-95123558D02*
X119645669Y-95147367D01*
X119645669Y-95147367D02*
X119669479Y-95171177D01*
X119669479Y-95171177D02*
X119693288Y-95218796D01*
X119693288Y-95218796D02*
X119693288Y-95361653D01*
X119693288Y-95361653D02*
X119669479Y-95409272D01*
X119669479Y-95409272D02*
X119645669Y-95433082D01*
X119645669Y-95433082D02*
X119598050Y-95456891D01*
X119598050Y-95456891D02*
X119502812Y-95456891D01*
X119502812Y-95456891D02*
X119455193Y-95433082D01*
X120121860Y-95433082D02*
X120074241Y-95456891D01*
X120074241Y-95456891D02*
X119979003Y-95456891D01*
X119979003Y-95456891D02*
X119931384Y-95433082D01*
X119931384Y-95433082D02*
X119907574Y-95409272D01*
X119907574Y-95409272D02*
X119883765Y-95361653D01*
X119883765Y-95361653D02*
X119883765Y-95218796D01*
X119883765Y-95218796D02*
X119907574Y-95171177D01*
X119907574Y-95171177D02*
X119931384Y-95147367D01*
X119931384Y-95147367D02*
X119979003Y-95123558D01*
X119979003Y-95123558D02*
X120074241Y-95123558D01*
X120074241Y-95123558D02*
X120121860Y-95147367D01*
X120312336Y-95433082D02*
X120359955Y-95456891D01*
X120359955Y-95456891D02*
X120455193Y-95456891D01*
X120455193Y-95456891D02*
X120502812Y-95433082D01*
X120502812Y-95433082D02*
X120526621Y-95385462D01*
X120526621Y-95385462D02*
X120526621Y-95361653D01*
X120526621Y-95361653D02*
X120502812Y-95314034D01*
X120502812Y-95314034D02*
X120455193Y-95290224D01*
X120455193Y-95290224D02*
X120383764Y-95290224D01*
X120383764Y-95290224D02*
X120336145Y-95266415D01*
X120336145Y-95266415D02*
X120312336Y-95218796D01*
X120312336Y-95218796D02*
X120312336Y-95194986D01*
X120312336Y-95194986D02*
X120336145Y-95147367D01*
X120336145Y-95147367D02*
X120383764Y-95123558D01*
X120383764Y-95123558D02*
X120455193Y-95123558D01*
X120455193Y-95123558D02*
X120502812Y-95147367D01*
X120740907Y-95266415D02*
X121121860Y-95266415D01*
X121526622Y-95194986D02*
X121359955Y-95194986D01*
X121359955Y-95456891D02*
X121359955Y-94956891D01*
X121359955Y-94956891D02*
X121598050Y-94956891D01*
X121979002Y-95433082D02*
X121931383Y-95456891D01*
X121931383Y-95456891D02*
X121836145Y-95456891D01*
X121836145Y-95456891D02*
X121788526Y-95433082D01*
X121788526Y-95433082D02*
X121764717Y-95385462D01*
X121764717Y-95385462D02*
X121764717Y-95194986D01*
X121764717Y-95194986D02*
X121788526Y-95147367D01*
X121788526Y-95147367D02*
X121836145Y-95123558D01*
X121836145Y-95123558D02*
X121931383Y-95123558D01*
X121931383Y-95123558D02*
X121979002Y-95147367D01*
X121979002Y-95147367D02*
X122002812Y-95194986D01*
X122002812Y-95194986D02*
X122002812Y-95242605D01*
X122002812Y-95242605D02*
X121764717Y-95290224D01*
X122217097Y-95456891D02*
X122217097Y-95123558D01*
X122217097Y-95171177D02*
X122240907Y-95147367D01*
X122240907Y-95147367D02*
X122288526Y-95123558D01*
X122288526Y-95123558D02*
X122359954Y-95123558D01*
X122359954Y-95123558D02*
X122407573Y-95147367D01*
X122407573Y-95147367D02*
X122431383Y-95194986D01*
X122431383Y-95194986D02*
X122431383Y-95456891D01*
X122431383Y-95194986D02*
X122455192Y-95147367D01*
X122455192Y-95147367D02*
X122502811Y-95123558D01*
X122502811Y-95123558D02*
X122574240Y-95123558D01*
X122574240Y-95123558D02*
X122621859Y-95147367D01*
X122621859Y-95147367D02*
X122645669Y-95194986D01*
X122645669Y-95194986D02*
X122645669Y-95456891D01*
X123098050Y-95456891D02*
X123098050Y-95194986D01*
X123098050Y-95194986D02*
X123074240Y-95147367D01*
X123074240Y-95147367D02*
X123026621Y-95123558D01*
X123026621Y-95123558D02*
X122931383Y-95123558D01*
X122931383Y-95123558D02*
X122883764Y-95147367D01*
X123098050Y-95433082D02*
X123050431Y-95456891D01*
X123050431Y-95456891D02*
X122931383Y-95456891D01*
X122931383Y-95456891D02*
X122883764Y-95433082D01*
X122883764Y-95433082D02*
X122859955Y-95385462D01*
X122859955Y-95385462D02*
X122859955Y-95337843D01*
X122859955Y-95337843D02*
X122883764Y-95290224D01*
X122883764Y-95290224D02*
X122931383Y-95266415D01*
X122931383Y-95266415D02*
X123050431Y-95266415D01*
X123050431Y-95266415D02*
X123098050Y-95242605D01*
X123407574Y-95456891D02*
X123359955Y-95433082D01*
X123359955Y-95433082D02*
X123336145Y-95385462D01*
X123336145Y-95385462D02*
X123336145Y-94956891D01*
X123788526Y-95433082D02*
X123740907Y-95456891D01*
X123740907Y-95456891D02*
X123645669Y-95456891D01*
X123645669Y-95456891D02*
X123598050Y-95433082D01*
X123598050Y-95433082D02*
X123574241Y-95385462D01*
X123574241Y-95385462D02*
X123574241Y-95194986D01*
X123574241Y-95194986D02*
X123598050Y-95147367D01*
X123598050Y-95147367D02*
X123645669Y-95123558D01*
X123645669Y-95123558D02*
X123740907Y-95123558D01*
X123740907Y-95123558D02*
X123788526Y-95147367D01*
X123788526Y-95147367D02*
X123812336Y-95194986D01*
X123812336Y-95194986D02*
X123812336Y-95242605D01*
X123812336Y-95242605D02*
X123574241Y-95290224D01*
X124026621Y-95266415D02*
X124407574Y-95266415D01*
X124621860Y-95433082D02*
X124693288Y-95456891D01*
X124693288Y-95456891D02*
X124812336Y-95456891D01*
X124812336Y-95456891D02*
X124859955Y-95433082D01*
X124859955Y-95433082D02*
X124883764Y-95409272D01*
X124883764Y-95409272D02*
X124907574Y-95361653D01*
X124907574Y-95361653D02*
X124907574Y-95314034D01*
X124907574Y-95314034D02*
X124883764Y-95266415D01*
X124883764Y-95266415D02*
X124859955Y-95242605D01*
X124859955Y-95242605D02*
X124812336Y-95218796D01*
X124812336Y-95218796D02*
X124717098Y-95194986D01*
X124717098Y-95194986D02*
X124669479Y-95171177D01*
X124669479Y-95171177D02*
X124645669Y-95147367D01*
X124645669Y-95147367D02*
X124621860Y-95099748D01*
X124621860Y-95099748D02*
X124621860Y-95052129D01*
X124621860Y-95052129D02*
X124645669Y-95004510D01*
X124645669Y-95004510D02*
X124669479Y-94980701D01*
X124669479Y-94980701D02*
X124717098Y-94956891D01*
X124717098Y-94956891D02*
X124836145Y-94956891D01*
X124836145Y-94956891D02*
X124907574Y-94980701D01*
X125193288Y-95456891D02*
X125145669Y-95433082D01*
X125145669Y-95433082D02*
X125121859Y-95409272D01*
X125121859Y-95409272D02*
X125098050Y-95361653D01*
X125098050Y-95361653D02*
X125098050Y-95218796D01*
X125098050Y-95218796D02*
X125121859Y-95171177D01*
X125121859Y-95171177D02*
X125145669Y-95147367D01*
X125145669Y-95147367D02*
X125193288Y-95123558D01*
X125193288Y-95123558D02*
X125264716Y-95123558D01*
X125264716Y-95123558D02*
X125312335Y-95147367D01*
X125312335Y-95147367D02*
X125336145Y-95171177D01*
X125336145Y-95171177D02*
X125359954Y-95218796D01*
X125359954Y-95218796D02*
X125359954Y-95361653D01*
X125359954Y-95361653D02*
X125336145Y-95409272D01*
X125336145Y-95409272D02*
X125312335Y-95433082D01*
X125312335Y-95433082D02*
X125264716Y-95456891D01*
X125264716Y-95456891D02*
X125193288Y-95456891D01*
X125788526Y-95433082D02*
X125740907Y-95456891D01*
X125740907Y-95456891D02*
X125645669Y-95456891D01*
X125645669Y-95456891D02*
X125598050Y-95433082D01*
X125598050Y-95433082D02*
X125574240Y-95409272D01*
X125574240Y-95409272D02*
X125550431Y-95361653D01*
X125550431Y-95361653D02*
X125550431Y-95218796D01*
X125550431Y-95218796D02*
X125574240Y-95171177D01*
X125574240Y-95171177D02*
X125598050Y-95147367D01*
X125598050Y-95147367D02*
X125645669Y-95123558D01*
X125645669Y-95123558D02*
X125740907Y-95123558D01*
X125740907Y-95123558D02*
X125788526Y-95147367D01*
X126002811Y-95456891D02*
X126002811Y-94956891D01*
X126050430Y-95266415D02*
X126193287Y-95456891D01*
X126193287Y-95123558D02*
X126002811Y-95314034D01*
X126598049Y-95433082D02*
X126550430Y-95456891D01*
X126550430Y-95456891D02*
X126455192Y-95456891D01*
X126455192Y-95456891D02*
X126407573Y-95433082D01*
X126407573Y-95433082D02*
X126383764Y-95385462D01*
X126383764Y-95385462D02*
X126383764Y-95194986D01*
X126383764Y-95194986D02*
X126407573Y-95147367D01*
X126407573Y-95147367D02*
X126455192Y-95123558D01*
X126455192Y-95123558D02*
X126550430Y-95123558D01*
X126550430Y-95123558D02*
X126598049Y-95147367D01*
X126598049Y-95147367D02*
X126621859Y-95194986D01*
X126621859Y-95194986D02*
X126621859Y-95242605D01*
X126621859Y-95242605D02*
X126383764Y-95290224D01*
X126764716Y-95123558D02*
X126955192Y-95123558D01*
X126836144Y-94956891D02*
X126836144Y-95385462D01*
X126836144Y-95385462D02*
X126859954Y-95433082D01*
X126859954Y-95433082D02*
X126907573Y-95456891D01*
X126907573Y-95456891D02*
X126955192Y-95456891D01*
X127121858Y-95266415D02*
X127502811Y-95266415D01*
X128026620Y-95409272D02*
X128002811Y-95433082D01*
X128002811Y-95433082D02*
X127931382Y-95456891D01*
X127931382Y-95456891D02*
X127883763Y-95456891D01*
X127883763Y-95456891D02*
X127812335Y-95433082D01*
X127812335Y-95433082D02*
X127764716Y-95385462D01*
X127764716Y-95385462D02*
X127740906Y-95337843D01*
X127740906Y-95337843D02*
X127717097Y-95242605D01*
X127717097Y-95242605D02*
X127717097Y-95171177D01*
X127717097Y-95171177D02*
X127740906Y-95075939D01*
X127740906Y-95075939D02*
X127764716Y-95028320D01*
X127764716Y-95028320D02*
X127812335Y-94980701D01*
X127812335Y-94980701D02*
X127883763Y-94956891D01*
X127883763Y-94956891D02*
X127931382Y-94956891D01*
X127931382Y-94956891D02*
X128002811Y-94980701D01*
X128002811Y-94980701D02*
X128026620Y-95004510D01*
X128312335Y-95456891D02*
X128264716Y-95433082D01*
X128264716Y-95433082D02*
X128240906Y-95409272D01*
X128240906Y-95409272D02*
X128217097Y-95361653D01*
X128217097Y-95361653D02*
X128217097Y-95218796D01*
X128217097Y-95218796D02*
X128240906Y-95171177D01*
X128240906Y-95171177D02*
X128264716Y-95147367D01*
X128264716Y-95147367D02*
X128312335Y-95123558D01*
X128312335Y-95123558D02*
X128383763Y-95123558D01*
X128383763Y-95123558D02*
X128431382Y-95147367D01*
X128431382Y-95147367D02*
X128455192Y-95171177D01*
X128455192Y-95171177D02*
X128479001Y-95218796D01*
X128479001Y-95218796D02*
X128479001Y-95361653D01*
X128479001Y-95361653D02*
X128455192Y-95409272D01*
X128455192Y-95409272D02*
X128431382Y-95433082D01*
X128431382Y-95433082D02*
X128383763Y-95456891D01*
X128383763Y-95456891D02*
X128312335Y-95456891D01*
X128693287Y-95123558D02*
X128693287Y-95456891D01*
X128693287Y-95171177D02*
X128717097Y-95147367D01*
X128717097Y-95147367D02*
X128764716Y-95123558D01*
X128764716Y-95123558D02*
X128836144Y-95123558D01*
X128836144Y-95123558D02*
X128883763Y-95147367D01*
X128883763Y-95147367D02*
X128907573Y-95194986D01*
X128907573Y-95194986D02*
X128907573Y-95456891D01*
X129145668Y-95123558D02*
X129145668Y-95456891D01*
X129145668Y-95171177D02*
X129169478Y-95147367D01*
X129169478Y-95147367D02*
X129217097Y-95123558D01*
X129217097Y-95123558D02*
X129288525Y-95123558D01*
X129288525Y-95123558D02*
X129336144Y-95147367D01*
X129336144Y-95147367D02*
X129359954Y-95194986D01*
X129359954Y-95194986D02*
X129359954Y-95456891D01*
X129788525Y-95433082D02*
X129740906Y-95456891D01*
X129740906Y-95456891D02*
X129645668Y-95456891D01*
X129645668Y-95456891D02*
X129598049Y-95433082D01*
X129598049Y-95433082D02*
X129574240Y-95385462D01*
X129574240Y-95385462D02*
X129574240Y-95194986D01*
X129574240Y-95194986D02*
X129598049Y-95147367D01*
X129598049Y-95147367D02*
X129645668Y-95123558D01*
X129645668Y-95123558D02*
X129740906Y-95123558D01*
X129740906Y-95123558D02*
X129788525Y-95147367D01*
X129788525Y-95147367D02*
X129812335Y-95194986D01*
X129812335Y-95194986D02*
X129812335Y-95242605D01*
X129812335Y-95242605D02*
X129574240Y-95290224D01*
X130240906Y-95433082D02*
X130193287Y-95456891D01*
X130193287Y-95456891D02*
X130098049Y-95456891D01*
X130098049Y-95456891D02*
X130050430Y-95433082D01*
X130050430Y-95433082D02*
X130026620Y-95409272D01*
X130026620Y-95409272D02*
X130002811Y-95361653D01*
X130002811Y-95361653D02*
X130002811Y-95218796D01*
X130002811Y-95218796D02*
X130026620Y-95171177D01*
X130026620Y-95171177D02*
X130050430Y-95147367D01*
X130050430Y-95147367D02*
X130098049Y-95123558D01*
X130098049Y-95123558D02*
X130193287Y-95123558D01*
X130193287Y-95123558D02*
X130240906Y-95147367D01*
X130383763Y-95123558D02*
X130574239Y-95123558D01*
X130455191Y-94956891D02*
X130455191Y-95385462D01*
X130455191Y-95385462D02*
X130479001Y-95433082D01*
X130479001Y-95433082D02*
X130526620Y-95456891D01*
X130526620Y-95456891D02*
X130574239Y-95456891D01*
X130812334Y-95456891D02*
X130764715Y-95433082D01*
X130764715Y-95433082D02*
X130740905Y-95409272D01*
X130740905Y-95409272D02*
X130717096Y-95361653D01*
X130717096Y-95361653D02*
X130717096Y-95218796D01*
X130717096Y-95218796D02*
X130740905Y-95171177D01*
X130740905Y-95171177D02*
X130764715Y-95147367D01*
X130764715Y-95147367D02*
X130812334Y-95123558D01*
X130812334Y-95123558D02*
X130883762Y-95123558D01*
X130883762Y-95123558D02*
X130931381Y-95147367D01*
X130931381Y-95147367D02*
X130955191Y-95171177D01*
X130955191Y-95171177D02*
X130979000Y-95218796D01*
X130979000Y-95218796D02*
X130979000Y-95361653D01*
X130979000Y-95361653D02*
X130955191Y-95409272D01*
X130955191Y-95409272D02*
X130931381Y-95433082D01*
X130931381Y-95433082D02*
X130883762Y-95456891D01*
X130883762Y-95456891D02*
X130812334Y-95456891D01*
X131193286Y-95456891D02*
X131193286Y-95123558D01*
X131193286Y-95218796D02*
X131217096Y-95171177D01*
X131217096Y-95171177D02*
X131240905Y-95147367D01*
X131240905Y-95147367D02*
X131288524Y-95123558D01*
X131288524Y-95123558D02*
X131336143Y-95123558D01*
X131859953Y-94933082D02*
X131431382Y-95575939D01*
X132240906Y-95456891D02*
X132240906Y-94956891D01*
X132240906Y-95433082D02*
X132193287Y-95456891D01*
X132193287Y-95456891D02*
X132098049Y-95456891D01*
X132098049Y-95456891D02*
X132050430Y-95433082D01*
X132050430Y-95433082D02*
X132026620Y-95409272D01*
X132026620Y-95409272D02*
X132002811Y-95361653D01*
X132002811Y-95361653D02*
X132002811Y-95218796D01*
X132002811Y-95218796D02*
X132026620Y-95171177D01*
X132026620Y-95171177D02*
X132050430Y-95147367D01*
X132050430Y-95147367D02*
X132098049Y-95123558D01*
X132098049Y-95123558D02*
X132193287Y-95123558D01*
X132193287Y-95123558D02*
X132240906Y-95147367D01*
X132479001Y-95123558D02*
X132479001Y-95623558D01*
X132479001Y-95147367D02*
X132526620Y-95123558D01*
X132526620Y-95123558D02*
X132621858Y-95123558D01*
X132621858Y-95123558D02*
X132669477Y-95147367D01*
X132669477Y-95147367D02*
X132693287Y-95171177D01*
X132693287Y-95171177D02*
X132717096Y-95218796D01*
X132717096Y-95218796D02*
X132717096Y-95361653D01*
X132717096Y-95361653D02*
X132693287Y-95409272D01*
X132693287Y-95409272D02*
X132669477Y-95433082D01*
X132669477Y-95433082D02*
X132621858Y-95456891D01*
X132621858Y-95456891D02*
X132526620Y-95456891D01*
X132526620Y-95456891D02*
X132479001Y-95433082D01*
X133288525Y-94933082D02*
X132859954Y-95575939D01*
X133621859Y-95194986D02*
X133693287Y-95218796D01*
X133693287Y-95218796D02*
X133717097Y-95242605D01*
X133717097Y-95242605D02*
X133740906Y-95290224D01*
X133740906Y-95290224D02*
X133740906Y-95361653D01*
X133740906Y-95361653D02*
X133717097Y-95409272D01*
X133717097Y-95409272D02*
X133693287Y-95433082D01*
X133693287Y-95433082D02*
X133645668Y-95456891D01*
X133645668Y-95456891D02*
X133455192Y-95456891D01*
X133455192Y-95456891D02*
X133455192Y-94956891D01*
X133455192Y-94956891D02*
X133621859Y-94956891D01*
X133621859Y-94956891D02*
X133669478Y-94980701D01*
X133669478Y-94980701D02*
X133693287Y-95004510D01*
X133693287Y-95004510D02*
X133717097Y-95052129D01*
X133717097Y-95052129D02*
X133717097Y-95099748D01*
X133717097Y-95099748D02*
X133693287Y-95147367D01*
X133693287Y-95147367D02*
X133669478Y-95171177D01*
X133669478Y-95171177D02*
X133621859Y-95194986D01*
X133621859Y-95194986D02*
X133455192Y-95194986D01*
X134050430Y-94956891D02*
X134098049Y-94956891D01*
X134098049Y-94956891D02*
X134145668Y-94980701D01*
X134145668Y-94980701D02*
X134169478Y-95004510D01*
X134169478Y-95004510D02*
X134193287Y-95052129D01*
X134193287Y-95052129D02*
X134217097Y-95147367D01*
X134217097Y-95147367D02*
X134217097Y-95266415D01*
X134217097Y-95266415D02*
X134193287Y-95361653D01*
X134193287Y-95361653D02*
X134169478Y-95409272D01*
X134169478Y-95409272D02*
X134145668Y-95433082D01*
X134145668Y-95433082D02*
X134098049Y-95456891D01*
X134098049Y-95456891D02*
X134050430Y-95456891D01*
X134050430Y-95456891D02*
X134002811Y-95433082D01*
X134002811Y-95433082D02*
X133979002Y-95409272D01*
X133979002Y-95409272D02*
X133955192Y-95361653D01*
X133955192Y-95361653D02*
X133931383Y-95266415D01*
X133931383Y-95266415D02*
X133931383Y-95147367D01*
X133931383Y-95147367D02*
X133955192Y-95052129D01*
X133955192Y-95052129D02*
X133979002Y-95004510D01*
X133979002Y-95004510D02*
X134002811Y-94980701D01*
X134002811Y-94980701D02*
X134050430Y-94956891D01*
X134383763Y-94956891D02*
X134717096Y-94956891D01*
X134717096Y-94956891D02*
X134502811Y-95456891D01*
X135193286Y-95409272D02*
X135169477Y-95433082D01*
X135169477Y-95433082D02*
X135098048Y-95456891D01*
X135098048Y-95456891D02*
X135050429Y-95456891D01*
X135050429Y-95456891D02*
X134979001Y-95433082D01*
X134979001Y-95433082D02*
X134931382Y-95385462D01*
X134931382Y-95385462D02*
X134907572Y-95337843D01*
X134907572Y-95337843D02*
X134883763Y-95242605D01*
X134883763Y-95242605D02*
X134883763Y-95171177D01*
X134883763Y-95171177D02*
X134907572Y-95075939D01*
X134907572Y-95075939D02*
X134931382Y-95028320D01*
X134931382Y-95028320D02*
X134979001Y-94980701D01*
X134979001Y-94980701D02*
X135050429Y-94956891D01*
X135050429Y-94956891D02*
X135098048Y-94956891D01*
X135098048Y-94956891D02*
X135169477Y-94980701D01*
X135169477Y-94980701D02*
X135193286Y-95004510D01*
X135336144Y-94956891D02*
X135621858Y-94956891D01*
X135479001Y-95456891D02*
X135479001Y-94956891D01*
X136074238Y-95409272D02*
X136050429Y-95433082D01*
X136050429Y-95433082D02*
X135979000Y-95456891D01*
X135979000Y-95456891D02*
X135931381Y-95456891D01*
X135931381Y-95456891D02*
X135859953Y-95433082D01*
X135859953Y-95433082D02*
X135812334Y-95385462D01*
X135812334Y-95385462D02*
X135788524Y-95337843D01*
X135788524Y-95337843D02*
X135764715Y-95242605D01*
X135764715Y-95242605D02*
X135764715Y-95171177D01*
X135764715Y-95171177D02*
X135788524Y-95075939D01*
X135788524Y-95075939D02*
X135812334Y-95028320D01*
X135812334Y-95028320D02*
X135859953Y-94980701D01*
X135859953Y-94980701D02*
X135931381Y-94956891D01*
X135931381Y-94956891D02*
X135979000Y-94956891D01*
X135979000Y-94956891D02*
X136050429Y-94980701D01*
X136050429Y-94980701D02*
X136074238Y-95004510D01*
X136526619Y-95456891D02*
X136288524Y-95456891D01*
X136288524Y-95456891D02*
X136288524Y-94956891D01*
X136693286Y-95456891D02*
X136693286Y-94956891D01*
X136979000Y-95456891D02*
X136764715Y-95171177D01*
X136979000Y-94956891D02*
X136693286Y-95242605D01*
X137193286Y-95456891D02*
X137193286Y-94956891D01*
X137193286Y-94956891D02*
X137383762Y-94956891D01*
X137383762Y-94956891D02*
X137431381Y-94980701D01*
X137431381Y-94980701D02*
X137455191Y-95004510D01*
X137455191Y-95004510D02*
X137479000Y-95052129D01*
X137479000Y-95052129D02*
X137479000Y-95123558D01*
X137479000Y-95123558D02*
X137455191Y-95171177D01*
X137455191Y-95171177D02*
X137431381Y-95194986D01*
X137431381Y-95194986D02*
X137383762Y-95218796D01*
X137383762Y-95218796D02*
X137193286Y-95218796D01*
X137693286Y-95456891D02*
X137693286Y-94956891D01*
X137693286Y-94956891D02*
X137883762Y-94956891D01*
X137883762Y-94956891D02*
X137931381Y-94980701D01*
X137931381Y-94980701D02*
X137955191Y-95004510D01*
X137955191Y-95004510D02*
X137979000Y-95052129D01*
X137979000Y-95052129D02*
X137979000Y-95123558D01*
X137979000Y-95123558D02*
X137955191Y-95171177D01*
X137955191Y-95171177D02*
X137931381Y-95194986D01*
X137931381Y-95194986D02*
X137883762Y-95218796D01*
X137883762Y-95218796D02*
X137693286Y-95218796D01*
X104598049Y-95456891D02*
X104598049Y-94956891D01*
X104812335Y-95456891D02*
X104812335Y-95194986D01*
X104812335Y-95194986D02*
X104788525Y-95147367D01*
X104788525Y-95147367D02*
X104740906Y-95123558D01*
X104740906Y-95123558D02*
X104669478Y-95123558D01*
X104669478Y-95123558D02*
X104621859Y-95147367D01*
X104621859Y-95147367D02*
X104598049Y-95171177D01*
X104979002Y-95123558D02*
X105169478Y-95123558D01*
X105050430Y-94956891D02*
X105050430Y-95385462D01*
X105050430Y-95385462D02*
X105074240Y-95433082D01*
X105074240Y-95433082D02*
X105121859Y-95456891D01*
X105121859Y-95456891D02*
X105169478Y-95456891D01*
X105264716Y-95123558D02*
X105455192Y-95123558D01*
X105336144Y-94956891D02*
X105336144Y-95385462D01*
X105336144Y-95385462D02*
X105359954Y-95433082D01*
X105359954Y-95433082D02*
X105407573Y-95456891D01*
X105407573Y-95456891D02*
X105455192Y-95456891D01*
X105621858Y-95123558D02*
X105621858Y-95623558D01*
X105621858Y-95147367D02*
X105669477Y-95123558D01*
X105669477Y-95123558D02*
X105764715Y-95123558D01*
X105764715Y-95123558D02*
X105812334Y-95147367D01*
X105812334Y-95147367D02*
X105836144Y-95171177D01*
X105836144Y-95171177D02*
X105859953Y-95218796D01*
X105859953Y-95218796D02*
X105859953Y-95361653D01*
X105859953Y-95361653D02*
X105836144Y-95409272D01*
X105836144Y-95409272D02*
X105812334Y-95433082D01*
X105812334Y-95433082D02*
X105764715Y-95456891D01*
X105764715Y-95456891D02*
X105669477Y-95456891D01*
X105669477Y-95456891D02*
X105621858Y-95433082D01*
X106050430Y-95433082D02*
X106098049Y-95456891D01*
X106098049Y-95456891D02*
X106193287Y-95456891D01*
X106193287Y-95456891D02*
X106240906Y-95433082D01*
X106240906Y-95433082D02*
X106264715Y-95385462D01*
X106264715Y-95385462D02*
X106264715Y-95361653D01*
X106264715Y-95361653D02*
X106240906Y-95314034D01*
X106240906Y-95314034D02*
X106193287Y-95290224D01*
X106193287Y-95290224D02*
X106121858Y-95290224D01*
X106121858Y-95290224D02*
X106074239Y-95266415D01*
X106074239Y-95266415D02*
X106050430Y-95218796D01*
X106050430Y-95218796D02*
X106050430Y-95194986D01*
X106050430Y-95194986D02*
X106074239Y-95147367D01*
X106074239Y-95147367D02*
X106121858Y-95123558D01*
X106121858Y-95123558D02*
X106193287Y-95123558D01*
X106193287Y-95123558D02*
X106240906Y-95147367D01*
X106479001Y-95409272D02*
X106502811Y-95433082D01*
X106502811Y-95433082D02*
X106479001Y-95456891D01*
X106479001Y-95456891D02*
X106455192Y-95433082D01*
X106455192Y-95433082D02*
X106479001Y-95409272D01*
X106479001Y-95409272D02*
X106479001Y-95456891D01*
X106479001Y-95147367D02*
X106502811Y-95171177D01*
X106502811Y-95171177D02*
X106479001Y-95194986D01*
X106479001Y-95194986D02*
X106455192Y-95171177D01*
X106455192Y-95171177D02*
X106479001Y-95147367D01*
X106479001Y-95147367D02*
X106479001Y-95194986D01*
X107074239Y-94933082D02*
X106645668Y-95575939D01*
X107598049Y-94933082D02*
X107169478Y-95575939D01*
X107717097Y-95123558D02*
X107812335Y-95456891D01*
X107812335Y-95456891D02*
X107907573Y-95218796D01*
X107907573Y-95218796D02*
X108002811Y-95456891D01*
X108002811Y-95456891D02*
X108098049Y-95123558D01*
X108240907Y-95123558D02*
X108336145Y-95456891D01*
X108336145Y-95456891D02*
X108431383Y-95218796D01*
X108431383Y-95218796D02*
X108526621Y-95456891D01*
X108526621Y-95456891D02*
X108621859Y-95123558D01*
X108764717Y-95123558D02*
X108859955Y-95456891D01*
X108859955Y-95456891D02*
X108955193Y-95218796D01*
X108955193Y-95218796D02*
X109050431Y-95456891D01*
X109050431Y-95456891D02*
X109145669Y-95123558D01*
X109336146Y-95409272D02*
X109359956Y-95433082D01*
X109359956Y-95433082D02*
X109336146Y-95456891D01*
X109336146Y-95456891D02*
X109312337Y-95433082D01*
X109312337Y-95433082D02*
X109336146Y-95409272D01*
X109336146Y-95409272D02*
X109336146Y-95456891D01*
X109788527Y-95456891D02*
X109788527Y-95194986D01*
X109788527Y-95194986D02*
X109764717Y-95147367D01*
X109764717Y-95147367D02*
X109717098Y-95123558D01*
X109717098Y-95123558D02*
X109621860Y-95123558D01*
X109621860Y-95123558D02*
X109574241Y-95147367D01*
X109788527Y-95433082D02*
X109740908Y-95456891D01*
X109740908Y-95456891D02*
X109621860Y-95456891D01*
X109621860Y-95456891D02*
X109574241Y-95433082D01*
X109574241Y-95433082D02*
X109550432Y-95385462D01*
X109550432Y-95385462D02*
X109550432Y-95337843D01*
X109550432Y-95337843D02*
X109574241Y-95290224D01*
X109574241Y-95290224D02*
X109621860Y-95266415D01*
X109621860Y-95266415D02*
X109740908Y-95266415D01*
X109740908Y-95266415D02*
X109788527Y-95242605D01*
X110026622Y-95456891D02*
X110026622Y-95123558D01*
X110026622Y-95171177D02*
X110050432Y-95147367D01*
X110050432Y-95147367D02*
X110098051Y-95123558D01*
X110098051Y-95123558D02*
X110169479Y-95123558D01*
X110169479Y-95123558D02*
X110217098Y-95147367D01*
X110217098Y-95147367D02*
X110240908Y-95194986D01*
X110240908Y-95194986D02*
X110240908Y-95456891D01*
X110240908Y-95194986D02*
X110264717Y-95147367D01*
X110264717Y-95147367D02*
X110312336Y-95123558D01*
X110312336Y-95123558D02*
X110383765Y-95123558D01*
X110383765Y-95123558D02*
X110431384Y-95147367D01*
X110431384Y-95147367D02*
X110455194Y-95194986D01*
X110455194Y-95194986D02*
X110455194Y-95456891D01*
X110907575Y-95456891D02*
X110907575Y-95194986D01*
X110907575Y-95194986D02*
X110883765Y-95147367D01*
X110883765Y-95147367D02*
X110836146Y-95123558D01*
X110836146Y-95123558D02*
X110740908Y-95123558D01*
X110740908Y-95123558D02*
X110693289Y-95147367D01*
X110907575Y-95433082D02*
X110859956Y-95456891D01*
X110859956Y-95456891D02*
X110740908Y-95456891D01*
X110740908Y-95456891D02*
X110693289Y-95433082D01*
X110693289Y-95433082D02*
X110669480Y-95385462D01*
X110669480Y-95385462D02*
X110669480Y-95337843D01*
X110669480Y-95337843D02*
X110693289Y-95290224D01*
X110693289Y-95290224D02*
X110740908Y-95266415D01*
X110740908Y-95266415D02*
X110859956Y-95266415D01*
X110859956Y-95266415D02*
X110907575Y-95242605D01*
X111098051Y-95123558D02*
X111359956Y-95123558D01*
X111359956Y-95123558D02*
X111098051Y-95456891D01*
X111098051Y-95456891D02*
X111359956Y-95456891D01*
X111621861Y-95456891D02*
X111574242Y-95433082D01*
X111574242Y-95433082D02*
X111550432Y-95409272D01*
X111550432Y-95409272D02*
X111526623Y-95361653D01*
X111526623Y-95361653D02*
X111526623Y-95218796D01*
X111526623Y-95218796D02*
X111550432Y-95171177D01*
X111550432Y-95171177D02*
X111574242Y-95147367D01*
X111574242Y-95147367D02*
X111621861Y-95123558D01*
X111621861Y-95123558D02*
X111693289Y-95123558D01*
X111693289Y-95123558D02*
X111740908Y-95147367D01*
X111740908Y-95147367D02*
X111764718Y-95171177D01*
X111764718Y-95171177D02*
X111788527Y-95218796D01*
X111788527Y-95218796D02*
X111788527Y-95361653D01*
X111788527Y-95361653D02*
X111764718Y-95409272D01*
X111764718Y-95409272D02*
X111740908Y-95433082D01*
X111740908Y-95433082D02*
X111693289Y-95456891D01*
X111693289Y-95456891D02*
X111621861Y-95456891D01*
X112002813Y-95123558D02*
X112002813Y-95456891D01*
X112002813Y-95171177D02*
X112026623Y-95147367D01*
X112026623Y-95147367D02*
X112074242Y-95123558D01*
X112074242Y-95123558D02*
X112145670Y-95123558D01*
X112145670Y-95123558D02*
X112193289Y-95147367D01*
X112193289Y-95147367D02*
X112217099Y-95194986D01*
X112217099Y-95194986D02*
X112217099Y-95456891D01*
X112455194Y-95409272D02*
X112479004Y-95433082D01*
X112479004Y-95433082D02*
X112455194Y-95456891D01*
X112455194Y-95456891D02*
X112431385Y-95433082D01*
X112431385Y-95433082D02*
X112455194Y-95409272D01*
X112455194Y-95409272D02*
X112455194Y-95456891D01*
X112907575Y-95433082D02*
X112859956Y-95456891D01*
X112859956Y-95456891D02*
X112764718Y-95456891D01*
X112764718Y-95456891D02*
X112717099Y-95433082D01*
X112717099Y-95433082D02*
X112693289Y-95409272D01*
X112693289Y-95409272D02*
X112669480Y-95361653D01*
X112669480Y-95361653D02*
X112669480Y-95218796D01*
X112669480Y-95218796D02*
X112693289Y-95171177D01*
X112693289Y-95171177D02*
X112717099Y-95147367D01*
X112717099Y-95147367D02*
X112764718Y-95123558D01*
X112764718Y-95123558D02*
X112859956Y-95123558D01*
X112859956Y-95123558D02*
X112907575Y-95147367D01*
X113193289Y-95456891D02*
X113145670Y-95433082D01*
X113145670Y-95433082D02*
X113121860Y-95409272D01*
X113121860Y-95409272D02*
X113098051Y-95361653D01*
X113098051Y-95361653D02*
X113098051Y-95218796D01*
X113098051Y-95218796D02*
X113121860Y-95171177D01*
X113121860Y-95171177D02*
X113145670Y-95147367D01*
X113145670Y-95147367D02*
X113193289Y-95123558D01*
X113193289Y-95123558D02*
X113264717Y-95123558D01*
X113264717Y-95123558D02*
X113312336Y-95147367D01*
X113312336Y-95147367D02*
X113336146Y-95171177D01*
X113336146Y-95171177D02*
X113359955Y-95218796D01*
X113359955Y-95218796D02*
X113359955Y-95361653D01*
X113359955Y-95361653D02*
X113336146Y-95409272D01*
X113336146Y-95409272D02*
X113312336Y-95433082D01*
X113312336Y-95433082D02*
X113264717Y-95456891D01*
X113264717Y-95456891D02*
X113193289Y-95456891D01*
X113574241Y-95456891D02*
X113574241Y-95123558D01*
X113574241Y-95171177D02*
X113598051Y-95147367D01*
X113598051Y-95147367D02*
X113645670Y-95123558D01*
X113645670Y-95123558D02*
X113717098Y-95123558D01*
X113717098Y-95123558D02*
X113764717Y-95147367D01*
X113764717Y-95147367D02*
X113788527Y-95194986D01*
X113788527Y-95194986D02*
X113788527Y-95456891D01*
X113788527Y-95194986D02*
X113812336Y-95147367D01*
X113812336Y-95147367D02*
X113859955Y-95123558D01*
X113859955Y-95123558D02*
X113931384Y-95123558D01*
X113931384Y-95123558D02*
X113979003Y-95147367D01*
X113979003Y-95147367D02*
X114002813Y-95194986D01*
X114002813Y-95194986D02*
X114002813Y-95456891D01*
X114598051Y-94933082D02*
X114169480Y-95575939D01*
X114740909Y-95314034D02*
X114979004Y-95314034D01*
X114693290Y-95456891D02*
X114859956Y-94956891D01*
X114859956Y-94956891D02*
X115026623Y-95456891D01*
X115193289Y-95123558D02*
X115193289Y-95456891D01*
X115193289Y-95171177D02*
X115217099Y-95147367D01*
X115217099Y-95147367D02*
X115264718Y-95123558D01*
X115264718Y-95123558D02*
X115336146Y-95123558D01*
X115336146Y-95123558D02*
X115383765Y-95147367D01*
X115383765Y-95147367D02*
X115407575Y-95194986D01*
X115407575Y-95194986D02*
X115407575Y-95456891D01*
X115574242Y-95123558D02*
X115764718Y-95123558D01*
X115645670Y-94956891D02*
X115645670Y-95385462D01*
X115645670Y-95385462D02*
X115669480Y-95433082D01*
X115669480Y-95433082D02*
X115717099Y-95456891D01*
X115717099Y-95456891D02*
X115764718Y-95456891D01*
X115931384Y-95456891D02*
X115931384Y-95123558D01*
X115931384Y-95218796D02*
X115955194Y-95171177D01*
X115955194Y-95171177D02*
X115979003Y-95147367D01*
X115979003Y-95147367D02*
X116026622Y-95123558D01*
X116026622Y-95123558D02*
X116074241Y-95123558D01*
X116455194Y-95456891D02*
X116455194Y-95194986D01*
X116455194Y-95194986D02*
X116431384Y-95147367D01*
X116431384Y-95147367D02*
X116383765Y-95123558D01*
X116383765Y-95123558D02*
X116288527Y-95123558D01*
X116288527Y-95123558D02*
X116240908Y-95147367D01*
X116455194Y-95433082D02*
X116407575Y-95456891D01*
X116407575Y-95456891D02*
X116288527Y-95456891D01*
X116288527Y-95456891D02*
X116240908Y-95433082D01*
X116240908Y-95433082D02*
X116217099Y-95385462D01*
X116217099Y-95385462D02*
X116217099Y-95337843D01*
X116217099Y-95337843D02*
X116240908Y-95290224D01*
X116240908Y-95290224D02*
X116288527Y-95266415D01*
X116288527Y-95266415D02*
X116407575Y-95266415D01*
X116407575Y-95266415D02*
X116455194Y-95242605D01*
X116907575Y-95456891D02*
X116907575Y-94956891D01*
X116907575Y-95433082D02*
X116859956Y-95456891D01*
X116859956Y-95456891D02*
X116764718Y-95456891D01*
X116764718Y-95456891D02*
X116717099Y-95433082D01*
X116717099Y-95433082D02*
X116693289Y-95409272D01*
X116693289Y-95409272D02*
X116669480Y-95361653D01*
X116669480Y-95361653D02*
X116669480Y-95218796D01*
X116669480Y-95218796D02*
X116693289Y-95171177D01*
X116693289Y-95171177D02*
X116717099Y-95147367D01*
X116717099Y-95147367D02*
X116764718Y-95123558D01*
X116764718Y-95123558D02*
X116859956Y-95123558D01*
X116859956Y-95123558D02*
X116907575Y-95147367D01*
X117336146Y-95433082D02*
X117288527Y-95456891D01*
X117288527Y-95456891D02*
X117193289Y-95456891D01*
X117193289Y-95456891D02*
X117145670Y-95433082D01*
X117145670Y-95433082D02*
X117121861Y-95385462D01*
X117121861Y-95385462D02*
X117121861Y-95194986D01*
X117121861Y-95194986D02*
X117145670Y-95147367D01*
X117145670Y-95147367D02*
X117193289Y-95123558D01*
X117193289Y-95123558D02*
X117288527Y-95123558D01*
X117288527Y-95123558D02*
X117336146Y-95147367D01*
X117336146Y-95147367D02*
X117359956Y-95194986D01*
X117359956Y-95194986D02*
X117359956Y-95242605D01*
X117359956Y-95242605D02*
X117121861Y-95290224D01*
X117574241Y-95456891D02*
X117574241Y-95123558D01*
X117574241Y-95218796D02*
X117598051Y-95171177D01*
X117598051Y-95171177D02*
X117621860Y-95147367D01*
X117621860Y-95147367D02*
X117669479Y-95123558D01*
X117669479Y-95123558D02*
X117717098Y-95123558D01*
X117883765Y-95266415D02*
X118264718Y-95266415D01*
X118479004Y-95004510D02*
X118502813Y-94980701D01*
X118502813Y-94980701D02*
X118550432Y-94956891D01*
X118550432Y-94956891D02*
X118669480Y-94956891D01*
X118669480Y-94956891D02*
X118717099Y-94980701D01*
X118717099Y-94980701D02*
X118740908Y-95004510D01*
X118740908Y-95004510D02*
X118764718Y-95052129D01*
X118764718Y-95052129D02*
X118764718Y-95099748D01*
X118764718Y-95099748D02*
X118740908Y-95171177D01*
X118740908Y-95171177D02*
X118455194Y-95456891D01*
X118455194Y-95456891D02*
X118764718Y-95456891D01*
X119193289Y-95123558D02*
X119193289Y-95456891D01*
X119074241Y-94933082D02*
X118955194Y-95290224D01*
X118955194Y-95290224D02*
X119264717Y-95290224D01*
X119455193Y-95123558D02*
X119455193Y-95623558D01*
X119455193Y-95147367D02*
X119502812Y-95123558D01*
X119502812Y-95123558D02*
X119598050Y-95123558D01*
X119598050Y-95123558D02*
X119645669Y-95147367D01*
X119645669Y-95147367D02*
X119669479Y-95171177D01*
X119669479Y-95171177D02*
X119693288Y-95218796D01*
X119693288Y-95218796D02*
X119693288Y-95361653D01*
X119693288Y-95361653D02*
X119669479Y-95409272D01*
X119669479Y-95409272D02*
X119645669Y-95433082D01*
X119645669Y-95433082D02*
X119598050Y-95456891D01*
X119598050Y-95456891D02*
X119502812Y-95456891D01*
X119502812Y-95456891D02*
X119455193Y-95433082D01*
X120121860Y-95433082D02*
X120074241Y-95456891D01*
X120074241Y-95456891D02*
X119979003Y-95456891D01*
X119979003Y-95456891D02*
X119931384Y-95433082D01*
X119931384Y-95433082D02*
X119907574Y-95409272D01*
X119907574Y-95409272D02*
X119883765Y-95361653D01*
X119883765Y-95361653D02*
X119883765Y-95218796D01*
X119883765Y-95218796D02*
X119907574Y-95171177D01*
X119907574Y-95171177D02*
X119931384Y-95147367D01*
X119931384Y-95147367D02*
X119979003Y-95123558D01*
X119979003Y-95123558D02*
X120074241Y-95123558D01*
X120074241Y-95123558D02*
X120121860Y-95147367D01*
X120312336Y-95433082D02*
X120359955Y-95456891D01*
X120359955Y-95456891D02*
X120455193Y-95456891D01*
X120455193Y-95456891D02*
X120502812Y-95433082D01*
X120502812Y-95433082D02*
X120526621Y-95385462D01*
X120526621Y-95385462D02*
X120526621Y-95361653D01*
X120526621Y-95361653D02*
X120502812Y-95314034D01*
X120502812Y-95314034D02*
X120455193Y-95290224D01*
X120455193Y-95290224D02*
X120383764Y-95290224D01*
X120383764Y-95290224D02*
X120336145Y-95266415D01*
X120336145Y-95266415D02*
X120312336Y-95218796D01*
X120312336Y-95218796D02*
X120312336Y-95194986D01*
X120312336Y-95194986D02*
X120336145Y-95147367D01*
X120336145Y-95147367D02*
X120383764Y-95123558D01*
X120383764Y-95123558D02*
X120455193Y-95123558D01*
X120455193Y-95123558D02*
X120502812Y-95147367D01*
X120740907Y-95266415D02*
X121121860Y-95266415D01*
X121526622Y-95194986D02*
X121359955Y-95194986D01*
X121359955Y-95456891D02*
X121359955Y-94956891D01*
X121359955Y-94956891D02*
X121598050Y-94956891D01*
X121979002Y-95433082D02*
X121931383Y-95456891D01*
X121931383Y-95456891D02*
X121836145Y-95456891D01*
X121836145Y-95456891D02*
X121788526Y-95433082D01*
X121788526Y-95433082D02*
X121764717Y-95385462D01*
X121764717Y-95385462D02*
X121764717Y-95194986D01*
X121764717Y-95194986D02*
X121788526Y-95147367D01*
X121788526Y-95147367D02*
X121836145Y-95123558D01*
X121836145Y-95123558D02*
X121931383Y-95123558D01*
X121931383Y-95123558D02*
X121979002Y-95147367D01*
X121979002Y-95147367D02*
X122002812Y-95194986D01*
X122002812Y-95194986D02*
X122002812Y-95242605D01*
X122002812Y-95242605D02*
X121764717Y-95290224D01*
X122217097Y-95456891D02*
X122217097Y-95123558D01*
X122217097Y-95171177D02*
X122240907Y-95147367D01*
X122240907Y-95147367D02*
X122288526Y-95123558D01*
X122288526Y-95123558D02*
X122359954Y-95123558D01*
X122359954Y-95123558D02*
X122407573Y-95147367D01*
X122407573Y-95147367D02*
X122431383Y-95194986D01*
X122431383Y-95194986D02*
X122431383Y-95456891D01*
X122431383Y-95194986D02*
X122455192Y-95147367D01*
X122455192Y-95147367D02*
X122502811Y-95123558D01*
X122502811Y-95123558D02*
X122574240Y-95123558D01*
X122574240Y-95123558D02*
X122621859Y-95147367D01*
X122621859Y-95147367D02*
X122645669Y-95194986D01*
X122645669Y-95194986D02*
X122645669Y-95456891D01*
X123098050Y-95456891D02*
X123098050Y-95194986D01*
X123098050Y-95194986D02*
X123074240Y-95147367D01*
X123074240Y-95147367D02*
X123026621Y-95123558D01*
X123026621Y-95123558D02*
X122931383Y-95123558D01*
X122931383Y-95123558D02*
X122883764Y-95147367D01*
X123098050Y-95433082D02*
X123050431Y-95456891D01*
X123050431Y-95456891D02*
X122931383Y-95456891D01*
X122931383Y-95456891D02*
X122883764Y-95433082D01*
X122883764Y-95433082D02*
X122859955Y-95385462D01*
X122859955Y-95385462D02*
X122859955Y-95337843D01*
X122859955Y-95337843D02*
X122883764Y-95290224D01*
X122883764Y-95290224D02*
X122931383Y-95266415D01*
X122931383Y-95266415D02*
X123050431Y-95266415D01*
X123050431Y-95266415D02*
X123098050Y-95242605D01*
X123407574Y-95456891D02*
X123359955Y-95433082D01*
X123359955Y-95433082D02*
X123336145Y-95385462D01*
X123336145Y-95385462D02*
X123336145Y-94956891D01*
X123788526Y-95433082D02*
X123740907Y-95456891D01*
X123740907Y-95456891D02*
X123645669Y-95456891D01*
X123645669Y-95456891D02*
X123598050Y-95433082D01*
X123598050Y-95433082D02*
X123574241Y-95385462D01*
X123574241Y-95385462D02*
X123574241Y-95194986D01*
X123574241Y-95194986D02*
X123598050Y-95147367D01*
X123598050Y-95147367D02*
X123645669Y-95123558D01*
X123645669Y-95123558D02*
X123740907Y-95123558D01*
X123740907Y-95123558D02*
X123788526Y-95147367D01*
X123788526Y-95147367D02*
X123812336Y-95194986D01*
X123812336Y-95194986D02*
X123812336Y-95242605D01*
X123812336Y-95242605D02*
X123574241Y-95290224D01*
X124026621Y-95266415D02*
X124407574Y-95266415D01*
X124621860Y-95433082D02*
X124693288Y-95456891D01*
X124693288Y-95456891D02*
X124812336Y-95456891D01*
X124812336Y-95456891D02*
X124859955Y-95433082D01*
X124859955Y-95433082D02*
X124883764Y-95409272D01*
X124883764Y-95409272D02*
X124907574Y-95361653D01*
X124907574Y-95361653D02*
X124907574Y-95314034D01*
X124907574Y-95314034D02*
X124883764Y-95266415D01*
X124883764Y-95266415D02*
X124859955Y-95242605D01*
X124859955Y-95242605D02*
X124812336Y-95218796D01*
X124812336Y-95218796D02*
X124717098Y-95194986D01*
X124717098Y-95194986D02*
X124669479Y-95171177D01*
X124669479Y-95171177D02*
X124645669Y-95147367D01*
X124645669Y-95147367D02*
X124621860Y-95099748D01*
X124621860Y-95099748D02*
X124621860Y-95052129D01*
X124621860Y-95052129D02*
X124645669Y-95004510D01*
X124645669Y-95004510D02*
X124669479Y-94980701D01*
X124669479Y-94980701D02*
X124717098Y-94956891D01*
X124717098Y-94956891D02*
X124836145Y-94956891D01*
X124836145Y-94956891D02*
X124907574Y-94980701D01*
X125193288Y-95456891D02*
X125145669Y-95433082D01*
X125145669Y-95433082D02*
X125121859Y-95409272D01*
X125121859Y-95409272D02*
X125098050Y-95361653D01*
X125098050Y-95361653D02*
X125098050Y-95218796D01*
X125098050Y-95218796D02*
X125121859Y-95171177D01*
X125121859Y-95171177D02*
X125145669Y-95147367D01*
X125145669Y-95147367D02*
X125193288Y-95123558D01*
X125193288Y-95123558D02*
X125264716Y-95123558D01*
X125264716Y-95123558D02*
X125312335Y-95147367D01*
X125312335Y-95147367D02*
X125336145Y-95171177D01*
X125336145Y-95171177D02*
X125359954Y-95218796D01*
X125359954Y-95218796D02*
X125359954Y-95361653D01*
X125359954Y-95361653D02*
X125336145Y-95409272D01*
X125336145Y-95409272D02*
X125312335Y-95433082D01*
X125312335Y-95433082D02*
X125264716Y-95456891D01*
X125264716Y-95456891D02*
X125193288Y-95456891D01*
X125788526Y-95433082D02*
X125740907Y-95456891D01*
X125740907Y-95456891D02*
X125645669Y-95456891D01*
X125645669Y-95456891D02*
X125598050Y-95433082D01*
X125598050Y-95433082D02*
X125574240Y-95409272D01*
X125574240Y-95409272D02*
X125550431Y-95361653D01*
X125550431Y-95361653D02*
X125550431Y-95218796D01*
X125550431Y-95218796D02*
X125574240Y-95171177D01*
X125574240Y-95171177D02*
X125598050Y-95147367D01*
X125598050Y-95147367D02*
X125645669Y-95123558D01*
X125645669Y-95123558D02*
X125740907Y-95123558D01*
X125740907Y-95123558D02*
X125788526Y-95147367D01*
X126002811Y-95456891D02*
X126002811Y-94956891D01*
X126050430Y-95266415D02*
X126193287Y-95456891D01*
X126193287Y-95123558D02*
X126002811Y-95314034D01*
X126598049Y-95433082D02*
X126550430Y-95456891D01*
X126550430Y-95456891D02*
X126455192Y-95456891D01*
X126455192Y-95456891D02*
X126407573Y-95433082D01*
X126407573Y-95433082D02*
X126383764Y-95385462D01*
X126383764Y-95385462D02*
X126383764Y-95194986D01*
X126383764Y-95194986D02*
X126407573Y-95147367D01*
X126407573Y-95147367D02*
X126455192Y-95123558D01*
X126455192Y-95123558D02*
X126550430Y-95123558D01*
X126550430Y-95123558D02*
X126598049Y-95147367D01*
X126598049Y-95147367D02*
X126621859Y-95194986D01*
X126621859Y-95194986D02*
X126621859Y-95242605D01*
X126621859Y-95242605D02*
X126383764Y-95290224D01*
X126764716Y-95123558D02*
X126955192Y-95123558D01*
X126836144Y-94956891D02*
X126836144Y-95385462D01*
X126836144Y-95385462D02*
X126859954Y-95433082D01*
X126859954Y-95433082D02*
X126907573Y-95456891D01*
X126907573Y-95456891D02*
X126955192Y-95456891D01*
X127121858Y-95266415D02*
X127502811Y-95266415D01*
X128026620Y-95409272D02*
X128002811Y-95433082D01*
X128002811Y-95433082D02*
X127931382Y-95456891D01*
X127931382Y-95456891D02*
X127883763Y-95456891D01*
X127883763Y-95456891D02*
X127812335Y-95433082D01*
X127812335Y-95433082D02*
X127764716Y-95385462D01*
X127764716Y-95385462D02*
X127740906Y-95337843D01*
X127740906Y-95337843D02*
X127717097Y-95242605D01*
X127717097Y-95242605D02*
X127717097Y-95171177D01*
X127717097Y-95171177D02*
X127740906Y-95075939D01*
X127740906Y-95075939D02*
X127764716Y-95028320D01*
X127764716Y-95028320D02*
X127812335Y-94980701D01*
X127812335Y-94980701D02*
X127883763Y-94956891D01*
X127883763Y-94956891D02*
X127931382Y-94956891D01*
X127931382Y-94956891D02*
X128002811Y-94980701D01*
X128002811Y-94980701D02*
X128026620Y-95004510D01*
X128312335Y-95456891D02*
X128264716Y-95433082D01*
X128264716Y-95433082D02*
X128240906Y-95409272D01*
X128240906Y-95409272D02*
X128217097Y-95361653D01*
X128217097Y-95361653D02*
X128217097Y-95218796D01*
X128217097Y-95218796D02*
X128240906Y-95171177D01*
X128240906Y-95171177D02*
X128264716Y-95147367D01*
X128264716Y-95147367D02*
X128312335Y-95123558D01*
X128312335Y-95123558D02*
X128383763Y-95123558D01*
X128383763Y-95123558D02*
X128431382Y-95147367D01*
X128431382Y-95147367D02*
X128455192Y-95171177D01*
X128455192Y-95171177D02*
X128479001Y-95218796D01*
X128479001Y-95218796D02*
X128479001Y-95361653D01*
X128479001Y-95361653D02*
X128455192Y-95409272D01*
X128455192Y-95409272D02*
X128431382Y-95433082D01*
X128431382Y-95433082D02*
X128383763Y-95456891D01*
X128383763Y-95456891D02*
X128312335Y-95456891D01*
X128693287Y-95123558D02*
X128693287Y-95456891D01*
X128693287Y-95171177D02*
X128717097Y-95147367D01*
X128717097Y-95147367D02*
X128764716Y-95123558D01*
X128764716Y-95123558D02*
X128836144Y-95123558D01*
X128836144Y-95123558D02*
X128883763Y-95147367D01*
X128883763Y-95147367D02*
X128907573Y-95194986D01*
X128907573Y-95194986D02*
X128907573Y-95456891D01*
X129145668Y-95123558D02*
X129145668Y-95456891D01*
X129145668Y-95171177D02*
X129169478Y-95147367D01*
X129169478Y-95147367D02*
X129217097Y-95123558D01*
X129217097Y-95123558D02*
X129288525Y-95123558D01*
X129288525Y-95123558D02*
X129336144Y-95147367D01*
X129336144Y-95147367D02*
X129359954Y-95194986D01*
X129359954Y-95194986D02*
X129359954Y-95456891D01*
X129788525Y-95433082D02*
X129740906Y-95456891D01*
X129740906Y-95456891D02*
X129645668Y-95456891D01*
X129645668Y-95456891D02*
X129598049Y-95433082D01*
X129598049Y-95433082D02*
X129574240Y-95385462D01*
X129574240Y-95385462D02*
X129574240Y-95194986D01*
X129574240Y-95194986D02*
X129598049Y-95147367D01*
X129598049Y-95147367D02*
X129645668Y-95123558D01*
X129645668Y-95123558D02*
X129740906Y-95123558D01*
X129740906Y-95123558D02*
X129788525Y-95147367D01*
X129788525Y-95147367D02*
X129812335Y-95194986D01*
X129812335Y-95194986D02*
X129812335Y-95242605D01*
X129812335Y-95242605D02*
X129574240Y-95290224D01*
X130240906Y-95433082D02*
X130193287Y-95456891D01*
X130193287Y-95456891D02*
X130098049Y-95456891D01*
X130098049Y-95456891D02*
X130050430Y-95433082D01*
X130050430Y-95433082D02*
X130026620Y-95409272D01*
X130026620Y-95409272D02*
X130002811Y-95361653D01*
X130002811Y-95361653D02*
X130002811Y-95218796D01*
X130002811Y-95218796D02*
X130026620Y-95171177D01*
X130026620Y-95171177D02*
X130050430Y-95147367D01*
X130050430Y-95147367D02*
X130098049Y-95123558D01*
X130098049Y-95123558D02*
X130193287Y-95123558D01*
X130193287Y-95123558D02*
X130240906Y-95147367D01*
X130383763Y-95123558D02*
X130574239Y-95123558D01*
X130455191Y-94956891D02*
X130455191Y-95385462D01*
X130455191Y-95385462D02*
X130479001Y-95433082D01*
X130479001Y-95433082D02*
X130526620Y-95456891D01*
X130526620Y-95456891D02*
X130574239Y-95456891D01*
X130812334Y-95456891D02*
X130764715Y-95433082D01*
X130764715Y-95433082D02*
X130740905Y-95409272D01*
X130740905Y-95409272D02*
X130717096Y-95361653D01*
X130717096Y-95361653D02*
X130717096Y-95218796D01*
X130717096Y-95218796D02*
X130740905Y-95171177D01*
X130740905Y-95171177D02*
X130764715Y-95147367D01*
X130764715Y-95147367D02*
X130812334Y-95123558D01*
X130812334Y-95123558D02*
X130883762Y-95123558D01*
X130883762Y-95123558D02*
X130931381Y-95147367D01*
X130931381Y-95147367D02*
X130955191Y-95171177D01*
X130955191Y-95171177D02*
X130979000Y-95218796D01*
X130979000Y-95218796D02*
X130979000Y-95361653D01*
X130979000Y-95361653D02*
X130955191Y-95409272D01*
X130955191Y-95409272D02*
X130931381Y-95433082D01*
X130931381Y-95433082D02*
X130883762Y-95456891D01*
X130883762Y-95456891D02*
X130812334Y-95456891D01*
X131193286Y-95456891D02*
X131193286Y-95123558D01*
X131193286Y-95218796D02*
X131217096Y-95171177D01*
X131217096Y-95171177D02*
X131240905Y-95147367D01*
X131240905Y-95147367D02*
X131288524Y-95123558D01*
X131288524Y-95123558D02*
X131336143Y-95123558D01*
X131859953Y-94933082D02*
X131431382Y-95575939D01*
X132240906Y-95456891D02*
X132240906Y-94956891D01*
X132240906Y-95433082D02*
X132193287Y-95456891D01*
X132193287Y-95456891D02*
X132098049Y-95456891D01*
X132098049Y-95456891D02*
X132050430Y-95433082D01*
X132050430Y-95433082D02*
X132026620Y-95409272D01*
X132026620Y-95409272D02*
X132002811Y-95361653D01*
X132002811Y-95361653D02*
X132002811Y-95218796D01*
X132002811Y-95218796D02*
X132026620Y-95171177D01*
X132026620Y-95171177D02*
X132050430Y-95147367D01*
X132050430Y-95147367D02*
X132098049Y-95123558D01*
X132098049Y-95123558D02*
X132193287Y-95123558D01*
X132193287Y-95123558D02*
X132240906Y-95147367D01*
X132479001Y-95123558D02*
X132479001Y-95623558D01*
X132479001Y-95147367D02*
X132526620Y-95123558D01*
X132526620Y-95123558D02*
X132621858Y-95123558D01*
X132621858Y-95123558D02*
X132669477Y-95147367D01*
X132669477Y-95147367D02*
X132693287Y-95171177D01*
X132693287Y-95171177D02*
X132717096Y-95218796D01*
X132717096Y-95218796D02*
X132717096Y-95361653D01*
X132717096Y-95361653D02*
X132693287Y-95409272D01*
X132693287Y-95409272D02*
X132669477Y-95433082D01*
X132669477Y-95433082D02*
X132621858Y-95456891D01*
X132621858Y-95456891D02*
X132526620Y-95456891D01*
X132526620Y-95456891D02*
X132479001Y-95433082D01*
X133288525Y-94933082D02*
X132859954Y-95575939D01*
X133621859Y-95194986D02*
X133693287Y-95218796D01*
X133693287Y-95218796D02*
X133717097Y-95242605D01*
X133717097Y-95242605D02*
X133740906Y-95290224D01*
X133740906Y-95290224D02*
X133740906Y-95361653D01*
X133740906Y-95361653D02*
X133717097Y-95409272D01*
X133717097Y-95409272D02*
X133693287Y-95433082D01*
X133693287Y-95433082D02*
X133645668Y-95456891D01*
X133645668Y-95456891D02*
X133455192Y-95456891D01*
X133455192Y-95456891D02*
X133455192Y-94956891D01*
X133455192Y-94956891D02*
X133621859Y-94956891D01*
X133621859Y-94956891D02*
X133669478Y-94980701D01*
X133669478Y-94980701D02*
X133693287Y-95004510D01*
X133693287Y-95004510D02*
X133717097Y-95052129D01*
X133717097Y-95052129D02*
X133717097Y-95099748D01*
X133717097Y-95099748D02*
X133693287Y-95147367D01*
X133693287Y-95147367D02*
X133669478Y-95171177D01*
X133669478Y-95171177D02*
X133621859Y-95194986D01*
X133621859Y-95194986D02*
X133455192Y-95194986D01*
X134050430Y-94956891D02*
X134098049Y-94956891D01*
X134098049Y-94956891D02*
X134145668Y-94980701D01*
X134145668Y-94980701D02*
X134169478Y-95004510D01*
X134169478Y-95004510D02*
X134193287Y-95052129D01*
X134193287Y-95052129D02*
X134217097Y-95147367D01*
X134217097Y-95147367D02*
X134217097Y-95266415D01*
X134217097Y-95266415D02*
X134193287Y-95361653D01*
X134193287Y-95361653D02*
X134169478Y-95409272D01*
X134169478Y-95409272D02*
X134145668Y-95433082D01*
X134145668Y-95433082D02*
X134098049Y-95456891D01*
X134098049Y-95456891D02*
X134050430Y-95456891D01*
X134050430Y-95456891D02*
X134002811Y-95433082D01*
X134002811Y-95433082D02*
X133979002Y-95409272D01*
X133979002Y-95409272D02*
X133955192Y-95361653D01*
X133955192Y-95361653D02*
X133931383Y-95266415D01*
X133931383Y-95266415D02*
X133931383Y-95147367D01*
X133931383Y-95147367D02*
X133955192Y-95052129D01*
X133955192Y-95052129D02*
X133979002Y-95004510D01*
X133979002Y-95004510D02*
X134002811Y-94980701D01*
X134002811Y-94980701D02*
X134050430Y-94956891D01*
X134383763Y-94956891D02*
X134717096Y-94956891D01*
X134717096Y-94956891D02*
X134502811Y-95456891D01*
X135193286Y-95409272D02*
X135169477Y-95433082D01*
X135169477Y-95433082D02*
X135098048Y-95456891D01*
X135098048Y-95456891D02*
X135050429Y-95456891D01*
X135050429Y-95456891D02*
X134979001Y-95433082D01*
X134979001Y-95433082D02*
X134931382Y-95385462D01*
X134931382Y-95385462D02*
X134907572Y-95337843D01*
X134907572Y-95337843D02*
X134883763Y-95242605D01*
X134883763Y-95242605D02*
X134883763Y-95171177D01*
X134883763Y-95171177D02*
X134907572Y-95075939D01*
X134907572Y-95075939D02*
X134931382Y-95028320D01*
X134931382Y-95028320D02*
X134979001Y-94980701D01*
X134979001Y-94980701D02*
X135050429Y-94956891D01*
X135050429Y-94956891D02*
X135098048Y-94956891D01*
X135098048Y-94956891D02*
X135169477Y-94980701D01*
X135169477Y-94980701D02*
X135193286Y-95004510D01*
X135336144Y-94956891D02*
X135621858Y-94956891D01*
X135479001Y-95456891D02*
X135479001Y-94956891D01*
X136074238Y-95409272D02*
X136050429Y-95433082D01*
X136050429Y-95433082D02*
X135979000Y-95456891D01*
X135979000Y-95456891D02*
X135931381Y-95456891D01*
X135931381Y-95456891D02*
X135859953Y-95433082D01*
X135859953Y-95433082D02*
X135812334Y-95385462D01*
X135812334Y-95385462D02*
X135788524Y-95337843D01*
X135788524Y-95337843D02*
X135764715Y-95242605D01*
X135764715Y-95242605D02*
X135764715Y-95171177D01*
X135764715Y-95171177D02*
X135788524Y-95075939D01*
X135788524Y-95075939D02*
X135812334Y-95028320D01*
X135812334Y-95028320D02*
X135859953Y-94980701D01*
X135859953Y-94980701D02*
X135931381Y-94956891D01*
X135931381Y-94956891D02*
X135979000Y-94956891D01*
X135979000Y-94956891D02*
X136050429Y-94980701D01*
X136050429Y-94980701D02*
X136074238Y-95004510D01*
X136526619Y-95456891D02*
X136288524Y-95456891D01*
X136288524Y-95456891D02*
X136288524Y-94956891D01*
X136693286Y-95456891D02*
X136693286Y-94956891D01*
X136979000Y-95456891D02*
X136764715Y-95171177D01*
X136979000Y-94956891D02*
X136693286Y-95242605D01*
X137193286Y-95456891D02*
X137193286Y-94956891D01*
X137193286Y-94956891D02*
X137383762Y-94956891D01*
X137383762Y-94956891D02*
X137431381Y-94980701D01*
X137431381Y-94980701D02*
X137455191Y-95004510D01*
X137455191Y-95004510D02*
X137479000Y-95052129D01*
X137479000Y-95052129D02*
X137479000Y-95123558D01*
X137479000Y-95123558D02*
X137455191Y-95171177D01*
X137455191Y-95171177D02*
X137431381Y-95194986D01*
X137431381Y-95194986D02*
X137383762Y-95218796D01*
X137383762Y-95218796D02*
X137193286Y-95218796D01*
X137693286Y-95456891D02*
X137693286Y-94956891D01*
X137693286Y-94956891D02*
X137883762Y-94956891D01*
X137883762Y-94956891D02*
X137931381Y-94980701D01*
X137931381Y-94980701D02*
X137955191Y-95004510D01*
X137955191Y-95004510D02*
X137979000Y-95052129D01*
X137979000Y-95052129D02*
X137979000Y-95123558D01*
X137979000Y-95123558D02*
X137955191Y-95171177D01*
X137955191Y-95171177D02*
X137931381Y-95194986D01*
X137931381Y-95194986D02*
X137883762Y-95218796D01*
X137883762Y-95218796D02*
X137693286Y-95218796D01*
D12*
X173000000Y-27000000D02*
X147000000Y-27000000D01*
X126000000Y-100000000D02*
X100000000Y-100000000D01*
X147000000Y-25400002D02*
X126000000Y-25400002D01*
X173000000Y-53000000D02*
X173000000Y-27000000D01*
X173000000Y-74000000D02*
X174599998Y-74000000D01*
X174599998Y-74000000D02*
X174599998Y-53000000D01*
X98400001Y-74000000D02*
X100000000Y-74000000D01*
X100000000Y-53000000D02*
X98400001Y-53000000D01*
X100000000Y-74000000D02*
X100000000Y-100000000D01*
X98400001Y-53000000D02*
X98400001Y-74000000D01*
X174599998Y-53000000D02*
X173000000Y-53000000D01*
X100000000Y-27000000D02*
X100000000Y-53000000D01*
X126000000Y-25400002D02*
X126000000Y-27000000D01*
X147000000Y-101599999D02*
X147000000Y-100000000D01*
X147000000Y-25400002D02*
X147000000Y-27000000D01*
X126000000Y-100000000D02*
X126000000Y-101599999D01*
X126000000Y-101599999D02*
X147000000Y-101599999D01*
X126000000Y-27000000D02*
X100000000Y-27000000D01*
X173000000Y-100000000D02*
X173000000Y-74000000D01*
X147000000Y-100000000D02*
X173000000Y-100000000D01*
M02*
