%TF.GenerationSoftware,KiCad,Pcbnew,7.0.5-0*%
%TF.CreationDate,2024-04-01T20:36:23-04:00*%
%TF.ProjectId,swr_meter_front2,7377725f-6d65-4746-9572-5f66726f6e74,rev?*%
%TF.SameCoordinates,Original*%
%TF.FileFunction,Drillmap*%
%TF.FilePolarity,Positive*%
%FSLAX45Y45*%
G04 Gerber Fmt 4.5, Leading zero omitted, Abs format (unit mm)*
G04 Created by KiCad (PCBNEW 7.0.5-0) date 2024-04-01 20:36:23*
%MOMM*%
%LPD*%
G01*
G04 APERTURE LIST*
%ADD10C,0.349999*%
%ADD11C,0.350000*%
%ADD12C,0.200000*%
G04 APERTURE END LIST*
D10*
X17200000Y-7400000D02*
X17359946Y-7400000D01*
X13046600Y-2950000D02*
X10100000Y-2950000D01*
X9900000Y-7400000D02*
X9740000Y-7400000D01*
X16999600Y-5900000D02*
X17000000Y-2950000D01*
X9900000Y-5300000D02*
X9900000Y-2700000D01*
X17359946Y-5300600D02*
X17359946Y-7400000D01*
X12499946Y-2540000D02*
X12499946Y-2700000D01*
X17200000Y-10000000D02*
X14600000Y-10000000D01*
X17199946Y-5300000D02*
X17359946Y-5300000D01*
X14396600Y-9750000D02*
X10100000Y-9750000D01*
X14396600Y-9750000D02*
X16999600Y-9750000D01*
X17200000Y-7400000D02*
X17200000Y-10000000D01*
X17200000Y-2700000D02*
X17199946Y-5300000D01*
X12499946Y-2700000D02*
X9900000Y-2700000D01*
X9740000Y-5300000D02*
X9900000Y-5300000D01*
X12500000Y-10000000D02*
X9900000Y-10000000D01*
X12500000Y-10000000D02*
X12500000Y-10160000D01*
X10100000Y-6796600D02*
X10100000Y-2950000D01*
X14600000Y-2700000D02*
X17200000Y-2700000D01*
X14600000Y-10160000D02*
X12500000Y-10160000D01*
X9900000Y-10000000D02*
X9900000Y-7400000D01*
X14599946Y-2540000D02*
X14599946Y-2700000D01*
D11*
X12499946Y-2540000D02*
X14599946Y-2540000D01*
D10*
X13046600Y-2950000D02*
X17000000Y-2950000D01*
D11*
X16999600Y-5900000D02*
X16999600Y-9750000D01*
D10*
X14600000Y-10000000D02*
X14600000Y-10160000D01*
X10100000Y-6796600D02*
X10100000Y-9750000D01*
X9740000Y-7400000D02*
X9740000Y-5300000D01*
D12*
X9983277Y-10488984D02*
X9983277Y-10288984D01*
X9983277Y-10288984D02*
X10030896Y-10288984D01*
X10030896Y-10288984D02*
X10059467Y-10298508D01*
X10059467Y-10298508D02*
X10078515Y-10317555D01*
X10078515Y-10317555D02*
X10088039Y-10336603D01*
X10088039Y-10336603D02*
X10097563Y-10374698D01*
X10097563Y-10374698D02*
X10097563Y-10403269D01*
X10097563Y-10403269D02*
X10088039Y-10441365D01*
X10088039Y-10441365D02*
X10078515Y-10460412D01*
X10078515Y-10460412D02*
X10059467Y-10479460D01*
X10059467Y-10479460D02*
X10030896Y-10488984D01*
X10030896Y-10488984D02*
X9983277Y-10488984D01*
X10183277Y-10488984D02*
X10183277Y-10355650D01*
X10183277Y-10393746D02*
X10192801Y-10374698D01*
X10192801Y-10374698D02*
X10202325Y-10365174D01*
X10202325Y-10365174D02*
X10221372Y-10355650D01*
X10221372Y-10355650D02*
X10240420Y-10355650D01*
X10307086Y-10488984D02*
X10307086Y-10355650D01*
X10307086Y-10288984D02*
X10297563Y-10298508D01*
X10297563Y-10298508D02*
X10307086Y-10308031D01*
X10307086Y-10308031D02*
X10316610Y-10298508D01*
X10316610Y-10298508D02*
X10307086Y-10288984D01*
X10307086Y-10288984D02*
X10307086Y-10308031D01*
X10430896Y-10488984D02*
X10411848Y-10479460D01*
X10411848Y-10479460D02*
X10402325Y-10460412D01*
X10402325Y-10460412D02*
X10402325Y-10288984D01*
X10535658Y-10488984D02*
X10516610Y-10479460D01*
X10516610Y-10479460D02*
X10507086Y-10460412D01*
X10507086Y-10460412D02*
X10507086Y-10288984D01*
X10764229Y-10488984D02*
X10764229Y-10288984D01*
X10764229Y-10288984D02*
X10830896Y-10431841D01*
X10830896Y-10431841D02*
X10897563Y-10288984D01*
X10897563Y-10288984D02*
X10897563Y-10488984D01*
X11078515Y-10488984D02*
X11078515Y-10384222D01*
X11078515Y-10384222D02*
X11068991Y-10365174D01*
X11068991Y-10365174D02*
X11049944Y-10355650D01*
X11049944Y-10355650D02*
X11011848Y-10355650D01*
X11011848Y-10355650D02*
X10992801Y-10365174D01*
X11078515Y-10479460D02*
X11059467Y-10488984D01*
X11059467Y-10488984D02*
X11011848Y-10488984D01*
X11011848Y-10488984D02*
X10992801Y-10479460D01*
X10992801Y-10479460D02*
X10983277Y-10460412D01*
X10983277Y-10460412D02*
X10983277Y-10441365D01*
X10983277Y-10441365D02*
X10992801Y-10422317D01*
X10992801Y-10422317D02*
X11011848Y-10412793D01*
X11011848Y-10412793D02*
X11059467Y-10412793D01*
X11059467Y-10412793D02*
X11078515Y-10403269D01*
X11173753Y-10355650D02*
X11173753Y-10555650D01*
X11173753Y-10365174D02*
X11192801Y-10355650D01*
X11192801Y-10355650D02*
X11230896Y-10355650D01*
X11230896Y-10355650D02*
X11249944Y-10365174D01*
X11249944Y-10365174D02*
X11259467Y-10374698D01*
X11259467Y-10374698D02*
X11268991Y-10393746D01*
X11268991Y-10393746D02*
X11268991Y-10450888D01*
X11268991Y-10450888D02*
X11259467Y-10469936D01*
X11259467Y-10469936D02*
X11249944Y-10479460D01*
X11249944Y-10479460D02*
X11230896Y-10488984D01*
X11230896Y-10488984D02*
X11192801Y-10488984D01*
X11192801Y-10488984D02*
X11173753Y-10479460D01*
X11354705Y-10469936D02*
X11364229Y-10479460D01*
X11364229Y-10479460D02*
X11354705Y-10488984D01*
X11354705Y-10488984D02*
X11345182Y-10479460D01*
X11345182Y-10479460D02*
X11354705Y-10469936D01*
X11354705Y-10469936D02*
X11354705Y-10488984D01*
X11354705Y-10365174D02*
X11364229Y-10374698D01*
X11364229Y-10374698D02*
X11354705Y-10384222D01*
X11354705Y-10384222D02*
X11345182Y-10374698D01*
X11345182Y-10374698D02*
X11354705Y-10365174D01*
X11354705Y-10365174D02*
X11354705Y-10384222D01*
M02*
