<?xml version="1.0" encoding="UTF-8" standalone="no"?>
<!-- Created with Inkscape (http://www.inkscape.org/) -->

<svg
   width="11in"
   height="8.5in"
   viewBox="0 0 279.4 215.9"
   version="1.1"
   id="svg1"
   xmlns="http://www.w3.org/2000/svg"
   xmlns:svg="http://www.w3.org/2000/svg">
  <defs
     id="defs1" />
  <g
     id="layer1"
     transform="translate(-5,-5)" />
  <text
     style="font-size:3px;stroke:orange;stroke-width:0.1"
     x="8.000000"
     y="8.000000"
     id="text232">Box with shelves (generated on 22.01.24 20:42)  --- Width: 76.20mm, Depth: 76.20mm, Height: 76.20mm (Thickness: 1.60mm, frame length: 12.00mm)[shelfheight: 35.70mm]</text>
  <circle
     style="fill:none;stroke:yellow;stroke-width:2.0"
     cx="86.200000"
     cy="235.400000"
     r="4"
     id="circle232" />
  <text
     style="font-size:3px;stroke:black;stroke-width:0.1"
     x="91.200000"
     y="240.400000"
     r="4"
     id="text233">1: (86.20,235.40)</text>
  <circle
     style="fill:none;stroke:green;stroke-width:2.0"
     cx="10.000000"
     cy="10.000000"
     r="4"
     id="circle233" />
  <text
     style="font-size:3px;stroke:black;stroke-width:0.1"
     x="15.000000"
     y="15.000000"
     r="4"
     id="text234">2: (10.00,10.00)</text>
  <circle
     style="fill:none;stroke:red;stroke-width:2.0"
     cx="10.000000"
     cy="10.000000"
     r="4"
     id="circle234" />
  <text
     style="font-size:3px;stroke:black;stroke-width:0.1"
     x="15.000000"
     y="15.000000"
     r="4"
     id="text235">3: (10.00,10.00)</text>
  <path
     style="fill:none;stroke:black;stroke-width:0.1"
     d="m 10.000000 10.000000 l 0.000000 20.100000 l 1.600000 0.000000 l 0.000000 12.000000 l -1.600000 0.000000 l 0.000000 12.000000 l 1.600000 0.000000 l 0.000000 12.000000 l -1.600000 0.000000 l 0.000000 38.600000 l 1.600000 0.000000 l 0.000000 12.000000 l -1.600000 0.000000 l 0.000000 12.000000 l 1.600000 0.000000 l 0.000000 12.000000 l -1.600000 0.000000 l 0.000000 38.600000 l 1.600000 0.000000 l 0.000000 12.000000 l -1.600000 0.000000 l 0.000000 12.000000 l 1.600000 0.000000 l 0.000000 12.000000 l -1.600000 0.000000 l 0.000000 20.100000 l 76.200000 0.000000 l 0.000000 -20.100000 l -1.600000 0.000000 l 0.000000 -12.000000 l 1.600000 0.000000 l 0.000000 -12.000000 l -1.600000 0.000000 l 0.000000 -12.000000 l 1.600000 0.000000 l 0.000000 -38.600000 l -1.600000 0.000000 l 0.000000 -12.000000 l 1.600000 0.000000 l 0.000000 -12.000000 l -1.600000 0.000000 l 0.000000 -12.000000 l 1.600000 0.000000 l 0.000000 -38.600000 l -1.600000 0.000000 l 0.000000 -12.000000 l 1.600000 0.000000 l 0.000000 -12.000000 l -1.600000 0.000000 l 0.000000 -12.000000 l 1.600000 0.000000 l 0.000000 -20.100000 l -76.200000 0.000000 "
     id="path235" />
  <path
     style="fill:none;stroke:green;stroke-width:0.1"
     d="M 86.200000 84.600000 l -14.100000 0.000000 l -6.000000 0.000000 l 0.000000 1.600000 l -6.000000 0.000000 l -6.000000 0.000000 l 0.000000 -1.600000 l -6.000000 0.000000 l -6.000000 0.000000 l 0.000000 1.600000 l -6.000000 0.000000 l -6.000000 0.000000 l 0.000000 -1.600000 l -6.000000 0.000000 l -14.100000 0.000000 "
     id="path236" />
  <path
     style="fill:none;stroke:green;stroke-width:0.1"
     d="M 10.000000 160.800000 l 14.100000 0.000000 l 6.000000 0.000000 l 0.000000 -1.600000 l 6.000000 0.000000 l 6.000000 0.000000 l 0.000000 1.600000 l 6.000000 0.000000 l 6.000000 0.000000 l 0.000000 -1.600000 l 6.000000 0.000000 l 6.000000 0.000000 l 0.000000 1.600000 l 6.000000 0.000000 l 14.100000 0.000000 "
     id="path237" />
  <path
     style="fill:none;stroke:blue;stroke-width:0.1"
     d="M 47.300000 30.100000 l 1.600000 0.000000 l 0.000000 12.000000 l -1.600000 0.000000 l 0.000000 -12.000000 "
     id="path238" />
  <path
     style="fill:none;stroke:blue;stroke-width:0.1"
     d="M 47.300000 54.100000 l 1.600000 0.000000 l 0.000000 12.000000 l -1.600000 0.000000 l 0.000000 -12.000000 "
     id="path239" />
  <path
     style="fill:none;stroke:blue;stroke-width:0.1"
     d="M 47.300000 179.300000 l 1.600000 0.000000 l 0.000000 12.000000 l -1.600000 0.000000 l 0.000000 -12.000000 "
     id="path240" />
  <path
     style="fill:none;stroke:blue;stroke-width:0.1"
     d="M 47.300000 203.300000 l 1.600000 0.000000 l 0.000000 12.000000 l -1.600000 0.000000 l 0.000000 -12.000000 "
     id="path241" />
  <path
     style="fill:none;stroke:blue;stroke-width:0.1"
     d="M 47.300000 104.700000 l 1.600000 0.000000 l 0.000000 12.000000 l -1.600000 0.000000 l 0.000000 -12.000000 "
     id="path242" />
  <path
     style="fill:none;stroke:blue;stroke-width:0.1"
     d="M 47.300000 128.700000 l 1.600000 0.000000 l 0.000000 12.000000 l -1.600000 0.000000 l 0.000000 -12.000000 "
     id="path243" />
  <path
     style="fill:none;stroke:black;stroke-width:0.1"
     d="M 88.200000 11.600000 l 20.100000 0.000000 l 0.000000 -1.600000 l 12.000000 0.000000 l 0.000000 1.600000 l 12.000000 0.000000 l 0.000000 -1.600000 l 12.000000 0.000000 l 0.000000 1.600000 l 20.100000 0.000000 l 0.000000 73.000000 l -20.100000 0.000000 l 0.000000 1.600000 l -12.000000 0.000000 l 0.000000 -1.600000 l -12.000000 0.000000 l 0.000000 1.600000 l -12.000000 0.000000 l 0.000000 -1.600000 l -18.500000 0.000000 l 0.000000 -18.500000 l -1.600000 0.000000 l 0.000000 -12.000000 l 1.600000 0.000000 l 0.000000 -12.000000 l -1.600000 0.000000 l 0.000000 -12.000000 l 1.600000 0.000000 l 0.000000 -20.100000 "
     id="path244" />
  <path
     style="fill:none;stroke:black;stroke-width:0.1"
     d="M 88.200000 92.600000 l 20.100000 0.000000 l 0.000000 -1.600000 l 12.000000 0.000000 l 0.000000 1.600000 l 12.000000 0.000000 l 0.000000 -1.600000 l 12.000000 0.000000 l 0.000000 1.600000 l 20.100000 0.000000 l 0.000000 73.000000 l -20.100000 0.000000 l 0.000000 1.600000 l -12.000000 0.000000 l 0.000000 -1.600000 l -12.000000 0.000000 l 0.000000 1.600000 l -12.000000 0.000000 l 0.000000 -1.600000 l -18.500000 0.000000 l 0.000000 -18.500000 l -1.600000 0.000000 l 0.000000 -12.000000 l 1.600000 0.000000 l 0.000000 -12.000000 l -1.600000 0.000000 l 0.000000 -12.000000 l 1.600000 0.000000 l 0.000000 -20.100000 "
     id="path245" />
  <path
     style="fill:none;stroke:black;stroke-width:0.1"
     d="M 164.000000 11.600000 l 20.100000 0.000000 l 0.000000 -1.600000 l 12.000000 0.000000 l 0.000000 1.600000 l 12.000000 0.000000 l 0.000000 -1.600000 l 12.000000 0.000000 l 0.000000 1.600000 l 20.100000 0.000000 l 0.000000 73.000000 l -20.100000 0.000000 l 0.000000 1.600000 l -12.000000 0.000000 l 0.000000 -1.600000 l -12.000000 0.000000 l 0.000000 1.600000 l -12.000000 0.000000 l 0.000000 -1.600000 l -18.500000 0.000000 l 0.000000 -18.500000 l -1.600000 0.000000 l 0.000000 -12.000000 l 1.600000 0.000000 l 0.000000 -12.000000 l -1.600000 0.000000 l 0.000000 -12.000000 l 1.600000 0.000000 l 0.000000 -20.100000 "
     id="path246" />
</svg>
