%TF.GenerationSoftware,KiCad,Pcbnew,7.0.5-0*%
%TF.CreationDate,2024-04-21T21:04:40-04:00*%
%TF.ProjectId,swr_meter_top,7377725f-6d65-4746-9572-5f746f702e6b,rev?*%
%TF.SameCoordinates,Original*%
%TF.FileFunction,Profile,NP*%
%FSLAX46Y46*%
G04 Gerber Fmt 4.6, Leading zero omitted, Abs format (unit mm)*
G04 Created by KiCad (PCBNEW 7.0.5-0) date 2024-04-21 21:04:40*
%MOMM*%
%LPD*%
G01*
G04 APERTURE LIST*
%TA.AperFunction,Profile*%
%ADD10C,0.349999*%
%TD*%
G04 APERTURE END LIST*
D10*
X149200000Y-99999992D02*
X149200000Y-98399992D01*
X149200001Y-25399992D02*
X149200001Y-23799992D01*
X149200001Y-23799992D02*
X176199998Y-23799992D01*
X149700000Y-60099992D02*
X127500000Y-60099992D01*
X127000000Y-98399992D02*
X127000000Y-99999992D01*
X100000000Y-99999992D02*
X100000000Y-72999992D01*
X127000000Y-100000000D02*
X100000000Y-100000000D01*
X149700000Y-58299992D02*
X149700000Y-60099992D01*
X174600000Y-72999992D02*
X176199998Y-72999992D01*
X149200000Y-98399992D02*
X127000000Y-98399992D01*
X127500000Y-60099992D02*
X127500000Y-58299992D01*
X174600000Y-50799994D02*
X174600000Y-72999992D01*
X100000001Y-72999992D02*
X101600001Y-72999992D01*
X127000001Y-23799992D02*
X127000001Y-25399992D01*
X176199998Y-72999992D02*
X176199998Y-99999992D01*
X101600000Y-50799994D02*
X100000000Y-50799994D01*
X176199998Y-99999992D02*
X149200000Y-99999992D01*
X127500000Y-58299992D02*
X149700000Y-58299992D01*
X100000000Y-50799994D02*
X100000000Y-23799995D01*
X176199998Y-50799994D02*
X174600000Y-50799994D01*
X127000001Y-25399992D02*
X149200001Y-25399992D01*
X176199998Y-23799995D02*
X176199998Y-50799994D01*
X101600001Y-72999992D02*
X101600001Y-50799992D01*
X100000000Y-23799995D02*
X127000001Y-23799995D01*
M02*
