%TF.GenerationSoftware,KiCad,Pcbnew,7.0.5-0*%
%TF.CreationDate,2024-04-21T21:04:40-04:00*%
%TF.ProjectId,swr_meter_top,7377725f-6d65-4746-9572-5f746f702e6b,rev?*%
%TF.SameCoordinates,Original*%
%TF.FileFunction,Legend,Bot*%
%TF.FilePolarity,Positive*%
%FSLAX46Y46*%
G04 Gerber Fmt 4.6, Leading zero omitted, Abs format (unit mm)*
G04 Created by KiCad (PCBNEW 7.0.5-0) date 2024-04-21 21:04:40*
%MOMM*%
%LPD*%
G01*
G04 APERTURE LIST*
%ADD10C,0.200000*%
%ADD11C,0.500000*%
%ADD12C,0.100000*%
%ADD13C,0.120000*%
G04 APERTURE END LIST*
D10*
X143993827Y-27744830D02*
X142850970Y-27744830D01*
X143422399Y-29744830D02*
X143422399Y-27744830D01*
X141898589Y-29744830D02*
X142089065Y-29649592D01*
X142089065Y-29649592D02*
X142184303Y-29554353D01*
X142184303Y-29554353D02*
X142279541Y-29363877D01*
X142279541Y-29363877D02*
X142279541Y-28792449D01*
X142279541Y-28792449D02*
X142184303Y-28601972D01*
X142184303Y-28601972D02*
X142089065Y-28506734D01*
X142089065Y-28506734D02*
X141898589Y-28411496D01*
X141898589Y-28411496D02*
X141612874Y-28411496D01*
X141612874Y-28411496D02*
X141422398Y-28506734D01*
X141422398Y-28506734D02*
X141327160Y-28601972D01*
X141327160Y-28601972D02*
X141231922Y-28792449D01*
X141231922Y-28792449D02*
X141231922Y-29363877D01*
X141231922Y-29363877D02*
X141327160Y-29554353D01*
X141327160Y-29554353D02*
X141422398Y-29649592D01*
X141422398Y-29649592D02*
X141612874Y-29744830D01*
X141612874Y-29744830D02*
X141898589Y-29744830D01*
X140374779Y-28411496D02*
X140374779Y-30411496D01*
X140374779Y-28506734D02*
X140184303Y-28411496D01*
X140184303Y-28411496D02*
X139803350Y-28411496D01*
X139803350Y-28411496D02*
X139612874Y-28506734D01*
X139612874Y-28506734D02*
X139517636Y-28601972D01*
X139517636Y-28601972D02*
X139422398Y-28792449D01*
X139422398Y-28792449D02*
X139422398Y-29363877D01*
X139422398Y-29363877D02*
X139517636Y-29554353D01*
X139517636Y-29554353D02*
X139612874Y-29649592D01*
X139612874Y-29649592D02*
X139803350Y-29744830D01*
X139803350Y-29744830D02*
X140184303Y-29744830D01*
X140184303Y-29744830D02*
X140374779Y-29649592D01*
X137422398Y-29744830D02*
X138089065Y-28792449D01*
X138565255Y-29744830D02*
X138565255Y-27744830D01*
X138565255Y-27744830D02*
X137803350Y-27744830D01*
X137803350Y-27744830D02*
X137612874Y-27840068D01*
X137612874Y-27840068D02*
X137517636Y-27935306D01*
X137517636Y-27935306D02*
X137422398Y-28125782D01*
X137422398Y-28125782D02*
X137422398Y-28411496D01*
X137422398Y-28411496D02*
X137517636Y-28601972D01*
X137517636Y-28601972D02*
X137612874Y-28697211D01*
X137612874Y-28697211D02*
X137803350Y-28792449D01*
X137803350Y-28792449D02*
X138565255Y-28792449D01*
X135803350Y-29649592D02*
X135993826Y-29744830D01*
X135993826Y-29744830D02*
X136374779Y-29744830D01*
X136374779Y-29744830D02*
X136565255Y-29649592D01*
X136565255Y-29649592D02*
X136660493Y-29459115D01*
X136660493Y-29459115D02*
X136660493Y-28697211D01*
X136660493Y-28697211D02*
X136565255Y-28506734D01*
X136565255Y-28506734D02*
X136374779Y-28411496D01*
X136374779Y-28411496D02*
X135993826Y-28411496D01*
X135993826Y-28411496D02*
X135803350Y-28506734D01*
X135803350Y-28506734D02*
X135708112Y-28697211D01*
X135708112Y-28697211D02*
X135708112Y-28887687D01*
X135708112Y-28887687D02*
X136660493Y-29078163D01*
X133993826Y-29744830D02*
X133993826Y-28697211D01*
X133993826Y-28697211D02*
X134089064Y-28506734D01*
X134089064Y-28506734D02*
X134279540Y-28411496D01*
X134279540Y-28411496D02*
X134660493Y-28411496D01*
X134660493Y-28411496D02*
X134850969Y-28506734D01*
X133993826Y-29649592D02*
X134184302Y-29744830D01*
X134184302Y-29744830D02*
X134660493Y-29744830D01*
X134660493Y-29744830D02*
X134850969Y-29649592D01*
X134850969Y-29649592D02*
X134946207Y-29459115D01*
X134946207Y-29459115D02*
X134946207Y-29268639D01*
X134946207Y-29268639D02*
X134850969Y-29078163D01*
X134850969Y-29078163D02*
X134660493Y-28982925D01*
X134660493Y-28982925D02*
X134184302Y-28982925D01*
X134184302Y-28982925D02*
X133993826Y-28887687D01*
X133041445Y-29744830D02*
X133041445Y-28411496D01*
X133041445Y-28792449D02*
X132946207Y-28601972D01*
X132946207Y-28601972D02*
X132850969Y-28506734D01*
X132850969Y-28506734D02*
X132660493Y-28411496D01*
X132660493Y-28411496D02*
X132470016Y-28411496D01*
X106321043Y-69190468D02*
X106321043Y-68047611D01*
X104321043Y-68619040D02*
X106321043Y-68619040D01*
X104321043Y-67095230D02*
X104416282Y-67285706D01*
X104416282Y-67285706D02*
X104511520Y-67380944D01*
X104511520Y-67380944D02*
X104701996Y-67476182D01*
X104701996Y-67476182D02*
X105273424Y-67476182D01*
X105273424Y-67476182D02*
X105463901Y-67380944D01*
X105463901Y-67380944D02*
X105559139Y-67285706D01*
X105559139Y-67285706D02*
X105654377Y-67095230D01*
X105654377Y-67095230D02*
X105654377Y-66809515D01*
X105654377Y-66809515D02*
X105559139Y-66619039D01*
X105559139Y-66619039D02*
X105463901Y-66523801D01*
X105463901Y-66523801D02*
X105273424Y-66428563D01*
X105273424Y-66428563D02*
X104701996Y-66428563D01*
X104701996Y-66428563D02*
X104511520Y-66523801D01*
X104511520Y-66523801D02*
X104416282Y-66619039D01*
X104416282Y-66619039D02*
X104321043Y-66809515D01*
X104321043Y-66809515D02*
X104321043Y-67095230D01*
X105654377Y-65571420D02*
X103654377Y-65571420D01*
X105559139Y-65571420D02*
X105654377Y-65380944D01*
X105654377Y-65380944D02*
X105654377Y-64999991D01*
X105654377Y-64999991D02*
X105559139Y-64809515D01*
X105559139Y-64809515D02*
X105463901Y-64714277D01*
X105463901Y-64714277D02*
X105273424Y-64619039D01*
X105273424Y-64619039D02*
X104701996Y-64619039D01*
X104701996Y-64619039D02*
X104511520Y-64714277D01*
X104511520Y-64714277D02*
X104416282Y-64809515D01*
X104416282Y-64809515D02*
X104321043Y-64999991D01*
X104321043Y-64999991D02*
X104321043Y-65380944D01*
X104321043Y-65380944D02*
X104416282Y-65571420D01*
X104321043Y-62809515D02*
X104321043Y-63761896D01*
X104321043Y-63761896D02*
X106321043Y-63761896D01*
X104416282Y-61380943D02*
X104321043Y-61571419D01*
X104321043Y-61571419D02*
X104321043Y-61952372D01*
X104321043Y-61952372D02*
X104416282Y-62142848D01*
X104416282Y-62142848D02*
X104606758Y-62238086D01*
X104606758Y-62238086D02*
X105368662Y-62238086D01*
X105368662Y-62238086D02*
X105559139Y-62142848D01*
X105559139Y-62142848D02*
X105654377Y-61952372D01*
X105654377Y-61952372D02*
X105654377Y-61571419D01*
X105654377Y-61571419D02*
X105559139Y-61380943D01*
X105559139Y-61380943D02*
X105368662Y-61285705D01*
X105368662Y-61285705D02*
X105178186Y-61285705D01*
X105178186Y-61285705D02*
X104987710Y-62238086D01*
X105654377Y-60714276D02*
X105654377Y-59952372D01*
X104321043Y-60428562D02*
X106035329Y-60428562D01*
X106035329Y-60428562D02*
X106225805Y-60333324D01*
X106225805Y-60333324D02*
X106321043Y-60142848D01*
X106321043Y-60142848D02*
X106321043Y-59952372D01*
X105654377Y-59571419D02*
X105654377Y-58809515D01*
X106321043Y-59285705D02*
X104606758Y-59285705D01*
X104606758Y-59285705D02*
X104416282Y-59190467D01*
X104416282Y-59190467D02*
X104321043Y-58999991D01*
X104321043Y-58999991D02*
X104321043Y-58809515D01*
X172321043Y-69238087D02*
X172321043Y-68095230D01*
X170321043Y-68666659D02*
X172321043Y-68666659D01*
X170321043Y-67142849D02*
X170416282Y-67333325D01*
X170416282Y-67333325D02*
X170511520Y-67428563D01*
X170511520Y-67428563D02*
X170701996Y-67523801D01*
X170701996Y-67523801D02*
X171273424Y-67523801D01*
X171273424Y-67523801D02*
X171463901Y-67428563D01*
X171463901Y-67428563D02*
X171559139Y-67333325D01*
X171559139Y-67333325D02*
X171654377Y-67142849D01*
X171654377Y-67142849D02*
X171654377Y-66857134D01*
X171654377Y-66857134D02*
X171559139Y-66666658D01*
X171559139Y-66666658D02*
X171463901Y-66571420D01*
X171463901Y-66571420D02*
X171273424Y-66476182D01*
X171273424Y-66476182D02*
X170701996Y-66476182D01*
X170701996Y-66476182D02*
X170511520Y-66571420D01*
X170511520Y-66571420D02*
X170416282Y-66666658D01*
X170416282Y-66666658D02*
X170321043Y-66857134D01*
X170321043Y-66857134D02*
X170321043Y-67142849D01*
X171654377Y-65619039D02*
X169654377Y-65619039D01*
X171559139Y-65619039D02*
X171654377Y-65428563D01*
X171654377Y-65428563D02*
X171654377Y-65047610D01*
X171654377Y-65047610D02*
X171559139Y-64857134D01*
X171559139Y-64857134D02*
X171463901Y-64761896D01*
X171463901Y-64761896D02*
X171273424Y-64666658D01*
X171273424Y-64666658D02*
X170701996Y-64666658D01*
X170701996Y-64666658D02*
X170511520Y-64761896D01*
X170511520Y-64761896D02*
X170416282Y-64857134D01*
X170416282Y-64857134D02*
X170321043Y-65047610D01*
X170321043Y-65047610D02*
X170321043Y-65428563D01*
X170321043Y-65428563D02*
X170416282Y-65619039D01*
X170321043Y-62666658D02*
X171273424Y-63333325D01*
X170321043Y-63809515D02*
X172321043Y-63809515D01*
X172321043Y-63809515D02*
X172321043Y-63047610D01*
X172321043Y-63047610D02*
X172225805Y-62857134D01*
X172225805Y-62857134D02*
X172130567Y-62761896D01*
X172130567Y-62761896D02*
X171940091Y-62666658D01*
X171940091Y-62666658D02*
X171654377Y-62666658D01*
X171654377Y-62666658D02*
X171463901Y-62761896D01*
X171463901Y-62761896D02*
X171368662Y-62857134D01*
X171368662Y-62857134D02*
X171273424Y-63047610D01*
X171273424Y-63047610D02*
X171273424Y-63809515D01*
X170321043Y-61809515D02*
X171654377Y-61809515D01*
X172321043Y-61809515D02*
X172225805Y-61904753D01*
X172225805Y-61904753D02*
X172130567Y-61809515D01*
X172130567Y-61809515D02*
X172225805Y-61714277D01*
X172225805Y-61714277D02*
X172321043Y-61809515D01*
X172321043Y-61809515D02*
X172130567Y-61809515D01*
X171654377Y-59999991D02*
X170035329Y-59999991D01*
X170035329Y-59999991D02*
X169844853Y-60095229D01*
X169844853Y-60095229D02*
X169749615Y-60190467D01*
X169749615Y-60190467D02*
X169654377Y-60380944D01*
X169654377Y-60380944D02*
X169654377Y-60666658D01*
X169654377Y-60666658D02*
X169749615Y-60857134D01*
X170416282Y-59999991D02*
X170321043Y-60190467D01*
X170321043Y-60190467D02*
X170321043Y-60571420D01*
X170321043Y-60571420D02*
X170416282Y-60761896D01*
X170416282Y-60761896D02*
X170511520Y-60857134D01*
X170511520Y-60857134D02*
X170701996Y-60952372D01*
X170701996Y-60952372D02*
X171273424Y-60952372D01*
X171273424Y-60952372D02*
X171463901Y-60857134D01*
X171463901Y-60857134D02*
X171559139Y-60761896D01*
X171559139Y-60761896D02*
X171654377Y-60571420D01*
X171654377Y-60571420D02*
X171654377Y-60190467D01*
X171654377Y-60190467D02*
X171559139Y-59999991D01*
X170321043Y-59047610D02*
X172321043Y-59047610D01*
X170321043Y-58190467D02*
X171368662Y-58190467D01*
X171368662Y-58190467D02*
X171559139Y-58285705D01*
X171559139Y-58285705D02*
X171654377Y-58476181D01*
X171654377Y-58476181D02*
X171654377Y-58761896D01*
X171654377Y-58761896D02*
X171559139Y-58952372D01*
X171559139Y-58952372D02*
X171463901Y-59047610D01*
X171654377Y-57523800D02*
X171654377Y-56761896D01*
X172321043Y-57238086D02*
X170606758Y-57238086D01*
X170606758Y-57238086D02*
X170416282Y-57142848D01*
X170416282Y-57142848D02*
X170321043Y-56952372D01*
X170321043Y-56952372D02*
X170321043Y-56761896D01*
X143993827Y-93744830D02*
X142850970Y-93744830D01*
X143422399Y-95744830D02*
X143422399Y-93744830D01*
X141898589Y-95744830D02*
X142089065Y-95649592D01*
X142089065Y-95649592D02*
X142184303Y-95554353D01*
X142184303Y-95554353D02*
X142279541Y-95363877D01*
X142279541Y-95363877D02*
X142279541Y-94792449D01*
X142279541Y-94792449D02*
X142184303Y-94601972D01*
X142184303Y-94601972D02*
X142089065Y-94506734D01*
X142089065Y-94506734D02*
X141898589Y-94411496D01*
X141898589Y-94411496D02*
X141612874Y-94411496D01*
X141612874Y-94411496D02*
X141422398Y-94506734D01*
X141422398Y-94506734D02*
X141327160Y-94601972D01*
X141327160Y-94601972D02*
X141231922Y-94792449D01*
X141231922Y-94792449D02*
X141231922Y-95363877D01*
X141231922Y-95363877D02*
X141327160Y-95554353D01*
X141327160Y-95554353D02*
X141422398Y-95649592D01*
X141422398Y-95649592D02*
X141612874Y-95744830D01*
X141612874Y-95744830D02*
X141898589Y-95744830D01*
X140374779Y-94411496D02*
X140374779Y-96411496D01*
X140374779Y-94506734D02*
X140184303Y-94411496D01*
X140184303Y-94411496D02*
X139803350Y-94411496D01*
X139803350Y-94411496D02*
X139612874Y-94506734D01*
X139612874Y-94506734D02*
X139517636Y-94601972D01*
X139517636Y-94601972D02*
X139422398Y-94792449D01*
X139422398Y-94792449D02*
X139422398Y-95363877D01*
X139422398Y-95363877D02*
X139517636Y-95554353D01*
X139517636Y-95554353D02*
X139612874Y-95649592D01*
X139612874Y-95649592D02*
X139803350Y-95744830D01*
X139803350Y-95744830D02*
X140184303Y-95744830D01*
X140184303Y-95744830D02*
X140374779Y-95649592D01*
X137898588Y-94697211D02*
X138565255Y-94697211D01*
X138565255Y-95744830D02*
X138565255Y-93744830D01*
X138565255Y-93744830D02*
X137612874Y-93744830D01*
X136850969Y-95744830D02*
X136850969Y-94411496D01*
X136850969Y-94792449D02*
X136755731Y-94601972D01*
X136755731Y-94601972D02*
X136660493Y-94506734D01*
X136660493Y-94506734D02*
X136470017Y-94411496D01*
X136470017Y-94411496D02*
X136279540Y-94411496D01*
X135327160Y-95744830D02*
X135517636Y-95649592D01*
X135517636Y-95649592D02*
X135612874Y-95554353D01*
X135612874Y-95554353D02*
X135708112Y-95363877D01*
X135708112Y-95363877D02*
X135708112Y-94792449D01*
X135708112Y-94792449D02*
X135612874Y-94601972D01*
X135612874Y-94601972D02*
X135517636Y-94506734D01*
X135517636Y-94506734D02*
X135327160Y-94411496D01*
X135327160Y-94411496D02*
X135041445Y-94411496D01*
X135041445Y-94411496D02*
X134850969Y-94506734D01*
X134850969Y-94506734D02*
X134755731Y-94601972D01*
X134755731Y-94601972D02*
X134660493Y-94792449D01*
X134660493Y-94792449D02*
X134660493Y-95363877D01*
X134660493Y-95363877D02*
X134755731Y-95554353D01*
X134755731Y-95554353D02*
X134850969Y-95649592D01*
X134850969Y-95649592D02*
X135041445Y-95744830D01*
X135041445Y-95744830D02*
X135327160Y-95744830D01*
X133803350Y-94411496D02*
X133803350Y-95744830D01*
X133803350Y-94601972D02*
X133708112Y-94506734D01*
X133708112Y-94506734D02*
X133517636Y-94411496D01*
X133517636Y-94411496D02*
X133231921Y-94411496D01*
X133231921Y-94411496D02*
X133041445Y-94506734D01*
X133041445Y-94506734D02*
X132946207Y-94697211D01*
X132946207Y-94697211D02*
X132946207Y-95744830D01*
X132279540Y-94411496D02*
X131517636Y-94411496D01*
X131993826Y-93744830D02*
X131993826Y-95459115D01*
X131993826Y-95459115D02*
X131898588Y-95649592D01*
X131898588Y-95649592D02*
X131708112Y-95744830D01*
X131708112Y-95744830D02*
X131517636Y-95744830D01*
X124576453Y-97794020D02*
X124576453Y-98865449D01*
X124576453Y-98865449D02*
X124647882Y-99079734D01*
X124647882Y-99079734D02*
X124790739Y-99222592D01*
X124790739Y-99222592D02*
X125005025Y-99294020D01*
X125005025Y-99294020D02*
X125147882Y-99294020D01*
X123147882Y-99294020D02*
X123862168Y-99294020D01*
X123862168Y-99294020D02*
X123862168Y-97794020D01*
X121790739Y-99151163D02*
X121862167Y-99222592D01*
X121862167Y-99222592D02*
X122076453Y-99294020D01*
X122076453Y-99294020D02*
X122219310Y-99294020D01*
X122219310Y-99294020D02*
X122433596Y-99222592D01*
X122433596Y-99222592D02*
X122576453Y-99079734D01*
X122576453Y-99079734D02*
X122647882Y-98936877D01*
X122647882Y-98936877D02*
X122719310Y-98651163D01*
X122719310Y-98651163D02*
X122719310Y-98436877D01*
X122719310Y-98436877D02*
X122647882Y-98151163D01*
X122647882Y-98151163D02*
X122576453Y-98008306D01*
X122576453Y-98008306D02*
X122433596Y-97865449D01*
X122433596Y-97865449D02*
X122219310Y-97794020D01*
X122219310Y-97794020D02*
X122076453Y-97794020D01*
X122076453Y-97794020D02*
X121862167Y-97865449D01*
X121862167Y-97865449D02*
X121790739Y-97936877D01*
X120719310Y-97794020D02*
X120719310Y-98865449D01*
X120719310Y-98865449D02*
X120790739Y-99079734D01*
X120790739Y-99079734D02*
X120933596Y-99222592D01*
X120933596Y-99222592D02*
X121147882Y-99294020D01*
X121147882Y-99294020D02*
X121290739Y-99294020D01*
X119290739Y-99294020D02*
X120005025Y-99294020D01*
X120005025Y-99294020D02*
X120005025Y-97794020D01*
X117933596Y-99151163D02*
X118005024Y-99222592D01*
X118005024Y-99222592D02*
X118219310Y-99294020D01*
X118219310Y-99294020D02*
X118362167Y-99294020D01*
X118362167Y-99294020D02*
X118576453Y-99222592D01*
X118576453Y-99222592D02*
X118719310Y-99079734D01*
X118719310Y-99079734D02*
X118790739Y-98936877D01*
X118790739Y-98936877D02*
X118862167Y-98651163D01*
X118862167Y-98651163D02*
X118862167Y-98436877D01*
X118862167Y-98436877D02*
X118790739Y-98151163D01*
X118790739Y-98151163D02*
X118719310Y-98008306D01*
X118719310Y-98008306D02*
X118576453Y-97865449D01*
X118576453Y-97865449D02*
X118362167Y-97794020D01*
X118362167Y-97794020D02*
X118219310Y-97794020D01*
X118219310Y-97794020D02*
X118005024Y-97865449D01*
X118005024Y-97865449D02*
X117933596Y-97936877D01*
X116862167Y-97794020D02*
X116862167Y-98865449D01*
X116862167Y-98865449D02*
X116933596Y-99079734D01*
X116933596Y-99079734D02*
X117076453Y-99222592D01*
X117076453Y-99222592D02*
X117290739Y-99294020D01*
X117290739Y-99294020D02*
X117433596Y-99294020D01*
X115433596Y-99294020D02*
X116147882Y-99294020D01*
X116147882Y-99294020D02*
X116147882Y-97794020D01*
X114076453Y-99151163D02*
X114147881Y-99222592D01*
X114147881Y-99222592D02*
X114362167Y-99294020D01*
X114362167Y-99294020D02*
X114505024Y-99294020D01*
X114505024Y-99294020D02*
X114719310Y-99222592D01*
X114719310Y-99222592D02*
X114862167Y-99079734D01*
X114862167Y-99079734D02*
X114933596Y-98936877D01*
X114933596Y-98936877D02*
X115005024Y-98651163D01*
X115005024Y-98651163D02*
X115005024Y-98436877D01*
X115005024Y-98436877D02*
X114933596Y-98151163D01*
X114933596Y-98151163D02*
X114862167Y-98008306D01*
X114862167Y-98008306D02*
X114719310Y-97865449D01*
X114719310Y-97865449D02*
X114505024Y-97794020D01*
X114505024Y-97794020D02*
X114362167Y-97794020D01*
X114362167Y-97794020D02*
X114147881Y-97865449D01*
X114147881Y-97865449D02*
X114076453Y-97936877D01*
X113005024Y-97794020D02*
X113005024Y-98865449D01*
X113005024Y-98865449D02*
X113076453Y-99079734D01*
X113076453Y-99079734D02*
X113219310Y-99222592D01*
X113219310Y-99222592D02*
X113433596Y-99294020D01*
X113433596Y-99294020D02*
X113576453Y-99294020D01*
X111576453Y-99294020D02*
X112290739Y-99294020D01*
X112290739Y-99294020D02*
X112290739Y-97794020D01*
X110219310Y-99151163D02*
X110290738Y-99222592D01*
X110290738Y-99222592D02*
X110505024Y-99294020D01*
X110505024Y-99294020D02*
X110647881Y-99294020D01*
X110647881Y-99294020D02*
X110862167Y-99222592D01*
X110862167Y-99222592D02*
X111005024Y-99079734D01*
X111005024Y-99079734D02*
X111076453Y-98936877D01*
X111076453Y-98936877D02*
X111147881Y-98651163D01*
X111147881Y-98651163D02*
X111147881Y-98436877D01*
X111147881Y-98436877D02*
X111076453Y-98151163D01*
X111076453Y-98151163D02*
X111005024Y-98008306D01*
X111005024Y-98008306D02*
X110862167Y-97865449D01*
X110862167Y-97865449D02*
X110647881Y-97794020D01*
X110647881Y-97794020D02*
X110505024Y-97794020D01*
X110505024Y-97794020D02*
X110290738Y-97865449D01*
X110290738Y-97865449D02*
X110219310Y-97936877D01*
D11*
X141391696Y-51668039D02*
X141391696Y-49168039D01*
X140201220Y-51668039D02*
X140201220Y-49168039D01*
X140201220Y-49168039D02*
X138772649Y-51668039D01*
X138772649Y-51668039D02*
X138772649Y-49168039D01*
X137701220Y-51548992D02*
X137344077Y-51668039D01*
X137344077Y-51668039D02*
X136748839Y-51668039D01*
X136748839Y-51668039D02*
X136510744Y-51548992D01*
X136510744Y-51548992D02*
X136391696Y-51429944D01*
X136391696Y-51429944D02*
X136272649Y-51191849D01*
X136272649Y-51191849D02*
X136272649Y-50953753D01*
X136272649Y-50953753D02*
X136391696Y-50715658D01*
X136391696Y-50715658D02*
X136510744Y-50596611D01*
X136510744Y-50596611D02*
X136748839Y-50477563D01*
X136748839Y-50477563D02*
X137225030Y-50358515D01*
X137225030Y-50358515D02*
X137463125Y-50239468D01*
X137463125Y-50239468D02*
X137582172Y-50120420D01*
X137582172Y-50120420D02*
X137701220Y-49882325D01*
X137701220Y-49882325D02*
X137701220Y-49644230D01*
X137701220Y-49644230D02*
X137582172Y-49406134D01*
X137582172Y-49406134D02*
X137463125Y-49287087D01*
X137463125Y-49287087D02*
X137225030Y-49168039D01*
X137225030Y-49168039D02*
X136629791Y-49168039D01*
X136629791Y-49168039D02*
X136272649Y-49287087D01*
X135201220Y-51668039D02*
X135201220Y-49168039D01*
X134010744Y-51668039D02*
X134010744Y-49168039D01*
X134010744Y-49168039D02*
X133415506Y-49168039D01*
X133415506Y-49168039D02*
X133058363Y-49287087D01*
X133058363Y-49287087D02*
X132820268Y-49525182D01*
X132820268Y-49525182D02*
X132701221Y-49763277D01*
X132701221Y-49763277D02*
X132582173Y-50239468D01*
X132582173Y-50239468D02*
X132582173Y-50596611D01*
X132582173Y-50596611D02*
X132701221Y-51072801D01*
X132701221Y-51072801D02*
X132820268Y-51310896D01*
X132820268Y-51310896D02*
X133058363Y-51548992D01*
X133058363Y-51548992D02*
X133415506Y-51668039D01*
X133415506Y-51668039D02*
X134010744Y-51668039D01*
X131510744Y-50358515D02*
X130677411Y-50358515D01*
X130320268Y-51668039D02*
X131510744Y-51668039D01*
X131510744Y-51668039D02*
X131510744Y-49168039D01*
X131510744Y-49168039D02*
X130320268Y-49168039D01*
D12*
%TO.C,J44*%
X100541991Y-27020230D02*
X100899134Y-27020230D01*
X100899134Y-27020230D02*
X100970562Y-26996421D01*
X100970562Y-26996421D02*
X101018182Y-26948802D01*
X101018182Y-26948802D02*
X101041991Y-26877373D01*
X101041991Y-26877373D02*
X101041991Y-26829754D01*
X100708658Y-27472611D02*
X101041991Y-27472611D01*
X100518182Y-27353563D02*
X100875324Y-27234516D01*
X100875324Y-27234516D02*
X100875324Y-27544039D01*
X100708658Y-27948801D02*
X101041991Y-27948801D01*
X100518182Y-27829753D02*
X100875324Y-27710706D01*
X100875324Y-27710706D02*
X100875324Y-28020229D01*
%TO.C,J42*%
X103920643Y-98856101D02*
X103920643Y-99213244D01*
X103920643Y-99213244D02*
X103944452Y-99284672D01*
X103944452Y-99284672D02*
X103992071Y-99332292D01*
X103992071Y-99332292D02*
X104063500Y-99356101D01*
X104063500Y-99356101D02*
X104111119Y-99356101D01*
X103468262Y-99022768D02*
X103468262Y-99356101D01*
X103587310Y-98832292D02*
X103706357Y-99189434D01*
X103706357Y-99189434D02*
X103396834Y-99189434D01*
X103230167Y-98903720D02*
X103206358Y-98879911D01*
X103206358Y-98879911D02*
X103158739Y-98856101D01*
X103158739Y-98856101D02*
X103039691Y-98856101D01*
X103039691Y-98856101D02*
X102992072Y-98879911D01*
X102992072Y-98879911D02*
X102968263Y-98903720D01*
X102968263Y-98903720D02*
X102944453Y-98951339D01*
X102944453Y-98951339D02*
X102944453Y-98998958D01*
X102944453Y-98998958D02*
X102968263Y-99070387D01*
X102968263Y-99070387D02*
X103253977Y-99356101D01*
X103253977Y-99356101D02*
X102944453Y-99356101D01*
%TO.C,J41*%
X175141991Y-95950230D02*
X175499134Y-95950230D01*
X175499134Y-95950230D02*
X175570562Y-95926421D01*
X175570562Y-95926421D02*
X175618182Y-95878802D01*
X175618182Y-95878802D02*
X175641991Y-95807373D01*
X175641991Y-95807373D02*
X175641991Y-95759754D01*
X175308658Y-96402611D02*
X175641991Y-96402611D01*
X175118182Y-96283563D02*
X175475324Y-96164516D01*
X175475324Y-96164516D02*
X175475324Y-96474039D01*
X175641991Y-96926420D02*
X175641991Y-96640706D01*
X175641991Y-96783563D02*
X175141991Y-96783563D01*
X175141991Y-96783563D02*
X175213420Y-96735944D01*
X175213420Y-96735944D02*
X175261039Y-96688325D01*
X175261039Y-96688325D02*
X175284848Y-96640706D01*
%TO.C,J43*%
X173045643Y-24376101D02*
X173045643Y-24733244D01*
X173045643Y-24733244D02*
X173069452Y-24804672D01*
X173069452Y-24804672D02*
X173117071Y-24852292D01*
X173117071Y-24852292D02*
X173188500Y-24876101D01*
X173188500Y-24876101D02*
X173236119Y-24876101D01*
X172593262Y-24542768D02*
X172593262Y-24876101D01*
X172712310Y-24352292D02*
X172831357Y-24709434D01*
X172831357Y-24709434D02*
X172521834Y-24709434D01*
X172378977Y-24376101D02*
X172069453Y-24376101D01*
X172069453Y-24376101D02*
X172236120Y-24566577D01*
X172236120Y-24566577D02*
X172164691Y-24566577D01*
X172164691Y-24566577D02*
X172117072Y-24590387D01*
X172117072Y-24590387D02*
X172093263Y-24614196D01*
X172093263Y-24614196D02*
X172069453Y-24661815D01*
X172069453Y-24661815D02*
X172069453Y-24780863D01*
X172069453Y-24780863D02*
X172093263Y-24828482D01*
X172093263Y-24828482D02*
X172117072Y-24852292D01*
X172117072Y-24852292D02*
X172164691Y-24876101D01*
X172164691Y-24876101D02*
X172307548Y-24876101D01*
X172307548Y-24876101D02*
X172355167Y-24852292D01*
X172355167Y-24852292D02*
X172378977Y-24828482D01*
D13*
%TO.C,J44*%
X110535882Y-25519992D02*
X109140882Y-25519992D01*
X103065882Y-25524992D02*
X101735882Y-25524992D01*
X101730882Y-25524992D02*
X101730882Y-26919992D01*
X105435882Y-25569992D02*
X104040882Y-25569992D01*
X110535882Y-26854992D02*
X110535882Y-25524992D01*
X101705882Y-27979992D02*
X101705882Y-29309992D01*
X110540882Y-29274992D02*
X110540882Y-27879992D01*
X105490882Y-29274992D02*
X110535882Y-29274992D01*
X101685882Y-33044992D02*
X101685882Y-34374992D01*
X105490882Y-34324992D02*
X105490882Y-29274992D01*
X104155882Y-34324992D02*
X105485882Y-34324992D01*
X101685882Y-34379992D02*
X103080882Y-34379992D01*
%TO.C,J42*%
X101610882Y-89409992D02*
X101610882Y-90804992D01*
X101615882Y-96879992D02*
X101615882Y-98209992D01*
X101615882Y-98214992D02*
X103010882Y-98214992D01*
X101660882Y-94509992D02*
X101660882Y-95904992D01*
X102945882Y-89409992D02*
X101615882Y-89409992D01*
X104070882Y-98239992D02*
X105400882Y-98239992D01*
X105365882Y-89404992D02*
X103970882Y-89404992D01*
X105365882Y-94454992D02*
X105365882Y-89409992D01*
X109135882Y-98259992D02*
X110465882Y-98259992D01*
X110415882Y-94454992D02*
X105365882Y-94454992D01*
X110415882Y-95789992D02*
X110415882Y-94459992D01*
X110470882Y-98259992D02*
X110470882Y-96864992D01*
%TO.C,J41*%
X165695882Y-98259992D02*
X167090882Y-98259992D01*
X173165882Y-98254992D02*
X174495882Y-98254992D01*
X174500882Y-98254992D02*
X174500882Y-96859992D01*
X170795882Y-98209992D02*
X172190882Y-98209992D01*
X165695882Y-96924992D02*
X165695882Y-98254992D01*
X174525882Y-95799992D02*
X174525882Y-94469992D01*
X165690882Y-94504992D02*
X165690882Y-95899992D01*
X170740882Y-94504992D02*
X165695882Y-94504992D01*
X174545882Y-90734992D02*
X174545882Y-89404992D01*
X170740882Y-89454992D02*
X170740882Y-94504992D01*
X172075882Y-89454992D02*
X170745882Y-89454992D01*
X174545882Y-89399992D02*
X173150882Y-89399992D01*
%TO.C,J43*%
X174545882Y-34369992D02*
X174545882Y-32974992D01*
X174540882Y-26899992D02*
X174540882Y-25569992D01*
X174540882Y-25564992D02*
X173145882Y-25564992D01*
X174495882Y-29269992D02*
X174495882Y-27874992D01*
X173210882Y-34369992D02*
X174540882Y-34369992D01*
X172085882Y-25539992D02*
X170755882Y-25539992D01*
X170790882Y-34374992D02*
X172185882Y-34374992D01*
X170790882Y-29324992D02*
X170790882Y-34369992D01*
X167020882Y-25519992D02*
X165690882Y-25519992D01*
X165740882Y-29324992D02*
X170790882Y-29324992D01*
X165740882Y-27989992D02*
X165740882Y-29319992D01*
X165685882Y-25519992D02*
X165685882Y-26914992D01*
%TD*%
M02*
