%TF.GenerationSoftware,KiCad,Pcbnew,7.0.5-0*%
%TF.CreationDate,2024-04-21T21:04:38-04:00*%
%TF.ProjectId,swr_meter_top,7377725f-6d65-4746-9572-5f746f702e6b,rev?*%
%TF.SameCoordinates,Original*%
%TF.FileFunction,Drillmap*%
%TF.FilePolarity,Positive*%
%FSLAX45Y45*%
G04 Gerber Fmt 4.5, Leading zero omitted, Abs format (unit mm)*
G04 Created by KiCad (PCBNEW 7.0.5-0) date 2024-04-21 21:04:38*
%MOMM*%
%LPD*%
G01*
G04 APERTURE LIST*
%ADD10C,0.349999*%
%ADD11C,0.200000*%
%ADD12C,0.220000*%
%ADD13C,0.210000*%
%ADD14C,1.000000*%
G04 APERTURE END LIST*
D10*
X14920000Y-9999999D02*
X14920000Y-9839999D01*
X14920000Y-2539999D02*
X14920000Y-2379999D01*
X14920000Y-2379999D02*
X17620000Y-2379999D01*
X14970000Y-6009999D02*
X12750000Y-6009999D01*
X12700000Y-9839999D02*
X12700000Y-9999999D01*
X10000000Y-9999999D02*
X10000000Y-7299999D01*
X12700000Y-10000000D02*
X10000000Y-10000000D01*
X14970000Y-5829999D02*
X14970000Y-6009999D01*
X17460000Y-7299999D02*
X17620000Y-7299999D01*
X14920000Y-9839999D02*
X12700000Y-9839999D01*
X12750000Y-6009999D02*
X12750000Y-5829999D01*
X17460000Y-5079999D02*
X17460000Y-7299999D01*
X10000000Y-7299999D02*
X10160000Y-7299999D01*
X12700000Y-2379999D02*
X12700000Y-2539999D01*
X17620000Y-7299999D02*
X17620000Y-9999999D01*
X10160000Y-5079999D02*
X10000000Y-5079999D01*
X17620000Y-9999999D02*
X14920000Y-9999999D01*
X12750000Y-5829999D02*
X14970000Y-5829999D01*
X10000000Y-5079999D02*
X10000000Y-2380000D01*
X17620000Y-5079999D02*
X17460000Y-5079999D01*
X12700000Y-2539999D02*
X14920000Y-2539999D01*
X17620000Y-2380000D02*
X17620000Y-5079999D01*
X10160000Y-7299999D02*
X10160000Y-5079999D01*
X10000000Y-2380000D02*
X12700000Y-2380000D01*
D11*
D12*
X10241588Y-9017999D02*
X10461588Y-9237999D01*
X10461588Y-9017999D02*
X10241588Y-9237999D01*
X10241588Y-9525999D02*
X10461588Y-9745999D01*
X10461588Y-9525999D02*
X10241588Y-9745999D01*
X10248588Y-2632499D02*
X10468588Y-2852499D01*
X10468588Y-2632499D02*
X10248588Y-2852499D01*
X10248588Y-3140499D02*
X10468588Y-3360499D01*
X10468588Y-3140499D02*
X10248588Y-3360499D01*
X10749588Y-9525999D02*
X10969588Y-9745999D01*
X10969588Y-9525999D02*
X10749588Y-9745999D01*
X10756588Y-2632499D02*
X10976588Y-2852499D01*
X10976588Y-2632499D02*
X10756588Y-2852499D01*
X16646088Y-2631999D02*
X16866088Y-2851999D01*
X16866088Y-2631999D02*
X16646088Y-2851999D01*
X16646588Y-9525499D02*
X16866588Y-9745499D01*
X16866588Y-9525499D02*
X16646588Y-9745499D01*
X17154088Y-2631999D02*
X17374088Y-2851999D01*
X17374088Y-2631999D02*
X17154088Y-2851999D01*
X17154088Y-3139999D02*
X17374088Y-3359999D01*
X17374088Y-3139999D02*
X17154088Y-3359999D01*
X17154588Y-9017499D02*
X17374588Y-9237499D01*
X17374588Y-9017499D02*
X17154588Y-9237499D01*
X17154588Y-9525499D02*
X17374588Y-9745499D01*
X17374588Y-9525499D02*
X17154588Y-9745499D01*
D13*
X10823508Y-7449999D02*
G75*
G03*
X10823508Y-7449999I-105000J0D01*
G01*
X16989508Y-7449999D02*
G75*
G03*
X16989508Y-7449999I-105000J0D01*
G01*
D14*
X11870000Y-6949999D02*
X11870000Y-7949999D01*
X11370000Y-7449999D02*
X12370000Y-7449999D01*
X13806500Y-6949999D02*
X13806500Y-7949999D01*
X13306500Y-7449999D02*
X14306500Y-7449999D01*
X15806500Y-6949999D02*
X15806500Y-7949999D01*
X15306500Y-7449999D02*
X16306500Y-7449999D01*
D11*
X10243277Y-10328984D02*
X10243277Y-10128984D01*
X10243277Y-10128984D02*
X10290896Y-10128984D01*
X10290896Y-10128984D02*
X10319467Y-10138508D01*
X10319467Y-10138508D02*
X10338515Y-10157555D01*
X10338515Y-10157555D02*
X10348039Y-10176603D01*
X10348039Y-10176603D02*
X10357563Y-10214698D01*
X10357563Y-10214698D02*
X10357563Y-10243269D01*
X10357563Y-10243269D02*
X10348039Y-10281365D01*
X10348039Y-10281365D02*
X10338515Y-10300412D01*
X10338515Y-10300412D02*
X10319467Y-10319460D01*
X10319467Y-10319460D02*
X10290896Y-10328984D01*
X10290896Y-10328984D02*
X10243277Y-10328984D01*
X10443277Y-10328984D02*
X10443277Y-10195650D01*
X10443277Y-10233746D02*
X10452801Y-10214698D01*
X10452801Y-10214698D02*
X10462325Y-10205174D01*
X10462325Y-10205174D02*
X10481372Y-10195650D01*
X10481372Y-10195650D02*
X10500420Y-10195650D01*
X10567086Y-10328984D02*
X10567086Y-10195650D01*
X10567086Y-10128984D02*
X10557563Y-10138508D01*
X10557563Y-10138508D02*
X10567086Y-10148031D01*
X10567086Y-10148031D02*
X10576610Y-10138508D01*
X10576610Y-10138508D02*
X10567086Y-10128984D01*
X10567086Y-10128984D02*
X10567086Y-10148031D01*
X10690896Y-10328984D02*
X10671848Y-10319460D01*
X10671848Y-10319460D02*
X10662325Y-10300412D01*
X10662325Y-10300412D02*
X10662325Y-10128984D01*
X10795658Y-10328984D02*
X10776610Y-10319460D01*
X10776610Y-10319460D02*
X10767086Y-10300412D01*
X10767086Y-10300412D02*
X10767086Y-10128984D01*
X11024229Y-10328984D02*
X11024229Y-10128984D01*
X11024229Y-10128984D02*
X11090896Y-10271841D01*
X11090896Y-10271841D02*
X11157563Y-10128984D01*
X11157563Y-10128984D02*
X11157563Y-10328984D01*
X11338515Y-10328984D02*
X11338515Y-10224222D01*
X11338515Y-10224222D02*
X11328991Y-10205174D01*
X11328991Y-10205174D02*
X11309944Y-10195650D01*
X11309944Y-10195650D02*
X11271848Y-10195650D01*
X11271848Y-10195650D02*
X11252801Y-10205174D01*
X11338515Y-10319460D02*
X11319467Y-10328984D01*
X11319467Y-10328984D02*
X11271848Y-10328984D01*
X11271848Y-10328984D02*
X11252801Y-10319460D01*
X11252801Y-10319460D02*
X11243277Y-10300412D01*
X11243277Y-10300412D02*
X11243277Y-10281365D01*
X11243277Y-10281365D02*
X11252801Y-10262317D01*
X11252801Y-10262317D02*
X11271848Y-10252793D01*
X11271848Y-10252793D02*
X11319467Y-10252793D01*
X11319467Y-10252793D02*
X11338515Y-10243269D01*
X11433753Y-10195650D02*
X11433753Y-10395650D01*
X11433753Y-10205174D02*
X11452801Y-10195650D01*
X11452801Y-10195650D02*
X11490896Y-10195650D01*
X11490896Y-10195650D02*
X11509944Y-10205174D01*
X11509944Y-10205174D02*
X11519467Y-10214698D01*
X11519467Y-10214698D02*
X11528991Y-10233746D01*
X11528991Y-10233746D02*
X11528991Y-10290888D01*
X11528991Y-10290888D02*
X11519467Y-10309936D01*
X11519467Y-10309936D02*
X11509944Y-10319460D01*
X11509944Y-10319460D02*
X11490896Y-10328984D01*
X11490896Y-10328984D02*
X11452801Y-10328984D01*
X11452801Y-10328984D02*
X11433753Y-10319460D01*
X11614705Y-10309936D02*
X11624229Y-10319460D01*
X11624229Y-10319460D02*
X11614705Y-10328984D01*
X11614705Y-10328984D02*
X11605182Y-10319460D01*
X11605182Y-10319460D02*
X11614705Y-10309936D01*
X11614705Y-10309936D02*
X11614705Y-10328984D01*
X11614705Y-10205174D02*
X11624229Y-10214698D01*
X11624229Y-10214698D02*
X11614705Y-10224222D01*
X11614705Y-10224222D02*
X11605182Y-10214698D01*
X11605182Y-10214698D02*
X11614705Y-10205174D01*
X11614705Y-10205174D02*
X11614705Y-10224222D01*
X9782500Y-10557500D02*
X9982500Y-10757500D01*
X9982500Y-10557500D02*
X9782500Y-10757500D01*
X10233753Y-10568031D02*
X10243277Y-10558508D01*
X10243277Y-10558508D02*
X10262325Y-10548984D01*
X10262325Y-10548984D02*
X10309944Y-10548984D01*
X10309944Y-10548984D02*
X10328991Y-10558508D01*
X10328991Y-10558508D02*
X10338515Y-10568031D01*
X10338515Y-10568031D02*
X10348039Y-10587079D01*
X10348039Y-10587079D02*
X10348039Y-10606127D01*
X10348039Y-10606127D02*
X10338515Y-10634698D01*
X10338515Y-10634698D02*
X10224229Y-10748984D01*
X10224229Y-10748984D02*
X10348039Y-10748984D01*
X10433753Y-10729936D02*
X10443277Y-10739460D01*
X10443277Y-10739460D02*
X10433753Y-10748984D01*
X10433753Y-10748984D02*
X10424229Y-10739460D01*
X10424229Y-10739460D02*
X10433753Y-10729936D01*
X10433753Y-10729936D02*
X10433753Y-10748984D01*
X10519467Y-10568031D02*
X10528991Y-10558508D01*
X10528991Y-10558508D02*
X10548039Y-10548984D01*
X10548039Y-10548984D02*
X10595658Y-10548984D01*
X10595658Y-10548984D02*
X10614706Y-10558508D01*
X10614706Y-10558508D02*
X10624229Y-10568031D01*
X10624229Y-10568031D02*
X10633753Y-10587079D01*
X10633753Y-10587079D02*
X10633753Y-10606127D01*
X10633753Y-10606127D02*
X10624229Y-10634698D01*
X10624229Y-10634698D02*
X10509944Y-10748984D01*
X10509944Y-10748984D02*
X10633753Y-10748984D01*
X10757563Y-10548984D02*
X10776610Y-10548984D01*
X10776610Y-10548984D02*
X10795658Y-10558508D01*
X10795658Y-10558508D02*
X10805182Y-10568031D01*
X10805182Y-10568031D02*
X10814706Y-10587079D01*
X10814706Y-10587079D02*
X10824229Y-10625174D01*
X10824229Y-10625174D02*
X10824229Y-10672793D01*
X10824229Y-10672793D02*
X10814706Y-10710888D01*
X10814706Y-10710888D02*
X10805182Y-10729936D01*
X10805182Y-10729936D02*
X10795658Y-10739460D01*
X10795658Y-10739460D02*
X10776610Y-10748984D01*
X10776610Y-10748984D02*
X10757563Y-10748984D01*
X10757563Y-10748984D02*
X10738515Y-10739460D01*
X10738515Y-10739460D02*
X10728991Y-10729936D01*
X10728991Y-10729936D02*
X10719467Y-10710888D01*
X10719467Y-10710888D02*
X10709944Y-10672793D01*
X10709944Y-10672793D02*
X10709944Y-10625174D01*
X10709944Y-10625174D02*
X10719467Y-10587079D01*
X10719467Y-10587079D02*
X10728991Y-10568031D01*
X10728991Y-10568031D02*
X10738515Y-10558508D01*
X10738515Y-10558508D02*
X10757563Y-10548984D01*
X10948039Y-10548984D02*
X10967087Y-10548984D01*
X10967087Y-10548984D02*
X10986134Y-10558508D01*
X10986134Y-10558508D02*
X10995658Y-10568031D01*
X10995658Y-10568031D02*
X11005182Y-10587079D01*
X11005182Y-10587079D02*
X11014706Y-10625174D01*
X11014706Y-10625174D02*
X11014706Y-10672793D01*
X11014706Y-10672793D02*
X11005182Y-10710888D01*
X11005182Y-10710888D02*
X10995658Y-10729936D01*
X10995658Y-10729936D02*
X10986134Y-10739460D01*
X10986134Y-10739460D02*
X10967087Y-10748984D01*
X10967087Y-10748984D02*
X10948039Y-10748984D01*
X10948039Y-10748984D02*
X10928991Y-10739460D01*
X10928991Y-10739460D02*
X10919467Y-10729936D01*
X10919467Y-10729936D02*
X10909944Y-10710888D01*
X10909944Y-10710888D02*
X10900420Y-10672793D01*
X10900420Y-10672793D02*
X10900420Y-10625174D01*
X10900420Y-10625174D02*
X10909944Y-10587079D01*
X10909944Y-10587079D02*
X10919467Y-10568031D01*
X10919467Y-10568031D02*
X10928991Y-10558508D01*
X10928991Y-10558508D02*
X10948039Y-10548984D01*
X11100420Y-10748984D02*
X11100420Y-10615650D01*
X11100420Y-10634698D02*
X11109944Y-10625174D01*
X11109944Y-10625174D02*
X11128991Y-10615650D01*
X11128991Y-10615650D02*
X11157563Y-10615650D01*
X11157563Y-10615650D02*
X11176610Y-10625174D01*
X11176610Y-10625174D02*
X11186134Y-10644222D01*
X11186134Y-10644222D02*
X11186134Y-10748984D01*
X11186134Y-10644222D02*
X11195658Y-10625174D01*
X11195658Y-10625174D02*
X11214705Y-10615650D01*
X11214705Y-10615650D02*
X11243277Y-10615650D01*
X11243277Y-10615650D02*
X11262325Y-10625174D01*
X11262325Y-10625174D02*
X11271848Y-10644222D01*
X11271848Y-10644222D02*
X11271848Y-10748984D01*
X11367086Y-10748984D02*
X11367086Y-10615650D01*
X11367086Y-10634698D02*
X11376610Y-10625174D01*
X11376610Y-10625174D02*
X11395658Y-10615650D01*
X11395658Y-10615650D02*
X11424229Y-10615650D01*
X11424229Y-10615650D02*
X11443277Y-10625174D01*
X11443277Y-10625174D02*
X11452801Y-10644222D01*
X11452801Y-10644222D02*
X11452801Y-10748984D01*
X11452801Y-10644222D02*
X11462325Y-10625174D01*
X11462325Y-10625174D02*
X11481372Y-10615650D01*
X11481372Y-10615650D02*
X11509944Y-10615650D01*
X11509944Y-10615650D02*
X11528991Y-10625174D01*
X11528991Y-10625174D02*
X11538515Y-10644222D01*
X11538515Y-10644222D02*
X11538515Y-10748984D01*
X11928991Y-10539460D02*
X11757563Y-10796603D01*
X12186134Y-10548984D02*
X12205182Y-10548984D01*
X12205182Y-10548984D02*
X12224229Y-10558508D01*
X12224229Y-10558508D02*
X12233753Y-10568031D01*
X12233753Y-10568031D02*
X12243277Y-10587079D01*
X12243277Y-10587079D02*
X12252801Y-10625174D01*
X12252801Y-10625174D02*
X12252801Y-10672793D01*
X12252801Y-10672793D02*
X12243277Y-10710888D01*
X12243277Y-10710888D02*
X12233753Y-10729936D01*
X12233753Y-10729936D02*
X12224229Y-10739460D01*
X12224229Y-10739460D02*
X12205182Y-10748984D01*
X12205182Y-10748984D02*
X12186134Y-10748984D01*
X12186134Y-10748984D02*
X12167087Y-10739460D01*
X12167087Y-10739460D02*
X12157563Y-10729936D01*
X12157563Y-10729936D02*
X12148039Y-10710888D01*
X12148039Y-10710888D02*
X12138515Y-10672793D01*
X12138515Y-10672793D02*
X12138515Y-10625174D01*
X12138515Y-10625174D02*
X12148039Y-10587079D01*
X12148039Y-10587079D02*
X12157563Y-10568031D01*
X12157563Y-10568031D02*
X12167087Y-10558508D01*
X12167087Y-10558508D02*
X12186134Y-10548984D01*
X12338515Y-10729936D02*
X12348039Y-10739460D01*
X12348039Y-10739460D02*
X12338515Y-10748984D01*
X12338515Y-10748984D02*
X12328991Y-10739460D01*
X12328991Y-10739460D02*
X12338515Y-10729936D01*
X12338515Y-10729936D02*
X12338515Y-10748984D01*
X12471848Y-10548984D02*
X12490896Y-10548984D01*
X12490896Y-10548984D02*
X12509944Y-10558508D01*
X12509944Y-10558508D02*
X12519468Y-10568031D01*
X12519468Y-10568031D02*
X12528991Y-10587079D01*
X12528991Y-10587079D02*
X12538515Y-10625174D01*
X12538515Y-10625174D02*
X12538515Y-10672793D01*
X12538515Y-10672793D02*
X12528991Y-10710888D01*
X12528991Y-10710888D02*
X12519468Y-10729936D01*
X12519468Y-10729936D02*
X12509944Y-10739460D01*
X12509944Y-10739460D02*
X12490896Y-10748984D01*
X12490896Y-10748984D02*
X12471848Y-10748984D01*
X12471848Y-10748984D02*
X12452801Y-10739460D01*
X12452801Y-10739460D02*
X12443277Y-10729936D01*
X12443277Y-10729936D02*
X12433753Y-10710888D01*
X12433753Y-10710888D02*
X12424229Y-10672793D01*
X12424229Y-10672793D02*
X12424229Y-10625174D01*
X12424229Y-10625174D02*
X12433753Y-10587079D01*
X12433753Y-10587079D02*
X12443277Y-10568031D01*
X12443277Y-10568031D02*
X12452801Y-10558508D01*
X12452801Y-10558508D02*
X12471848Y-10548984D01*
X12652801Y-10634698D02*
X12633753Y-10625174D01*
X12633753Y-10625174D02*
X12624229Y-10615650D01*
X12624229Y-10615650D02*
X12614706Y-10596603D01*
X12614706Y-10596603D02*
X12614706Y-10587079D01*
X12614706Y-10587079D02*
X12624229Y-10568031D01*
X12624229Y-10568031D02*
X12633753Y-10558508D01*
X12633753Y-10558508D02*
X12652801Y-10548984D01*
X12652801Y-10548984D02*
X12690896Y-10548984D01*
X12690896Y-10548984D02*
X12709944Y-10558508D01*
X12709944Y-10558508D02*
X12719468Y-10568031D01*
X12719468Y-10568031D02*
X12728991Y-10587079D01*
X12728991Y-10587079D02*
X12728991Y-10596603D01*
X12728991Y-10596603D02*
X12719468Y-10615650D01*
X12719468Y-10615650D02*
X12709944Y-10625174D01*
X12709944Y-10625174D02*
X12690896Y-10634698D01*
X12690896Y-10634698D02*
X12652801Y-10634698D01*
X12652801Y-10634698D02*
X12633753Y-10644222D01*
X12633753Y-10644222D02*
X12624229Y-10653746D01*
X12624229Y-10653746D02*
X12614706Y-10672793D01*
X12614706Y-10672793D02*
X12614706Y-10710888D01*
X12614706Y-10710888D02*
X12624229Y-10729936D01*
X12624229Y-10729936D02*
X12633753Y-10739460D01*
X12633753Y-10739460D02*
X12652801Y-10748984D01*
X12652801Y-10748984D02*
X12690896Y-10748984D01*
X12690896Y-10748984D02*
X12709944Y-10739460D01*
X12709944Y-10739460D02*
X12719468Y-10729936D01*
X12719468Y-10729936D02*
X12728991Y-10710888D01*
X12728991Y-10710888D02*
X12728991Y-10672793D01*
X12728991Y-10672793D02*
X12719468Y-10653746D01*
X12719468Y-10653746D02*
X12709944Y-10644222D01*
X12709944Y-10644222D02*
X12690896Y-10634698D01*
X12900420Y-10548984D02*
X12862325Y-10548984D01*
X12862325Y-10548984D02*
X12843277Y-10558508D01*
X12843277Y-10558508D02*
X12833753Y-10568031D01*
X12833753Y-10568031D02*
X12814706Y-10596603D01*
X12814706Y-10596603D02*
X12805182Y-10634698D01*
X12805182Y-10634698D02*
X12805182Y-10710888D01*
X12805182Y-10710888D02*
X12814706Y-10729936D01*
X12814706Y-10729936D02*
X12824229Y-10739460D01*
X12824229Y-10739460D02*
X12843277Y-10748984D01*
X12843277Y-10748984D02*
X12881372Y-10748984D01*
X12881372Y-10748984D02*
X12900420Y-10739460D01*
X12900420Y-10739460D02*
X12909944Y-10729936D01*
X12909944Y-10729936D02*
X12919468Y-10710888D01*
X12919468Y-10710888D02*
X12919468Y-10663269D01*
X12919468Y-10663269D02*
X12909944Y-10644222D01*
X12909944Y-10644222D02*
X12900420Y-10634698D01*
X12900420Y-10634698D02*
X12881372Y-10625174D01*
X12881372Y-10625174D02*
X12843277Y-10625174D01*
X12843277Y-10625174D02*
X12824229Y-10634698D01*
X12824229Y-10634698D02*
X12814706Y-10644222D01*
X12814706Y-10644222D02*
X12805182Y-10663269D01*
X13090896Y-10548984D02*
X13052801Y-10548984D01*
X13052801Y-10548984D02*
X13033753Y-10558508D01*
X13033753Y-10558508D02*
X13024229Y-10568031D01*
X13024229Y-10568031D02*
X13005182Y-10596603D01*
X13005182Y-10596603D02*
X12995658Y-10634698D01*
X12995658Y-10634698D02*
X12995658Y-10710888D01*
X12995658Y-10710888D02*
X13005182Y-10729936D01*
X13005182Y-10729936D02*
X13014706Y-10739460D01*
X13014706Y-10739460D02*
X13033753Y-10748984D01*
X13033753Y-10748984D02*
X13071849Y-10748984D01*
X13071849Y-10748984D02*
X13090896Y-10739460D01*
X13090896Y-10739460D02*
X13100420Y-10729936D01*
X13100420Y-10729936D02*
X13109944Y-10710888D01*
X13109944Y-10710888D02*
X13109944Y-10663269D01*
X13109944Y-10663269D02*
X13100420Y-10644222D01*
X13100420Y-10644222D02*
X13090896Y-10634698D01*
X13090896Y-10634698D02*
X13071849Y-10625174D01*
X13071849Y-10625174D02*
X13033753Y-10625174D01*
X13033753Y-10625174D02*
X13014706Y-10634698D01*
X13014706Y-10634698D02*
X13005182Y-10644222D01*
X13005182Y-10644222D02*
X12995658Y-10663269D01*
X13186134Y-10548984D02*
X13186134Y-10587079D01*
X13262325Y-10548984D02*
X13262325Y-10587079D01*
X13557563Y-10825174D02*
X13548039Y-10815650D01*
X13548039Y-10815650D02*
X13528991Y-10787079D01*
X13528991Y-10787079D02*
X13519468Y-10768031D01*
X13519468Y-10768031D02*
X13509944Y-10739460D01*
X13509944Y-10739460D02*
X13500420Y-10691841D01*
X13500420Y-10691841D02*
X13500420Y-10653746D01*
X13500420Y-10653746D02*
X13509944Y-10606127D01*
X13509944Y-10606127D02*
X13519468Y-10577555D01*
X13519468Y-10577555D02*
X13528991Y-10558508D01*
X13528991Y-10558508D02*
X13548039Y-10529936D01*
X13548039Y-10529936D02*
X13557563Y-10520412D01*
X13738515Y-10748984D02*
X13624230Y-10748984D01*
X13681372Y-10748984D02*
X13681372Y-10548984D01*
X13681372Y-10548984D02*
X13662325Y-10577555D01*
X13662325Y-10577555D02*
X13643277Y-10596603D01*
X13643277Y-10596603D02*
X13624230Y-10606127D01*
X13814706Y-10568031D02*
X13824230Y-10558508D01*
X13824230Y-10558508D02*
X13843277Y-10548984D01*
X13843277Y-10548984D02*
X13890896Y-10548984D01*
X13890896Y-10548984D02*
X13909944Y-10558508D01*
X13909944Y-10558508D02*
X13919468Y-10568031D01*
X13919468Y-10568031D02*
X13928991Y-10587079D01*
X13928991Y-10587079D02*
X13928991Y-10606127D01*
X13928991Y-10606127D02*
X13919468Y-10634698D01*
X13919468Y-10634698D02*
X13805182Y-10748984D01*
X13805182Y-10748984D02*
X13928991Y-10748984D01*
X14167087Y-10748984D02*
X14167087Y-10548984D01*
X14252801Y-10748984D02*
X14252801Y-10644222D01*
X14252801Y-10644222D02*
X14243277Y-10625174D01*
X14243277Y-10625174D02*
X14224230Y-10615650D01*
X14224230Y-10615650D02*
X14195658Y-10615650D01*
X14195658Y-10615650D02*
X14176611Y-10625174D01*
X14176611Y-10625174D02*
X14167087Y-10634698D01*
X14376611Y-10748984D02*
X14357563Y-10739460D01*
X14357563Y-10739460D02*
X14348039Y-10729936D01*
X14348039Y-10729936D02*
X14338515Y-10710888D01*
X14338515Y-10710888D02*
X14338515Y-10653746D01*
X14338515Y-10653746D02*
X14348039Y-10634698D01*
X14348039Y-10634698D02*
X14357563Y-10625174D01*
X14357563Y-10625174D02*
X14376611Y-10615650D01*
X14376611Y-10615650D02*
X14405182Y-10615650D01*
X14405182Y-10615650D02*
X14424230Y-10625174D01*
X14424230Y-10625174D02*
X14433753Y-10634698D01*
X14433753Y-10634698D02*
X14443277Y-10653746D01*
X14443277Y-10653746D02*
X14443277Y-10710888D01*
X14443277Y-10710888D02*
X14433753Y-10729936D01*
X14433753Y-10729936D02*
X14424230Y-10739460D01*
X14424230Y-10739460D02*
X14405182Y-10748984D01*
X14405182Y-10748984D02*
X14376611Y-10748984D01*
X14557563Y-10748984D02*
X14538515Y-10739460D01*
X14538515Y-10739460D02*
X14528992Y-10720412D01*
X14528992Y-10720412D02*
X14528992Y-10548984D01*
X14709944Y-10739460D02*
X14690896Y-10748984D01*
X14690896Y-10748984D02*
X14652801Y-10748984D01*
X14652801Y-10748984D02*
X14633753Y-10739460D01*
X14633753Y-10739460D02*
X14624230Y-10720412D01*
X14624230Y-10720412D02*
X14624230Y-10644222D01*
X14624230Y-10644222D02*
X14633753Y-10625174D01*
X14633753Y-10625174D02*
X14652801Y-10615650D01*
X14652801Y-10615650D02*
X14690896Y-10615650D01*
X14690896Y-10615650D02*
X14709944Y-10625174D01*
X14709944Y-10625174D02*
X14719468Y-10644222D01*
X14719468Y-10644222D02*
X14719468Y-10663269D01*
X14719468Y-10663269D02*
X14624230Y-10682317D01*
X14795658Y-10739460D02*
X14814706Y-10748984D01*
X14814706Y-10748984D02*
X14852801Y-10748984D01*
X14852801Y-10748984D02*
X14871849Y-10739460D01*
X14871849Y-10739460D02*
X14881373Y-10720412D01*
X14881373Y-10720412D02*
X14881373Y-10710888D01*
X14881373Y-10710888D02*
X14871849Y-10691841D01*
X14871849Y-10691841D02*
X14852801Y-10682317D01*
X14852801Y-10682317D02*
X14824230Y-10682317D01*
X14824230Y-10682317D02*
X14805182Y-10672793D01*
X14805182Y-10672793D02*
X14795658Y-10653746D01*
X14795658Y-10653746D02*
X14795658Y-10644222D01*
X14795658Y-10644222D02*
X14805182Y-10625174D01*
X14805182Y-10625174D02*
X14824230Y-10615650D01*
X14824230Y-10615650D02*
X14852801Y-10615650D01*
X14852801Y-10615650D02*
X14871849Y-10625174D01*
X14948039Y-10825174D02*
X14957563Y-10815650D01*
X14957563Y-10815650D02*
X14976611Y-10787079D01*
X14976611Y-10787079D02*
X14986134Y-10768031D01*
X14986134Y-10768031D02*
X14995658Y-10739460D01*
X14995658Y-10739460D02*
X15005182Y-10691841D01*
X15005182Y-10691841D02*
X15005182Y-10653746D01*
X15005182Y-10653746D02*
X14995658Y-10606127D01*
X14995658Y-10606127D02*
X14986134Y-10577555D01*
X14986134Y-10577555D02*
X14976611Y-10558508D01*
X14976611Y-10558508D02*
X14957563Y-10529936D01*
X14957563Y-10529936D02*
X14948039Y-10520412D01*
X9982500Y-10977500D02*
G75*
G03*
X9982500Y-10977500I-100000J0D01*
G01*
X10233753Y-10888031D02*
X10243277Y-10878508D01*
X10243277Y-10878508D02*
X10262325Y-10868984D01*
X10262325Y-10868984D02*
X10309944Y-10868984D01*
X10309944Y-10868984D02*
X10328991Y-10878508D01*
X10328991Y-10878508D02*
X10338515Y-10888031D01*
X10338515Y-10888031D02*
X10348039Y-10907079D01*
X10348039Y-10907079D02*
X10348039Y-10926127D01*
X10348039Y-10926127D02*
X10338515Y-10954698D01*
X10338515Y-10954698D02*
X10224229Y-11068984D01*
X10224229Y-11068984D02*
X10348039Y-11068984D01*
X10433753Y-11049936D02*
X10443277Y-11059460D01*
X10443277Y-11059460D02*
X10433753Y-11068984D01*
X10433753Y-11068984D02*
X10424229Y-11059460D01*
X10424229Y-11059460D02*
X10433753Y-11049936D01*
X10433753Y-11049936D02*
X10433753Y-11068984D01*
X10633753Y-11068984D02*
X10519467Y-11068984D01*
X10576610Y-11068984D02*
X10576610Y-10868984D01*
X10576610Y-10868984D02*
X10557563Y-10897555D01*
X10557563Y-10897555D02*
X10538515Y-10916603D01*
X10538515Y-10916603D02*
X10519467Y-10926127D01*
X10757563Y-10868984D02*
X10776610Y-10868984D01*
X10776610Y-10868984D02*
X10795658Y-10878508D01*
X10795658Y-10878508D02*
X10805182Y-10888031D01*
X10805182Y-10888031D02*
X10814706Y-10907079D01*
X10814706Y-10907079D02*
X10824229Y-10945174D01*
X10824229Y-10945174D02*
X10824229Y-10992793D01*
X10824229Y-10992793D02*
X10814706Y-11030888D01*
X10814706Y-11030888D02*
X10805182Y-11049936D01*
X10805182Y-11049936D02*
X10795658Y-11059460D01*
X10795658Y-11059460D02*
X10776610Y-11068984D01*
X10776610Y-11068984D02*
X10757563Y-11068984D01*
X10757563Y-11068984D02*
X10738515Y-11059460D01*
X10738515Y-11059460D02*
X10728991Y-11049936D01*
X10728991Y-11049936D02*
X10719467Y-11030888D01*
X10719467Y-11030888D02*
X10709944Y-10992793D01*
X10709944Y-10992793D02*
X10709944Y-10945174D01*
X10709944Y-10945174D02*
X10719467Y-10907079D01*
X10719467Y-10907079D02*
X10728991Y-10888031D01*
X10728991Y-10888031D02*
X10738515Y-10878508D01*
X10738515Y-10878508D02*
X10757563Y-10868984D01*
X10948039Y-10868984D02*
X10967087Y-10868984D01*
X10967087Y-10868984D02*
X10986134Y-10878508D01*
X10986134Y-10878508D02*
X10995658Y-10888031D01*
X10995658Y-10888031D02*
X11005182Y-10907079D01*
X11005182Y-10907079D02*
X11014706Y-10945174D01*
X11014706Y-10945174D02*
X11014706Y-10992793D01*
X11014706Y-10992793D02*
X11005182Y-11030888D01*
X11005182Y-11030888D02*
X10995658Y-11049936D01*
X10995658Y-11049936D02*
X10986134Y-11059460D01*
X10986134Y-11059460D02*
X10967087Y-11068984D01*
X10967087Y-11068984D02*
X10948039Y-11068984D01*
X10948039Y-11068984D02*
X10928991Y-11059460D01*
X10928991Y-11059460D02*
X10919467Y-11049936D01*
X10919467Y-11049936D02*
X10909944Y-11030888D01*
X10909944Y-11030888D02*
X10900420Y-10992793D01*
X10900420Y-10992793D02*
X10900420Y-10945174D01*
X10900420Y-10945174D02*
X10909944Y-10907079D01*
X10909944Y-10907079D02*
X10919467Y-10888031D01*
X10919467Y-10888031D02*
X10928991Y-10878508D01*
X10928991Y-10878508D02*
X10948039Y-10868984D01*
X11100420Y-11068984D02*
X11100420Y-10935650D01*
X11100420Y-10954698D02*
X11109944Y-10945174D01*
X11109944Y-10945174D02*
X11128991Y-10935650D01*
X11128991Y-10935650D02*
X11157563Y-10935650D01*
X11157563Y-10935650D02*
X11176610Y-10945174D01*
X11176610Y-10945174D02*
X11186134Y-10964222D01*
X11186134Y-10964222D02*
X11186134Y-11068984D01*
X11186134Y-10964222D02*
X11195658Y-10945174D01*
X11195658Y-10945174D02*
X11214705Y-10935650D01*
X11214705Y-10935650D02*
X11243277Y-10935650D01*
X11243277Y-10935650D02*
X11262325Y-10945174D01*
X11262325Y-10945174D02*
X11271848Y-10964222D01*
X11271848Y-10964222D02*
X11271848Y-11068984D01*
X11367086Y-11068984D02*
X11367086Y-10935650D01*
X11367086Y-10954698D02*
X11376610Y-10945174D01*
X11376610Y-10945174D02*
X11395658Y-10935650D01*
X11395658Y-10935650D02*
X11424229Y-10935650D01*
X11424229Y-10935650D02*
X11443277Y-10945174D01*
X11443277Y-10945174D02*
X11452801Y-10964222D01*
X11452801Y-10964222D02*
X11452801Y-11068984D01*
X11452801Y-10964222D02*
X11462325Y-10945174D01*
X11462325Y-10945174D02*
X11481372Y-10935650D01*
X11481372Y-10935650D02*
X11509944Y-10935650D01*
X11509944Y-10935650D02*
X11528991Y-10945174D01*
X11528991Y-10945174D02*
X11538515Y-10964222D01*
X11538515Y-10964222D02*
X11538515Y-11068984D01*
X11928991Y-10859460D02*
X11757563Y-11116603D01*
X12186134Y-10868984D02*
X12205182Y-10868984D01*
X12205182Y-10868984D02*
X12224229Y-10878508D01*
X12224229Y-10878508D02*
X12233753Y-10888031D01*
X12233753Y-10888031D02*
X12243277Y-10907079D01*
X12243277Y-10907079D02*
X12252801Y-10945174D01*
X12252801Y-10945174D02*
X12252801Y-10992793D01*
X12252801Y-10992793D02*
X12243277Y-11030888D01*
X12243277Y-11030888D02*
X12233753Y-11049936D01*
X12233753Y-11049936D02*
X12224229Y-11059460D01*
X12224229Y-11059460D02*
X12205182Y-11068984D01*
X12205182Y-11068984D02*
X12186134Y-11068984D01*
X12186134Y-11068984D02*
X12167087Y-11059460D01*
X12167087Y-11059460D02*
X12157563Y-11049936D01*
X12157563Y-11049936D02*
X12148039Y-11030888D01*
X12148039Y-11030888D02*
X12138515Y-10992793D01*
X12138515Y-10992793D02*
X12138515Y-10945174D01*
X12138515Y-10945174D02*
X12148039Y-10907079D01*
X12148039Y-10907079D02*
X12157563Y-10888031D01*
X12157563Y-10888031D02*
X12167087Y-10878508D01*
X12167087Y-10878508D02*
X12186134Y-10868984D01*
X12338515Y-11049936D02*
X12348039Y-11059460D01*
X12348039Y-11059460D02*
X12338515Y-11068984D01*
X12338515Y-11068984D02*
X12328991Y-11059460D01*
X12328991Y-11059460D02*
X12338515Y-11049936D01*
X12338515Y-11049936D02*
X12338515Y-11068984D01*
X12471848Y-10868984D02*
X12490896Y-10868984D01*
X12490896Y-10868984D02*
X12509944Y-10878508D01*
X12509944Y-10878508D02*
X12519468Y-10888031D01*
X12519468Y-10888031D02*
X12528991Y-10907079D01*
X12528991Y-10907079D02*
X12538515Y-10945174D01*
X12538515Y-10945174D02*
X12538515Y-10992793D01*
X12538515Y-10992793D02*
X12528991Y-11030888D01*
X12528991Y-11030888D02*
X12519468Y-11049936D01*
X12519468Y-11049936D02*
X12509944Y-11059460D01*
X12509944Y-11059460D02*
X12490896Y-11068984D01*
X12490896Y-11068984D02*
X12471848Y-11068984D01*
X12471848Y-11068984D02*
X12452801Y-11059460D01*
X12452801Y-11059460D02*
X12443277Y-11049936D01*
X12443277Y-11049936D02*
X12433753Y-11030888D01*
X12433753Y-11030888D02*
X12424229Y-10992793D01*
X12424229Y-10992793D02*
X12424229Y-10945174D01*
X12424229Y-10945174D02*
X12433753Y-10907079D01*
X12433753Y-10907079D02*
X12443277Y-10888031D01*
X12443277Y-10888031D02*
X12452801Y-10878508D01*
X12452801Y-10878508D02*
X12471848Y-10868984D01*
X12652801Y-10954698D02*
X12633753Y-10945174D01*
X12633753Y-10945174D02*
X12624229Y-10935650D01*
X12624229Y-10935650D02*
X12614706Y-10916603D01*
X12614706Y-10916603D02*
X12614706Y-10907079D01*
X12614706Y-10907079D02*
X12624229Y-10888031D01*
X12624229Y-10888031D02*
X12633753Y-10878508D01*
X12633753Y-10878508D02*
X12652801Y-10868984D01*
X12652801Y-10868984D02*
X12690896Y-10868984D01*
X12690896Y-10868984D02*
X12709944Y-10878508D01*
X12709944Y-10878508D02*
X12719468Y-10888031D01*
X12719468Y-10888031D02*
X12728991Y-10907079D01*
X12728991Y-10907079D02*
X12728991Y-10916603D01*
X12728991Y-10916603D02*
X12719468Y-10935650D01*
X12719468Y-10935650D02*
X12709944Y-10945174D01*
X12709944Y-10945174D02*
X12690896Y-10954698D01*
X12690896Y-10954698D02*
X12652801Y-10954698D01*
X12652801Y-10954698D02*
X12633753Y-10964222D01*
X12633753Y-10964222D02*
X12624229Y-10973746D01*
X12624229Y-10973746D02*
X12614706Y-10992793D01*
X12614706Y-10992793D02*
X12614706Y-11030888D01*
X12614706Y-11030888D02*
X12624229Y-11049936D01*
X12624229Y-11049936D02*
X12633753Y-11059460D01*
X12633753Y-11059460D02*
X12652801Y-11068984D01*
X12652801Y-11068984D02*
X12690896Y-11068984D01*
X12690896Y-11068984D02*
X12709944Y-11059460D01*
X12709944Y-11059460D02*
X12719468Y-11049936D01*
X12719468Y-11049936D02*
X12728991Y-11030888D01*
X12728991Y-11030888D02*
X12728991Y-10992793D01*
X12728991Y-10992793D02*
X12719468Y-10973746D01*
X12719468Y-10973746D02*
X12709944Y-10964222D01*
X12709944Y-10964222D02*
X12690896Y-10954698D01*
X12805182Y-10888031D02*
X12814706Y-10878508D01*
X12814706Y-10878508D02*
X12833753Y-10868984D01*
X12833753Y-10868984D02*
X12881372Y-10868984D01*
X12881372Y-10868984D02*
X12900420Y-10878508D01*
X12900420Y-10878508D02*
X12909944Y-10888031D01*
X12909944Y-10888031D02*
X12919468Y-10907079D01*
X12919468Y-10907079D02*
X12919468Y-10926127D01*
X12919468Y-10926127D02*
X12909944Y-10954698D01*
X12909944Y-10954698D02*
X12795658Y-11068984D01*
X12795658Y-11068984D02*
X12919468Y-11068984D01*
X12986134Y-10868984D02*
X13119468Y-10868984D01*
X13119468Y-10868984D02*
X13033753Y-11068984D01*
X13186134Y-10868984D02*
X13186134Y-10907079D01*
X13262325Y-10868984D02*
X13262325Y-10907079D01*
X13557563Y-11145174D02*
X13548039Y-11135650D01*
X13548039Y-11135650D02*
X13528991Y-11107079D01*
X13528991Y-11107079D02*
X13519468Y-11088031D01*
X13519468Y-11088031D02*
X13509944Y-11059460D01*
X13509944Y-11059460D02*
X13500420Y-11011841D01*
X13500420Y-11011841D02*
X13500420Y-10973746D01*
X13500420Y-10973746D02*
X13509944Y-10926127D01*
X13509944Y-10926127D02*
X13519468Y-10897555D01*
X13519468Y-10897555D02*
X13528991Y-10878508D01*
X13528991Y-10878508D02*
X13548039Y-10849936D01*
X13548039Y-10849936D02*
X13557563Y-10840412D01*
X13624230Y-10888031D02*
X13633753Y-10878508D01*
X13633753Y-10878508D02*
X13652801Y-10868984D01*
X13652801Y-10868984D02*
X13700420Y-10868984D01*
X13700420Y-10868984D02*
X13719468Y-10878508D01*
X13719468Y-10878508D02*
X13728991Y-10888031D01*
X13728991Y-10888031D02*
X13738515Y-10907079D01*
X13738515Y-10907079D02*
X13738515Y-10926127D01*
X13738515Y-10926127D02*
X13728991Y-10954698D01*
X13728991Y-10954698D02*
X13614706Y-11068984D01*
X13614706Y-11068984D02*
X13738515Y-11068984D01*
X13976611Y-11068984D02*
X13976611Y-10868984D01*
X14062325Y-11068984D02*
X14062325Y-10964222D01*
X14062325Y-10964222D02*
X14052801Y-10945174D01*
X14052801Y-10945174D02*
X14033753Y-10935650D01*
X14033753Y-10935650D02*
X14005182Y-10935650D01*
X14005182Y-10935650D02*
X13986134Y-10945174D01*
X13986134Y-10945174D02*
X13976611Y-10954698D01*
X14186134Y-11068984D02*
X14167087Y-11059460D01*
X14167087Y-11059460D02*
X14157563Y-11049936D01*
X14157563Y-11049936D02*
X14148039Y-11030888D01*
X14148039Y-11030888D02*
X14148039Y-10973746D01*
X14148039Y-10973746D02*
X14157563Y-10954698D01*
X14157563Y-10954698D02*
X14167087Y-10945174D01*
X14167087Y-10945174D02*
X14186134Y-10935650D01*
X14186134Y-10935650D02*
X14214706Y-10935650D01*
X14214706Y-10935650D02*
X14233753Y-10945174D01*
X14233753Y-10945174D02*
X14243277Y-10954698D01*
X14243277Y-10954698D02*
X14252801Y-10973746D01*
X14252801Y-10973746D02*
X14252801Y-11030888D01*
X14252801Y-11030888D02*
X14243277Y-11049936D01*
X14243277Y-11049936D02*
X14233753Y-11059460D01*
X14233753Y-11059460D02*
X14214706Y-11068984D01*
X14214706Y-11068984D02*
X14186134Y-11068984D01*
X14367087Y-11068984D02*
X14348039Y-11059460D01*
X14348039Y-11059460D02*
X14338515Y-11040412D01*
X14338515Y-11040412D02*
X14338515Y-10868984D01*
X14519468Y-11059460D02*
X14500420Y-11068984D01*
X14500420Y-11068984D02*
X14462325Y-11068984D01*
X14462325Y-11068984D02*
X14443277Y-11059460D01*
X14443277Y-11059460D02*
X14433753Y-11040412D01*
X14433753Y-11040412D02*
X14433753Y-10964222D01*
X14433753Y-10964222D02*
X14443277Y-10945174D01*
X14443277Y-10945174D02*
X14462325Y-10935650D01*
X14462325Y-10935650D02*
X14500420Y-10935650D01*
X14500420Y-10935650D02*
X14519468Y-10945174D01*
X14519468Y-10945174D02*
X14528992Y-10964222D01*
X14528992Y-10964222D02*
X14528992Y-10983269D01*
X14528992Y-10983269D02*
X14433753Y-11002317D01*
X14605182Y-11059460D02*
X14624230Y-11068984D01*
X14624230Y-11068984D02*
X14662325Y-11068984D01*
X14662325Y-11068984D02*
X14681373Y-11059460D01*
X14681373Y-11059460D02*
X14690896Y-11040412D01*
X14690896Y-11040412D02*
X14690896Y-11030888D01*
X14690896Y-11030888D02*
X14681373Y-11011841D01*
X14681373Y-11011841D02*
X14662325Y-11002317D01*
X14662325Y-11002317D02*
X14633753Y-11002317D01*
X14633753Y-11002317D02*
X14614706Y-10992793D01*
X14614706Y-10992793D02*
X14605182Y-10973746D01*
X14605182Y-10973746D02*
X14605182Y-10964222D01*
X14605182Y-10964222D02*
X14614706Y-10945174D01*
X14614706Y-10945174D02*
X14633753Y-10935650D01*
X14633753Y-10935650D02*
X14662325Y-10935650D01*
X14662325Y-10935650D02*
X14681373Y-10945174D01*
X14757563Y-11145174D02*
X14767087Y-11135650D01*
X14767087Y-11135650D02*
X14786134Y-11107079D01*
X14786134Y-11107079D02*
X14795658Y-11088031D01*
X14795658Y-11088031D02*
X14805182Y-11059460D01*
X14805182Y-11059460D02*
X14814706Y-11011841D01*
X14814706Y-11011841D02*
X14814706Y-10973746D01*
X14814706Y-10973746D02*
X14805182Y-10926127D01*
X14805182Y-10926127D02*
X14795658Y-10897555D01*
X14795658Y-10897555D02*
X14786134Y-10878508D01*
X14786134Y-10878508D02*
X14767087Y-10849936D01*
X14767087Y-10849936D02*
X14757563Y-10840412D01*
X15119468Y-11145174D02*
X15109944Y-11135650D01*
X15109944Y-11135650D02*
X15090896Y-11107079D01*
X15090896Y-11107079D02*
X15081373Y-11088031D01*
X15081373Y-11088031D02*
X15071849Y-11059460D01*
X15071849Y-11059460D02*
X15062325Y-11011841D01*
X15062325Y-11011841D02*
X15062325Y-10973746D01*
X15062325Y-10973746D02*
X15071849Y-10926127D01*
X15071849Y-10926127D02*
X15081373Y-10897555D01*
X15081373Y-10897555D02*
X15090896Y-10878508D01*
X15090896Y-10878508D02*
X15109944Y-10849936D01*
X15109944Y-10849936D02*
X15119468Y-10840412D01*
X15195658Y-10935650D02*
X15195658Y-11068984D01*
X15195658Y-10954698D02*
X15205182Y-10945174D01*
X15205182Y-10945174D02*
X15224230Y-10935650D01*
X15224230Y-10935650D02*
X15252801Y-10935650D01*
X15252801Y-10935650D02*
X15271849Y-10945174D01*
X15271849Y-10945174D02*
X15281373Y-10964222D01*
X15281373Y-10964222D02*
X15281373Y-11068984D01*
X15405182Y-11068984D02*
X15386134Y-11059460D01*
X15386134Y-11059460D02*
X15376611Y-11049936D01*
X15376611Y-11049936D02*
X15367087Y-11030888D01*
X15367087Y-11030888D02*
X15367087Y-10973746D01*
X15367087Y-10973746D02*
X15376611Y-10954698D01*
X15376611Y-10954698D02*
X15386134Y-10945174D01*
X15386134Y-10945174D02*
X15405182Y-10935650D01*
X15405182Y-10935650D02*
X15433754Y-10935650D01*
X15433754Y-10935650D02*
X15452801Y-10945174D01*
X15452801Y-10945174D02*
X15462325Y-10954698D01*
X15462325Y-10954698D02*
X15471849Y-10973746D01*
X15471849Y-10973746D02*
X15471849Y-11030888D01*
X15471849Y-11030888D02*
X15462325Y-11049936D01*
X15462325Y-11049936D02*
X15452801Y-11059460D01*
X15452801Y-11059460D02*
X15433754Y-11068984D01*
X15433754Y-11068984D02*
X15405182Y-11068984D01*
X15528992Y-10935650D02*
X15605182Y-10935650D01*
X15557563Y-10868984D02*
X15557563Y-11040412D01*
X15557563Y-11040412D02*
X15567087Y-11059460D01*
X15567087Y-11059460D02*
X15586134Y-11068984D01*
X15586134Y-11068984D02*
X15605182Y-11068984D01*
X15824230Y-10935650D02*
X15824230Y-11135650D01*
X15824230Y-10945174D02*
X15843277Y-10935650D01*
X15843277Y-10935650D02*
X15881373Y-10935650D01*
X15881373Y-10935650D02*
X15900420Y-10945174D01*
X15900420Y-10945174D02*
X15909944Y-10954698D01*
X15909944Y-10954698D02*
X15919468Y-10973746D01*
X15919468Y-10973746D02*
X15919468Y-11030888D01*
X15919468Y-11030888D02*
X15909944Y-11049936D01*
X15909944Y-11049936D02*
X15900420Y-11059460D01*
X15900420Y-11059460D02*
X15881373Y-11068984D01*
X15881373Y-11068984D02*
X15843277Y-11068984D01*
X15843277Y-11068984D02*
X15824230Y-11059460D01*
X16033754Y-11068984D02*
X16014706Y-11059460D01*
X16014706Y-11059460D02*
X16005182Y-11040412D01*
X16005182Y-11040412D02*
X16005182Y-10868984D01*
X16195658Y-11068984D02*
X16195658Y-10964222D01*
X16195658Y-10964222D02*
X16186135Y-10945174D01*
X16186135Y-10945174D02*
X16167087Y-10935650D01*
X16167087Y-10935650D02*
X16128992Y-10935650D01*
X16128992Y-10935650D02*
X16109944Y-10945174D01*
X16195658Y-11059460D02*
X16176611Y-11068984D01*
X16176611Y-11068984D02*
X16128992Y-11068984D01*
X16128992Y-11068984D02*
X16109944Y-11059460D01*
X16109944Y-11059460D02*
X16100420Y-11040412D01*
X16100420Y-11040412D02*
X16100420Y-11021365D01*
X16100420Y-11021365D02*
X16109944Y-11002317D01*
X16109944Y-11002317D02*
X16128992Y-10992793D01*
X16128992Y-10992793D02*
X16176611Y-10992793D01*
X16176611Y-10992793D02*
X16195658Y-10983269D01*
X16262325Y-10935650D02*
X16338515Y-10935650D01*
X16290896Y-10868984D02*
X16290896Y-11040412D01*
X16290896Y-11040412D02*
X16300420Y-11059460D01*
X16300420Y-11059460D02*
X16319468Y-11068984D01*
X16319468Y-11068984D02*
X16338515Y-11068984D01*
X16481373Y-11059460D02*
X16462325Y-11068984D01*
X16462325Y-11068984D02*
X16424230Y-11068984D01*
X16424230Y-11068984D02*
X16405182Y-11059460D01*
X16405182Y-11059460D02*
X16395658Y-11040412D01*
X16395658Y-11040412D02*
X16395658Y-10964222D01*
X16395658Y-10964222D02*
X16405182Y-10945174D01*
X16405182Y-10945174D02*
X16424230Y-10935650D01*
X16424230Y-10935650D02*
X16462325Y-10935650D01*
X16462325Y-10935650D02*
X16481373Y-10945174D01*
X16481373Y-10945174D02*
X16490896Y-10964222D01*
X16490896Y-10964222D02*
X16490896Y-10983269D01*
X16490896Y-10983269D02*
X16395658Y-11002317D01*
X16662325Y-11068984D02*
X16662325Y-10868984D01*
X16662325Y-11059460D02*
X16643277Y-11068984D01*
X16643277Y-11068984D02*
X16605182Y-11068984D01*
X16605182Y-11068984D02*
X16586135Y-11059460D01*
X16586135Y-11059460D02*
X16576611Y-11049936D01*
X16576611Y-11049936D02*
X16567087Y-11030888D01*
X16567087Y-11030888D02*
X16567087Y-10973746D01*
X16567087Y-10973746D02*
X16576611Y-10954698D01*
X16576611Y-10954698D02*
X16586135Y-10945174D01*
X16586135Y-10945174D02*
X16605182Y-10935650D01*
X16605182Y-10935650D02*
X16643277Y-10935650D01*
X16643277Y-10935650D02*
X16662325Y-10945174D01*
X16738516Y-11145174D02*
X16748039Y-11135650D01*
X16748039Y-11135650D02*
X16767087Y-11107079D01*
X16767087Y-11107079D02*
X16776611Y-11088031D01*
X16776611Y-11088031D02*
X16786135Y-11059460D01*
X16786135Y-11059460D02*
X16795658Y-11011841D01*
X16795658Y-11011841D02*
X16795658Y-10973746D01*
X16795658Y-10973746D02*
X16786135Y-10926127D01*
X16786135Y-10926127D02*
X16776611Y-10897555D01*
X16776611Y-10897555D02*
X16767087Y-10878508D01*
X16767087Y-10878508D02*
X16748039Y-10849936D01*
X16748039Y-10849936D02*
X16738516Y-10840412D01*
X9882500Y-11197500D02*
X9882500Y-11397500D01*
X9782500Y-11297500D02*
X9982500Y-11297500D01*
X10348039Y-11388984D02*
X10233753Y-11388984D01*
X10290896Y-11388984D02*
X10290896Y-11188984D01*
X10290896Y-11188984D02*
X10271848Y-11217555D01*
X10271848Y-11217555D02*
X10252801Y-11236603D01*
X10252801Y-11236603D02*
X10233753Y-11246126D01*
X10471848Y-11188984D02*
X10490896Y-11188984D01*
X10490896Y-11188984D02*
X10509944Y-11198507D01*
X10509944Y-11198507D02*
X10519467Y-11208031D01*
X10519467Y-11208031D02*
X10528991Y-11227079D01*
X10528991Y-11227079D02*
X10538515Y-11265174D01*
X10538515Y-11265174D02*
X10538515Y-11312793D01*
X10538515Y-11312793D02*
X10528991Y-11350888D01*
X10528991Y-11350888D02*
X10519467Y-11369936D01*
X10519467Y-11369936D02*
X10509944Y-11379460D01*
X10509944Y-11379460D02*
X10490896Y-11388984D01*
X10490896Y-11388984D02*
X10471848Y-11388984D01*
X10471848Y-11388984D02*
X10452801Y-11379460D01*
X10452801Y-11379460D02*
X10443277Y-11369936D01*
X10443277Y-11369936D02*
X10433753Y-11350888D01*
X10433753Y-11350888D02*
X10424229Y-11312793D01*
X10424229Y-11312793D02*
X10424229Y-11265174D01*
X10424229Y-11265174D02*
X10433753Y-11227079D01*
X10433753Y-11227079D02*
X10443277Y-11208031D01*
X10443277Y-11208031D02*
X10452801Y-11198507D01*
X10452801Y-11198507D02*
X10471848Y-11188984D01*
X10624229Y-11369936D02*
X10633753Y-11379460D01*
X10633753Y-11379460D02*
X10624229Y-11388984D01*
X10624229Y-11388984D02*
X10614706Y-11379460D01*
X10614706Y-11379460D02*
X10624229Y-11369936D01*
X10624229Y-11369936D02*
X10624229Y-11388984D01*
X10757563Y-11188984D02*
X10776610Y-11188984D01*
X10776610Y-11188984D02*
X10795658Y-11198507D01*
X10795658Y-11198507D02*
X10805182Y-11208031D01*
X10805182Y-11208031D02*
X10814706Y-11227079D01*
X10814706Y-11227079D02*
X10824229Y-11265174D01*
X10824229Y-11265174D02*
X10824229Y-11312793D01*
X10824229Y-11312793D02*
X10814706Y-11350888D01*
X10814706Y-11350888D02*
X10805182Y-11369936D01*
X10805182Y-11369936D02*
X10795658Y-11379460D01*
X10795658Y-11379460D02*
X10776610Y-11388984D01*
X10776610Y-11388984D02*
X10757563Y-11388984D01*
X10757563Y-11388984D02*
X10738515Y-11379460D01*
X10738515Y-11379460D02*
X10728991Y-11369936D01*
X10728991Y-11369936D02*
X10719467Y-11350888D01*
X10719467Y-11350888D02*
X10709944Y-11312793D01*
X10709944Y-11312793D02*
X10709944Y-11265174D01*
X10709944Y-11265174D02*
X10719467Y-11227079D01*
X10719467Y-11227079D02*
X10728991Y-11208031D01*
X10728991Y-11208031D02*
X10738515Y-11198507D01*
X10738515Y-11198507D02*
X10757563Y-11188984D01*
X10948039Y-11188984D02*
X10967087Y-11188984D01*
X10967087Y-11188984D02*
X10986134Y-11198507D01*
X10986134Y-11198507D02*
X10995658Y-11208031D01*
X10995658Y-11208031D02*
X11005182Y-11227079D01*
X11005182Y-11227079D02*
X11014706Y-11265174D01*
X11014706Y-11265174D02*
X11014706Y-11312793D01*
X11014706Y-11312793D02*
X11005182Y-11350888D01*
X11005182Y-11350888D02*
X10995658Y-11369936D01*
X10995658Y-11369936D02*
X10986134Y-11379460D01*
X10986134Y-11379460D02*
X10967087Y-11388984D01*
X10967087Y-11388984D02*
X10948039Y-11388984D01*
X10948039Y-11388984D02*
X10928991Y-11379460D01*
X10928991Y-11379460D02*
X10919467Y-11369936D01*
X10919467Y-11369936D02*
X10909944Y-11350888D01*
X10909944Y-11350888D02*
X10900420Y-11312793D01*
X10900420Y-11312793D02*
X10900420Y-11265174D01*
X10900420Y-11265174D02*
X10909944Y-11227079D01*
X10909944Y-11227079D02*
X10919467Y-11208031D01*
X10919467Y-11208031D02*
X10928991Y-11198507D01*
X10928991Y-11198507D02*
X10948039Y-11188984D01*
X11138515Y-11188984D02*
X11157563Y-11188984D01*
X11157563Y-11188984D02*
X11176610Y-11198507D01*
X11176610Y-11198507D02*
X11186134Y-11208031D01*
X11186134Y-11208031D02*
X11195658Y-11227079D01*
X11195658Y-11227079D02*
X11205182Y-11265174D01*
X11205182Y-11265174D02*
X11205182Y-11312793D01*
X11205182Y-11312793D02*
X11195658Y-11350888D01*
X11195658Y-11350888D02*
X11186134Y-11369936D01*
X11186134Y-11369936D02*
X11176610Y-11379460D01*
X11176610Y-11379460D02*
X11157563Y-11388984D01*
X11157563Y-11388984D02*
X11138515Y-11388984D01*
X11138515Y-11388984D02*
X11119467Y-11379460D01*
X11119467Y-11379460D02*
X11109944Y-11369936D01*
X11109944Y-11369936D02*
X11100420Y-11350888D01*
X11100420Y-11350888D02*
X11090896Y-11312793D01*
X11090896Y-11312793D02*
X11090896Y-11265174D01*
X11090896Y-11265174D02*
X11100420Y-11227079D01*
X11100420Y-11227079D02*
X11109944Y-11208031D01*
X11109944Y-11208031D02*
X11119467Y-11198507D01*
X11119467Y-11198507D02*
X11138515Y-11188984D01*
X11290896Y-11388984D02*
X11290896Y-11255650D01*
X11290896Y-11274698D02*
X11300420Y-11265174D01*
X11300420Y-11265174D02*
X11319467Y-11255650D01*
X11319467Y-11255650D02*
X11348039Y-11255650D01*
X11348039Y-11255650D02*
X11367086Y-11265174D01*
X11367086Y-11265174D02*
X11376610Y-11284222D01*
X11376610Y-11284222D02*
X11376610Y-11388984D01*
X11376610Y-11284222D02*
X11386134Y-11265174D01*
X11386134Y-11265174D02*
X11405182Y-11255650D01*
X11405182Y-11255650D02*
X11433753Y-11255650D01*
X11433753Y-11255650D02*
X11452801Y-11265174D01*
X11452801Y-11265174D02*
X11462325Y-11284222D01*
X11462325Y-11284222D02*
X11462325Y-11388984D01*
X11557563Y-11388984D02*
X11557563Y-11255650D01*
X11557563Y-11274698D02*
X11567086Y-11265174D01*
X11567086Y-11265174D02*
X11586134Y-11255650D01*
X11586134Y-11255650D02*
X11614706Y-11255650D01*
X11614706Y-11255650D02*
X11633753Y-11265174D01*
X11633753Y-11265174D02*
X11643277Y-11284222D01*
X11643277Y-11284222D02*
X11643277Y-11388984D01*
X11643277Y-11284222D02*
X11652801Y-11265174D01*
X11652801Y-11265174D02*
X11671848Y-11255650D01*
X11671848Y-11255650D02*
X11700420Y-11255650D01*
X11700420Y-11255650D02*
X11719467Y-11265174D01*
X11719467Y-11265174D02*
X11728991Y-11284222D01*
X11728991Y-11284222D02*
X11728991Y-11388984D01*
X12119467Y-11179460D02*
X11948039Y-11436603D01*
X12376610Y-11188984D02*
X12395658Y-11188984D01*
X12395658Y-11188984D02*
X12414706Y-11198507D01*
X12414706Y-11198507D02*
X12424229Y-11208031D01*
X12424229Y-11208031D02*
X12433753Y-11227079D01*
X12433753Y-11227079D02*
X12443277Y-11265174D01*
X12443277Y-11265174D02*
X12443277Y-11312793D01*
X12443277Y-11312793D02*
X12433753Y-11350888D01*
X12433753Y-11350888D02*
X12424229Y-11369936D01*
X12424229Y-11369936D02*
X12414706Y-11379460D01*
X12414706Y-11379460D02*
X12395658Y-11388984D01*
X12395658Y-11388984D02*
X12376610Y-11388984D01*
X12376610Y-11388984D02*
X12357563Y-11379460D01*
X12357563Y-11379460D02*
X12348039Y-11369936D01*
X12348039Y-11369936D02*
X12338515Y-11350888D01*
X12338515Y-11350888D02*
X12328991Y-11312793D01*
X12328991Y-11312793D02*
X12328991Y-11265174D01*
X12328991Y-11265174D02*
X12338515Y-11227079D01*
X12338515Y-11227079D02*
X12348039Y-11208031D01*
X12348039Y-11208031D02*
X12357563Y-11198507D01*
X12357563Y-11198507D02*
X12376610Y-11188984D01*
X12528991Y-11369936D02*
X12538515Y-11379460D01*
X12538515Y-11379460D02*
X12528991Y-11388984D01*
X12528991Y-11388984D02*
X12519468Y-11379460D01*
X12519468Y-11379460D02*
X12528991Y-11369936D01*
X12528991Y-11369936D02*
X12528991Y-11388984D01*
X12605182Y-11188984D02*
X12728991Y-11188984D01*
X12728991Y-11188984D02*
X12662325Y-11265174D01*
X12662325Y-11265174D02*
X12690896Y-11265174D01*
X12690896Y-11265174D02*
X12709944Y-11274698D01*
X12709944Y-11274698D02*
X12719468Y-11284222D01*
X12719468Y-11284222D02*
X12728991Y-11303269D01*
X12728991Y-11303269D02*
X12728991Y-11350888D01*
X12728991Y-11350888D02*
X12719468Y-11369936D01*
X12719468Y-11369936D02*
X12709944Y-11379460D01*
X12709944Y-11379460D02*
X12690896Y-11388984D01*
X12690896Y-11388984D02*
X12633753Y-11388984D01*
X12633753Y-11388984D02*
X12614706Y-11379460D01*
X12614706Y-11379460D02*
X12605182Y-11369936D01*
X12824229Y-11388984D02*
X12862325Y-11388984D01*
X12862325Y-11388984D02*
X12881372Y-11379460D01*
X12881372Y-11379460D02*
X12890896Y-11369936D01*
X12890896Y-11369936D02*
X12909944Y-11341365D01*
X12909944Y-11341365D02*
X12919468Y-11303269D01*
X12919468Y-11303269D02*
X12919468Y-11227079D01*
X12919468Y-11227079D02*
X12909944Y-11208031D01*
X12909944Y-11208031D02*
X12900420Y-11198507D01*
X12900420Y-11198507D02*
X12881372Y-11188984D01*
X12881372Y-11188984D02*
X12843277Y-11188984D01*
X12843277Y-11188984D02*
X12824229Y-11198507D01*
X12824229Y-11198507D02*
X12814706Y-11208031D01*
X12814706Y-11208031D02*
X12805182Y-11227079D01*
X12805182Y-11227079D02*
X12805182Y-11274698D01*
X12805182Y-11274698D02*
X12814706Y-11293746D01*
X12814706Y-11293746D02*
X12824229Y-11303269D01*
X12824229Y-11303269D02*
X12843277Y-11312793D01*
X12843277Y-11312793D02*
X12881372Y-11312793D01*
X12881372Y-11312793D02*
X12900420Y-11303269D01*
X12900420Y-11303269D02*
X12909944Y-11293746D01*
X12909944Y-11293746D02*
X12919468Y-11274698D01*
X12986134Y-11188984D02*
X13109944Y-11188984D01*
X13109944Y-11188984D02*
X13043277Y-11265174D01*
X13043277Y-11265174D02*
X13071849Y-11265174D01*
X13071849Y-11265174D02*
X13090896Y-11274698D01*
X13090896Y-11274698D02*
X13100420Y-11284222D01*
X13100420Y-11284222D02*
X13109944Y-11303269D01*
X13109944Y-11303269D02*
X13109944Y-11350888D01*
X13109944Y-11350888D02*
X13100420Y-11369936D01*
X13100420Y-11369936D02*
X13090896Y-11379460D01*
X13090896Y-11379460D02*
X13071849Y-11388984D01*
X13071849Y-11388984D02*
X13014706Y-11388984D01*
X13014706Y-11388984D02*
X12995658Y-11379460D01*
X12995658Y-11379460D02*
X12986134Y-11369936D01*
X13176610Y-11188984D02*
X13309944Y-11188984D01*
X13309944Y-11188984D02*
X13224229Y-11388984D01*
X13376610Y-11188984D02*
X13376610Y-11227079D01*
X13452801Y-11188984D02*
X13452801Y-11227079D01*
X13748039Y-11465174D02*
X13738515Y-11455650D01*
X13738515Y-11455650D02*
X13719468Y-11427079D01*
X13719468Y-11427079D02*
X13709944Y-11408031D01*
X13709944Y-11408031D02*
X13700420Y-11379460D01*
X13700420Y-11379460D02*
X13690896Y-11331841D01*
X13690896Y-11331841D02*
X13690896Y-11293746D01*
X13690896Y-11293746D02*
X13700420Y-11246126D01*
X13700420Y-11246126D02*
X13709944Y-11217555D01*
X13709944Y-11217555D02*
X13719468Y-11198507D01*
X13719468Y-11198507D02*
X13738515Y-11169936D01*
X13738515Y-11169936D02*
X13748039Y-11160412D01*
X13805182Y-11188984D02*
X13928991Y-11188984D01*
X13928991Y-11188984D02*
X13862325Y-11265174D01*
X13862325Y-11265174D02*
X13890896Y-11265174D01*
X13890896Y-11265174D02*
X13909944Y-11274698D01*
X13909944Y-11274698D02*
X13919468Y-11284222D01*
X13919468Y-11284222D02*
X13928991Y-11303269D01*
X13928991Y-11303269D02*
X13928991Y-11350888D01*
X13928991Y-11350888D02*
X13919468Y-11369936D01*
X13919468Y-11369936D02*
X13909944Y-11379460D01*
X13909944Y-11379460D02*
X13890896Y-11388984D01*
X13890896Y-11388984D02*
X13833753Y-11388984D01*
X13833753Y-11388984D02*
X13814706Y-11379460D01*
X13814706Y-11379460D02*
X13805182Y-11369936D01*
X14167087Y-11388984D02*
X14167087Y-11188984D01*
X14252801Y-11388984D02*
X14252801Y-11284222D01*
X14252801Y-11284222D02*
X14243277Y-11265174D01*
X14243277Y-11265174D02*
X14224230Y-11255650D01*
X14224230Y-11255650D02*
X14195658Y-11255650D01*
X14195658Y-11255650D02*
X14176611Y-11265174D01*
X14176611Y-11265174D02*
X14167087Y-11274698D01*
X14376611Y-11388984D02*
X14357563Y-11379460D01*
X14357563Y-11379460D02*
X14348039Y-11369936D01*
X14348039Y-11369936D02*
X14338515Y-11350888D01*
X14338515Y-11350888D02*
X14338515Y-11293746D01*
X14338515Y-11293746D02*
X14348039Y-11274698D01*
X14348039Y-11274698D02*
X14357563Y-11265174D01*
X14357563Y-11265174D02*
X14376611Y-11255650D01*
X14376611Y-11255650D02*
X14405182Y-11255650D01*
X14405182Y-11255650D02*
X14424230Y-11265174D01*
X14424230Y-11265174D02*
X14433753Y-11274698D01*
X14433753Y-11274698D02*
X14443277Y-11293746D01*
X14443277Y-11293746D02*
X14443277Y-11350888D01*
X14443277Y-11350888D02*
X14433753Y-11369936D01*
X14433753Y-11369936D02*
X14424230Y-11379460D01*
X14424230Y-11379460D02*
X14405182Y-11388984D01*
X14405182Y-11388984D02*
X14376611Y-11388984D01*
X14557563Y-11388984D02*
X14538515Y-11379460D01*
X14538515Y-11379460D02*
X14528992Y-11360412D01*
X14528992Y-11360412D02*
X14528992Y-11188984D01*
X14709944Y-11379460D02*
X14690896Y-11388984D01*
X14690896Y-11388984D02*
X14652801Y-11388984D01*
X14652801Y-11388984D02*
X14633753Y-11379460D01*
X14633753Y-11379460D02*
X14624230Y-11360412D01*
X14624230Y-11360412D02*
X14624230Y-11284222D01*
X14624230Y-11284222D02*
X14633753Y-11265174D01*
X14633753Y-11265174D02*
X14652801Y-11255650D01*
X14652801Y-11255650D02*
X14690896Y-11255650D01*
X14690896Y-11255650D02*
X14709944Y-11265174D01*
X14709944Y-11265174D02*
X14719468Y-11284222D01*
X14719468Y-11284222D02*
X14719468Y-11303269D01*
X14719468Y-11303269D02*
X14624230Y-11322317D01*
X14795658Y-11379460D02*
X14814706Y-11388984D01*
X14814706Y-11388984D02*
X14852801Y-11388984D01*
X14852801Y-11388984D02*
X14871849Y-11379460D01*
X14871849Y-11379460D02*
X14881373Y-11360412D01*
X14881373Y-11360412D02*
X14881373Y-11350888D01*
X14881373Y-11350888D02*
X14871849Y-11331841D01*
X14871849Y-11331841D02*
X14852801Y-11322317D01*
X14852801Y-11322317D02*
X14824230Y-11322317D01*
X14824230Y-11322317D02*
X14805182Y-11312793D01*
X14805182Y-11312793D02*
X14795658Y-11293746D01*
X14795658Y-11293746D02*
X14795658Y-11284222D01*
X14795658Y-11284222D02*
X14805182Y-11265174D01*
X14805182Y-11265174D02*
X14824230Y-11255650D01*
X14824230Y-11255650D02*
X14852801Y-11255650D01*
X14852801Y-11255650D02*
X14871849Y-11265174D01*
X14948039Y-11465174D02*
X14957563Y-11455650D01*
X14957563Y-11455650D02*
X14976611Y-11427079D01*
X14976611Y-11427079D02*
X14986134Y-11408031D01*
X14986134Y-11408031D02*
X14995658Y-11379460D01*
X14995658Y-11379460D02*
X15005182Y-11331841D01*
X15005182Y-11331841D02*
X15005182Y-11293746D01*
X15005182Y-11293746D02*
X14995658Y-11246126D01*
X14995658Y-11246126D02*
X14986134Y-11217555D01*
X14986134Y-11217555D02*
X14976611Y-11198507D01*
X14976611Y-11198507D02*
X14957563Y-11169936D01*
X14957563Y-11169936D02*
X14948039Y-11160412D01*
X15309944Y-11465174D02*
X15300420Y-11455650D01*
X15300420Y-11455650D02*
X15281373Y-11427079D01*
X15281373Y-11427079D02*
X15271849Y-11408031D01*
X15271849Y-11408031D02*
X15262325Y-11379460D01*
X15262325Y-11379460D02*
X15252801Y-11331841D01*
X15252801Y-11331841D02*
X15252801Y-11293746D01*
X15252801Y-11293746D02*
X15262325Y-11246126D01*
X15262325Y-11246126D02*
X15271849Y-11217555D01*
X15271849Y-11217555D02*
X15281373Y-11198507D01*
X15281373Y-11198507D02*
X15300420Y-11169936D01*
X15300420Y-11169936D02*
X15309944Y-11160412D01*
X15386134Y-11255650D02*
X15386134Y-11388984D01*
X15386134Y-11274698D02*
X15395658Y-11265174D01*
X15395658Y-11265174D02*
X15414706Y-11255650D01*
X15414706Y-11255650D02*
X15443277Y-11255650D01*
X15443277Y-11255650D02*
X15462325Y-11265174D01*
X15462325Y-11265174D02*
X15471849Y-11284222D01*
X15471849Y-11284222D02*
X15471849Y-11388984D01*
X15595658Y-11388984D02*
X15576611Y-11379460D01*
X15576611Y-11379460D02*
X15567087Y-11369936D01*
X15567087Y-11369936D02*
X15557563Y-11350888D01*
X15557563Y-11350888D02*
X15557563Y-11293746D01*
X15557563Y-11293746D02*
X15567087Y-11274698D01*
X15567087Y-11274698D02*
X15576611Y-11265174D01*
X15576611Y-11265174D02*
X15595658Y-11255650D01*
X15595658Y-11255650D02*
X15624230Y-11255650D01*
X15624230Y-11255650D02*
X15643277Y-11265174D01*
X15643277Y-11265174D02*
X15652801Y-11274698D01*
X15652801Y-11274698D02*
X15662325Y-11293746D01*
X15662325Y-11293746D02*
X15662325Y-11350888D01*
X15662325Y-11350888D02*
X15652801Y-11369936D01*
X15652801Y-11369936D02*
X15643277Y-11379460D01*
X15643277Y-11379460D02*
X15624230Y-11388984D01*
X15624230Y-11388984D02*
X15595658Y-11388984D01*
X15719468Y-11255650D02*
X15795658Y-11255650D01*
X15748039Y-11188984D02*
X15748039Y-11360412D01*
X15748039Y-11360412D02*
X15757563Y-11379460D01*
X15757563Y-11379460D02*
X15776611Y-11388984D01*
X15776611Y-11388984D02*
X15795658Y-11388984D01*
X16014706Y-11255650D02*
X16014706Y-11455650D01*
X16014706Y-11265174D02*
X16033754Y-11255650D01*
X16033754Y-11255650D02*
X16071849Y-11255650D01*
X16071849Y-11255650D02*
X16090896Y-11265174D01*
X16090896Y-11265174D02*
X16100420Y-11274698D01*
X16100420Y-11274698D02*
X16109944Y-11293746D01*
X16109944Y-11293746D02*
X16109944Y-11350888D01*
X16109944Y-11350888D02*
X16100420Y-11369936D01*
X16100420Y-11369936D02*
X16090896Y-11379460D01*
X16090896Y-11379460D02*
X16071849Y-11388984D01*
X16071849Y-11388984D02*
X16033754Y-11388984D01*
X16033754Y-11388984D02*
X16014706Y-11379460D01*
X16224230Y-11388984D02*
X16205182Y-11379460D01*
X16205182Y-11379460D02*
X16195658Y-11360412D01*
X16195658Y-11360412D02*
X16195658Y-11188984D01*
X16386135Y-11388984D02*
X16386135Y-11284222D01*
X16386135Y-11284222D02*
X16376611Y-11265174D01*
X16376611Y-11265174D02*
X16357563Y-11255650D01*
X16357563Y-11255650D02*
X16319468Y-11255650D01*
X16319468Y-11255650D02*
X16300420Y-11265174D01*
X16386135Y-11379460D02*
X16367087Y-11388984D01*
X16367087Y-11388984D02*
X16319468Y-11388984D01*
X16319468Y-11388984D02*
X16300420Y-11379460D01*
X16300420Y-11379460D02*
X16290896Y-11360412D01*
X16290896Y-11360412D02*
X16290896Y-11341365D01*
X16290896Y-11341365D02*
X16300420Y-11322317D01*
X16300420Y-11322317D02*
X16319468Y-11312793D01*
X16319468Y-11312793D02*
X16367087Y-11312793D01*
X16367087Y-11312793D02*
X16386135Y-11303269D01*
X16452801Y-11255650D02*
X16528992Y-11255650D01*
X16481373Y-11188984D02*
X16481373Y-11360412D01*
X16481373Y-11360412D02*
X16490896Y-11379460D01*
X16490896Y-11379460D02*
X16509944Y-11388984D01*
X16509944Y-11388984D02*
X16528992Y-11388984D01*
X16671849Y-11379460D02*
X16652801Y-11388984D01*
X16652801Y-11388984D02*
X16614706Y-11388984D01*
X16614706Y-11388984D02*
X16595658Y-11379460D01*
X16595658Y-11379460D02*
X16586135Y-11360412D01*
X16586135Y-11360412D02*
X16586135Y-11284222D01*
X16586135Y-11284222D02*
X16595658Y-11265174D01*
X16595658Y-11265174D02*
X16614706Y-11255650D01*
X16614706Y-11255650D02*
X16652801Y-11255650D01*
X16652801Y-11255650D02*
X16671849Y-11265174D01*
X16671849Y-11265174D02*
X16681373Y-11284222D01*
X16681373Y-11284222D02*
X16681373Y-11303269D01*
X16681373Y-11303269D02*
X16586135Y-11322317D01*
X16852801Y-11388984D02*
X16852801Y-11188984D01*
X16852801Y-11379460D02*
X16833754Y-11388984D01*
X16833754Y-11388984D02*
X16795658Y-11388984D01*
X16795658Y-11388984D02*
X16776611Y-11379460D01*
X16776611Y-11379460D02*
X16767087Y-11369936D01*
X16767087Y-11369936D02*
X16757563Y-11350888D01*
X16757563Y-11350888D02*
X16757563Y-11293746D01*
X16757563Y-11293746D02*
X16767087Y-11274698D01*
X16767087Y-11274698D02*
X16776611Y-11265174D01*
X16776611Y-11265174D02*
X16795658Y-11255650D01*
X16795658Y-11255650D02*
X16833754Y-11255650D01*
X16833754Y-11255650D02*
X16852801Y-11265174D01*
X16928992Y-11465174D02*
X16938516Y-11455650D01*
X16938516Y-11455650D02*
X16957563Y-11427079D01*
X16957563Y-11427079D02*
X16967087Y-11408031D01*
X16967087Y-11408031D02*
X16976611Y-11379460D01*
X16976611Y-11379460D02*
X16986135Y-11331841D01*
X16986135Y-11331841D02*
X16986135Y-11293746D01*
X16986135Y-11293746D02*
X16976611Y-11246126D01*
X16976611Y-11246126D02*
X16967087Y-11217555D01*
X16967087Y-11217555D02*
X16957563Y-11198507D01*
X16957563Y-11198507D02*
X16938516Y-11169936D01*
X16938516Y-11169936D02*
X16928992Y-11160412D01*
M02*
