%TF.GenerationSoftware,KiCad,Pcbnew,7.0.5-0*%
%TF.CreationDate,2024-04-21T21:04:40-04:00*%
%TF.ProjectId,swr_meter_top,7377725f-6d65-4746-9572-5f746f702e6b,rev?*%
%TF.SameCoordinates,Original*%
%TF.FileFunction,Legend,Top*%
%TF.FilePolarity,Positive*%
%FSLAX46Y46*%
G04 Gerber Fmt 4.6, Leading zero omitted, Abs format (unit mm)*
G04 Created by KiCad (PCBNEW 7.0.5-0) date 2024-04-21 21:04:40*
%MOMM*%
%LPD*%
G01*
G04 APERTURE LIST*
%ADD10C,0.400000*%
%ADD11C,0.250000*%
%ADD12C,0.500000*%
G04 APERTURE END LIST*
D10*
X128315882Y-95749992D02*
X129315882Y-95749992D01*
X147815882Y-93749992D02*
X149815882Y-93749992D01*
X126315882Y-93749992D02*
X128315882Y-93749992D01*
X149815882Y-90499992D02*
X149815882Y-91499992D01*
X147815882Y-95749992D02*
X147815882Y-93749992D01*
X128315882Y-93749992D02*
X128315882Y-95749992D01*
X126315882Y-90499992D02*
X128315882Y-90499992D01*
X149815882Y-91499992D02*
X150815882Y-91499992D01*
X126315882Y-91499992D02*
X126315882Y-90499992D01*
X146815882Y-91499992D02*
X147815882Y-91499992D01*
X128315882Y-90499992D02*
X128315882Y-91499992D01*
X146815882Y-95749992D02*
X147815882Y-95749992D01*
X149815882Y-93749992D02*
X149815882Y-95749992D01*
X125315882Y-95749992D02*
X126315882Y-95749992D01*
D11*
X171815882Y-87499992D02*
X104315882Y-87499992D01*
D10*
X125315882Y-91499992D02*
X126315882Y-91499992D01*
X147815882Y-90499992D02*
X149815882Y-90499992D01*
X149815882Y-95749992D02*
X150815882Y-95749992D01*
X128315882Y-91499992D02*
X129315882Y-91499992D01*
X126315882Y-95749992D02*
X126315882Y-93749992D01*
X147815882Y-91499992D02*
X147815882Y-90499992D01*
D12*
X113216256Y-91606849D02*
X113216256Y-88606849D01*
X113216256Y-88606849D02*
X114359113Y-88606849D01*
X114359113Y-88606849D02*
X114644828Y-88749706D01*
X114644828Y-88749706D02*
X114787685Y-88892563D01*
X114787685Y-88892563D02*
X114930542Y-89178277D01*
X114930542Y-89178277D02*
X114930542Y-89606849D01*
X114930542Y-89606849D02*
X114787685Y-89892563D01*
X114787685Y-89892563D02*
X114644828Y-90035420D01*
X114644828Y-90035420D02*
X114359113Y-90178277D01*
X114359113Y-90178277D02*
X113216256Y-90178277D01*
X116216256Y-90035420D02*
X117216256Y-90035420D01*
X117644828Y-91606849D02*
X116216256Y-91606849D01*
X116216256Y-91606849D02*
X116216256Y-88606849D01*
X116216256Y-88606849D02*
X117644828Y-88606849D01*
X118787685Y-90749706D02*
X120216257Y-90749706D01*
X118501971Y-91606849D02*
X119501971Y-88606849D01*
X119501971Y-88606849D02*
X120501971Y-91606849D01*
X121501971Y-91606849D02*
X121501971Y-88606849D01*
X123216257Y-91606849D02*
X121930543Y-89892563D01*
X123216257Y-88606849D02*
X121501971Y-90321134D01*
X133644827Y-91606849D02*
X133644827Y-88606849D01*
X133644827Y-90035420D02*
X135359113Y-90035420D01*
X135359113Y-91606849D02*
X135359113Y-88606849D01*
X136787684Y-91606849D02*
X136787684Y-88606849D01*
X139787684Y-88749706D02*
X139501970Y-88606849D01*
X139501970Y-88606849D02*
X139073398Y-88606849D01*
X139073398Y-88606849D02*
X138644827Y-88749706D01*
X138644827Y-88749706D02*
X138359112Y-89035420D01*
X138359112Y-89035420D02*
X138216255Y-89321134D01*
X138216255Y-89321134D02*
X138073398Y-89892563D01*
X138073398Y-89892563D02*
X138073398Y-90321134D01*
X138073398Y-90321134D02*
X138216255Y-90892563D01*
X138216255Y-90892563D02*
X138359112Y-91178277D01*
X138359112Y-91178277D02*
X138644827Y-91463992D01*
X138644827Y-91463992D02*
X139073398Y-91606849D01*
X139073398Y-91606849D02*
X139359112Y-91606849D01*
X139359112Y-91606849D02*
X139787684Y-91463992D01*
X139787684Y-91463992D02*
X139930541Y-91321134D01*
X139930541Y-91321134D02*
X139930541Y-90321134D01*
X139930541Y-90321134D02*
X139359112Y-90321134D01*
X141216255Y-91606849D02*
X141216255Y-88606849D01*
X141216255Y-90035420D02*
X142930541Y-90035420D01*
X142930541Y-91606849D02*
X142930541Y-88606849D01*
X156359111Y-88606849D02*
X156930539Y-88606849D01*
X156930539Y-88606849D02*
X157216254Y-88749706D01*
X157216254Y-88749706D02*
X157501968Y-89035420D01*
X157501968Y-89035420D02*
X157644825Y-89606849D01*
X157644825Y-89606849D02*
X157644825Y-90606849D01*
X157644825Y-90606849D02*
X157501968Y-91178277D01*
X157501968Y-91178277D02*
X157216254Y-91463992D01*
X157216254Y-91463992D02*
X156930539Y-91606849D01*
X156930539Y-91606849D02*
X156359111Y-91606849D01*
X156359111Y-91606849D02*
X156073397Y-91463992D01*
X156073397Y-91463992D02*
X155787682Y-91178277D01*
X155787682Y-91178277D02*
X155644825Y-90606849D01*
X155644825Y-90606849D02*
X155644825Y-89606849D01*
X155644825Y-89606849D02*
X155787682Y-89035420D01*
X155787682Y-89035420D02*
X156073397Y-88749706D01*
X156073397Y-88749706D02*
X156359111Y-88606849D01*
X158930539Y-91606849D02*
X158930539Y-88606849D01*
X158930539Y-88606849D02*
X160644825Y-91606849D01*
X160644825Y-91606849D02*
X160644825Y-88606849D01*
X113101597Y-86356849D02*
X113101597Y-83356849D01*
X113101597Y-83356849D02*
X114101597Y-85499706D01*
X114101597Y-85499706D02*
X115101597Y-83356849D01*
X115101597Y-83356849D02*
X115101597Y-86356849D01*
X117101597Y-83356849D02*
X117673025Y-83356849D01*
X117673025Y-83356849D02*
X117958740Y-83499706D01*
X117958740Y-83499706D02*
X118244454Y-83785420D01*
X118244454Y-83785420D02*
X118387311Y-84356849D01*
X118387311Y-84356849D02*
X118387311Y-85356849D01*
X118387311Y-85356849D02*
X118244454Y-85928277D01*
X118244454Y-85928277D02*
X117958740Y-86213992D01*
X117958740Y-86213992D02*
X117673025Y-86356849D01*
X117673025Y-86356849D02*
X117101597Y-86356849D01*
X117101597Y-86356849D02*
X116815883Y-86213992D01*
X116815883Y-86213992D02*
X116530168Y-85928277D01*
X116530168Y-85928277D02*
X116387311Y-85356849D01*
X116387311Y-85356849D02*
X116387311Y-84356849D01*
X116387311Y-84356849D02*
X116530168Y-83785420D01*
X116530168Y-83785420D02*
X116815883Y-83499706D01*
X116815883Y-83499706D02*
X117101597Y-83356849D01*
X119673025Y-86356849D02*
X119673025Y-83356849D01*
X119673025Y-83356849D02*
X120387311Y-83356849D01*
X120387311Y-83356849D02*
X120815882Y-83499706D01*
X120815882Y-83499706D02*
X121101597Y-83785420D01*
X121101597Y-83785420D02*
X121244454Y-84071134D01*
X121244454Y-84071134D02*
X121387311Y-84642563D01*
X121387311Y-84642563D02*
X121387311Y-85071134D01*
X121387311Y-85071134D02*
X121244454Y-85642563D01*
X121244454Y-85642563D02*
X121101597Y-85928277D01*
X121101597Y-85928277D02*
X120815882Y-86213992D01*
X120815882Y-86213992D02*
X120387311Y-86356849D01*
X120387311Y-86356849D02*
X119673025Y-86356849D01*
X122673025Y-84785420D02*
X123673025Y-84785420D01*
X124101597Y-86356849D02*
X122673025Y-86356849D01*
X122673025Y-86356849D02*
X122673025Y-83356849D01*
X122673025Y-83356849D02*
X124101597Y-83356849D01*
X133958739Y-86356849D02*
X132958739Y-84928277D01*
X132244453Y-86356849D02*
X132244453Y-83356849D01*
X132244453Y-83356849D02*
X133387310Y-83356849D01*
X133387310Y-83356849D02*
X133673025Y-83499706D01*
X133673025Y-83499706D02*
X133815882Y-83642563D01*
X133815882Y-83642563D02*
X133958739Y-83928277D01*
X133958739Y-83928277D02*
X133958739Y-84356849D01*
X133958739Y-84356849D02*
X133815882Y-84642563D01*
X133815882Y-84642563D02*
X133673025Y-84785420D01*
X133673025Y-84785420D02*
X133387310Y-84928277D01*
X133387310Y-84928277D02*
X132244453Y-84928277D01*
X135101596Y-85499706D02*
X136530168Y-85499706D01*
X134815882Y-86356849D02*
X135815882Y-83356849D01*
X135815882Y-83356849D02*
X136815882Y-86356849D01*
X137815882Y-86356849D02*
X137815882Y-83356849D01*
X137815882Y-83356849D02*
X139530168Y-86356849D01*
X139530168Y-86356849D02*
X139530168Y-83356849D01*
X142530168Y-83499706D02*
X142244454Y-83356849D01*
X142244454Y-83356849D02*
X141815882Y-83356849D01*
X141815882Y-83356849D02*
X141387311Y-83499706D01*
X141387311Y-83499706D02*
X141101596Y-83785420D01*
X141101596Y-83785420D02*
X140958739Y-84071134D01*
X140958739Y-84071134D02*
X140815882Y-84642563D01*
X140815882Y-84642563D02*
X140815882Y-85071134D01*
X140815882Y-85071134D02*
X140958739Y-85642563D01*
X140958739Y-85642563D02*
X141101596Y-85928277D01*
X141101596Y-85928277D02*
X141387311Y-86213992D01*
X141387311Y-86213992D02*
X141815882Y-86356849D01*
X141815882Y-86356849D02*
X142101596Y-86356849D01*
X142101596Y-86356849D02*
X142530168Y-86213992D01*
X142530168Y-86213992D02*
X142673025Y-86071134D01*
X142673025Y-86071134D02*
X142673025Y-85071134D01*
X142673025Y-85071134D02*
X142101596Y-85071134D01*
X143958739Y-84785420D02*
X144958739Y-84785420D01*
X145387311Y-86356849D02*
X143958739Y-86356849D01*
X143958739Y-86356849D02*
X143958739Y-83356849D01*
X143958739Y-83356849D02*
X145387311Y-83356849D01*
X154958739Y-86356849D02*
X153530167Y-86356849D01*
X153530167Y-86356849D02*
X153530167Y-83356849D01*
X155815881Y-85499706D02*
X157244453Y-85499706D01*
X155530167Y-86356849D02*
X156530167Y-83356849D01*
X156530167Y-83356849D02*
X157530167Y-86356849D01*
X158530167Y-86356849D02*
X158530167Y-83356849D01*
X158530167Y-83356849D02*
X159530167Y-85499706D01*
X159530167Y-85499706D02*
X160530167Y-83356849D01*
X160530167Y-83356849D02*
X160530167Y-86356849D01*
X161958738Y-86356849D02*
X161958738Y-83356849D01*
X161958738Y-83356849D02*
X163101595Y-83356849D01*
X163101595Y-83356849D02*
X163387310Y-83499706D01*
X163387310Y-83499706D02*
X163530167Y-83642563D01*
X163530167Y-83642563D02*
X163673024Y-83928277D01*
X163673024Y-83928277D02*
X163673024Y-84356849D01*
X163673024Y-84356849D02*
X163530167Y-84642563D01*
X163530167Y-84642563D02*
X163387310Y-84785420D01*
X163387310Y-84785420D02*
X163101595Y-84928277D01*
X163101595Y-84928277D02*
X161958738Y-84928277D01*
X114359113Y-95249706D02*
X115787685Y-95249706D01*
X114073399Y-96106849D02*
X115073399Y-93106849D01*
X115073399Y-93106849D02*
X116073399Y-96106849D01*
X116644828Y-93106849D02*
X117644828Y-96106849D01*
X117644828Y-96106849D02*
X118644828Y-93106849D01*
X121216257Y-93249706D02*
X120930543Y-93106849D01*
X120930543Y-93106849D02*
X120501971Y-93106849D01*
X120501971Y-93106849D02*
X120073400Y-93249706D01*
X120073400Y-93249706D02*
X119787685Y-93535420D01*
X119787685Y-93535420D02*
X119644828Y-93821134D01*
X119644828Y-93821134D02*
X119501971Y-94392563D01*
X119501971Y-94392563D02*
X119501971Y-94821134D01*
X119501971Y-94821134D02*
X119644828Y-95392563D01*
X119644828Y-95392563D02*
X119787685Y-95678277D01*
X119787685Y-95678277D02*
X120073400Y-95963992D01*
X120073400Y-95963992D02*
X120501971Y-96106849D01*
X120501971Y-96106849D02*
X120787685Y-96106849D01*
X120787685Y-96106849D02*
X121216257Y-95963992D01*
X121216257Y-95963992D02*
X121359114Y-95821134D01*
X121359114Y-95821134D02*
X121359114Y-94821134D01*
X121359114Y-94821134D02*
X120787685Y-94821134D01*
X135501970Y-96106849D02*
X134073398Y-96106849D01*
X134073398Y-96106849D02*
X134073398Y-93106849D01*
X137073398Y-93106849D02*
X137644826Y-93106849D01*
X137644826Y-93106849D02*
X137930541Y-93249706D01*
X137930541Y-93249706D02*
X138216255Y-93535420D01*
X138216255Y-93535420D02*
X138359112Y-94106849D01*
X138359112Y-94106849D02*
X138359112Y-95106849D01*
X138359112Y-95106849D02*
X138216255Y-95678277D01*
X138216255Y-95678277D02*
X137930541Y-95963992D01*
X137930541Y-95963992D02*
X137644826Y-96106849D01*
X137644826Y-96106849D02*
X137073398Y-96106849D01*
X137073398Y-96106849D02*
X136787684Y-95963992D01*
X136787684Y-95963992D02*
X136501969Y-95678277D01*
X136501969Y-95678277D02*
X136359112Y-95106849D01*
X136359112Y-95106849D02*
X136359112Y-94106849D01*
X136359112Y-94106849D02*
X136501969Y-93535420D01*
X136501969Y-93535420D02*
X136787684Y-93249706D01*
X136787684Y-93249706D02*
X137073398Y-93106849D01*
X139359112Y-93106849D02*
X140073398Y-96106849D01*
X140073398Y-96106849D02*
X140644826Y-93963992D01*
X140644826Y-93963992D02*
X141216255Y-96106849D01*
X141216255Y-96106849D02*
X141930541Y-93106849D01*
X155073396Y-93106849D02*
X155644824Y-93106849D01*
X155644824Y-93106849D02*
X155930539Y-93249706D01*
X155930539Y-93249706D02*
X156216253Y-93535420D01*
X156216253Y-93535420D02*
X156359110Y-94106849D01*
X156359110Y-94106849D02*
X156359110Y-95106849D01*
X156359110Y-95106849D02*
X156216253Y-95678277D01*
X156216253Y-95678277D02*
X155930539Y-95963992D01*
X155930539Y-95963992D02*
X155644824Y-96106849D01*
X155644824Y-96106849D02*
X155073396Y-96106849D01*
X155073396Y-96106849D02*
X154787682Y-95963992D01*
X154787682Y-95963992D02*
X154501967Y-95678277D01*
X154501967Y-95678277D02*
X154359110Y-95106849D01*
X154359110Y-95106849D02*
X154359110Y-94106849D01*
X154359110Y-94106849D02*
X154501967Y-93535420D01*
X154501967Y-93535420D02*
X154787682Y-93249706D01*
X154787682Y-93249706D02*
X155073396Y-93106849D01*
X158644824Y-94535420D02*
X157644824Y-94535420D01*
X157644824Y-96106849D02*
X157644824Y-93106849D01*
X157644824Y-93106849D02*
X159073396Y-93106849D01*
X161216253Y-94535420D02*
X160216253Y-94535420D01*
X160216253Y-96106849D02*
X160216253Y-93106849D01*
X160216253Y-93106849D02*
X161644825Y-93106849D01*
M02*
