%TF.GenerationSoftware,KiCad,Pcbnew,7.0.5-0*%
%TF.CreationDate,2024-04-21T20:24:40-04:00*%
%TF.ProjectId,swr_meter_bottom,7377725f-6d65-4746-9572-5f626f74746f,rev?*%
%TF.SameCoordinates,Original*%
%TF.FileFunction,Legend,Top*%
%TF.FilePolarity,Positive*%
%FSLAX46Y46*%
G04 Gerber Fmt 4.6, Leading zero omitted, Abs format (unit mm)*
G04 Created by KiCad (PCBNEW 7.0.5-0) date 2024-04-21 20:24:40*
%MOMM*%
%LPD*%
G01*
G04 APERTURE LIST*
%ADD10C,0.200000*%
%ADD11C,0.500000*%
%ADD12C,0.100000*%
%ADD13C,0.120000*%
G04 APERTURE END LIST*
D10*
X134834435Y-28447219D02*
X135120149Y-28542457D01*
X135120149Y-28542457D02*
X135215387Y-28637695D01*
X135215387Y-28637695D02*
X135310625Y-28828171D01*
X135310625Y-28828171D02*
X135310625Y-29113885D01*
X135310625Y-29113885D02*
X135215387Y-29304361D01*
X135215387Y-29304361D02*
X135120149Y-29399600D01*
X135120149Y-29399600D02*
X134929673Y-29494838D01*
X134929673Y-29494838D02*
X134167768Y-29494838D01*
X134167768Y-29494838D02*
X134167768Y-27494838D01*
X134167768Y-27494838D02*
X134834435Y-27494838D01*
X134834435Y-27494838D02*
X135024911Y-27590076D01*
X135024911Y-27590076D02*
X135120149Y-27685314D01*
X135120149Y-27685314D02*
X135215387Y-27875790D01*
X135215387Y-27875790D02*
X135215387Y-28066266D01*
X135215387Y-28066266D02*
X135120149Y-28256742D01*
X135120149Y-28256742D02*
X135024911Y-28351980D01*
X135024911Y-28351980D02*
X134834435Y-28447219D01*
X134834435Y-28447219D02*
X134167768Y-28447219D01*
X136453482Y-29494838D02*
X136263006Y-29399600D01*
X136263006Y-29399600D02*
X136167768Y-29304361D01*
X136167768Y-29304361D02*
X136072530Y-29113885D01*
X136072530Y-29113885D02*
X136072530Y-28542457D01*
X136072530Y-28542457D02*
X136167768Y-28351980D01*
X136167768Y-28351980D02*
X136263006Y-28256742D01*
X136263006Y-28256742D02*
X136453482Y-28161504D01*
X136453482Y-28161504D02*
X136739197Y-28161504D01*
X136739197Y-28161504D02*
X136929673Y-28256742D01*
X136929673Y-28256742D02*
X137024911Y-28351980D01*
X137024911Y-28351980D02*
X137120149Y-28542457D01*
X137120149Y-28542457D02*
X137120149Y-29113885D01*
X137120149Y-29113885D02*
X137024911Y-29304361D01*
X137024911Y-29304361D02*
X136929673Y-29399600D01*
X136929673Y-29399600D02*
X136739197Y-29494838D01*
X136739197Y-29494838D02*
X136453482Y-29494838D01*
X137691578Y-28161504D02*
X138453482Y-28161504D01*
X137977292Y-27494838D02*
X137977292Y-29209123D01*
X137977292Y-29209123D02*
X138072530Y-29399600D01*
X138072530Y-29399600D02*
X138263006Y-29494838D01*
X138263006Y-29494838D02*
X138453482Y-29494838D01*
X140263006Y-29494838D02*
X139596339Y-28542457D01*
X139120149Y-29494838D02*
X139120149Y-27494838D01*
X139120149Y-27494838D02*
X139882054Y-27494838D01*
X139882054Y-27494838D02*
X140072530Y-27590076D01*
X140072530Y-27590076D02*
X140167768Y-27685314D01*
X140167768Y-27685314D02*
X140263006Y-27875790D01*
X140263006Y-27875790D02*
X140263006Y-28161504D01*
X140263006Y-28161504D02*
X140167768Y-28351980D01*
X140167768Y-28351980D02*
X140072530Y-28447219D01*
X140072530Y-28447219D02*
X139882054Y-28542457D01*
X139882054Y-28542457D02*
X139120149Y-28542457D01*
X141882054Y-29399600D02*
X141691578Y-29494838D01*
X141691578Y-29494838D02*
X141310625Y-29494838D01*
X141310625Y-29494838D02*
X141120149Y-29399600D01*
X141120149Y-29399600D02*
X141024911Y-29209123D01*
X141024911Y-29209123D02*
X141024911Y-28447219D01*
X141024911Y-28447219D02*
X141120149Y-28256742D01*
X141120149Y-28256742D02*
X141310625Y-28161504D01*
X141310625Y-28161504D02*
X141691578Y-28161504D01*
X141691578Y-28161504D02*
X141882054Y-28256742D01*
X141882054Y-28256742D02*
X141977292Y-28447219D01*
X141977292Y-28447219D02*
X141977292Y-28637695D01*
X141977292Y-28637695D02*
X141024911Y-28828171D01*
X143691578Y-29494838D02*
X143691578Y-28447219D01*
X143691578Y-28447219D02*
X143596340Y-28256742D01*
X143596340Y-28256742D02*
X143405864Y-28161504D01*
X143405864Y-28161504D02*
X143024911Y-28161504D01*
X143024911Y-28161504D02*
X142834435Y-28256742D01*
X143691578Y-29399600D02*
X143501102Y-29494838D01*
X143501102Y-29494838D02*
X143024911Y-29494838D01*
X143024911Y-29494838D02*
X142834435Y-29399600D01*
X142834435Y-29399600D02*
X142739197Y-29209123D01*
X142739197Y-29209123D02*
X142739197Y-29018647D01*
X142739197Y-29018647D02*
X142834435Y-28828171D01*
X142834435Y-28828171D02*
X143024911Y-28732933D01*
X143024911Y-28732933D02*
X143501102Y-28732933D01*
X143501102Y-28732933D02*
X143691578Y-28637695D01*
X144643959Y-29494838D02*
X144643959Y-28161504D01*
X144643959Y-28542457D02*
X144739197Y-28351980D01*
X144739197Y-28351980D02*
X144834435Y-28256742D01*
X144834435Y-28256742D02*
X145024911Y-28161504D01*
X145024911Y-28161504D02*
X145215388Y-28161504D01*
D11*
X133484185Y-50918047D02*
X133484185Y-48418047D01*
X134674661Y-50918047D02*
X134674661Y-48418047D01*
X134674661Y-48418047D02*
X136103232Y-50918047D01*
X136103232Y-50918047D02*
X136103232Y-48418047D01*
X137174661Y-50799000D02*
X137531804Y-50918047D01*
X137531804Y-50918047D02*
X138127042Y-50918047D01*
X138127042Y-50918047D02*
X138365137Y-50799000D01*
X138365137Y-50799000D02*
X138484185Y-50679952D01*
X138484185Y-50679952D02*
X138603232Y-50441857D01*
X138603232Y-50441857D02*
X138603232Y-50203761D01*
X138603232Y-50203761D02*
X138484185Y-49965666D01*
X138484185Y-49965666D02*
X138365137Y-49846619D01*
X138365137Y-49846619D02*
X138127042Y-49727571D01*
X138127042Y-49727571D02*
X137650851Y-49608523D01*
X137650851Y-49608523D02*
X137412756Y-49489476D01*
X137412756Y-49489476D02*
X137293709Y-49370428D01*
X137293709Y-49370428D02*
X137174661Y-49132333D01*
X137174661Y-49132333D02*
X137174661Y-48894238D01*
X137174661Y-48894238D02*
X137293709Y-48656142D01*
X137293709Y-48656142D02*
X137412756Y-48537095D01*
X137412756Y-48537095D02*
X137650851Y-48418047D01*
X137650851Y-48418047D02*
X138246090Y-48418047D01*
X138246090Y-48418047D02*
X138603232Y-48537095D01*
X139674661Y-50918047D02*
X139674661Y-48418047D01*
X140865137Y-50918047D02*
X140865137Y-48418047D01*
X140865137Y-48418047D02*
X141460375Y-48418047D01*
X141460375Y-48418047D02*
X141817518Y-48537095D01*
X141817518Y-48537095D02*
X142055613Y-48775190D01*
X142055613Y-48775190D02*
X142174660Y-49013285D01*
X142174660Y-49013285D02*
X142293708Y-49489476D01*
X142293708Y-49489476D02*
X142293708Y-49846619D01*
X142293708Y-49846619D02*
X142174660Y-50322809D01*
X142174660Y-50322809D02*
X142055613Y-50560904D01*
X142055613Y-50560904D02*
X141817518Y-50799000D01*
X141817518Y-50799000D02*
X141460375Y-50918047D01*
X141460375Y-50918047D02*
X140865137Y-50918047D01*
X143365137Y-49608523D02*
X144198470Y-49608523D01*
X144555613Y-50918047D02*
X143365137Y-50918047D01*
X143365137Y-50918047D02*
X143365137Y-48418047D01*
X143365137Y-48418047D02*
X144555613Y-48418047D01*
D10*
X171862780Y-56059524D02*
X171767542Y-56345238D01*
X171767542Y-56345238D02*
X171672304Y-56440476D01*
X171672304Y-56440476D02*
X171481828Y-56535714D01*
X171481828Y-56535714D02*
X171196114Y-56535714D01*
X171196114Y-56535714D02*
X171005638Y-56440476D01*
X171005638Y-56440476D02*
X170910400Y-56345238D01*
X170910400Y-56345238D02*
X170815161Y-56154762D01*
X170815161Y-56154762D02*
X170815161Y-55392857D01*
X170815161Y-55392857D02*
X172815161Y-55392857D01*
X172815161Y-55392857D02*
X172815161Y-56059524D01*
X172815161Y-56059524D02*
X172719923Y-56250000D01*
X172719923Y-56250000D02*
X172624685Y-56345238D01*
X172624685Y-56345238D02*
X172434209Y-56440476D01*
X172434209Y-56440476D02*
X172243733Y-56440476D01*
X172243733Y-56440476D02*
X172053257Y-56345238D01*
X172053257Y-56345238D02*
X171958019Y-56250000D01*
X171958019Y-56250000D02*
X171862780Y-56059524D01*
X171862780Y-56059524D02*
X171862780Y-55392857D01*
X170815161Y-57678571D02*
X170910400Y-57488095D01*
X170910400Y-57488095D02*
X171005638Y-57392857D01*
X171005638Y-57392857D02*
X171196114Y-57297619D01*
X171196114Y-57297619D02*
X171767542Y-57297619D01*
X171767542Y-57297619D02*
X171958019Y-57392857D01*
X171958019Y-57392857D02*
X172053257Y-57488095D01*
X172053257Y-57488095D02*
X172148495Y-57678571D01*
X172148495Y-57678571D02*
X172148495Y-57964286D01*
X172148495Y-57964286D02*
X172053257Y-58154762D01*
X172053257Y-58154762D02*
X171958019Y-58250000D01*
X171958019Y-58250000D02*
X171767542Y-58345238D01*
X171767542Y-58345238D02*
X171196114Y-58345238D01*
X171196114Y-58345238D02*
X171005638Y-58250000D01*
X171005638Y-58250000D02*
X170910400Y-58154762D01*
X170910400Y-58154762D02*
X170815161Y-57964286D01*
X170815161Y-57964286D02*
X170815161Y-57678571D01*
X172148495Y-58916667D02*
X172148495Y-59678571D01*
X172815161Y-59202381D02*
X171100876Y-59202381D01*
X171100876Y-59202381D02*
X170910400Y-59297619D01*
X170910400Y-59297619D02*
X170815161Y-59488095D01*
X170815161Y-59488095D02*
X170815161Y-59678571D01*
X170815161Y-61488095D02*
X171767542Y-60821428D01*
X170815161Y-60345238D02*
X172815161Y-60345238D01*
X172815161Y-60345238D02*
X172815161Y-61107143D01*
X172815161Y-61107143D02*
X172719923Y-61297619D01*
X172719923Y-61297619D02*
X172624685Y-61392857D01*
X172624685Y-61392857D02*
X172434209Y-61488095D01*
X172434209Y-61488095D02*
X172148495Y-61488095D01*
X172148495Y-61488095D02*
X171958019Y-61392857D01*
X171958019Y-61392857D02*
X171862780Y-61297619D01*
X171862780Y-61297619D02*
X171767542Y-61107143D01*
X171767542Y-61107143D02*
X171767542Y-60345238D01*
X170815161Y-62345238D02*
X172148495Y-62345238D01*
X172815161Y-62345238D02*
X172719923Y-62250000D01*
X172719923Y-62250000D02*
X172624685Y-62345238D01*
X172624685Y-62345238D02*
X172719923Y-62440476D01*
X172719923Y-62440476D02*
X172815161Y-62345238D01*
X172815161Y-62345238D02*
X172624685Y-62345238D01*
X172148495Y-64154762D02*
X170529447Y-64154762D01*
X170529447Y-64154762D02*
X170338971Y-64059524D01*
X170338971Y-64059524D02*
X170243733Y-63964286D01*
X170243733Y-63964286D02*
X170148495Y-63773809D01*
X170148495Y-63773809D02*
X170148495Y-63488095D01*
X170148495Y-63488095D02*
X170243733Y-63297619D01*
X170910400Y-64154762D02*
X170815161Y-63964286D01*
X170815161Y-63964286D02*
X170815161Y-63583333D01*
X170815161Y-63583333D02*
X170910400Y-63392857D01*
X170910400Y-63392857D02*
X171005638Y-63297619D01*
X171005638Y-63297619D02*
X171196114Y-63202381D01*
X171196114Y-63202381D02*
X171767542Y-63202381D01*
X171767542Y-63202381D02*
X171958019Y-63297619D01*
X171958019Y-63297619D02*
X172053257Y-63392857D01*
X172053257Y-63392857D02*
X172148495Y-63583333D01*
X172148495Y-63583333D02*
X172148495Y-63964286D01*
X172148495Y-63964286D02*
X172053257Y-64154762D01*
X170815161Y-65107143D02*
X172815161Y-65107143D01*
X170815161Y-65964286D02*
X171862780Y-65964286D01*
X171862780Y-65964286D02*
X172053257Y-65869048D01*
X172053257Y-65869048D02*
X172148495Y-65678572D01*
X172148495Y-65678572D02*
X172148495Y-65392857D01*
X172148495Y-65392857D02*
X172053257Y-65202381D01*
X172053257Y-65202381D02*
X171958019Y-65107143D01*
X172148495Y-66630953D02*
X172148495Y-67392857D01*
X172815161Y-66916667D02*
X171100876Y-66916667D01*
X171100876Y-66916667D02*
X170910400Y-67011905D01*
X170910400Y-67011905D02*
X170815161Y-67202381D01*
X170815161Y-67202381D02*
X170815161Y-67392857D01*
X105007219Y-67392856D02*
X105102457Y-67107142D01*
X105102457Y-67107142D02*
X105197695Y-67011904D01*
X105197695Y-67011904D02*
X105388171Y-66916666D01*
X105388171Y-66916666D02*
X105673885Y-66916666D01*
X105673885Y-66916666D02*
X105864361Y-67011904D01*
X105864361Y-67011904D02*
X105959600Y-67107142D01*
X105959600Y-67107142D02*
X106054838Y-67297618D01*
X106054838Y-67297618D02*
X106054838Y-68059523D01*
X106054838Y-68059523D02*
X104054838Y-68059523D01*
X104054838Y-68059523D02*
X104054838Y-67392856D01*
X104054838Y-67392856D02*
X104150076Y-67202380D01*
X104150076Y-67202380D02*
X104245314Y-67107142D01*
X104245314Y-67107142D02*
X104435790Y-67011904D01*
X104435790Y-67011904D02*
X104626266Y-67011904D01*
X104626266Y-67011904D02*
X104816742Y-67107142D01*
X104816742Y-67107142D02*
X104911980Y-67202380D01*
X104911980Y-67202380D02*
X105007219Y-67392856D01*
X105007219Y-67392856D02*
X105007219Y-68059523D01*
X106054838Y-65773809D02*
X105959600Y-65964285D01*
X105959600Y-65964285D02*
X105864361Y-66059523D01*
X105864361Y-66059523D02*
X105673885Y-66154761D01*
X105673885Y-66154761D02*
X105102457Y-66154761D01*
X105102457Y-66154761D02*
X104911980Y-66059523D01*
X104911980Y-66059523D02*
X104816742Y-65964285D01*
X104816742Y-65964285D02*
X104721504Y-65773809D01*
X104721504Y-65773809D02*
X104721504Y-65488094D01*
X104721504Y-65488094D02*
X104816742Y-65297618D01*
X104816742Y-65297618D02*
X104911980Y-65202380D01*
X104911980Y-65202380D02*
X105102457Y-65107142D01*
X105102457Y-65107142D02*
X105673885Y-65107142D01*
X105673885Y-65107142D02*
X105864361Y-65202380D01*
X105864361Y-65202380D02*
X105959600Y-65297618D01*
X105959600Y-65297618D02*
X106054838Y-65488094D01*
X106054838Y-65488094D02*
X106054838Y-65773809D01*
X104721504Y-64535713D02*
X104721504Y-63773809D01*
X104054838Y-64249999D02*
X105769123Y-64249999D01*
X105769123Y-64249999D02*
X105959600Y-64154761D01*
X105959600Y-64154761D02*
X106054838Y-63964285D01*
X106054838Y-63964285D02*
X106054838Y-63773809D01*
X106054838Y-62154761D02*
X106054838Y-63107142D01*
X106054838Y-63107142D02*
X104054838Y-63107142D01*
X105959600Y-60726189D02*
X106054838Y-60916665D01*
X106054838Y-60916665D02*
X106054838Y-61297618D01*
X106054838Y-61297618D02*
X105959600Y-61488094D01*
X105959600Y-61488094D02*
X105769123Y-61583332D01*
X105769123Y-61583332D02*
X105007219Y-61583332D01*
X105007219Y-61583332D02*
X104816742Y-61488094D01*
X104816742Y-61488094D02*
X104721504Y-61297618D01*
X104721504Y-61297618D02*
X104721504Y-60916665D01*
X104721504Y-60916665D02*
X104816742Y-60726189D01*
X104816742Y-60726189D02*
X105007219Y-60630951D01*
X105007219Y-60630951D02*
X105197695Y-60630951D01*
X105197695Y-60630951D02*
X105388171Y-61583332D01*
X104721504Y-60059522D02*
X104721504Y-59297618D01*
X106054838Y-59773808D02*
X104340552Y-59773808D01*
X104340552Y-59773808D02*
X104150076Y-59678570D01*
X104150076Y-59678570D02*
X104054838Y-59488094D01*
X104054838Y-59488094D02*
X104054838Y-59297618D01*
X104721504Y-58916665D02*
X104721504Y-58154761D01*
X104054838Y-58630951D02*
X105769123Y-58630951D01*
X105769123Y-58630951D02*
X105959600Y-58535713D01*
X105959600Y-58535713D02*
X106054838Y-58345237D01*
X106054838Y-58345237D02*
X106054838Y-58154761D01*
X161292533Y-28106002D02*
X161466182Y-29090809D01*
X159617958Y-28686863D02*
X161379358Y-28598406D01*
X159806077Y-29753738D02*
X161567476Y-29665280D01*
X159936313Y-30492344D02*
X160858951Y-30446009D01*
X160858951Y-30446009D02*
X161012233Y-30355517D01*
X161012233Y-30355517D02*
X161067167Y-30187170D01*
X161067167Y-30187170D02*
X161023755Y-29940968D01*
X161023755Y-29940968D02*
X160910938Y-29781046D01*
X160910938Y-29781046D02*
X160812591Y-29703191D01*
X160211256Y-32051622D02*
X161133894Y-32005287D01*
X161133894Y-32005287D02*
X161287175Y-31914796D01*
X161287175Y-31914796D02*
X161342110Y-31746449D01*
X161342110Y-31746449D02*
X161284228Y-31418179D01*
X161284228Y-31418179D02*
X161171410Y-31258257D01*
X160295132Y-32047410D02*
X160182315Y-31887488D01*
X160182315Y-31887488D02*
X160109961Y-31477151D01*
X160109961Y-31477151D02*
X160164896Y-31308804D01*
X160164896Y-31308804D02*
X160318178Y-31218312D01*
X160318178Y-31218312D02*
X160485930Y-31209888D01*
X160485930Y-31209888D02*
X160668153Y-31283531D01*
X160668153Y-31283531D02*
X160780971Y-31443453D01*
X160780971Y-31443453D02*
X160853324Y-31853790D01*
X160853324Y-31853790D02*
X160966142Y-32013712D01*
X161530229Y-32813323D02*
X160355963Y-32872295D01*
X161362477Y-32821748D02*
X161460824Y-32899603D01*
X161460824Y-32899603D02*
X161573641Y-33059525D01*
X161573641Y-33059525D02*
X161617053Y-33305727D01*
X161617053Y-33305727D02*
X161562118Y-33474074D01*
X161562118Y-33474074D02*
X161408837Y-33564566D01*
X161408837Y-33564566D02*
X160486199Y-33610901D01*
X160630906Y-34431574D02*
X162392305Y-34343116D01*
X161330856Y-34562010D02*
X160746671Y-35088112D01*
X161920937Y-35029141D02*
X161134163Y-34406300D01*
X160946313Y-35740439D02*
X160891378Y-35908786D01*
X160891378Y-35908786D02*
X160949261Y-36237055D01*
X160949261Y-36237055D02*
X161062078Y-36396977D01*
X161062078Y-36396977D02*
X161244301Y-36470620D01*
X161244301Y-36470620D02*
X161328178Y-36466408D01*
X161328178Y-36466408D02*
X161481459Y-36375916D01*
X161481459Y-36375916D02*
X161536394Y-36207569D01*
X161536394Y-36207569D02*
X161492982Y-35961367D01*
X161492982Y-35961367D02*
X161547917Y-35793020D01*
X161547917Y-35793020D02*
X161701198Y-35702528D01*
X161701198Y-35702528D02*
X161785074Y-35698316D01*
X161785074Y-35698316D02*
X161967297Y-35771959D01*
X161967297Y-35771959D02*
X162080115Y-35931881D01*
X162080115Y-35931881D02*
X162123527Y-36178083D01*
X162123527Y-36178083D02*
X162068592Y-36346430D01*
X162485294Y-38229766D02*
X162601059Y-38886305D01*
X161354440Y-38534940D02*
X162864211Y-38459119D01*
X162864211Y-38459119D02*
X163046434Y-38532762D01*
X163046434Y-38532762D02*
X163159251Y-38692684D01*
X163159251Y-38692684D02*
X163188193Y-38856819D01*
X161571500Y-39765949D02*
X161626435Y-39597603D01*
X161626435Y-39597603D02*
X161695840Y-39511323D01*
X161695840Y-39511323D02*
X161849122Y-39420831D01*
X161849122Y-39420831D02*
X162352379Y-39395558D01*
X162352379Y-39395558D02*
X162534602Y-39469200D01*
X162534602Y-39469200D02*
X162632949Y-39547055D01*
X162632949Y-39547055D02*
X162745766Y-39706978D01*
X162745766Y-39706978D02*
X162789178Y-39953180D01*
X162789178Y-39953180D02*
X162734244Y-40121527D01*
X162734244Y-40121527D02*
X162664838Y-40207806D01*
X162664838Y-40207806D02*
X162511556Y-40298298D01*
X162511556Y-40298298D02*
X162008300Y-40323572D01*
X162008300Y-40323572D02*
X161826077Y-40249929D01*
X161826077Y-40249929D02*
X161727730Y-40172074D01*
X161727730Y-40172074D02*
X161614912Y-40012151D01*
X161614912Y-40012151D02*
X161571500Y-39765949D01*
X161803031Y-41079026D02*
X162977297Y-41020054D01*
X162641793Y-41036903D02*
X162824016Y-41110546D01*
X162824016Y-41110546D02*
X162922362Y-41188401D01*
X162922362Y-41188401D02*
X163035180Y-41348324D01*
X163035180Y-41348324D02*
X163064121Y-41512458D01*
X163353535Y-43153804D02*
X163469300Y-43810342D01*
X163984080Y-43370520D02*
X162474309Y-43446341D01*
X162474309Y-43446341D02*
X162321028Y-43536833D01*
X162321028Y-43536833D02*
X162266093Y-43705179D01*
X162266093Y-43705179D02*
X162295034Y-43869314D01*
X162396329Y-44443785D02*
X164157728Y-44355328D01*
X162526565Y-45182391D02*
X163449203Y-45136056D01*
X163449203Y-45136056D02*
X163602484Y-45045564D01*
X163602484Y-45045564D02*
X163657419Y-44877217D01*
X163657419Y-44877217D02*
X163614007Y-44631015D01*
X163614007Y-44631015D02*
X163501190Y-44471093D01*
X163501190Y-44471093D02*
X163402843Y-44393238D01*
X162870913Y-46655390D02*
X162758096Y-46495468D01*
X162758096Y-46495468D02*
X162700213Y-46167199D01*
X162700213Y-46167199D02*
X162755148Y-45998852D01*
X162755148Y-45998852D02*
X162908430Y-45908360D01*
X162908430Y-45908360D02*
X163579439Y-45874662D01*
X163579439Y-45874662D02*
X163761662Y-45948304D01*
X163761662Y-45948304D02*
X163874479Y-46108227D01*
X163874479Y-46108227D02*
X163932362Y-46436496D01*
X163932362Y-46436496D02*
X163877427Y-46604843D01*
X163877427Y-46604843D02*
X163724146Y-46695335D01*
X163724146Y-46695335D02*
X163556393Y-46703759D01*
X163556393Y-46703759D02*
X163243934Y-45891511D01*
X163163275Y-48793352D02*
X164337541Y-48734380D01*
X164169789Y-48742805D02*
X164268136Y-48820660D01*
X164268136Y-48820660D02*
X164380953Y-48980582D01*
X164380953Y-48980582D02*
X164424365Y-49226784D01*
X164424365Y-49226784D02*
X164369430Y-49395131D01*
X164369430Y-49395131D02*
X164216149Y-49485623D01*
X164216149Y-49485623D02*
X163293511Y-49531958D01*
X164216149Y-49485623D02*
X164398372Y-49559266D01*
X164398372Y-49559266D02*
X164511189Y-49719188D01*
X164511189Y-49719188D02*
X164554601Y-49965390D01*
X164554601Y-49965390D02*
X164499666Y-50133737D01*
X164499666Y-50133737D02*
X164346385Y-50224229D01*
X164346385Y-50224229D02*
X163423747Y-50270564D01*
X163768096Y-51743563D02*
X163655278Y-51583641D01*
X163655278Y-51583641D02*
X163597395Y-51255371D01*
X163597395Y-51255371D02*
X163652330Y-51087024D01*
X163652330Y-51087024D02*
X163805612Y-50996533D01*
X163805612Y-50996533D02*
X164476621Y-50962834D01*
X164476621Y-50962834D02*
X164658844Y-51036477D01*
X164658844Y-51036477D02*
X164771661Y-51196400D01*
X164771661Y-51196400D02*
X164829544Y-51524669D01*
X164829544Y-51524669D02*
X164774609Y-51693016D01*
X164774609Y-51693016D02*
X164621328Y-51783508D01*
X164621328Y-51783508D02*
X164453575Y-51791932D01*
X164453575Y-51791932D02*
X164141116Y-50979683D01*
X164959780Y-52263275D02*
X165075546Y-52919813D01*
X165590325Y-52479991D02*
X164080555Y-52555811D01*
X164080555Y-52555811D02*
X163927273Y-52646303D01*
X163927273Y-52646303D02*
X163872338Y-52814650D01*
X163872338Y-52814650D02*
X163901280Y-52978785D01*
X164202216Y-54205582D02*
X164089398Y-54045660D01*
X164089398Y-54045660D02*
X164031516Y-53717391D01*
X164031516Y-53717391D02*
X164086451Y-53549044D01*
X164086451Y-53549044D02*
X164239732Y-53458552D01*
X164239732Y-53458552D02*
X164910741Y-53424854D01*
X164910741Y-53424854D02*
X165092964Y-53498497D01*
X165092964Y-53498497D02*
X165205782Y-53658419D01*
X165205782Y-53658419D02*
X165263665Y-53986688D01*
X165263665Y-53986688D02*
X165208730Y-54155035D01*
X165208730Y-54155035D02*
X165055448Y-54245527D01*
X165055448Y-54245527D02*
X164887696Y-54253951D01*
X164887696Y-54253951D02*
X164575237Y-53441703D01*
X164263047Y-55030468D02*
X165437313Y-54971496D01*
X165101808Y-54988345D02*
X165284031Y-55061988D01*
X165284031Y-55061988D02*
X165382378Y-55139843D01*
X165382378Y-55139843D02*
X165495195Y-55299765D01*
X165495195Y-55299765D02*
X165524137Y-55463900D01*
X165987198Y-58090053D02*
X164561304Y-58161662D01*
X164561304Y-58161662D02*
X164379081Y-58088019D01*
X164379081Y-58088019D02*
X164280734Y-58010164D01*
X164280734Y-58010164D02*
X164167917Y-57850241D01*
X164167917Y-57850241D02*
X164124505Y-57604040D01*
X164124505Y-57604040D02*
X164179439Y-57435693D01*
X164896809Y-58144813D02*
X164783991Y-57984890D01*
X164783991Y-57984890D02*
X164726108Y-57656621D01*
X164726108Y-57656621D02*
X164781043Y-57488274D01*
X164781043Y-57488274D02*
X164850449Y-57401995D01*
X164850449Y-57401995D02*
X165003730Y-57311503D01*
X165003730Y-57311503D02*
X165506987Y-57286229D01*
X165506987Y-57286229D02*
X165689210Y-57359872D01*
X165689210Y-57359872D02*
X165787557Y-57437727D01*
X165787557Y-57437727D02*
X165900374Y-57597649D01*
X165900374Y-57597649D02*
X165958257Y-57925919D01*
X165958257Y-57925919D02*
X165903322Y-58094265D01*
X166262141Y-59649332D02*
X165087875Y-59708303D01*
X166131905Y-58910726D02*
X165209268Y-58957061D01*
X165209268Y-58957061D02*
X165055986Y-59047553D01*
X165055986Y-59047553D02*
X165001051Y-59215900D01*
X165001051Y-59215900D02*
X165044463Y-59462102D01*
X165044463Y-59462102D02*
X165157281Y-59622024D01*
X165157281Y-59622024D02*
X165255628Y-59699879D01*
X166363436Y-60223803D02*
X166479202Y-60880341D01*
X166993981Y-60440519D02*
X165484211Y-60516339D01*
X165484211Y-60516339D02*
X165330929Y-60606831D01*
X165330929Y-60606831D02*
X165275994Y-60775178D01*
X165275994Y-60775178D02*
X165304935Y-60939313D01*
X165475636Y-61427504D02*
X165420701Y-61595851D01*
X165420701Y-61595851D02*
X165478584Y-61924121D01*
X165478584Y-61924121D02*
X165591401Y-62084043D01*
X165591401Y-62084043D02*
X165773624Y-62157686D01*
X165773624Y-62157686D02*
X165857500Y-62153473D01*
X165857500Y-62153473D02*
X166010782Y-62062982D01*
X166010782Y-62062982D02*
X166065717Y-61894635D01*
X166065717Y-61894635D02*
X166022305Y-61648433D01*
X166022305Y-61648433D02*
X166077239Y-61480086D01*
X166077239Y-61480086D02*
X166230521Y-61389594D01*
X166230521Y-61389594D02*
X166314397Y-61385382D01*
X166314397Y-61385382D02*
X166496620Y-61459025D01*
X166496620Y-61459025D02*
X166609438Y-61618947D01*
X166609438Y-61618947D02*
X166652850Y-61865149D01*
X166652850Y-61865149D02*
X166597915Y-62033496D01*
X165750579Y-62986784D02*
X165666703Y-62990996D01*
X165666703Y-62990996D02*
X165484480Y-62917353D01*
X165484480Y-62917353D02*
X165386133Y-62839498D01*
X167760927Y-64790086D02*
X166071882Y-65288880D01*
X166071882Y-65288880D02*
X167387906Y-65553965D01*
X167387906Y-65553965D02*
X166187647Y-65945419D01*
X166187647Y-65945419D02*
X168021399Y-66267298D01*
X167425692Y-67207948D02*
X167480626Y-67039601D01*
X167480626Y-67039601D02*
X167550032Y-66953322D01*
X167550032Y-66953322D02*
X167703314Y-66862830D01*
X167703314Y-66862830D02*
X167787190Y-66858618D01*
X167787190Y-66858618D02*
X167969413Y-66932261D01*
X167969413Y-66932261D02*
X168067759Y-67010116D01*
X168067759Y-67010116D02*
X168180577Y-67170038D01*
X168180577Y-67170038D02*
X168238460Y-67498307D01*
X168238460Y-67498307D02*
X168183525Y-67666654D01*
X168183525Y-67666654D02*
X168114119Y-67752934D01*
X168114119Y-67752934D02*
X167960838Y-67843426D01*
X167960838Y-67843426D02*
X167876962Y-67847638D01*
X167876962Y-67847638D02*
X167694739Y-67773995D01*
X167694739Y-67773995D02*
X167596392Y-67696140D01*
X167596392Y-67696140D02*
X167483574Y-67536218D01*
X167483574Y-67536218D02*
X167425692Y-67207948D01*
X167425692Y-67207948D02*
X167312874Y-67048026D01*
X167312874Y-67048026D02*
X167214527Y-66970171D01*
X167214527Y-66970171D02*
X167032304Y-66896528D01*
X167032304Y-66896528D02*
X166696800Y-66913377D01*
X166696800Y-66913377D02*
X166543518Y-67003869D01*
X166543518Y-67003869D02*
X166474113Y-67090149D01*
X166474113Y-67090149D02*
X166419178Y-67258496D01*
X166419178Y-67258496D02*
X166477061Y-67586765D01*
X166477061Y-67586765D02*
X166589878Y-67746687D01*
X166589878Y-67746687D02*
X166688225Y-67824542D01*
X166688225Y-67824542D02*
X166870448Y-67898185D01*
X166870448Y-67898185D02*
X167205953Y-67881336D01*
X167205953Y-67881336D02*
X167359234Y-67790844D01*
X167359234Y-67790844D02*
X167428640Y-67704565D01*
X167428640Y-67704565D02*
X167483574Y-67536218D01*
X167153966Y-68546299D02*
X167298673Y-69366972D01*
X166621767Y-68407438D02*
X168484461Y-68893452D01*
X168484461Y-68893452D02*
X166824357Y-69556381D01*
X167099300Y-71115660D02*
X167836767Y-70499066D01*
X166925652Y-70130852D02*
X168687051Y-70042394D01*
X168687051Y-70042394D02*
X168802816Y-70698933D01*
X168802816Y-70698933D02*
X168747882Y-70867280D01*
X168747882Y-70867280D02*
X168678476Y-70953559D01*
X168678476Y-70953559D02*
X168525194Y-71044051D01*
X168525194Y-71044051D02*
X168273566Y-71056688D01*
X168273566Y-71056688D02*
X168091343Y-70983045D01*
X168091343Y-70983045D02*
X167992996Y-70905190D01*
X167992996Y-70905190D02*
X167880179Y-70745268D01*
X167880179Y-70745268D02*
X167764413Y-70088729D01*
X168990935Y-71765808D02*
X167565041Y-71837416D01*
X167565041Y-71837416D02*
X167411759Y-71927908D01*
X167411759Y-71927908D02*
X167342354Y-72014188D01*
X167342354Y-72014188D02*
X167287419Y-72182535D01*
X167287419Y-72182535D02*
X167345302Y-72510804D01*
X167345302Y-72510804D02*
X167458119Y-72670726D01*
X167458119Y-72670726D02*
X167556466Y-72748581D01*
X167556466Y-72748581D02*
X167738689Y-72822224D01*
X167738689Y-72822224D02*
X169164583Y-72750616D01*
X167715643Y-73651321D02*
X167646238Y-73737601D01*
X167646238Y-73737601D02*
X167547891Y-73659746D01*
X167547891Y-73659746D02*
X167617297Y-73573466D01*
X167617297Y-73573466D02*
X167715643Y-73651321D01*
X167715643Y-73651321D02*
X167547891Y-73659746D01*
X168218900Y-73626048D02*
X169210943Y-73493433D01*
X169210943Y-73493433D02*
X169309290Y-73571288D01*
X169309290Y-73571288D02*
X169239885Y-73657568D01*
X169239885Y-73657568D02*
X168218900Y-73626048D01*
X168218900Y-73626048D02*
X169309290Y-73571288D01*
X109922815Y-62805673D02*
X109821520Y-62231201D01*
X110700746Y-61938665D02*
X110845453Y-62759338D01*
X110845453Y-62759338D02*
X109084054Y-62847795D01*
X109084054Y-62847795D02*
X108939347Y-62027122D01*
X109396244Y-61259031D02*
X110570510Y-61200059D01*
X109563996Y-61250606D02*
X109465649Y-61172751D01*
X109465649Y-61172751D02*
X109352832Y-61012829D01*
X109352832Y-61012829D02*
X109309420Y-60766627D01*
X109309420Y-60766627D02*
X109364354Y-60598280D01*
X109364354Y-60598280D02*
X109517636Y-60507788D01*
X109517636Y-60507788D02*
X110440274Y-60461453D01*
X110081455Y-58906387D02*
X110194272Y-59066309D01*
X110194272Y-59066309D02*
X110252155Y-59394579D01*
X110252155Y-59394579D02*
X110197220Y-59562925D01*
X110197220Y-59562925D02*
X110127815Y-59649205D01*
X110127815Y-59649205D02*
X109974533Y-59739697D01*
X109974533Y-59739697D02*
X109471276Y-59764970D01*
X109471276Y-59764970D02*
X109289053Y-59691328D01*
X109289053Y-59691328D02*
X109190706Y-59613473D01*
X109190706Y-59613473D02*
X109077889Y-59453550D01*
X109077889Y-59453550D02*
X109020006Y-59125281D01*
X109020006Y-59125281D02*
X109074941Y-58956934D01*
X109991683Y-57917367D02*
X109936748Y-58085714D01*
X109936748Y-58085714D02*
X109783466Y-58176206D01*
X109783466Y-58176206D02*
X108273695Y-58252026D01*
X109832505Y-57014626D02*
X109777570Y-57182973D01*
X109777570Y-57182973D02*
X109708165Y-57269253D01*
X109708165Y-57269253D02*
X109554883Y-57359744D01*
X109554883Y-57359744D02*
X109051626Y-57385018D01*
X109051626Y-57385018D02*
X108869403Y-57311375D01*
X108869403Y-57311375D02*
X108771056Y-57233520D01*
X108771056Y-57233520D02*
X108658239Y-57073598D01*
X108658239Y-57073598D02*
X108614827Y-56827396D01*
X108614827Y-56827396D02*
X108669762Y-56659049D01*
X108669762Y-56659049D02*
X108739167Y-56572770D01*
X108739167Y-56572770D02*
X108892449Y-56482278D01*
X108892449Y-56482278D02*
X109395706Y-56457004D01*
X109395706Y-56457004D02*
X109577929Y-56530647D01*
X109577929Y-56530647D02*
X109676275Y-56608502D01*
X109676275Y-56608502D02*
X109789093Y-56768424D01*
X109789093Y-56768424D02*
X109832505Y-57014626D01*
X109531569Y-55787829D02*
X109586503Y-55619482D01*
X109586503Y-55619482D02*
X109528621Y-55291213D01*
X109528621Y-55291213D02*
X109415803Y-55131291D01*
X109415803Y-55131291D02*
X109233580Y-55057648D01*
X109233580Y-55057648D02*
X109149704Y-55061860D01*
X109149704Y-55061860D02*
X108996422Y-55152352D01*
X108996422Y-55152352D02*
X108941488Y-55320699D01*
X108941488Y-55320699D02*
X108984900Y-55566901D01*
X108984900Y-55566901D02*
X108929965Y-55735248D01*
X108929965Y-55735248D02*
X108776683Y-55825739D01*
X108776683Y-55825739D02*
X108692807Y-55829952D01*
X108692807Y-55829952D02*
X108510584Y-55756309D01*
X108510584Y-55756309D02*
X108397767Y-55596387D01*
X108397767Y-55596387D02*
X108354355Y-55350185D01*
X108354355Y-55350185D02*
X108409289Y-55181838D01*
X108050470Y-53626771D02*
X109224736Y-53567799D01*
X108180706Y-54365377D02*
X109103344Y-54319042D01*
X109103344Y-54319042D02*
X109256626Y-54228550D01*
X109256626Y-54228550D02*
X109311560Y-54060203D01*
X109311560Y-54060203D02*
X109268148Y-53814001D01*
X109268148Y-53814001D02*
X109155331Y-53654079D01*
X109155331Y-53654079D02*
X109056984Y-53576224D01*
X109080030Y-52747126D02*
X107905764Y-52806098D01*
X108241268Y-52789249D02*
X108059045Y-52715606D01*
X108059045Y-52715606D02*
X107960698Y-52637751D01*
X107960698Y-52637751D02*
X107847881Y-52477829D01*
X107847881Y-52477829D02*
X107818939Y-52313694D01*
X108692269Y-51027925D02*
X108805087Y-51187848D01*
X108805087Y-51187848D02*
X108862969Y-51516117D01*
X108862969Y-51516117D02*
X108808035Y-51684464D01*
X108808035Y-51684464D02*
X108654753Y-51774956D01*
X108654753Y-51774956D02*
X107983744Y-51808654D01*
X107983744Y-51808654D02*
X107801521Y-51735011D01*
X107801521Y-51735011D02*
X107688703Y-51575089D01*
X107688703Y-51575089D02*
X107630821Y-51246819D01*
X107630821Y-51246819D02*
X107685755Y-51078472D01*
X107685755Y-51078472D02*
X107839037Y-50987981D01*
X107839037Y-50987981D02*
X108006789Y-50979556D01*
X108006789Y-50979556D02*
X108319248Y-51791805D01*
X108399908Y-48889963D02*
X106638509Y-48978421D01*
X107309518Y-48944723D02*
X107196700Y-48784800D01*
X107196700Y-48784800D02*
X107138818Y-48456531D01*
X107138818Y-48456531D02*
X107193752Y-48288184D01*
X107193752Y-48288184D02*
X107263158Y-48201905D01*
X107263158Y-48201905D02*
X107416439Y-48111413D01*
X107416439Y-48111413D02*
X107919696Y-48086139D01*
X107919696Y-48086139D02*
X108101919Y-48159782D01*
X108101919Y-48159782D02*
X108200266Y-48237637D01*
X108200266Y-48237637D02*
X108313084Y-48397559D01*
X108313084Y-48397559D02*
X108370966Y-48725829D01*
X108370966Y-48725829D02*
X108316032Y-48894175D01*
X106979640Y-47553791D02*
X108081553Y-47084483D01*
X106834933Y-46733118D02*
X108081553Y-47084483D01*
X108081553Y-47084483D02*
X108529875Y-47227556D01*
X108529875Y-47227556D02*
X108628222Y-47305411D01*
X108628222Y-47305411D02*
X108741039Y-47465333D01*
X107173117Y-44811872D02*
X107028410Y-43991199D01*
X107705315Y-44950733D02*
X105842621Y-44464720D01*
X105842621Y-44464720D02*
X107502726Y-43801791D01*
X107060030Y-42250936D02*
X107158377Y-42328791D01*
X107158377Y-42328791D02*
X107285665Y-42570781D01*
X107285665Y-42570781D02*
X107314607Y-42734916D01*
X107314607Y-42734916D02*
X107274143Y-42985330D01*
X107274143Y-42985330D02*
X107135332Y-43157889D01*
X107135332Y-43157889D02*
X106982050Y-43248381D01*
X106982050Y-43248381D02*
X106661016Y-43347297D01*
X106661016Y-43347297D02*
X106409388Y-43359934D01*
X106409388Y-43359934D02*
X106059412Y-43294716D01*
X106059412Y-43294716D02*
X105877190Y-43221073D01*
X105877190Y-43221073D02*
X105680496Y-43065363D01*
X105680496Y-43065363D02*
X105553208Y-42823373D01*
X105553208Y-42823373D02*
X105524266Y-42659239D01*
X105524266Y-42659239D02*
X105564730Y-42408825D01*
X105564730Y-42408825D02*
X105634136Y-42322545D01*
X106047621Y-41308251D02*
X105992686Y-41476598D01*
X105992686Y-41476598D02*
X105923280Y-41562878D01*
X105923280Y-41562878D02*
X105769999Y-41653370D01*
X105769999Y-41653370D02*
X105686123Y-41657582D01*
X105686123Y-41657582D02*
X105503900Y-41583939D01*
X105503900Y-41583939D02*
X105405553Y-41506084D01*
X105405553Y-41506084D02*
X105292735Y-41346162D01*
X105292735Y-41346162D02*
X105234853Y-41017892D01*
X105234853Y-41017892D02*
X105289787Y-40849546D01*
X105289787Y-40849546D02*
X105359193Y-40763266D01*
X105359193Y-40763266D02*
X105512475Y-40672774D01*
X105512475Y-40672774D02*
X105596351Y-40668562D01*
X105596351Y-40668562D02*
X105778574Y-40742205D01*
X105778574Y-40742205D02*
X105876920Y-40820060D01*
X105876920Y-40820060D02*
X105989738Y-40979982D01*
X105989738Y-40979982D02*
X106047621Y-41308251D01*
X106047621Y-41308251D02*
X106160438Y-41468174D01*
X106160438Y-41468174D02*
X106258785Y-41546029D01*
X106258785Y-41546029D02*
X106441008Y-41619671D01*
X106441008Y-41619671D02*
X106776513Y-41602822D01*
X106776513Y-41602822D02*
X106929794Y-41512331D01*
X106929794Y-41512331D02*
X106999200Y-41426051D01*
X106999200Y-41426051D02*
X107054134Y-41257704D01*
X107054134Y-41257704D02*
X106996252Y-40929435D01*
X106996252Y-40929435D02*
X106883434Y-40769512D01*
X106883434Y-40769512D02*
X106785087Y-40691657D01*
X106785087Y-40691657D02*
X106602864Y-40618015D01*
X106602864Y-40618015D02*
X106267360Y-40634864D01*
X106267360Y-40634864D02*
X106114078Y-40725356D01*
X106114078Y-40725356D02*
X106044673Y-40811635D01*
X106044673Y-40811635D02*
X105989738Y-40979982D01*
X105885495Y-39908894D02*
X105784200Y-39334423D01*
X106663426Y-39041886D02*
X106808133Y-39862559D01*
X106808133Y-39862559D02*
X105046734Y-39951017D01*
X105046734Y-39951017D02*
X104902027Y-39130344D01*
X106463784Y-38389560D02*
X106504249Y-38139146D01*
X106504249Y-38139146D02*
X106431895Y-37728810D01*
X106431895Y-37728810D02*
X106319078Y-37568887D01*
X106319078Y-37568887D02*
X106220731Y-37491032D01*
X106220731Y-37491032D02*
X106038508Y-37417389D01*
X106038508Y-37417389D02*
X105870756Y-37425814D01*
X105870756Y-37425814D02*
X105717474Y-37516306D01*
X105717474Y-37516306D02*
X105648069Y-37602585D01*
X105648069Y-37602585D02*
X105593134Y-37770932D01*
X105593134Y-37770932D02*
X105567140Y-38103414D01*
X105567140Y-38103414D02*
X105512206Y-38271761D01*
X105512206Y-38271761D02*
X105442800Y-38358040D01*
X105442800Y-38358040D02*
X105289518Y-38448532D01*
X105289518Y-38448532D02*
X105121766Y-38456957D01*
X105121766Y-38456957D02*
X104939543Y-38383314D01*
X104939543Y-38383314D02*
X104841196Y-38305459D01*
X104841196Y-38305459D02*
X104728379Y-38145537D01*
X104728379Y-38145537D02*
X104656025Y-37735200D01*
X104656025Y-37735200D02*
X104696490Y-37484786D01*
X134834435Y-95197219D02*
X135120149Y-95292457D01*
X135120149Y-95292457D02*
X135215387Y-95387695D01*
X135215387Y-95387695D02*
X135310625Y-95578171D01*
X135310625Y-95578171D02*
X135310625Y-95863885D01*
X135310625Y-95863885D02*
X135215387Y-96054361D01*
X135215387Y-96054361D02*
X135120149Y-96149600D01*
X135120149Y-96149600D02*
X134929673Y-96244838D01*
X134929673Y-96244838D02*
X134167768Y-96244838D01*
X134167768Y-96244838D02*
X134167768Y-94244838D01*
X134167768Y-94244838D02*
X134834435Y-94244838D01*
X134834435Y-94244838D02*
X135024911Y-94340076D01*
X135024911Y-94340076D02*
X135120149Y-94435314D01*
X135120149Y-94435314D02*
X135215387Y-94625790D01*
X135215387Y-94625790D02*
X135215387Y-94816266D01*
X135215387Y-94816266D02*
X135120149Y-95006742D01*
X135120149Y-95006742D02*
X135024911Y-95101980D01*
X135024911Y-95101980D02*
X134834435Y-95197219D01*
X134834435Y-95197219D02*
X134167768Y-95197219D01*
X136453482Y-96244838D02*
X136263006Y-96149600D01*
X136263006Y-96149600D02*
X136167768Y-96054361D01*
X136167768Y-96054361D02*
X136072530Y-95863885D01*
X136072530Y-95863885D02*
X136072530Y-95292457D01*
X136072530Y-95292457D02*
X136167768Y-95101980D01*
X136167768Y-95101980D02*
X136263006Y-95006742D01*
X136263006Y-95006742D02*
X136453482Y-94911504D01*
X136453482Y-94911504D02*
X136739197Y-94911504D01*
X136739197Y-94911504D02*
X136929673Y-95006742D01*
X136929673Y-95006742D02*
X137024911Y-95101980D01*
X137024911Y-95101980D02*
X137120149Y-95292457D01*
X137120149Y-95292457D02*
X137120149Y-95863885D01*
X137120149Y-95863885D02*
X137024911Y-96054361D01*
X137024911Y-96054361D02*
X136929673Y-96149600D01*
X136929673Y-96149600D02*
X136739197Y-96244838D01*
X136739197Y-96244838D02*
X136453482Y-96244838D01*
X137691578Y-94911504D02*
X138453482Y-94911504D01*
X137977292Y-94244838D02*
X137977292Y-95959123D01*
X137977292Y-95959123D02*
X138072530Y-96149600D01*
X138072530Y-96149600D02*
X138263006Y-96244838D01*
X138263006Y-96244838D02*
X138453482Y-96244838D01*
X139786816Y-95197219D02*
X139120149Y-95197219D01*
X139120149Y-96244838D02*
X139120149Y-94244838D01*
X139120149Y-94244838D02*
X140072530Y-94244838D01*
X140834435Y-96244838D02*
X140834435Y-94911504D01*
X140834435Y-95292457D02*
X140929673Y-95101980D01*
X140929673Y-95101980D02*
X141024911Y-95006742D01*
X141024911Y-95006742D02*
X141215387Y-94911504D01*
X141215387Y-94911504D02*
X141405864Y-94911504D01*
X142358244Y-96244838D02*
X142167768Y-96149600D01*
X142167768Y-96149600D02*
X142072530Y-96054361D01*
X142072530Y-96054361D02*
X141977292Y-95863885D01*
X141977292Y-95863885D02*
X141977292Y-95292457D01*
X141977292Y-95292457D02*
X142072530Y-95101980D01*
X142072530Y-95101980D02*
X142167768Y-95006742D01*
X142167768Y-95006742D02*
X142358244Y-94911504D01*
X142358244Y-94911504D02*
X142643959Y-94911504D01*
X142643959Y-94911504D02*
X142834435Y-95006742D01*
X142834435Y-95006742D02*
X142929673Y-95101980D01*
X142929673Y-95101980D02*
X143024911Y-95292457D01*
X143024911Y-95292457D02*
X143024911Y-95863885D01*
X143024911Y-95863885D02*
X142929673Y-96054361D01*
X142929673Y-96054361D02*
X142834435Y-96149600D01*
X142834435Y-96149600D02*
X142643959Y-96244838D01*
X142643959Y-96244838D02*
X142358244Y-96244838D01*
X143882054Y-94911504D02*
X143882054Y-96244838D01*
X143882054Y-95101980D02*
X143977292Y-95006742D01*
X143977292Y-95006742D02*
X144167768Y-94911504D01*
X144167768Y-94911504D02*
X144453483Y-94911504D01*
X144453483Y-94911504D02*
X144643959Y-95006742D01*
X144643959Y-95006742D02*
X144739197Y-95197219D01*
X144739197Y-95197219D02*
X144739197Y-96244838D01*
X145405864Y-94911504D02*
X146167768Y-94911504D01*
X145691578Y-94244838D02*
X145691578Y-95959123D01*
X145691578Y-95959123D02*
X145786816Y-96149600D01*
X145786816Y-96149600D02*
X145977292Y-96244838D01*
X145977292Y-96244838D02*
X146167768Y-96244838D01*
D12*
%TO.C,J48*%
X175111109Y-27839761D02*
X175468252Y-27839761D01*
X175468252Y-27839761D02*
X175539680Y-27863570D01*
X175539680Y-27863570D02*
X175587300Y-27911189D01*
X175587300Y-27911189D02*
X175611109Y-27982618D01*
X175611109Y-27982618D02*
X175611109Y-28030237D01*
X175277776Y-27387380D02*
X175611109Y-27387380D01*
X175087300Y-27506428D02*
X175444442Y-27625475D01*
X175444442Y-27625475D02*
X175444442Y-27315952D01*
X175325395Y-27054047D02*
X175301585Y-27101666D01*
X175301585Y-27101666D02*
X175277776Y-27125476D01*
X175277776Y-27125476D02*
X175230157Y-27149285D01*
X175230157Y-27149285D02*
X175206347Y-27149285D01*
X175206347Y-27149285D02*
X175158728Y-27125476D01*
X175158728Y-27125476D02*
X175134919Y-27101666D01*
X175134919Y-27101666D02*
X175111109Y-27054047D01*
X175111109Y-27054047D02*
X175111109Y-26958809D01*
X175111109Y-26958809D02*
X175134919Y-26911190D01*
X175134919Y-26911190D02*
X175158728Y-26887381D01*
X175158728Y-26887381D02*
X175206347Y-26863571D01*
X175206347Y-26863571D02*
X175230157Y-26863571D01*
X175230157Y-26863571D02*
X175277776Y-26887381D01*
X175277776Y-26887381D02*
X175301585Y-26911190D01*
X175301585Y-26911190D02*
X175325395Y-26958809D01*
X175325395Y-26958809D02*
X175325395Y-27054047D01*
X175325395Y-27054047D02*
X175349204Y-27101666D01*
X175349204Y-27101666D02*
X175373014Y-27125476D01*
X175373014Y-27125476D02*
X175420633Y-27149285D01*
X175420633Y-27149285D02*
X175515871Y-27149285D01*
X175515871Y-27149285D02*
X175563490Y-27125476D01*
X175563490Y-27125476D02*
X175587300Y-27101666D01*
X175587300Y-27101666D02*
X175611109Y-27054047D01*
X175611109Y-27054047D02*
X175611109Y-26958809D01*
X175611109Y-26958809D02*
X175587300Y-26911190D01*
X175587300Y-26911190D02*
X175563490Y-26887381D01*
X175563490Y-26887381D02*
X175515871Y-26863571D01*
X175515871Y-26863571D02*
X175420633Y-26863571D01*
X175420633Y-26863571D02*
X175373014Y-26887381D01*
X175373014Y-26887381D02*
X175349204Y-26911190D01*
X175349204Y-26911190D02*
X175325395Y-26958809D01*
%TO.C,J47*%
X172205238Y-98866109D02*
X172205238Y-99223252D01*
X172205238Y-99223252D02*
X172181429Y-99294680D01*
X172181429Y-99294680D02*
X172133810Y-99342300D01*
X172133810Y-99342300D02*
X172062381Y-99366109D01*
X172062381Y-99366109D02*
X172014762Y-99366109D01*
X172657619Y-99032776D02*
X172657619Y-99366109D01*
X172538571Y-98842300D02*
X172419524Y-99199442D01*
X172419524Y-99199442D02*
X172729047Y-99199442D01*
X172871904Y-98866109D02*
X173205237Y-98866109D01*
X173205237Y-98866109D02*
X172990952Y-99366109D01*
%TO.C,J45*%
X103255238Y-24386109D02*
X103255238Y-24743252D01*
X103255238Y-24743252D02*
X103231429Y-24814680D01*
X103231429Y-24814680D02*
X103183810Y-24862300D01*
X103183810Y-24862300D02*
X103112381Y-24886109D01*
X103112381Y-24886109D02*
X103064762Y-24886109D01*
X103707619Y-24552776D02*
X103707619Y-24886109D01*
X103588571Y-24362300D02*
X103469524Y-24719442D01*
X103469524Y-24719442D02*
X103779047Y-24719442D01*
X104207618Y-24386109D02*
X103969523Y-24386109D01*
X103969523Y-24386109D02*
X103945714Y-24624204D01*
X103945714Y-24624204D02*
X103969523Y-24600395D01*
X103969523Y-24600395D02*
X104017142Y-24576585D01*
X104017142Y-24576585D02*
X104136190Y-24576585D01*
X104136190Y-24576585D02*
X104183809Y-24600395D01*
X104183809Y-24600395D02*
X104207618Y-24624204D01*
X104207618Y-24624204D02*
X104231428Y-24671823D01*
X104231428Y-24671823D02*
X104231428Y-24790871D01*
X104231428Y-24790871D02*
X104207618Y-24838490D01*
X104207618Y-24838490D02*
X104183809Y-24862300D01*
X104183809Y-24862300D02*
X104136190Y-24886109D01*
X104136190Y-24886109D02*
X104017142Y-24886109D01*
X104017142Y-24886109D02*
X103969523Y-24862300D01*
X103969523Y-24862300D02*
X103945714Y-24838490D01*
%TO.C,J46*%
X100536109Y-96769761D02*
X100893252Y-96769761D01*
X100893252Y-96769761D02*
X100964680Y-96793570D01*
X100964680Y-96793570D02*
X101012300Y-96841189D01*
X101012300Y-96841189D02*
X101036109Y-96912618D01*
X101036109Y-96912618D02*
X101036109Y-96960237D01*
X100702776Y-96317380D02*
X101036109Y-96317380D01*
X100512300Y-96436428D02*
X100869442Y-96555475D01*
X100869442Y-96555475D02*
X100869442Y-96245952D01*
X100536109Y-95841190D02*
X100536109Y-95936428D01*
X100536109Y-95936428D02*
X100559919Y-95984047D01*
X100559919Y-95984047D02*
X100583728Y-96007857D01*
X100583728Y-96007857D02*
X100655157Y-96055476D01*
X100655157Y-96055476D02*
X100750395Y-96079285D01*
X100750395Y-96079285D02*
X100940871Y-96079285D01*
X100940871Y-96079285D02*
X100988490Y-96055476D01*
X100988490Y-96055476D02*
X101012300Y-96031666D01*
X101012300Y-96031666D02*
X101036109Y-95984047D01*
X101036109Y-95984047D02*
X101036109Y-95888809D01*
X101036109Y-95888809D02*
X101012300Y-95841190D01*
X101012300Y-95841190D02*
X100988490Y-95817381D01*
X100988490Y-95817381D02*
X100940871Y-95793571D01*
X100940871Y-95793571D02*
X100821823Y-95793571D01*
X100821823Y-95793571D02*
X100774204Y-95817381D01*
X100774204Y-95817381D02*
X100750395Y-95841190D01*
X100750395Y-95841190D02*
X100726585Y-95888809D01*
X100726585Y-95888809D02*
X100726585Y-95984047D01*
X100726585Y-95984047D02*
X100750395Y-96031666D01*
X100750395Y-96031666D02*
X100774204Y-96055476D01*
X100774204Y-96055476D02*
X100821823Y-96079285D01*
D13*
%TO.C,J48*%
X165665000Y-25530000D02*
X167060000Y-25530000D01*
X174470000Y-25535000D02*
X174470000Y-26930000D01*
X173135000Y-25535000D02*
X174465000Y-25535000D01*
X170765000Y-25580000D02*
X172160000Y-25580000D01*
X165665000Y-26865000D02*
X165665000Y-25535000D01*
X174495000Y-27990000D02*
X174495000Y-29320000D01*
X170710000Y-29285000D02*
X165665000Y-29285000D01*
X165660000Y-29285000D02*
X165660000Y-27890000D01*
X174515000Y-33055000D02*
X174515000Y-34385000D01*
X172045000Y-34335000D02*
X170715000Y-34335000D01*
X170710000Y-34335000D02*
X170710000Y-29285000D01*
X174515000Y-34390000D02*
X173120000Y-34390000D01*
%TO.C,J47*%
X174515000Y-89420000D02*
X174515000Y-90815000D01*
X174510000Y-98225000D02*
X173115000Y-98225000D01*
X174510000Y-96890000D02*
X174510000Y-98220000D01*
X174465000Y-94520000D02*
X174465000Y-95915000D01*
X173180000Y-89420000D02*
X174510000Y-89420000D01*
X172055000Y-98250000D02*
X170725000Y-98250000D01*
X170760000Y-94465000D02*
X170760000Y-89420000D01*
X170760000Y-89415000D02*
X172155000Y-89415000D01*
X166990000Y-98270000D02*
X165660000Y-98270000D01*
X165710000Y-95800000D02*
X165710000Y-94470000D01*
X165710000Y-94465000D02*
X170760000Y-94465000D01*
X165655000Y-98270000D02*
X165655000Y-96875000D01*
%TO.C,J45*%
X101755000Y-34380000D02*
X101755000Y-32985000D01*
X101760000Y-25575000D02*
X103155000Y-25575000D01*
X101760000Y-26910000D02*
X101760000Y-25580000D01*
X101805000Y-29280000D02*
X101805000Y-27885000D01*
X103090000Y-34380000D02*
X101760000Y-34380000D01*
X104215000Y-25550000D02*
X105545000Y-25550000D01*
X105510000Y-29335000D02*
X105510000Y-34380000D01*
X105510000Y-34385000D02*
X104115000Y-34385000D01*
X109280000Y-25530000D02*
X110610000Y-25530000D01*
X110560000Y-28000000D02*
X110560000Y-29330000D01*
X110560000Y-29335000D02*
X105510000Y-29335000D01*
X110615000Y-25530000D02*
X110615000Y-26925000D01*
%TO.C,J46*%
X110530000Y-98270000D02*
X109135000Y-98270000D01*
X101725000Y-98265000D02*
X101725000Y-96870000D01*
X103060000Y-98265000D02*
X101730000Y-98265000D01*
X105430000Y-98220000D02*
X104035000Y-98220000D01*
X110530000Y-96935000D02*
X110530000Y-98265000D01*
X101700000Y-95810000D02*
X101700000Y-94480000D01*
X105485000Y-94515000D02*
X110530000Y-94515000D01*
X110535000Y-94515000D02*
X110535000Y-95910000D01*
X101680000Y-90745000D02*
X101680000Y-89415000D01*
X104150000Y-89465000D02*
X105480000Y-89465000D01*
X105485000Y-89465000D02*
X105485000Y-94515000D01*
X101680000Y-89410000D02*
X103075000Y-89410000D01*
%TD*%
M02*
