%TF.GenerationSoftware,KiCad,Pcbnew,7.0.5-0*%
%TF.CreationDate,2024-04-21T20:24:37-04:00*%
%TF.ProjectId,swr_meter_bottom,7377725f-6d65-4746-9572-5f626f74746f,rev?*%
%TF.SameCoordinates,Original*%
%TF.FileFunction,Drillmap*%
%TF.FilePolarity,Positive*%
%FSLAX45Y45*%
G04 Gerber Fmt 4.5, Leading zero omitted, Abs format (unit mm)*
G04 Created by KiCad (PCBNEW 7.0.5-0) date 2024-04-21 20:24:37*
%MOMM*%
%LPD*%
G01*
G04 APERTURE LIST*
%ADD10C,0.349999*%
%ADD11C,0.350000*%
%ADD12C,0.200000*%
%ADD13C,0.220000*%
G04 APERTURE END LIST*
D10*
X17620001Y-9999995D02*
X17620001Y-7300000D01*
X14920000Y-2540000D02*
X12700000Y-2540000D01*
X17620920Y-2379995D02*
X14920900Y-2379995D01*
X12700000Y-9840000D02*
X14920000Y-9840000D01*
X10160000Y-7300000D02*
X10000000Y-7300000D01*
X14970000Y-5830000D02*
X14970000Y-6010000D01*
X12700000Y-2379997D02*
X10000000Y-2379995D01*
X10000000Y-10000000D02*
X12700000Y-10000000D01*
X10000000Y-5080000D02*
X10160000Y-5080000D01*
X12700000Y-10000000D02*
X12700000Y-9840000D01*
D11*
X17460000Y-5080000D02*
X17460000Y-7300000D01*
D10*
X17620000Y-7300000D02*
X17460000Y-7300000D01*
X10000000Y-2379995D02*
X10000000Y-5080000D01*
X12700000Y-2540000D02*
X12700000Y-2380000D01*
X14920000Y-9840000D02*
X14920000Y-10000000D01*
X10160000Y-5080000D02*
X10160000Y-7300000D01*
X17620001Y-5080000D02*
X17620001Y-2379995D01*
X14920000Y-2380000D02*
X14920000Y-2540000D01*
X12751740Y-6010000D02*
X12751740Y-5830000D01*
X10000000Y-7300000D02*
X10000000Y-10000000D01*
D11*
X12751740Y-5830000D02*
X14970000Y-5830000D01*
D10*
X14920000Y-10000000D02*
X17620000Y-10000000D01*
D11*
X17460000Y-5080000D02*
X17620001Y-5080000D01*
D10*
X14970000Y-6010000D02*
X12751740Y-6010000D01*
D12*
D13*
X10248000Y-9018500D02*
X10468000Y-9238500D01*
X10468000Y-9018500D02*
X10248000Y-9238500D01*
X10248000Y-9526500D02*
X10468000Y-9746500D01*
X10468000Y-9526500D02*
X10248000Y-9746500D01*
X10256000Y-2633000D02*
X10476000Y-2853000D01*
X10476000Y-2633000D02*
X10256000Y-2853000D01*
X10256000Y-3141000D02*
X10476000Y-3361000D01*
X10476000Y-3141000D02*
X10256000Y-3361000D01*
X10756000Y-9526500D02*
X10976000Y-9746500D01*
X10976000Y-9526500D02*
X10756000Y-9746500D01*
X10764000Y-2633000D02*
X10984000Y-2853000D01*
X10984000Y-2633000D02*
X10764000Y-2853000D01*
X16643000Y-9527000D02*
X16863000Y-9747000D01*
X16863000Y-9527000D02*
X16643000Y-9747000D01*
X16643500Y-2633500D02*
X16863500Y-2853500D01*
X16863500Y-2633500D02*
X16643500Y-2853500D01*
X17151000Y-9019000D02*
X17371000Y-9239000D01*
X17371000Y-9019000D02*
X17151000Y-9239000D01*
X17151000Y-9527000D02*
X17371000Y-9747000D01*
X17371000Y-9527000D02*
X17151000Y-9747000D01*
X17151500Y-2633500D02*
X17371500Y-2853500D01*
X17371500Y-2633500D02*
X17151500Y-2853500D01*
X17151500Y-3141500D02*
X17371500Y-3361500D01*
X17371500Y-3141500D02*
X17151500Y-3361500D01*
D12*
X10243277Y-10328984D02*
X10243277Y-10128984D01*
X10243277Y-10128984D02*
X10290896Y-10128984D01*
X10290896Y-10128984D02*
X10319467Y-10138508D01*
X10319467Y-10138508D02*
X10338515Y-10157555D01*
X10338515Y-10157555D02*
X10348039Y-10176603D01*
X10348039Y-10176603D02*
X10357563Y-10214698D01*
X10357563Y-10214698D02*
X10357563Y-10243269D01*
X10357563Y-10243269D02*
X10348039Y-10281365D01*
X10348039Y-10281365D02*
X10338515Y-10300412D01*
X10338515Y-10300412D02*
X10319467Y-10319460D01*
X10319467Y-10319460D02*
X10290896Y-10328984D01*
X10290896Y-10328984D02*
X10243277Y-10328984D01*
X10443277Y-10328984D02*
X10443277Y-10195650D01*
X10443277Y-10233746D02*
X10452801Y-10214698D01*
X10452801Y-10214698D02*
X10462325Y-10205174D01*
X10462325Y-10205174D02*
X10481372Y-10195650D01*
X10481372Y-10195650D02*
X10500420Y-10195650D01*
X10567086Y-10328984D02*
X10567086Y-10195650D01*
X10567086Y-10128984D02*
X10557563Y-10138508D01*
X10557563Y-10138508D02*
X10567086Y-10148031D01*
X10567086Y-10148031D02*
X10576610Y-10138508D01*
X10576610Y-10138508D02*
X10567086Y-10128984D01*
X10567086Y-10128984D02*
X10567086Y-10148031D01*
X10690896Y-10328984D02*
X10671848Y-10319460D01*
X10671848Y-10319460D02*
X10662325Y-10300412D01*
X10662325Y-10300412D02*
X10662325Y-10128984D01*
X10795658Y-10328984D02*
X10776610Y-10319460D01*
X10776610Y-10319460D02*
X10767086Y-10300412D01*
X10767086Y-10300412D02*
X10767086Y-10128984D01*
X11024229Y-10328984D02*
X11024229Y-10128984D01*
X11024229Y-10128984D02*
X11090896Y-10271841D01*
X11090896Y-10271841D02*
X11157563Y-10128984D01*
X11157563Y-10128984D02*
X11157563Y-10328984D01*
X11338515Y-10328984D02*
X11338515Y-10224222D01*
X11338515Y-10224222D02*
X11328991Y-10205174D01*
X11328991Y-10205174D02*
X11309944Y-10195650D01*
X11309944Y-10195650D02*
X11271848Y-10195650D01*
X11271848Y-10195650D02*
X11252801Y-10205174D01*
X11338515Y-10319460D02*
X11319467Y-10328984D01*
X11319467Y-10328984D02*
X11271848Y-10328984D01*
X11271848Y-10328984D02*
X11252801Y-10319460D01*
X11252801Y-10319460D02*
X11243277Y-10300412D01*
X11243277Y-10300412D02*
X11243277Y-10281365D01*
X11243277Y-10281365D02*
X11252801Y-10262317D01*
X11252801Y-10262317D02*
X11271848Y-10252793D01*
X11271848Y-10252793D02*
X11319467Y-10252793D01*
X11319467Y-10252793D02*
X11338515Y-10243269D01*
X11433753Y-10195650D02*
X11433753Y-10395650D01*
X11433753Y-10205174D02*
X11452801Y-10195650D01*
X11452801Y-10195650D02*
X11490896Y-10195650D01*
X11490896Y-10195650D02*
X11509944Y-10205174D01*
X11509944Y-10205174D02*
X11519467Y-10214698D01*
X11519467Y-10214698D02*
X11528991Y-10233746D01*
X11528991Y-10233746D02*
X11528991Y-10290888D01*
X11528991Y-10290888D02*
X11519467Y-10309936D01*
X11519467Y-10309936D02*
X11509944Y-10319460D01*
X11509944Y-10319460D02*
X11490896Y-10328984D01*
X11490896Y-10328984D02*
X11452801Y-10328984D01*
X11452801Y-10328984D02*
X11433753Y-10319460D01*
X11614705Y-10309936D02*
X11624229Y-10319460D01*
X11624229Y-10319460D02*
X11614705Y-10328984D01*
X11614705Y-10328984D02*
X11605182Y-10319460D01*
X11605182Y-10319460D02*
X11614705Y-10309936D01*
X11614705Y-10309936D02*
X11614705Y-10328984D01*
X11614705Y-10205174D02*
X11624229Y-10214698D01*
X11624229Y-10214698D02*
X11614705Y-10224222D01*
X11614705Y-10224222D02*
X11605182Y-10214698D01*
X11605182Y-10214698D02*
X11614705Y-10205174D01*
X11614705Y-10205174D02*
X11614705Y-10224222D01*
X9782500Y-10557500D02*
X9982500Y-10757500D01*
X9982500Y-10557500D02*
X9782500Y-10757500D01*
X10233753Y-10568031D02*
X10243277Y-10558508D01*
X10243277Y-10558508D02*
X10262325Y-10548984D01*
X10262325Y-10548984D02*
X10309944Y-10548984D01*
X10309944Y-10548984D02*
X10328991Y-10558508D01*
X10328991Y-10558508D02*
X10338515Y-10568031D01*
X10338515Y-10568031D02*
X10348039Y-10587079D01*
X10348039Y-10587079D02*
X10348039Y-10606127D01*
X10348039Y-10606127D02*
X10338515Y-10634698D01*
X10338515Y-10634698D02*
X10224229Y-10748984D01*
X10224229Y-10748984D02*
X10348039Y-10748984D01*
X10433753Y-10729936D02*
X10443277Y-10739460D01*
X10443277Y-10739460D02*
X10433753Y-10748984D01*
X10433753Y-10748984D02*
X10424229Y-10739460D01*
X10424229Y-10739460D02*
X10433753Y-10729936D01*
X10433753Y-10729936D02*
X10433753Y-10748984D01*
X10519467Y-10568031D02*
X10528991Y-10558508D01*
X10528991Y-10558508D02*
X10548039Y-10548984D01*
X10548039Y-10548984D02*
X10595658Y-10548984D01*
X10595658Y-10548984D02*
X10614706Y-10558508D01*
X10614706Y-10558508D02*
X10624229Y-10568031D01*
X10624229Y-10568031D02*
X10633753Y-10587079D01*
X10633753Y-10587079D02*
X10633753Y-10606127D01*
X10633753Y-10606127D02*
X10624229Y-10634698D01*
X10624229Y-10634698D02*
X10509944Y-10748984D01*
X10509944Y-10748984D02*
X10633753Y-10748984D01*
X10757563Y-10548984D02*
X10776610Y-10548984D01*
X10776610Y-10548984D02*
X10795658Y-10558508D01*
X10795658Y-10558508D02*
X10805182Y-10568031D01*
X10805182Y-10568031D02*
X10814706Y-10587079D01*
X10814706Y-10587079D02*
X10824229Y-10625174D01*
X10824229Y-10625174D02*
X10824229Y-10672793D01*
X10824229Y-10672793D02*
X10814706Y-10710888D01*
X10814706Y-10710888D02*
X10805182Y-10729936D01*
X10805182Y-10729936D02*
X10795658Y-10739460D01*
X10795658Y-10739460D02*
X10776610Y-10748984D01*
X10776610Y-10748984D02*
X10757563Y-10748984D01*
X10757563Y-10748984D02*
X10738515Y-10739460D01*
X10738515Y-10739460D02*
X10728991Y-10729936D01*
X10728991Y-10729936D02*
X10719467Y-10710888D01*
X10719467Y-10710888D02*
X10709944Y-10672793D01*
X10709944Y-10672793D02*
X10709944Y-10625174D01*
X10709944Y-10625174D02*
X10719467Y-10587079D01*
X10719467Y-10587079D02*
X10728991Y-10568031D01*
X10728991Y-10568031D02*
X10738515Y-10558508D01*
X10738515Y-10558508D02*
X10757563Y-10548984D01*
X10948039Y-10548984D02*
X10967087Y-10548984D01*
X10967087Y-10548984D02*
X10986134Y-10558508D01*
X10986134Y-10558508D02*
X10995658Y-10568031D01*
X10995658Y-10568031D02*
X11005182Y-10587079D01*
X11005182Y-10587079D02*
X11014706Y-10625174D01*
X11014706Y-10625174D02*
X11014706Y-10672793D01*
X11014706Y-10672793D02*
X11005182Y-10710888D01*
X11005182Y-10710888D02*
X10995658Y-10729936D01*
X10995658Y-10729936D02*
X10986134Y-10739460D01*
X10986134Y-10739460D02*
X10967087Y-10748984D01*
X10967087Y-10748984D02*
X10948039Y-10748984D01*
X10948039Y-10748984D02*
X10928991Y-10739460D01*
X10928991Y-10739460D02*
X10919467Y-10729936D01*
X10919467Y-10729936D02*
X10909944Y-10710888D01*
X10909944Y-10710888D02*
X10900420Y-10672793D01*
X10900420Y-10672793D02*
X10900420Y-10625174D01*
X10900420Y-10625174D02*
X10909944Y-10587079D01*
X10909944Y-10587079D02*
X10919467Y-10568031D01*
X10919467Y-10568031D02*
X10928991Y-10558508D01*
X10928991Y-10558508D02*
X10948039Y-10548984D01*
X11100420Y-10748984D02*
X11100420Y-10615650D01*
X11100420Y-10634698D02*
X11109944Y-10625174D01*
X11109944Y-10625174D02*
X11128991Y-10615650D01*
X11128991Y-10615650D02*
X11157563Y-10615650D01*
X11157563Y-10615650D02*
X11176610Y-10625174D01*
X11176610Y-10625174D02*
X11186134Y-10644222D01*
X11186134Y-10644222D02*
X11186134Y-10748984D01*
X11186134Y-10644222D02*
X11195658Y-10625174D01*
X11195658Y-10625174D02*
X11214705Y-10615650D01*
X11214705Y-10615650D02*
X11243277Y-10615650D01*
X11243277Y-10615650D02*
X11262325Y-10625174D01*
X11262325Y-10625174D02*
X11271848Y-10644222D01*
X11271848Y-10644222D02*
X11271848Y-10748984D01*
X11367086Y-10748984D02*
X11367086Y-10615650D01*
X11367086Y-10634698D02*
X11376610Y-10625174D01*
X11376610Y-10625174D02*
X11395658Y-10615650D01*
X11395658Y-10615650D02*
X11424229Y-10615650D01*
X11424229Y-10615650D02*
X11443277Y-10625174D01*
X11443277Y-10625174D02*
X11452801Y-10644222D01*
X11452801Y-10644222D02*
X11452801Y-10748984D01*
X11452801Y-10644222D02*
X11462325Y-10625174D01*
X11462325Y-10625174D02*
X11481372Y-10615650D01*
X11481372Y-10615650D02*
X11509944Y-10615650D01*
X11509944Y-10615650D02*
X11528991Y-10625174D01*
X11528991Y-10625174D02*
X11538515Y-10644222D01*
X11538515Y-10644222D02*
X11538515Y-10748984D01*
X11928991Y-10539460D02*
X11757563Y-10796603D01*
X12186134Y-10548984D02*
X12205182Y-10548984D01*
X12205182Y-10548984D02*
X12224229Y-10558508D01*
X12224229Y-10558508D02*
X12233753Y-10568031D01*
X12233753Y-10568031D02*
X12243277Y-10587079D01*
X12243277Y-10587079D02*
X12252801Y-10625174D01*
X12252801Y-10625174D02*
X12252801Y-10672793D01*
X12252801Y-10672793D02*
X12243277Y-10710888D01*
X12243277Y-10710888D02*
X12233753Y-10729936D01*
X12233753Y-10729936D02*
X12224229Y-10739460D01*
X12224229Y-10739460D02*
X12205182Y-10748984D01*
X12205182Y-10748984D02*
X12186134Y-10748984D01*
X12186134Y-10748984D02*
X12167087Y-10739460D01*
X12167087Y-10739460D02*
X12157563Y-10729936D01*
X12157563Y-10729936D02*
X12148039Y-10710888D01*
X12148039Y-10710888D02*
X12138515Y-10672793D01*
X12138515Y-10672793D02*
X12138515Y-10625174D01*
X12138515Y-10625174D02*
X12148039Y-10587079D01*
X12148039Y-10587079D02*
X12157563Y-10568031D01*
X12157563Y-10568031D02*
X12167087Y-10558508D01*
X12167087Y-10558508D02*
X12186134Y-10548984D01*
X12338515Y-10729936D02*
X12348039Y-10739460D01*
X12348039Y-10739460D02*
X12338515Y-10748984D01*
X12338515Y-10748984D02*
X12328991Y-10739460D01*
X12328991Y-10739460D02*
X12338515Y-10729936D01*
X12338515Y-10729936D02*
X12338515Y-10748984D01*
X12471848Y-10548984D02*
X12490896Y-10548984D01*
X12490896Y-10548984D02*
X12509944Y-10558508D01*
X12509944Y-10558508D02*
X12519468Y-10568031D01*
X12519468Y-10568031D02*
X12528991Y-10587079D01*
X12528991Y-10587079D02*
X12538515Y-10625174D01*
X12538515Y-10625174D02*
X12538515Y-10672793D01*
X12538515Y-10672793D02*
X12528991Y-10710888D01*
X12528991Y-10710888D02*
X12519468Y-10729936D01*
X12519468Y-10729936D02*
X12509944Y-10739460D01*
X12509944Y-10739460D02*
X12490896Y-10748984D01*
X12490896Y-10748984D02*
X12471848Y-10748984D01*
X12471848Y-10748984D02*
X12452801Y-10739460D01*
X12452801Y-10739460D02*
X12443277Y-10729936D01*
X12443277Y-10729936D02*
X12433753Y-10710888D01*
X12433753Y-10710888D02*
X12424229Y-10672793D01*
X12424229Y-10672793D02*
X12424229Y-10625174D01*
X12424229Y-10625174D02*
X12433753Y-10587079D01*
X12433753Y-10587079D02*
X12443277Y-10568031D01*
X12443277Y-10568031D02*
X12452801Y-10558508D01*
X12452801Y-10558508D02*
X12471848Y-10548984D01*
X12652801Y-10634698D02*
X12633753Y-10625174D01*
X12633753Y-10625174D02*
X12624229Y-10615650D01*
X12624229Y-10615650D02*
X12614706Y-10596603D01*
X12614706Y-10596603D02*
X12614706Y-10587079D01*
X12614706Y-10587079D02*
X12624229Y-10568031D01*
X12624229Y-10568031D02*
X12633753Y-10558508D01*
X12633753Y-10558508D02*
X12652801Y-10548984D01*
X12652801Y-10548984D02*
X12690896Y-10548984D01*
X12690896Y-10548984D02*
X12709944Y-10558508D01*
X12709944Y-10558508D02*
X12719468Y-10568031D01*
X12719468Y-10568031D02*
X12728991Y-10587079D01*
X12728991Y-10587079D02*
X12728991Y-10596603D01*
X12728991Y-10596603D02*
X12719468Y-10615650D01*
X12719468Y-10615650D02*
X12709944Y-10625174D01*
X12709944Y-10625174D02*
X12690896Y-10634698D01*
X12690896Y-10634698D02*
X12652801Y-10634698D01*
X12652801Y-10634698D02*
X12633753Y-10644222D01*
X12633753Y-10644222D02*
X12624229Y-10653746D01*
X12624229Y-10653746D02*
X12614706Y-10672793D01*
X12614706Y-10672793D02*
X12614706Y-10710888D01*
X12614706Y-10710888D02*
X12624229Y-10729936D01*
X12624229Y-10729936D02*
X12633753Y-10739460D01*
X12633753Y-10739460D02*
X12652801Y-10748984D01*
X12652801Y-10748984D02*
X12690896Y-10748984D01*
X12690896Y-10748984D02*
X12709944Y-10739460D01*
X12709944Y-10739460D02*
X12719468Y-10729936D01*
X12719468Y-10729936D02*
X12728991Y-10710888D01*
X12728991Y-10710888D02*
X12728991Y-10672793D01*
X12728991Y-10672793D02*
X12719468Y-10653746D01*
X12719468Y-10653746D02*
X12709944Y-10644222D01*
X12709944Y-10644222D02*
X12690896Y-10634698D01*
X12900420Y-10548984D02*
X12862325Y-10548984D01*
X12862325Y-10548984D02*
X12843277Y-10558508D01*
X12843277Y-10558508D02*
X12833753Y-10568031D01*
X12833753Y-10568031D02*
X12814706Y-10596603D01*
X12814706Y-10596603D02*
X12805182Y-10634698D01*
X12805182Y-10634698D02*
X12805182Y-10710888D01*
X12805182Y-10710888D02*
X12814706Y-10729936D01*
X12814706Y-10729936D02*
X12824229Y-10739460D01*
X12824229Y-10739460D02*
X12843277Y-10748984D01*
X12843277Y-10748984D02*
X12881372Y-10748984D01*
X12881372Y-10748984D02*
X12900420Y-10739460D01*
X12900420Y-10739460D02*
X12909944Y-10729936D01*
X12909944Y-10729936D02*
X12919468Y-10710888D01*
X12919468Y-10710888D02*
X12919468Y-10663269D01*
X12919468Y-10663269D02*
X12909944Y-10644222D01*
X12909944Y-10644222D02*
X12900420Y-10634698D01*
X12900420Y-10634698D02*
X12881372Y-10625174D01*
X12881372Y-10625174D02*
X12843277Y-10625174D01*
X12843277Y-10625174D02*
X12824229Y-10634698D01*
X12824229Y-10634698D02*
X12814706Y-10644222D01*
X12814706Y-10644222D02*
X12805182Y-10663269D01*
X13090896Y-10548984D02*
X13052801Y-10548984D01*
X13052801Y-10548984D02*
X13033753Y-10558508D01*
X13033753Y-10558508D02*
X13024229Y-10568031D01*
X13024229Y-10568031D02*
X13005182Y-10596603D01*
X13005182Y-10596603D02*
X12995658Y-10634698D01*
X12995658Y-10634698D02*
X12995658Y-10710888D01*
X12995658Y-10710888D02*
X13005182Y-10729936D01*
X13005182Y-10729936D02*
X13014706Y-10739460D01*
X13014706Y-10739460D02*
X13033753Y-10748984D01*
X13033753Y-10748984D02*
X13071849Y-10748984D01*
X13071849Y-10748984D02*
X13090896Y-10739460D01*
X13090896Y-10739460D02*
X13100420Y-10729936D01*
X13100420Y-10729936D02*
X13109944Y-10710888D01*
X13109944Y-10710888D02*
X13109944Y-10663269D01*
X13109944Y-10663269D02*
X13100420Y-10644222D01*
X13100420Y-10644222D02*
X13090896Y-10634698D01*
X13090896Y-10634698D02*
X13071849Y-10625174D01*
X13071849Y-10625174D02*
X13033753Y-10625174D01*
X13033753Y-10625174D02*
X13014706Y-10634698D01*
X13014706Y-10634698D02*
X13005182Y-10644222D01*
X13005182Y-10644222D02*
X12995658Y-10663269D01*
X13186134Y-10548984D02*
X13186134Y-10587079D01*
X13262325Y-10548984D02*
X13262325Y-10587079D01*
X13557563Y-10825174D02*
X13548039Y-10815650D01*
X13548039Y-10815650D02*
X13528991Y-10787079D01*
X13528991Y-10787079D02*
X13519468Y-10768031D01*
X13519468Y-10768031D02*
X13509944Y-10739460D01*
X13509944Y-10739460D02*
X13500420Y-10691841D01*
X13500420Y-10691841D02*
X13500420Y-10653746D01*
X13500420Y-10653746D02*
X13509944Y-10606127D01*
X13509944Y-10606127D02*
X13519468Y-10577555D01*
X13519468Y-10577555D02*
X13528991Y-10558508D01*
X13528991Y-10558508D02*
X13548039Y-10529936D01*
X13548039Y-10529936D02*
X13557563Y-10520412D01*
X13738515Y-10748984D02*
X13624230Y-10748984D01*
X13681372Y-10748984D02*
X13681372Y-10548984D01*
X13681372Y-10548984D02*
X13662325Y-10577555D01*
X13662325Y-10577555D02*
X13643277Y-10596603D01*
X13643277Y-10596603D02*
X13624230Y-10606127D01*
X13814706Y-10568031D02*
X13824230Y-10558508D01*
X13824230Y-10558508D02*
X13843277Y-10548984D01*
X13843277Y-10548984D02*
X13890896Y-10548984D01*
X13890896Y-10548984D02*
X13909944Y-10558508D01*
X13909944Y-10558508D02*
X13919468Y-10568031D01*
X13919468Y-10568031D02*
X13928991Y-10587079D01*
X13928991Y-10587079D02*
X13928991Y-10606127D01*
X13928991Y-10606127D02*
X13919468Y-10634698D01*
X13919468Y-10634698D02*
X13805182Y-10748984D01*
X13805182Y-10748984D02*
X13928991Y-10748984D01*
X14167087Y-10748984D02*
X14167087Y-10548984D01*
X14252801Y-10748984D02*
X14252801Y-10644222D01*
X14252801Y-10644222D02*
X14243277Y-10625174D01*
X14243277Y-10625174D02*
X14224230Y-10615650D01*
X14224230Y-10615650D02*
X14195658Y-10615650D01*
X14195658Y-10615650D02*
X14176611Y-10625174D01*
X14176611Y-10625174D02*
X14167087Y-10634698D01*
X14376611Y-10748984D02*
X14357563Y-10739460D01*
X14357563Y-10739460D02*
X14348039Y-10729936D01*
X14348039Y-10729936D02*
X14338515Y-10710888D01*
X14338515Y-10710888D02*
X14338515Y-10653746D01*
X14338515Y-10653746D02*
X14348039Y-10634698D01*
X14348039Y-10634698D02*
X14357563Y-10625174D01*
X14357563Y-10625174D02*
X14376611Y-10615650D01*
X14376611Y-10615650D02*
X14405182Y-10615650D01*
X14405182Y-10615650D02*
X14424230Y-10625174D01*
X14424230Y-10625174D02*
X14433753Y-10634698D01*
X14433753Y-10634698D02*
X14443277Y-10653746D01*
X14443277Y-10653746D02*
X14443277Y-10710888D01*
X14443277Y-10710888D02*
X14433753Y-10729936D01*
X14433753Y-10729936D02*
X14424230Y-10739460D01*
X14424230Y-10739460D02*
X14405182Y-10748984D01*
X14405182Y-10748984D02*
X14376611Y-10748984D01*
X14557563Y-10748984D02*
X14538515Y-10739460D01*
X14538515Y-10739460D02*
X14528992Y-10720412D01*
X14528992Y-10720412D02*
X14528992Y-10548984D01*
X14709944Y-10739460D02*
X14690896Y-10748984D01*
X14690896Y-10748984D02*
X14652801Y-10748984D01*
X14652801Y-10748984D02*
X14633753Y-10739460D01*
X14633753Y-10739460D02*
X14624230Y-10720412D01*
X14624230Y-10720412D02*
X14624230Y-10644222D01*
X14624230Y-10644222D02*
X14633753Y-10625174D01*
X14633753Y-10625174D02*
X14652801Y-10615650D01*
X14652801Y-10615650D02*
X14690896Y-10615650D01*
X14690896Y-10615650D02*
X14709944Y-10625174D01*
X14709944Y-10625174D02*
X14719468Y-10644222D01*
X14719468Y-10644222D02*
X14719468Y-10663269D01*
X14719468Y-10663269D02*
X14624230Y-10682317D01*
X14795658Y-10739460D02*
X14814706Y-10748984D01*
X14814706Y-10748984D02*
X14852801Y-10748984D01*
X14852801Y-10748984D02*
X14871849Y-10739460D01*
X14871849Y-10739460D02*
X14881373Y-10720412D01*
X14881373Y-10720412D02*
X14881373Y-10710888D01*
X14881373Y-10710888D02*
X14871849Y-10691841D01*
X14871849Y-10691841D02*
X14852801Y-10682317D01*
X14852801Y-10682317D02*
X14824230Y-10682317D01*
X14824230Y-10682317D02*
X14805182Y-10672793D01*
X14805182Y-10672793D02*
X14795658Y-10653746D01*
X14795658Y-10653746D02*
X14795658Y-10644222D01*
X14795658Y-10644222D02*
X14805182Y-10625174D01*
X14805182Y-10625174D02*
X14824230Y-10615650D01*
X14824230Y-10615650D02*
X14852801Y-10615650D01*
X14852801Y-10615650D02*
X14871849Y-10625174D01*
X14948039Y-10825174D02*
X14957563Y-10815650D01*
X14957563Y-10815650D02*
X14976611Y-10787079D01*
X14976611Y-10787079D02*
X14986134Y-10768031D01*
X14986134Y-10768031D02*
X14995658Y-10739460D01*
X14995658Y-10739460D02*
X15005182Y-10691841D01*
X15005182Y-10691841D02*
X15005182Y-10653746D01*
X15005182Y-10653746D02*
X14995658Y-10606127D01*
X14995658Y-10606127D02*
X14986134Y-10577555D01*
X14986134Y-10577555D02*
X14976611Y-10558508D01*
X14976611Y-10558508D02*
X14957563Y-10529936D01*
X14957563Y-10529936D02*
X14948039Y-10520412D01*
M02*
